<svg xmlns="http://www.w3.org/2000/svg" width="280" height="340" fill="none" viewBox="0 0 280 340"><path fill="#F1F1F1" fill-rule="evenodd" d="M200 0H220V20H200V0ZM200 40H180V20H200V40ZM220 40V60H200V40H220ZM240 20V40H220V20H240ZM260 20H240V0H260V20ZM260 20H280V40H260V20ZM20 120H0V140H20V160H0V180H20V160H40V180H60V200H80V220H60V240H80V260H60V280H80V260H100V240H120V220H140V240H160V220H180V200H160V180H140V200H120V180H100V200H80V180H60V160H40V140H60V120H40V140H20V120ZM100 220H120V200H100V220ZM140 200H160V220H140V200ZM100 220H80V240H100V220ZM180 140H200V160H180V140ZM220 160V180H200V160H220ZM220 140H240V160H220V140ZM220 140V120H200V140H220ZM200 240H220V260H200V240ZM200 260V280H180V260H200Z" clip-rule="evenodd"/><path fill="#000" fill-rule="evenodd" d="M120 0H60V60H0V120H60V180H0V240V300V340H40V300H60V240V180H120V200H140V180H120V120H180H220V140H240H260V160H280V140H260V120H240V60H180V0H120Z" clip-rule="evenodd"/></svg>