<svg xmlns="http://www.w3.org/2000/svg" width="240" height="300" fill="none" viewBox="0 0 240 300"><path fill="#000" fill-rule="evenodd" d="M80 80H60V100H80V80ZM120 100H100V120H60V160H100V220H160V280H100V240H60V280H40V300H100H160H240V260V220V200H180V220H160V160H100V120H120V100ZM220 180V160H180V100H240V160V180H220Z" clip-rule="evenodd"/><path fill="#F1F1F1" fill-rule="evenodd" d="M240 0H220V20H200V40H180V60H160V80H180V100H160V120H180V100H200V80H220V100H240V80H220V60H240V40H220V20H240V0ZM200 60V80H180V60H200ZM200 60H220V40H200V60ZM160 140H180V160H160V140ZM200 180V160H180V180H160V200H180V180H200ZM200 180H220V200H200V180ZM40 140H60V160H40V140ZM40 120V140H20V120H40ZM40 120H60V100H40V120ZM100 100H80V120H100V100ZM120 220H140V240H120V220ZM120 260V240H100V220H80V200H60V220H40V240H60V220H80V240H100V260H120ZM140 260V280H120V260H140ZM140 260H160V240H140V260ZM60 260H40V280H20V260H0V280H20V300H40V280H60V260Z" clip-rule="evenodd"/></svg>