<?xml version="1.0" encoding="UTF-8" standalone="no"?>
<svg width="200px" height="60px" viewBox="0 0 200 60" version="1.1" xmlns="http://www.w3.org/2000/svg" xmlns:xlink="http://www.w3.org/1999/xlink">
    <!-- Generator: Sketch 39.1 (31720) - http://www.bohemiancoding.com/sketch -->
    <title>Artboard 2</title>
    <desc>Created with Sketch.</desc>
    <defs>
        <polygon id="path-1" points="0.32736457 48.3516484 7.67456155 48.3516484 7.67456155 0.612101648 0.32736457 0.612101648"></polygon>
    </defs>
    <g id="Wires" stroke="none" stroke-width="1" fill="none" fill-rule="evenodd">
        <g id="Artboard-2">
            <rect id="Rectangle-13" x="0" y="0" width="200" height="60"></rect>
            <g id="Page-1" transform="translate(14.000000, 5.000000)">
                <path d="M44.5211283,40.3078984 C44.6344294,40.3366071 44.7431984,40.3743819 44.8519674,40.4106456 C45.0408025,40.4741071 45.2296377,40.5360577 45.4381116,40.5783654 C45.5000496,40.5889423 45.5634982,40.5934753 45.6677352,40.5995192 C46.7569362,40.7974588 47.7554963,40.8941621 48.7638758,40.8941621 C48.8348778,40.8941621 48.9058799,40.8866071 49.0403305,40.8699863 C49.691434,40.8548764 50.3213879,40.8004808 50.8833613,40.7083104 C54.6555317,40.2731456 57.994892,38.7953984 60.5419002,36.4367445 C60.7337566,36.2592033 60.7820984,35.9751374 60.6627546,35.743956 L57.6595208,29.9614011 C57.5719013,29.7951923 57.4102585,29.6803571 57.2244447,29.6546703 C57.047695,29.6199176 56.8513065,29.693956 56.723654,29.8299451 C54.4908675,32.1901099 51.7520028,33.4442308 48.748769,33.4578297 C44.5377458,33.4502747 41.3048885,31.0115385 40.3131264,27.0912775 C40.0835029,26.1816621 39.9762445,25.3989698 39.9762445,24.6253434 C39.9762445,23.862294 40.0804815,23.0901786 40.3040623,22.1956731 C41.2837389,18.2527473 44.5196176,15.7989011 48.8031535,15.7958791 C51.7535135,15.806456 54.4923781,17.0605769 56.723654,19.4207418 C56.8513065,19.5567308 57.0386309,19.6232143 57.2244447,19.5960165 C57.4102585,19.5703297 57.5719013,19.4554945 57.6595208,19.2892857 L60.6627546,13.5067308 C60.7820984,13.2755495 60.7337566,12.9914835 60.5419002,12.8131868 C57.4404721,9.94004121 53.2581518,8.35652473 48.7185554,8.35652473 C47.7494536,8.35652473 46.7508934,8.45322802 45.6299681,8.65267857 C45.6042866,8.65267857 45.4592612,8.66929945 45.4320689,8.67383242 C45.232659,8.71311813 45.0438239,8.77506868 44.8549888,8.83853022 C44.7462198,8.87479396 44.63594,8.91256868 44.522639,8.94127747 C37.3567237,10.7695742 32.5421834,17.054533 32.5421834,24.6691621 C32.5421834,32.1946429 37.3567237,38.4796016 44.5211283,40.3078984" id="Fill-1" fill="#0000FF"></path>
                <path d="M7.42280656,33.4440797 L7.42280656,15.8063049 L11.9450301,15.8063049 C16.9529376,15.8063049 20.4494087,19.4326786 20.4494087,24.6251923 C20.4494087,29.817706 16.9529376,33.4440797 11.9450301,33.4440797 L7.42280656,33.4440797 Z M0.580177033,40.8713462 L11.9450301,40.8713462 C21.1760463,40.8713462 27.8759164,34.0394093 27.8759164,24.6251923 C27.8759164,15.2109753 21.1760463,8.37903846 11.9450301,8.37903846 L0.580177033,8.37903846 C0.259912664,8.37903846 7.553405e-05,8.63892857 7.553405e-05,8.95925824 L7.553405e-05,40.2911264 C7.553405e-05,40.611456 0.259912664,40.8713462 0.580177033,40.8713462 L0.580177033,40.8713462 Z" id="Fill-3" fill="#0000FF"></path>
                <path d="M125.021617,24.6237569 C125.021617,29.8253365 121.518348,33.4592651 116.503642,33.4592651 L111.975376,33.4592651 L111.975376,15.7912706 L116.503642,15.7912706 C121.518348,15.7912706 125.021617,19.4236882 125.021617,24.6237569 M132.454923,24.6237569 C132.454923,15.1974519 125.746744,8.35644918 116.503642,8.35644918 L105.118395,8.35644918 C104.798131,8.35644918 104.538293,8.61633929 104.538293,8.93666896 L104.538293,40.3138668 C104.538293,40.6341964 104.798131,40.8940865 105.118395,40.8940865 L116.503642,40.8940865 C125.746744,40.8940865 132.454923,34.0515728 132.454923,24.6237569" id="Fill-5" fill="#0000FF"></path>
                <path d="M172.276927,8.58914148 C172.166647,8.45013049 172.000472,8.37004808 171.823722,8.37004808 L165.106479,8.37004808 C164.825493,8.37004808 164.585294,8.57100962 164.535442,8.8475206 L161.55789,25.3973832 L157.813667,8.82183379 C157.75324,8.55741071 157.517573,8.37004808 157.247162,8.37004808 L150.457406,8.37004808 C150.186994,8.37004808 149.952838,8.55741071 149.892411,8.8203228 L146.014493,25.7932624 L141.868429,8.81276786 C141.804981,8.55287775 141.572336,8.37004808 141.304945,8.37004808 L134.587702,8.37004808 C134.407931,8.37004808 134.237224,8.45466346 134.126944,8.59669643 C134.018175,8.74024038 133.980408,8.92609203 134.027239,9.09985577 L142.427381,40.4498558 C142.495362,40.7037019 142.724985,40.8804876 142.987844,40.8804876 L148.854573,40.8804876 C149.121964,40.8804876 149.354609,40.697658 149.418057,40.4392788 L153.82849,22.4917514 L158.239679,40.4392788 C158.303128,40.697658 158.535772,40.8804876 158.803163,40.8804876 L164.668382,40.8804876 C164.938794,40.8804876 165.172949,40.693125 165.233377,40.4287019 L172.388717,9.07870192 C172.427995,8.90796016 172.387206,8.72664148 172.276927,8.58914148" id="Fill-7" fill="#0000FF"></path>
                <g id="Group-11" transform="translate(78.555411, 0.143393)">
                    <mask id="mask-2" fill="white">
                        <use xlink:href="#path-1"></use>
                    </mask>
                    <g id="Clip-10"></g>
                    <path d="M7.09446005,0.612101648 L0.907466069,0.612101648 C0.5872017,0.612101648 0.32736457,0.871991758 0.32736457,1.19232143 L0.32736457,47.7715797 C0.32736457,48.0919093 0.5872017,48.3517995 0.907466069,48.3517995 L7.09446005,48.3517995 C7.41472442,48.3517995 7.67456155,48.0919093 7.67456155,47.7715797 L7.67456155,1.19232143 C7.67456155,0.871991758 7.41472442,0.612101648 7.09446005,0.612101648" id="Fill-9" fill="#0000FF" mask="url(#mask-2)"></path>
                </g>
            </g>
        </g>
    </g>
</svg>