<?xml version="1.0" encoding="UTF-8" standalone="no"?>
<svg width="443px" height="119px" viewBox="0 0 443 119" version="1.1" xmlns="https://www.w3.org/2000/svg" xmlns:xlink="https://www.w3.org/1999/xlink">
    <!-- Generator: Sketch 39.1 (31720) - https://www.bohemiancoding.com/sketch -->
    <title>Group</title>
    <desc>Created with Sketch.</desc>
    <defs>
        <polygon id="path-1" points="13.0247621 0.584399555 0.473558646 0.584399555 0.473558646 13.1898125 13.0247621 13.1898125 13.0247621 0.584399555"></polygon>
        <polygon id="path-3" points="32.4764367 35.034467 32.4764367 0.243807265 0.745791558 0.243807265 0.745791558 35.034467 32.4764367 35.034467"></polygon>
        <polygon id="path-5" points="0.657632411 35.726464 34.7089049 35.726464 34.7089049 0.158897702 0.657632411 0.158897702 0.657632411 35.726464"></polygon>
        <polygon id="path-7" points="0.593372782 35.726464 34.6446452 35.726464 34.6446452 0.158897702 0.593372782 0.158897702"></polygon>
    </defs>
    <g id="Wires" stroke="none" stroke-width="1" fill="none" fill-rule="evenodd">
        <g id="Home-Copy" transform="translate(-204.000000, -490.000000)">
            <g id="Group" transform="translate(204.000000, 490.000000)">
                <g id="Page-1">
                    <path d="M169.214596,27.9678925 C169.214596,35.4841379 164.175122,40.7345382 156.96095,40.7345382 L150.44477,40.7345382 L150.44477,15.204427 L156.96095,15.204427 C164.175122,15.204427 169.214596,20.4532372 169.214596,27.9678925 M179.909235,27.9678925 C179.909235,14.347381 170.257628,4.46193625 156.96095,4.46193625 L140.581076,4.46193625 C140.120495,4.46193625 139.746967,4.83719199 139.746967,5.29990141 L139.746967,50.6406538 C139.746967,51.1033632 140.120495,51.478619 140.581076,51.478619 L156.96095,51.478619 C170.257628,51.478619 179.909235,41.5915841 179.909235,27.9678925" id="Fill-1" fill="#0000FF"></path>
                    <path d="M194.894074,28.0369014 C195.867465,25.1875019 198.143458,23.6355967 201.396009,23.6355967 C204.488701,23.6355967 206.634909,25.262235 207.296499,28.0369014 L194.894074,28.0369014 Z M202.426379,50.2819348 C207.727007,50.2819348 212.215684,48.7793217 215.767374,45.8217976 C216.066514,45.5705671 216.153565,45.1460193 215.979462,44.7977947 L212.442017,37.7474388 C212.326477,37.5184692 212.111223,37.3546924 211.859566,37.3022202 C211.604743,37.2481579 211.346755,37.3197109 211.153659,37.488258 C208.76529,39.5442142 205.870441,40.5857079 202.551416,40.5857079 C199.654984,40.5857079 196.280562,39.3390956 195.011197,35.9220423 L217.555881,35.9220423 C218.016461,35.9220423 218.38999,35.5467865 218.38999,35.0840771 L218.38999,32.7562194 C218.38999,21.7974796 211.819997,14.7153225 201.652414,14.7153225 C191.457925,14.7153225 184.337135,22.0264492 184.337135,32.4970385 C184.337135,43.1329948 191.606703,50.2819348 202.426379,50.2819348 L202.426379,50.2819348 Z" id="Fill-3" fill="#0000FF"></path>
                    <path d="M224.133155,25.8362491 C224.133155,34.5625352 232.678419,36.3052483 235.47672,36.8744922 C240.8185,38.0257005 241.965993,38.3659748 241.965993,39.3549963 C241.965993,40.7622053 239.783382,40.9720941 238.483944,40.9720941 C234.405199,40.9720941 231.02128,39.5887361 228.957375,37.0748406 C228.795935,36.8792624 228.560105,36.7790882 228.300534,36.7695478 C228.047294,36.774318 227.808299,36.893573 227.65319,37.0971016 L222.694435,43.5639029 C222.461771,43.8676056 222.461771,44.2905634 222.699184,44.5926761 C225.570291,48.26255 230.878833,50.2819348 237.649835,50.2819348 C249.830675,50.2819348 252.388399,44.091805 252.388399,38.9002372 C252.388399,31.3490104 246.848775,29.1149666 241.426276,27.9255967 C236.257016,26.8157302 234.620453,26.4229837 234.620453,25.5134655 C234.620453,24.19053 237.135442,24.0871757 237.906241,24.0871757 C241.108143,24.0871757 244.351197,25.3019867 245.979846,27.1114826 C246.147617,27.2943403 246.399274,27.3881542 246.631939,27.3865641 C246.878848,27.3754337 247.109929,27.2577687 247.26029,27.0590104 L252.022783,20.8497999 C252.277606,20.520656 252.249117,20.0515864 251.957891,19.7510638 C248.70534,16.4087435 244.192922,14.7153225 238.55042,14.7153225 C229.522417,14.7153225 224.133155,18.8717569 224.133155,25.8362491" id="Fill-5" fill="#0000FF"></path>
                    <g id="Group-9" transform="translate(256.405417, 0.160756)">
                        <mask id="mask-2" fill="white">
                            <use xlink:href="#path-1"></use>
                        </mask>
                        <g id="Clip-8"></g>
                        <path d="M6.71908812,13.1898125 C10.3135122,13.1898125 13.0247621,10.4930593 13.0247621,6.92017939 C13.0247621,3.36797035 10.2549505,0.583763529 6.71908812,0.583763529 C3.15948452,0.583763529 0.473558646,3.30913788 0.473558646,6.92017939 C0.473558646,10.4930593 3.15948452,13.1898125 6.71908812,13.1898125" id="Fill-7" fill="#0000FF" mask="url(#mask-2)"></path>
                    </g>
                    <path d="M258.456977,15.490162 C257.996396,15.490162 257.622868,15.8654177 257.622868,16.3281271 L257.622868,48.6684941 C257.622868,49.1312035 257.996396,49.5064592 258.456977,49.5064592 L266.953176,49.5064592 C267.415339,49.5064592 267.788868,49.1312035 267.788868,48.6684941 L267.788868,16.3281271 C267.788868,15.8654177 267.415339,15.490162 266.953176,15.490162 L258.456977,15.490162 Z" id="Fill-10" fill="#0000FF"></path>
                    <path d="M298.381199,32.4970385 C298.381199,37.179785 295.351817,40.3265271 290.844146,40.3265271 C286.372879,40.3265271 283.246949,37.1050519 283.246949,32.4970385 C283.246949,27.8890252 286.372879,24.6707302 290.844146,24.6707302 C295.42304,24.6707302 298.381199,27.7427391 298.381199,32.4970385 M307.521578,15.489685 L299.023796,15.489685 C298.563215,15.489685 298.189687,15.8649407 298.189687,16.3276501 L298.189687,18.4742402 C295.823476,16.1145812 292.316103,14.7153225 288.528584,14.7153225 C280.963041,14.7153225 272.821378,20.2392142 272.821378,32.3682431 C272.821378,42.9755782 279.0859,49.8287658 288.784989,49.8287658 C292.61366,49.8287658 295.918441,48.5805634 298.313141,46.2733766 C298.245083,51.1914529 295.419875,53.5845033 289.688739,53.5845033 C286.119639,53.5845033 283.215294,52.3665122 280.548361,49.7492624 C280.366345,49.5711749 280.127349,49.4884915 279.856699,49.5171127 C279.605042,49.5505041 279.378709,49.6983803 279.248923,49.9193996 L275.064134,56.9681653 C274.861542,57.3084396 274.924852,57.7457079 275.212912,58.0144292 C279.087483,61.60798 283.791415,63.2823202 290.010037,63.2823202 C301.84109,63.2823202 308.355687,57.3322906 308.355687,46.5325574 L308.355687,16.3276501 C308.355687,15.8649407 307.982158,15.489685 307.521578,15.489685" id="Fill-12" fill="#0000FF"></path>
                    <g id="Group-16" transform="translate(313.384398, 14.471356)">
                        <mask id="mask-4" fill="white">
                            <use xlink:href="#path-3"></use>
                        </mask>
                        <g id="Clip-15"></g>
                        <path d="M20.246848,0.243807265 C15.7660842,0.243807265 12.6860537,2.13280652 10.6553861,4.21102372 L10.6553861,1.85772498 C10.6553861,1.39501557 10.2802745,1.01816976 9.81969436,1.01816976 L1.57990054,1.01816976 C1.11932044,1.01816976 0.745791558,1.39501557 0.745791558,1.85772498 L0.745791558,34.1965019 C0.745791558,34.6592113 1.11932044,35.034467 1.57990054,35.034467 L10.0760998,35.034467 C10.5366799,35.034467 10.9117915,34.6592113 10.9117915,34.1965019 L10.9117915,18.7378732 C10.9117915,12.9484403 12.9345453,10.1340222 17.0955937,10.1340222 C20.4779294,10.1340222 22.1208234,12.1438666 22.1208234,16.2812202 L22.1208234,34.1965019 C22.1208234,34.6592113 22.4943522,35.034467 22.9549323,35.034467 L31.6426443,35.034467 C32.1032244,35.034467 32.4767533,34.6592113 32.4767533,34.1965019 L32.4767533,14.1457606 C32.4767533,5.31134989 28.0197307,0.243807265 20.246848,0.243807265" id="Fill-14" fill="#0000FF" mask="url(#mask-4)"></path>
                    </g>
                    <g id="Group-19" transform="translate(194.678187, 82.844225)">
                        <mask id="mask-6" fill="white">
                            <use xlink:href="#path-5"></use>
                        </mask>
                        <g id="Clip-18"></g>
                        <path d="M11.2129887,13.4820667 C12.1879624,10.6326672 14.4639562,9.07917198 17.7149236,9.07917198 C20.8076161,9.07917198 22.9538244,10.7058102 23.6154137,13.4820667 L11.2129887,13.4820667 Z M17.9729118,0.158897702 C7.7800051,0.158897702 0.657632411,7.47161453 0.657632411,17.9422039 C0.657632411,28.5781601 7.9272008,35.7271001 18.7452935,35.7271001 C24.0475043,35.7271001 28.5345991,34.224487 32.0878717,31.2669629 C32.3885941,31.0157324 32.4756453,30.5911846 32.3015429,30.24296 L28.7609323,23.1910141 C28.6453916,22.9620445 28.4301376,22.7982676 28.1784805,22.7457954 C27.9220751,22.688553 27.6656696,22.7632861 27.4725742,22.9302431 C25.085788,24.9877895 22.1941047,26.0292832 18.8734962,26.0292832 C15.9786474,26.0292832 12.6042255,24.7842609 11.3332777,21.3672076 L33.8747959,21.3672076 C34.335376,21.3672076 34.7089049,20.9919518 34.7089049,20.5292424 L34.7089049,18.2013847 C34.7089049,7.24105486 28.1389117,0.158897702 17.9729118,0.158897702 L17.9729118,0.158897702 Z" id="Fill-17" fill="#0000FF" mask="url(#mask-6)"></path>
                    </g>
                    <g id="Group-22" transform="translate(232.664174, 82.844225)">
                        <mask id="mask-8" fill="white">
                            <use xlink:href="#path-7"></use>
                        </mask>
                        <g id="Clip-21"></g>
                        <path d="M11.1503119,13.4820667 C12.1252855,10.6326672 14.4012793,9.07917198 17.6522467,9.07917198 C20.746522,9.07917198 22.894313,10.7058102 23.5495713,13.4820667 L11.1503119,13.4820667 Z M17.9086522,0.158897702 C7.71416272,0.158897702 0.593372782,7.47161453 0.593372782,17.9422039 C0.593372782,28.5781601 7.86294117,35.7271001 18.6826167,35.7271001 C23.9800792,35.7271001 28.4703395,34.2260771 32.0251948,31.2669629 C32.3259172,31.0157324 32.4145512,30.5911846 32.238866,30.24296 L28.6982554,23.1910141 C28.5827147,22.9620445 28.3674608,22.7982676 28.1158036,22.7457954 C27.8609809,22.688553 27.6029928,22.7632861 27.4098973,22.9302431 C25.0231111,24.9877895 22.1314278,26.0292832 18.8108194,26.0292832 C15.9143878,26.0292832 12.5383832,24.7842609 11.2674353,21.3672076 L33.8089535,21.3672076 C34.2695336,21.3672076 34.6446452,20.9919518 34.6446452,20.5292424 L34.6446452,18.2013847 C34.6446452,7.24105486 28.0746521,0.158897702 17.9086522,0.158897702 L17.9086522,0.158897702 Z" id="Fill-20" fill="#0000FF" mask="url(#mask-8)"></path>
                    </g>
                    <path d="M291.576326,98.5989741 L304.906242,85.2122024 C305.143655,84.9721023 305.214878,84.6111572 305.086676,84.2963239 C304.95689,83.9846709 304.65142,83.7795523 304.315877,83.7795523 L293.048283,83.7795523 C292.817202,83.7795523 292.5972,83.8749563 292.440507,84.0435033 L282.23019,94.9243299 L282.23019,71.6823247 C282.23019,71.2196153 281.856662,70.8443595 281.394499,70.8443595 L272.898299,70.8443595 C272.437719,70.8443595 272.06419,71.2196153 272.06419,71.6823247 L272.06419,116.954704 C272.06419,117.417414 272.437719,117.794259 272.898299,117.794259 L281.394499,117.794259 C281.856662,117.794259 282.23019,117.417414 282.23019,116.954704 L282.23019,107.929486 L284.618559,105.579367 L292.679503,117.428544 C292.836195,117.655924 293.0926,117.794259 293.369581,117.794259 L304.315877,117.794259 C304.632427,117.794259 304.92207,117.614582 305.062935,117.32837 C305.203799,117.045338 305.172144,116.703474 304.982214,116.450653 L291.576326,98.5989741 Z" id="Fill-23" fill="#0000FF"></path>
                    <path d="M195.902918,71.1607828 C195.744643,70.9604344 195.505648,70.8443595 195.250826,70.8443595 L185.586557,70.8443595 C185.182956,70.8443595 184.837917,71.1353417 184.76511,71.5344485 L180.48219,95.4490519 L175.094511,71.4962869 C175.009042,71.1146709 174.668751,70.8443595 174.280978,70.8443595 L164.512248,70.8443595 C164.122891,70.8443595 163.785766,71.1146709 163.698715,71.4946968 L158.121105,96.0198858 L152.155723,71.4835663 C152.063923,71.1083106 151.729963,70.8443595 151.345355,70.8443595 L141.681086,70.8443595 C141.423098,70.8443595 141.176189,70.9667947 141.017914,71.1719133 C140.861222,71.3786219 140.807409,71.6473432 140.875467,71.8985738 L152.959759,117.199574 C153.05789,117.56688 153.387102,117.821291 153.765379,117.821291 L162.206182,117.821291 C162.59079,117.821291 162.926333,117.55734 163.016549,117.183674 L169.361792,91.2496857 L175.708618,117.183674 C175.798834,117.55734 176.134377,117.821291 176.518985,117.821291 L184.956623,117.821291 C185.345979,117.821291 185.683105,117.550979 185.770156,117.169363 L196.064359,71.8683625 C196.119755,71.6219021 196.061193,71.3595411 195.902918,71.1607828" id="Fill-25" fill="#0000FF"></path>
                    <path d="M59.4887474,57.0657954 C59.6027053,57.0960067 59.7166633,57.1341683 59.8274557,57.1707398 C60.0205512,57.2359325 60.2136466,57.2995352 60.4114903,57.3392869 C60.4795485,57.3535975 60.5507723,57.3599577 60.659982,57.3647279 C61.7789859,57.5682565 62.7998593,57.6668406 63.8270637,57.6668406 C63.8998702,57.6668406 63.9710939,57.6588903 64.1119586,57.6429896 C64.7988719,57.627089 65.4240579,57.5698466 65.9954305,57.4776227 C69.858922,57.0276338 73.2760781,55.5091201 75.8781183,53.0858584 C76.0743792,52.9030007 76.1250272,52.6104285 76.0031555,52.3735085 L72.929456,46.4314292 C72.840822,46.259702 72.6746333,46.1420371 72.4847034,46.1150059 C72.2900252,46.0784344 72.1032608,46.1547576 71.9718925,46.2962735 C69.6895678,48.7211253 66.8865184,50.0106694 63.8112362,50.0233899 C59.5029921,50.0170297 56.1950457,47.5094944 55.1789205,43.4802654 C54.9462563,42.5453062 54.8370466,41.7391423 54.8370466,40.945699 C54.8370466,40.158616 54.9430908,39.3651727 55.169424,38.4508844 C56.1728872,34.3978043 59.4839991,31.8759585 63.8682152,31.8711883 C66.8865184,31.8823188 69.687985,33.1718629 71.9718925,35.5967146 C72.1032608,35.7366405 72.2916079,35.8081935 72.4847034,35.7763921 C72.6746333,35.7509511 72.840822,35.6332861 72.929456,35.4615589 L76.0031555,29.5210697 C76.1250272,29.2825597 76.0743792,28.9915775 75.8781183,28.8087198 C72.7047056,25.8527858 68.4249509,24.2261475 63.781164,24.2261475 C62.7966938,24.2261475 61.7742376,24.3247317 60.6188305,24.5298503 C60.590341,24.5314403 60.444728,24.547341 60.4146558,24.5521112 C60.2104811,24.5934529 60.0173857,24.6570556 59.8242902,24.7222483 C59.7134978,24.7604099 59.6011226,24.7985715 59.4871646,24.8287828 C52.1542862,26.7066516 47.2287698,33.1670927 47.2287698,40.993401 C47.2287698,48.7274855 52.1542862,55.1863365 59.4887474,57.0657954" id="Fill-27" fill="#0000FF"></path>
                    <path d="M19.9548307,50.025457 L19.9548307,31.8684852 L24.5891212,31.8684852 C29.720395,31.8684852 33.3053226,35.6019618 33.3053226,40.9461761 C33.3053226,46.2919804 29.720395,50.025457 24.5891212,50.025457 L19.9548307,50.025457 Z M12.9385022,57.6673176 L24.5891212,57.6673176 C34.0460494,57.6673176 40.9104339,50.6344526 40.9104339,40.9461761 C40.9104339,31.2578996 34.0460494,24.2250345 24.5891212,24.2250345 L12.9385022,24.2250345 C12.6108731,24.2250345 12.3449712,24.4921657 12.3449712,24.8213095 L12.3449712,57.0710426 C12.3449712,57.4001864 12.6108731,57.6673176 12.9385022,57.6673176 L12.9385022,57.6673176 Z" id="Fill-29" fill="#0000FF"></path>
                    <path d="M112.106779,4.52331282 L103.205396,4.52331282 C102.744816,4.52331282 102.371287,4.89856857 102.371287,5.36127798 L102.371287,92.2059518 C102.371287,94.2444173 100.04148,95.3940356 98.4365719,94.1474233 L83.0047644,82.1662706 C82.8591514,82.0517858 82.678718,81.9897732 82.4935363,81.9897732 L0.834742079,81.9897732 C0.374161978,81.9897732 0.000633099793,82.3650289 0.000633099793,82.8293284 L0.000633099793,91.7718636 C0.000633099793,92.234573 0.374161978,92.6098288 0.834742079,92.6098288 L79.1713451,92.6098288 L111.595551,117.785355 C111.745912,117.90143 111.926346,117.960262 112.106779,117.960262 C112.233399,117.960262 112.358436,117.931641 112.473977,117.875989 C112.760455,117.732883 112.940888,117.440311 112.940888,117.122297 L112.940888,5.36127798 C112.940888,4.89856857 112.567359,4.52331282 112.106779,4.52331282" id="Fill-31" fill="#0000FF"></path>
                </g>
                <g id="Group-5-Copy" transform="translate(322.950382, 68.450704)" fill="#000000">
                    <path d="M14.9886769,2.81894068 C16.4175363,3.62318247 17.5162634,4.78484763 18.2848912,6.30397101 C19.053519,7.82309439 19.4378272,9.63509346 19.4378272,11.7400226 C19.4378272,13.8449517 19.053519,15.6569508 18.2848912,17.1760742 C17.5162634,18.6951975 16.4175363,19.8568627 14.9886769,20.6611045 C13.5598176,21.4653463 11.8599931,21.8674611 9.88915259,21.8674611 C7.91831206,21.8674611 6.21356058,21.4653463 4.774847,20.6611045 C3.33613341,19.8568627 2.23247927,18.6951975 1.46385147,17.1760742 C0.695223666,15.6569508 0.310915528,13.8449517 0.310915528,11.7400226 C0.310915528,9.63509346 0.695223666,7.82309439 1.46385147,6.30397101 C2.23247927,4.78484763 3.33613341,3.62318247 4.774847,2.81894068 C6.21356058,2.01469889 7.91831206,1.61258403 9.88915259,1.61258403 C11.8599931,1.61258403 13.5598176,2.01469889 14.9886769,2.81894068 L14.9886769,2.81894068 Z M6.63728198,7.18267524 C5.88836258,8.21528198 5.5139085,9.73438257 5.5139085,11.7400226 C5.5139085,13.7456626 5.88836258,15.2647632 6.63728198,16.2973699 C7.38620138,17.3299767 8.47014741,17.8462723 9.88915259,17.8462723 C11.3081578,17.8462723 12.3871768,17.3299767 13.126242,16.2973699 C13.8653072,15.2647632 14.2348342,13.7456626 14.2348342,11.7400226 C14.2348342,9.73438257 13.8653072,8.21528198 13.126242,7.18267524 C12.3871768,6.15006849 11.3081578,5.63377287 9.88915259,5.63377287 C8.47014741,5.63377287 7.38620138,6.15006849 6.63728198,7.18267524 L6.63728198,7.18267524 Z M35.1721917,7.65926058 C36.2955708,8.51314692 36.9952087,9.62516827 37.2711264,10.995358 L32.6002577,12.5442604 C32.4031736,10.8364877 31.6444114,9.98261413 30.3239482,9.98261413 C28.3728161,9.98261413 27.3972647,11.3825696 27.3972647,14.1825225 C27.3972647,16.9030441 28.3728161,18.2632845 30.3239482,18.2632845 C31.723245,18.2632845 32.5411316,17.4590548 32.7776324,15.8505712 L37.3006888,17.3101138 C37.0838964,18.6604457 36.3694774,19.7575739 35.1574105,20.6015313 C33.9453435,21.4454888 32.3440596,21.8674611 30.3535107,21.8674611 C27.791418,21.8674611 25.8206071,21.1923053 24.4410187,19.8419734 C23.0614303,18.4916415 22.3716465,16.5853192 22.3716465,14.1229493 C22.3716465,11.6804372 23.0565033,9.77907927 24.4262375,8.41881847 C25.7959716,7.05855767 27.7027312,6.37843747 30.1465735,6.37843747 C32.3736233,6.37843747 34.0488126,6.80537424 35.1721917,7.65926058 L35.1721917,7.65926058 Z M51.2021808,20.7355709 C50.7094707,21.0731539 50.0837382,21.3461949 49.3249646,21.554702 C48.566191,21.7632091 47.8025018,21.8674611 47.0338739,21.8674611 C45.2798259,21.8674611 43.9396744,21.4901682 43.0133794,20.7355709 C42.0870843,19.9809737 41.6140897,18.7696647 41.5943813,17.1016077 L41.5943813,10.28048 L39.0520097,10.28048 L39.0520097,6.67630331 L41.5943813,6.67630331 L41.5943813,3.3402059 L46.6199995,1.94023645 L46.6199995,6.67630331 L51.0543685,6.67630331 L51.0543685,10.28048 L46.6199995,10.28048 L46.6199995,16.2675834 C46.6199995,17.5980574 47.2703671,18.2632845 48.5711219,18.2632845 C49.3791665,18.2632845 50.0886584,18.0448517 50.699619,17.6079796 L51.2021808,20.7355709 Z M66.6852644,8.41881847 C68.0549986,9.77907927 68.7398554,11.6804372 68.7398554,14.1229493 C68.7398554,16.5654614 68.0549986,18.4668193 66.6852644,19.8270801 C65.3155303,21.1873409 63.3989166,21.8674611 60.9353659,21.8674611 C58.4718153,21.8674611 56.5552016,21.1873409 55.1854675,19.8270801 C53.8157333,18.4668193 53.1308765,16.5654614 53.1308765,14.1229493 C53.1308765,11.6804372 53.8157333,9.77907927 55.1854675,8.41881847 C56.5552016,7.05855767 58.4718153,6.37843747 60.9353659,6.37843747 C63.3989166,6.37843747 65.3155303,7.05855767 66.6852644,8.41881847 L66.6852644,8.41881847 Z M58.8364313,10.9655714 C58.383138,11.6208795 58.1564947,12.6733283 58.1564947,14.1229493 C58.1564947,15.5725703 58.383138,16.6250191 58.8364313,17.2803272 C59.2897246,17.9356353 59.9893625,18.2632845 60.9353659,18.2632845 C61.8813694,18.2632845 62.5810073,17.9356353 63.0343006,17.2803272 C63.4875939,16.6250191 63.7142372,15.5725703 63.7142372,14.1229493 C63.7142372,12.6733283 63.4875939,11.6208795 63.0343006,10.9655714 C62.5810073,10.3102633 61.8813694,9.98261413 60.9353659,9.98261413 C59.9893625,9.98261413 59.2897246,10.3102633 58.8364313,10.9655714 L58.8364313,10.9655714 Z M86.1001552,8.43371176 C87.1841175,9.80390148 87.7260905,11.7201526 87.7260905,14.1825225 C87.7260905,16.6051767 87.1939716,18.4916415 86.1297177,19.8419734 C85.0654638,21.1923053 83.5676475,21.8674611 81.6362237,21.8674611 C80.4734278,21.8674611 79.4633872,21.5547051 78.6060716,20.9291837 C77.748756,20.3036624 77.1131694,19.464682 76.6992929,18.4122174 L76.5514806,21.5695953 L72.1466741,21.5695953 L72.1466741,0.361547502 L77.1722923,0.361547502 L77.1722923,9.17837636 C77.5861688,8.3046322 78.172485,7.61954762 78.9312586,7.12310207 C79.6900323,6.62665652 80.5916783,6.37843747 81.6362237,6.37843747 C83.5282306,6.37843747 85.0161929,7.06352205 86.1001552,8.43371176 L86.1001552,8.43371176 Z M81.9466296,17.1611809 C82.4294855,16.5058727 82.6709098,15.493139 82.6709098,14.1229493 C82.6709098,12.7527596 82.4294855,11.7400259 81.9466296,11.0847177 C81.4637736,10.4294096 80.7789168,10.1017605 79.8920386,10.1017605 C79.0248688,10.1017605 78.354793,10.4393384 77.8817913,11.1145043 C77.4087896,11.7896703 77.1722923,12.7428314 77.1722923,13.9740164 L77.1722923,14.2718822 C77.1722923,15.5427828 77.4137166,16.5058727 77.8965725,17.1611809 C78.3794285,17.816489 79.0445772,18.1441381 79.8920386,18.1441381 C80.7789168,18.1441381 81.4637736,17.816489 81.9466296,17.1611809 L81.9466296,17.1611809 Z M105.470702,15.5824919 L95.3899034,15.5824919 C95.5475707,16.5158096 95.8875356,17.2008941 96.4098083,17.6377662 C96.932081,18.0746383 97.6267919,18.2930711 98.4939617,18.2930711 C99.2231727,18.2930711 99.8193431,18.1540684 100.282491,17.8760589 C100.745638,17.5980494 101.056041,17.1909701 101.213708,16.6548089 L105.293328,17.9654186 C104.879451,19.2363192 104.076346,20.2043735 102.883987,20.8696106 C101.691629,21.5348476 100.228301,21.8674611 98.4939617,21.8674611 C95.9121607,21.8674611 93.9364227,21.1923053 92.5666885,19.8419734 C91.1969543,18.4916415 90.5120975,16.5853192 90.5120975,14.1229493 C90.5120975,11.6605794 91.1821733,9.75425707 92.5223448,8.40392518 C93.8625164,7.05359329 95.7643489,6.37843747 98.2278996,6.37843747 C100.612617,6.37843747 102.440544,7.03870014 103.711736,8.3592453 C104.982928,9.67979046 105.618515,11.5315046 105.618515,13.9144432 C105.618515,14.5896092 105.569244,15.1456198 105.470702,15.5824919 L105.470702,15.5824919 Z M95.360341,12.8421262 L100.918083,12.8421262 C100.681583,10.8960596 99.7750096,9.92304096 98.1983371,9.92304096 C96.6019563,9.92304096 95.6559671,10.8960596 95.360341,12.8421262 L95.360341,12.8421262 Z M119.667819,6.70608989 L119.135695,10.995358 C118.938611,10.8762111 118.672551,10.7719591 118.337508,10.6825989 C118.002465,10.5932387 117.647719,10.5485592 117.27326,10.5485592 C116.327256,10.5485592 115.538932,10.8513865 114.908263,11.45705 C114.277594,12.0627136 113.962264,12.9314803 113.962264,14.0633761 L113.962264,21.5695953 L108.936646,21.5695953 L108.936646,6.67630331 L113.371015,6.67630331 L113.577952,9.89325438 C113.932703,8.76135853 114.489458,7.89259185 115.248231,7.28692828 C116.007005,6.68126471 116.948067,6.37843747 118.071446,6.37843747 C118.741532,6.37843747 119.273651,6.48765385 119.667819,6.70608989 L119.667819,6.70608989 Z" id="October"></path>
                    <path d="M1.83491131,45.9124243 C5.23970822,43.7759965 7.70152295,41.8809725 9.22042935,40.2272952 C10.7393358,38.573618 11.4987776,37.0175413 11.4987776,35.5590185 C11.4987776,34.7373156 11.264319,34.0748275 10.7953949,33.5715344 C10.3264708,33.0682413 9.65367668,32.8165986 8.77699245,32.8165986 C7.8187562,32.8165986 7.06950824,33.1709527 6.52922609,33.8796715 C5.98894395,34.5883903 5.70861308,35.6206392 5.68822507,36.9764491 L1.19269235,35.5898322 C1.23346836,33.3917768 1.98271633,31.6867687 3.44045871,30.4747568 C4.8982011,29.2627449 6.78916024,28.656748 9.11339286,28.656748 C10.8055973,28.656748 12.2225424,28.9700176 13.3642707,29.5965661 C14.505999,30.2231146 15.3520886,31.0293986 15.9025647,32.0154422 C16.4530409,33.0014857 16.7282748,34.0594125 16.7282748,35.189254 C16.7282748,37.0997135 16.0198022,38.8560772 14.6028359,40.458398 C13.1858695,42.0607188 11.0400641,43.693829 8.16535535,45.3577775 L8.16535535,45.3885913 C9.5109637,45.306421 10.8667457,45.2653364 12.2327421,45.2653364 L16.9729297,45.2653364 L16.9729297,49.3019321 L1.83491131,49.3019321 L1.83491131,45.9124243 Z M29.9200978,28.9648851 L29.9200978,49.3019321 L24.8435099,49.3019321 L24.8435099,34.1724017 C23.2736335,35.6103819 21.6833929,36.4731571 20.0727405,36.7607531 L19.5834308,32.3852067 C20.6232191,32.2619512 21.780221,31.8459703 23.0544713,31.1372515 C24.3287217,30.4285327 25.2206835,29.7044178 25.7303837,28.9648851 L29.9200978,28.9648851 Z M46.3841794,43.200818 L35.1912204,43.200818 L35.1912204,38.9177127 L46.3841794,38.9177127 L46.3841794,43.200818 Z M49.8203906,45.9124243 C53.2251875,43.7759965 55.6870022,41.8809725 57.2059086,40.2272952 C58.724815,38.573618 59.4842568,37.0175413 59.4842568,35.5590185 C59.4842568,34.7373156 59.2497983,34.0748275 58.7808742,33.5715344 C58.3119501,33.0682413 57.639156,32.8165986 56.7624717,32.8165986 C55.8042355,32.8165986 55.0549875,33.1709527 54.5147054,33.8796715 C53.9744232,34.5883903 53.6940924,35.6206392 53.6737044,36.9764491 L49.1781716,35.5898322 C49.2189476,33.3917768 49.9681956,31.6867687 51.425938,30.4747568 C52.8836804,29.2627449 54.7746395,28.656748 57.0988721,28.656748 C58.7910766,28.656748 60.2080217,28.9700176 61.34975,29.5965661 C62.4914783,30.2231146 63.3375679,31.0293986 63.888044,32.0154422 C64.4385201,33.0014857 64.7137541,34.0594125 64.7137541,35.189254 C64.7137541,37.0997135 64.0052815,38.8560772 62.5883152,40.458398 C61.1713488,42.0607188 59.0255434,43.693829 56.1508346,45.3577775 L56.1508346,45.3885913 C57.496443,45.306421 58.852225,45.2653364 60.2182214,45.2653364 L64.9584089,45.2653364 L64.9584089,49.3019321 L49.8203906,49.3019321 L49.8203906,45.9124243 Z M82.0494185,31.3683543 C83.4867729,33.1761009 84.2054393,35.8055109 84.2054393,39.2566634 C84.2054393,42.7899863 83.4663852,45.3988541 81.9882548,47.0833452 C80.5101244,48.7678363 78.3949006,49.6100692 75.6425198,49.6100692 C73.7872113,49.6100692 72.2428431,49.2505795 71.0093688,48.5315894 C69.7758944,47.8125993 68.853351,46.6930458 68.2417109,45.1728953 L72.9513166,43.2932591 C73.1348086,44.0533344 73.4355272,44.6285179 73.8534813,45.0188268 C74.2714354,45.4091357 74.8983572,45.6042872 75.7342654,45.6042872 C78.2216021,45.6042872 79.4652517,43.6835853 79.4652517,39.8421239 L79.4652517,39.3491046 L79.3735062,39.3491046 C79.1084621,40.2118927 78.5274127,40.8743808 77.6303404,41.3365887 C76.7332682,41.7987966 75.7036894,42.0298971 74.541573,42.0298971 C73.3386807,42.0298971 72.2377449,41.7628477 71.2387327,41.2287407 C70.2397204,40.6946338 69.4496971,39.9345699 68.8686389,38.9485264 C68.2875807,37.9624828 67.997056,36.8326582 67.997056,35.5590185 C67.997056,33.4020482 68.6851409,31.7124468 70.0613313,30.4901636 C71.4375216,29.2678805 73.3692562,28.656748 75.8565928,28.656748 C78.5478095,28.656748 80.6120641,29.5606078 82.0494185,31.3683543 L82.0494185,31.3683543 Z M73.5782446,33.5253138 C73.0787385,33.9977931 72.8289892,34.6654167 72.8289892,35.5282048 C72.8289892,36.390993 73.0787385,37.0586166 73.5782446,37.5310958 C74.0777507,38.003575 74.7862233,38.2398111 75.7036835,38.2398111 C76.6007558,38.2398111 77.3041314,37.9984395 77.8138316,37.515689 C78.3235317,37.0329385 78.5783779,36.3704504 78.5783779,35.5282048 C78.5783779,34.6859593 78.3235317,34.0234712 77.8138316,33.5407207 C77.3041314,33.0579702 76.6007558,32.8165986 75.7036835,32.8165986 C74.7862233,32.8165986 74.0777507,33.0528346 73.5782446,33.5253138 L73.5782446,33.5253138 Z M99.0486825,48.4391483 C98.5389824,48.7883721 97.8916729,49.0708282 97.1067347,49.2865253 C96.3217965,49.5022223 95.5317731,49.6100692 94.7366409,49.6100692 C92.9221084,49.6100692 91.5357449,49.2197661 90.5775086,48.4391483 C89.6192724,47.6585305 89.1299676,46.4054522 89.1095796,44.679876 L89.1095796,37.6235369 L86.47954,37.6235369 L86.47954,33.8950783 L89.1095796,33.8950783 L89.1095796,30.4439431 L94.308495,28.9956988 L94.308495,33.8950783 L98.8957732,33.8950783 L98.8957732,37.6235369 L94.308495,37.6235369 L94.308495,43.8170922 C94.308495,45.1934447 94.981289,45.8816106 96.3268974,45.8816106 C97.1628056,45.8816106 97.8967628,45.6556456 98.528791,45.203709 L99.0486825,48.4391483 Z M116.032656,35.0043718 C116.990892,35.9493302 117.470003,37.2948487 117.470003,39.0409675 L117.470003,49.3019321 L112.271087,49.3019321 L112.271087,40.4892118 C112.271087,38.5376672 111.547324,37.5619095 110.099776,37.5619095 C109.284255,37.5619095 108.621655,37.8597724 108.111955,38.4555071 C107.602255,39.0512417 107.347409,39.9653726 107.347409,41.197927 L107.347409,49.3019321 L102.148493,49.3019321 L102.148493,27.3625723 L107.347409,27.3625723 L107.347409,36.6991257 C107.795945,35.671997 108.43306,34.8965264 109.258775,34.3726908 C110.084489,33.8488552 111.058002,33.5869413 112.179342,33.5869413 C113.789994,33.5869413 115.074419,34.0594134 116.032656,35.0043718 L116.032656,35.0043718 Z" id="21-29th"></path>
                </g>
            </g>
        </g>
    </g>
</svg>