<?xml version="1.0" encoding="UTF-8" standalone="no"?>
<svg width="420px" height="60px" viewBox="0 0 420 60" version="1.1" xmlns="http://www.w3.org/2000/svg" xmlns:xlink="http://www.w3.org/1999/xlink">
    <!-- Generator: Sketch 39.1 (31720) - http://www.bohemiancoding.com/sketch -->
    <title>Artboard</title>
    <desc>Created with Sketch.</desc>
    <defs></defs>
    <g id="Wires" stroke="none" stroke-width="1" fill="none" fill-rule="evenodd">
        <g id="Artboard">
            <rect id="Rectangle-12" x="0" y="0" width="420" height="60"></rect>
            <g id="Page-1" transform="translate(14.000000, 5.000000)" fill="#0000FF">
                <path d="M50.7641327,38.0896552 C50.8933215,38.1224138 51.0173427,38.1655172 51.141364,38.2068966 C51.3566786,38.2793103 51.5719933,38.35 51.8097007,38.3982759 C51.8803239,38.4103448 51.9526696,38.4155172 52.0715233,38.4224138 C53.3134582,38.6482759 54.4520421,38.7586207 55.6018223,38.7586207 C55.6827806,38.7586207 55.7637389,38.75 55.917043,38.7310345 C56.6594479,38.7137931 57.3777376,38.6517241 58.018514,38.5465517 C62.3196395,38.05 66.1272638,36.3637931 69.0314278,33.6724138 C69.2501875,33.4698276 69.3053081,33.1456897 69.1692292,32.8818966 L65.744865,26.2836207 C65.644959,26.0939655 65.4606496,25.962931 65.24878,25.9336207 C65.0472455,25.8939655 64.8233183,25.9784483 64.6777656,26.1336207 C62.1318851,28.8267241 59.0089614,30.2577586 55.5845972,30.2732759 C50.7830804,30.2646552 47.0968936,27.4818966 45.966061,23.0086207 C45.7042384,21.9706897 45.5819397,21.0775862 45.5819397,20.1948276 C45.5819397,19.3241379 45.7007933,18.4431034 45.9557259,17.4224138 C47.0727783,12.9232759 50.7624102,10.1232759 55.6466078,10.1198276 C59.0106839,10.1318966 62.1336076,11.562931 64.6777656,14.2560345 C64.8233183,14.4112069 65.0369104,14.487069 65.24878,14.4560345 C65.4606496,14.4267241 65.644959,14.2956897 65.744865,14.1060345 L69.1692292,7.50775862 C69.3053081,7.24396552 69.2501875,6.91982759 69.0314278,6.71637931 C65.4951,3.43793103 60.7263111,1.63103448 55.5501468,1.63103448 C54.445152,1.63103448 53.3065681,1.74137931 52.0284604,1.96896552 C51.9991776,1.96896552 51.8338159,1.98793103 51.8028106,1.99310345 C51.5754383,2.03793103 51.3601237,2.10862069 51.144809,2.18103448 C51.0207878,2.22241379 50.895044,2.26551724 50.7658552,2.29827586 C42.5950948,4.38448276 37.1054324,11.5560345 37.1054324,20.2448276 C37.1054324,28.8318966 42.5950948,36.0034483 50.7641327,38.0896552" id="Fill-1"></path>
                <path d="M8.46367448,30.0075862 L8.46367448,9.88172414 L13.6200298,9.88172414 C19.3301744,9.88172414 23.3169405,14.0196552 23.3169405,19.9446552 C23.3169405,25.8696552 19.3301744,30.0075862 13.6200298,30.0075862 L8.46367448,30.0075862 Z M0.661532738,38.4825862 L13.6200298,38.4825862 C24.1454712,38.4825862 31.7848351,30.6868966 31.7848351,19.9446552 C31.7848351,9.20241379 24.1454712,1.40672414 13.6200298,1.40672414 L0.661532738,1.40672414 C0.296359088,1.40672414 8.61258609e-05,1.70327586 8.61258609e-05,2.0687931 L8.61258609e-05,37.8205172 C8.61258609e-05,38.1860345 0.296359088,38.4825862 0.661532738,38.4825862 L0.661532738,38.4825862 Z" id="Fill-3"></path>
                <path d="M109.257889,19.9550862 C109.257889,25.890431 105.263372,30.0369828 99.5454759,30.0369828 L94.3822305,30.0369828 L94.3822305,9.87663793 L99.5454759,9.87663793 C105.263372,9.87663793 109.257889,14.0214655 109.257889,19.9550862 M117.733535,19.9550862 C117.733535,9.19905172 110.084697,1.39301724 99.5454759,1.39301724 L86.5637248,1.39301724 C86.1985512,1.39301724 85.9031395,1.68956897 85.9031395,2.05508621 L85.9031395,37.8585345 C85.9031395,38.2240517 86.1985512,38.5206034 86.5637248,38.5206034 L99.5454759,38.5206034 C110.084697,38.5206034 117.733535,30.7128448 117.733535,19.9550862" id="Fill-5"></path>
                <path d="M129.610636,21.5514655 C130.382324,19.3014655 132.185799,18.0756034 134.763546,18.0756034 C137.214688,18.0756034 138.916535,19.3600862 139.44018,21.5514655 L129.610636,21.5514655 Z M135.580019,39.1169828 C139.781239,39.1169828 143.339959,37.9307759 146.153691,35.594569 C146.391399,35.3971552 146.460299,35.0626724 146.322498,34.7868103 L143.519101,29.219569 C143.427808,29.0385345 143.257279,28.9092241 143.057467,28.8678448 C142.855932,28.8247414 142.650953,28.8816379 142.497648,29.0143966 C140.604602,30.6385345 138.310209,31.4609483 135.679925,31.4609483 C133.384671,31.4609483 130.709602,30.4764655 129.703652,27.7781897 L147.571323,27.7781897 C147.936497,27.7781897 148.23277,27.4816379 148.23277,27.1161207 L148.23277,25.2790517 C148.23277,16.6247414 143.026461,11.0316379 134.966803,11.0316379 C126.887336,11.0316379 121.243509,16.8057759 121.243509,25.0738793 C121.243509,33.4730172 127.004467,39.1169828 135.580019,39.1169828 L135.580019,39.1169828 Z" id="Fill-7"></path>
                <path d="M152.784607,19.8137069 C152.784607,26.7042241 159.556684,28.0800862 161.775286,28.5300862 C166.009233,29.4387069 166.917861,29.7076724 166.917861,30.4887069 C166.917861,31.6007759 165.189315,31.7662931 164.15925,31.7662931 C160.926085,31.7662931 158.244126,30.6731897 156.608596,28.6887069 C156.481129,28.5335345 156.293375,28.4542241 156.088395,28.4473276 C155.886861,28.4507759 155.697384,28.5456034 155.575085,28.7059483 L151.644301,33.8128448 C151.459992,34.0516379 151.459992,34.3861207 151.647746,34.6240517 C153.923191,37.5223276 158.13044,39.1171552 163.497803,39.1171552 C173.151651,39.1171552 175.179054,34.2292241 175.179054,30.1300862 C175.179054,24.1671552 170.788357,22.4033621 166.491538,21.4637069 C162.39367,20.5878448 161.096614,20.2775 161.096614,19.5585345 C161.096614,18.5137069 163.089567,18.4326724 163.70106,18.4326724 C166.238328,18.4326724 168.809185,19.3912931 170.099351,20.8206034 C170.231984,20.965431 170.431796,21.039569 170.616106,21.0378448 C170.812473,21.0292241 170.995059,20.9361207 171.113913,20.7792241 L174.889671,15.8757759 C175.091205,15.615431 175.068813,15.2456034 174.837995,15.0093966 C172.259387,12.3697414 168.683441,11.0318103 164.210925,11.0318103 C157.05645,11.0318103 152.784607,14.314569 152.784607,19.8137069" id="Fill-9"></path>
                <path d="M183.68803,9.95422414 C186.537074,9.95422414 188.685914,7.82491379 188.685914,5.00336207 C188.685914,2.19818966 186.490566,-8.62068966e-05 183.68803,-8.62068966e-05 C180.866547,-8.62068966e-05 178.738377,2.15163793 178.738377,5.00336207 C178.738377,7.82491379 180.866547,9.95422414 183.68803,9.95422414" id="Fill-11"></path>
                <path d="M179.98858,11.6437069 C179.623407,11.6437069 179.327134,11.9402586 179.327134,12.3057759 L179.327134,37.8428448 C179.327134,38.2083621 179.623407,38.5049138 179.98858,38.5049138 L186.722761,38.5049138 C187.087935,38.5049138 187.384208,38.2083621 187.384208,37.8428448 L187.384208,12.3057759 C187.384208,11.9402586 187.087935,11.6437069 186.722761,11.6437069 L179.98858,11.6437069 Z" id="Fill-13"></path>
                <path d="M211.63148,25.0735345 C211.63148,28.7718103 209.230291,31.255431 205.658651,31.255431 C202.113711,31.255431 199.636731,28.7131897 199.636731,25.0735345 C199.636731,21.4338793 202.113711,18.8933621 205.658651,18.8933621 C209.287134,18.8933621 211.63148,21.3183621 211.63148,25.0735345 M218.875526,11.6433621 L212.141345,11.6433621 C211.776171,11.6433621 211.479898,11.9399138 211.479898,12.305431 L211.479898,14.0002586 C209.604077,12.1364655 206.824796,11.0321552 203.822448,11.0321552 C197.826366,11.0321552 191.372955,15.3933621 191.372955,24.9718103 C191.372955,33.3485345 196.338972,38.7606034 204.025705,38.7606034 C207.059919,38.7606034 209.679868,37.7743966 211.578082,35.9519828 C211.522961,39.8356034 209.283689,41.7252586 204.742272,41.7252586 C201.913899,41.7252586 199.610894,40.7631897 197.498226,38.6968103 C197.353535,38.5571552 197.164058,38.4916379 196.950466,38.5140517 C196.750654,38.5399138 196.571512,38.6571552 196.468161,38.8312931 L193.150593,44.3976724 C192.990399,44.6666379 193.040352,45.0114655 193.269446,45.2235345 C196.340695,48.0614655 200.067361,49.3830172 204.997205,49.3830172 C214.373727,49.3830172 219.536973,44.6856034 219.536973,36.1571552 L219.536973,12.305431 C219.536973,11.9399138 219.2407,11.6433621 218.875526,11.6433621" id="Fill-15"></path>
                <path d="M239.569503,11.0317241 C236.017673,11.0317241 233.577727,12.5231034 231.967174,14.1644828 L231.967174,12.3058621 C231.967174,11.9403448 231.670901,11.6437931 231.305727,11.6437931 L224.774803,11.6437931 C224.409629,11.6437931 224.113356,11.9403448 224.113356,12.3058621 L224.113356,37.842931 C224.113356,38.2084483 224.409629,38.505 224.774803,38.505 L231.508984,38.505 C231.874158,38.505 232.170431,38.2084483 232.170431,37.842931 L232.170431,25.6351724 C232.170431,21.0636207 233.774094,18.8412069 237.071854,18.8412069 C239.75209,18.8412069 241.054313,20.4291379 241.054313,23.6963793 L241.054313,37.842931 C241.054313,38.2084483 241.350586,38.505 241.71576,38.505 L248.601523,38.505 C248.966696,38.505 249.262969,38.2084483 249.262969,37.842931 L249.262969,22.0101724 C249.262969,15.0334483 245.730086,11.0317241 239.569503,11.0317241" id="Fill-17"></path>
                <path d="M311.395285,21.5167241 C312.168695,19.2667241 313.972171,18.0391379 316.548195,18.0391379 C318.999337,18.0391379 320.701184,19.3236207 321.224829,21.5167241 L311.395285,21.5167241 Z M316.753175,10.9951724 C308.673708,10.9951724 303.02988,16.7710345 303.02988,25.0391379 C303.02988,33.4382759 308.790839,39.0822414 317.364668,39.0822414 C321.56761,39.0822414 325.124608,37.8960345 327.940063,35.5598276 C328.17777,35.3624138 328.246671,35.027931 328.108869,34.752069 L325.302889,29.1831034 C325.212457,29.002069 325.041928,28.8727586 324.842116,28.8313793 C324.638859,28.7865517 324.435601,28.8451724 324.282297,28.977931 C322.390974,30.602069 320.098303,31.4244828 317.466297,31.4244828 C315.172765,31.4244828 312.497696,30.4417241 311.490023,27.7434483 L329.355972,27.7434483 C329.721146,27.7434483 330.017419,27.4468966 330.017419,27.0813793 L330.017419,25.2443103 C330.017419,16.5882759 324.81111,10.9951724 316.753175,10.9951724 L316.753175,10.9951724 Z" id="Fill-19"></path>
                <path d="M341.452091,21.5167241 C342.225501,19.2667241 344.028976,18.0391379 346.605001,18.0391379 C349.057865,18.0391379 350.759713,19.3236207 351.279913,21.5167241 L341.452091,21.5167241 Z M346.808258,10.9951724 C338.728791,10.9951724 333.084963,16.7710345 333.084963,25.0391379 C333.084963,33.4382759 338.845922,39.0822414 347.421474,39.0822414 C351.620971,39.0822414 355.179692,37.8977586 357.996869,35.5598276 C358.234576,35.3624138 358.305199,35.027931 358.165675,34.752069 L355.359695,29.1831034 C355.269263,29.002069 355.098733,28.8727586 354.898921,28.8313793 C354.697387,28.7865517 354.492407,28.8451724 354.339103,28.977931 C352.447779,30.602069 350.155109,31.4244828 347.523103,31.4244828 C345.227848,31.4244828 342.552779,30.4417241 341.545107,27.7434483 L359.411055,27.7434483 C359.776229,27.7434483 360.072502,27.4468966 360.072502,27.0813793 L360.072502,25.2443103 C360.072502,16.5882759 354.866194,10.9951724 346.808258,10.9951724 L346.808258,10.9951724 Z" id="Fill-21"></path>
                <g id="Group-25" transform="translate(363.451133, 1.107500)">
                    <path d="M15.8555126,22.2038793 L26.420572,11.6323276 C26.6083264,11.4426724 26.6651694,11.1581897 26.5635409,10.9099138 C26.4601899,10.6633621 26.2190375,10.5012931 25.9520473,10.5012931 L17.0216568,10.5012931 C16.83907,10.5012931 16.6650957,10.5771552 16.5410745,10.7099138 L8.44782732,19.3021552 L8.44782732,0.948706897 C8.44782732,0.583189655 8.15155436,0.286637931 7.78638071,0.286637931 L1.05219964,0.286637931 C0.687025993,0.286637931 0.390753031,0.583189655 0.390753031,0.948706897 L0.390753031,36.6987069 C0.390753031,37.0642241 0.687025993,37.3607759 1.05219964,37.3607759 L7.78638071,37.3607759 C8.15155436,37.3607759 8.44782732,37.0642241 8.44782732,36.6987069 L8.44782732,29.5719828 L10.3408737,27.7150862 L16.7305514,37.0728448 C16.8545726,37.2521552 17.0578296,37.3607759 17.2765893,37.3607759 L25.9520473,37.3607759 C26.2035348,37.3607759 26.4326296,37.2193966 26.5445932,36.9935345 C26.6565568,36.7693966 26.6307191,36.500431 26.4808601,36.300431 L15.8555126,22.2038793 Z" id="Fill-23"></path>
                </g>
                <path d="M303.478768,1.64439655 C303.353024,1.48577586 303.163547,1.39439655 302.962013,1.39439655 L295.30284,1.39439655 C294.982452,1.39439655 294.708572,1.6237069 294.651728,1.93922414 L291.256647,20.8237069 L286.987388,1.90991379 C286.918487,1.60818966 286.649775,1.39439655 286.341444,1.39439655 L278.599591,1.39439655 C278.29126,1.39439655 278.02427,1.60818966 277.955369,1.90818966 L273.533667,21.275431 L268.806219,1.89956897 C268.733873,1.60301724 268.468606,1.39439655 268.16372,1.39439655 L260.504547,1.39439655 C260.299568,1.39439655 260.104923,1.49094828 259.979179,1.65301724 C259.855158,1.81681034 259.812095,2.02887931 259.865493,2.22715517 L269.44355,37.999569 C269.521064,38.2892241 269.782886,38.4909483 270.082604,38.4909483 L276.772,38.4909483 C277.076885,38.4909483 277.342153,38.2823276 277.414499,37.9875 L282.443388,17.5081897 L287.473138,37.9875 C287.545484,38.2823276 287.810751,38.4909483 288.115637,38.4909483 L294.80331,38.4909483 C295.111641,38.4909483 295.378631,38.2771552 295.447531,37.975431 L303.606234,2.20301724 C303.65102,2.00818966 303.604512,1.8012931 303.478768,1.64439655" id="Fill-26"></path>
            </g>
        </g>
    </g>
</svg>