<svg width="836" height="190" viewBox="0 0 836 190" fill="none" xmlns="http://www.w3.org/2000/svg">
<g clip-path="url(#clip0)">
<path d="M818.105 56.6184L818.496 56.5623L801.677 49.7726L720.513 39.9527L731.367 45.4519L682.962 41.075L690.688 40.6822L653.919 36.9226L654.311 36.7543L603.657 35.4637L603.95 35.2953L568.942 36.4737L580.97 39.0549L494.623 39.56L429.204 27.6078L454.628 26.205L403.094 28.6178L411.113 27.2711L195.198 17.1146L195.491 17.2268L148.162 32.4897L148.455 32.658C107.091 21.3231 20.2558 5.61134 -24.531 0L-48 68.1217L-46.4354 101.229L11.0637 132.764L811.26 190L836 63.352L818.105 56.6184ZM339.728 127.658L281.935 123.786L280.175 121.71L339.728 127.658ZM531.587 148.364L521.417 142.135L532.467 143.931L528.751 144.324L531.587 148.364ZM556.034 161.494V156.332L561.901 157.005L556.034 161.494Z" fill="#ec1001"/>
</g>
<defs>
<clipPath id="clip0">
<rect width="836" height="190" fill="white"/>
</clipPath>
</defs>
</svg>
