<svg xmlns="http://www.w3.org/2000/svg" width="346.667" height="346.667" preserveAspectRatio="xMidYMid meet" version="1.0" viewBox="0 0 260 260"><metadata>Created by potrace 1.11, written by Peter Selinger 2001-2013</metadata><g fill="#000" stroke="none"><path d="M125 2590 c-4 -6 -10 -8 -15 -5 -13 8 -75 -50 -93 -87 -15 -30 -16 -146 -14 -1210 l2 -1176 31 -39 c59 -73 -38 -68 1249 -71 1026 -2 1165 -1 1201 13 42 16 94 62 97 86 2 8 6 19 10 26 4 6 6 540 5 1185 l-3 1175 -28 36 c-60 79 57 72 -1258 74 -790 2 -1180 0 -1184 -7z" transform="translate(0.000000,260.000000) scale(0.100000,-0.100000)"/></g></svg>