<svg xmlns="http://www.w3.org/2000/svg" viewBox="0 0 1002 411.55"><defs><style>.cls-1,.cls-2,.cls-3{fill:#fff;}.cls-2,.cls-3{font-size:31.42px;font-family:BBRollerMono-Text, BB Roller Mono;}.cls-3{letter-spacing:0em;}.cls-4{letter-spacing:0.32em;}.cls-5{letter-spacing:0.14em;}</style></defs><title>logo_hero_date</title><g id="Layer_2" data-name="Layer 2"><g id="HERO"><g id="logo_dcdw"><path class="cls-1" d="M526.72,75.27c0-38.83-27.64-67-65.72-67H414.09a2.39,2.39,0,0,0-2.39,2.39V139.91a2.39,2.39,0,0,0,2.39,2.39H461C499.08,142.3,526.72,114.11,526.72,75.27Zm-30.63,0c0,21.43-14.43,36.4-35.1,36.4H442.34V38.89H461C481.66,38.89,496.1,53.85,496.1,75.27Z"/><path class="cls-1" d="M591.21,144.33c15.18,0,28-4.28,38.21-12.72a2.4,2.4,0,0,0,.61-2.92L619.9,108.6a2.41,2.41,0,0,0-1.67-1.27,2.34,2.34,0,0,0-2,.53,36.76,36.76,0,0,1-24.63,8.83c-8.3,0-18-3.55-21.6-13.29h64.56a2.39,2.39,0,0,0,2.39-2.39V94.37c0-31.24-18.81-51.43-47.93-51.43S539.4,63.78,539.4,93.63C539.4,124,560.22,144.33,591.21,144.33ZM569.64,80.92c2.79-8.12,9.3-12.55,18.62-12.55,8.86,0,15,4.64,16.9,12.55Z"/><path class="cls-1" d="M653.38,74.64c0,24.88,24.47,29.84,32.49,31.47,15.3,3.28,18.58,4.25,18.58,7.07,0,4-6.25,4.61-10,4.61-11.68,0-21.37-3.95-27.28-11.11a2.48,2.48,0,0,0-1.88-.87,2.38,2.38,0,0,0-1.85.93l-14.2,18.43a2.38,2.38,0,0,0,0,2.93c8.22,10.46,23.43,16.22,42.82,16.22,34.88,0,42.21-17.64,42.21-32.44,0-21.53-15.86-27.89-31.39-31.29-14.81-3.16-19.49-4.28-19.49-6.88,0-3.77,7.2-4.06,9.41-4.06,9.17,0,18.46,3.46,23.12,8.62a2.55,2.55,0,0,0,1.87.78,2.38,2.38,0,0,0,1.8-.93l13.64-17.7a2.39,2.39,0,0,0-.19-3.13c-9.32-9.53-22.24-14.36-38.4-14.36C668.81,42.94,653.38,54.79,653.38,74.64Z"/><path class="cls-1" d="M765,35.94c10.29,0,18.06-7.69,18.06-17.87A17.87,17.87,0,0,0,765,0c-10.19,0-17.89,7.77-17.89,18.06A17.49,17.49,0,0,0,765,35.94Z"/><rect class="cls-1" x="749.29" y="45.15" width="29.11" height="96.97" rx="2.39" ry="2.39"/><path class="cls-1" d="M967,42.94A37.25,37.25,0,0,0,939.5,54.25V47.54a2.39,2.39,0,0,0-2.39-2.39h-23.6a2.39,2.39,0,0,0-2.39,2.39v92.19a2.39,2.39,0,0,0,2.39,2.39h24.33a2.39,2.39,0,0,0,2.39-2.39V95.66c0-16.51,5.79-24.53,17.71-24.53,9.68,0,14.39,5.73,14.39,17.53v51.07a2.39,2.39,0,0,0,2.39,2.39h24.88a2.39,2.39,0,0,0,2.39-2.39V82.57C1002,57.39,989.24,42.94,967,42.94Z"/><path class="cls-1" d="M620.5,237.61c-29.2,0-49.59,20.85-49.59,50.7,0,30.32,20.82,50.7,51.8,50.7,15.19,0,28-4.28,38.21-12.72a2.4,2.4,0,0,0,.61-2.92l-10.14-20.1a2.41,2.41,0,0,0-1.67-1.27,2.31,2.31,0,0,0-2,.53,36.72,36.72,0,0,1-24.63,8.83c-8.29,0-18-3.55-21.6-13.29H666a2.39,2.39,0,0,0,2.39-2.39V289C668.42,257.8,649.61,237.61,620.5,237.61Zm-19.36,38c2.79-8.12,9.31-12.55,18.62-12.55,8.86,0,15,4.64,16.9,12.55Z"/><path class="cls-1" d="M732.21,237.61c-29.2,0-49.59,20.85-49.59,50.7,0,30.32,20.82,50.7,51.81,50.7,15.17,0,28-4.28,38.21-12.72a2.39,2.39,0,0,0,.61-2.92l-10.14-20.1a2.41,2.41,0,0,0-1.67-1.27,2.32,2.32,0,0,0-2,.53,36.72,36.72,0,0,1-24.63,8.83c-8.3,0-18-3.55-21.6-13.29h64.56a2.39,2.39,0,0,0,2.39-2.39V289C780.14,257.8,761.33,237.61,732.21,237.61Zm-19.36,38c2.79-8.12,9.31-12.55,18.62-12.55,8.86,0,15,4.64,16.89,12.55Z"/><path class="cls-1" d="M849.65,282.07l38.18-38.16a2.39,2.39,0,0,0-1.69-4.08H853.86a2.38,2.38,0,0,0-1.74.75l-29.25,31V205.34a2.39,2.39,0,0,0-2.39-2.39H796.15a2.39,2.39,0,0,0-2.39,2.39V334.4a2.39,2.39,0,0,0,2.39,2.39h24.33a2.39,2.39,0,0,0,2.39-2.39V308.67l6.84-6.7,23.09,33.78a2.4,2.4,0,0,0,2,1h31.35A2.39,2.39,0,0,0,888,333Z"/><path class="cls-1" d="M572.53,203.85a2.38,2.38,0,0,0-1.87-.9H543a2.39,2.39,0,0,0-2.35,2l-12.27,68.17-15.43-68.28A2.4,2.4,0,0,0,510.6,203h-28a2.39,2.39,0,0,0-2.33,1.85l-16,69.92-17.08-69.95a2.39,2.39,0,0,0-2.32-1.82H417.24a2.39,2.39,0,0,0-2.31,3L449.54,335.1a2.39,2.39,0,0,0,2.31,1.77H476a2.39,2.39,0,0,0,2.32-1.82l18.17-73.93,18.17,73.93a2.39,2.39,0,0,0,2.32,1.82h24.17a2.39,2.39,0,0,0,2.33-1.86L573,205.87A2.38,2.38,0,0,0,572.53,203.85Z"/><path class="cls-1" d="M892.2,44.86H868.69A2.11,2.11,0,0,0,866.58,47v6.68c-9.34-6.73-17.38-10.72-28.22-10.72-21.66,0-45.26,15.74-45.26,50.32,0,30.24,17.8,49.78,45.58,49.78,9.94,0,18.6-2.93,25.24-8.38a1.14,1.14,0,0,1,1.83,1c-1.2,12.14-9.3,18.05-24.58,18.05a35.31,35.31,0,0,1-16-3.58,2.26,2.26,0,0,0-3,.82L810,171.24a2.25,2.25,0,0,0,.82,3.14c8.78,4.74,19,7,31.21,7,33.88,0,52.54-17,52.54-47.75V47.25A2.4,2.4,0,0,0,892.2,44.86Zm-47.76,71.09c-12.81,0-21.76-9.18-21.76-22.32s9-22.31,21.76-22.31c13.11,0,21.58,8.76,21.58,22.31C866,107,857.34,115.95,844.44,115.95Z"/><path class="cls-1" d="M175.48,161.19c.34.09.67.2,1,.31a13.6,13.6,0,0,0,1.71.49,5,5,0,0,0,.73.08,51.28,51.28,0,0,0,9.28.88,7.79,7.79,0,0,0,.83-.07,40.79,40.79,0,0,0,5.52-.48c11.32-1.31,21.33-5.74,29-12.81a1.75,1.75,0,0,0,.36-2.08l-9-17.33a1.75,1.75,0,0,0-1.3-.92,1.63,1.63,0,0,0-1.5.53c-6.68,7.07-14.9,10.83-23.91,10.87-12.63,0-22.32-7.33-25.29-19.08a29.85,29.85,0,0,1-1-7.39,29.5,29.5,0,0,1,1-7.28c2.94-11.82,12.64-19.17,25.48-19.19,8.84,0,17.05,3.79,23.74,10.86a1.69,1.69,0,0,0,1.5.53,1.75,1.75,0,0,0,1.3-.92l9-17.33a1.75,1.75,0,0,0-.36-2.08c-9.3-8.62-21.84-13.36-35.44-13.36a52.78,52.78,0,0,0-9.27.89l-.6.06a14.6,14.6,0,0,0-1.73.5c-.33.11-.65.22-1,.31-21.48,5.48-35.91,24.32-35.91,47.14C139.56,136.87,154,155.71,175.48,161.19Z"/><path class="cls-1" d="M39.1,162.94H73.23c27.71,0,47.82-20.51,47.82-48.76S100.94,65.42,73.23,65.42H39.1a1.74,1.74,0,0,0-1.74,1.74v94A1.74,1.74,0,0,0,39.1,162.94Zm20.55-22.28v-53H73.23c15,0,25.54,10.89,25.54,26.47s-10.5,26.48-25.54,26.48Z"/><path class="cls-1" d="M329.7,9.44H304.3a2.38,2.38,0,0,0-2.38,2.38V266.37a7,7,0,0,1-11.23,5.51L256,245a36.86,36.86,0,0,0-22.54-7.69H2.38A2.38,2.38,0,0,0,0,239.73v25.4a2.38,2.38,0,0,0,2.38,2.38H223.94a34.47,34.47,0,0,1,21.08,7.2l75.79,57.71a7,7,0,0,0,11.27-5.59v-315A2.38,2.38,0,0,0,329.7,9.44Z"/></g><text class="cls-2" transform="translate(445.68 399.92)">October 20</text><text class="cls-3" transform="translate(658.76 389.45) scale(0.58)">t<tspan class="cls-4" x="21.31" y="0">h</tspan></text><text class="cls-2" transform="translate(689.46 399.92)"><tspan class="cls-5">→</tspan><tspan x="25.71" y="0">28</tspan></text><text class="cls-2" transform="translate(757.79 389.45) scale(0.58)">th</text><text class="cls-2" transform="translate(782.63 399.92)"><tspan xml:space="preserve"> 2017</tspan></text></g></g></svg>