<svg width="20px" height="10px" viewBox="0 0 20 10" version="1.1" xmlns="http://www.w3.org/2000/svg" xmlns:xlink="http://www.w3.org/1999/xlink">
    <!-- Generator: Sketch 43.2 (39069) - http://www.bohemiancoding.com/sketch -->
    <title>long-arrow-left - FontAwesome</title>
    <desc>Created with Sketch.</desc>
    <defs></defs>
    <g id="Org-Chart" stroke="none" stroke-width="1" fill="none" fill-rule="evenodd">
        <g id="description" transform="translate(-22.000000, -23.000000)" fill="#0000FF">
            <path d="M42.0000238,26.7857045 C42.0000238,26.5848114 41.8437737,26.4285612 41.6428806,26.4285612 L27.7142925,26.4285612 L27.7142925,23.9285582 C27.7142925,23.7834688 27.6250067,23.6607008 27.5022387,23.6048971 C27.36831,23.5490935 27.2232205,23.5714149 27.1116132,23.6718615 L22.8258938,27.6227591 C22.7589295,27.6897234 22.7142866,27.79017 22.7142866,27.8906165 C22.7142866,27.9910631 22.7589295,28.0803489 22.8258938,28.1473133 L27.1116132,32.0535679 C27.2232205,32.1428537 27.36831,32.1651752 27.5022387,32.1093716 C27.6361674,32.0535679 27.7142925,31.9307999 27.7142925,31.7857105 L27.7142925,29.2857075 L41.6428806,29.2857075 C41.8437737,29.2857075 42.0000238,29.1294573 42.0000238,28.9285642 L42.0000238,26.7857045 Z" id="long-arrow-left---FontAwesome"></path>
        </g>
    </g>
</svg>
