<?xml version="1.0" encoding="utf-8"?>
<!-- Generator: Adobe Illustrator 21.0.2, SVG Export Plug-In . SVG Version: 6.00 Build 0)  -->
<svg version="1.1" id="Layer_1" xmlns="http://www.w3.org/2000/svg" xmlns:xlink="http://www.w3.org/1999/xlink" x="0px" y="0px"
	 viewBox="0 0 720 720" style="enable-background:new 0 0 720 720;" xml:space="preserve">
<style type="text/css">
	.st0{fill:#010101;}
</style>
<g>
	<g>
		<path class="st0" d="M360,577c-3,0-5.9-1.5-7.5-4.1c-5.6-8.5-137.1-208.5-137.1-285.3c0-79.8,64.9-144.7,144.7-144.7
			s144.7,64.9,144.7,144.7c0,76.8-131.5,276.8-137.1,285.3C365.9,575.5,363,577,360,577z M360,161.1c-69.8,0-126.6,56.8-126.6,126.6
			c0,61.4,98.3,219.4,126.6,263.6c28.3-44.3,126.6-202.2,126.6-263.6C486.6,217.9,429.8,161.1,360,161.1z"/>
	</g>
	<g>
		<path class="st0" d="M360,351c-34.9,0-63.3-28.4-63.3-63.3s28.4-63.3,63.3-63.3s63.3,28.4,63.3,63.3S394.9,351,360,351z
			 M360,242.5c-24.9,0-45.2,20.3-45.2,45.2s20.3,45.2,45.2,45.2c24.9,0,45.2-20.3,45.2-45.2S384.9,242.5,360,242.5z"/>
	</g>
</g>
</svg>
