<svg width="1600" height="82" viewBox="0 0 1600 82" xmlns="http://www.w3.org/2000/svg">
<path fill-rule="evenodd" clip-rule="evenodd" d="M1504 1.62C1504 2.989 1505.11 3.195 1511.16 2.95C1516.08 2.751 1518.99 3.104 1520.49 4.084C1521.68 4.867 1522.91 5.259 1523.21 4.955C1523.51 4.652 1527.08 4.042 1531.13 3.601C1535.98 3.073 1538.73 3.153 1539.17 3.835C1539.62 4.519 1540.41 4.406 1541.5 3.5C1542.82 2.401 1543.31 2.381 1543.94 3.4C1544.37 4.1 1545.57 4.582 1546.61 4.471C1547.65 4.36 1548.72 4.359 1549 4.468C1549.28 4.577 1550.4 4.782 1551.5 4.923C1552.6 5.064 1554.96 5.512 1556.75 5.919C1558.87 6.401 1560 6.282 1560 5.579C1560 4.986 1561.35 4.5 1563 4.5C1564.65 4.5 1566 4.95 1566 5.5C1566 6.05 1566.48 6.5 1567.06 6.5C1567.64 6.5 1567.8 5.985 1567.41 5.355C1566.9 4.537 1567.53 4.422 1569.6 4.954C1571.2 5.363 1573.85 5.666 1575.5 5.627C1577.15 5.589 1580.38 5.792 1582.69 6.08C1586.04 6.499 1586.94 7.042 1587.19 8.802C1587.47 10.798 1588.07 11 1593.75 11H1600V46.25V81.5H800H0V56.577V31.653L3.25 33.278C5.037 34.172 9.2 35.087 12.5 35.313C16.308 35.573 19.231 36.363 20.5 37.475C22.246 39.005 24.343 39.19 37 38.934C44.975 38.772 53.383 38.328 55.684 37.947C59.327 37.344 60.696 37.717 66.266 40.832C71.02 43.491 74.3901 44.587 79.3831 45.098C83.9841 45.57 87.372 45.367 90.13 44.457C93.616 43.307 94.754 43.348 98.575 44.764C102.498 46.218 103.381 46.239 106.464 44.951C111.147 42.994 113.707 43.125 116.693 45.473C119.029 47.311 119.409 47.34 122.209 45.892C123.923 45.005 126.25 44.597 127.623 44.942C129.23 45.345 132.16 44.519 136.427 42.461C141.517 40.006 143.556 39.514 146.412 40.049C148.82 40.501 150 40.349 150 39.586C150 38.824 150.974 38.953 152.95 39.974C154.573 40.813 157.188 41.5 158.762 41.5C160.746 41.5 162.268 42.371 163.722 44.338C165.632 46.921 166.389 47.181 172.16 47.237C175.647 47.271 179.283 46.88 180.24 46.37C181.44 45.729 182.715 45.922 184.349 46.993C185.652 47.847 187.435 48.27 188.311 47.934C189.187 47.598 192.063 48.437 194.702 49.799C200.549 52.817 207.156 55.106 212.5 55.964C218.641 56.951 220 57.513 220 59.067C220 60.9 220.507 60.869 223.59 58.849C225.652 57.498 226.752 57.395 229.645 58.283C231.589 58.88 233.799 59.131 234.555 58.841C236.166 58.222 246.556 63.94 248.892 66.73C249.777 67.786 252.182 69.473 254.238 70.479C257.924 72.281 258.014 72.277 260.713 70.153C262.632 68.644 264.854 68 268.141 68C271.779 68 272.597 67.72 271.793 66.75C271.008 65.805 271.381 65.5 273.319 65.5C274.728 65.5 276.148 65.93 276.473 66.456C276.798 66.982 277.705 67.167 278.488 66.866C279.27 66.566 281.068 67.478 282.483 68.892C284.51 70.919 285.887 71.409 288.975 71.202C291.13 71.058 293.218 70.616 293.614 70.22C294.009 69.824 296.058 69.5 298.167 69.5C300.6 69.5 302.694 70.194 303.901 71.401C306.092 73.592 310.655 75.369 309.566 73.607C309.19 72.998 309.31 72.5 309.834 72.5C310.358 72.5 311.045 73.175 311.362 74C311.678 74.825 312.814 75.5 313.885 75.5C314.957 75.5 316.021 76.062 316.251 76.75C316.532 77.592 318.507 77.923 322.305 77.764C325.405 77.633 329.14 77.983 330.605 78.54C332.636 79.312 333.824 79.19 335.6 78.027C338.768 75.951 340.741 76.109 341.5 78.5C341.849 79.6 342.667 80.486 343.317 80.469C344.789 80.429 348.489 75.5 347.047 75.5C346.471 75.5 346 75.061 346 74.525C346 73.96 347.365 73.82 349.25 74.194C352.215 74.781 352.378 74.689 351.109 73.146C349.876 71.647 349.933 71.531 351.609 72.132C352.649 72.505 354.062 73.246 354.75 73.778C355.567 74.41 356 74.388 356 73.716C356 73.15 356.9 72.923 358 73.21C359.391 73.574 360 73.241 360 72.117C360 70.705 362.403 69.919 365.278 70.391C365.706 70.461 366.316 69.839 366.635 69.009C367.601 66.492 371.454 67.27 373.812 70.46C375.015 72.087 376 73.887 376 74.46C376 76.063 377.99 75.691 378.653 73.963C378.977 73.117 378.513 71.619 377.621 70.634C376.73 69.649 376 68.09 376 67.171C376 64.491 379.291 65.254 381.883 68.534C383.52 70.608 384.833 71.37 386.082 70.974C387.142 70.637 388.648 71.147 389.701 72.199C390.872 73.368 392.996 74 395.751 74C398.087 74 399.998 74.338 399.999 74.75C400.001 76.072 402.805 75.552 404.429 73.929C405.293 73.064 406 72.787 406 73.312C406 73.837 407.177 74.492 408.616 74.767C410.43 75.114 411.887 74.613 413.366 73.134C414.54 71.96 415.387 70.662 415.25 70.25C415.112 69.837 415.337 69.462 415.75 69.417C416.162 69.371 417.625 69.142 419 68.907C420.375 68.673 422.117 68.41 422.871 68.324C423.625 68.237 425.623 66.905 427.312 65.362C430.577 62.38 437.672 59.52 441.928 59.47C444.065 59.444 444.22 59.276 442.843 58.472C441.466 57.668 441.382 57.081 442.343 55.002C442.979 53.625 444.033 52.699 444.685 52.943C445.337 53.188 446.097 52.85 446.373 52.194C446.72 51.368 447.313 51.54 448.297 52.75C449.08 53.712 450.458 54.5 451.36 54.5C452.262 54.5 453 55.227 453 56.117C453 57.306 453.667 57.606 455.524 57.251C456.912 56.985 458.311 57.194 458.633 57.715C458.955 58.236 460.332 58.383 461.693 58.041C463.482 57.592 463.961 57.755 463.42 58.63C462.902 59.467 463.196 59.639 464.374 59.187C465.426 58.783 466.292 59.097 466.643 60.011C466.954 60.824 467.681 61.197 468.256 60.841C468.832 60.486 469.928 61.049 470.691 62.092C471.887 63.728 472.209 63.784 473.024 62.495C473.836 61.211 473.972 61.237 473.985 62.683C473.993 63.608 474.9 64.651 476 65C477.1 65.349 478 66.254 478 67.011C478 70.892 487.926 73.173 489.92 69.75C490.538 68.688 490.951 68.511 490.97 69.299C490.998 70.518 498.241 74.43 500.557 74.478C501.139 74.49 503.021 73.334 504.741 71.91C506.659 70.32 507.647 68.743 507.296 67.828C506.845 66.654 507.363 66.437 509.728 66.81C513.688 67.434 515.39 66.303 514.536 63.614C513.907 61.632 514.044 61.563 516.433 62.652C519.253 63.936 521.338 62.958 518.971 61.461C518.095 60.907 517.977 60.524 518.679 60.515C519.327 60.507 520.564 59.793 521.429 58.929C522.805 57.552 523 57.545 523 58.87C523 60.867 524.914 61.986 526.174 60.726C526.841 60.059 526.812 59.502 526.087 59.054C525.489 58.684 525 57.993 525 57.518C525 57.042 526.389 57.346 528.087 58.193C529.785 59.04 532.884 59.71 534.973 59.681C537.75 59.643 539.388 60.284 541.06 62.064C543.309 64.458 545.712 65.461 544.5 63.5C543.593 62.032 545.739 62.277 546.687 63.75C547.13 64.438 547.494 66.296 547.496 67.879C547.5 70.731 550.228 73.606 551.614 72.219C552.005 71.828 551.805 70.366 551.169 68.971C550.205 66.856 550.282 66.329 551.63 65.812C552.6 65.439 553.618 65.853 554.173 66.846C555.589 69.374 560.695 71.621 565.167 71.683C567.842 71.72 570.242 70.971 572.343 69.443C574.079 68.181 575.86 66.552 576.3 65.824C576.74 65.096 578.009 64.5 579.121 64.5C580.233 64.5 581.818 63.825 582.643 63C584.643 60.999 586.084 61.107 586.658 63.3C587.566 66.771 594.64 69.602 595.674 66.907C596.142 65.688 596.523 65.802 597.728 67.522C598.542 68.684 599.803 69.406 600.531 69.127C601.258 68.847 602.392 69.267 603.049 70.059C604.789 72.156 605.998 71.825 606.014 69.25C606.042 64.631 607.154 62.619 609.852 62.307C612.085 62.048 612.455 61.569 612.212 59.25C611.907 56.339 612.941 55.863 616.005 57.503C617.281 58.186 618.088 58.167 618.535 57.444C619.365 56.1 624.887 57.244 626.799 59.156C627.575 59.932 628.952 60.333 629.859 60.045C630.765 59.757 633.052 60.529 634.94 61.761C642.269 66.541 644.168 67.514 645.074 66.954C645.591 66.635 646.283 67.074 646.612 67.93C647.128 69.276 647.621 69.194 650.24 67.329C652.939 65.407 653.092 65.04 651.635 63.975C649.172 62.174 649.668 61.2 652.666 61.952C654.774 62.482 655.793 62.085 657.538 60.054C659.233 58.081 659.974 57.778 660.738 58.743C661.284 59.435 661.944 60.675 662.203 61.5C662.954 63.886 668.177 63.331 670.859 60.581C673.115 58.267 673.354 58.23 676.359 59.717C683.824 63.41 686.546 64.353 687.372 63.528C687.851 63.048 688.976 62.93 689.872 63.265C691.224 63.771 691.29 63.616 690.259 62.345C688.58 60.277 689.64 59.478 693.134 60.177C695.419 60.634 696.549 60.2 698.469 58.128C699.808 56.683 701.601 55.5 702.452 55.5C703.304 55.5 704 54.856 704 54.07C704 53.283 705.013 52.495 706.25 52.32C707.487 52.144 708.5 51.325 708.5 50.5C708.5 49.675 709.054 48.1 709.732 47C710.732 45.376 711.134 45.26 711.874 46.385C712.606 47.498 713.01 47.351 713.928 45.635C715.336 43.004 717.025 42.881 717.674 45.363C718.06 46.836 718.988 47.179 722.107 47.003C724.277 46.881 726.337 46.496 726.684 46.149C727.032 45.802 727.925 46.023 728.67 46.641C729.415 47.259 731.33 47.917 732.925 48.103C735.359 48.386 735.987 47.977 736.831 45.555C737.384 43.968 737.597 42.431 737.305 42.138C737.012 41.846 738.916 41.807 741.535 42.053C744.154 42.298 746.827 42.058 747.476 41.52C748.874 40.36 753.87 41.595 757.191 43.921C758.431 44.789 760.213 45.5 761.151 45.5C762.089 45.5 763.561 46.204 764.421 47.064C765.281 47.924 766.37 48.389 766.841 48.098C767.312 47.807 768.687 48.491 769.896 49.618C771.106 50.745 773.507 52.072 775.232 52.566C778.58 53.527 780.312 52.929 778.114 51.571C776.258 50.424 778.191 49.407 781.716 49.675C783.279 49.794 785.11 49.55 785.786 49.132C786.526 48.675 787.267 49.033 787.651 50.033C788.101 51.207 789.051 51.538 790.894 51.166C792.327 50.877 794.255 50.348 795.177 49.991C796.499 49.48 796.739 49.783 796.31 51.421C795.988 52.656 796.244 53.5 796.942 53.5C797.589 53.5 797.838 53.047 797.496 52.493C797.153 51.939 797.622 51.198 798.538 50.847C799.453 50.496 800.545 50.764 800.965 51.444C801.385 52.123 803.027 52.552 804.614 52.396C806.201 52.24 808.561 52.691 809.857 53.399C811.562 54.329 812.517 54.383 813.307 53.593C813.908 52.992 815.21 52.5 816.2 52.5C817.19 52.5 818 52.105 818 51.621C818 51.138 819.323 50.195 820.94 49.525C823.585 48.429 824.15 48.558 826.585 50.816C828.862 52.928 829.663 53.155 831.645 52.252C832.94 51.662 834 50.746 834 50.217C834 49.688 834.622 49.772 835.383 50.403C836.454 51.292 836.906 51.186 837.386 49.935C837.727 49.047 837.753 47.91 837.444 47.41C837.135 46.909 837.124 46.5 837.421 46.5C837.717 46.5 838.851 48.188 839.941 50.25C843.545 57.07 843.633 57.142 845.856 55.13C847.44 53.697 849.905 53.285 858.209 53.067C863.915 52.916 869.476 52.316 870.567 51.732C871.895 51.021 873.136 50.997 874.319 51.658C876.55 52.907 884.989 51.208 888.738 48.754C890.212 47.79 893.012 46.921 894.959 46.824C896.907 46.728 901.102 46.333 904.283 45.948C908.418 45.447 910.349 44.716 911.062 43.384C911.908 41.803 912.367 41.708 914.091 42.76C915.808 43.809 916.339 43.707 917.53 42.102C918.694 40.532 919.202 40.423 920.469 41.474C921.603 42.416 922.348 42.456 923.342 41.631C924.08 41.019 925.005 40.838 925.396 41.23C925.788 41.622 926.422 41.505 926.804 40.971C927.634 39.813 930.675 37.854 933.653 36.559C934.837 36.045 936.114 35.124 936.492 34.513C936.966 33.745 937.561 33.721 938.42 34.433C939.308 35.17 940.283 34.885 941.842 33.433C943.848 31.563 944.198 31.525 946.233 32.951C948.741 34.708 952.576 34.996 953.502 33.497C953.913 32.831 954.777 32.846 956.076 33.54C957.542 34.325 958.158 34.251 958.546 33.24C959.185 31.577 966.121 31.205 965.858 32.848C965.529 34.909 967.19 39.501 968.068 38.958C968.539 38.667 968.488 37.208 967.956 35.715C967.049 33.17 967.082 33.121 968.494 34.941C969.322 36.009 970.007 36.459 970.015 35.941C970.024 35.424 970.508 35.675 971.091 36.5C971.89 37.629 972.278 37.691 972.659 36.75C972.938 36.063 973.755 35.5 974.475 35.5C975.194 35.5 976.079 34.322 976.44 32.882C976.802 31.442 977.372 30.538 977.707 30.873C978.042 31.208 978.931 30.972 979.682 30.349C980.434 29.725 981.15 29.392 981.274 29.607C981.398 29.823 981.982 30.873 982.571 31.94C983.161 33.008 984.236 34.079 984.961 34.32C985.744 34.581 985.995 34.301 985.58 33.63C985.196 33.008 985.359 32.5 985.941 32.5C986.523 32.5 987 33.175 987 34C987 34.825 987.638 35.5 988.417 35.5C989.196 35.5 990.002 36.006 990.208 36.625C990.45 37.35 991.724 37.5 993.792 37.046C996.39 36.475 997 35.851 997 33.766C997 31.204 997.012 31.201 999.17 33.095C1001.12 34.805 1001.27 34.821 1000.7 33.25C1000.35 32.288 1000.5 31.5 1001.03 31.5C1001.56 31.5 1002 31.95 1002 32.5C1002 33.05 1002.68 33.5 1003.5 33.5C1004.32 33.5 1004.89 34.063 1004.75 34.75C1004.61 35.438 1005.06 35.888 1005.75 35.75C1006.44 35.613 1007 35.999 1007 36.608C1007 37.289 1006.04 37.476 1004.52 37.094C1002.7 36.638 1001.71 36.987 1000.84 38.391C999.885 39.913 999.141 40.124 997.253 39.406C994.255 38.266 994 38.274 994 39.5C994 40.05 994.675 40.5 995.5 40.5C996.325 40.5 997 41.013 997 41.64C997 43.046 1000.02 45.425 1001.86 45.468C1002.69 45.488 1002.98 44.887 1002.61 43.921C1002.1 42.61 1002.53 42.458 1005.13 43.028C1007.16 43.474 1008.51 43.291 1009 42.504C1009.56 41.599 1010.27 41.572 1011.81 42.397C1012.94 43.004 1015.01 43.5 1016.4 43.5C1018.32 43.5 1018.79 43.107 1018.32 41.899C1017.98 41.019 1018.28 39.944 1018.98 39.511C1020.71 38.444 1019.35 36.5 1016.88 36.5C1015.78 36.5 1015.16 36.05 1015.5 35.5C1015.84 34.95 1016.98 34.5 1018.02 34.5C1020.12 34.5 1022.46 37.945 1021.46 39.561C1021.06 40.207 1021.75 40.349 1023.34 39.95C1026.57 39.139 1030 40.23 1030 42.067C1030 43.362 1031.21 43.94 1033.25 43.618C1033.66 43.553 1034 43.95 1034 44.5C1034 45.05 1034.45 45.5 1035 45.5C1036.44 45.5 1036.23 42.761 1034.75 42.162C1034 41.861 1034.21 41.626 1035.25 41.579C1036.21 41.536 1037 41.038 1037 40.474C1037 39.846 1038.07 39.963 1039.75 40.776C1043 42.344 1046.9 41.924 1047.67 39.922C1048.01 39.025 1049.67 38.5 1052.17 38.5C1054.35 38.5 1055.86 38.916 1055.54 39.431C1055.23 39.943 1055.41 40.632 1055.94 40.963C1056.48 41.293 1057.67 40.41 1058.59 39C1060.12 36.67 1060.43 36.576 1061.97 37.968C1064.01 39.821 1066.66 39.961 1067.29 38.25C1067.64 37.297 1068.47 37.393 1070.79 38.654C1073.48 40.117 1074.07 40.139 1075.91 38.848C1077.06 38.044 1078 37.692 1078 38.066C1078 38.439 1078.68 38.178 1079.52 37.484C1080.76 36.457 1081.37 36.525 1082.83 37.848C1084.22 39.101 1084.9 39.201 1085.81 38.286C1086.71 37.395 1087.28 37.385 1088.15 38.246C1088.78 38.876 1090.54 39.142 1092.07 38.836C1094.07 38.437 1095.78 38.974 1098.17 40.748C1103.53 44.717 1108.01 46.5 1112.63 46.5C1116.16 46.5 1117.26 46.967 1118.63 49.051C1119.8 50.835 1120.61 51.286 1121.35 50.551C1121.93 49.973 1123.16 49.5 1124.09 49.5C1125.05 49.5 1126.05 48.449 1126.39 47.093C1126.85 45.264 1127.48 44.814 1129.04 45.221C1132.06 46.01 1153.21 43.411 1155.27 41.998C1157.16 40.701 1162 41.146 1162 42.617C1162 44.143 1163.43 43.589 1166.26 40.96C1168.08 39.276 1169 38.893 1169 39.825C1169 40.598 1169.86 42.321 1170.91 43.654C1172.41 45.569 1174.46 46.353 1180.66 47.384C1184.97 48.101 1189.18 49.228 1190 49.887C1190.82 50.547 1193.3 51.683 1195.5 52.413C1197.7 53.142 1200.51 54.659 1201.74 55.784C1204.74 58.52 1208.09 58.737 1211.6 56.423C1213.2 55.372 1213.86 54.51 1213.08 54.507C1212.3 54.503 1211.87 54.295 1212.12 54.045C1213.04 53.13 1219.99 56.182 1221.83 58.308C1222.88 59.512 1225.1 60.771 1226.78 61.106C1229.39 61.629 1229.88 61.397 1230.17 59.499C1230.49 57.333 1230.58 57.354 1234 60.374C1236.26 62.375 1238.58 63.474 1240.55 63.484C1242.23 63.493 1244.14 64.04 1244.8 64.7C1245.73 65.633 1246 65.552 1246 64.336C1246 63.175 1246.97 62.801 1249.75 62.886C1252.47 62.969 1253.5 62.587 1253.5 61.5C1253.5 60.675 1254.51 59.423 1255.75 58.718C1256.99 58.013 1258 57.015 1258 56.499C1258 55.984 1258.68 55.822 1259.5 56.138C1260.42 56.491 1261 56.138 1261 55.224C1261 54.404 1261.79 53.469 1262.75 53.146C1263.71 52.822 1265.18 52.11 1266 51.563C1268.07 50.187 1276.68 46.5 1277.82 46.5C1278.34 46.5 1279.31 45.834 1279.98 45.021C1280.93 43.881 1281.67 43.79 1283.23 44.624C1284.44 45.273 1285.5 45.336 1285.88 44.781C1286.22 44.271 1287.62 43.911 1289 43.98C1292.02 44.132 1298.49 46.87 1299.44 48.398C1299.81 49.004 1301.02 49.5 1302.12 49.5C1303.22 49.5 1303.84 49.05 1303.5 48.5C1303.16 47.95 1303.36 47.5 1303.94 47.5C1304.52 47.5 1305 46.867 1305 46.094C1305 44.553 1307.8 44.845 1311.85 46.806C1313.83 47.767 1314.42 47.636 1315.6 45.973C1321.62 37.471 1324.8 34.29 1328.7 32.874C1331.2 31.969 1332.46 32.061 1335.15 33.343C1336.99 34.22 1338.65 35.289 1338.83 35.719C1339.53 37.358 1341.21 36.41 1340.75 34.637C1340.31 32.968 1340.74 32.829 1344.88 33.294C1349.18 33.778 1349.4 33.694 1348.06 32.072C1347.11 30.931 1345.65 30.472 1343.81 30.742C1342.26 30.968 1341 30.719 1341 30.187C1341 29.614 1343.23 29.45 1346.47 29.785C1351.16 30.269 1352.45 30.005 1355.52 27.925C1358.03 26.218 1360.47 25.5 1363.74 25.5C1367.42 25.5 1368.97 26.059 1371.17 28.167C1374.4 31.256 1379.03 31.691 1381.82 29.167C1382.83 28.25 1384.86 27.5 1386.33 27.5C1387.8 27.5 1389 27.02 1389 26.433C1389 25.805 1388.07 25.626 1386.75 25.998C1385.16 26.446 1384.9 26.352 1385.87 25.68C1386.63 25.156 1389.55 24.86 1392.37 25.022C1396.37 25.25 1397.97 24.878 1399.64 23.338C1400.81 22.251 1401.6 20.605 1401.39 19.681C1400.89 17.46 1407.13 13.525 1411.32 13.421C1413.07 13.378 1413.85 13.085 1413.05 12.77C1410.71 11.851 1420.69 9.735 1425.75 10.073C1429.1 10.297 1430.99 9.862 1432.79 8.454C1435.43 6.372 1437.26 6.668 1436.35 9.032C1436 9.947 1436.39 10.5 1437.39 10.5C1438.28 10.5 1438.89 9.977 1438.75 9.339C1438.4 7.694 1446.8 5.324 1448.94 6.466C1449.87 6.966 1452.85 7.165 1455.57 6.909C1458.28 6.654 1461.18 6.386 1462 6.315C1462.82 6.244 1466.09 6.488 1469.25 6.857C1472.91 7.284 1475 7.159 1475 6.514C1475 5.956 1476.03 5.5 1477.28 5.5C1479.54 5.5 1483.84 3.09 1485.21 1.058C1485.63 0.445 1489.73 0 1494.96 0C1502.62 0 1504 0.246 1504 1.62ZM1459.43 10.619C1458.79 11.644 1459.62 11.707 1462.75 10.87C1463.99 10.538 1465 9.932 1465 9.522C1465 8.533 1460.12 9.493 1459.43 10.619ZM1344.33 36.167C1344.7 36.533 1345 36.233 1345 35.5C1345 34.767 1344.7 34.467 1344.33 34.833C1343.97 35.2 1343.97 35.8 1344.33 36.167ZM941 35.5C941 36.05 941.45 36.5 942 36.5C942.55 36.5 943 36.05 943 35.5C943 34.95 942.55 34.5 942 34.5C941.45 34.5 941 34.95 941 35.5ZM998.333 38.167C998.7 38.533 999.3 38.533 999.667 38.167C1000.03 37.8 999.733 37.5 999 37.5C998.267 37.5 997.967 37.8 998.333 38.167ZM1012.81 39.555C1014.09 40.065 1014.86 40.919 1014.53 41.452C1014.18 42.017 1013.11 41.719 1011.97 40.738C1009.08 38.269 1009.2 38.105 1012.81 39.555ZM942.333 41.167C942.7 41.533 943 41.233 943 40.5C943 39.767 942.7 39.467 942.333 39.833C941.967 40.2 941.967 40.8 942.333 41.167ZM1066 41.5C1066 42.05 1066.2 42.5 1066.44 42.5C1066.68 42.5 1067.16 42.05 1067.5 41.5C1067.84 40.95 1067.64 40.5 1067.06 40.5C1066.48 40.5 1066 40.95 1066 41.5ZM1058.5 45.5C1058.84 46.05 1059.57 46.5 1060.12 46.5C1060.67 46.5 1060.84 46.05 1060.5 45.5C1060.16 44.95 1059.43 44.5 1058.88 44.5C1058.33 44.5 1058.16 44.95 1058.5 45.5ZM912 45.333C912 46.635 913.189 47.501 914.156 46.904C915.19 46.265 914.298 44.5 912.941 44.5C912.423 44.5 912 44.875 912 45.333ZM1181.33 49.167C1181.7 49.533 1182.3 49.533 1182.67 49.167C1183.03 48.8 1182.73 48.5 1182 48.5C1181.27 48.5 1180.97 48.8 1181.33 49.167ZM904.5 49.5C904.16 50.05 904.61 50.5 905.5 50.5C906.39 50.5 906.84 50.05 906.5 49.5C906.16 48.95 905.71 48.5 905.5 48.5C905.29 48.5 904.84 48.95 904.5 49.5ZM1168.4 53.229C1169.41 54.246 1170.25 52.715 1169.42 51.366C1168.79 50.346 1168.55 50.346 1168.21 51.362C1167.98 52.057 1168.06 52.897 1168.4 53.229ZM844.5 53.5C844.16 54.05 843.684 54.5 843.441 54.5C843.198 54.5 843 54.05 843 53.5C843 52.95 843.477 52.5 844.059 52.5C844.641 52.5 844.84 52.95 844.5 53.5ZM799 53.441C799 54.834 800.838 55.718 802.107 54.934C802.878 54.457 802.803 53.99 801.857 53.39C800.072 52.259 799 52.278 799 53.441ZM782.333 55.167C782.7 55.533 783 55.233 783 54.5C783 53.767 782.7 53.467 782.333 53.833C781.967 54.2 781.967 54.8 782.333 55.167ZM805 54.941C805 55.184 805.52 55.703 806.155 56.095C806.87 56.538 807.038 56.37 806.595 55.655C805.883 54.502 805 54.107 805 54.941ZM778 58.5C778 59.05 778.477 59.5 779.059 59.5C779.641 59.5 779.84 59.05 779.5 58.5C779.16 57.95 778.684 57.5 778.441 57.5C778.198 57.5 778 57.95 778 58.5ZM443.333 62.167C443.7 62.533 444 62.233 444 61.5C444 60.767 443.7 60.467 443.333 60.833C442.967 61.2 442.967 61.8 443.333 62.167ZM584.333 63.167C584.7 63.533 585.3 63.533 585.667 63.167C586.033 62.8 585.733 62.5 585 62.5C584.267 62.5 583.967 62.8 584.333 63.167ZM680.333 65.167C680.7 65.533 681.3 65.533 681.667 65.167C682.033 64.8 681.733 64.5 681 64.5C680.267 64.5 679.967 64.8 680.333 65.167ZM544.5 65.5C544.16 66.05 544.61 66.5 545.5 66.5C546.39 66.5 546.84 66.05 546.5 65.5C546.16 64.95 545.71 64.5 545.5 64.5C545.29 64.5 544.84 64.95 544.5 65.5ZM1233.27 67.104C1233.6 67.436 1234.47 67.472 1235.19 67.183C1235.99 66.864 1235.75 66.627 1234.58 66.579C1233.53 66.536 1232.94 66.772 1233.27 67.104ZM638 67.883C638 68.644 638.788 69.545 639.75 69.884C640.712 70.224 642.104 70.777 642.843 71.115C643.581 71.452 643.163 70.552 641.912 69.114C639.395 66.219 638 65.78 638 67.883ZM385.5 69.5C385.84 70.05 385.641 70.5 385.059 70.5C384.477 70.5 384 70.05 384 69.5C384 68.95 384.198 68.5 384.441 68.5C384.684 68.5 385.16 68.95 385.5 69.5ZM367.5 74.5C367.16 75.05 367.359 75.5 367.941 75.5C368.523 75.5 369 75.05 369 74.5C369 73.95 368.802 73.5 368.559 73.5C368.316 73.5 367.84 73.95 367.5 74.5Z"/>
</svg>
