<svg width="1366" height="131" viewBox="0 0 1366 131" xmlns="http://www.w3.org/2000/svg">
<path fill-rule="evenodd" clip-rule="evenodd" d="M1365.99 90.145C1365.99 66.6584 1365.83 50.3731 1365.61 50.7244C1365.29 51.2264 1364.72 51.2405 1362.07 50.8132C1360.33 50.5327 1358.63 50.391 1358.29 50.499C1357.95 50.6066 1357.14 50.8123 1356.48 50.9562C1355.83 51.1 1355.4 51.3882 1355.53 51.5969C1355.66 51.8057 1355.08 51.9218 1354.24 51.8556C1353.25 51.7771 1352.78 51.9026 1352.9 52.2125C1353.14 52.8344 1349.1 53.1051 1348.72 52.4925C1348.57 52.2471 1348.24 52.0464 1347.99 52.0464C1347.7 52.0464 1347.68 52.2377 1347.94 52.58C1348.16 52.8733 1348.33 53.4812 1348.31 53.9307C1348.28 54.8869 1347.22 55.4106 1347.22 54.4698C1347.22 54.0382 1346.94 53.9076 1346.34 54.0634C1345.82 54.1996 1345.55 54.5304 1345.69 54.877C1345.83 55.2531 1345.6 55.4614 1345.04 55.4614C1344.57 55.4614 1344.3 55.6535 1344.44 55.8883C1344.59 56.1231 1344.33 56.3152 1343.86 56.3152C1343.4 56.3152 1342.92 56.5555 1342.8 56.8488C1342.63 57.2756 1342.58 57.2756 1342.56 56.8488C1342.51 56.0573 1341.67 56.2012 1341.67 57.0012C1341.67 57.4084 1341.43 57.5954 1341.08 57.4613C1340.76 57.3371 1340.27 57.4575 1340 57.7286C1339.63 58.1012 1339.44 57.989 1339.26 57.2684C1338.98 56.2021 1338.25 55.969 1338.25 56.9457C1338.25 57.2923 1337.81 57.866 1337.27 58.2203C1336.58 58.6732 1335.91 58.7629 1335.03 58.5225C1333.33 58.0594 1331.13 58.3065 1330.02 59.0873C1328.8 59.9376 1328.01 59.9014 1328.01 58.9947C1328.01 58.3906 1327.89 58.4286 1327.34 59.2081C1326.58 60.2971 1324.95 60.4559 1324.17 59.5167C1323.87 59.1646 1323.27 58.8764 1322.83 58.8764C1321.98 58.8764 1321.75 59.5082 1322.46 59.9436C1323.09 60.3363 1322.97 60.8687 1322.25 60.8687C1321.9 60.8687 1321.51 60.5417 1321.39 60.1421C1321.26 59.7426 1320.82 59.1082 1320.4 58.7321C1319.69 58.0901 1319.65 58.132 1319.78 59.4228C1319.95 61.1602 1318.56 62.9731 1317.44 62.4831C1317.03 62.303 1316.55 62.1877 1316.37 62.227C1316.18 62.2658 1315.85 61.8159 1315.63 61.2272C1315.35 60.4802 1314.9 60.1571 1314.16 60.1571C1313.57 60.1571 1312.39 59.5377 1311.51 58.7697C1310.37 57.7751 1310 57.6107 1310.22 58.1896C1310.48 58.8653 1310.42 58.9119 1309.9 58.4743C1308.99 57.7247 1305.45 56.7228 1305.19 57.1437C1304.82 57.729 1301.9 56.4987 1301.06 55.4094C1300.63 54.851 1300.28 54.6341 1300.27 54.9278C1300.26 55.7035 1299.54 55.5814 1299.23 54.7485C1299.07 54.3562 1299.16 53.9072 1299.41 53.7505C1300.11 53.3215 1298.81 52.4016 1297.97 52.7252C1297.59 52.8716 1297.27 52.7947 1297.27 52.5544C1297.27 52.3141 1297.49 52.0464 1297.75 51.9598C1298.04 51.8607 1297.96 51.5884 1297.53 51.2315C1297.01 50.794 1296.85 50.785 1296.85 51.1927C1296.85 51.605 1296.7 51.5991 1296.17 51.1658C1295.66 50.7415 1295.43 50.7287 1295.19 51.1133C1294.95 51.4928 1294.67 51.4625 1294.05 50.9929C1292.98 50.187 1292.54 50.1759 1292.84 50.963C1292.98 51.3062 1293.45 51.7032 1293.9 51.8454C1295.12 52.2338 1294.88 52.8588 1293.54 52.767C1292.56 52.7 1292.38 52.8434 1292.47 53.6472C1292.58 54.7507 1291.94 54.9428 1291.55 53.9221C1291.37 53.4453 1290.98 53.3138 1290.27 53.491C1289.65 53.6468 1289.07 53.5149 1288.77 53.1516C1288.5 52.8246 1287.43 52.3081 1286.4 52.0033C1285.37 51.6985 1284.62 51.2977 1284.73 51.1124C1284.84 50.9272 1284.64 50.89 1284.28 51.0296C1283.91 51.1696 1283.61 51.115 1283.61 50.9084C1283.61 50.7022 1282.92 50.1601 1282.07 49.7042C1280.55 48.8824 1280.53 48.8824 1279.92 49.7114C1279.4 50.4303 1279.25 50.458 1278.91 49.9099C1278.67 49.5377 1278.5 49.4813 1278.5 49.7746C1278.49 50.0508 1279.12 50.7918 1279.88 51.4206C1280.74 52.1348 1280.94 52.449 1280.41 52.2569C1279.94 52.0878 1279.19 51.8437 1278.73 51.7139C1277.97 51.4958 1277.98 51.579 1278.89 52.8549C1279.83 54.1859 1279.84 54.2508 1279.07 54.8292C1278.63 55.1579 1277.96 55.3308 1277.57 55.2134C1277.17 55.096 1276.74 55.1925 1276.59 55.4281C1276.42 55.709 1275.95 55.6864 1275.24 55.3624C1274.41 54.9855 1273.96 54.9897 1273.34 55.382C1272.88 55.6646 1272.51 55.7351 1272.51 55.5391C1272.51 55.3428 1271.94 55.2663 1271.25 55.3688C1270.23 55.5182 1269.76 55.2932 1268.86 54.2273C1268.25 53.4974 1267.35 52.9002 1266.87 52.9002C1265.7 52.9002 1263.35 54.3947 1262.33 55.7888C1261.59 56.8099 1261.43 56.8607 1260.75 56.299C1260.06 55.7333 1260.01 55.756 1260.21 56.5414C1260.33 57.0178 1260.17 57.6496 1259.86 57.9454C1259.54 58.2412 1259.28 58.304 1259.28 58.085C1259.28 57.8664 1258.98 57.5727 1258.62 57.4327C1258.19 57.268 1258.06 57.3508 1258.26 57.6679C1258.57 58.1657 1257.83 58.059 1256.12 57.3585C1255.54 57.1224 1255.39 57.1715 1255.61 57.5232C1255.78 57.7981 1255.78 58.2438 1255.61 58.514C1255.4 58.8598 1255.15 58.7923 1254.78 58.2882C1254.32 57.6598 1254.23 57.6517 1254.01 58.2237C1253.66 59.1372 1252.99 59.0369 1252.66 58.0227C1252.36 57.0545 1251.17 56.853 1251.17 57.7691C1251.17 58.1524 1250.87 58.2916 1250.35 58.1537C1249.68 57.9796 1249.57 58.1102 1249.76 58.8342C1249.89 59.3494 1249.79 59.7302 1249.51 59.7302C1249.03 59.7302 1248.88 59.2064 1249 58.0227C1249.06 57.4929 1249 57.484 1248.68 57.9706C1248.46 58.2942 1248.08 58.4389 1247.85 58.2925C1247.61 58.1456 1246.96 58.5021 1246.41 59.0839C1245.28 60.2821 1244.7 60.3871 1243.47 59.6235C1242.77 59.1876 1242.54 59.2004 1242.23 59.6913C1242.03 60.0222 1241.97 60.5822 1242.1 60.9352C1242.27 61.3536 1242.18 61.4701 1241.85 61.2691C1241.58 61.0992 1241.34 60.3474 1241.32 59.5983L1241.29 58.2361L1240.79 59.3033C1239.97 61.0368 1239.09 61.8646 1238.06 61.8646C1237.4 61.8646 1237.02 62.186 1236.84 62.8912C1236.65 63.6574 1236.19 63.9912 1235.03 64.2081C1234.18 64.3682 1233.22 64.8834 1232.89 65.353C1232.5 65.9075 1231.99 66.1282 1231.43 65.9818C1230.96 65.8584 1230.29 66.0355 1229.95 66.3762C1229.61 66.7164 1229.17 66.894 1228.97 66.7706C1228.77 66.6473 1228.48 66.751 1228.32 67.0007C1228.13 67.3213 1227.88 67.3217 1227.5 67.0024C1227.1 66.675 1226.81 66.7271 1226.42 67.1911C1226.08 67.5983 1225.52 67.7392 1224.87 67.577C1224.25 67.422 1223.85 67.5087 1223.85 67.7981C1223.85 68.1469 1223.64 68.1452 1223.08 67.7917C1222.48 67.4199 1222.01 67.4588 1221.04 67.9616C1220.35 68.3202 1219.28 68.5178 1218.66 68.4009C1218.05 68.2835 1217.42 68.3974 1217.26 68.6544C1216.91 69.2119 1214.75 69.2713 1213.71 68.7518C1213.3 68.5486 1212.35 68.1832 1211.59 67.9403C1210.58 67.6154 1210.24 67.6286 1210.31 67.9898C1210.36 68.26 1209.98 68.4811 1209.45 68.4811C1208.29 68.4811 1208.13 69.1944 1209.2 69.5871C1209.78 69.8019 1209.57 69.953 1208.33 70.1937C1207.12 70.4298 1206.58 70.3585 1206.3 69.9248C1206.08 69.6004 1205.99 68.9989 1206.09 68.5883C1206.29 67.7311 1206.17 67.6333 1204.43 67.253C1203.28 67.0041 1203.23 67.037 1203.89 67.5612C1204.3 67.8839 1204.64 68.4692 1204.64 68.8619C1204.64 69.8787 1203.5 70.1801 1202.7 69.3763C1201.86 68.5362 1201.23 68.4986 1201.23 69.2892C1201.23 70.248 1200.02 70.4571 1199.73 69.5483C1199.59 69.1026 1199.1 68.6194 1198.64 68.4743C1198.19 68.3291 1197.81 67.8869 1197.8 67.492C1197.8 66.9427 1197.71 66.9059 1197.44 67.3358C1197.18 67.7448 1196.94 67.5403 1196.54 66.5888C1196.24 65.8686 1195.82 65.2796 1195.6 65.2796C1195.38 65.2796 1194.7 65.8665 1194.1 66.5837C1193.48 67.3226 1192.75 67.7853 1192.42 67.6508C1192.1 67.5206 1191.55 67.2974 1191.19 67.1548C1190.78 66.9883 1190.55 67.1412 1190.55 67.5817C1190.55 68.3441 1189.9 68.5037 1189.49 67.8408C1189.34 67.606 1188.7 67.4139 1188.07 67.4139C1187.13 67.4139 1186.66 66.9939 1185.57 65.1622C1184.51 63.3953 1183.96 62.8891 1183.04 62.8122C1182.39 62.7584 1181.46 62.355 1180.98 61.9158C1180.49 61.4769 1179.63 60.8772 1179.06 60.5831C1178.18 60.1242 1177.95 60.1583 1177.46 60.8251C1177.15 61.2516 1176.89 61.8727 1176.89 62.2052C1176.89 62.6013 1176.64 62.7128 1176.16 62.5279C1175.76 62.373 1175.56 62.3815 1175.73 62.5467C1176.14 62.9621 1174.73 63.9686 1173.71 63.9853C1173.25 63.993 1172.06 64.8877 1171.06 65.9745C1169.69 67.4703 1169.03 67.8929 1168.35 67.7149C1167.79 67.5693 1167.36 67.711 1167.22 68.0875C1167.09 68.4214 1166.72 68.6946 1166.39 68.6946C1166.06 68.6946 1165.8 68.8866 1165.8 69.1214C1165.8 69.7929 1164.52 69.6196 1164.24 68.911C1164.09 68.499 1163.67 68.3573 1163.06 68.5101C1162.54 68.6399 1161.84 68.788 1161.5 68.8393C1161.16 68.8901 1160.64 69.083 1160.35 69.2678C1159.99 69.4894 1158.94 68.7095 1157.26 66.9845C1155.85 65.5438 1154.82 64.6892 1154.98 65.0853C1155.22 65.7064 1155.13 65.738 1154.33 65.3141C1153.83 65.0439 1153.42 64.6166 1153.42 64.3652C1153.42 64.1133 1153.12 64.0211 1152.76 64.1594C1152.4 64.2982 1152 64.1475 1151.88 63.8252C1151.75 63.5029 1151.23 63.2352 1150.72 63.2306C1150.21 63.2259 1149.42 63.1567 1148.96 63.0769C1148.43 62.9825 1148.05 63.231 1147.9 63.7855C1147.76 64.2551 1147.32 64.655 1146.91 64.6747C1144.59 64.7852 1144.19 64.9308 1143.81 65.8131C1143.48 66.5657 1143.02 66.783 1141.68 66.8172C1139.24 66.8791 1138.11 67.3482 1138.34 68.2071C1138.44 68.6126 1138.05 69.375 1137.43 69.9521C1136.83 70.5165 1136.34 70.7521 1136.34 70.4763C1136.34 70.2006 1136.05 69.9752 1135.7 69.9752C1135.35 69.9752 1135.06 70.2633 1135.06 70.6155C1135.06 71.5482 1134.41 71.3992 1133.66 70.2953C1133.13 69.5223 1132.9 69.439 1132.45 69.8685C1131.67 70.6232 1130.89 70.5301 1130.66 69.655C1130.48 68.9635 1130.46 68.9626 1130.41 69.6418C1130.38 70.1096 1130.13 70.2864 1129.72 70.1297C1129.33 69.9765 1129.08 70.1327 1129.08 70.5446C1129.08 70.9079 1129.28 71.3262 1129.52 71.4735C1130.02 71.7809 1129.67 72.5364 1129.03 72.5364C1128.8 72.5364 1128.72 72.3469 1128.87 72.1155C1129.03 71.8603 1128.58 71.7582 1127.73 71.8564C1126.13 72.0438 1124.83 71.6314 1123.8 70.6095C1123.13 69.9368 1122.99 69.9654 1121.55 71.0629C1120.58 71.8035 1119.44 72.2508 1118.47 72.2786C1117.23 72.314 1116.91 72.4929 1116.89 73.1767C1116.88 73.6463 1116.72 74.5585 1116.53 75.2044C1116.25 76.1499 1115.93 76.3783 1114.9 76.3783C1113.83 76.3783 1113.7 76.4829 1114.12 76.9866C1114.53 77.4835 1114.32 77.7306 1113 78.3398C1112.1 78.7496 1111.1 79.2926 1110.77 79.5461C1110.07 80.0797 1108.22 80.2744 1104.34 80.2227C1102.48 80.198 1101.34 79.9687 1100.85 79.521C1100.44 79.1551 1099.89 78.9899 1099.63 79.1543C1099.34 79.3297 1099.05 79.0834 1098.91 78.5558C1098.67 77.6512 1097.92 77.2939 1097.92 78.0858C1097.92 78.3206 1097.63 78.5127 1097.28 78.5127C1096.93 78.5127 1096.64 78.3385 1096.64 78.1259C1096.64 77.9129 1096.31 77.8109 1095.89 77.8993C1095.4 78.006 1094.39 77.1719 1092.89 75.4046C1091.64 73.9447 1090.47 72.4903 1090.27 72.1732C1090.04 71.7881 1088.84 71.558 1086.68 71.482C1083.98 71.3873 1083.32 71.4995 1082.73 72.1557C1082.33 72.5889 1081.86 72.8485 1081.67 72.7328C1081.49 72.6171 1081.21 72.7178 1081.07 72.9565C1080.92 73.1951 1080.28 73.3902 1079.64 73.3902C1078.94 73.3902 1078.28 73.7347 1077.94 74.2738C1077.58 74.8556 1076.99 75.1318 1076.24 75.0823C1075.6 75.0409 1074.89 75.0558 1074.66 75.1156C1074.42 75.1754 1073.87 75.2437 1073.43 75.2676C1072.98 75.2915 1072.41 75.6944 1072.15 76.1632C1071.88 76.6314 1071.34 77.5176 1070.94 78.1323C1070.53 78.7466 1070.24 79.3267 1070.3 79.4219C1070.35 79.5167 1070.21 79.4467 1069.98 79.267C1069.3 78.7142 1068.9 78.9003 1068.9 79.7681C1068.9 80.224 1068.7 80.7154 1068.47 80.8605C1068.22 81.0142 1068.04 80.5886 1068.04 79.8437C1068.04 78.3842 1067.32 77.6495 1067.11 78.8977C1066.99 79.6546 1066.85 79.6772 1065.48 79.1752C1064.66 78.8742 1063.65 78.4845 1063.23 78.3095C1062.65 78.0606 1062.54 78.1477 1062.76 78.7039C1062.95 79.2017 1062.76 79.4881 1062.13 79.6516C1061.64 79.7801 1061.13 80.2219 1061 80.633C1060.71 81.5388 1061.14 82.7814 1061.74 82.7814C1061.99 82.7814 1061.94 83.0525 1061.64 83.4217C1061.04 84.1453 1059.93 84.2836 1059.93 83.6352C1059.93 83.4004 1059.65 83.2083 1059.3 83.2083C1058.9 83.2083 1058.77 82.9603 1058.94 82.5257C1059.16 81.9392 1059.08 81.9187 1058.34 82.3806C1057.61 82.8365 1057.28 82.778 1056.18 81.996C1054.65 80.9053 1053.6 80.8165 1053.24 81.7471C1052.93 82.5607 1050.93 83.3991 1050.57 82.8638C1050.44 82.6559 1049.8 82.3567 1049.15 82.1987C1048.27 81.9819 1047.98 82.0681 1047.98 82.5518C1047.98 83.2608 1046.16 83.8815 1045.42 83.4252C1045.16 83.2655 1044.49 83.4371 1043.93 83.8072C1043.23 84.2605 1042.81 84.331 1042.62 84.0228C1042.46 83.7713 1041.91 83.6732 1041.39 83.8046C1040.77 83.9583 1040.11 83.7445 1039.53 83.2032C1039.04 82.7413 1038.54 82.5116 1038.43 82.6935C1038.23 83.0081 1030.58 82.9705 1028.34 82.6435C1027.75 82.5577 1027.06 82.4579 1026.8 82.4211C1026.54 82.3844 1025.84 81.9226 1025.24 81.3941C1021.66 78.2544 1021.26 78.0269 1019.48 78.0995C1017.45 78.1827 1016.84 78.152 1015.32 77.8877C1013.01 77.4856 1011.7 76.7979 1011.69 75.986C1011.68 75.5135 1011.58 75.4644 1011.36 75.8221C1011.15 76.1457 1010.25 76.275 1008.9 76.1747C1007.72 76.0872 1006.58 75.9604 1006.35 75.8929C1005.56 75.6607 1004.01 76.8359 1004.01 77.664C1004.01 78.12 1003.52 78.8123 1002.93 79.2025C1001.9 79.877 1001.8 79.8671 1000.87 79.0014C1000.34 78.5003 998.955 77.8796 997.795 77.6218C995.404 77.0903 991.567 76.6933 992.378 77.0609C993.003 77.3447 993.101 78.5127 992.499 78.5127C992.067 78.5127 991.303 77.3213 991.267 76.5917C991.242 76.0731 988.643 75.4819 988.643 75.9945C988.643 76.1939 988.025 76.2336 987.271 76.0825C985.7 75.7683 984.134 74.3647 983.503 72.705C983.264 72.0775 982.963 71.6703 982.833 71.8005C982.703 71.9303 982.82 72.4536 983.093 72.9633C983.366 73.473 983.513 73.9665 983.42 74.0599C983.326 74.153 982.426 73.4376 981.419 72.4703C980.123 71.2242 979.493 70.8648 979.261 71.2392C979.007 71.6519 978.667 71.6272 977.712 71.1273C976.603 70.5459 976.349 70.5587 974.958 71.2682C973.583 71.97 973.438 72.206 973.546 73.5737C973.636 74.7178 973.501 75.0977 973.004 75.0977C972.639 75.0977 972.241 75.4819 972.118 75.9514C971.99 76.4419 971.536 76.8052 971.051 76.8052C970.566 76.8052 970.112 77.1684 969.984 77.6589C969.86 78.1315 969.402 78.5127 968.956 78.5127C968.514 78.5127 968.153 78.7048 968.153 78.9396C968.153 79.1743 967.864 79.3664 967.512 79.3664C967.16 79.3664 966.872 79.0723 966.872 78.7129C966.872 77.8357 965.726 77.4425 964.979 78.0627C964.519 78.4444 964.182 78.4397 963.545 78.0418C962.85 77.6077 962.493 77.679 961.378 78.4734C960.643 78.9968 960.042 79.6243 960.042 79.8689C960.042 80.128 959.603 80.2022 958.986 80.0477C958.158 79.8398 957.984 79.9222 958.178 80.4285C958.359 80.9002 958.134 81.0739 957.341 81.0739C956.744 81.0739 955.781 80.8934 955.201 80.6731C954.621 80.4528 953.608 80.4165 952.949 80.5928C952.063 80.8293 951.927 80.9809 952.426 81.1725C952.799 81.3155 953.994 81.5657 955.083 81.7292C957.246 82.0536 957.987 82.6777 956.918 83.2757C956.521 83.4981 956.334 83.9656 956.471 84.3933C956.642 84.9239 956.597 84.9764 956.313 84.5811C955.791 83.8567 954.493 84.3814 954.493 85.3162C954.493 86.2109 952.305 87.5202 952.054 86.7753C951.869 86.2246 950.224 86.5166 950.224 87.1001C950.224 87.3072 949.756 87.4771 949.185 87.4771C948.522 87.4771 948.049 87.7853 947.876 88.3308C947.53 89.4202 946.369 89.4394 946.086 88.3603C945.968 87.9069 945.626 87.6299 945.328 87.7447C945.029 87.8591 944.679 87.6777 944.55 87.3413C944.421 87.0054 943.816 86.73 943.206 86.73C942.252 86.73 942.17 86.8269 942.621 87.4237C942.908 87.8053 943.559 88.5024 944.067 88.9732L944.99 89.8287L943.125 89.9008C941.481 89.9645 941.256 89.8629 941.226 89.0454C941.207 88.5348 941.095 88.3585 940.976 88.6535C940.826 89.0245 940.529 88.9037 940.009 88.2621C938.956 86.9618 937.845 87.4822 937.841 89.278C937.838 90.3802 937.593 90.7922 936.689 91.2122C936.057 91.5059 935.381 91.7458 935.188 91.7458C934.994 91.7458 934.614 91.2173 934.345 90.5719L933.854 89.398L933.608 90.8921C933.373 92.3217 933.27 92.3972 931.228 92.6457C930.054 92.7882 928.95 92.8249 928.773 92.7272C928.597 92.6294 928.453 92.7776 928.453 93.0572C928.453 93.4008 927.962 93.4853 926.934 93.3184C925.169 93.032 924.184 93.3129 924.184 94.1039C924.184 94.4112 923.944 94.7595 923.651 94.8782C923.357 94.9965 923.657 95.1087 924.316 95.1271C925.071 95.1484 925.408 95.3341 925.226 95.6287C925.067 95.8861 924.383 96.0154 923.707 95.9159C923.031 95.8169 922.477 95.8942 922.477 96.0884C922.477 96.2826 922.163 96.4414 921.78 96.4414C921.396 96.4414 920.713 96.8674 920.262 97.3882C919.755 97.9726 919.327 98.1656 919.145 97.8919C918.982 97.6482 917.984 97.4715 916.928 97.4992C913.713 97.5829 911.612 98.5092 913.192 99.147C913.619 99.319 913.619 99.3689 913.192 99.3958C912.899 99.4142 912.659 99.8137 912.659 100.283C912.659 101.766 911.154 101.272 909.9 99.3766L908.735 97.6162L908.207 98.6296C907.917 99.1871 907.456 99.5948 907.181 99.5363C906.907 99.4774 906.683 99.8009 906.683 100.255C906.683 101.001 905.792 101.604 904.809 101.523C904.601 101.505 904.276 101.741 904.087 102.047C903.839 102.448 903.626 102.292 903.318 101.484C902.768 100.039 901.767 99.345 902.2 100.71C902.429 101.43 902.369 101.587 901.96 101.334C901.571 101.094 901.494 101.203 901.691 101.717C901.931 102.34 901.842 102.37 901.037 101.94C900.343 101.568 900.066 101.565 899.944 101.93C899.855 102.198 899.39 102.418 898.911 102.418C898.186 102.418 898.129 102.524 898.572 103.058C899.192 103.805 898.856 103.881 897.69 103.256C897.053 102.915 896.864 102.954 896.864 103.423C896.864 104.133 895.012 104.699 893.875 104.338C893.329 104.165 893.007 104.354 892.815 104.961C892.591 105.666 892.156 105.841 890.539 105.875C888.993 105.908 888.782 105.986 889.608 106.219L890.675 106.521L889.669 106.789C889.115 106.937 888.179 106.874 887.589 106.649C886.539 106.25 885.659 106.6 884.812 107.754C884.616 108.019 884.496 107.982 884.491 107.655C884.488 107.367 883.724 106.743 882.795 106.268C881.669 105.694 880.27 105.406 878.608 105.406C876.541 105.406 875.879 105.599 874.758 106.528C874.013 107.145 873.501 107.807 873.62 108C873.74 108.193 873.469 108.548 873.02 108.788C872.571 109.029 872.085 109.698 871.94 110.277C871.77 110.956 871.396 111.308 870.886 111.269C870.348 111.229 870.16 110.965 870.297 110.442C870.407 110.02 870.283 109.675 870.021 109.675C869.759 109.675 869.544 110.059 869.544 110.528C869.544 110.998 869.4 111.398 869.224 111.417C869.048 111.437 868.424 111.535 867.837 111.635C867.25 111.735 866.578 111.845 866.343 111.88C866.108 111.915 865.484 111.804 864.955 111.634C864.236 111.402 863.995 111.493 863.995 111.994C863.995 112.362 864.263 112.663 864.59 112.663C864.917 112.663 865.295 112.951 865.43 113.303C865.617 113.789 865.345 113.947 864.302 113.957C863.546 113.964 862.555 114.252 862.099 114.597C861.643 114.942 860.947 115.224 860.551 115.224C860.155 115.224 859.619 115.479 859.36 115.791C859.059 116.153 857.998 116.344 856.426 116.318C855.072 116.295 853.49 116.514 852.912 116.803C852.27 117.125 851.764 117.171 851.61 116.922C851.451 116.665 850.818 116.671 849.889 116.937C849.081 117.169 848.103 117.358 847.716 117.358C847.329 117.358 846.086 116.592 844.953 115.656C843.257 114.254 842.829 114.068 842.533 114.598C842.334 114.952 841.988 115.129 841.764 114.99C841.54 114.851 841.459 114.573 841.584 114.37C842.027 113.653 840.806 113.397 840.293 114.099C839.819 114.747 839.707 114.714 839.067 113.738C838.68 113.146 838.003 112.663 837.565 112.663C837.125 112.663 836.648 112.354 836.504 111.978C836.357 111.595 835.966 111.399 835.617 111.533C834.814 111.841 833.764 110.787 833.415 109.325C833.026 107.693 832.406 107.056 831.49 107.346C830.986 107.506 830.601 107.354 830.437 106.929C830.296 106.561 829.936 106.26 829.638 106.26C829.34 106.26 828.859 105.974 828.568 105.624C828.278 105.274 827.855 105.103 827.627 105.244C827.4 105.384 826.665 104.973 825.994 104.33C825.323 103.687 824.502 103.265 824.17 103.392C823.838 103.519 823.086 103.179 822.499 102.635C821.913 102.091 820.245 101.341 818.794 100.969C817.343 100.597 816.018 100.314 815.85 100.339C814.887 100.483 814.414 100.212 814.632 99.643C814.775 99.2695 814.638 99.0027 814.304 99.0027C813.989 99.0027 813.082 98.8789 812.29 98.7278L810.849 98.4529L811.813 99.5064C812.344 100.086 812.647 100.69 812.488 100.849C812.12 101.218 810.636 99.8961 810.636 99.1999C810.636 98.5583 808.867 98.0392 808.372 98.5348C808.175 98.7316 808.507 99.2814 809.111 99.7561C809.715 100.231 810.209 100.832 810.209 101.092C810.209 101.351 810.535 101.564 810.934 101.564C811.502 101.564 811.548 101.676 811.144 102.08C810.74 102.484 810.358 102.438 809.392 101.867C808.712 101.465 807.919 101.137 807.629 101.137C807.338 101.137 806.852 100.801 806.547 100.39C806.024 99.6848 805.956 99.6908 805.34 100.497C804.98 100.966 804.68 101.124 804.673 100.847C804.665 100.571 804.349 100.033 803.968 99.6532C803.331 99.0163 803.214 99.0193 802.474 99.6891C802.033 100.089 801.671 100.668 801.671 100.977C801.671 101.301 801.4 101.433 801.025 101.289C800.67 101.153 800.094 101.279 799.745 101.569C799.119 102.088 799.055 102.048 798.95 101.066C798.92 100.792 798.656 100.488 798.363 100.39C798.028 100.278 797.829 100.622 797.829 101.315C797.829 102.527 796.984 102.874 796.962 101.671C796.955 101.26 796.667 100.551 796.322 100.095C795.709 99.2853 795.695 99.2878 795.695 100.202C795.695 100.716 795.566 101.137 795.409 101.137C795.251 101.137 794.759 100.808 794.315 100.407C793.672 99.8248 793.439 99.7903 793.163 100.235C792.755 100.896 791.213 100.704 791.213 99.993C791.213 99.7224 791.083 99.3715 790.926 99.2136C790.768 99.0556 790.749 98.2232 790.883 97.3639L791.128 95.8011L790.204 96.6199C789.696 97.0702 789.374 97.7425 789.49 98.1139C789.605 98.4853 789.544 99.0368 789.353 99.3395C788.889 100.079 787.266 99.4394 785.909 97.9807C785.34 97.369 784.572 96.8623 784.202 96.8546C783.221 96.835 781.903 95.72 782.231 95.1885C782.388 94.9341 782.018 94.544 781.395 94.3071C780.78 94.0731 780.4 93.6808 780.552 93.4354C780.704 93.1899 780.584 92.6947 780.285 92.3349C779.986 91.9755 779.344 90.8792 778.857 89.8991C778.261 88.6996 777.649 88.0713 776.984 87.9769C776.179 87.8625 774.254 88.5097 772.563 89.4642C772.4 89.5555 771.584 89.03 770.748 88.2958C769.913 87.562 769.229 87.1735 769.229 87.4327C769.229 87.6918 768.929 87.9039 768.563 87.9039C768.197 87.9039 768.01 88.0862 768.148 88.3095C768.286 88.5323 768.009 88.9233 767.533 89.1781C766.873 89.5316 766.664 89.5115 766.654 89.0928C766.645 88.7402 766.438 88.8106 766.073 89.2913C765.5 90.0464 764.711 90.3593 765.144 89.6597C765.502 89.0795 764.263 88.2484 762.942 88.1835C762.259 88.1498 761.127 87.5402 760.264 86.7411C759.326 85.872 758.496 85.443 758.034 85.5886C757.63 85.7158 756.603 85.4904 755.754 85.087C754.527 84.5051 754.139 84.4663 753.871 84.9004C753.685 85.201 753.271 85.3538 752.95 85.2398C752.065 84.9256 750.275 85.9894 749.615 87.2218C749.185 88.0252 748.885 88.2023 748.498 87.8809C748.126 87.5722 747.892 87.606 747.713 87.9927C747.512 88.4286 747.406 88.4324 747.209 88.0106C746.839 87.2179 746.271 87.3639 745.964 88.3308C745.813 88.808 745.318 89.1846 744.843 89.1846C744.303 89.1846 744.105 89.3664 744.301 89.684C744.509 90.0204 744.377 90.0938 743.896 89.9094C743.437 89.7331 742.994 89.9359 742.656 90.4771C742.04 91.4632 740.407 91.657 740.774 90.7004C740.933 90.2867 740.807 90.1604 740.393 90.3192C740.053 90.4498 739.438 90.4101 739.027 90.2308C738.616 90.052 737.637 89.8492 736.851 89.78C736.065 89.7109 734.967 89.3566 734.412 88.9925C733.856 88.6288 733.058 88.3299 732.639 88.3287C732.22 88.3278 731.301 87.7891 730.597 87.1317C728.959 85.6031 728.283 85.3632 726.978 85.8477C726.108 86.1708 726.033 86.3147 726.552 86.6609C727.023 86.9759 726.859 87.051 725.901 86.9593C725.097 86.8824 724.665 86.6233 724.74 86.2634C724.831 85.8297 724.449 85.7474 723.177 85.9254C721.992 86.091 721.341 85.9766 720.977 85.5382C720.693 85.1958 720.196 84.9158 719.873 84.9158C719.549 84.9158 719.284 84.5892 719.284 84.1901C719.284 83.2621 718.63 83.9323 718.223 85.2782C717.962 86.1388 718.039 86.243 718.762 86.0133C719.38 85.8169 719.666 85.977 719.832 86.6113C720.04 87.4079 719.859 87.4771 717.568 87.4771C715.93 87.4771 714.859 87.2593 714.441 86.841C713.814 86.2139 712.149 86.2105 710.64 86.8333C710.229 87.0028 709.557 87.0019 709.146 86.8312C707.812 86.2771 705.992 86.3941 705.269 87.0805C704.561 87.7537 704.305 87.7387 700.325 86.7928C699.253 86.5379 699.121 86.6011 699.371 87.2521C699.598 87.8437 699.485 87.9611 698.848 87.7942C698.401 87.6773 697.774 87.7473 697.454 87.9496C697.003 88.2356 697.043 88.3193 697.635 88.3244C698.265 88.3295 698.318 88.4794 697.941 89.1846C697.689 89.6541 697.278 90.0383 697.027 90.0383C696.776 90.0383 695.621 89.5615 694.46 88.9784C693.3 88.3953 692.466 88.1071 692.609 88.3381C692.912 88.8281 692.256 88.9075 691.786 88.4375C691.611 88.2612 691.338 88.1046 691.182 88.0892C690.504 88.0222 687.696 86.4333 687.696 86.1175C687.696 85.9262 687.407 85.7696 687.055 85.7696C686.703 85.7696 686.412 86.0095 686.409 86.3031C686.404 86.6587 686.264 86.6233 685.988 86.1964C685.712 85.7696 685.572 85.7341 685.568 86.0897C685.563 86.476 684.518 86.6233 681.785 86.6233C679.174 86.6233 677.585 86.8346 676.636 87.308C675.881 87.6849 675.15 87.88 675.012 87.7417C674.874 87.6034 674.498 87.8237 674.178 88.2309C673.858 88.6377 673.647 88.779 673.709 88.5442C673.833 88.0777 673.519 87.9039 672.555 87.9039C672.167 87.9039 672.024 88.1536 672.179 88.5583C672.396 89.1222 672.271 89.1402 671.281 88.6894C670.494 88.3304 670.041 88.3065 669.843 88.613C669.684 88.8593 668.929 89.0753 668.166 89.0941C667.068 89.1205 666.779 88.9557 666.779 88.3022C666.779 87.6858 666.48 87.4771 665.599 87.4771C664.429 87.4771 664.267 87.305 662.957 84.6695C662.1 82.9441 662.14 82.9671 661.5 83.8422C660.805 84.7933 659.541 84.4411 659.218 83.2062C659.095 82.7379 658.856 82.3546 658.684 82.3546C658.514 82.3546 658.032 82.7328 657.613 83.1946C657.004 83.8683 656.683 83.9434 655.995 83.575C655.523 83.3223 654.486 83.2211 653.691 83.35C652.838 83.4883 652.348 83.42 652.494 83.1831C652.63 82.962 652.55 82.7814 652.315 82.7814C652.08 82.7814 651.959 82.4083 652.047 81.9524C652.151 81.4103 652.016 81.1964 651.656 81.3343C651.334 81.4577 650.884 81.0073 650.569 80.2479C650.273 79.5342 649.849 79.0633 649.626 79.2012C649.402 79.3395 649.11 79.0339 648.976 78.5229C648.843 78.0115 648.294 77.4263 647.757 77.2222C647.211 77.0148 646.719 76.418 646.642 75.8678C646.529 75.0712 646.279 74.9103 645.328 75.0217C644.487 75.1199 644.154 74.9683 644.154 74.4881C644.154 73.5473 643.419 73.6523 642.874 74.6708C642.267 75.805 641.343 75.7538 640.943 74.5641C640.631 73.6378 640.613 73.6454 640.437 74.7775C640.232 76.1055 639.459 76.386 639.459 75.1327C639.459 74.0173 639.022 72.9633 638.559 72.9633C638.35 72.9633 638.178 73.4435 638.178 74.0305C638.178 74.6174 637.986 75.0977 637.751 75.0977C637.516 75.0977 637.324 74.8155 637.324 74.4706C637.324 74.0898 637.074 73.94 636.687 74.0885C636.336 74.2234 636.155 74.5052 636.285 74.7156C636.689 75.3692 633.725 75.134 632.724 74.433C632.202 74.0676 631.775 73.3313 631.775 72.7968C631.775 71.4914 631.4 71.1982 630.409 71.7283C629.738 72.0878 629.385 71.9584 628.537 71.0436C627.963 70.4234 627.603 69.7374 627.738 69.5188C627.873 69.3003 627.678 69.1214 627.305 69.1214C626.931 69.1214 626.515 69.4083 626.381 69.7592C626.246 70.1101 625.976 70.2983 625.78 70.1771C625.584 70.0563 625.257 70.2565 625.052 70.6227C624.744 71.1734 624.576 71.0829 624.079 70.0981C623.749 69.4433 623.423 68.826 623.354 68.7257C623.285 68.6254 622.969 68.8986 622.651 69.3327C622.095 70.0943 622.047 70.09 621.294 69.2102C620.709 68.5268 620.373 68.4149 619.954 68.7624C619.647 69.0173 619.396 69.4907 619.396 69.8138C619.396 70.8242 618.544 70.4571 618.036 69.2281C617.769 68.5827 617.588 67.8899 617.634 67.6893C617.68 67.4882 617.475 67.0306 617.177 66.672C616.705 66.103 616.606 66.147 616.4 67.0182C616.209 67.8263 615.849 68.0363 614.509 68.1221C613.599 68.1806 612.718 68.4491 612.551 68.7189C612.328 69.0792 612.015 69.0856 611.374 68.7419C610.717 68.3906 610.456 68.4051 610.325 68.8008C610.198 69.1808 609.951 69.1291 609.437 68.6147C609.044 68.2224 608.724 67.606 608.724 67.2445C608.724 66.8522 608.48 66.6806 608.118 66.8193C607.382 67.1019 605.221 65.7662 605.551 65.233C605.68 65.0239 605.582 64.8527 605.334 64.8527C605.085 64.8527 604.882 65.0448 604.882 65.2796C604.882 65.5143 604.669 65.7064 604.409 65.7064C604.149 65.7064 604.04 65.4371 604.166 65.1084C604.305 64.7468 604.053 64.4203 603.529 64.2832C603.052 64.1586 602.788 63.8512 602.943 63.6007C603.11 63.3309 602.844 63.1452 602.289 63.1452C601.775 63.1452 600.984 62.7192 600.532 62.1984C599.841 61.4018 599.648 61.351 599.315 61.8782C599.097 62.2227 598.913 62.3128 598.906 62.078C598.898 61.8432 598.706 61.9393 598.479 62.2914C598.213 62.7021 598.063 62.7439 598.058 62.408C598.051 61.8202 595.264 60.3624 593.338 59.9398C592.502 59.7558 592.076 59.8305 592.076 60.1605C592.076 60.5054 591.55 60.5703 590.367 60.3705C588.952 60.1314 588.701 60.1916 588.904 60.721C589.062 61.1342 588.813 61.4671 588.2 61.6618C586.757 62.1198 583.978 61.9798 583.297 61.4151C582.902 61.0868 581.988 61.0121 580.661 61.1995C579.543 61.3574 578.293 61.5845 577.882 61.704C577.413 61.8411 577.135 61.6908 577.135 61.3002C577.135 60.9583 576.741 60.2249 576.261 59.6708L575.387 58.663L575.654 60.0503C575.881 61.2255 575.797 61.4377 575.106 61.4377C574.657 61.4377 574.145 61.2934 573.969 61.1175C573.793 60.9412 573.442 60.7974 573.189 60.7974C572.936 60.7974 572.52 60.1869 572.264 59.4408C571.575 57.431 571 57.1292 571.329 58.9498C571.661 60.7888 571.042 61.4236 569.913 60.4021C569.488 60.017 568.836 59.8292 568.446 59.979C568.06 60.1272 567.408 60.102 566.997 59.9227C566.586 59.7438 565.603 59.5406 564.812 59.4715C564.022 59.4019 563.062 59.0771 562.678 58.7488C561.785 57.9843 560.354 57.4618 560.703 58.0274C561.227 58.8747 560.335 58.4141 558.618 56.9504C555.013 53.8777 554.83 53.7646 553.868 54.0062C553.234 54.1654 552.833 54.0194 552.658 53.5657C552.433 52.9787 550.688 51.9768 549.702 51.8688C549.523 51.8492 549.084 51.2704 548.727 50.5822C548.37 49.8946 547.701 49.0673 547.239 48.7441C546.778 48.4206 546.4 47.8917 546.4 47.5689C546.4 46.7502 544.781 46.3195 544.034 46.9389C543.694 47.221 543.011 47.3453 542.515 47.2159C542.019 47.0861 541.178 47.1455 540.646 47.3478C540.049 47.5745 539.509 47.5463 539.237 47.274C538.934 46.9705 538.817 47.0682 538.863 47.5886C538.958 48.6686 536.662 49.886 534.366 49.9727C532.896 50.0286 532.18 49.8216 531.433 49.1253C530.89 48.619 530.31 48.2046 530.145 48.2046C529.979 48.2046 529.73 47.7469 529.589 47.1873C529.449 46.6277 528.758 45.5537 528.055 44.8007C527.352 44.0476 526.581 42.7286 526.344 41.8693C525.798 39.892 523.855 38.4598 522.075 38.7211C521.372 38.8244 520.901 39.0797 521.03 39.288C521.383 39.8591 520.502 39.743 519.857 39.1335C519.22 38.5303 517.013 37.6326 514.856 37.099C514.058 36.9022 513.245 36.4868 513.048 36.1761C512.851 35.8657 512.687 35.8137 512.683 36.06C512.68 36.3067 512.886 36.7169 513.141 36.9722C513.475 37.3064 513.475 37.5165 513.141 37.7231C512.886 37.881 512.677 37.8247 512.677 37.598C512.677 37.3713 512.312 37.2812 511.867 37.3978C511.421 37.5139 510.65 37.3918 510.153 37.1259C508.766 36.3835 509.198 37.5664 510.649 38.4846C511.295 38.8936 511.823 39.3968 511.823 39.6034C511.823 39.816 511.035 39.8267 510.009 39.6282C509.011 39.4353 508.028 39.2692 507.825 39.259C507.621 39.2487 507.551 38.8705 507.67 38.4184C507.832 37.7973 507.714 37.6573 507.186 37.8443C506.802 37.9805 506.264 38.2635 505.992 38.4731C505.72 38.6827 504.567 38.7446 503.431 38.6105C500.914 38.3134 499.871 38.0086 499.871 37.5698C499.871 37.0149 496.231 38.1235 495.433 38.9209C494.653 39.7008 493.664 39.9573 494.089 39.2696C494.225 39.0511 494.16 38.7642 493.946 38.6319C493.732 38.4995 493.447 38.6784 493.312 39.0293C493.178 39.3802 492.76 39.6671 492.383 39.6671C492.007 39.6671 491.411 39.9552 491.059 40.3074C490.304 41.0617 489.626 41.1415 489.626 40.4751C489.626 40.2092 489.314 40.1221 488.913 40.2762C488.52 40.4265 488.088 40.3786 487.952 40.1699C487.816 39.9612 486.936 39.6594 485.997 39.4993C484.775 39.2914 484.472 39.3324 484.93 39.6449C485.457 40.0034 485.403 40.082 484.625 40.0875C484.105 40.0909 483.471 39.7042 483.216 39.2282C482.961 38.7523 482.57 38.4752 482.347 38.6131C482.124 38.751 481.942 38.5742 481.942 38.2204C481.942 37.5809 480.171 35.3983 479.652 35.3983C479.503 35.3983 479.381 35.771 479.381 36.2269C479.381 36.6828 479.218 37.1557 479.02 37.2778C478.369 37.6812 475.539 36.6576 475.539 36.0186C475.539 35.3044 474.02 35.1742 473.601 35.8521C473.447 36.1018 473.676 36.7071 474.11 37.198C474.896 38.0868 474.893 38.0889 473.404 37.779C472.583 37.6082 471.718 37.4294 471.483 37.3816C471.249 37.3342 470.851 37.1668 470.6 37.0098C470.349 36.8527 469.407 36.8155 468.506 36.9274C467.249 37.0832 466.65 36.9248 465.926 36.2448C465.408 35.7577 464.814 35.391 464.605 35.4295C463.566 35.6216 462.733 35.3338 462.733 34.7832C462.733 33.9367 461.913 33.5064 460.504 33.614C459.785 33.6686 459.316 33.4915 459.314 33.164C459.312 32.8669 458.832 32.4016 458.247 32.1301C457.364 31.7208 457.183 31.7468 457.183 32.283C457.183 32.741 456.902 32.8592 456.219 32.6876C455.689 32.5545 454.968 32.627 454.618 32.8482C454.193 33.1171 454.159 33.2528 454.515 33.2575C454.808 33.2609 455.049 33.5521 455.049 33.9042C455.049 34.7593 454.017 34.7187 453.287 33.8347C452.79 33.2328 452.791 33.0949 453.295 32.9254C453.658 32.8033 453.326 32.481 452.441 32.0964C451.131 31.527 451.075 31.4343 451.847 31.115C452.659 30.7799 452.654 30.7612 451.74 30.7326C450.935 30.7074 450.78 30.9268 450.78 32.0922C450.78 33.3224 450.598 33.5388 449.193 33.9785C448.01 34.349 447.385 34.3525 446.739 33.9935C446.262 33.7284 445.654 33.5551 445.389 33.608C445.124 33.6613 444.813 33.3463 444.699 32.9088C444.575 32.4349 443.953 32.0055 443.164 31.8476C442.153 31.6452 441.683 31.2119 441.186 30.0231C440.643 28.7233 440.43 28.5508 439.907 28.9854C439.406 29.4011 439.148 29.3764 438.634 28.8624C438.279 28.5077 437.754 28.1393 437.467 28.0437C437.062 27.9084 437.075 27.3334 437.529 25.4423C437.849 24.1066 437.994 22.8964 437.85 22.7526C437.706 22.6091 437.462 22.9942 437.308 23.6089C437.014 24.7798 435.839 25.1776 435.839 24.1062C435.839 22.916 434.887 21.3759 434.292 21.6043C433.969 21.7281 433.705 21.6171 433.705 21.3571C433.705 21.0971 433.43 20.8846 433.093 20.8846C432.757 20.8846 432.345 20.453 432.178 19.9258C431.842 18.8671 430.696 17.8589 430.187 18.1735C430.008 18.284 429.677 17.8905 429.453 17.2988C428.974 16.0395 427.254 14.2129 426.716 14.3922C426.511 14.4605 426.444 14.2548 426.567 13.9346C426.689 13.6149 426.448 13.1398 426.031 12.8789C425.075 12.2817 423.496 9.06055 423.168 7.03588C423.031 6.18896 422.757 5.3971 422.561 5.27544C422.364 5.1542 421.75 5.35143 421.197 5.71427C420.074 6.4502 419.618 6.22524 419.618 4.93351C419.618 4.25862 419.504 4.17965 419.106 4.57792C418.824 4.85966 418.056 5.09018 417.398 5.09018C416.741 5.09018 416.203 5.24941 416.203 5.44406C416.203 5.84276 414.399 5.86965 414.069 5.4765C413.951 5.33648 413.139 5.10896 412.262 4.97065C410.65 4.71666 409.642 5.31898 410.645 5.93838C411.465 6.44551 410.38 6.92873 409.126 6.61412C408.33 6.41392 407.792 6.63589 406.91 7.52763C406.269 8.17563 405.649 8.72459 405.531 8.74807C405.414 8.77112 404.777 9.01402 404.116 9.28807C402.311 10.0355 400.039 9.89252 398.848 8.95596C398.268 8.49963 397.517 8.23197 397.18 8.36132C396.815 8.50133 396.567 8.33742 396.567 7.95536C396.567 7.52507 396.035 7.2634 394.949 7.16009C394.06 7.07515 393.004 7.06916 392.602 7.14643C391.944 7.27321 391.937 7.35133 392.533 7.94682C393.394 8.80825 393.105 9.05243 391.826 8.54146C391.264 8.31649 390.978 8.12013 391.19 8.10519C392.053 8.045 389.98 6.40025 388.732 6.1548C386.833 5.78128 384.882 5.00395 384.514 4.4742C384.328 4.20612 384.198 4.32607 384.194 4.77002C384.184 5.83635 383.534 5.69335 382.518 4.40162C381.406 2.98696 380.346 3.31608 380.346 5.07694C380.346 6.02717 380.147 6.36909 379.599 6.36439C379.111 6.36012 379.024 6.24786 379.349 6.04125C380.094 5.567 378.867 4.05757 378.005 4.38797C377.546 4.56427 377.202 4.30856 376.928 3.588C376.345 2.05637 375.516 2.22883 375.863 3.80955C376.018 4.5139 375.986 5.08889 375.79 5.08761C375.596 5.0859 374.918 4.81441 374.284 4.48401C373.281 3.96023 373.063 3.96622 372.594 4.53097C372.299 4.88741 371.616 5.34631 371.079 5.55078C370.541 5.75568 370.101 6.23634 370.101 6.61924C370.101 7.05636 369.867 7.22626 369.474 7.07557C369.129 6.94324 368.734 7.0188 368.595 7.24334C368.456 7.46787 368.557 7.65143 368.82 7.65143C369.083 7.65143 369.18 7.84138 369.036 8.07403C368.884 8.31991 368.39 8.13764 367.852 7.63648C367.344 7.16351 366.706 6.86256 366.432 6.96715C366.159 7.07216 365.727 6.9488 365.472 6.69352C364.828 6.05022 362.116 5.82696 361.229 6.34433C360.814 6.5868 360.727 6.77719 361.03 6.78487C361.644 6.79981 361.771 8.50518 361.158 8.50518C360.934 8.50518 360.55 8.1688 360.304 7.75815C359.897 7.07899 359.808 7.07301 359.322 7.69155C359.029 8.06549 358.068 8.50646 357.188 8.67123C355.709 8.94785 355.328 9.42723 355.537 10.7463C355.629 11.3345 353.991 11.075 353.443 10.4146C352.968 9.84257 352.843 9.88142 352.42 10.7347C352.154 11.2696 351.488 11.7712 350.938 11.8497C350.388 11.9283 349.843 12.3581 349.726 12.8051C349.609 13.2525 349.361 13.5235 349.174 13.4083C348.588 13.0463 347.417 13.7114 347.636 14.2817C347.751 14.5805 347.576 15.1802 347.247 15.6139C346.915 16.0515 346.643 16.171 346.636 15.882C346.628 15.5956 346.333 15.4731 345.978 15.6092C345.623 15.7454 344.675 15.3552 343.872 14.7422C343.068 14.1293 342.224 13.6277 341.995 13.6277C341.767 13.6277 341.681 14.0119 341.803 14.4814C341.958 15.0752 341.816 15.3352 341.336 15.3352C340.957 15.3352 340.633 14.9988 340.616 14.5881C340.59 13.9346 340.546 13.9444 340.264 14.6637C339.976 15.3996 339.913 15.4107 339.667 14.7704C339.516 14.3768 339.02 14.0546 338.565 14.0546C337.95 14.0546 337.795 14.2718 337.96 14.9019C338.082 15.368 338.056 16.0749 337.904 16.4732C337.667 17.0888 337.434 16.9872 336.346 15.7958C335.384 14.7431 335.18 14.2556 335.525 13.839C335.861 13.4343 335.837 13.2315 335.435 13.0915C335.131 12.9857 334.63 13.3033 334.32 13.7971C333.852 14.5446 333.8 14.5595 334.01 13.8876C334.225 13.1991 334.165 13.1611 333.602 13.6281C333.239 13.9295 332.82 14.0546 332.671 13.9056C332.522 13.757 332.128 13.8612 331.795 14.1374C331.325 14.528 331.107 14.5062 330.819 14.0392C330.508 13.5372 330.403 13.5525 330.181 14.1322C329.945 14.7457 329.781 14.7568 328.771 14.2291C327.699 13.6695 327.618 13.6921 327.484 14.5899C327.256 16.1176 326.715 16.3443 325.706 15.3352C325.023 14.6522 324.638 14.5241 324.297 14.8656C323.71 15.4521 323.002 15.4846 323.358 14.9083C323.503 14.6735 323.215 14.4814 322.718 14.4814C322.136 14.4814 321.924 14.6594 322.122 14.9809C322.34 15.3339 322.192 15.38 321.614 15.1375C321.164 14.9488 319.755 14.6035 318.483 14.3696C316.487 14.0029 316.097 14.0439 315.64 14.6693C315.149 15.3412 315.09 15.333 314.845 14.5578C314.554 13.6435 312.504 13.0283 311.854 13.6605C311.194 14.3009 310.874 14.1216 310.579 12.946C310.348 12.0222 310.126 11.8809 309.252 12.1003C308.597 12.2647 308.204 12.1801 308.204 11.8762C308.204 11.5155 308.048 11.5181 307.605 11.8856C307.148 12.2647 306.966 12.2617 306.836 11.8724C306.716 11.5142 306.301 11.6013 305.44 12.1656C304.553 12.747 304.165 12.8243 304.039 12.4448C303.943 12.1562 303.676 11.9202 303.447 11.9202C303.218 11.9202 303.141 12.099 303.276 12.3176C303.657 12.9327 302.809 13.2559 301.607 12.9541C301.009 12.8042 300.52 12.4013 300.52 12.0585C300.52 11.6107 300.251 11.5181 299.56 11.7285C299.031 11.8894 298.245 12.333 297.812 12.7142C297.077 13.36 296.966 13.3357 296.173 12.3564C295.432 11.4421 295.273 11.3947 294.94 11.9906C294.685 12.4457 294.09 12.6356 293.163 12.5575C292.396 12.4935 291.769 12.3979 291.769 12.3453C291.769 12.2928 291.21 12.1848 290.526 12.105C289.843 12.0256 289.17 11.8036 289.032 11.612C288.894 11.4203 287.532 11.2022 286.006 11.1275C283.757 11.0173 283.021 10.7928 282.12 9.94161C281.315 9.18134 280.491 8.87699 279.132 8.839C278.1 8.80954 277.015 8.60293 276.722 8.37967C276.428 8.15642 276.188 8.14233 276.188 8.34851C276.188 8.88467 273.732 9.90063 273.212 9.57962C272.419 9.08957 271.066 8.97431 271.066 9.39691C271.066 9.62529 270.744 9.93606 270.351 10.0867C269.958 10.2374 269.269 10.7283 268.82 11.1774C268.275 11.7225 267.672 11.9112 267.009 11.7443C266.461 11.6073 265.946 11.6982 265.863 11.9466C265.766 12.2399 265.284 12.1759 264.488 11.7631C263.323 11.1582 263.176 11.1928 261.406 12.4845C260.384 13.2307 259.434 14.256 259.294 14.7632C259.135 15.3382 258.291 16.0088 257.049 16.5467C255.227 17.3355 254.995 17.3513 254.311 16.7328C253.9 16.361 253.564 16.2209 253.564 16.4216C253.564 16.6222 253.357 16.5795 253.104 16.3268C252.775 15.9981 252.354 16.1565 251.629 16.8817C250.426 18.0847 249.495 18.1769 248.918 17.1494C248.459 16.3319 248.546 16.2205 247.796 18.5841C247.652 19.0379 247.774 19.1967 248.155 19.0507C248.904 18.763 249.907 19.3854 249.571 19.9296C249.211 20.5119 247.161 20.4619 247.159 19.8707C247.158 19.5565 246.014 19.3905 243.851 19.3905C240.911 19.3905 240.456 19.2812 239.746 18.404C239.307 17.8614 238.688 17.5169 238.372 17.6386C238.055 17.7598 237.699 17.7013 237.58 17.508C237.46 17.315 236.877 17.2501 236.283 17.3637C235.689 17.4772 234.918 17.3338 234.57 17.0448C234.06 16.6214 233.888 16.6491 233.68 17.1895C233.492 17.68 233.062 17.7961 232.075 17.6228C229.727 17.21 223.697 15.2776 223.435 14.8537C223.297 14.63 222.807 14.5664 222.345 14.7128C221.864 14.8656 221.04 14.6735 220.414 14.2637C219.676 13.7796 219.182 13.6883 218.889 13.9816C218.651 14.2198 218.216 14.3226 217.924 14.2104C217.631 14.0981 217.29 14.3939 217.166 14.8682C216.999 15.5064 216.68 15.6792 215.936 15.5341C215.384 15.4265 214.307 15.2203 213.544 15.0761C212.781 14.9314 212.157 14.6424 212.157 14.434C212.157 14.2253 211.953 14.0546 211.705 14.0546C211.456 14.0546 211.37 14.2445 211.514 14.4767C211.663 14.7183 211.492 14.7901 211.112 14.6445C210.747 14.5045 210.449 14.5898 210.449 14.834C210.449 15.0778 210.052 15.4039 209.565 15.5584C208.999 15.7382 208.382 15.5687 207.851 15.088C207.057 14.3696 206.994 14.3726 206.414 15.1563C205.815 15.964 205.798 15.964 205.198 15.155C204.603 14.3508 204.575 14.3529 203.797 15.2618C202.872 16.3417 202.104 16.4519 201.76 15.5537C201.553 15.0159 201.285 15.0551 200.006 15.8094C199.165 16.3059 198.497 16.4924 198.497 16.2312C198.497 15.4077 197.325 15.7288 197.092 16.6158C196.814 17.6809 196.168 17.7022 195.146 16.6798C194.43 15.964 194.312 15.9541 193.881 16.5731C193.456 17.1831 193.316 17.1532 192.572 16.2931C192.049 15.6882 191.677 15.5196 191.57 15.8397C191.449 16.203 191.105 16.1424 190.371 15.6289C189.093 14.7333 188.778 14.7265 188.603 15.5896C188.468 16.2564 185.75 17.4503 184.338 17.4631C183.947 17.4666 182.653 16.9808 181.463 16.3831C178.774 15.0325 175.385 14.5681 173.924 15.3501C173.001 15.844 172.64 15.7992 171.062 14.9945C169.603 14.2509 169.23 14.1903 169.122 14.6808C169.049 15.0146 168.713 15.1819 168.375 15.0526C168.038 14.9228 167.762 15.0295 167.762 15.2895C167.762 15.5495 168.05 15.786 168.402 15.8154C168.754 15.8449 169.282 15.8927 169.576 15.9221C170.198 15.9845 170.582 17.8964 169.972 17.8964C169.746 17.8964 169.45 17.6083 169.315 17.2561C168.982 16.3879 168.292 16.4472 168.072 17.3628C167.924 17.9775 167.816 17.9233 167.464 17.0576C167.039 16.0165 167.029 16.022 166.512 17.5912C166.224 18.4633 165.726 19.1771 165.405 19.1771C165.085 19.1771 164.513 18.7451 164.134 18.2166L163.445 17.2561L163.711 18.3587C163.953 19.3627 163.859 19.4618 162.668 19.4618C161.948 19.4618 161.356 19.3495 161.352 19.2125C161.349 19.0755 161.164 18.6763 160.942 18.3254C160.595 17.7773 160.452 17.8051 159.928 18.5227C159.416 19.2219 159.208 19.268 158.651 18.8057C157.858 18.1479 156.236 18.5513 156.236 19.4059C156.236 19.796 155.976 19.9083 155.489 19.7286C155.078 19.5766 154.644 19.3094 154.524 19.1339C154.403 18.9585 153.247 19.0609 151.953 19.3619C150.497 19.7 149.224 19.7687 148.611 19.542C148.066 19.3401 147.471 19.2671 147.289 19.3794C147.108 19.4921 146.628 19.218 146.224 18.7711C145.575 18.0552 145.037 17.9831 141.684 18.1632C138.94 18.3109 137.881 18.2281 137.881 17.8665C137.881 17.4849 137.735 17.4862 137.27 17.8717C136.782 18.2772 136.565 18.2021 136.188 17.4973C135.848 16.8621 135.295 16.6158 134.209 16.6158C133.38 16.6158 132.318 16.4105 131.849 16.1595C131.242 15.8342 130.836 15.8359 130.44 16.1646C130.032 16.5027 129.747 16.4621 129.373 16.0118C129.026 15.5926 128.392 15.4739 127.379 15.6383C126.212 15.8278 125.674 15.672 124.865 14.9121C123.314 13.4552 120.135 13.6614 118.751 15.3087C118.331 15.809 118.136 15.8423 117.969 15.4419C117.847 15.1482 117.389 14.9083 116.954 14.9083C116.517 14.9083 116.042 14.7162 115.897 14.4814C115.751 14.2466 115.101 14.0546 114.45 14.0546C113.624 14.0546 113.093 13.7318 112.695 12.9874C112.048 11.778 111.087 11.5898 110.701 12.5964C110.523 13.0621 110.348 13.1206 110.14 12.7837C109.974 12.5152 109.025 12.2843 108.032 12.2702C107.039 12.2566 106.139 12.0175 106.032 11.7392C105.924 11.4587 105.224 11.282 104.464 11.343C102.806 11.4758 100.866 10.6404 99.5302 9.21806C98.7191 8.35492 98.2559 8.20679 96.9237 8.38565C95.9641 8.51414 95.1842 8.40871 95.01 8.12697C94.8482 7.8653 94.2707 7.65143 93.726 7.65143C93.1817 7.65143 92.4974 7.36329 92.205 7.01111C91.9126 6.65894 91.2108 6.3708 90.6452 6.3708C90.0796 6.3708 89.5063 6.08266 89.3714 5.73049C89.0363 4.85753 86.4904 4.90108 85.7506 5.79196C85.2328 6.41606 85.2747 6.46002 86.1255 6.19023C86.9472 5.92941 87.0825 6.04126 87.0825 6.98252C87.0825 7.58527 86.925 8.0783 86.7324 8.0783C86.5404 8.0783 85.965 7.59807 85.4548 7.01111C84.9443 6.42416 84.6762 5.94393 84.8589 5.94393C85.3912 5.94393 86.706 3.46421 86.3052 3.21662C86.105 3.09283 85.4775 3.3195 84.911 3.72076C84.3446 4.12159 83.1463 4.46181 82.2482 4.47675C81.3462 4.49169 80.4519 4.76746 80.2508 5.09274C79.949 5.58109 79.3706 5.50936 76.8683 4.67354C75.2077 4.11903 73.8494 3.50861 73.8494 3.31694C73.8494 3.12528 72.9196 3.33487 71.7829 3.78266C70.0574 4.4631 69.2404 4.53823 66.8333 4.23984C64.8598 3.99524 63.6514 3.60166 63.003 2.99208C62.4817 2.50246 61.765 2.10205 61.4103 2.10205C61.0556 2.10205 60.314 2.58229 59.7625 3.16924C58.7308 4.26759 57.4531 4.56213 56.9878 3.80955C56.8427 3.57477 56.0512 3.38268 55.2286 3.38268C54.406 3.38268 52.6909 2.88964 51.4167 2.2869C48.9446 1.11726 46.7454 1.0306 46.739 2.10205C46.7364 2.52722 46.3061 2.74279 45.4583 2.74407C44.7561 2.74493 43.9306 2.90714 43.6237 3.10435C43.0551 3.46976 40.4119 3.71948 34.4331 3.97261C31.3775 4.10196 30.8785 4.00165 28.6703 2.81451C27.3405 2.09949 26.0019 1.16677 25.695 0.74118C24.9603 -0.277771 23.8141 -0.241492 23.1503 0.821427C22.857 1.29099 22.2321 1.67518 21.7613 1.67518C21.2904 1.67518 20.4985 1.91508 20.0017 2.20877C19.2785 2.63565 19.0591 2.63565 18.9046 2.20877C18.6335 1.46089 16.8181 1.54413 15.5699 2.36202C14.5924 3.00234 14.4015 2.98953 12.7435 2.16908C11.4685 1.53858 10.7508 1.40454 10.2066 1.69567C9.7212 1.95564 9.04334 1.94881 8.3296 1.67731C7.7149 1.44339 6.5978 1.25471 5.84693 1.25769C5.09648 1.26068 3.74241 1.26708 2.83786 1.27178C1.93374 1.2769 0.925459 1.05791 0.596765 0.785563C0.0862223 0.36125 1.52588e-05 9.64963 1.52588e-05 65.2275V130.165H683H1366L1365.99 90.145ZM844.314 117.749C843.399 117.025 842.651 116.161 842.651 115.828C842.651 115.496 842.803 115.224 842.989 115.224C843.593 115.224 846.939 118.478 846.641 118.776C846.481 118.935 846.266 119.066 846.163 119.066C846.06 119.066 845.228 118.473 844.314 117.749ZM837.529 113.73C837.529 113.378 837.689 113.09 837.884 113.09C838.08 113.09 838.24 113.378 838.24 113.73C838.24 114.082 838.08 114.37 837.884 114.37C837.689 114.37 837.529 114.082 837.529 113.73ZM870.113 111.951C870.27 111.795 870.398 111.923 870.398 112.236C870.398 112.549 870.27 112.677 870.113 112.521C869.957 112.364 869.957 112.108 870.113 111.951ZM882.066 110.67C882.223 110.514 882.351 110.642 882.351 110.955C882.351 111.268 882.223 111.396 882.066 111.24C881.91 111.083 881.91 110.827 882.066 110.67ZM881.475 109.316C880.275 108.344 880.995 107.749 882.281 108.649C883.218 109.306 883.516 110.101 882.825 110.101C882.616 110.101 882.009 109.748 881.475 109.316ZM878.607 109.568C878.369 109.274 878.098 108.65 878.005 108.18C877.909 107.689 877.551 107.375 877.163 107.439C876.792 107.501 876.247 107.261 875.952 106.905C875.493 106.352 875.609 106.26 876.768 106.26C878.335 106.26 880.216 107.879 880.216 109.228C880.216 110.197 879.279 110.395 878.607 109.568ZM891.457 108.536C891.614 108.38 891.87 108.38 892.027 108.536C892.183 108.693 892.055 108.821 891.742 108.821C891.429 108.821 891.301 108.693 891.457 108.536ZM888.642 108.138C888.806 107.514 890.461 107.603 890.461 108.236C890.461 108.596 890.097 108.76 889.501 108.669C888.973 108.588 888.586 108.35 888.642 108.138ZM895.797 106.686C895.942 106.452 896.242 106.26 896.463 106.26C896.684 106.26 896.864 106.452 896.864 106.686C896.864 106.921 896.565 107.113 896.199 107.113C895.833 107.113 895.652 106.921 895.797 106.686ZM879.932 106.402C880.088 106.245 880.344 106.245 880.501 106.402C880.657 106.558 880.529 106.686 880.216 106.686C879.903 106.686 879.775 106.558 879.932 106.402ZM818.319 106.26C818.319 106.025 818.511 105.833 818.746 105.833C818.981 105.833 819.173 106.025 819.173 106.26C819.173 106.494 818.981 106.686 818.746 106.686C818.511 106.686 818.319 106.494 818.319 106.26ZM817.039 105.406C817.039 105.171 817.231 104.979 817.466 104.979C817.7 104.979 817.893 105.171 817.893 105.406C817.893 105.641 817.7 105.833 817.466 105.833C817.231 105.833 817.039 105.641 817.039 105.406ZM913.299 101.991C913.154 101.756 913.239 101.564 913.487 101.564C913.736 101.564 913.939 101.756 913.939 101.991C913.939 102.226 913.855 102.418 913.751 102.418C913.647 102.418 913.444 102.226 913.299 101.991ZM815.467 101.484C815.603 101.143 815.704 101.245 815.724 101.742C815.743 102.192 815.642 102.444 815.5 102.302C815.359 102.16 815.343 101.792 815.467 101.484ZM809.142 100.71C808.996 100.475 808.793 100.283 808.69 100.283C808.586 100.283 808.501 100.475 808.501 100.71C808.501 100.945 808.705 101.137 808.953 101.137C809.202 101.137 809.287 100.945 809.142 100.71ZM914.108 98.6915C914.542 98.2574 914.9 98.9109 914.544 99.4868C914.275 99.9222 914.175 99.9222 914.03 99.4885C913.931 99.1918 913.967 98.8332 914.108 98.6915ZM773.924 90.0635C773.924 89.8424 774.116 89.5431 774.351 89.398C774.586 89.2529 774.778 89.4338 774.778 89.7997C774.778 90.1655 774.586 90.4652 774.351 90.4652C774.116 90.4652 773.924 90.2846 773.924 90.0635ZM699.221 89.85C699.221 89.5115 699.43 89.106 699.685 88.9481C700.288 88.5754 701.111 89.3984 700.738 90.0012C700.32 90.6782 699.221 90.5689 699.221 89.85ZM689.972 90.1805C690.129 90.0242 690.385 90.0242 690.542 90.1805C690.698 90.3371 690.57 90.4652 690.257 90.4652C689.944 90.4652 689.816 90.3371 689.972 90.1805ZM669.528 88.1477C670.454 87.8617 671.286 87.4015 671.378 87.1253C671.47 86.8491 671.33 86.6233 671.066 86.6233C670.487 86.6233 667.206 88.2634 667.206 88.5528C667.206 88.823 667.525 88.7671 669.528 88.1477ZM1108.74 84.2042C1108.89 84.048 1109.02 84.176 1109.02 84.4889C1109.02 84.8018 1108.89 84.9299 1108.74 84.7737C1108.58 84.617 1108.58 84.3609 1108.74 84.2042ZM1063.35 84.4889C1063.35 84.2541 1063.43 84.0621 1063.53 84.0621C1063.64 84.0621 1063.84 84.2541 1063.99 84.4889C1064.13 84.7237 1064.05 84.9158 1063.8 84.9158C1063.55 84.9158 1063.35 84.7237 1063.35 84.4889ZM1062.39 83.817C1062.62 82.6248 1064.3 81.7044 1065.27 82.2457C1065.74 82.5121 1065.73 82.7165 1065.21 83.4217C1064.61 84.2277 1064.54 84.2337 1064.02 83.5285C1063.45 82.7626 1062.88 82.53 1062.97 83.1016C1063.1 83.9498 1062.88 84.9158 1062.55 84.9158C1062.35 84.9158 1062.28 84.4211 1062.39 83.817ZM1062.07 81.0739C1062.07 80.8391 1062.26 80.6471 1062.49 80.6471C1062.73 80.6471 1062.92 80.8391 1062.92 81.0739C1062.92 81.3087 1062.73 81.5008 1062.49 81.5008C1062.26 81.5008 1062.07 81.3087 1062.07 81.0739ZM968.722 79.5086C968.878 79.3523 969.134 79.3523 969.291 79.5086C969.447 79.6652 969.319 79.7933 969.006 79.7933C968.693 79.7933 968.565 79.6652 968.722 79.5086ZM1009.56 78.0858C1009.56 77.851 1009.75 77.6589 1009.99 77.6589C1010.22 77.6589 1010.41 77.851 1010.41 78.0858C1010.41 78.3206 1010.22 78.5127 1009.99 78.5127C1009.75 78.5127 1009.56 78.3206 1009.56 78.0858ZM1061.79 77.4455C1061.66 77.0933 1061.47 76.8052 1061.38 76.8052C1061.29 76.8052 1061.21 77.0933 1061.21 77.4455C1061.21 77.7977 1061.4 78.0858 1061.62 78.0858C1061.85 78.0858 1061.93 77.7977 1061.79 77.4455ZM639.032 76.8052C639.032 76.5704 639.116 76.3783 639.22 76.3783C639.324 76.3783 639.527 76.5704 639.672 76.8052C639.817 77.04 639.732 77.2321 639.484 77.2321C639.235 77.2321 639.032 77.04 639.032 76.8052ZM990.492 76.5205C990.649 76.3642 990.905 76.3642 991.062 76.5205C991.218 76.6771 991.09 76.8052 990.777 76.8052C990.464 76.8052 990.336 76.6771 990.492 76.5205ZM636.186 76.5205C636.343 76.3642 636.599 76.3642 636.755 76.5205C636.912 76.6771 636.784 76.8052 636.471 76.8052C636.158 76.8052 636.03 76.6771 636.186 76.5205ZM1080.85 74.6708C1080.85 74.436 1081.15 74.2439 1081.51 74.2439C1081.88 74.2439 1082.06 74.436 1081.91 74.6708C1081.77 74.9056 1081.47 75.0977 1081.25 75.0977C1081.03 75.0977 1080.85 74.9056 1080.85 74.6708ZM1199.52 72.1552C1199.52 71.9456 1199.81 71.6635 1200.16 71.5281C1200.81 71.2784 1201.03 71.7335 1200.51 72.2517C1200.11 72.6598 1199.52 72.6026 1199.52 72.1552ZM1211.14 71.3356C1211.04 71.0236 1211.23 70.9284 1211.65 71.0876C1212.02 71.2306 1212.33 71.5346 1212.33 71.7638C1212.33 72.3251 1211.35 71.9738 1211.14 71.3356ZM1211.01 69.0565C1210.59 68.2638 1210.62 68.1763 1211.24 68.4162C1211.64 68.5695 1212.05 68.6946 1212.15 68.6946C1212.24 68.6946 1212.33 68.9827 1212.33 69.3349C1212.33 70.2736 1211.58 70.1152 1211.01 69.0565ZM611 69.2636C611.157 69.1073 611.285 69.2354 611.285 69.5483C611.285 69.8612 611.157 69.9893 611 69.833C610.844 69.6764 610.844 69.4202 611 69.2636ZM1183.3 65.0913C1183.3 64.9876 1183.52 64.766 1183.79 64.5987C1184.1 64.4096 1184.17 64.4813 1183.98 64.7865C1183.67 65.2787 1183.3 65.4473 1183.3 65.0913ZM1149.36 63.6485C1149.69 63.3091 1150.43 64.0792 1150.17 64.5009C1149.99 64.7878 1149.77 64.7438 1149.54 64.3771C1149.35 64.0651 1149.27 63.7373 1149.36 63.6485ZM1329.93 60.5839C1329.78 60.3491 1329.96 60.1571 1330.33 60.1571C1330.7 60.1571 1331 60.3491 1331 60.5839C1331 60.8187 1330.82 61.0108 1330.59 61.0108C1330.37 61.0108 1330.07 60.8187 1329.93 60.5839ZM1326.16 58.5917C1326 58.4355 1325.75 58.4355 1325.59 58.5917C1325.43 58.7484 1325.56 58.8764 1325.87 58.8764C1326.19 58.8764 1326.31 58.7484 1326.16 58.5917ZM1306.02 58.0227C1306.17 57.7879 1306.47 57.5958 1306.69 57.5958C1306.91 57.5958 1307.09 57.7879 1307.09 58.0227C1307.09 58.2575 1306.79 58.4496 1306.43 58.4496C1306.06 58.4496 1305.88 58.2575 1306.02 58.0227ZM1326.59 57.3111C1326.43 57.1548 1326.17 57.1548 1326.02 57.3111C1325.86 57.4677 1325.99 57.5958 1326.3 57.5958C1326.61 57.5958 1326.74 57.4677 1326.59 57.3111ZM1297.7 57.1689C1297.7 56.9341 1297.78 56.7421 1297.89 56.7421C1297.99 56.7421 1298.2 56.9341 1298.34 57.1689C1298.49 57.4037 1298.4 57.5958 1298.15 57.5958C1297.9 57.5958 1297.7 57.4037 1297.7 57.1689ZM1281.69 57.1689C1281.55 56.9341 1281.74 56.7421 1282.12 56.7421C1282.5 56.7421 1282.69 56.9341 1282.55 57.1689C1282.4 57.4037 1282.21 57.5958 1282.12 57.5958C1282.03 57.5958 1281.84 57.4037 1281.69 57.1689ZM1292.69 56.9111C1292.83 56.7694 1293.2 56.754 1293.51 56.8774C1293.85 57.0135 1293.75 57.1147 1293.25 57.1352C1292.8 57.1536 1292.55 57.0528 1292.69 56.9111ZM1340.29 55.8085C1340.08 55.1703 1339.11 54.819 1339.11 55.3803C1339.11 55.6096 1339.41 55.9135 1339.78 56.0565C1340.2 56.2157 1340.39 56.1205 1340.29 55.8085ZM1342.7 55.5131C1342.84 55.2992 1342.66 55.0141 1342.31 54.8792C1341.95 54.7447 1341.67 54.8092 1341.67 55.0226C1341.67 55.6014 1342.43 55.9609 1342.7 55.5131ZM1294.43 54.7498C1294.58 54.5936 1294.71 54.7217 1294.71 55.0346C1294.71 55.3475 1294.58 55.4755 1294.43 55.3193C1294.27 55.1626 1294.27 54.9065 1294.43 54.7498ZM1280.77 54.7498C1280.92 54.5936 1281.05 54.7217 1281.05 55.0346C1281.05 55.3475 1280.92 55.4755 1280.77 55.3193C1280.61 55.1626 1280.61 54.9065 1280.77 54.7498ZM1361.87 51.3348C1362.03 51.1786 1362.29 51.1786 1362.44 51.3348C1362.6 51.4915 1362.47 51.6196 1362.16 51.6196C1361.85 51.6196 1361.72 51.4915 1361.87 51.3348ZM1280.84 50.7658C1280.69 50.531 1280.78 50.3389 1281.03 50.3389C1281.28 50.3389 1281.48 50.531 1281.48 50.7658C1281.48 51.0006 1281.39 51.1927 1281.29 51.1927C1281.19 51.1927 1280.98 51.0006 1280.84 50.7658ZM520.93 44.5048C521.086 44.3486 521.342 44.3486 521.499 44.5048C521.655 44.6615 521.527 44.7896 521.214 44.7896C520.901 44.7896 520.773 44.6615 520.93 44.5048ZM520.076 42.7973C520.233 42.6411 520.489 42.6411 520.645 42.7973C520.802 42.954 520.674 43.0821 520.361 43.0821C520.048 43.0821 519.92 42.954 520.076 42.7973ZM522.091 41.6153C521.713 41.1603 521.704 40.7752 522.054 40.1212C522.313 39.6367 522.61 39.2402 522.714 39.2402C523.167 39.2402 524.25 41.3797 524.001 41.7826C523.61 42.4153 522.688 42.3346 522.091 41.6153ZM507.225 40.8674C507.489 40.076 508.408 39.945 508.408 40.6988C508.408 41.0702 508.104 41.3746 507.732 41.3746C507.361 41.3746 507.132 41.1466 507.225 40.8674ZM518.306 40.1204C518.199 39.8002 518.359 39.6402 518.68 39.7469C518.988 39.8498 519.324 40.1861 519.427 40.4939C519.533 40.8141 519.373 40.9741 519.053 40.8674C518.745 40.765 518.409 40.4286 518.306 40.1204ZM516.946 40.0939C516.946 39.8591 517.03 39.6671 517.134 39.6671C517.238 39.6671 517.441 39.8591 517.586 40.0939C517.731 40.3287 517.646 40.5208 517.398 40.5208C517.149 40.5208 516.946 40.3287 516.946 40.0939ZM505.802 39.1138C506.351 38.5657 506.906 38.9892 506.5 39.6457C506.343 39.8997 506.019 39.9868 505.78 39.8391C505.489 39.6589 505.496 39.4203 505.802 39.1138ZM514.146 39.0404C513.69 38.6955 513.52 38.4073 513.769 38.4001C514.018 38.3924 514.594 38.6686 515.05 39.0131C515.505 39.358 515.675 39.6461 515.426 39.6534C515.178 39.6611 514.602 39.3849 514.146 39.0404ZM170.892 15.9042C171.049 15.748 171.305 15.748 171.462 15.9042C171.618 16.0609 171.49 16.1889 171.177 16.1889C170.864 16.1889 170.736 16.0609 170.892 15.9042ZM349.326 15.0505C349.483 14.8942 349.739 14.8942 349.895 15.0505C350.052 15.2071 349.924 15.3352 349.611 15.3352C349.298 15.3352 349.17 15.2071 349.326 15.0505ZM302.848 14.3094C302.342 13.8035 302.341 13.6755 302.837 13.4851C303.525 13.2213 303.935 13.5402 303.935 14.3393C303.935 15.0697 303.599 15.0603 302.848 14.3094ZM406.812 12.7739C406.812 12.5391 407.004 12.3471 407.239 12.3471C407.474 12.3471 407.666 12.5391 407.666 12.7739C407.666 13.0087 407.474 13.2008 407.239 13.2008C407.004 13.2008 406.812 13.0087 406.812 12.7739ZM357.437 9.50108C357.593 9.34484 357.849 9.34484 358.006 9.50108C358.162 9.65774 358.034 9.7858 357.721 9.7858C357.408 9.7858 357.28 9.65774 357.437 9.50108ZM389.452 9.0742C389.609 8.91797 389.865 8.91797 390.022 9.0742C390.178 9.23087 390.05 9.35893 389.737 9.35893C389.424 9.35893 389.296 9.23087 389.452 9.0742ZM407.666 8.0783C407.666 7.84352 407.858 7.65143 408.093 7.65143C408.327 7.65143 408.519 7.84352 408.519 8.0783C408.519 8.31308 408.327 8.50518 408.093 8.50518C407.858 8.50518 407.666 8.31308 407.666 8.0783ZM386.322 8.0783C386.322 7.84352 386.61 7.65143 386.962 7.65143C387.314 7.65143 387.603 7.84352 387.603 8.0783C387.603 8.31308 387.314 8.50518 386.962 8.50518C386.61 8.50518 386.322 8.31308 386.322 8.0783ZM388.136 7.33127C388.032 7.01837 388.326 6.79768 388.848 6.79768C389.372 6.79768 389.737 7.07344 389.737 7.46915C389.737 8.25375 388.405 8.13892 388.136 7.33127ZM377.998 5.51705C377.853 5.28227 377.83 5.09018 377.947 5.09018C378.065 5.09018 378.28 5.28227 378.425 5.51705C378.57 5.75183 378.592 5.94393 378.475 5.94393C378.358 5.94393 378.143 5.75183 377.998 5.51705Z"/>
</svg>
