<svg width="1366" height="131" viewBox="0 0 1366 131" xmlns="http://www.w3.org/2000/svg">
<path fill-rule="evenodd" clip-rule="evenodd" d="M0.00640312 40.0195C0.010245 63.5062 0.169896 79.7915 0.392298 79.4402C0.709893 78.9382 1.28233 78.9241 3.9328 79.3514C5.67146 79.6318 7.37085 79.7735 7.70894 79.6655C8.04745 79.558 8.86022 79.3522 9.51547 79.2084C10.1707 79.0645 10.6014 78.7764 10.4725 78.5676C10.3436 78.3589 10.9225 78.2428 11.7591 78.3089C12.7465 78.3875 13.216 78.262 13.097 77.9521C12.8583 77.3301 16.8978 77.0595 17.2765 77.672C17.428 77.9175 17.7567 78.1181 18.006 78.1181C18.2976 78.1181 18.3172 77.9269 18.0611 77.5845C17.8417 77.2913 17.6743 76.6834 17.6888 76.2339C17.72 75.2777 18.7825 74.7539 18.7825 75.6948C18.7825 76.1263 19.0647 76.2569 19.6606 76.1011C20.1814 75.965 20.4473 75.6341 20.3141 75.2875C20.1698 74.9114 20.3982 74.7031 20.9553 74.7031C21.4317 74.7031 21.7023 74.511 21.5572 74.2762C21.412 74.0415 21.6729 73.8494 22.1369 73.8494C22.6005 73.8494 23.0769 73.609 23.1955 73.3158C23.3676 72.8889 23.4175 72.8889 23.4444 73.3158C23.4943 74.1072 24.3319 73.9634 24.3319 73.1634C24.3319 72.7561 24.5709 72.5692 24.9201 72.7032C25.2437 72.8274 25.7303 72.7071 26.0014 72.436C26.374 72.0633 26.555 72.1756 26.7433 72.8962C27.0225 73.9625 27.7469 74.1956 27.7469 73.2189C27.7469 72.8723 28.1895 72.2985 28.7304 71.9442C29.4211 71.4913 30.0879 71.4017 30.9715 71.642C32.6734 72.1052 34.8689 71.858 35.983 71.0772C37.1975 70.2269 37.9919 70.2632 37.9919 71.1699C37.9919 71.7739 38.1101 71.7359 38.6565 70.9564C39.4189 69.8675 41.0543 69.7087 41.8337 70.6478C42.1262 71 42.7259 71.2881 43.1665 71.2881C44.0236 71.2881 44.2456 70.6563 43.5412 70.2209C42.9061 69.8282 43.0252 69.2959 43.7487 69.2959C44.0975 69.2959 44.4864 69.6229 44.6131 70.0224C44.7399 70.422 45.1839 71.0563 45.5992 71.4324C46.3087 72.0744 46.3467 72.0326 46.222 70.7417C46.0534 69.0043 47.4361 67.1914 48.5562 67.6815C48.9673 67.8616 49.4522 67.9769 49.6336 67.9376C49.815 67.8987 50.1463 68.3487 50.37 68.9373C50.6543 69.6844 51.0982 70.0075 51.8397 70.0075C52.4284 70.0075 53.6129 70.6269 54.4932 71.3948C55.6333 72.3895 55.9975 72.5538 55.7789 71.975C55.5241 71.2992 55.577 71.2527 56.1046 71.6902C57.0074 72.4398 60.5539 73.4417 60.8143 73.0208C61.1759 72.4356 64.1013 73.6658 64.9392 74.7552C65.3686 75.3136 65.7242 75.5304 65.7294 75.2367C65.743 74.4611 66.455 74.5832 66.7748 75.416C66.925 75.8083 66.8405 76.2574 66.5869 76.414C65.8933 76.843 67.1901 77.763 68.0323 77.4394C68.4144 77.293 68.7269 77.3698 68.7269 77.6101C68.7269 77.8505 68.5139 78.1181 68.253 78.2048C67.9568 78.3038 68.0366 78.5762 68.4665 78.933C68.9941 79.3706 69.1537 79.3795 69.1537 78.9719C69.1537 78.5595 69.3044 78.5655 69.8265 78.9988C70.3379 79.4231 70.5744 79.4359 70.8122 79.0513C71.0469 78.6718 71.3325 78.7021 71.9536 79.1717C73.0191 79.9776 73.4584 79.9887 73.1561 79.2015C73.0247 78.8583 72.5504 78.4613 72.1026 78.3192C70.8792 77.9307 71.1234 77.3058 72.462 77.3976C73.4447 77.4646 73.6193 77.3211 73.5343 76.5173C73.4174 75.4139 74.0564 75.2218 74.4478 76.2424C74.631 76.7193 75.0199 76.8507 75.7255 76.6736C76.3457 76.5178 76.9314 76.6497 77.2328 77.0129C77.5043 77.3399 78.5702 77.8564 79.6024 78.1612C80.6341 78.466 81.3846 78.8669 81.2702 79.0521C81.1558 79.2374 81.3598 79.2745 81.7244 79.1349C82.0889 78.9949 82.3869 79.0496 82.3869 79.2562C82.3869 79.4624 83.0797 80.0045 83.9262 80.4604C85.4523 81.2821 85.4715 81.2821 86.0776 80.4531C86.6031 79.7343 86.7461 79.7065 87.0927 80.2546C87.328 80.6269 87.4991 80.6832 87.503 80.39C87.5064 80.1138 86.8849 79.3727 86.122 78.7439C85.2555 78.0298 85.0553 77.7156 85.5884 77.9077C86.058 78.0767 86.814 78.3209 87.2686 78.4507C88.0344 78.6688 88.0233 78.5856 87.1149 77.3096C86.1669 75.9786 86.1609 75.9137 86.9288 75.3353C87.3655 75.0066 88.043 74.8337 88.434 74.9511C88.825 75.0685 89.2643 74.9721 89.4098 74.7364C89.5836 74.4555 90.0463 74.4782 90.7579 74.8022C91.5856 75.1791 92.0355 75.1748 92.6635 74.7825C93.1155 74.4999 93.4856 74.4295 93.4856 74.6254C93.4856 74.8218 94.0568 74.8982 94.7543 74.7958C95.7732 74.6463 96.2437 74.8713 97.1401 75.9372C97.7544 76.6672 98.6495 77.2644 99.1293 77.2644C100.303 77.2644 102.65 75.7699 103.666 74.3757C104.41 73.3546 104.568 73.3038 105.253 73.8656C105.942 74.4312 105.992 74.4086 105.79 73.6231C105.668 73.1467 105.826 72.515 106.143 72.2191C106.46 71.9233 106.719 71.8606 106.719 72.0796C106.719 72.2981 107.017 72.5918 107.381 72.7318C107.811 72.8966 107.937 72.8138 107.742 72.4966C107.434 71.9989 108.171 72.1056 109.884 72.8061C110.459 73.0422 110.61 72.9931 110.392 72.6413C110.222 72.3664 110.22 71.9208 110.387 71.6505C110.601 71.3048 110.847 71.3722 111.215 71.8764C111.675 72.5047 111.771 72.5128 111.991 71.9408C112.342 71.0273 113.013 71.1276 113.335 72.1419C113.643 73.11 114.829 73.3115 114.829 72.3954C114.829 72.0121 115.128 71.8729 115.654 72.0108C116.321 72.185 116.434 72.0544 116.245 71.3304C116.11 70.8151 116.213 70.4344 116.487 70.4344C116.967 70.4344 117.123 70.9581 116.997 72.1419C116.94 72.6716 116.997 72.6806 117.325 72.194C117.543 71.8704 117.916 71.7257 118.153 71.8721C118.39 72.0189 119.036 71.6625 119.589 71.0807C120.725 69.8824 121.3 69.7774 122.532 70.5411C123.235 70.9769 123.462 70.9641 123.767 70.4732C123.973 70.1424 124.031 69.5823 123.895 69.2293C123.735 68.811 123.823 68.6944 124.148 68.8955C124.423 69.0654 124.66 69.8171 124.677 70.5663L124.705 71.9284L125.209 70.8612C126.027 69.1277 126.909 68.3 127.936 68.3C128.598 68.3 128.981 67.9786 129.157 67.2734C129.35 66.5071 129.808 66.1733 130.965 65.9565C131.818 65.7964 132.785 65.2811 133.114 64.8116C133.502 64.2571 134.013 64.0364 134.571 64.1828C135.044 64.3062 135.71 64.129 136.05 63.7884C136.39 63.4481 136.832 63.2706 137.032 63.3939C137.231 63.5173 137.521 63.4136 137.676 63.1638C137.874 62.8433 138.118 62.8428 138.502 63.1621C138.897 63.4895 139.195 63.4375 139.58 62.9735C139.919 62.5662 140.484 62.4253 141.131 62.5876C141.749 62.7425 142.149 62.6559 142.149 62.3664C142.149 62.0177 142.357 62.0194 142.923 62.3728C143.518 62.7447 143.986 62.7058 144.958 62.2029C145.652 61.8444 146.722 61.6467 147.336 61.7637C147.95 61.8811 148.582 61.7671 148.741 61.5101C149.086 60.9526 151.252 60.8933 152.294 61.4128C152.701 61.616 153.653 61.9814 154.408 62.2243C155.418 62.5491 155.756 62.5359 155.689 62.1748C155.638 61.9046 156.025 61.6834 156.548 61.6834C157.709 61.6834 157.872 60.9701 156.801 60.5774C156.217 60.3627 156.433 60.2116 157.671 59.9708C158.882 59.7348 159.42 59.806 159.704 60.2397C159.915 60.5642 160.009 61.1656 159.91 61.5763C159.705 62.4335 159.827 62.5312 161.572 62.9116C162.715 63.1604 162.773 63.1276 162.106 62.6034C161.695 62.2806 161.359 61.6954 161.359 61.3027C161.359 60.2858 162.496 59.9845 163.299 60.7883C164.139 61.6284 164.774 61.6659 164.774 60.8754C164.774 59.9166 165.979 59.7074 166.268 60.6162C166.409 61.0619 166.899 61.5451 167.357 61.6903C167.814 61.8354 168.192 62.2776 168.195 62.6725C168.2 63.2219 168.286 63.2586 168.558 62.8287C168.818 62.4198 169.063 62.6243 169.457 63.5758C169.756 64.2959 170.181 64.885 170.403 64.885C170.624 64.885 171.299 64.298 171.903 63.5809C172.525 62.842 173.252 62.3792 173.582 62.5137C173.903 62.6439 174.453 62.8672 174.805 63.0097C175.216 63.1762 175.446 63.0234 175.446 62.5829C175.446 61.8205 176.103 61.6608 176.513 62.3237C176.658 62.5585 177.297 62.7506 177.932 62.7506C178.873 62.7506 179.339 63.1707 180.435 65.0024C181.492 66.7692 182.037 67.2755 182.964 67.3523C183.614 67.4061 184.541 67.8095 185.025 68.2488C185.508 68.6876 186.369 69.2874 186.938 69.5815C187.825 70.0404 188.051 70.0062 188.538 69.3394C188.85 68.913 189.106 68.2919 189.106 67.9594C189.106 67.5632 189.358 67.4518 189.84 67.6366C190.243 67.7916 190.438 67.7831 190.273 67.6178C189.858 67.2025 191.27 66.1959 192.29 66.1793C192.75 66.1716 193.943 65.2769 194.94 64.19C196.313 62.6943 196.972 62.2717 197.651 62.4497C198.208 62.5952 198.638 62.4535 198.782 62.077C198.91 61.7432 199.283 61.47 199.61 61.47C199.937 61.47 200.204 61.2779 200.204 61.0431C200.204 60.3716 201.485 60.545 201.756 61.2536C201.914 61.6655 202.334 61.8072 202.942 61.6544C203.46 61.5246 204.16 61.3765 204.498 61.3253C204.836 61.2745 205.355 61.0815 205.651 60.8967C206.006 60.6752 207.062 61.4551 208.744 63.1801C210.15 64.6208 211.175 65.4754 211.023 65.0792C210.785 64.4581 210.874 64.4265 211.665 64.8504C212.171 65.1206 212.584 65.5479 212.584 65.7994C212.584 66.0512 212.879 66.1434 213.24 66.0051C213.601 65.8664 213.998 66.0171 214.122 66.3394C214.246 66.6617 214.766 66.9293 215.279 66.934C215.793 66.9387 216.583 67.0079 217.036 67.0877C217.572 67.182 217.946 66.9336 218.104 66.3791C218.237 65.9095 218.683 65.5095 219.094 65.4899C221.41 65.3793 221.807 65.2338 222.194 64.3514C222.524 63.5988 222.985 63.3815 224.323 63.3474C226.762 63.2855 227.889 62.8164 227.664 61.9575C227.558 61.552 227.953 60.7896 228.567 60.2124C229.167 59.6481 229.659 59.4125 229.659 59.6882C229.659 59.964 229.947 60.1894 230.299 60.1894C230.651 60.1894 230.939 59.9012 230.939 59.5491C230.939 58.6163 231.592 58.7653 232.341 59.8692C232.865 60.6423 233.1 60.7255 233.545 60.2961C234.327 59.5414 235.112 59.6344 235.341 60.5095C235.521 61.2011 235.54 61.2019 235.585 60.5228C235.617 60.0549 235.867 59.8782 236.275 60.0348C236.674 60.1881 236.916 60.0319 236.916 59.6199C236.916 59.2567 236.721 58.8383 236.482 58.691C235.984 58.3837 236.328 57.6281 236.966 57.6281C237.201 57.6281 237.276 57.8177 237.132 58.049C236.975 58.3043 237.422 58.4063 238.266 58.3081C239.875 58.1207 241.175 58.5331 242.197 59.555C242.87 60.2278 243.011 60.1992 244.451 59.1017C245.422 58.3611 246.556 57.9137 247.534 57.886C248.773 57.8505 249.086 57.6717 249.106 56.9878C249.12 56.5182 249.285 55.606 249.473 54.9602C249.748 54.0146 250.065 53.7862 251.101 53.7862C252.166 53.7862 252.301 53.6817 251.883 53.178C251.47 52.6811 251.675 52.4339 253.005 51.8248C253.899 51.415 254.901 50.872 255.231 50.6184C255.927 50.0848 257.776 49.8902 261.659 49.9418C263.517 49.9666 264.66 50.1958 265.154 50.6436C265.558 51.0094 266.107 51.1746 266.372 51.0103C266.656 50.8348 266.951 51.0811 267.089 51.6088C267.325 52.5133 268.077 52.8706 268.077 52.0787C268.077 51.844 268.366 51.6519 268.718 51.6519C269.07 51.6519 269.358 51.826 269.358 52.0386C269.358 52.2516 269.694 52.3537 270.105 52.2653C270.602 52.1586 271.608 52.9927 273.112 54.76C274.356 56.2199 275.532 57.6742 275.726 57.9914C275.961 58.3764 277.158 58.6065 279.32 58.6825C282.021 58.7773 282.68 58.665 283.273 58.0089C283.665 57.5756 284.139 57.3161 284.326 57.4318C284.513 57.5474 284.787 57.4467 284.935 57.2081C285.082 56.9695 285.722 56.7744 286.355 56.7744C287.059 56.7744 287.724 56.4299 288.06 55.8907C288.424 55.3089 289.005 55.0327 289.764 55.0822C290.397 55.1236 291.107 55.1087 291.342 55.0489C291.577 54.9892 292.131 54.9209 292.574 54.897C293.016 54.8731 293.593 54.4701 293.854 54.0014C294.116 53.5331 294.661 52.6469 295.065 52.0322C295.469 51.4179 295.757 50.8378 295.705 50.7426C295.653 50.6479 295.793 50.7179 296.016 50.8976C296.701 51.4504 297.105 51.2643 297.105 50.3964C297.105 49.9405 297.297 49.4492 297.532 49.3041C297.78 49.1504 297.959 49.576 297.959 50.3209C297.959 51.7804 298.681 52.515 298.889 51.2668C299.015 50.51 299.149 50.4874 300.52 50.9894C301.342 51.2903 302.353 51.68 302.766 51.8551C303.353 52.1039 303.458 52.0169 303.244 51.4606C303.053 50.9629 303.241 50.6765 303.865 50.513C304.358 50.3845 304.867 49.9427 304.998 49.5316C305.285 48.6258 304.861 47.3831 304.264 47.3831C304.014 47.3831 304.055 47.1121 304.362 46.7428C304.962 46.0193 306.069 45.881 306.069 46.5294C306.069 46.7642 306.352 46.9562 306.696 46.9562C307.096 46.9562 307.228 47.2043 307.061 47.6388C306.836 48.2253 306.92 48.2458 307.66 47.784C308.39 47.3281 308.717 47.3865 309.815 48.1686C311.347 49.2592 312.4 49.348 312.758 48.4174C313.07 47.6038 315.073 46.7654 315.425 47.3007C315.562 47.5086 316.202 47.8079 316.848 47.9658C317.735 48.1827 318.022 48.0964 318.022 47.6128C318.022 46.9037 319.839 46.2831 320.578 46.7394C320.836 46.899 321.509 46.7274 322.074 46.3573C322.766 45.904 323.192 45.8336 323.382 46.1418C323.538 46.3932 324.092 46.4914 324.615 46.3599C325.227 46.2062 325.886 46.4201 326.467 46.9614C326.962 47.4233 327.46 47.6529 327.572 47.4711C327.767 47.1565 335.417 47.194 337.658 47.521C338.245 47.6068 338.937 47.7067 339.197 47.7434C339.456 47.7801 340.16 48.242 340.762 48.7705C344.339 51.9101 344.736 52.1377 346.516 52.0651C348.552 51.9818 349.157 52.0126 350.678 52.2768C352.99 52.6789 354.305 53.3666 354.313 54.1785C354.317 54.6511 354.417 54.7002 354.644 54.3425C354.85 54.0189 355.752 53.8896 357.102 53.9899C358.276 54.0774 359.423 54.2042 359.652 54.2716C360.44 54.5038 361.99 53.3286 361.99 52.5005C361.99 52.0446 362.477 51.3522 363.073 50.962C364.102 50.2876 364.204 50.2974 365.126 51.1631C365.659 51.6643 367.045 52.2849 368.205 52.5428C370.596 53.0742 374.433 53.4712 373.622 53.1037C372.997 52.8198 372.899 51.6519 373.501 51.6519C373.933 51.6519 374.697 52.8433 374.733 53.5728C374.758 54.0915 377.357 54.6827 377.357 54.17C377.357 53.9707 377.975 53.931 378.729 54.0821C380.3 54.3963 381.866 55.7998 382.497 57.4595C382.736 58.087 383.037 58.4943 383.167 58.3641C383.297 58.2343 383.18 57.7109 382.907 57.2012C382.634 56.6916 382.487 56.1981 382.58 56.1046C382.674 56.0115 383.574 56.727 384.581 57.6943C385.877 58.9403 386.507 59.2998 386.739 58.9254C386.993 58.5126 387.333 58.5374 388.288 59.0372C389.397 59.6186 389.651 59.6058 391.042 58.8964C392.417 58.1946 392.562 57.9585 392.454 56.5908C392.364 55.4468 392.499 55.0669 392.996 55.0669C393.361 55.0669 393.759 54.6827 393.882 54.2131C394.01 53.7226 394.464 53.3594 394.949 53.3594C395.434 53.3594 395.888 52.9961 396.016 52.5056C396.14 52.0331 396.598 51.6519 397.044 51.6519C397.486 51.6519 397.847 51.4598 397.847 51.225C397.847 50.9902 398.136 50.7981 398.488 50.7981C398.84 50.7981 399.128 51.0922 399.128 51.4517C399.128 52.3289 400.274 52.7221 401.021 52.1018C401.481 51.7202 401.818 51.7249 402.455 52.1227C403.15 52.5568 403.507 52.4856 404.622 51.6911C405.357 51.1678 405.958 50.5403 405.958 50.2957C405.958 50.0366 406.397 49.9623 407.014 50.1168C407.842 50.3247 408.016 50.2423 407.822 49.7361C407.641 49.2644 407.866 49.0906 408.659 49.0906C409.256 49.0906 410.219 49.2712 410.799 49.4915C411.379 49.7117 412.392 49.748 413.051 49.5717C413.937 49.3352 414.073 49.1837 413.574 48.992C413.201 48.849 412.006 48.5989 410.917 48.4354C408.754 48.1109 408.013 47.4869 409.082 46.8888C409.479 46.6664 409.666 46.199 409.529 45.7712C409.358 45.2406 409.403 45.1881 409.687 45.5834C410.209 46.3078 411.507 45.7832 411.507 44.8483C411.507 43.9536 413.695 42.6444 413.946 43.3893C414.131 43.9399 415.776 43.648 415.776 43.0644C415.776 42.8574 416.244 42.6875 416.815 42.6875C417.478 42.6875 417.951 42.3793 418.124 41.8337C418.47 40.7444 419.631 40.7252 419.914 41.8043C420.032 42.2576 420.374 42.5347 420.672 42.4198C420.971 42.3054 421.321 42.4869 421.45 42.8232C421.579 43.1592 422.184 43.4345 422.794 43.4345C423.748 43.4345 423.83 43.3376 423.379 42.7409C423.092 42.3592 422.441 41.6621 421.933 41.1913L421.01 40.3358L422.875 40.2637C424.519 40.2001 424.744 40.3017 424.774 41.1192C424.793 41.6297 424.905 41.806 425.024 41.511C425.174 41.1401 425.471 41.2609 425.991 41.9025C427.044 43.2027 428.155 42.6824 428.159 40.8865C428.162 39.7843 428.407 39.3724 429.311 38.9523C429.943 38.6587 430.619 38.4187 430.812 38.4187C431.006 38.4187 431.386 38.9472 431.655 39.5927L432.146 40.7666L432.392 39.2725C432.627 37.8429 432.73 37.7673 434.772 37.5189C435.946 37.3763 437.05 37.3396 437.227 37.4374C437.403 37.5351 437.547 37.387 437.547 37.1074C437.547 36.7638 438.038 36.6792 439.066 36.8461C440.831 37.1326 441.816 36.8517 441.816 36.0607C441.816 35.7533 442.056 35.405 442.349 35.2863C442.643 35.1681 442.343 35.0558 441.684 35.0375C440.929 35.0161 440.592 34.8304 440.774 34.5359C440.933 34.2785 441.617 34.1491 442.293 34.2486C442.969 34.3476 443.523 34.2704 443.523 34.0762C443.523 33.8819 443.837 33.7231 444.22 33.7231C444.604 33.7231 445.287 33.2971 445.738 32.7763C446.245 32.1919 446.673 31.999 446.855 32.2726C447.018 32.5163 448.016 32.6931 449.072 32.6653C452.287 32.5817 454.388 31.6553 452.808 31.0176C452.381 30.8456 452.381 30.7956 452.808 30.7687C453.101 30.7504 453.341 30.3508 453.341 29.8812C453.341 28.3983 454.846 28.893 456.1 30.7879L457.265 32.5484L457.793 31.535C458.083 30.9775 458.544 30.5698 458.819 30.6283C459.093 30.6872 459.317 30.3636 459.317 29.9099C459.317 29.1637 460.208 28.5609 461.191 28.642C461.399 28.6595 461.724 28.4235 461.913 28.1178C462.161 27.7166 462.374 27.8724 462.682 28.6804C463.232 30.1258 464.233 30.8195 463.8 29.4544C463.571 28.7347 463.631 28.578 464.04 28.8307C464.429 29.071 464.506 28.9613 464.309 28.4474C464.069 27.8241 464.158 27.7943 464.963 28.225C465.657 28.5968 465.934 28.5993 466.056 28.2348C466.145 27.9667 466.61 27.7469 467.089 27.7469C467.814 27.7469 467.871 27.6402 467.428 27.1066C466.808 26.3595 467.144 26.284 468.31 26.9081C468.947 27.2491 469.136 27.2107 469.136 26.7412C469.136 26.0317 470.988 25.4652 472.125 25.8264C472.671 25.9997 472.993 25.8101 473.185 25.2036C473.409 24.4984 473.844 24.3238 475.461 24.2892C477.007 24.2563 477.218 24.1782 476.392 23.9451L475.325 23.6433L476.331 23.3752C476.885 23.228 477.821 23.2907 478.411 23.5153C479.461 23.9144 480.341 23.5648 481.188 22.4109C481.384 22.1454 481.504 22.1821 481.509 22.5091C481.512 22.7977 482.276 23.4218 483.205 23.8965C484.331 24.4706 485.73 24.7587 487.392 24.7587C489.459 24.7587 490.121 24.5658 491.242 23.6369C491.987 23.0197 492.499 22.3572 492.38 22.1642C492.26 21.9713 492.531 21.6169 492.98 21.3766C493.429 21.1359 493.915 20.4661 494.06 19.8877C494.23 19.2089 494.604 18.8568 495.114 18.8952C495.652 18.9357 495.84 19.1991 495.703 19.7225C495.593 20.1447 495.717 20.49 495.979 20.49C496.241 20.49 496.456 20.1058 496.456 19.6362C496.456 19.1667 496.6 18.7663 496.776 18.7471C496.952 18.7274 497.576 18.6297 498.163 18.5294C498.75 18.4295 499.422 18.3193 499.657 18.2843C499.892 18.2498 500.516 18.3607 501.045 18.5306C501.764 18.7624 502.005 18.6719 502.005 18.1708C502.005 17.8028 501.737 17.5019 501.41 17.5019C501.083 17.5019 500.705 17.2137 500.57 16.8616C500.383 16.3754 500.655 16.2178 501.698 16.2076C502.454 16.2003 503.445 15.9122 503.901 15.5673C504.357 15.2228 505.053 14.9406 505.449 14.9406C505.845 14.9406 506.381 14.6854 506.64 14.3733C506.941 14.0113 508.002 13.8205 509.574 13.8465C510.928 13.8692 512.51 13.6506 513.088 13.3612C513.73 13.0398 514.236 12.9932 514.39 13.2421C514.549 13.4991 515.182 13.4939 516.111 13.2276C516.919 12.9958 517.897 12.8062 518.284 12.8062C518.671 12.8062 519.914 13.5725 521.047 14.5086C522.743 15.9101 523.171 16.097 523.467 15.5669C523.666 15.2125 524.012 15.0358 524.236 15.1746C524.46 15.3133 524.541 15.592 524.416 15.7944C523.973 16.5111 525.194 16.7672 525.707 16.0654C526.181 15.4179 526.293 15.4507 526.933 16.427C527.32 17.0182 527.997 17.5019 528.435 17.5019C528.875 17.5019 529.352 17.8101 529.496 18.1866C529.643 18.5699 530.034 18.7659 530.383 18.6314C531.186 18.3236 532.236 19.3771 532.585 20.84C532.974 22.472 533.594 23.1089 534.51 22.8182C535.014 22.6581 535.399 22.8109 535.563 23.2352C535.704 23.6036 536.064 23.905 536.362 23.905C536.66 23.905 537.141 24.191 537.432 24.5406C537.722 24.8902 538.145 25.0614 538.373 24.921C538.6 24.7805 539.335 25.1916 540.006 25.8349C540.677 26.4778 541.498 26.9 541.83 26.7723C542.162 26.6451 542.914 26.9858 543.501 27.53C544.087 28.0739 545.755 28.8235 547.206 29.1953C548.657 29.5671 549.982 29.8509 550.15 29.8258C551.113 29.6819 551.586 29.9525 551.368 30.5216C551.225 30.8951 551.362 31.1619 551.696 31.1619C552.011 31.1619 552.918 31.2857 553.71 31.4368L555.151 31.7117L554.187 30.6582C553.656 30.0785 553.353 29.4744 553.512 29.3152C553.88 28.9468 555.364 30.2684 555.364 30.9647C555.364 31.6063 557.133 32.1253 557.628 31.6297C557.825 31.4329 557.493 30.8831 556.889 30.4084C556.285 29.9333 555.791 29.3323 555.791 29.0727C555.791 28.8132 555.465 28.6006 555.066 28.6006C554.498 28.6006 554.452 28.4884 554.856 28.0841C555.26 27.6803 555.642 27.7268 556.608 28.2975C557.288 28.6992 558.081 29.0275 558.371 29.0275C558.662 29.0275 559.148 29.3639 559.453 29.7745C559.976 30.4797 560.044 30.4738 560.66 29.6678C561.02 29.1982 561.32 29.0403 561.327 29.3173C561.335 29.594 561.651 30.1314 562.032 30.5113C562.669 31.1482 562.786 31.1452 563.526 30.4755C563.967 30.0759 564.329 29.4966 564.329 29.188C564.329 28.8632 564.6 28.7317 564.975 28.8751C565.33 29.0117 565.906 28.8858 566.255 28.5959C566.881 28.0764 566.945 28.1165 567.05 29.0988C567.08 29.3724 567.344 29.6768 567.637 29.7745C567.972 29.8864 568.171 29.5423 568.171 28.8495C568.171 27.6372 569.016 27.2901 569.038 28.4939C569.045 28.905 569.333 29.614 569.678 30.0695C570.291 30.8793 570.305 30.8767 570.305 29.9628C570.305 29.4484 570.434 29.0275 570.591 29.0275C570.749 29.0275 571.241 29.3562 571.685 29.7575C572.328 30.3397 572.561 30.3743 572.837 29.9291C573.245 29.2687 574.787 29.4608 574.787 30.1715C574.787 30.4422 574.917 30.7931 575.074 30.951C575.232 31.1089 575.251 31.9413 575.117 32.8006L574.872 34.3634L575.796 33.5447C576.304 33.0943 576.626 32.422 576.51 32.0506C576.395 31.6792 576.456 31.1277 576.647 30.8251C577.111 30.0853 578.734 30.7252 580.091 32.1838C580.66 32.7955 581.428 33.3022 581.798 33.3099C582.779 33.3295 584.097 34.4445 583.769 34.976C583.612 35.2304 583.982 35.6206 584.605 35.8575C585.22 36.0914 585.6 36.4837 585.448 36.7292C585.296 36.9746 585.416 37.4698 585.715 37.8297C586.014 38.1891 586.656 39.2853 587.143 40.2654C587.739 41.4649 588.351 42.0933 589.016 42.1876C589.821 42.302 591.746 41.6549 593.437 40.7004C593.6 40.609 594.416 41.1345 595.252 41.8688C596.087 42.6026 596.771 42.991 596.771 42.7319C596.771 42.4728 597.071 42.2606 597.437 42.2606C597.803 42.2606 597.99 42.0784 597.852 41.8551C597.714 41.6323 597.991 41.2412 598.467 40.9864C599.127 40.6329 599.336 40.653 599.346 41.0718C599.355 41.4244 599.562 41.3539 599.927 40.8733C600.5 40.1181 601.289 39.8052 600.856 40.5049C600.498 41.085 601.737 41.9161 603.058 41.981C603.741 42.0147 604.873 42.6243 605.736 43.4234C606.674 44.2925 607.504 44.7216 607.966 44.576C608.37 44.4488 609.397 44.6742 610.246 45.0776C611.473 45.6594 611.861 45.6983 612.129 45.2641C612.315 44.9636 612.729 44.8108 613.05 44.9248C613.935 45.2389 615.725 44.1752 616.385 42.9428C616.815 42.1394 617.115 41.9622 617.502 42.2837C617.874 42.5923 618.108 42.5586 618.287 42.1718C618.488 41.736 618.594 41.7322 618.791 42.1539C619.161 42.9466 619.729 42.8006 620.036 41.8337C620.187 41.3565 620.682 40.98 621.157 40.98C621.697 40.98 621.895 40.7982 621.699 40.4806C621.491 40.1442 621.623 40.0708 622.104 40.2552C622.563 40.4315 623.006 40.2287 623.344 39.6874C623.96 38.7013 625.593 38.5075 625.226 39.4642C625.067 39.8778 625.193 40.0042 625.607 39.8454C625.947 39.7147 626.562 39.7544 626.973 39.9337C627.384 40.1126 628.363 40.3154 629.149 40.3845C629.935 40.4537 631.033 40.808 631.588 41.1721C632.144 41.5358 632.942 41.8346 633.361 41.8359C633.78 41.8367 634.699 42.3755 635.403 43.0328C637.041 44.5615 637.717 44.8014 639.022 44.3169C639.892 43.9937 639.967 43.8499 639.448 43.5037C638.977 43.1887 639.141 43.1135 640.099 43.2053C640.903 43.2821 641.335 43.5413 641.26 43.9011C641.169 44.3348 641.551 44.4172 642.823 44.2392C644.008 44.0736 644.659 44.188 645.023 44.6264C645.307 44.9687 645.804 45.2487 646.127 45.2487C646.451 45.2487 646.716 45.5753 646.716 45.9744C646.716 46.9025 647.37 46.2323 647.777 44.8863C648.038 44.0258 647.961 43.9216 647.238 44.1513C646.62 44.3476 646.334 44.1875 646.168 43.5532C645.96 42.7567 646.141 42.6875 648.432 42.6875C650.07 42.6875 651.141 42.9052 651.559 43.3235C652.186 43.9506 653.851 43.954 655.36 43.3312C655.771 43.1618 656.443 43.1626 656.854 43.3334C658.188 43.8874 660.008 43.7705 660.731 43.0841C661.439 42.4109 661.695 42.4258 665.675 43.3718C666.747 43.6266 666.879 43.5634 666.629 42.9125C666.402 42.3208 666.515 42.2034 667.152 42.3703C667.599 42.4873 668.226 42.4173 668.546 42.2149C668.997 41.9289 668.957 41.8453 668.365 41.8402C667.735 41.835 667.682 41.6852 668.059 40.98C668.311 40.5104 668.722 40.1262 668.973 40.1262C669.224 40.1262 670.379 40.6031 671.54 41.1862C672.7 41.7693 673.534 42.0574 673.391 41.8265C673.088 41.3364 673.744 41.257 674.214 41.727C674.389 41.9033 674.662 42.06 674.818 42.0754C675.496 42.1424 678.304 43.7312 678.304 44.0471C678.304 44.2383 678.593 44.395 678.945 44.395C679.297 44.395 679.588 44.1551 679.591 43.8614C679.596 43.5058 679.736 43.5412 680.012 43.9681C680.288 44.395 680.428 44.4304 680.432 44.0748C680.437 43.6885 681.482 43.5412 684.215 43.5412C686.826 43.5412 688.415 43.3299 689.364 42.8565C690.119 42.4796 690.85 42.2845 690.988 42.4228C691.126 42.5611 691.502 42.3409 691.822 41.9336C692.142 41.5268 692.353 41.3855 692.291 41.6203C692.167 42.0869 692.481 42.2606 693.445 42.2606C693.833 42.2606 693.976 42.0109 693.821 41.6062C693.604 41.0423 693.729 41.0244 694.719 41.4752C695.506 41.8342 695.959 41.8581 696.157 41.5516C696.316 41.3053 697.071 41.0893 697.834 41.0705C698.932 41.044 699.221 41.2088 699.221 41.8624C699.221 42.4788 699.52 42.6875 700.401 42.6875C701.571 42.6875 701.733 42.8595 703.043 45.4951C703.9 47.2205 703.86 47.1974 704.5 46.3223C705.195 45.3713 706.459 45.7234 706.782 46.9584C706.905 47.4267 707.144 47.81 707.316 47.81C707.486 47.81 707.968 47.4318 708.387 46.9699C708.996 46.2963 709.317 46.2212 710.005 46.5896C710.477 46.8423 711.514 46.9434 712.309 46.8145C713.162 46.6762 713.652 46.7445 713.506 46.9814C713.37 47.2026 713.45 47.3831 713.685 47.3831C713.92 47.3831 714.041 47.7562 713.953 48.2121C713.849 48.7542 713.984 48.9681 714.344 48.8302C714.666 48.7069 715.116 49.1572 715.431 49.9166C715.727 50.6304 716.151 51.1012 716.374 50.9633C716.598 50.825 716.89 51.1307 717.024 51.6416C717.157 52.153 717.706 52.7383 718.243 52.9423C718.789 53.1498 719.281 53.7465 719.358 54.2968C719.471 55.0933 719.721 55.2543 720.672 55.1429C721.513 55.0447 721.846 55.1962 721.846 55.6764C721.846 56.6173 722.581 56.5123 723.126 55.4937C723.733 54.3595 724.657 54.4108 725.057 55.6005C725.369 56.5268 725.387 56.5191 725.563 55.387C725.768 54.059 726.541 53.7786 726.541 55.0319C726.541 56.1473 726.978 57.2012 727.441 57.2012C727.65 57.2012 727.822 56.721 727.822 56.1341C727.822 55.5471 728.014 55.0669 728.249 55.0669C728.484 55.0669 728.676 55.349 728.676 55.694C728.676 56.0747 728.926 56.2246 729.313 56.076C729.664 55.9411 729.845 55.6594 729.715 55.4489C729.311 54.7954 732.275 55.0306 733.276 55.7315C733.798 56.0969 734.225 56.8333 734.225 57.3677C734.225 58.6731 734.6 58.9664 735.591 58.4362C736.262 58.0768 736.615 58.2061 737.463 59.1209C738.037 59.7412 738.397 60.4271 738.262 60.6457C738.127 60.8643 738.322 61.0431 738.695 61.0431C739.069 61.0431 739.485 60.7563 739.619 60.4054C739.754 60.0545 740.024 59.8662 740.22 59.9875C740.416 60.1083 740.743 59.9081 740.948 59.5418C741.256 58.9911 741.424 59.0816 741.921 60.0664C742.251 60.7213 742.577 61.3385 742.646 61.4388C742.715 61.5392 743.031 61.266 743.349 60.8318C743.905 60.0703 743.953 60.0745 744.706 60.9543C745.291 61.6378 745.627 61.7496 746.046 61.4021C746.353 61.1473 746.604 60.6739 746.604 60.3507C746.604 59.3403 747.456 59.7074 747.964 60.9364C748.231 61.5818 748.412 62.2747 748.366 62.4753C748.32 62.6763 748.525 63.134 748.823 63.4925C749.295 64.0616 749.394 64.0176 749.6 63.1463C749.791 62.3383 750.151 62.1282 751.491 62.0424C752.401 61.984 753.282 61.7154 753.449 61.4457C753.672 61.0854 753.985 61.079 754.626 61.4226C755.283 61.7739 755.544 61.7594 755.675 61.3637C755.802 60.9838 756.049 61.0354 756.563 61.5498C756.956 61.9421 757.276 62.5585 757.276 62.9201C757.276 63.3124 757.52 63.484 757.882 63.3453C758.618 63.0627 760.779 64.3984 760.449 64.9315C760.32 65.1407 760.418 65.3119 760.666 65.3119C760.915 65.3119 761.118 65.1198 761.118 64.885C761.118 64.6502 761.331 64.4581 761.591 64.4581C761.851 64.4581 761.96 64.7275 761.834 65.0562C761.695 65.4177 761.947 65.7443 762.471 65.8813C762.948 66.006 763.212 66.3133 763.057 66.5639C762.89 66.8337 763.156 67.0194 763.711 67.0194C764.225 67.0194 765.016 67.4454 765.468 67.9662C766.159 68.7627 766.352 68.8135 766.685 68.2863C766.903 67.9419 767.087 67.8518 767.094 68.0866C767.102 68.3213 767.294 68.2253 767.521 67.8731C767.787 67.4625 767.937 67.4206 767.942 67.7566C767.949 68.3444 770.736 69.8022 772.662 70.2248C773.498 70.4088 773.924 70.3341 773.924 70.0041C773.924 69.6592 774.45 69.5943 775.633 69.7941C777.048 70.0331 777.299 69.9729 777.096 69.4436C776.938 69.0304 777.187 68.6974 777.8 68.5028C779.243 68.0447 782.022 68.1847 782.703 68.7495C783.098 69.0778 784.012 69.1525 785.339 68.9651C786.457 68.8071 787.707 68.58 788.118 68.4605C788.587 68.3235 788.865 68.4737 788.865 68.8643C788.865 69.2063 789.259 69.9396 789.739 70.4937L790.613 71.5016L790.346 70.1142C790.119 68.939 790.203 68.7269 790.894 68.7269C791.343 68.7269 791.855 68.8712 792.031 69.047C792.207 69.2233 792.558 69.3672 792.811 69.3672C793.064 69.3672 793.48 69.9776 793.736 70.7238C794.425 72.7335 795 73.0353 794.671 71.2147C794.339 69.3757 794.958 68.741 796.087 69.7625C796.512 70.1475 797.164 70.3353 797.554 70.1855C797.94 70.0374 798.592 70.0626 799.003 70.2419C799.414 70.4207 800.397 70.6239 801.188 70.6931C801.978 70.7626 802.938 71.0875 803.322 71.4158C804.215 72.1803 805.646 72.7028 805.297 72.1372C804.773 71.2898 805.665 71.7504 807.382 73.2142C810.987 76.2868 811.17 76.4 812.132 76.1583C812.766 75.9991 813.167 76.1451 813.342 76.5989C813.567 77.1858 815.312 78.1877 816.298 78.2957C816.477 78.3153 816.916 78.8942 817.273 79.5823C817.63 80.27 818.299 81.0973 818.761 81.4204C819.222 81.744 819.6 82.2729 819.6 82.5956C819.6 83.4144 821.219 83.8451 821.966 83.2257C822.306 82.9435 822.989 82.8193 823.485 82.9486C823.981 83.0784 824.822 83.0191 825.354 82.8167C825.951 82.5901 826.491 82.6182 826.763 82.8906C827.066 83.1941 827.183 83.0963 827.137 82.576C827.042 81.496 829.338 80.2785 831.634 80.1919C833.104 80.136 833.82 80.343 834.567 81.0392C835.11 81.5455 835.69 81.96 835.855 81.96C836.021 81.96 836.27 82.4176 836.411 82.9772C836.551 83.5369 837.242 84.6109 837.945 85.3639C838.648 86.1169 839.419 87.436 839.656 88.2953C840.202 90.2725 842.145 91.7047 843.925 91.4435C844.628 91.3402 845.099 91.0849 844.97 90.8766C844.617 90.3054 845.498 90.4215 846.143 91.0311C846.78 91.6343 848.987 92.532 851.144 93.0656C851.942 93.2624 852.755 93.6777 852.952 93.9885C853.149 94.2988 853.313 94.3509 853.317 94.1046C853.32 93.8579 853.114 93.4476 852.859 93.1924C852.525 92.8581 852.525 92.6481 852.859 92.4415C853.114 92.2835 853.323 92.3399 853.323 92.5666C853.323 92.7932 853.688 92.8833 854.133 92.7668C854.579 92.6507 855.35 92.7727 855.847 93.0387C857.234 93.781 856.802 92.5982 855.351 91.6799C854.705 91.271 854.177 90.7677 854.177 90.5611C854.177 90.3485 854.965 90.3378 855.991 90.5363C856.989 90.7293 857.972 90.8953 858.175 90.9056C858.379 90.9158 858.449 91.294 858.33 91.7461C858.168 92.3672 858.286 92.5072 858.814 92.3203C859.198 92.1841 859.736 91.9011 860.008 91.6915C860.28 91.4819 861.433 91.42 862.569 91.554C865.086 91.8511 866.129 92.1559 866.129 92.5947C866.129 93.1497 869.769 92.0411 870.567 91.2437C871.347 90.4638 872.336 90.2072 871.911 90.8949C871.775 91.1135 871.84 91.4003 872.054 91.5327C872.268 91.665 872.553 91.4861 872.688 91.1353C872.822 90.7844 873.24 90.4975 873.617 90.4975C873.993 90.4975 874.589 90.2094 874.941 89.8572C875.696 89.1029 876.374 89.0231 876.374 89.6894C876.374 89.9554 876.686 90.0424 877.087 89.8883C877.48 89.7381 877.912 89.7859 878.048 89.9946C878.184 90.2034 879.064 90.5052 880.003 90.6653C881.225 90.8732 881.528 90.8322 881.07 90.5197C880.543 90.1611 880.597 90.0826 881.375 90.077C881.895 90.0736 882.529 90.4604 882.784 90.9363C883.039 91.4123 883.43 91.6893 883.653 91.5515C883.876 91.4136 884.058 91.5903 884.058 91.9442C884.058 92.5836 885.829 94.7662 886.348 94.7662C886.497 94.7662 886.619 94.3936 886.619 93.9377C886.619 93.4818 886.782 93.0088 886.98 92.8867C887.631 92.4833 890.461 93.507 890.461 94.146C890.461 94.8602 891.98 94.9904 892.399 94.3125C892.553 94.0628 892.324 93.4574 891.89 92.9665C891.104 92.0778 891.107 92.0757 892.596 92.3856C893.417 92.5563 894.282 92.7352 894.517 92.783C894.751 92.8304 895.149 92.9977 895.4 93.1548C895.651 93.3119 896.593 93.349 897.494 93.2372C898.751 93.0814 899.35 93.2397 900.074 93.9198C900.592 94.4068 901.186 94.7735 901.395 94.7351C902.434 94.543 903.267 94.8307 903.267 95.3814C903.267 96.2279 904.087 96.6582 905.496 96.5506C906.215 96.4959 906.684 96.6731 906.686 97.0005C906.688 97.2976 907.168 97.7629 907.753 98.0344C908.636 98.4438 908.817 98.4177 908.817 97.8816C908.817 97.4235 909.098 97.3053 909.781 97.4769C910.311 97.6101 911.032 97.5375 911.382 97.3164C911.807 97.0475 911.841 96.9117 911.485 96.907C911.192 96.9036 910.951 96.6125 910.951 96.2603C910.951 95.4053 911.983 95.4458 912.713 96.3299C913.21 96.9318 913.209 97.0697 912.705 97.2391C912.342 97.3612 912.674 97.6835 913.559 98.0681C914.869 98.6376 914.925 98.7302 914.153 99.0495C913.341 99.3846 913.346 99.4034 914.26 99.432C915.065 99.4572 915.22 99.2378 915.22 98.0724C915.22 96.8421 915.402 96.6257 916.807 96.186C917.99 95.8155 918.615 95.8121 919.261 96.1711C919.738 96.4362 920.346 96.6095 920.611 96.5566C920.876 96.5032 921.187 96.8182 921.301 97.2558C921.425 97.7296 922.047 98.159 922.836 98.317C923.847 98.5193 924.317 98.9526 924.814 100.141C925.357 101.441 925.57 101.614 926.093 101.179C926.594 100.763 926.852 100.788 927.366 101.302C927.721 101.657 928.246 102.025 928.533 102.121C928.938 102.256 928.925 102.831 928.471 104.722C928.151 106.058 928.006 107.268 928.15 107.412C928.294 107.555 928.538 107.17 928.692 106.556C928.986 105.385 930.161 104.987 930.161 106.058C930.161 107.249 931.113 108.789 931.708 108.56C932.031 108.436 932.295 108.547 932.295 108.807C932.295 109.067 932.57 109.28 932.907 109.28C933.243 109.28 933.655 109.712 933.822 110.239C934.158 111.297 935.304 112.306 935.813 111.991C935.992 111.881 936.323 112.274 936.547 112.866C937.026 114.125 938.746 115.952 939.284 115.772C939.489 115.704 939.556 115.91 939.433 116.23C939.311 116.55 939.552 117.025 939.969 117.286C940.925 117.883 942.504 121.104 942.832 123.129C942.969 123.976 943.243 124.767 943.439 124.889C943.636 125.01 944.25 124.813 944.803 124.45C945.926 123.714 946.382 123.939 946.382 125.231C946.382 125.906 946.496 125.985 946.894 125.587C947.176 125.305 947.944 125.074 948.602 125.074C949.259 125.074 949.797 124.915 949.797 124.72C949.797 124.322 951.601 124.295 951.931 124.688C952.049 124.828 952.861 125.056 953.738 125.194C955.35 125.448 956.358 124.846 955.355 124.226C954.535 123.719 955.62 123.236 956.874 123.55C957.67 123.751 958.208 123.529 959.09 122.637C959.731 121.989 960.351 121.44 960.469 121.416C960.586 121.393 961.223 121.151 961.884 120.876C963.689 120.129 965.961 120.272 967.152 121.209C967.732 121.665 968.483 121.933 968.82 121.803C969.185 121.663 969.433 121.827 969.433 122.209C969.433 122.639 969.965 122.901 971.051 123.004C971.94 123.089 972.996 123.095 973.398 123.018C974.056 122.891 974.063 122.813 973.467 122.218C972.606 121.356 972.895 121.112 974.174 121.623C974.736 121.848 975.022 122.044 974.81 122.059C973.947 122.12 976.02 123.764 977.268 124.01C979.167 124.383 981.118 125.161 981.486 125.69C981.672 125.958 981.802 125.838 981.806 125.395C981.816 124.328 982.466 124.471 983.482 125.763C984.594 127.178 985.654 126.848 985.654 125.088C985.654 124.137 985.853 123.795 986.401 123.8C986.889 123.804 986.976 123.917 986.651 124.123C985.906 124.598 987.133 126.107 987.995 125.777C988.454 125.6 988.798 125.856 989.072 126.577C989.655 128.108 990.484 127.936 990.137 126.355C989.982 125.651 990.014 125.076 990.21 125.077C990.404 125.079 991.082 125.35 991.716 125.681C992.719 126.204 992.937 126.198 993.406 125.634C993.701 125.277 994.384 124.818 994.921 124.614C995.459 124.409 995.899 123.928 995.899 123.545C995.899 123.108 996.133 122.938 996.526 123.089C996.871 123.221 997.266 123.146 997.405 122.921C997.544 122.697 997.443 122.513 997.18 122.513C996.917 122.513 996.82 122.323 996.964 122.091C997.116 121.845 997.61 122.027 998.148 122.528C998.656 123.001 999.294 123.302 999.568 123.197C999.841 123.092 1000.27 123.216 1000.53 123.471C1001.17 124.114 1003.88 124.338 1004.77 123.82C1005.19 123.578 1005.27 123.387 1004.97 123.38C1004.36 123.365 1004.23 121.659 1004.84 121.659C1005.07 121.659 1005.45 121.996 1005.7 122.406C1006.1 123.086 1006.19 123.092 1006.68 122.473C1006.97 122.099 1007.93 121.658 1008.81 121.493C1010.29 121.217 1010.67 120.737 1010.46 119.418C1010.37 118.83 1012.01 119.09 1012.56 119.75C1013.03 120.322 1013.16 120.283 1013.58 119.43C1013.85 118.895 1014.51 118.393 1015.06 118.315C1015.61 118.236 1016.16 117.806 1016.27 117.359C1016.39 116.912 1016.64 116.641 1016.83 116.756C1017.41 117.118 1018.58 116.453 1018.36 115.883C1018.25 115.584 1018.42 114.984 1018.75 114.551C1019.08 114.113 1019.36 113.994 1019.36 114.283C1019.37 114.569 1019.67 114.691 1020.02 114.555C1020.38 114.419 1021.32 114.809 1022.13 115.422C1022.93 116.035 1023.78 116.537 1024 116.537C1024.23 116.537 1024.32 116.153 1024.2 115.683C1024.04 115.089 1024.18 114.829 1024.66 114.829C1025.04 114.829 1025.37 115.166 1025.38 115.576C1025.41 116.23 1025.45 116.22 1025.74 115.501C1026.02 114.765 1026.09 114.754 1026.33 115.394C1026.48 115.788 1026.98 116.11 1027.43 116.11C1028.05 116.11 1028.21 115.893 1028.04 115.263C1027.92 114.797 1027.94 114.09 1028.1 113.691C1028.33 113.076 1028.57 113.177 1029.65 114.369C1030.62 115.421 1030.82 115.909 1030.47 116.326C1030.14 116.73 1030.16 116.933 1030.57 117.073C1030.87 117.179 1031.37 116.861 1031.68 116.367C1032.15 115.62 1032.2 115.605 1031.99 116.277C1031.77 116.965 1031.83 117.003 1032.4 116.536C1032.76 116.235 1033.18 116.11 1033.33 116.259C1033.48 116.408 1033.87 116.303 1034.2 116.027C1034.68 115.637 1034.89 115.658 1035.18 116.125C1035.49 116.627 1035.6 116.612 1035.82 116.032C1036.05 115.419 1036.22 115.408 1037.23 115.935C1038.3 116.495 1038.38 116.472 1038.52 115.575C1038.74 114.047 1039.29 113.82 1040.29 114.829C1040.98 115.512 1041.36 115.64 1041.7 115.299C1042.29 114.712 1043 114.68 1042.64 115.256C1042.5 115.491 1042.79 115.683 1043.28 115.683C1043.86 115.683 1044.08 115.505 1043.88 115.184C1043.66 114.831 1043.81 114.785 1044.39 115.027C1044.84 115.216 1046.24 115.561 1047.52 115.795C1049.51 116.162 1049.9 116.121 1050.36 115.495C1050.85 114.823 1050.91 114.832 1051.16 115.607C1051.45 116.521 1053.5 117.136 1054.15 116.504C1054.81 115.864 1055.13 116.043 1055.42 117.219C1055.65 118.142 1055.87 118.284 1056.75 118.064C1057.4 117.9 1057.8 117.984 1057.8 118.288C1057.8 118.649 1057.95 118.646 1058.4 118.279C1058.85 117.9 1059.03 117.903 1059.16 118.292C1059.28 118.65 1059.7 118.563 1060.56 117.999C1061.45 117.418 1061.83 117.34 1061.96 117.72C1062.06 118.008 1062.32 118.244 1062.55 118.244C1062.78 118.244 1062.86 118.066 1062.72 117.847C1062.34 117.232 1063.19 116.909 1064.39 117.21C1064.99 117.36 1065.48 117.763 1065.48 118.106C1065.48 118.554 1065.75 118.646 1066.44 118.436C1066.97 118.275 1067.76 117.832 1068.19 117.45C1068.92 116.805 1069.03 116.829 1069.83 117.808C1070.57 118.722 1070.73 118.77 1071.06 118.174C1071.31 117.719 1071.91 117.529 1072.84 117.607C1073.6 117.671 1074.23 117.767 1074.23 117.819C1074.23 117.872 1074.79 117.98 1075.47 118.06C1076.16 118.139 1076.83 118.361 1076.97 118.553C1077.11 118.744 1078.47 118.962 1079.99 119.037C1082.24 119.147 1082.98 119.372 1083.88 120.223C1084.69 120.983 1085.51 121.288 1086.87 121.326C1087.9 121.355 1088.99 121.562 1089.28 121.785C1089.57 122.008 1089.81 122.022 1089.81 121.816C1089.81 121.28 1092.27 120.264 1092.79 120.585C1093.58 121.075 1094.93 121.19 1094.93 120.768C1094.93 120.539 1095.26 120.228 1095.65 120.078C1096.04 119.927 1096.73 119.436 1097.18 118.987C1097.72 118.442 1098.33 118.253 1098.99 118.42C1099.54 118.557 1100.05 118.466 1100.14 118.218C1100.23 117.925 1100.72 117.989 1101.51 118.401C1102.68 119.006 1102.82 118.972 1104.59 117.68C1105.62 116.934 1106.57 115.909 1106.71 115.401C1106.86 114.826 1107.71 114.156 1108.95 113.618C1110.77 112.829 1111.01 112.813 1111.69 113.432C1112.1 113.804 1112.44 113.944 1112.44 113.743C1112.44 113.542 1112.64 113.585 1112.9 113.838C1113.22 114.166 1113.65 114.008 1114.37 113.283C1115.57 112.08 1116.51 111.988 1117.08 113.015C1117.54 113.833 1117.45 113.944 1118.2 111.58C1118.35 111.127 1118.23 110.968 1117.85 111.114C1117.1 111.402 1116.09 110.779 1116.43 110.235C1116.79 109.653 1118.84 109.703 1118.84 110.294C1118.84 110.608 1119.99 110.774 1122.15 110.774C1125.09 110.774 1125.54 110.883 1126.25 111.761C1126.69 112.303 1127.31 112.648 1127.63 112.526C1127.94 112.405 1128.3 112.463 1128.42 112.657C1128.54 112.85 1129.12 112.914 1129.72 112.801C1130.31 112.687 1131.08 112.831 1131.43 113.12C1131.94 113.543 1132.11 113.515 1132.32 112.975C1132.51 112.485 1132.94 112.368 1133.93 112.542C1136.27 112.955 1142.3 114.887 1142.56 115.311C1142.7 115.535 1143.19 115.598 1143.65 115.452C1144.14 115.299 1144.96 115.491 1145.59 115.901C1146.32 116.385 1146.82 116.476 1147.11 116.183C1147.35 115.945 1147.78 115.842 1148.08 115.954C1148.37 116.066 1148.71 115.771 1148.83 115.296C1149 114.658 1149.32 114.485 1150.06 114.63C1150.62 114.738 1151.69 114.944 1152.46 115.088C1153.22 115.233 1153.84 115.522 1153.84 115.731C1153.84 115.939 1154.05 116.11 1154.3 116.11C1154.54 116.11 1154.63 115.92 1154.49 115.688C1154.34 115.446 1154.51 115.374 1154.89 115.52C1155.25 115.66 1155.55 115.575 1155.55 115.331C1155.55 115.087 1155.95 114.761 1156.44 114.606C1157 114.426 1157.62 114.596 1158.15 115.077C1158.94 115.795 1159.01 115.792 1159.59 115.008C1160.18 114.201 1160.2 114.201 1160.8 115.01C1161.4 115.814 1161.43 115.812 1162.2 114.903C1163.13 113.823 1163.9 113.713 1164.24 114.611C1164.45 115.149 1164.72 115.109 1165.99 114.355C1166.83 113.859 1167.5 113.672 1167.5 113.933C1167.5 114.757 1168.68 114.436 1168.91 113.549C1169.19 112.484 1169.83 112.462 1170.85 113.485C1171.57 114.201 1171.69 114.21 1172.12 113.591C1172.54 112.981 1172.68 113.011 1173.43 113.871C1173.95 114.476 1174.32 114.645 1174.43 114.325C1174.55 113.962 1174.9 114.022 1175.63 114.536C1176.91 115.431 1177.22 115.438 1177.4 114.575C1177.53 113.908 1180.25 112.714 1181.66 112.701C1182.05 112.698 1183.35 113.184 1184.54 113.781C1187.23 115.132 1190.61 115.596 1192.08 114.814C1193 114.321 1193.36 114.365 1194.94 115.17C1196.4 115.914 1196.77 115.974 1196.88 115.484C1196.95 115.15 1197.29 114.983 1197.62 115.112C1197.96 115.242 1198.24 115.135 1198.24 114.875C1198.24 114.615 1197.95 114.379 1197.6 114.349C1197.25 114.32 1196.72 114.272 1196.42 114.242C1195.8 114.18 1195.42 112.268 1196.03 112.268C1196.25 112.268 1196.55 112.556 1196.69 112.908C1197.02 113.777 1197.71 113.717 1197.93 112.802C1198.08 112.187 1198.18 112.241 1198.54 113.107C1198.96 114.148 1198.97 114.143 1199.49 112.573C1199.78 111.701 1200.27 110.987 1200.59 110.987C1200.92 110.987 1201.49 111.419 1201.87 111.948L1202.55 112.908L1202.29 111.806C1202.05 110.802 1202.14 110.703 1203.33 110.703C1204.05 110.703 1204.64 110.815 1204.65 110.952C1204.65 111.089 1204.84 111.488 1205.06 111.839C1205.4 112.387 1205.55 112.359 1206.07 111.642C1206.58 110.943 1206.79 110.897 1207.35 111.359C1208.14 112.017 1209.76 111.613 1209.76 110.759C1209.76 110.369 1210.02 110.256 1210.51 110.436C1210.92 110.588 1211.36 110.855 1211.48 111.031C1211.6 111.206 1212.75 111.104 1214.05 110.803C1215.5 110.465 1216.78 110.396 1217.39 110.623C1217.93 110.824 1218.53 110.897 1218.71 110.785C1218.89 110.672 1219.37 110.947 1219.78 111.393C1220.42 112.109 1220.96 112.181 1224.32 112.001C1227.06 111.854 1228.12 111.936 1228.12 112.298C1228.12 112.68 1228.27 112.678 1228.73 112.293C1229.22 111.887 1229.44 111.962 1229.81 112.667C1230.15 113.302 1230.7 113.549 1231.79 113.549C1232.62 113.549 1233.68 113.754 1234.15 114.005C1234.76 114.33 1235.16 114.329 1235.56 114C1235.97 113.662 1236.25 113.702 1236.63 114.153C1236.97 114.572 1237.61 114.691 1238.62 114.526C1239.79 114.337 1240.33 114.493 1241.14 115.252C1242.69 116.709 1245.86 116.503 1247.25 114.856C1247.67 114.356 1247.86 114.322 1248.03 114.723C1248.15 115.016 1248.61 115.256 1249.05 115.256C1249.48 115.256 1249.96 115.448 1250.1 115.683C1250.25 115.918 1250.9 116.11 1251.55 116.11C1252.38 116.11 1252.91 116.433 1253.3 117.177C1253.95 118.387 1254.91 118.575 1255.3 117.568C1255.48 117.102 1255.65 117.044 1255.86 117.381C1256.03 117.649 1256.97 117.88 1257.97 117.894C1258.96 117.908 1259.86 118.147 1259.97 118.425C1260.08 118.706 1260.78 118.883 1261.54 118.822C1263.19 118.689 1265.13 119.524 1266.47 120.946C1267.28 121.81 1267.74 121.958 1269.08 121.779C1270.04 121.65 1270.82 121.756 1270.99 122.038C1271.15 122.299 1271.73 122.513 1272.27 122.513C1272.82 122.513 1273.5 122.801 1273.79 123.153C1274.09 123.506 1274.79 123.794 1275.35 123.794C1275.92 123.794 1276.49 124.082 1276.63 124.434C1276.96 125.307 1279.51 125.263 1280.25 124.373C1280.77 123.748 1280.73 123.705 1279.87 123.974C1279.05 124.235 1278.92 124.123 1278.92 123.182C1278.92 122.579 1279.08 122.086 1279.27 122.086C1279.46 122.086 1280.04 122.566 1280.55 123.153C1281.06 123.74 1281.32 124.221 1281.14 124.221C1280.61 124.221 1279.29 126.7 1279.69 126.948C1279.9 127.072 1280.52 126.845 1281.09 126.444C1281.66 126.043 1282.85 125.703 1283.75 125.688C1284.65 125.673 1285.55 125.397 1285.75 125.072C1286.05 124.583 1286.63 124.655 1289.13 125.491C1290.79 126.046 1292.15 126.656 1292.15 126.848C1292.15 127.039 1293.08 126.83 1294.22 126.382C1295.94 125.701 1296.76 125.626 1299.17 125.925C1301.14 126.169 1302.35 126.563 1303 127.172C1303.52 127.662 1304.23 128.062 1304.59 128.062C1304.94 128.062 1305.69 127.582 1306.24 126.995C1307.27 125.897 1308.55 125.602 1309.01 126.355C1309.16 126.59 1309.95 126.782 1310.77 126.782C1311.59 126.782 1313.31 127.275 1314.58 127.878C1317.06 129.047 1319.25 129.134 1319.26 128.062C1319.26 127.637 1319.69 127.422 1320.54 127.42C1321.24 127.42 1322.07 127.257 1322.38 127.06C1322.94 126.695 1325.59 126.445 1331.57 126.192C1334.62 126.063 1335.12 126.163 1337.33 127.35C1338.66 128.065 1340 128.998 1340.31 129.423C1341.04 130.442 1342.19 130.406 1342.85 129.343C1343.14 128.874 1343.77 128.489 1344.24 128.489C1344.71 128.489 1345.5 128.249 1346 127.956C1346.72 127.529 1346.94 127.529 1347.1 127.956C1347.37 128.704 1349.18 128.62 1350.43 127.803C1351.41 127.162 1351.6 127.175 1353.26 127.995C1354.53 128.626 1355.25 128.76 1355.79 128.469C1356.28 128.209 1356.96 128.216 1357.67 128.487C1358.29 128.721 1359.4 128.91 1360.15 128.907C1360.9 128.904 1362.26 128.897 1363.16 128.893C1364.07 128.888 1365.07 129.107 1365.4 129.379C1365.91 129.803 1366 120.515 1366 64.9371V0H683H0L0.00640312 40.0195ZM521.686 12.4152C522.601 13.1392 523.349 14.0036 523.349 14.3362C523.349 14.6687 523.197 14.9406 523.011 14.9406C522.407 14.9406 519.061 11.6866 519.359 11.3886C519.519 11.2294 519.734 11.0987 519.837 11.0987C519.94 11.0987 520.772 11.6913 521.686 12.4152ZM528.471 16.4347C528.471 16.7869 528.311 17.075 528.116 17.075C527.92 17.075 527.76 16.7869 527.76 16.4347C527.76 16.0825 527.92 15.7944 528.116 15.7944C528.311 15.7944 528.471 16.0825 528.471 16.4347ZM495.887 18.2135C495.73 18.3697 495.602 18.2416 495.602 17.9287C495.602 17.6159 495.73 17.4878 495.887 17.644C496.043 17.8007 496.043 18.0568 495.887 18.2135ZM483.934 19.4941C483.777 19.6503 483.649 19.5223 483.649 19.2094C483.649 18.8965 483.777 18.7684 483.934 18.9246C484.09 19.0813 484.09 19.3374 483.934 19.4941ZM484.525 20.849C485.725 21.8206 485.005 22.4156 483.719 21.5154C482.782 20.8584 482.484 20.0631 483.175 20.0631C483.384 20.0631 483.991 20.4166 484.525 20.849ZM487.393 20.5967C487.631 20.8904 487.902 21.5145 487.995 21.9841C488.091 22.4754 488.449 22.79 488.837 22.7255C489.208 22.6636 489.753 22.904 490.048 23.2591C490.507 23.8128 490.391 23.905 489.232 23.905C487.665 23.905 485.784 22.2854 485.784 20.9361C485.784 19.9671 486.721 19.7694 487.393 20.5967ZM474.543 21.6285C474.386 21.7847 474.13 21.7847 473.973 21.6285C473.817 21.4718 473.945 21.3437 474.258 21.3437C474.571 21.3437 474.699 21.4718 474.543 21.6285ZM477.358 22.0267C477.194 22.6504 475.539 22.5612 475.539 21.9286C475.539 21.5687 475.903 21.4048 476.499 21.4957C477.027 21.5764 477.414 21.815 477.358 22.0267ZM470.203 23.4781C470.058 23.7129 469.758 23.905 469.537 23.905C469.316 23.905 469.136 23.7129 469.136 23.4781C469.136 23.2433 469.435 23.0512 469.801 23.0512C470.167 23.0512 470.348 23.2433 470.203 23.4781ZM486.068 23.7629C485.912 23.9191 485.656 23.9191 485.499 23.7629C485.343 23.6062 485.471 23.4781 485.784 23.4781C486.097 23.4781 486.225 23.6062 486.068 23.7629ZM547.681 23.905C547.681 24.1398 547.489 24.3319 547.254 24.3319C547.019 24.3319 546.827 24.1398 546.827 23.905C546.827 23.6702 547.019 23.4781 547.254 23.4781C547.489 23.4781 547.681 23.6702 547.681 23.905ZM548.961 24.7587C548.961 24.9935 548.769 25.1856 548.534 25.1856C548.3 25.1856 548.107 24.9935 548.107 24.7587C548.107 24.524 548.3 24.3319 548.534 24.3319C548.769 24.3319 548.961 24.524 548.961 24.7587ZM452.701 28.1737C452.846 28.4085 452.761 28.6006 452.513 28.6006C452.264 28.6006 452.061 28.4085 452.061 28.1737C452.061 27.939 452.145 27.7469 452.249 27.7469C452.353 27.7469 452.556 27.939 452.701 28.1737ZM550.533 28.6809C550.397 29.0211 550.296 28.9199 550.276 28.4226C550.257 27.9727 550.358 27.7208 550.5 27.8626C550.641 28.0043 550.657 28.3727 550.533 28.6809ZM556.858 29.4544C557.004 29.6892 557.207 29.8812 557.31 29.8812C557.414 29.8812 557.499 29.6892 557.499 29.4544C557.499 29.2196 557.295 29.0275 557.047 29.0275C556.798 29.0275 556.713 29.2196 556.858 29.4544ZM451.892 31.4731C451.458 31.9072 451.1 31.2537 451.456 30.6778C451.725 30.2424 451.825 30.2424 451.97 30.6761C452.069 30.9728 452.033 31.3313 451.892 31.4731ZM592.076 40.1011C592.076 40.3222 591.884 40.6214 591.649 40.7666C591.414 40.9117 591.222 40.7307 591.222 40.3649C591.222 39.999 591.414 39.6994 591.649 39.6994C591.884 39.6994 592.076 39.8799 592.076 40.1011ZM666.779 40.3145C666.779 40.653 666.57 41.0585 666.315 41.2165C665.712 41.5892 664.889 40.7661 665.262 40.1634C665.68 39.4864 666.779 39.5956 666.779 40.3145ZM676.028 39.9841C675.871 40.1403 675.615 40.1403 675.458 39.9841C675.302 39.8274 675.43 39.6994 675.743 39.6994C676.056 39.6994 676.184 39.8274 676.028 39.9841ZM696.472 42.0169C695.546 42.3029 694.714 42.7631 694.622 43.0392C694.53 43.3154 694.67 43.5412 694.934 43.5412C695.513 43.5412 698.794 41.9012 698.794 41.6118C698.794 41.3416 698.475 41.3975 696.472 42.0169ZM257.263 45.9604C257.107 46.1166 256.979 45.9885 256.979 45.6756C256.979 45.3627 257.107 45.2347 257.263 45.3909C257.42 45.5476 257.42 45.8037 257.263 45.9604ZM302.654 45.6756C302.654 45.9104 302.57 46.1025 302.466 46.1025C302.362 46.1025 302.159 45.9104 302.014 45.6756C301.869 45.4408 301.954 45.2487 302.202 45.2487C302.451 45.2487 302.654 45.4408 302.654 45.6756ZM303.607 46.3475C303.379 47.5398 301.695 48.4601 300.733 47.9189C300.26 47.6525 300.27 47.448 300.793 46.7428C301.391 45.9369 301.457 45.9309 301.981 46.6361C302.549 47.4019 303.121 47.6346 303.031 47.063C302.897 46.2148 303.12 45.2487 303.449 45.2487C303.651 45.2487 303.722 45.7435 303.607 46.3475ZM303.935 49.0906C303.935 49.3254 303.743 49.5175 303.508 49.5175C303.273 49.5175 303.081 49.3254 303.081 49.0906C303.081 48.8558 303.273 48.6637 303.508 48.6637C303.743 48.6637 303.935 48.8558 303.935 49.0906ZM397.278 50.656C397.122 50.8122 396.866 50.8122 396.709 50.656C396.553 50.4993 396.681 50.3712 396.994 50.3712C397.307 50.3712 397.435 50.4993 397.278 50.656ZM356.441 52.0787C356.441 52.3135 356.249 52.5056 356.014 52.5056C355.779 52.5056 355.587 52.3135 355.587 52.0787C355.587 51.844 355.779 51.6519 356.014 51.6519C356.249 51.6519 356.441 51.844 356.441 52.0787ZM304.207 52.7191C304.343 53.0712 304.529 53.3594 304.621 53.3594C304.713 53.3594 304.789 53.0712 304.789 52.7191C304.789 52.3669 304.603 52.0787 304.375 52.0787C304.148 52.0787 304.072 52.3669 304.207 52.7191ZM726.968 53.3594C726.968 53.5942 726.884 53.7862 726.78 53.7862C726.676 53.7862 726.473 53.5942 726.328 53.3594C726.183 53.1246 726.268 52.9325 726.516 52.9325C726.765 52.9325 726.968 53.1246 726.968 53.3594ZM375.508 53.6441C375.351 53.8003 375.095 53.8003 374.938 53.6441C374.782 53.4874 374.91 53.3594 375.223 53.3594C375.536 53.3594 375.664 53.4874 375.508 53.6441ZM729.814 53.6441C729.657 53.8003 729.401 53.8003 729.245 53.6441C729.088 53.4874 729.216 53.3594 729.529 53.3594C729.842 53.3594 729.97 53.4874 729.814 53.6441ZM285.152 55.4937C285.152 55.7285 284.853 55.9206 284.487 55.9206C284.121 55.9206 283.94 55.7285 284.085 55.4937C284.23 55.259 284.53 55.0669 284.751 55.0669C284.972 55.0669 285.152 55.259 285.152 55.4937ZM166.481 58.0093C166.481 58.2189 166.193 58.5011 165.841 58.6364C165.19 58.8861 164.967 58.4311 165.485 57.9129C165.893 57.5048 166.481 57.562 166.481 58.0093ZM154.858 58.8289C154.962 59.141 154.767 59.2362 154.351 59.0769C153.979 58.9339 153.675 58.63 153.675 58.4008C153.675 57.8394 154.645 58.1907 154.858 58.8289ZM154.99 61.108C155.415 61.9007 155.383 61.9882 154.757 61.7483C154.358 61.5951 153.952 61.47 153.853 61.47C153.755 61.47 153.675 61.1819 153.675 60.8297C153.675 59.891 154.424 60.0494 154.99 61.108ZM755 60.901C754.843 61.0572 754.715 60.9291 754.715 60.6162C754.715 60.3033 754.843 60.1753 755 60.3315C755.156 60.4882 755.156 60.7443 755 60.901ZM182.702 65.0732C182.702 65.177 182.481 65.3985 182.209 65.5659C181.904 65.755 181.833 65.6833 182.022 65.378C182.326 64.8859 182.702 64.7172 182.702 65.0732ZM216.644 66.5161C216.305 66.8555 215.571 66.0854 215.832 65.6636C216.009 65.3768 216.229 65.4207 216.456 65.7874C216.648 66.0995 216.733 66.4273 216.644 66.5161ZM36.0709 69.5806C36.2161 69.8154 36.0351 70.0075 35.6692 70.0075C35.3034 70.0075 35.0037 69.8154 35.0037 69.5806C35.0037 69.3458 35.1843 69.1537 35.4054 69.1537C35.6266 69.1537 35.9258 69.3458 36.0709 69.5806ZM39.8415 71.5729C39.9982 71.7291 40.2543 71.7291 40.411 71.5729C40.5672 71.4162 40.4391 71.2881 40.1262 71.2881C39.8134 71.2881 39.6853 71.4162 39.8415 71.5729ZM59.9759 72.1419C59.8308 72.3767 59.5316 72.5687 59.3104 72.5687C59.0893 72.5687 58.9087 72.3767 58.9087 72.1419C58.9087 71.9071 59.2084 71.715 59.5742 71.715C59.9401 71.715 60.1211 71.9071 59.9759 72.1419ZM39.4146 72.8535C39.5713 73.0097 39.8274 73.0097 39.9841 72.8535C40.1403 72.6968 40.0123 72.5687 39.6994 72.5687C39.3865 72.5687 39.2584 72.6968 39.4146 72.8535ZM68.3 72.9956C68.3 73.2304 68.2155 73.4225 68.1117 73.4225C68.008 73.4225 67.8048 73.2304 67.6597 72.9956C67.5145 72.7608 67.5995 72.5687 67.8479 72.5687C68.0964 72.5687 68.3 72.7608 68.3 72.9956ZM84.3078 72.9956C84.4529 73.2304 84.2609 73.4225 83.8809 73.4225C83.501 73.4225 83.3089 73.2304 83.4541 72.9956C83.5992 72.7608 83.7913 72.5687 83.8809 72.5687C83.9706 72.5687 84.1627 72.7608 84.3078 72.9956ZM73.3068 73.2535C73.1651 73.3952 72.7967 73.4105 72.4889 73.2872C72.1483 73.151 72.2494 73.0498 72.7468 73.0293C73.1967 73.011 73.4485 73.1117 73.3068 73.2535ZM25.7103 74.3561C25.9228 74.9943 26.8931 75.3456 26.8931 74.7842C26.8931 74.555 26.5888 74.2511 26.217 74.1081C25.8016 73.9488 25.6061 74.044 25.7103 74.3561ZM23.2967 74.6515C23.1644 74.8653 23.3432 75.1505 23.6941 75.2854C24.045 75.4198 24.3319 75.3554 24.3319 75.142C24.3319 74.5631 23.5733 74.2037 23.2967 74.6515ZM71.5729 75.4147C71.4162 75.571 71.2881 75.4429 71.2881 75.13C71.2881 74.8171 71.4162 74.689 71.5729 74.8453C71.7291 75.0019 71.7291 75.2581 71.5729 75.4147ZM85.2329 75.4147C85.0762 75.571 84.9481 75.4429 84.9481 75.13C84.9481 74.8171 85.0762 74.689 85.2329 74.8453C85.3891 75.0019 85.3891 75.2581 85.2329 75.4147ZM4.1266 78.8297C3.96994 78.986 3.71381 78.986 3.55715 78.8297C3.40091 78.6731 3.52898 78.545 3.84187 78.545C4.15477 78.545 4.28284 78.6731 4.1266 78.8297ZM85.1616 79.3987C85.3067 79.6335 85.2218 79.8256 84.9733 79.8256C84.7249 79.8256 84.5212 79.6335 84.5212 79.3987C84.5212 79.164 84.6058 78.9719 84.7095 78.9719C84.8132 78.9719 85.0164 79.164 85.1616 79.3987ZM845.07 85.6597C844.914 85.816 844.658 85.816 844.501 85.6597C844.345 85.5031 844.473 85.375 844.786 85.375C845.099 85.375 845.227 85.5031 845.07 85.6597ZM845.924 87.3672C845.767 87.5235 845.511 87.5235 845.355 87.3672C845.198 87.2106 845.326 87.0825 845.639 87.0825C845.952 87.0825 846.08 87.2106 845.924 87.3672ZM843.909 88.5492C844.287 89.0043 844.296 89.3893 843.946 90.0433C843.687 90.5278 843.39 90.9244 843.286 90.9244C842.833 90.9244 841.75 88.7849 841.999 88.3819C842.39 87.7493 843.312 87.83 843.909 88.5492ZM858.775 89.2971C858.511 90.0886 857.592 90.2196 857.592 89.4657C857.592 89.0944 857.896 88.79 858.268 88.79C858.639 88.79 858.868 89.018 858.775 89.2971ZM847.694 90.0442C847.801 90.3643 847.641 90.5244 847.32 90.4177C847.012 90.3148 846.676 89.9784 846.573 89.6706C846.467 89.3505 846.627 89.1904 846.947 89.2971C847.255 89.3996 847.591 89.736 847.694 90.0442ZM849.054 90.0706C849.054 90.3054 848.97 90.4975 848.866 90.4975C848.762 90.4975 848.559 90.3054 848.414 90.0706C848.269 89.8358 848.354 89.6437 848.602 89.6437C848.851 89.6437 849.054 89.8358 849.054 90.0706ZM860.198 91.0507C859.649 91.5988 859.094 91.1754 859.5 90.5188C859.657 90.2649 859.981 90.1778 860.22 90.3255C860.511 90.5056 860.504 90.7442 860.198 91.0507ZM851.854 91.1242C852.31 91.4691 852.48 91.7572 852.231 91.7645C851.982 91.7721 851.406 91.496 850.95 91.1515C850.495 90.8066 850.325 90.5184 850.574 90.5112C850.822 90.5035 851.398 90.7797 851.854 91.1242ZM1195.11 114.26C1194.95 114.417 1194.7 114.417 1194.54 114.26C1194.38 114.104 1194.51 113.976 1194.82 113.976C1195.14 113.976 1195.26 114.104 1195.11 114.26ZM1016.67 115.114C1016.52 115.27 1016.26 115.27 1016.1 115.114C1015.95 114.957 1016.08 114.829 1016.39 114.829C1016.7 114.829 1016.83 114.957 1016.67 115.114ZM1063.15 115.855C1063.66 116.361 1063.66 116.489 1063.16 116.679C1062.47 116.943 1062.06 116.624 1062.06 115.825C1062.06 115.095 1062.4 115.104 1063.15 115.855ZM959.188 117.391C959.188 117.625 958.996 117.817 958.761 117.817C958.526 117.817 958.334 117.625 958.334 117.391C958.334 117.156 958.526 116.964 958.761 116.964C958.996 116.964 959.188 117.156 959.188 117.391ZM1008.56 120.663C1008.41 120.82 1008.15 120.82 1007.99 120.663C1007.84 120.507 1007.97 120.379 1008.28 120.379C1008.59 120.379 1008.72 120.507 1008.56 120.663ZM976.548 121.09C976.391 121.247 976.135 121.247 975.978 121.09C975.822 120.934 975.95 120.806 976.263 120.806C976.576 120.806 976.704 120.934 976.548 121.09ZM958.334 122.086C958.334 122.321 958.142 122.513 957.907 122.513C957.673 122.513 957.481 122.321 957.481 122.086C957.481 121.851 957.673 121.659 957.907 121.659C958.142 121.659 958.334 121.851 958.334 122.086ZM979.678 122.086C979.678 122.321 979.39 122.513 979.038 122.513C978.686 122.513 978.397 122.321 978.397 122.086C978.397 121.851 978.686 121.659 979.038 121.659C979.39 121.659 979.678 121.851 979.678 122.086ZM977.864 122.833C977.968 123.146 977.674 123.367 977.152 123.367C976.628 123.367 976.263 123.091 976.263 122.695C976.263 121.911 977.595 122.026 977.864 122.833ZM988.002 124.647C988.147 124.882 988.17 125.074 988.053 125.074C987.935 125.074 987.72 124.882 987.575 124.647C987.43 124.413 987.408 124.221 987.525 124.221C987.642 124.221 987.857 124.413 988.002 124.647Z"/>
</svg>
