<?xml version="1.0" encoding="UTF-8" standalone="no"?>
<!DOCTYPE svg PUBLIC "-//W3C//DTD SVG 1.1//EN" "http://www.w3.org/Graphics/SVG/1.1/DTD/svg11.dtd">
<svg width="100%" height="100%" viewBox="0 0 339 345" version="1.1" xmlns="http://www.w3.org/2000/svg" xmlns:xlink="http://www.w3.org/1999/xlink" xml:space="preserve" xmlns:serif="http://www.serif.com/" style="fill-rule:evenodd;clip-rule:evenodd;stroke-linejoin:round;stroke-miterlimit:2;">
    <g transform="matrix(1,0,0,1,-246,-193.1)">
        <g>
            <g>
                <g>
                    <path d="M397.2,280.5L433.2,193.1L450.4,286.1L531,236.5L490.1,321.8L584.5,329.1L501.3,374.1L573.3,435.4L479.6,423L501.8,514.9L433.3,449.7L397.3,537.2L380.1,444.2L299.6,493.8L340.4,408.4L246,401.2L329.2,356.1L257.2,294.8L350.9,307.3L328.7,215.3L397.2,280.5Z" style="fill:rgb(249,255,133);fill-rule:nonzero;"/>
                    <g>
                        <path d="M467.3,318.4L467.3,433.5C467.3,434.3 466.9,435.8 466.5,435.9C465.7,436.1 464.5,435.7 463.8,435.2C458.8,431.5 453.8,427.8 448.9,423.9C446.6,422.1 444.1,421.3 441.2,421.3C416.2,421.4 391.1,421.3 366.1,421.3C363.2,421.3 363.2,421.3 363.2,418.4C363.3,413.9 362.5,414.4 367.1,414.4C392.4,414.4 417.8,414.4 443.1,414.3C446.4,414.3 449.1,415.1 451.6,417.2C453.3,418.7 455.1,420.1 457,421.4C457.7,421.9 459,422.5 459.4,422.2C460,421.7 460.4,420.5 460.4,419.6C460.5,409.4 460.4,399.2 460.4,389L460.4,321.8C460.4,317.8 460,318.4 464,318.3C465.1,318.4 466,318.4 467.3,318.4Z" style="fill-rule:nonzero;"/>
                        <path d="M407,366.3C409,366.3 410.9,366.2 412.8,366.4C413.4,366.5 414.2,367.3 414.4,368C415.5,371.9 416.3,375.8 417.3,379.7C417.4,380.3 417.6,380.9 418.2,381.5C419.2,377.2 420.2,372.9 421.1,368.6C421.4,367 422,366.3 423.8,366.3C428.8,366.4 428.8,366.3 430,371.3C430.7,374.5 431.5,377.6 432.7,380.8C433.5,376.7 434.3,372.6 434.9,368.4C435.1,366.6 435.9,366.2 437.4,366.3C439,366.4 440.6,366.3 442.6,366.3C441.9,369.4 441.4,372.2 440.7,375C439.2,381.5 437.6,388 436.2,394.5C435.8,396.2 435.1,396.7 433.4,396.7C429.2,396.6 429.3,396.7 428.3,392.4C427.4,388.4 426.3,384.3 424.9,380.3C423.9,384.4 422.9,388.6 421.9,392.7C420.9,396.7 419.5,397.6 415.5,396.6C415.1,396.5 414.5,395.9 414.4,395.5C411.8,386.1 409.3,376.7 406.8,367.3C406.9,367.1 406.9,366.9 407,366.3Z" style="fill-rule:nonzero;"/>
                        <path d="M376.9,366.1C382.2,366.3 387.4,366 392.3,366.9C399.7,368.3 404.5,376.8 402.8,384.5C401.1,392.2 395.6,396.6 387.7,396.6L378.7,396.6C377.8,396.6 376.9,396.6 377,395.3C376.9,385.8 376.9,376.3 376.9,366.1ZM384,389.6C388.4,389.8 392.7,390.3 395,385.7C396.6,382.5 396.5,379.1 394.3,376.1C391.6,372.6 387.8,373.1 384,373.4L384,389.6Z" style="fill-rule:nonzero;"/>
                        <path d="M376.9,354.9L376.9,326.4C381.8,326.7 386.7,326.5 391.4,327.4C398,328.7 401.8,334.8 401.3,342.2C400.8,348.9 396.1,354.2 389.6,354.7C385.4,355.2 381.2,354.9 376.9,354.9ZM383.2,348.5C388.6,349.3 391.9,348.3 393.8,345.2C395.4,342.6 395.3,338.6 393.5,336.2C390.9,332.5 387.1,333.1 383.2,333.3L383.2,348.5Z" style="fill-rule:nonzero;"/>
                        <path d="M432.7,345.3C433.7,347.3 434.6,349.1 435.6,350.8C430.2,356.4 420.5,356.5 415,351.2C409.4,345.8 409.4,336.4 414.8,330.7C420.2,325.1 429.6,325 435.6,330.7C434.7,332.5 433.7,334.4 432.6,336.5C429.9,334.2 427.1,332.2 423.6,333.2C421.9,333.6 420.1,334.6 419,335.8C416.4,338.6 416.7,343.6 419.3,346.3C422.4,349.7 426.2,349.4 432.7,345.3Z" style="fill-rule:nonzero;"/>
                    </g>
                </g>
            </g>
        </g>
    </g>
</svg>
