<svg width="80" height="2560" viewBox="0 0 80 2560" fill="none" xmlns="http://www.w3.org/2000/svg">
<path fill-rule="evenodd" clip-rule="evenodd" d="M78.4098 153.602C77.066 153.6 76.8638 151.827 77.1043 142.147C77.2997 134.264 76.9531 129.613 75.9912 127.219C75.2226 125.309 74.8378 123.347 75.1362 122.862C75.4336 122.376 76.0324 116.674 76.4653 110.189C76.9836 102.426 76.905 98.032 76.2356 97.3216C75.5642 96.6096 75.6751 95.3456 76.5644 93.6C77.6432 91.4816 77.6628 90.7056 76.6626 89.6976C75.9755 89.0064 75.5023 87.0816 75.6113 85.4208C75.7203 83.7584 75.7212 82.04 75.6142 81.6C75.5073 81.16 75.306 79.36 75.1676 77.6C75.0292 75.84 74.5895 72.0608 74.1899 69.2C73.7168 65.8144 73.8336 64 74.5237 64C75.1058 64 75.5828 61.84 75.5828 59.2C75.5828 56.56 75.1411 54.4 74.6012 54.4C74.0614 54.4 73.6196 53.6368 73.6196 52.7056C73.6196 51.7744 74.1252 51.52 74.7436 52.144C75.5465 52.952 75.6594 51.952 75.1372 48.6384C74.7357 46.0864 74.4383 41.84 74.4766 39.2C74.5139 36.56 74.3146 31.3856 74.0319 27.7008C73.6206 22.336 73.0876 20.9008 71.36 20.5008C69.4007 20.0464 69.2025 19.0816 69.2025 10L69.2025 1.50162e-06L34.6012 6.31365e-06L-5.66244e-07 1.11257e-05L0.000177445 1280L0.000355455 2560L24.4647 2560L48.9299 2560L47.3348 2554.8C46.4573 2551.94 45.5591 2545.28 45.3373 2540C45.0821 2533.91 44.3066 2529.23 43.2151 2527.2C41.7132 2524.41 41.5316 2521.05 41.7829 2500.8C41.9419 2488.04 42.3778 2474.59 42.7518 2470.91C43.3437 2465.08 42.9775 2462.89 39.9198 2453.97C37.3098 2446.37 36.234 2440.98 35.7324 2432.99C35.269 2425.63 35.4683 2420.2 36.3616 2415.79C37.4904 2410.21 37.4502 2408.39 36.0602 2402.28C34.633 2396 34.6124 2394.59 35.8767 2389.66C37.7976 2382.16 37.669 2378.07 35.3643 2373.29C33.5601 2369.55 33.5316 2368.95 34.953 2364.47C35.8236 2361.72 36.2241 2358 35.8855 2355.8C35.4899 2353.23 36.3007 2348.54 38.3208 2341.72C40.7306 2333.57 41.2136 2330.31 40.6884 2325.74C40.2447 2321.89 40.3939 2320 41.1429 2320C41.8909 2320 41.7642 2318.44 40.762 2315.28C39.9385 2312.68 39.2641 2308.5 39.2641 2305.98C39.2641 2302.81 38.4092 2300.37 36.4784 2298.04C33.9429 2294.99 33.6877 2293.78 33.6327 2284.54C33.5993 2278.96 33.9831 2273.15 34.4838 2271.62C35.113 2269.7 34.9235 2267.66 33.8722 2265.04C33.0339 2262.96 32.6187 2260.1 32.9485 2258.7C33.2784 2257.3 32.4548 2252.7 31.1179 2248.48C28.1554 2239.12 25.9085 2228.55 25.0663 2220C24.0975 2210.17 23.5458 2208 22.0204 2208C20.2212 2208 20.2516 2207.19 22.2344 2202.26C23.5606 2198.96 23.6617 2197.2 22.79 2192.57C22.204 2189.46 21.9576 2185.92 22.2423 2184.71C22.8499 2182.13 17.2371 2165.51 14.4985 2161.77C13.4619 2160.36 11.8059 2156.51 10.8185 2153.22C9.04963 2147.32 9.05355 2147.18 11.1385 2142.86C12.6197 2139.79 13.2518 2136.23 13.2518 2130.97C13.2518 2125.15 13.5267 2123.84 14.4788 2125.13C15.4064 2126.39 15.7058 2125.79 15.7058 2122.69C15.7058 2120.44 15.2837 2118.16 14.7674 2117.64C14.2511 2117.12 14.0695 2115.67 14.365 2114.42C14.6594 2113.17 13.7642 2110.29 12.3762 2108.03C10.3866 2104.78 9.90556 2102.58 10.1088 2097.64C10.2501 2094.19 10.684 2090.85 11.0727 2090.22C11.4614 2089.59 11.7794 2086.31 11.7794 2082.93C11.7794 2079.04 11.0982 2075.69 9.91342 2073.76C7.76274 2070.25 6.01844 2062.95 7.74801 2064.69C8.34581 2065.3 8.83464 2065.1 8.83464 2064.27C8.83464 2063.43 8.17207 2062.33 7.36225 2061.82C6.55243 2061.32 5.88986 2059.5 5.88986 2057.78C5.88986 2056.07 5.3382 2054.37 4.66286 2054C3.83636 2053.55 3.51145 2050.39 3.66752 2044.31C3.79611 2039.35 3.45255 2033.38 2.9058 2031.03C2.14801 2027.78 2.26777 2025.88 3.40936 2023.04C5.44715 2017.97 5.29206 2014.81 2.94506 2013.6C1.86531 2013.04 0.995615 2011.73 1.0123 2010.69C1.05157 2008.34 5.88985 2002.42 5.88985 2004.72C5.88985 2005.65 6.32077 2006.4 6.8469 2006.4C7.4015 2006.4 7.53893 2004.22 7.17181 2001.2C6.59561 1996.46 6.68592 1996.2 8.20052 1998.23C9.67193 2000.2 9.7858 2000.11 9.19586 1997.43C8.82972 1995.76 8.10236 1993.5 7.58015 1992.4C6.95979 1991.09 6.98138 1990.4 7.64101 1990.4C8.19659 1990.4 8.41942 1988.96 8.1377 1987.2C7.7804 1984.97 8.10727 1984 9.21059 1984C10.5966 1984 11.3681 1980.16 10.9048 1975.56C10.8361 1974.87 11.4467 1973.89 12.2614 1973.38C14.7321 1971.84 13.9684 1965.67 10.8371 1961.9C9.24003 1959.98 7.47316 1958.4 6.9107 1958.4C5.33721 1958.4 5.70236 1955.22 7.39856 1954.16C8.22899 1953.64 9.69941 1954.38 10.6663 1955.81C11.6332 1957.23 13.1635 1958.4 14.0656 1958.4C16.6962 1958.4 15.9473 1953.13 12.7276 1948.99C10.6918 1946.37 9.94383 1944.27 10.3325 1942.27C10.6633 1940.57 10.1627 1938.16 9.13009 1936.48C7.9826 1934.6 7.36223 1931.21 7.36223 1926.8C7.36223 1923.06 7.03045 1920 6.62603 1920C5.32836 1920 5.83879 1915.51 7.43192 1912.91C8.281 1911.53 8.55291 1910.4 8.03757 1910.4C7.52223 1910.4 6.87928 1908.52 6.60935 1906.21C6.26873 1903.31 6.76051 1900.98 8.21229 1898.61C9.36468 1896.74 10.6388 1895.38 11.0432 1895.6C11.4486 1895.82 11.8167 1895.46 11.8609 1894.8C11.906 1894.14 12.1308 1891.8 12.3615 1889.6C12.5912 1887.4 12.8493 1884.61 12.9338 1883.41C13.0192 1882.2 14.3266 1879 15.8412 1876.3C18.7684 1871.08 21.5757 1859.72 21.6248 1852.92C21.6503 1849.5 21.8152 1849.25 22.6044 1851.45C23.3936 1853.65 23.9698 1853.79 26.0106 1852.25C27.3622 1851.23 28.2712 1849.55 28.0317 1848.5C27.7912 1847.46 28.123 1846.24 28.7669 1845.8C29.5777 1845.25 29.4088 1844.3 28.2211 1842.72C27.2768 1841.47 26.5033 1839.27 26.5033 1837.82C26.5033 1836.38 25.7897 1835.2 24.9161 1835.2C23.749 1835.2 23.4545 1834.13 23.803 1831.16C24.0641 1828.94 23.8589 1826.7 23.3475 1826.19C22.8361 1825.67 22.6918 1823.47 23.0275 1821.29C23.4682 1818.43 23.3082 1817.66 22.4493 1818.53C21.6277 1819.36 21.4589 1818.89 21.9026 1817C22.2992 1815.32 21.9909 1813.93 21.0937 1813.37C20.2957 1812.87 19.9296 1811.71 20.279 1810.79C20.6275 1809.87 20.0748 1808.12 19.051 1806.89C17.4452 1804.98 17.3902 1804.47 18.6555 1803.16C19.9158 1801.86 19.8903 1801.64 18.4709 1801.62C17.563 1801.61 16.5391 1800.16 16.1966 1798.4C15.854 1796.64 14.9656 1795.2 14.2226 1795.2C10.413 1795.2 8.17399 1779.32 11.534 1776.13C12.5764 1775.14 12.7502 1774.48 11.9767 1774.45C10.7801 1774.4 6.94013 1762.81 6.89301 1759.11C6.88123 1758.18 8.01595 1755.17 9.41374 1752.41C10.9745 1749.35 12.5224 1747.76 13.4206 1748.33C14.573 1749.05 14.786 1748.22 14.4199 1744.44C13.8074 1738.1 14.9175 1735.38 17.5571 1736.74C19.5026 1737.75 19.5703 1737.53 18.5013 1733.71C17.241 1729.2 18.201 1725.86 19.6704 1729.65C20.2142 1731.05 20.5902 1731.24 20.599 1730.11C20.6069 1729.08 21.3077 1727.1 22.1558 1725.71C23.5075 1723.51 23.5143 1723.2 22.2137 1723.2C20.2535 1723.2 19.1551 1720.14 20.3919 1718.12C21.0466 1717.05 21.5934 1717.1 22.0331 1718.26C22.3963 1719.22 23.0746 1720 23.5409 1720C24.0081 1720 23.7097 1717.78 22.8783 1715.06C22.0469 1712.34 21.3892 1707.39 21.4177 1704.04C21.455 1699.6 20.8258 1696.98 19.0785 1694.3C16.7286 1690.71 15.744 1686.86 17.6689 1688.8C19.1099 1690.25 18.8694 1686.82 17.4235 1685.3C16.7482 1684.59 14.9244 1684.01 13.3705 1684.01C10.571 1684 7.74894 1679.64 9.11042 1677.42C9.49422 1676.79 10.9293 1677.11 12.2986 1678.13C14.3747 1679.67 14.892 1679.55 15.3995 1677.39C15.7656 1675.84 15.3593 1674.21 14.3845 1673.32C11.9031 1671.06 9.69741 1662.89 9.63655 1655.73C9.60023 1651.45 10.3354 1647.61 11.8353 1644.25C13.0741 1641.47 14.6731 1638.62 15.3877 1637.92C16.1023 1637.22 16.6873 1635.19 16.6873 1633.41C16.6873 1631.63 17.3499 1629.09 18.1597 1627.77C20.1239 1624.57 20.0179 1622.27 17.8653 1621.35C14.4581 1619.89 11.6792 1608.58 14.3246 1606.92C15.5212 1606.17 15.4093 1605.56 13.721 1603.64C12.5803 1602.33 11.8716 1600.32 12.1455 1599.15C12.4203 1597.99 12.0081 1596.17 11.2307 1595.12C9.17225 1592.34 9.49715 1590.4 12.0248 1590.38C16.5587 1590.33 18.5337 1588.55 18.84 1584.24C19.0942 1580.66 19.5644 1580.07 21.8407 1580.46C24.6981 1580.95 25.1654 1579.29 23.5556 1574.39C22.8851 1572.35 22.9038 1571.06 23.6135 1570.34C24.9327 1569.02 23.8098 1560.18 21.933 1557.12C21.1713 1555.88 20.7776 1553.68 21.0603 1552.23C21.343 1550.78 20.5852 1547.12 19.3759 1544.1C14.6839 1532.37 13.7288 1529.33 14.2785 1527.88C14.5916 1527.05 14.1607 1525.95 13.3205 1525.42C11.9992 1524.6 12.0797 1523.81 13.9104 1519.62C15.797 1515.3 16.1573 1515.05 17.2027 1517.38C18.9705 1521.32 19.9266 1520.53 19.1884 1515.73C18.6682 1512.36 19.0579 1510.73 21.0515 1507.94C22.9882 1505.23 23.2856 1504.04 22.3384 1502.82C21.6591 1501.95 20.4419 1500.89 19.6321 1500.48C17.29 1499.27 17.8348 1490.92 20.5342 1486.63C22.8056 1483.02 22.8419 1482.63 21.3823 1477.83C17.7573 1465.88 16.8316 1461.53 17.6414 1460.2C18.1126 1459.44 18.2284 1457.64 17.8996 1456.2C17.4029 1454.04 17.555 1453.94 18.8027 1455.59C20.8326 1458.27 21.6169 1456.58 20.9308 1450.99C20.4822 1447.33 20.9082 1445.52 22.942 1442.45C24.3604 1440.31 25.5217 1437.44 25.5217 1436.08C25.5217 1434.71 26.1538 1433.6 26.9254 1433.6C27.6979 1433.6 28.4714 1431.98 28.6431 1430C28.8159 1428.02 29.6198 1426.4 30.4296 1426.4C31.2395 1426.4 32.7855 1425.51 33.8652 1424.43C35.4593 1422.83 35.5732 1422.19 34.4689 1421C33.3764 1419.83 33.5207 1419.18 35.2051 1417.72C37.7877 1415.46 37.9084 1412.76 35.4721 1411.72C34.0262 1411.1 33.6895 1409.62 33.8623 1404.63C33.982 1401.16 34.36 1397.86 34.7006 1397.31C35.0412 1396.75 34.8242 1395.32 34.2176 1394.13C33.611 1392.94 32.9651 1389.87 32.7825 1387.32C32.5047 1383.43 32.9062 1382.42 35.2836 1381.07C36.8414 1380.19 38.3501 1379.84 38.6377 1380.31C38.9244 1380.78 38.9626 1377.73 38.7212 1373.54C38.4807 1369.35 38.7163 1365.08 39.2444 1364.04C40.383 1361.8 39.1707 1353.81 36.8875 1348.49C36.0355 1346.51 35.3376 1343.66 35.3376 1342.16C35.3376 1340.66 34.6466 1338.3 33.8024 1336.93C32.9582 1335.55 32.5018 1333.81 32.7874 1333.05C33.0731 1332.3 32.4017 1330.1 31.2954 1328.17C30.1891 1326.23 28.8866 1322.39 28.4017 1319.63C27.4583 1314.27 28.0453 1311.5 29.3783 1315.02C30.5042 1317.99 31.5025 1314.89 31.2394 1309.25C31.1226 1306.75 31.3621 1303.82 31.7725 1302.74C32.221 1301.56 31.8696 1300.37 30.888 1299.76C29.7356 1299.04 29.4107 1297.52 29.7759 1294.57C30.0596 1292.28 30.5788 1289.19 30.9293 1287.72C31.4309 1285.6 31.1334 1285.22 29.5256 1285.9C28.3133 1286.42 27.4848 1286.01 27.4848 1284.89C27.4848 1283.86 27.9295 1283.46 28.4733 1284.01C29.0171 1284.56 29.7445 1283.8 30.089 1282.34C30.4336 1280.88 30.1705 1279.13 29.503 1278.46C28.8365 1277.78 28.4154 1275.16 28.5685 1272.62C28.7216 1270.08 28.279 1266.3 27.584 1264.23C26.6711 1261.5 26.6181 1259.97 27.3936 1258.71C27.9835 1257.75 28.4664 1255.66 28.4664 1254.08C28.4664 1252.5 28.8542 1251.2 29.3293 1251.2C29.8034 1251.2 30.729 1249.08 31.3867 1246.5C32.4625 1242.26 32.3359 1241.36 30.1194 1237.46C28.0463 1233.82 27.8235 1232.54 28.7099 1229.37C29.289 1227.3 30.1881 1225.6 30.7074 1225.6C31.2267 1225.6 31.1442 1224.6 30.5248 1223.39C29.6522 1221.67 29.7562 1220.95 30.9842 1220.18C31.8559 1219.64 32.9719 1219.6 33.4627 1220.09C33.9545 1220.58 34.356 1220.6 34.356 1220.13C34.356 1219.65 32.6991 1217.84 30.675 1216.09C23.9805 1210.33 23.9099 1210.19 25.8848 1206.63C27.2915 1204.1 27.6959 1200.15 27.9099 1186.87C28.0581 1177.74 28.647 1168.84 29.2203 1167.09C29.9182 1164.97 29.9418 1162.98 29.2929 1161.09C28.0669 1157.52 29.7346 1144.02 32.1435 1138.02C33.0897 1135.66 33.9427 1131.18 34.0379 1128.07C34.1322 1124.95 34.5199 1118.24 34.8978 1113.15C35.3896 1106.53 36.1071 1103.44 37.4146 1102.3C38.9665 1100.95 39.0598 1100.21 38.0271 1097.45C36.9975 1094.71 37.0976 1093.86 38.673 1091.95C40.2141 1090.09 40.3211 1089.28 39.2895 1087.25C38.3648 1085.44 38.3255 1084.24 39.1354 1082.65C39.7361 1081.47 39.9138 1079.99 39.529 1079.37C39.1442 1078.74 39.259 1077.72 39.7832 1077.11C40.9199 1075.79 42.8428 1070.92 44.114 1066.16C44.6186 1064.26 45.5226 1062.22 46.1224 1061.61C46.8762 1060.85 46.8998 1059.9 46.2009 1058.53C45.4774 1057.11 45.7572 1055.55 47.1825 1053.05C49.0181 1049.84 49.0554 1049.28 47.6556 1046.03C45.9309 1042.01 45.6482 1035.88 47.1197 1034.4C47.7734 1033.74 47.7587 1032.36 47.0774 1030.28C46.3069 1027.93 46.3795 1026.95 47.3719 1026.33C49.0043 1025.3 49.3695 1014.21 47.7567 1014.63C45.7336 1015.15 41.2262 1012.5 41.7592 1011.09C42.0448 1010.34 43.4769 1010.42 44.9425 1011.27C47.4406 1012.72 47.4887 1012.67 45.7022 1010.41C44.6539 1009.08 44.2122 1007.99 44.7206 1007.98C45.2281 1007.96 44.9817 1007.19 44.1719 1006.25C43.0637 1004.98 43.0028 1004.36 43.9265 1003.75C44.6009 1003.3 45.1535 1001.99 45.1535 1000.84C45.1535 999.69 46.3098 998.274 47.7233 997.696C49.1368 997.117 50.0242 996.205 49.6954 995.669C49.3665 995.133 49.5982 993.71 50.2097 992.509C50.8222 991.306 51.1491 990.16 50.9381 989.962C50.726 989.763 49.6954 988.829 48.648 987.886C47.5996 986.942 46.5484 985.222 46.3118 984.062C46.0556 982.81 46.3304 982.408 46.9891 983.072C47.5996 983.686 48.0983 983.426 48.0983 982.494C48.0983 981.563 47.4357 980.8 46.6259 980.8C45.8161 980.8 45.1535 979.779 45.1535 978.533C45.1535 977.286 44.6568 975.997 44.0492 975.667C43.3376 975.28 43.1903 973.242 43.636 969.933C44.1965 965.776 44.809 964.8 46.8556 964.8C49.3704 964.8 49.3734 964.781 47.5142 961.328C45.8357 958.213 45.82 957.962 47.3621 958.878C48.3064 959.44 49.0799 959.202 49.0799 958.35C49.0799 957.498 48.6382 956.8 48.0983 956.8C47.5584 956.8 47.1167 955.72 47.1167 954.4C47.1167 953.08 46.5641 952.181 45.8897 952.4C45.2144 952.621 44.7726 951.901 44.9081 950.8C45.0426 949.701 44.6637 948.8 44.0659 948.8C43.3974 948.8 43.2139 950.333 43.5888 952.771C44.0364 955.677 43.6939 957.259 42.3157 958.662C40.8217 960.184 40.6146 961.374 41.3194 964.395C42.4384 969.192 42.4306 969.6 41.2271 969.6C40.6873 969.6 40.2455 968.52 40.2455 967.2C40.2455 965.88 39.742 964.8 39.1265 964.8C37.7464 964.8 35.4112 959.97 35.369 957.029C35.3493 955.701 35.9393 955.234 36.8875 955.827C38.1744 956.632 38.3236 955.947 37.7641 951.798C37.3263 948.546 37.5059 946.382 38.2784 945.603C39.1668 944.709 39.1933 943.574 38.3834 941.109C37.7876 939.294 37.3007 935.986 37.3007 933.755C37.3007 930.694 37.6865 929.941 38.8723 930.683C39.7361 931.224 40.7913 930.749 41.2163 929.629C42.2637 926.866 44.1719 929.037 44.1719 932.989C44.1719 934.749 44.6136 935.744 45.1535 935.2C45.6934 934.656 46.1351 932.838 46.1351 931.162C46.1351 927.808 42.7535 924.062 41.1672 925.661C40.5331 926.299 40.3937 925.195 40.7854 922.65C41.5815 917.483 40.5106 912 38.7074 912C37.4362 912 36.8688 910.061 37.1849 906.8C37.2487 906.139 36.859 905.6 36.3191 905.6C35.7793 905.6 35.3375 904.88 35.3375 904C35.3375 901.698 38.0261 902.026 38.6141 904.4C38.9096 905.595 39.1402 905.272 39.1864 903.6C39.2286 902.061 39.7174 900.8 40.271 900.8C40.8875 900.8 40.7726 899.093 39.9746 896.4C38.4355 891.2 38.8477 884.96 40.8129 883.731C41.6934 883.179 42.2087 880.526 42.2087 876.534C42.2087 873.04 41.8004 870.622 41.2948 871.131C40.7923 871.638 40.1159 871.352 39.791 870.496C39.4671 869.64 40.3339 867.731 41.7179 866.253C44.005 863.811 44.0973 863.317 42.7309 860.856C40.912 857.581 40.7746 853.338 42.4541 852.331C43.3896 851.771 43.2953 850.442 42.0575 846.736C40.6215 842.438 40.5999 841.488 41.8671 838.538C42.6563 836.702 43.0018 835.2 42.6347 835.2C42.2686 835.2 42.5248 834.107 43.206 832.77C44.2141 830.79 44.1474 829.808 42.8487 827.469C41.6188 825.253 41.5206 824.162 42.4188 822.698C43.2934 821.272 43.3032 820.344 42.458 818.966C41.8396 817.958 41.5785 815.134 41.8789 812.69C42.2705 809.494 41.7434 806.75 40.0021 802.923C36.1061 794.358 34.3559 787.19 34.3559 779.79C34.3559 774.141 33.8975 772.384 31.8519 770.198C30.1007 768.328 29.658 767.018 30.3795 765.842C30.9469 764.917 31.4111 762.942 31.4111 761.453C31.4111 759.928 32.4428 758.325 33.7738 757.781C35.5692 757.046 36.0109 756.026 35.6114 753.534C34.8369 748.706 37.3881 714.867 38.7751 711.57C40.0482 708.544 39.6114 700.8 38.1675 700.8C36.6695 700.8 37.2133 698.52 39.794 693.984C41.447 691.078 41.8229 689.6 40.9081 689.6C40.1493 689.6 38.458 688.227 37.1495 686.549C35.2698 684.141 34.5002 680.858 33.4882 670.949C32.7844 664.046 31.6781 657.32 31.0313 656C30.3834 654.68 29.2683 650.72 28.5517 647.2C27.8362 643.68 26.3471 639.187 25.2428 637.218C22.5571 632.422 22.3441 627.053 24.6155 621.435C25.6472 618.885 26.4933 617.819 26.4963 619.067C26.5002 620.314 26.7044 621.006 26.9498 620.605C27.8479 619.141 24.8521 608.016 22.7652 605.066C21.5834 603.397 20.3476 599.834 20.0187 597.149C19.5054 592.971 19.7331 592.19 21.5962 591.734C23.7223 591.213 23.7017 591.067 20.7373 585.6C18.7731 581.978 17.6943 578.277 17.6845 575.12C17.6757 572.435 17.1387 569.376 16.4909 568.32C15.5751 566.827 15.6546 566.4 16.8482 566.4C17.9878 566.4 18.3549 564.854 18.2715 560.4C18.19 556.053 18.565 554.4 19.632 554.4C20.4418 554.4 21.6707 552.781 22.3628 550.8C23.0548 548.819 24.0344 547.2 24.5409 547.2C25.0465 547.2 25.2055 546.12 24.8953 544.8C24.5488 543.328 24.8953 542.4 25.7925 542.4C26.5974 542.4 27.5152 541.139 27.8322 539.6C28.1503 538.061 28.8492 535.72 29.3861 534.4C30.7368 531.082 34.3559 517.306 34.3559 515.483C34.3559 514.662 35.0096 513.109 35.8077 512.027C36.9267 510.515 37.016 509.322 36.1974 506.829C35.5603 504.888 35.4985 503.194 36.0433 502.597C36.5439 502.048 36.8972 499.8 36.8295 497.6C36.6803 492.765 33.9927 482.411 32.4928 480.901C31.898 480.301 31.4111 478.371 31.4111 476.611C31.4111 474.851 31.8528 473.856 32.3927 474.4C32.9326 474.944 33.3743 474.626 33.3743 473.694C33.3743 472.763 33.9956 472 34.7544 472C36.2671 472 35.9804 467.514 34.0555 461.038C33.1122 457.869 33.2408 456.928 34.8732 455.043C43.2187 445.414 46.3412 440.322 47.7311 434.08C48.6194 430.088 48.5291 428.067 47.2707 423.758C46.4099 420.811 45.3605 418.16 44.9385 417.867C43.3296 416.747 44.2602 414.064 46.0005 414.806C47.6388 415.504 47.7753 414.818 47.3188 408.192C46.8437 401.307 46.9262 400.958 48.5183 403.109C49.6383 404.621 50.0889 406.968 49.8239 409.909C49.602 412.379 49.8464 414.4 50.3686 414.4C50.9311 414.4 51.0921 410.837 50.7632 405.646C50.2882 398.138 50.5473 396.078 52.589 391.174C54.2646 387.15 54.9694 383.254 54.9694 378.016C54.9694 372.134 54.4207 369.642 52.3515 366.122C49.3193 360.963 48.8923 353.557 51.3699 349.094C52.27 347.474 53.0062 344.224 53.0062 341.874C53.0062 339.523 53.4773 337.6 54.0535 337.6C54.67 337.6 54.8457 339.083 54.4805 341.2C54.0408 343.746 54.1331 344.155 54.7927 342.602C55.307 341.392 55.5976 336.712 55.4386 332.202C55.2148 325.813 55.5799 323.243 57.0916 320.579C58.1586 318.698 59.7743 317.434 60.6813 317.77C62.8614 318.578 66.724 308.595 66.8261 301.89C66.8683 299.09 67.1559 297.846 67.4651 299.125C68.3672 302.859 70.4442 286.902 70.1124 278.797C69.8926 273.432 70.3195 270.408 71.7016 267.542C73.7453 263.307 73.4548 260.389 71.1343 261.842C70.2361 262.403 69.6933 261.774 69.6933 260.171C69.6933 258.757 70.2067 257.779 70.8329 258C72.4476 258.566 74.774 245.117 73.653 241.701C73.1622 240.206 72.9669 235.434 73.2182 231.093C73.4685 226.752 73.7316 222.12 73.8013 220.8C73.871 219.48 73.6314 214.259 73.2692 209.2C72.8501 203.344 72.9728 200 73.6059 200C74.1536 200 74.6013 198.36 74.6013 196.357C74.6013 192.741 76.9669 185.851 78.9615 183.658C79.5632 182.997 80 176.438 80 168.059C80 155.8 79.7585 153.602 78.4098 153.602ZM69.5765 224.918C68.5703 225.931 68.5085 224.6 69.3301 219.6C69.656 217.619 70.2508 216 70.6533 216C71.6241 216 70.6817 223.805 69.5765 224.918ZM44.4987 409.067C44.1394 408.48 44.4339 408 45.1534 408C45.8729 408 46.1674 408.48 45.8082 409.067C45.4479 409.653 44.859 409.653 44.4987 409.067ZM45.1535 1054.4C44.6136 1054.4 44.1719 1053.68 44.1719 1052.8C44.1719 1051.92 44.6136 1051.2 45.1535 1051.2C45.6934 1051.2 46.1351 1051.92 46.1351 1052.8C46.1351 1053.68 45.6934 1054.4 45.1535 1054.4ZM42.5356 962.667C42.1763 962.08 42.1763 961.12 42.5356 960.533C42.8958 959.947 43.1903 960.427 43.1903 961.6C43.1903 962.773 42.8958 963.253 42.5356 962.667ZM41.1731 939.498C40.6725 937.461 39.8342 936.226 39.3111 936.752C38.7564 937.312 39.049 939.022 40.0119 940.856C42.4355 945.469 42.5964 945.28 41.1731 939.498ZM39.5908 1052.27C39.2316 1051.68 39.526 1051.2 40.2455 1051.2C40.9651 1051.2 41.2595 1051.68 40.9003 1052.27C40.54 1052.85 39.9511 1052.85 39.5908 1052.27ZM39.2639 854.4C38.724 854.4 38.2823 854.083 38.2823 853.694C38.2823 853.306 38.724 852.544 39.2639 852C39.8038 851.456 40.2455 851.774 40.2455 852.706C40.2455 853.637 39.8038 854.4 39.2639 854.4ZM35.3375 866.4C34.7977 865.856 34.3559 864.691 34.3559 863.811C34.3559 862.931 34.7977 862.656 35.3375 863.2C35.8774 863.744 36.3191 864.909 36.3191 865.789C36.3191 866.669 35.8774 866.944 35.3375 866.4ZM35.5015 1100.8C34.2235 1100.8 33.3734 1098.9 33.9594 1097.35C34.5867 1095.7 36.3192 1097.12 36.3192 1099.29C36.3192 1100.12 35.9511 1100.8 35.5015 1100.8ZM31.738 669.867C31.3787 669.28 31.3787 668.32 31.738 667.733C32.0983 667.147 32.3927 667.627 32.3927 668.8C32.3927 669.973 32.0983 670.453 31.738 669.867ZM31.4112 1112.8C30.8713 1113.34 30.4296 1112.62 30.4296 1111.2C30.4296 1109.78 30.8713 1109.06 31.4112 1109.6C31.9511 1110.14 32.3928 1110.86 32.3928 1111.2C32.3928 1111.54 31.9511 1112.26 31.4112 1112.8ZM27.7508 690.566C26.7525 688.941 28.2553 687.598 29.5795 688.933C30.5807 689.941 30.5807 690.318 29.5834 690.859C28.9012 691.23 28.0767 691.098 27.7508 690.566ZM27.4848 1208.8C26.945 1209.34 26.5032 1210.11 26.5032 1210.49C26.5032 1210.88 26.945 1211.2 27.4848 1211.2C28.0247 1211.2 28.4664 1210.44 28.4664 1209.51C28.4664 1208.57 28.0247 1208.26 27.4848 1208.8ZM27.5428 1281.6C26.1754 1281.6 25.3077 1278.66 26.0772 1276.63C26.5455 1275.4 27.0039 1275.52 27.5928 1277.03C28.703 1279.88 28.6843 1281.6 27.5428 1281.6ZM25.8485 1308.27C25.4893 1307.68 25.7837 1307.2 26.5032 1307.2C27.2228 1307.2 27.5172 1307.68 27.158 1308.27C26.7977 1308.85 26.2088 1308.85 25.8485 1308.27ZM26.0704 1272C25.8318 1272 25.3224 1271.17 24.9376 1270.15C24.5028 1269.01 24.6677 1268.74 25.3695 1269.45C26.5013 1270.59 26.889 1272 26.0704 1272ZM22.5769 1315.2C22.037 1315.2 21.5953 1314.44 21.5953 1313.51C21.5953 1312.57 22.037 1312.26 22.5769 1312.8C23.1167 1313.34 23.5585 1314.11 23.5585 1314.49C23.5585 1314.88 23.1167 1315.2 22.5769 1315.2ZM18.9774 1850.67C18.6182 1850.08 18.9126 1849.6 19.6322 1849.6C20.3517 1849.6 20.6461 1850.08 20.2869 1850.67C19.9266 1851.25 19.3377 1851.25 18.9774 1850.67ZM17.9958 1625.07C17.6365 1624.48 17.6365 1623.52 17.9958 1622.93C18.3561 1622.35 18.6505 1622.83 18.6505 1624C18.6505 1625.17 18.3561 1625.65 17.9958 1625.07ZM16.0326 1471.47C15.6733 1470.88 15.6733 1469.92 16.0326 1469.33C16.3928 1468.75 16.6873 1469.23 16.6873 1470.4C16.6873 1471.57 16.3928 1472.05 16.0326 1471.47ZM15.7058 1688.8C15.1659 1689.34 14.7242 1688.62 14.7242 1687.2C14.7242 1685.78 15.1659 1685.06 15.7058 1685.6C16.2456 1686.14 16.6874 1686.86 16.6874 1687.2C16.6874 1687.54 16.2456 1688.26 15.7058 1688.8ZM14.1311 586.766C13.8052 586.235 13.7699 584.854 14.0536 583.701C14.3667 582.424 14.5993 582.803 14.6465 584.667C14.6887 586.354 14.457 587.298 14.1311 586.766ZM13.3666 1539.2C12.6196 1539.2 11.7352 1537.94 11.4024 1536.4C11.0687 1534.86 10.5259 1532.63 10.1941 1531.45C9.86328 1530.27 10.7467 1530.94 12.1583 1532.94C15 1536.97 15.4309 1539.2 13.3666 1539.2ZM11.7794 1943.2C11.2395 1942.66 10.7978 1942.97 10.7978 1943.91C10.7978 1944.84 11.2395 1945.6 11.7794 1945.6C12.3193 1945.6 12.761 1945.28 12.761 1944.89C12.761 1944.51 12.3193 1943.74 11.7794 1943.2ZM6.87144 1972C6.33156 1972.54 5.88984 1972.23 5.88984 1971.29C5.88984 1970.36 6.33156 1969.6 6.87144 1969.6C7.41132 1969.6 7.85303 1969.92 7.85303 1970.31C7.85303 1970.69 7.41132 1971.46 6.87144 1972Z" fill="black"/>
</svg>
