<svg width="1366" height="400" viewBox="0 0 1366 400" fill="none" xmlns="http://www.w3.org/2000/svg">
<path fill-rule="evenodd" clip-rule="evenodd" d="M1366 0H0V400L1.52588e-05 375.23V350.459L2.7747 352.074C4.30035 352.962 7.85452 353.872 10.6719 354.096C13.923 354.355 16.4185 355.14 17.5019 356.245C18.9925 357.766 20.7829 357.95 31.5888 357.695C38.3974 357.534 45.5757 357.093 47.5402 356.714C50.6504 356.115 51.8192 356.486 56.5746 359.581C60.6333 362.224 63.5105 363.313 67.7733 363.821C71.7014 364.29 74.5939 364.089 76.9485 363.184C79.9247 362.041 80.8962 362.082 84.1584 363.489C87.5076 364.934 88.2615 364.955 90.8936 363.675C94.8918 361.73 97.0774 361.86 99.6267 364.194C101.621 366.021 101.945 366.05 104.336 364.61C105.799 363.729 107.786 363.323 108.958 363.666C110.33 364.067 112.832 363.246 116.475 361.201C120.82 358.761 122.561 358.272 124.999 358.803C127.055 359.253 128.063 359.101 128.063 358.343C128.063 357.586 128.894 357.714 130.581 358.729C131.967 359.563 134.199 360.245 135.543 360.245C137.237 360.245 138.536 361.111 139.778 363.066C141.408 365.633 142.055 365.892 146.982 365.947C149.959 365.981 153.063 365.592 153.88 365.086C154.904 364.448 155.993 364.64 157.388 365.705C158.5 366.553 160.023 366.974 160.771 366.64C161.518 366.306 163.974 367.14 166.227 368.493C171.219 371.493 176.859 373.768 181.422 374.621C186.665 375.602 187.825 376.16 187.825 377.705C187.825 379.526 188.258 379.496 190.89 377.488C192.65 376.145 193.59 376.043 196.059 376.925C197.719 377.519 199.606 377.768 200.251 377.48C201.627 376.865 210.497 382.548 212.492 385.321C213.247 386.37 215.3 388.047 217.056 389.047C220.203 390.838 220.279 390.834 222.584 388.723C224.222 387.223 226.119 386.583 228.925 386.583C232.031 386.583 232.73 386.305 232.043 385.34C231.373 384.401 231.692 384.098 233.346 384.098C234.549 384.098 235.761 384.526 236.039 385.048C236.316 385.571 237.091 385.755 237.759 385.456C238.427 385.158 239.962 386.064 241.17 387.469C242.9 389.484 244.076 389.971 246.712 389.765C248.552 389.622 250.335 389.183 250.673 388.789C251.01 388.396 252.76 388.074 254.56 388.074C256.637 388.074 258.425 388.763 259.456 389.963C261.326 392.141 265.222 393.907 264.292 392.155C263.971 391.55 264.073 391.055 264.521 391.055C264.968 391.055 265.555 391.726 265.825 392.546C266.095 393.366 267.065 394.037 267.979 394.037C268.895 394.037 269.803 394.595 269.999 395.279C270.239 396.116 271.925 396.445 275.168 396.287C277.815 396.157 281.003 396.505 282.254 397.058C283.988 397.825 285.002 397.704 286.518 396.548C289.223 394.485 290.908 394.642 291.556 397.018C291.854 398.112 292.552 398.992 293.107 398.975C294.364 398.936 297.522 394.037 296.291 394.037C295.8 394.037 295.398 393.6 295.398 393.068C295.398 392.506 296.563 392.367 298.172 392.739C300.704 393.322 300.843 393.231 299.759 391.697C298.707 390.207 298.755 390.092 300.186 390.689C301.074 391.06 302.28 391.797 302.868 392.325C303.565 392.953 303.935 392.932 303.935 392.264C303.935 391.701 304.703 391.476 305.643 391.761C306.83 392.123 307.35 391.792 307.35 390.675C307.35 389.271 309.402 388.49 311.856 388.959C312.221 389.029 312.742 388.411 313.015 387.586C313.839 385.084 317.129 385.857 319.142 389.028C320.169 390.645 321.01 392.434 321.01 393.003C321.01 394.596 322.709 394.227 323.275 392.509C323.552 391.668 323.155 390.18 322.394 389.201C321.633 388.222 321.01 386.672 321.01 385.759C321.01 383.095 323.82 383.854 326.033 387.114C327.43 389.175 328.551 389.932 329.618 389.539C330.523 389.204 331.808 389.711 332.707 390.756C333.707 391.918 335.52 392.546 337.872 392.546C339.867 392.546 341.498 392.882 341.499 393.291C341.501 394.605 343.895 394.089 345.281 392.475C346.019 391.616 346.622 391.34 346.622 391.862C346.622 392.384 347.627 393.035 348.856 393.308C350.405 393.653 351.648 393.155 352.911 391.685C353.914 390.519 354.637 389.228 354.52 388.819C354.402 388.409 354.594 388.036 354.947 387.991C355.298 387.945 356.547 387.718 357.721 387.484C358.895 387.252 360.382 386.99 361.026 386.905C361.67 386.818 363.376 385.495 364.818 383.961C367.605 380.997 373.662 378.155 377.296 378.105C379.12 378.079 379.253 377.912 378.077 377.113C376.902 376.314 376.83 375.731 377.65 373.665C378.193 372.296 379.093 371.376 379.65 371.618C380.207 371.862 380.855 371.526 381.091 370.874C381.387 370.053 381.893 370.224 382.734 371.426C383.402 372.382 384.579 373.166 385.349 373.166C386.119 373.166 386.749 373.888 386.749 374.773C386.749 375.954 387.318 376.253 388.904 375.9C390.089 375.635 391.283 375.843 391.558 376.361C391.833 376.879 393.008 377.025 394.17 376.685C395.698 376.239 396.107 376.401 395.645 377.27C395.203 378.102 395.454 378.273 396.459 377.824C397.357 377.422 398.097 377.734 398.396 378.643C398.662 379.451 399.283 379.822 399.774 379.468C400.265 379.115 401.201 379.674 401.852 380.711C402.874 382.337 403.148 382.393 403.844 381.112C404.538 379.835 404.654 379.861 404.665 381.298C404.672 382.218 405.446 383.254 406.385 383.601C407.324 383.948 408.092 384.848 408.092 385.6C408.092 389.457 416.567 391.724 418.269 388.322C418.797 387.267 419.149 387.091 419.166 387.874C419.19 389.085 425.373 392.973 427.351 393.021C427.847 393.033 429.454 391.884 430.923 390.469C432.56 388.889 433.404 387.321 433.104 386.412C432.719 385.245 433.161 385.029 435.18 385.4C438.561 386.02 440.014 384.896 439.285 382.224C438.748 380.254 438.865 380.185 440.905 381.268C443.312 382.544 445.092 381.572 443.071 380.084C442.324 379.533 442.223 379.153 442.822 379.144C443.375 379.136 444.431 378.426 445.17 377.567C446.345 376.199 446.511 376.192 446.511 377.509C446.511 379.494 448.145 380.606 449.221 379.353C449.79 378.691 449.766 378.137 449.147 377.692C448.636 377.324 448.219 376.637 448.219 376.165C448.219 375.692 449.405 375.994 450.854 376.836C452.304 377.678 454.95 378.344 456.733 378.315C459.104 378.277 460.503 378.914 461.93 380.683C463.85 383.063 465.902 384.059 464.867 382.11C464.093 380.651 465.925 380.895 466.734 382.359C467.112 383.043 467.423 384.889 467.425 386.463C467.428 389.297 469.757 392.154 470.94 390.776C471.274 390.387 471.103 388.934 470.56 387.548C469.737 385.446 469.803 384.922 470.954 384.408C471.782 384.038 472.651 384.449 473.125 385.436C474.334 387.948 478.693 390.182 482.511 390.243C484.795 390.28 486.844 389.536 488.638 388.017C490.12 386.763 491.64 385.144 492.016 384.42C492.392 383.697 493.475 383.104 494.425 383.104C495.374 383.104 496.727 382.433 497.431 381.613C499.139 379.625 500.369 379.732 500.859 381.912C501.634 385.361 507.674 388.175 508.557 385.497C508.956 384.285 509.282 384.398 510.31 386.108C511.005 387.263 512.082 387.98 512.703 387.703C513.324 387.425 514.292 387.842 514.853 388.629C516.339 390.713 517.371 390.384 517.384 387.825C517.408 383.234 518.358 381.235 520.661 380.925C522.568 380.667 522.883 380.191 522.676 377.887C522.416 374.993 523.298 374.52 525.914 376.15C527.004 376.829 527.693 376.81 528.074 376.092C528.783 374.756 533.497 375.893 535.13 377.793C535.792 378.564 536.968 378.963 537.742 378.677C538.516 378.39 540.468 379.158 542.08 380.382C548.337 385.133 549.958 386.1 550.732 385.543C551.173 385.226 551.764 385.663 552.045 386.513C552.486 387.851 552.906 387.77 555.142 385.916C557.447 384.006 557.577 383.641 556.333 382.583C554.231 380.793 554.654 379.825 557.214 380.572C559.013 381.099 559.883 380.704 561.373 378.686C562.82 376.725 563.453 376.424 564.105 377.383C564.571 378.07 565.135 379.303 565.356 380.123C565.997 382.494 570.456 381.942 572.746 379.209C574.672 376.91 574.876 376.873 577.442 378.351C583.815 382.021 586.139 382.958 586.844 382.138C587.253 381.661 588.213 381.544 588.978 381.877C590.133 382.38 590.189 382.226 589.309 380.963C587.875 378.907 588.78 378.113 591.763 378.808C593.714 379.262 594.679 378.831 596.318 376.771C597.461 375.335 598.992 374.16 599.718 374.16C600.446 374.16 601.04 373.519 601.04 372.738C601.04 371.956 601.905 371.173 602.961 370.999C604.017 370.824 604.882 370.01 604.882 369.19C604.882 368.37 605.355 366.805 605.934 365.712C606.787 364.098 607.131 363.982 607.762 365.1C608.387 366.207 608.732 366.06 609.516 364.355C610.718 361.74 612.16 361.618 612.714 364.085C613.044 365.549 613.836 365.89 616.499 365.715C618.352 365.593 620.11 365.211 620.406 364.866C620.704 364.521 621.466 364.741 622.102 365.355C622.738 365.969 624.373 366.623 625.735 366.808C627.813 367.089 628.349 366.683 629.069 364.276C629.542 362.698 629.723 361.171 629.474 360.879C629.224 360.589 630.85 360.551 633.086 360.795C635.321 361.039 637.604 360.8 638.158 360.265C639.351 359.112 643.617 360.34 646.452 362.652C647.51 363.514 649.032 364.221 649.833 364.221C650.633 364.221 651.89 364.921 652.624 365.775C653.359 366.63 654.288 367.092 654.69 366.803C655.093 366.514 656.267 367.194 657.299 368.314C658.332 369.434 660.382 370.753 661.854 371.243C664.713 372.199 666.191 371.604 664.315 370.255C662.73 369.115 664.381 368.104 667.39 368.37C668.724 368.489 670.288 368.246 670.865 367.831C671.497 367.376 672.129 367.732 672.457 368.726C672.841 369.893 673.652 370.222 675.226 369.852C676.449 369.565 678.095 369.039 678.882 368.684C680.011 368.176 680.216 368.478 679.85 370.106C679.575 371.333 679.793 372.172 680.389 372.172C680.942 372.172 681.154 371.722 680.862 371.171C680.569 370.62 680.97 369.884 681.752 369.535C682.533 369.186 683.465 369.453 683.824 370.128C684.182 370.803 685.584 371.23 686.939 371.075C688.294 370.919 690.309 371.368 691.415 372.071C692.871 372.996 693.686 373.049 694.361 372.264C694.874 371.667 695.986 371.178 696.831 371.178C697.676 371.178 698.367 370.785 698.367 370.304C698.367 369.824 699.497 368.887 700.878 368.221C703.136 367.132 703.618 367.26 705.697 369.504C707.641 371.603 708.325 371.829 710.017 370.931C711.123 370.345 712.028 369.435 712.028 368.909C712.028 368.383 712.559 368.467 713.208 369.094C714.123 369.977 714.508 369.872 714.918 368.629C715.209 367.746 715.232 366.616 714.968 366.119C714.704 365.621 714.695 365.215 714.948 365.215C715.201 365.215 716.169 366.892 717.1 368.942C720.177 375.72 720.252 375.791 722.15 373.792C723.502 372.368 725.606 371.958 732.696 371.741C737.567 371.591 742.315 370.995 743.247 370.415C744.38 369.708 745.44 369.684 746.45 370.341C748.355 371.582 755.559 369.894 758.76 367.455C760.018 366.497 762.409 365.633 764.071 365.537C765.734 365.441 769.316 365.049 772.032 364.666C775.562 364.168 777.21 363.442 777.819 362.118C778.541 360.547 778.933 360.452 780.405 361.498C781.871 362.54 782.324 362.439 783.341 360.844C784.335 359.283 784.769 359.175 785.85 360.22C786.819 361.156 787.455 361.196 788.303 360.376C788.933 359.767 789.723 359.587 790.057 359.977C790.391 360.367 790.933 360.25 791.259 359.72C791.968 358.569 794.564 356.622 797.106 355.335C798.117 354.824 799.207 353.909 799.53 353.301C799.935 352.538 800.443 352.514 801.176 353.222C801.934 353.954 802.767 353.671 804.098 352.228C805.81 350.369 806.109 350.332 807.846 351.749C809.988 353.495 813.262 353.781 814.052 352.292C814.403 351.63 815.141 351.645 816.25 352.334C817.501 353.114 818.027 353.041 818.359 352.036C818.904 350.383 824.826 350.014 824.601 351.646C824.32 353.695 825.738 358.259 826.488 357.719C826.89 357.43 826.847 355.98 826.392 354.496C825.618 351.966 825.646 351.918 826.852 353.727C827.559 354.788 828.143 355.235 828.15 354.72C828.158 354.207 828.571 354.456 829.069 355.276C829.751 356.398 830.082 356.46 830.408 355.525C830.646 354.842 831.343 354.282 831.958 354.282C832.572 354.282 833.327 353.111 833.636 351.68C833.945 350.249 834.431 349.351 834.717 349.684C835.003 350.017 835.762 349.782 836.404 349.163C837.046 348.543 837.657 348.212 837.763 348.425C837.869 348.64 838.367 349.684 838.87 350.744C839.374 351.805 840.292 352.87 840.91 353.109C841.579 353.369 841.793 353.091 841.439 352.424C841.111 351.806 841.25 351.301 841.747 351.301C842.244 351.301 842.651 351.971 842.651 352.791C842.651 353.611 843.196 354.282 843.861 354.282C844.526 354.282 845.214 354.785 845.39 355.4C845.597 356.121 846.684 356.27 848.45 355.819C850.668 355.251 851.189 354.631 851.189 352.559C851.189 350.013 851.199 350.01 853.041 351.892C854.704 353.591 854.838 353.607 854.348 352.046C854.049 351.09 854.176 350.307 854.63 350.307C855.085 350.307 855.458 350.754 855.458 351.301C855.458 351.847 856.034 352.294 856.738 352.294C857.443 352.294 857.922 352.854 857.805 353.537C857.688 354.221 858.072 354.668 858.659 354.531C859.246 354.395 859.726 354.778 859.726 355.383C859.726 356.06 858.908 356.246 857.607 355.866C856.057 355.413 855.212 355.76 854.464 357.155C853.652 358.668 853.017 358.878 851.405 358.164C848.845 357.031 848.628 357.039 848.628 358.258C848.628 358.804 849.204 359.252 849.908 359.252C850.612 359.252 851.189 359.761 851.189 360.385C851.189 361.782 853.766 364.146 855.335 364.189C856.044 364.209 856.293 363.612 855.977 362.652C855.547 361.349 855.913 361.198 858.126 361.764C859.862 362.207 861.016 362.025 861.432 361.243C861.909 360.344 862.515 360.317 863.83 361.137C864.798 361.74 866.564 362.233 867.754 362.233C869.387 362.233 869.789 361.843 869.393 360.642C869.105 359.767 869.358 358.699 869.956 358.269C871.43 357.208 870.272 355.276 868.163 355.276C867.224 355.276 866.693 354.829 866.983 354.282C867.273 353.736 868.243 353.288 869.138 353.288C870.927 353.288 872.926 356.712 872.073 358.318C871.733 358.96 872.322 359.101 873.68 358.705C876.437 357.899 879.362 358.983 879.362 360.809C879.362 362.096 880.397 362.67 882.137 362.35C882.49 362.286 882.778 362.68 882.778 363.227C882.778 363.774 883.162 364.221 883.631 364.221C884.86 364.221 884.685 361.499 883.418 360.903C882.78 360.604 882.953 360.371 883.845 360.324C884.666 360.281 885.339 359.786 885.339 359.226C885.339 358.602 886.25 358.718 887.687 359.526C890.461 361.084 893.791 360.667 894.447 358.677C894.741 357.786 896.157 357.264 898.287 357.264C900.151 357.264 901.441 357.677 901.17 358.189C900.899 358.698 901.052 359.383 901.509 359.712C901.966 360.04 902.984 359.162 903.773 357.761C905.076 355.445 905.34 355.352 906.653 356.735C908.4 358.577 910.664 358.716 911.201 357.015C911.5 356.068 912.21 356.164 914.187 357.417C916.48 358.871 916.987 358.893 918.562 357.61C919.541 356.811 920.343 356.461 920.343 356.832C920.343 357.203 920.926 356.944 921.639 356.254C922.695 355.233 923.22 355.301 924.468 356.616C925.65 357.861 926.233 357.961 927.014 357.051C927.774 356.166 928.27 356.156 929.005 357.011C929.543 357.637 931.049 357.902 932.354 357.598C934.059 357.201 935.523 357.735 937.565 359.498C942.135 363.443 945.96 365.215 949.909 365.215C952.923 365.215 953.861 365.679 955.027 367.75C956.025 369.523 956.724 369.971 957.352 369.241C957.845 368.666 958.899 368.196 959.694 368.196C960.507 368.196 961.363 367.152 961.653 365.804C962.045 363.986 962.589 363.539 963.919 363.944C966.495 364.728 984.551 362.145 986.311 360.74C987.925 359.451 992.057 359.894 992.057 361.356C992.057 362.872 993.274 362.322 995.694 359.709C997.245 358.035 998.034 357.654 998.034 358.581C998.034 359.349 998.766 361.061 999.662 362.386C1000.95 364.289 1002.7 365.069 1007.99 366.093C1011.67 366.806 1015.26 367.926 1015.96 368.581C1016.67 369.237 1018.78 370.366 1020.66 371.091C1022.54 371.816 1024.93 373.324 1025.98 374.442C1028.54 377.161 1031.41 377.377 1034.41 375.077C1035.77 374.032 1036.34 373.176 1035.67 373.173C1035 373.169 1034.63 372.962 1034.85 372.713C1035.63 371.804 1041.57 374.837 1043.14 376.95C1044.03 378.147 1045.93 379.398 1047.37 379.731C1049.59 380.251 1050.01 380.02 1050.25 378.134C1050.53 375.981 1050.61 376.002 1053.53 379.004C1055.46 380.992 1057.44 382.085 1059.12 382.095C1060.55 382.103 1062.18 382.647 1062.75 383.303C1063.54 384.23 1063.77 384.15 1063.77 382.941C1063.77 381.787 1064.6 381.416 1066.97 381.5C1069.29 381.583 1070.18 381.203 1070.18 380.123C1070.18 379.303 1071.04 378.058 1072.1 377.358C1073.15 376.657 1074.02 375.665 1074.02 375.152C1074.02 374.641 1074.59 374.48 1075.3 374.794C1076.08 375.144 1076.58 374.794 1076.58 373.885C1076.58 373.07 1077.25 372.141 1078.07 371.82C1078.89 371.498 1080.14 370.79 1080.85 370.247C1082.62 368.879 1089.97 365.215 1090.94 365.215C1091.38 365.215 1092.21 364.553 1092.79 363.745C1093.59 362.612 1094.23 362.521 1095.56 363.35C1096.59 363.995 1097.5 364.058 1097.82 363.506C1098.11 362.999 1099.31 362.642 1100.48 362.71C1103.06 362.861 1108.59 365.582 1109.39 367.101C1109.71 367.703 1110.74 368.196 1111.68 368.196C1112.62 368.196 1113.15 367.749 1112.86 367.202C1112.57 366.656 1112.74 366.209 1113.24 366.209C1113.74 366.209 1114.14 365.579 1114.14 364.811C1114.14 363.28 1116.54 363.57 1119.99 365.519C1121.68 366.474 1122.19 366.344 1123.19 364.691C1128.33 356.241 1131.05 353.08 1134.38 351.672C1136.51 350.773 1137.59 350.864 1139.89 352.138C1141.46 353.01 1142.87 354.073 1143.03 354.5C1143.63 356.129 1145.06 355.187 1144.66 353.424C1144.29 351.766 1144.66 351.628 1148.19 352.09C1151.86 352.571 1152.05 352.487 1150.9 350.875C1150.1 349.741 1148.84 349.285 1147.28 349.553C1145.96 349.778 1144.88 349.531 1144.88 349.002C1144.88 348.432 1146.78 348.269 1149.55 348.602C1153.56 349.083 1154.66 348.821 1157.27 346.754C1159.42 345.057 1161.5 344.344 1164.29 344.344C1167.43 344.344 1168.76 344.899 1170.64 346.994C1173.39 350.064 1177.34 350.497 1179.73 347.988C1180.59 347.077 1182.32 346.331 1183.58 346.331C1184.83 346.331 1185.86 345.854 1185.86 345.271C1185.86 344.647 1185.07 344.469 1183.94 344.839C1182.58 345.284 1182.36 345.19 1183.19 344.522C1183.84 344.002 1186.33 343.707 1188.74 343.868C1192.15 344.095 1193.52 343.725 1194.94 342.195C1195.94 341.115 1196.62 339.479 1196.44 338.56C1196.01 336.353 1201.34 332.442 1204.91 332.339C1206.41 332.296 1207.07 332.005 1206.39 331.692C1204.4 330.778 1212.91 328.675 1217.24 329.011C1220.1 329.234 1221.71 328.801 1223.24 327.402C1225.5 325.333 1227.06 325.627 1226.28 327.977C1225.98 328.886 1226.32 329.436 1227.17 329.436C1227.93 329.436 1228.45 328.916 1228.33 328.282C1228.03 326.647 1235.21 324.291 1237.03 325.426C1237.83 325.923 1240.37 326.121 1242.69 325.867C1245.01 325.613 1247.48 325.347 1248.18 325.276C1248.89 325.206 1251.67 325.448 1254.37 325.815C1257.5 326.239 1259.28 326.115 1259.28 325.474C1259.28 324.919 1260.16 324.466 1261.23 324.466C1263.15 324.466 1266.83 322.071 1268 320.052C1268.35 319.442 1271.85 319 1276.32 319C1282.87 319 1284.04 319.244 1284.04 320.61C1284.04 321.971 1284.99 322.175 1290.15 321.932C1294.36 321.734 1296.84 322.085 1298.12 323.059C1299.14 323.837 1300.18 324.227 1300.44 323.925C1300.7 323.623 1303.74 323.017 1307.2 322.579C1311.35 322.054 1313.69 322.134 1314.07 322.811C1314.45 323.491 1315.12 323.379 1316.06 322.479C1317.19 321.386 1317.6 321.366 1318.14 322.379C1318.51 323.075 1319.53 323.554 1320.42 323.444C1321.31 323.333 1322.22 323.332 1322.46 323.441C1322.69 323.549 1323.65 323.753 1324.59 323.893C1325.53 324.033 1327.55 324.478 1329.08 324.883C1330.88 325.362 1331.85 325.243 1331.85 324.545C1331.85 323.955 1333 323.472 1334.41 323.472C1335.82 323.472 1336.97 323.92 1336.97 324.466C1336.97 325.013 1337.38 325.46 1337.88 325.46C1338.37 325.46 1338.51 324.948 1338.18 324.322C1337.75 323.509 1338.28 323.395 1340.05 323.924C1341.41 324.33 1343.67 324.631 1345.08 324.592C1346.49 324.555 1349.25 324.756 1351.22 325.043C1354.08 325.459 1354.85 325.999 1355.06 327.748C1355.3 329.732 1355.82 329.933 1360.66 329.933H1366V0ZM1248.82 329.803C1246.15 330.635 1245.44 330.573 1245.98 329.554C1246.58 328.435 1250.74 327.481 1250.74 328.464C1250.74 328.871 1249.88 329.473 1248.82 329.803ZM863.965 359.488C864.944 360.463 865.856 360.759 866.155 360.198C866.436 359.668 865.777 358.819 864.69 358.312C861.605 356.871 861.504 357.034 863.965 359.488ZM1148.29 354.282C1148.29 355.011 1148.04 355.309 1147.72 354.945C1147.41 354.58 1147.41 353.984 1147.72 353.619C1148.04 353.256 1148.29 353.554 1148.29 354.282ZM804.232 355.276C803.763 355.276 803.379 354.829 803.379 354.282C803.379 353.736 803.763 353.288 804.232 353.288C804.702 353.288 805.086 353.736 805.086 354.282C805.086 354.829 804.702 355.276 804.232 355.276ZM853.466 356.933C853.152 357.297 852.64 357.297 852.327 356.933C852.014 356.568 852.27 356.27 852.896 356.27C853.522 356.27 853.778 356.568 853.466 356.933ZM905.076 365.215C904.606 365.215 903.985 364.767 903.694 364.221C903.404 363.674 903.551 363.227 904.021 363.227C904.49 363.227 905.112 363.674 905.402 364.221C905.692 364.767 905.545 365.215 905.076 365.215ZM805.086 359.252C805.086 359.98 804.83 360.278 804.517 359.914C804.204 359.55 804.204 358.953 804.517 358.589C804.83 358.225 805.086 358.523 805.086 359.252ZM910.474 361.239C910.267 361.239 910.098 360.792 910.098 360.245C910.098 359.699 910.505 359.252 911.002 359.252C911.499 359.252 911.668 359.699 911.378 360.245C911.088 360.792 910.681 361.239 910.474 361.239ZM780.461 365.616C779.635 366.21 778.62 365.349 778.62 364.055C778.62 363.6 778.981 363.227 779.423 363.227C780.582 363.227 781.343 364.981 780.461 365.616ZM997.362 370.047C997.65 369.037 997.852 369.037 998.39 370.051C999.102 371.392 998.385 372.913 997.518 371.902C997.235 371.572 997.164 370.738 997.362 370.047ZM1009.7 367.865C1009.39 368.229 1008.88 368.229 1008.56 367.865C1008.25 367.501 1008.51 367.202 1009.13 367.202C1009.76 367.202 1010.01 367.501 1009.7 367.865ZM773.071 369.19C772.311 369.19 771.927 368.743 772.217 368.196C772.507 367.65 772.891 367.202 773.071 367.202C773.25 367.202 773.634 367.65 773.924 368.196C774.215 368.743 773.83 369.19 773.071 369.19ZM684.799 373.597C683.715 374.376 682.146 373.498 682.146 372.113C682.146 370.957 683.061 370.938 684.585 372.062C685.393 372.659 685.457 373.123 684.799 373.597ZM720.088 373.166C720.295 373.166 720.702 372.718 720.992 372.172C721.282 371.625 721.112 371.178 720.615 371.178C720.119 371.178 719.711 371.625 719.711 372.172C719.711 372.718 719.88 373.166 720.088 373.166ZM687.269 373.604C687.269 372.775 688.023 373.168 688.63 374.314C689.009 375.024 688.865 375.191 688.255 374.751C687.713 374.361 687.269 373.845 687.269 373.604ZM668.486 373.166C668.486 373.894 668.23 374.192 667.917 373.829C667.604 373.464 667.604 372.867 667.917 372.503C668.23 372.139 668.486 372.437 668.486 373.166ZM500.013 381.779C499.7 382.143 499.188 382.143 498.874 381.779C498.562 381.415 498.818 381.117 499.444 381.117C500.07 381.117 500.326 381.415 500.013 381.779ZM665.122 378.135C664.625 378.135 664.218 377.688 664.218 377.141C664.218 376.594 664.387 376.147 664.594 376.147C664.801 376.147 665.208 376.594 665.498 377.141C665.788 377.688 665.619 378.135 665.122 378.135ZM379.065 380.123C379.065 380.851 378.809 381.149 378.496 380.786C378.183 380.421 378.183 379.825 378.496 379.46C378.809 379.096 379.065 379.394 379.065 380.123ZM1054.54 385.771C1053.93 386.058 1053.19 386.022 1052.91 385.692C1052.62 385.362 1053.13 385.128 1054.03 385.171C1055.02 385.218 1055.22 385.454 1054.54 385.771ZM581.973 383.767C581.66 384.131 581.148 384.131 580.834 383.767C580.522 383.402 580.778 383.104 581.404 383.104C582.03 383.104 582.286 383.402 581.973 383.767ZM465.721 385.092C464.961 385.092 464.577 384.645 464.867 384.098C465.157 383.552 465.541 383.104 465.721 383.104C465.9 383.104 466.284 383.552 466.574 384.098C466.865 384.645 466.48 385.092 465.721 385.092ZM548.827 389.679C548.196 389.343 547.008 388.793 546.187 388.455C545.365 388.118 544.693 387.223 544.693 386.467C544.693 384.376 545.883 384.813 548.032 387.69C549.1 389.119 549.457 390.014 548.827 389.679ZM328.744 389.067C329.241 389.067 329.411 388.62 329.121 388.074C328.83 387.527 328.424 387.08 328.217 387.08C328.009 387.08 327.84 387.527 327.84 388.074C327.84 388.62 328.247 389.067 328.744 389.067ZM314.13 394.037C313.633 394.037 313.463 393.59 313.753 393.043C314.043 392.496 314.45 392.049 314.657 392.049C314.865 392.049 315.034 392.496 315.034 393.043C315.034 393.59 314.627 394.037 314.13 394.037Z" fill="#ecece5"/>
</svg>
