<svg width="1366" height="131" viewBox="0 0 1366 131" xmlns="http://www.w3.org/2000/svg">
<path fill-rule="evenodd" clip-rule="evenodd" d="M1365.99 90.3097C1365.99 66.823 1365.83 50.5377 1365.61 50.8891C1365.29 51.3911 1364.72 51.4052 1362.07 50.9779C1360.33 50.6974 1358.63 50.5557 1358.29 50.6637C1357.95 50.7712 1357.14 50.977 1356.48 51.1209C1355.83 51.2647 1355.4 51.5529 1355.53 51.7616C1355.66 51.9703 1355.08 52.0864 1354.24 52.0203C1353.25 51.9417 1352.78 52.0672 1352.9 52.3772C1353.14 52.9991 1349.1 53.2697 1348.72 52.6572C1348.57 52.4117 1348.24 52.2111 1347.99 52.2111C1347.7 52.2111 1347.68 52.4023 1347.94 52.7447C1348.16 53.038 1348.33 53.6458 1348.31 54.0953C1348.28 55.0515 1347.22 55.5753 1347.22 54.6345C1347.22 54.2029 1346.94 54.0723 1346.34 54.2281C1345.82 54.3643 1345.55 54.6951 1345.69 55.0417C1345.83 55.4178 1345.6 55.6261 1345.04 55.6261C1344.57 55.6261 1344.3 55.8182 1344.44 56.053C1344.59 56.2878 1344.33 56.4798 1343.86 56.4798C1343.4 56.4798 1342.92 56.7202 1342.8 57.0134C1342.63 57.4403 1342.58 57.4403 1342.56 57.0134C1342.51 56.222 1341.67 56.3659 1341.67 57.1658C1341.67 57.5731 1341.43 57.76 1341.08 57.626C1340.76 57.5018 1340.27 57.6222 1340 57.8932C1339.63 58.2659 1339.44 58.1536 1339.26 57.4331C1338.98 56.3667 1338.25 56.1337 1338.25 57.1103C1338.25 57.457 1337.81 58.0307 1337.27 58.385C1336.58 58.8379 1335.91 58.9276 1335.03 58.6872C1333.33 58.2241 1331.13 58.4712 1330.02 59.252C1328.8 60.1023 1328.01 60.066 1328.01 59.1593C1328.01 58.5553 1327.89 58.5933 1327.34 59.3728C1326.58 60.4617 1324.95 60.6205 1324.17 59.6814C1323.87 59.3292 1323.27 59.0411 1322.83 59.0411C1321.98 59.0411 1321.75 59.6729 1322.46 60.1083C1323.09 60.501 1322.97 61.0333 1322.25 61.0333C1321.9 61.0333 1321.51 60.7063 1321.39 60.3068C1321.26 59.9072 1320.82 59.2729 1320.4 58.8968C1319.69 58.2548 1319.65 58.2966 1319.78 59.5875C1319.95 61.3249 1318.56 63.1378 1317.44 62.6478C1317.03 62.4676 1316.55 62.3524 1316.37 62.3916C1316.18 62.4305 1315.85 61.9806 1315.63 61.3919C1315.35 60.6449 1314.9 60.3217 1314.16 60.3217C1313.57 60.3217 1312.39 59.7023 1311.51 58.9344C1310.37 57.9398 1310 57.7754 1310.22 58.3543C1310.48 59.03 1310.42 59.0765 1309.9 58.639C1308.99 57.8894 1305.45 56.8875 1305.19 57.3084C1304.82 57.8937 1301.9 56.6634 1301.06 55.574C1300.63 55.0157 1300.28 54.7988 1300.27 55.0925C1300.26 55.8681 1299.54 55.746 1299.23 54.9132C1299.07 54.5209 1299.16 54.0718 1299.41 53.9152C1300.11 53.4862 1298.81 52.5663 1297.97 52.8898C1297.59 53.0362 1297.27 52.9594 1297.27 52.7191C1297.27 52.4787 1297.49 52.2111 1297.75 52.1244C1298.04 52.0254 1297.96 51.7531 1297.53 51.3962C1297.01 50.9586 1296.85 50.9497 1296.85 51.3573C1296.85 51.7697 1296.7 51.7637 1296.17 51.3304C1295.66 50.9061 1295.43 50.8933 1295.19 51.2779C1294.95 51.6574 1294.67 51.6271 1294.05 51.1576C1292.98 50.3516 1292.54 50.3405 1292.84 51.1277C1292.98 51.4709 1293.45 51.8679 1293.9 52.01C1295.12 52.3985 1294.88 53.0234 1293.54 52.9317C1292.56 52.8646 1292.38 53.0081 1292.47 53.8119C1292.58 54.9153 1291.94 55.1074 1291.55 54.0868C1291.37 53.61 1290.98 53.4785 1290.27 53.6556C1289.65 53.8114 1289.07 53.6795 1288.77 53.3163C1288.5 52.9893 1287.43 52.4728 1286.4 52.168C1285.37 51.8632 1284.62 51.4624 1284.73 51.2771C1284.84 51.0918 1284.64 51.0547 1284.28 51.1943C1283.91 51.3343 1283.61 51.2797 1283.61 51.073C1283.61 50.8669 1282.92 50.3247 1282.07 49.8688C1280.55 49.0471 1280.53 49.0471 1279.92 49.8761C1279.4 50.5949 1279.25 50.6227 1278.91 50.0746C1278.67 49.7023 1278.5 49.646 1278.5 49.9393C1278.49 50.2154 1279.12 50.9565 1279.88 51.5853C1280.74 52.2995 1280.94 52.6136 1280.41 52.4215C1279.94 52.2525 1279.19 52.0083 1278.73 51.8786C1277.97 51.6604 1277.98 51.7437 1278.89 53.0196C1279.83 54.3506 1279.84 54.4155 1279.07 54.9939C1278.63 55.3226 1277.96 55.4955 1277.57 55.3781C1277.18 55.2607 1276.74 55.3572 1276.59 55.5928C1276.42 55.8737 1275.95 55.8511 1275.24 55.5271C1274.41 55.1501 1273.96 55.1544 1273.34 55.5467C1272.88 55.8293 1272.51 55.8997 1272.51 55.7038C1272.51 55.5074 1271.94 55.431 1271.25 55.5335C1270.23 55.6829 1269.76 55.4579 1268.86 54.392C1268.25 53.662 1267.35 53.0648 1266.87 53.0648C1265.7 53.0648 1263.35 54.5593 1262.33 55.9535C1261.59 56.9746 1261.43 57.0254 1260.75 56.4636C1260.06 55.898 1260.01 55.9206 1260.21 56.7061C1260.33 57.1825 1260.17 57.8143 1259.86 58.1101C1259.54 58.4059 1259.28 58.4686 1259.28 58.2497C1259.28 58.0311 1258.98 57.7374 1258.62 57.5974C1258.19 57.4326 1258.06 57.5154 1258.26 57.8326C1258.57 58.3303 1257.83 58.2236 1256.12 57.5231C1255.54 57.2871 1255.39 57.3362 1255.61 57.6879C1255.78 57.9628 1255.78 58.4085 1255.61 58.6787C1255.4 59.0244 1255.15 58.957 1254.78 58.4529C1254.32 57.8245 1254.23 57.8164 1254.01 58.3884C1253.66 59.3019 1252.99 59.2016 1252.66 58.1873C1252.36 57.2192 1251.17 57.0177 1251.17 57.9338C1251.17 58.3171 1250.87 58.4563 1250.35 58.3184C1249.68 58.1442 1249.57 58.2748 1249.76 58.9988C1249.89 59.5141 1249.79 59.8948 1249.51 59.8948C1249.03 59.8948 1248.88 59.3711 1249 58.1873C1249.06 57.6576 1249 57.6486 1248.68 58.1353C1248.46 58.4588 1248.08 58.6035 1247.85 58.4571C1247.61 58.3103 1246.96 58.6667 1246.41 59.2485C1245.28 60.4468 1244.7 60.5518 1243.47 59.7881C1242.77 59.3523 1242.54 59.3651 1242.23 59.856C1242.03 60.1868 1241.97 60.7469 1242.1 61.0999C1242.27 61.5182 1242.18 61.6348 1241.85 61.4337C1241.58 61.2638 1241.34 60.5121 1241.32 59.7629L1241.29 58.4008L1240.79 59.468C1239.97 61.2015 1239.09 62.0292 1238.06 62.0292C1237.4 62.0292 1237.02 62.3506 1236.84 63.0558C1236.65 63.8221 1236.19 64.1559 1235.03 64.3728C1234.18 64.5328 1233.22 65.0481 1232.89 65.5176C1232.5 66.0721 1231.99 66.2928 1231.43 66.1464C1230.96 66.0231 1230.29 66.2002 1229.95 66.5409C1229.61 66.8811 1229.17 67.0587 1228.97 66.9353C1228.77 66.8119 1228.48 66.9156 1228.32 67.1654C1228.13 67.486 1227.88 67.4864 1227.5 67.1671C1227.1 66.8397 1226.81 66.8917 1226.42 67.3558C1226.08 67.763 1225.52 67.9039 1224.87 67.7417C1224.25 67.5867 1223.85 67.6734 1223.85 67.9628C1223.85 68.3115 1223.64 68.3098 1223.08 67.9564C1222.48 67.5846 1222.01 67.6234 1221.04 68.1263C1220.35 68.4848 1219.28 68.6825 1218.66 68.5655C1218.05 68.4481 1217.42 68.5621 1217.26 68.8191C1216.91 69.3766 1214.75 69.4359 1213.71 68.9164C1213.3 68.7132 1212.35 68.3478 1211.59 68.1049C1210.58 67.7801 1210.24 67.7933 1210.31 68.1544C1210.36 68.4247 1209.98 68.6458 1209.45 68.6458C1208.29 68.6458 1208.13 69.3591 1209.2 69.7518C1209.78 69.9665 1209.57 70.1176 1208.33 70.3584C1207.12 70.5945 1206.58 70.5232 1206.3 70.0895C1206.08 69.765 1205.99 69.1636 1206.09 68.7529C1206.29 67.8958 1206.17 67.798 1204.43 67.4177C1203.28 67.1688 1203.23 67.2017 1203.89 67.7259C1204.3 68.0486 1204.64 68.6338 1204.64 69.0265C1204.64 70.0434 1203.5 70.3447 1202.7 69.5409C1201.86 68.7008 1201.23 68.6633 1201.23 69.4538C1201.23 70.4126 1200.02 70.6218 1199.73 69.713C1199.59 69.2673 1199.1 68.7841 1198.64 68.6389C1198.19 68.4938 1197.81 68.0516 1197.8 67.6567C1197.8 67.1073 1197.71 67.0706 1197.44 67.5005C1197.18 67.9094 1196.94 67.7049 1196.54 66.7534C1196.24 66.0333 1195.82 65.4442 1195.6 65.4442C1195.38 65.4442 1194.7 66.0312 1194.1 66.7483C1193.48 67.4872 1192.75 67.95 1192.42 67.8155C1192.1 67.6853 1191.55 67.462 1191.19 67.3195C1190.78 67.153 1190.55 67.3058 1190.55 67.7463C1190.55 68.5087 1189.9 68.6684 1189.49 68.0055C1189.34 67.7707 1188.7 67.5786 1188.07 67.5786C1187.13 67.5786 1186.66 67.1585 1185.57 65.3268C1184.51 63.56 1183.96 63.0537 1183.04 62.9769C1182.39 62.9231 1181.46 62.5197 1180.98 62.0804C1180.49 61.6416 1179.63 61.0418 1179.06 60.7477C1178.18 60.2888 1177.95 60.323 1177.46 60.9898C1177.15 61.4162 1176.89 62.0373 1176.89 62.3699C1176.89 62.766 1176.64 62.8774 1176.16 62.6926C1175.76 62.5376 1175.56 62.5462 1175.73 62.7114C1176.14 63.1267 1174.73 64.1333 1173.71 64.1499C1173.25 64.1576 1172.06 65.0523 1171.06 66.1392C1169.69 67.6349 1169.03 68.0575 1168.35 67.8795C1167.79 67.734 1167.36 67.8757 1167.22 68.2522C1167.09 68.586 1166.72 68.8592 1166.39 68.8592C1166.06 68.8592 1165.8 69.0513 1165.8 69.2861C1165.8 69.9576 1164.52 69.7842 1164.24 69.0756C1164.09 68.6637 1163.67 68.522 1163.06 68.6748C1162.54 68.8046 1161.84 68.9527 1161.5 69.0039C1161.16 69.0547 1160.64 69.2477 1160.35 69.4325C1159.99 69.654 1158.94 68.8741 1157.26 67.1491C1155.85 65.7084 1154.82 64.8538 1154.98 65.25C1155.22 65.8711 1155.13 65.9027 1154.33 65.4788C1153.83 65.2086 1153.42 64.7813 1153.42 64.5298C1153.42 64.278 1153.12 64.1858 1152.76 64.3241C1152.4 64.4628 1152 64.3121 1151.88 63.9898C1151.75 63.6676 1151.23 63.3999 1150.72 63.3952C1150.21 63.3905 1149.42 63.3214 1148.96 63.2415C1148.43 63.1472 1148.05 63.3956 1147.9 63.9501C1147.76 64.4197 1147.32 64.8197 1146.91 64.8393C1144.59 64.9499 1144.19 65.0954 1143.81 65.9778C1143.48 66.7304 1143.02 66.9477 1141.68 66.9818C1139.24 67.0437 1138.11 67.5128 1138.34 68.3717C1138.44 68.7772 1138.05 69.5396 1137.43 70.1168C1136.83 70.6811 1136.34 70.9167 1136.34 70.641C1136.34 70.3652 1136.05 70.1398 1135.7 70.1398C1135.35 70.1398 1135.06 70.428 1135.06 70.7801C1135.06 71.7129 1134.41 71.5639 1133.66 70.46C1133.13 69.6869 1132.9 69.6037 1132.45 70.0331C1131.67 70.7878 1130.89 70.6948 1130.66 69.8197C1130.48 69.1281 1130.46 69.1273 1130.41 69.8064C1130.38 70.2743 1130.13 70.451 1129.72 70.2944C1129.33 70.1411 1129.08 70.2973 1129.08 70.7093C1129.08 71.0726 1129.28 71.4909 1129.52 71.6382C1130.02 71.9455 1129.67 72.7011 1129.03 72.7011C1128.8 72.7011 1128.72 72.5115 1128.87 72.2802C1129.03 72.0249 1128.58 71.9229 1127.73 72.0211C1126.13 72.2085 1124.83 71.7961 1123.8 70.7742C1123.13 70.1014 1122.99 70.13 1121.55 71.2275C1120.58 71.9681 1119.44 72.4155 1118.47 72.4432C1117.23 72.4787 1116.91 72.6575 1116.89 73.3414C1116.88 73.811 1116.72 74.7232 1116.53 75.369C1116.25 76.3146 1115.93 76.543 1114.9 76.543C1113.83 76.543 1113.7 76.6475 1114.12 77.1513C1114.53 77.6481 1114.32 77.8953 1113 78.5044C1112.1 78.9142 1111.1 79.4572 1110.77 79.7108C1110.07 80.2444 1108.22 80.439 1104.34 80.3874C1102.48 80.3626 1101.34 80.1334 1100.85 79.6856C1100.44 79.3198 1099.89 79.1546 1099.63 79.3189C1099.34 79.4944 1099.05 79.2481 1098.91 78.7204C1098.67 77.8159 1097.92 77.4586 1097.92 78.2505C1097.92 78.4852 1097.63 78.6773 1097.28 78.6773C1096.93 78.6773 1096.64 78.5032 1096.64 78.2906C1096.64 78.0776 1096.31 77.9755 1095.89 78.0639C1095.4 78.1706 1094.39 77.3365 1092.89 75.5692C1091.64 74.1093 1090.47 72.655 1090.27 72.3378C1090.04 71.9528 1088.84 71.7227 1086.68 71.6467C1083.98 71.5519 1083.32 71.6642 1082.73 72.3203C1082.33 72.7536 1081.86 73.0131 1081.67 72.8974C1081.49 72.7818 1081.21 72.8825 1081.07 73.1211C1080.92 73.3597 1080.28 73.5548 1079.64 73.5548C1078.94 73.5548 1078.28 73.8993 1077.94 74.4385C1077.58 75.0203 1076.99 75.2965 1076.24 75.247C1075.6 75.2056 1074.89 75.2205 1074.66 75.2803C1074.42 75.34 1073.87 75.4083 1073.43 75.4322C1072.98 75.4561 1072.41 75.8591 1072.15 76.3278C1071.88 76.7961 1071.34 77.6823 1070.94 78.297C1070.53 78.9113 1070.24 79.4914 1070.3 79.5866C1070.35 79.6813 1070.21 79.6113 1069.98 79.4316C1069.3 78.8788 1068.9 79.0649 1068.9 79.9328C1068.9 80.3887 1068.7 80.88 1068.47 81.0251C1068.22 81.1788 1068.04 80.7532 1068.04 80.0083C1068.04 78.5488 1067.32 77.8142 1067.11 79.0624C1066.99 79.8192 1066.85 79.8418 1065.48 79.3398C1064.66 79.0389 1063.65 78.6491 1063.23 78.4741C1062.65 78.2253 1062.54 78.3123 1062.76 78.8686C1062.95 79.3663 1062.76 79.6527 1062.13 79.8162C1061.64 79.9447 1061.13 80.3865 1061 80.7976C1060.71 81.7034 1061.14 82.9461 1061.74 82.9461C1061.99 82.9461 1061.94 83.2171 1061.64 83.5864C1061.04 84.3099 1059.93 84.4482 1059.93 83.7998C1059.93 83.565 1059.65 83.3729 1059.3 83.3729C1058.9 83.3729 1058.77 83.1249 1058.94 82.6904C1059.16 82.1038 1059.08 82.0834 1058.34 82.5452C1057.61 83.0011 1057.28 82.9427 1056.18 82.1606C1054.65 81.07 1053.6 80.9812 1053.24 81.9118C1052.93 82.7254 1050.93 83.5638 1050.57 83.0285C1050.44 82.8206 1049.8 82.5213 1049.15 82.3634C1048.27 82.1465 1047.98 82.2328 1047.98 82.7164C1047.98 83.4255 1046.16 84.0461 1045.42 83.5898C1045.16 83.4301 1044.49 83.6018 1043.93 83.9719C1043.23 84.4252 1042.81 84.4956 1042.62 84.1874C1042.46 83.936 1041.91 83.8378 1041.39 83.9693C1040.77 84.123 1040.11 83.9091 1039.53 83.3678C1039.04 82.9059 1038.54 82.6763 1038.43 82.8581C1038.23 83.1727 1030.58 83.1352 1028.34 82.8082C1027.75 82.7224 1027.06 82.6225 1026.8 82.5858C1026.54 82.5491 1025.84 82.0872 1025.24 81.5587C1021.66 78.4191 1021.26 78.1915 1019.48 78.2641C1017.45 78.3473 1016.84 78.3166 1015.32 78.0524C1013.01 77.6503 1011.7 76.9626 1011.69 76.1506C1011.68 75.6781 1011.58 75.629 1011.36 75.9867C1011.15 76.3103 1010.25 76.4396 1008.9 76.3393C1007.72 76.2518 1006.58 76.125 1006.35 76.0576C1005.56 75.8254 1004.01 77.0006 1004.01 77.8287C1004.01 78.2846 1003.52 78.977 1002.93 79.3671C1001.9 80.0416 1001.8 80.0318 1000.87 79.1661C1000.34 78.6649 998.955 78.0443 997.795 77.7864C995.404 77.255 991.567 76.858 992.378 77.2255C993.003 77.5094 993.101 78.6773 992.499 78.6773C992.067 78.6773 991.303 77.4859 991.267 76.7564C991.242 76.2377 988.643 75.6465 988.643 76.1592C988.643 76.3585 988.025 76.3982 987.271 76.2471C985.7 75.9329 984.134 74.5294 983.503 72.8697C983.264 72.2422 982.963 71.8349 982.833 71.9651C982.703 72.0949 982.82 72.6183 983.093 73.1279C983.366 73.6376 983.513 74.1311 983.42 74.2246C983.326 74.3176 982.426 73.6022 981.419 72.6349C980.123 71.3889 979.493 71.0294 979.261 71.4038C979.007 71.8166 978.667 71.7918 977.712 71.292C976.603 70.7105 976.349 70.7234 974.958 71.4328C973.583 72.1346 973.438 72.3707 973.546 73.7384C973.636 74.8824 973.501 75.2623 973.004 75.2623C972.639 75.2623 972.241 75.6465 972.118 76.1161C971.99 76.6065 971.536 76.9698 971.051 76.9698C970.566 76.9698 970.112 77.3331 969.984 77.8236C969.86 78.2961 969.402 78.6773 968.956 78.6773C968.514 78.6773 968.153 78.8694 968.153 79.1042C968.153 79.339 967.864 79.5311 967.512 79.5311C967.16 79.5311 966.872 79.2369 966.872 78.8775C966.872 78.0003 965.726 77.6071 964.979 78.2274C964.519 78.609 964.182 78.6043 963.545 78.2065C962.85 77.7723 962.493 77.8436 961.378 78.638C960.643 79.1614 960.042 79.7889 960.042 80.0335C960.042 80.2926 959.603 80.3669 958.986 80.2124C958.158 80.0045 957.984 80.0869 958.178 80.5931C958.359 81.0648 958.134 81.2386 957.341 81.2386C956.744 81.2386 955.781 81.058 955.201 80.8377C954.621 80.6175 953.608 80.5812 952.949 80.7575C952.063 80.994 951.927 81.1455 952.426 81.3372C952.799 81.4802 953.994 81.7303 955.083 81.8938C957.246 82.2182 957.987 82.8423 956.918 83.4404C956.521 83.6628 956.334 84.1302 956.471 84.5579C956.642 85.0885 956.597 85.1411 956.313 84.7458C955.791 84.0214 954.493 84.546 954.493 85.4808C954.493 86.3756 952.305 87.6848 952.054 86.9399C951.869 86.3892 950.224 86.6812 950.224 87.2648C950.224 87.4718 949.756 87.6417 949.185 87.6417C948.522 87.6417 948.049 87.9499 947.876 88.4954C947.53 89.5848 946.369 89.604 946.086 88.5249C945.968 88.0716 945.626 87.7945 945.328 87.9093C945.029 88.0237 944.679 87.8423 944.55 87.5059C944.421 87.17 943.816 86.8947 943.206 86.8947C942.252 86.8947 942.17 86.9916 942.621 87.5883C942.908 87.97 943.559 88.667 944.067 89.1379L944.99 89.9933L943.125 90.0655C941.481 90.1291 941.256 90.0275 941.226 89.21C941.207 88.6995 941.095 88.5232 940.976 88.8182C940.826 89.1891 940.529 89.0683 940.009 88.4267C938.956 87.1264 937.845 87.6468 937.841 89.4427C937.838 90.5449 937.593 90.9568 936.689 91.3768C936.057 91.6705 935.381 91.9104 935.188 91.9104C934.994 91.9104 934.614 91.382 934.345 90.7365L933.854 89.5626L933.608 91.0567C933.373 92.4863 933.27 92.5618 931.228 92.8103C930.054 92.9529 928.95 92.9896 928.773 92.8918C928.597 92.7941 928.453 92.9422 928.453 93.2218C928.453 93.5654 927.962 93.65 926.934 93.483C925.169 93.1966 924.184 93.4775 924.184 94.2685C924.184 94.5758 923.944 94.9242 923.651 95.0428C923.357 95.1611 923.657 95.2734 924.316 95.2917C925.071 95.3131 925.408 95.4987 925.226 95.7933C925.067 96.0507 924.383 96.18 923.707 96.0806C923.031 95.9815 922.477 96.0588 922.477 96.253C922.477 96.4473 922.163 96.6061 921.78 96.6061C921.396 96.6061 920.713 97.0321 920.262 97.5529C919.755 98.1373 919.327 98.3302 919.145 98.0566C918.982 97.8128 917.984 97.6361 916.928 97.6639C913.713 97.7475 911.612 98.6738 913.192 99.3116C913.619 99.4836 913.619 99.5336 913.192 99.5605C912.899 99.5788 912.659 99.9784 912.659 100.448C912.659 101.931 911.154 101.436 909.9 99.5413L908.735 97.7808L908.207 98.7942C907.917 99.3517 907.456 99.7594 907.181 99.7009C906.907 99.642 906.683 99.9656 906.683 100.419C906.683 101.166 905.792 101.768 904.809 101.687C904.601 101.67 904.276 101.906 904.087 102.211C903.839 102.613 903.626 102.457 903.318 101.649C902.768 100.203 901.767 99.5097 902.2 100.875C902.429 101.595 902.369 101.751 901.96 101.498C901.571 101.258 901.494 101.368 901.691 101.882C901.931 102.505 901.842 102.535 901.037 102.104C900.343 101.732 900.066 101.73 899.944 102.094C899.855 102.362 899.39 102.582 898.911 102.582C898.186 102.582 898.129 102.689 898.572 103.223C899.192 103.97 898.856 104.045 897.69 103.421C897.053 103.08 896.864 103.118 896.864 103.588C896.864 104.297 895.012 104.864 893.875 104.503C893.329 104.33 893.007 104.519 892.815 105.126C892.591 105.831 892.156 106.005 890.539 106.04C888.993 106.073 888.782 106.151 889.608 106.384L890.675 106.686L889.669 106.954C889.115 107.101 888.179 107.038 887.589 106.814C886.539 106.415 885.659 106.764 884.812 107.918C884.616 108.184 884.496 108.147 884.491 107.82C884.488 107.531 883.724 106.907 882.795 106.433C881.669 105.859 880.27 105.57 878.608 105.57C876.541 105.57 875.879 105.763 874.758 106.692C874.013 107.31 873.501 107.972 873.62 108.165C873.74 108.358 873.469 108.712 873.02 108.953C872.571 109.193 872.085 109.863 871.94 110.442C871.77 111.12 871.396 111.472 870.886 111.434C870.348 111.393 870.16 111.13 870.297 110.607C870.407 110.185 870.283 109.839 870.021 109.839C869.759 109.839 869.544 110.223 869.544 110.693C869.544 111.162 869.4 111.563 869.224 111.582C869.048 111.602 868.424 111.7 867.837 111.8C867.25 111.9 866.578 112.01 866.343 112.045C866.108 112.079 865.484 111.968 864.955 111.799C864.236 111.567 863.995 111.657 863.995 112.158C863.995 112.526 864.263 112.827 864.59 112.827C864.917 112.827 865.295 113.115 865.43 113.468C865.617 113.954 865.345 114.111 864.302 114.122C863.546 114.129 862.555 114.417 862.099 114.762C861.643 115.106 860.947 115.389 860.551 115.389C860.155 115.389 859.619 115.644 859.36 115.956C859.059 116.318 857.998 116.509 856.426 116.483C855.072 116.46 853.49 116.679 852.912 116.968C852.27 117.289 851.764 117.336 851.61 117.087C851.451 116.83 850.818 116.835 849.889 117.102C849.081 117.333 848.103 117.523 847.716 117.523C847.329 117.523 846.086 116.757 844.953 115.821C843.257 114.419 842.829 114.232 842.533 114.762C842.334 115.117 841.988 115.293 841.764 115.155C841.54 115.016 841.459 114.737 841.584 114.535C842.027 113.818 840.806 113.562 840.293 114.264C839.819 114.911 839.707 114.878 839.067 113.902C838.68 113.311 838.003 112.827 837.565 112.827C837.125 112.827 836.648 112.519 836.504 112.143C836.357 111.759 835.966 111.563 835.617 111.698C834.814 112.006 833.764 110.952 833.415 109.489C833.026 107.857 832.406 107.22 831.49 107.511C830.986 107.671 830.601 107.518 830.437 107.094C830.296 106.726 829.936 106.424 829.638 106.424C829.34 106.424 828.859 106.138 828.568 105.789C828.278 105.439 827.855 105.268 827.627 105.408C827.4 105.549 826.665 105.138 825.994 104.494C825.323 103.851 824.502 103.429 824.17 103.557C823.838 103.684 823.086 103.343 822.499 102.799C821.913 102.255 820.245 101.506 818.794 101.134C817.343 100.762 816.018 100.478 815.85 100.503C814.887 100.647 814.414 100.377 814.632 99.8076C814.775 99.4341 814.638 99.1673 814.304 99.1673C813.989 99.1673 813.082 99.0435 812.29 98.8924L810.849 98.6175L811.813 99.671C812.344 100.251 812.647 100.855 812.488 101.014C812.12 101.382 810.636 100.061 810.636 99.3645C810.636 98.7229 808.867 98.2038 808.372 98.6994C808.175 98.8962 808.507 99.446 809.111 99.9207C809.715 100.396 810.209 100.997 810.209 101.256C810.209 101.516 810.535 101.729 810.934 101.729C811.502 101.729 811.548 101.841 811.144 102.245C810.74 102.649 810.358 102.602 809.392 102.032C808.712 101.63 807.919 101.302 807.629 101.302C807.338 101.302 806.852 100.965 806.547 100.555C806.024 99.8494 805.956 99.8554 805.34 100.661C804.98 101.131 804.68 101.289 804.673 101.012C804.665 100.735 804.349 100.198 803.968 99.8179C803.331 99.181 803.214 99.1839 802.474 99.8537C802.033 100.253 801.671 100.833 801.671 101.141C801.671 101.466 801.4 101.597 801.025 101.454C800.67 101.317 800.094 101.443 799.745 101.733C799.119 102.253 799.055 102.213 798.95 101.23C798.92 100.957 798.656 100.652 798.363 100.555C798.028 100.443 797.829 100.787 797.829 101.48C797.829 102.692 796.984 103.039 796.962 101.835C796.955 101.424 796.667 100.715 796.322 100.26C795.709 99.4499 795.695 99.4525 795.695 100.366C795.695 100.881 795.566 101.302 795.409 101.302C795.251 101.302 794.759 100.973 794.315 100.572C793.672 99.9895 793.439 99.9549 793.163 100.4C792.755 101.06 791.213 100.868 791.213 100.158C791.213 99.887 791.083 99.5361 790.926 99.3782C790.768 99.2202 790.749 98.3878 790.883 97.5285L791.128 95.9657L790.204 96.7845C789.696 97.2348 789.374 97.9072 789.49 98.2785C789.605 98.6499 789.544 99.2014 789.353 99.5041C788.889 100.244 787.266 99.604 785.909 98.1454C785.34 97.5336 784.572 97.0269 784.202 97.0193C783.221 96.9996 781.903 95.8846 782.231 95.3532C782.388 95.0988 782.018 94.7086 781.395 94.4717C780.78 94.2377 780.4 93.8454 780.552 93.6C780.704 93.3545 780.584 92.8594 780.285 92.4995C779.986 92.1401 779.344 91.0439 778.857 90.0638C778.261 88.8642 777.649 88.2359 776.984 88.1415C776.179 88.0271 774.254 88.6743 772.563 89.6288C772.4 89.7201 771.584 89.1946 770.748 88.4604C769.913 87.7266 769.229 87.3382 769.229 87.5973C769.229 87.8564 768.929 88.0685 768.563 88.0685C768.197 88.0685 768.01 88.2508 768.148 88.4741C768.286 88.6969 768.009 89.0879 767.533 89.3428C766.873 89.6962 766.664 89.6762 766.654 89.2574C766.645 88.9048 766.438 88.9752 766.073 89.4559C765.5 90.211 764.711 90.5239 765.144 89.8243C765.502 89.2442 764.263 88.413 762.942 88.3481C762.259 88.3144 761.127 87.7048 760.264 86.9057C759.326 86.0366 758.496 85.6076 758.034 85.7532C757.63 85.8804 756.603 85.655 755.754 85.2516C754.527 84.6698 754.139 84.6309 753.871 85.0651C753.685 85.3656 753.271 85.5184 752.95 85.4044C752.065 85.0902 750.275 86.154 749.615 87.3864C749.185 88.1898 748.885 88.3669 748.498 88.0455C748.126 87.7369 747.892 87.7706 747.713 88.1573C747.512 88.5932 747.406 88.597 747.209 88.1753C746.839 87.3826 746.271 87.5285 745.964 88.4954C745.813 88.9727 745.318 89.3492 744.843 89.3492C744.303 89.3492 744.105 89.531 744.301 89.8486C744.509 90.185 744.377 90.2584 743.896 90.074C743.437 89.8977 742.994 90.1005 742.656 90.6417C742.04 91.6278 740.407 91.8216 740.774 90.865C740.933 90.4514 740.807 90.325 740.393 90.4838C740.053 90.6144 739.438 90.5747 739.027 90.3954C738.616 90.2166 737.637 90.0138 736.851 89.9447C736.065 89.8755 734.967 89.5212 734.412 89.1571C733.856 88.7934 733.058 88.4946 732.639 88.4933C732.22 88.4924 731.301 87.9537 730.597 87.2963C728.959 85.7677 728.283 85.5278 726.978 86.0123C726.108 86.3354 726.033 86.4793 726.552 86.8255C727.023 87.1405 726.859 87.2156 725.901 87.1239C725.097 87.047 724.665 86.7879 724.74 86.4281C724.831 85.9944 724.449 85.912 723.177 86.09C721.992 86.2556 721.341 86.1412 720.977 85.7028C720.693 85.3604 720.196 85.0804 719.873 85.0804C719.549 85.0804 719.284 84.7539 719.284 84.3547C719.284 83.4267 718.63 84.0969 718.223 85.4428C717.962 86.3034 718.039 86.4076 718.762 86.1779C719.38 85.9816 719.666 86.1416 719.832 86.776C720.04 87.5725 719.859 87.6417 717.568 87.6417C715.93 87.6417 714.859 87.424 714.441 87.0056C713.814 86.3785 712.149 86.3751 710.64 86.9979C710.229 87.1674 709.557 87.1666 709.146 86.9958C707.812 86.4417 705.992 86.5587 705.269 87.2451C704.561 87.9183 704.305 87.9033 700.325 86.9574C699.253 86.7025 699.121 86.7657 699.371 87.4167C699.598 88.0084 699.485 88.1257 698.848 87.9588C698.401 87.8419 697.774 87.9119 697.454 88.1142C697.003 88.4002 697.043 88.4839 697.635 88.489C698.265 88.4941 698.318 88.644 697.941 89.3492C697.689 89.8187 697.278 90.2029 697.027 90.2029C696.776 90.2029 695.621 89.7261 694.46 89.143C693.3 88.5599 692.466 88.2717 692.609 88.5027C692.912 88.9927 692.256 89.0721 691.786 88.6021C691.611 88.4258 691.338 88.2692 691.182 88.2538C690.504 88.1868 687.696 86.598 687.696 86.2821C687.696 86.0908 687.407 85.9342 687.055 85.9342C686.703 85.9342 686.412 86.1741 686.409 86.4678C686.404 86.8233 686.264 86.7879 685.988 86.361C685.712 85.9342 685.572 85.8987 685.568 86.2543C685.563 86.6406 684.518 86.7879 681.785 86.7879C679.174 86.7879 677.585 86.9992 676.636 87.4726C675.881 87.8496 675.15 88.0446 675.012 87.9063C674.874 87.768 674.498 87.9883 674.178 88.3955C673.858 88.8023 673.647 88.9436 673.709 88.7089C673.833 88.2423 673.519 88.0685 672.555 88.0685C672.167 88.0685 672.024 88.3183 672.179 88.7229C672.396 89.2868 672.271 89.3048 671.281 88.854C670.494 88.495 670.041 88.4711 669.843 88.7776C669.684 89.0239 668.929 89.2399 668.166 89.2587C667.068 89.2851 666.779 89.1204 666.779 88.4668C666.779 87.8504 666.48 87.6417 665.599 87.6417C664.429 87.6417 664.267 87.4696 662.957 84.8341C662.1 83.1087 662.14 83.1317 661.5 84.0068C660.805 84.9579 659.541 84.6057 659.218 83.3708C659.095 82.9025 658.856 82.5192 658.684 82.5192C658.514 82.5192 658.032 82.8974 657.613 83.3593C657.004 84.0329 656.683 84.108 655.995 83.7396C655.523 83.4869 654.486 83.3857 653.691 83.5146C652.838 83.6529 652.348 83.5846 652.494 83.3477C652.63 83.1266 652.55 82.946 652.315 82.946C652.08 82.946 651.959 82.5729 652.047 82.117C652.151 81.5749 652.016 81.3611 651.656 81.4989C651.334 81.6223 650.884 81.1719 650.569 80.4125C650.273 79.6988 649.849 79.228 649.626 79.3658C649.402 79.5041 649.11 79.1985 648.976 78.6875C648.843 78.1761 648.294 77.5909 647.757 77.3868C647.211 77.1794 646.719 76.5826 646.642 76.0324C646.529 75.2358 646.279 75.0749 645.328 75.1863C644.487 75.2845 644.154 75.1329 644.154 74.6527C644.154 73.7119 643.419 73.8169 642.874 74.8354C642.267 75.9696 641.343 75.9184 640.943 74.7287C640.631 73.8024 640.613 73.8101 640.437 74.9421C640.232 76.2701 639.459 76.5506 639.459 75.2973C639.459 74.1819 639.022 73.1279 638.559 73.1279C638.35 73.1279 638.178 73.6081 638.178 74.1951C638.178 74.7821 637.986 75.2623 637.751 75.2623C637.516 75.2623 637.324 74.9801 637.324 74.6352C637.324 74.2544 637.074 74.1046 636.687 74.2532C636.336 74.388 636.155 74.6698 636.285 74.8802C636.689 75.5338 633.725 75.2986 632.724 74.5976C632.202 74.2322 631.775 73.4959 631.775 72.9614C631.775 71.656 631.4 71.3628 630.409 71.893C629.738 72.2524 629.385 72.123 628.537 71.2083C627.963 70.588 627.603 69.902 627.738 69.6835C627.873 69.4649 627.678 69.286 627.305 69.286C626.931 69.286 626.515 69.5729 626.381 69.9238C626.246 70.2747 625.976 70.4629 625.78 70.3417C625.584 70.2209 625.257 70.4211 625.052 70.7874C624.744 71.338 624.576 71.2475 624.079 70.2627C623.749 69.6079 623.423 68.9906 623.354 68.8903C623.285 68.79 622.969 69.0632 622.651 69.4973C622.095 70.2589 622.047 70.2546 621.294 69.3748C620.709 68.6914 620.373 68.5796 619.954 68.927C619.647 69.1819 619.396 69.6553 619.396 69.9784C619.396 70.9888 618.544 70.6217 618.036 69.3928C617.769 68.7473 617.588 68.0545 617.634 67.8539C617.68 67.6528 617.475 67.1952 617.177 66.8366C616.705 66.2676 616.606 66.3116 616.4 67.1828C616.209 67.9909 615.849 68.2009 614.509 68.2867C613.599 68.3452 612.718 68.6137 612.551 68.8835C612.328 69.2438 612.015 69.2502 611.374 68.9065C610.717 68.5552 610.456 68.5697 610.325 68.9654C610.198 69.3454 609.951 69.2937 609.437 68.7793C609.044 68.387 608.724 67.7706 608.724 67.4091C608.724 67.0168 608.48 66.8452 608.118 66.9839C607.382 67.2665 605.221 65.9308 605.551 65.3976C605.68 65.1885 605.582 65.0173 605.334 65.0173C605.085 65.0173 604.882 65.2094 604.882 65.4442C604.882 65.6789 604.669 65.871 604.409 65.871C604.149 65.871 604.04 65.6017 604.166 65.273C604.305 64.9114 604.053 64.5849 603.529 64.4478C603.052 64.3232 602.788 64.0158 602.943 63.7653C603.11 63.4955 602.844 63.3098 602.289 63.3098C601.775 63.3098 600.984 62.8838 600.532 62.363C599.841 61.5664 599.648 61.5156 599.315 62.0428C599.097 62.3873 598.913 62.4774 598.906 62.2426C598.898 62.0078 598.706 62.1039 598.479 62.456C598.213 62.8667 598.063 62.9085 598.058 62.5726C598.051 61.9848 595.264 60.527 593.338 60.1044C592.502 59.9204 592.076 59.9951 592.076 60.3251C592.076 60.67 591.55 60.7349 590.367 60.5351C588.952 60.296 588.701 60.3562 588.904 60.8856C589.062 61.2988 588.813 61.6317 588.2 61.8264C586.757 62.2844 583.978 62.1444 583.297 61.5797C582.902 61.2514 581.988 61.1767 580.661 61.3641C579.543 61.522 578.293 61.7491 577.882 61.8686C577.413 62.0057 577.135 61.8554 577.135 61.4648C577.135 61.1229 576.741 60.3895 576.261 59.8354L575.387 58.8276L575.654 60.2149C575.881 61.3901 575.797 61.6023 575.106 61.6023C574.657 61.6023 574.145 61.458 573.969 61.2821C573.793 61.1058 573.442 60.962 573.189 60.962C572.936 60.962 572.52 60.3515 572.264 59.6054C571.575 57.5956 571 57.2938 571.329 59.1145C571.661 60.9534 571.042 61.5882 569.913 60.5667C569.488 60.1816 568.836 59.9938 568.446 60.1436C568.06 60.2918 567.408 60.2666 566.997 60.0873C566.586 59.9084 565.603 59.7052 564.812 59.6361C564.022 59.5665 563.062 59.2417 562.678 58.9134C561.785 58.1489 560.354 57.6264 560.703 58.192C561.227 59.0393 560.335 58.5787 558.618 57.115C555.013 54.0423 554.83 53.9292 553.868 54.1708C553.234 54.33 552.833 54.184 552.658 53.7303C552.433 53.1433 550.688 52.1414 549.702 52.0334C549.523 52.0138 549.084 51.435 548.727 50.7468C548.37 50.0592 547.701 49.2319 547.239 48.9087C546.778 48.5852 546.4 48.0563 546.4 47.7335C546.4 46.9148 544.781 46.4841 544.034 47.1035C543.694 47.3856 543.011 47.5099 542.515 47.3805C542.019 47.2507 541.178 47.3101 540.646 47.5124C540.049 47.7391 539.509 47.7109 539.237 47.4386C538.934 47.1351 538.817 47.2328 538.863 47.7532C538.958 48.8332 536.662 50.0506 534.366 50.1373C532.896 50.1932 532.18 49.9862 531.433 49.2899C530.89 48.7836 530.31 48.3692 530.145 48.3692C529.979 48.3692 529.73 47.9115 529.589 47.3519C529.449 46.7923 528.758 45.7183 528.055 44.9653C527.352 44.2122 526.581 42.8932 526.344 42.0339C525.798 40.0566 523.855 38.6244 522.075 38.8857C521.372 38.989 520.901 39.2443 521.03 39.4526C521.383 40.0237 520.502 39.9076 519.857 39.2981C519.22 38.6949 517.013 37.7972 514.856 37.2636C514.058 37.0668 513.245 36.6514 513.048 36.3407C512.851 36.0303 512.687 35.9783 512.683 36.2246C512.68 36.4713 512.886 36.8815 513.141 37.1368C513.475 37.471 513.475 37.6811 513.141 37.8877C512.886 38.0456 512.677 37.9893 512.677 37.7626C512.677 37.5359 512.312 37.4458 511.867 37.5624C511.421 37.6785 510.65 37.5564 510.153 37.2905C508.766 36.5481 509.198 37.731 510.649 38.6492C511.295 39.0582 511.823 39.5614 511.823 39.768C511.823 39.9806 511.035 39.9913 510.009 39.7928C509.011 39.5999 508.028 39.4338 507.825 39.4236C507.621 39.4133 507.551 39.0351 507.67 38.583C507.832 37.9619 507.714 37.8219 507.186 38.0089C506.802 38.1451 506.264 38.4281 505.992 38.6377C505.72 38.8473 504.567 38.9092 503.431 38.7751C500.914 38.478 499.871 38.1732 499.871 37.7344C499.871 37.1795 496.231 38.2881 495.433 39.0855C494.653 39.8654 493.664 40.1219 494.089 39.4342C494.225 39.2157 494.16 38.9288 493.946 38.7965C493.732 38.6641 493.447 38.843 493.312 39.1939C493.178 39.5448 492.76 39.8316 492.383 39.8316C492.007 39.8316 491.411 40.1198 491.059 40.472C490.304 41.2262 489.626 41.3061 489.626 40.6397C489.626 40.3738 489.314 40.2867 488.913 40.4408C488.52 40.5911 488.088 40.5432 487.952 40.3345C487.816 40.1258 486.936 39.824 485.997 39.6639C484.775 39.456 484.472 39.497 484.93 39.8094C485.457 40.168 485.403 40.2466 484.625 40.2521C484.105 40.2555 483.471 39.8688 483.216 39.3928C482.961 38.9169 482.57 38.6398 482.347 38.7777C482.124 38.9156 481.942 38.7388 481.942 38.385C481.942 37.7455 480.171 35.5629 479.652 35.5629C479.503 35.5629 479.381 35.9356 479.381 36.3915C479.381 36.8474 479.218 37.3203 479.02 37.4424C478.369 37.8458 475.539 36.8222 475.539 36.1831C475.539 35.469 474.02 35.3388 473.601 36.0167C473.447 36.2664 473.676 36.8717 474.11 37.3626C474.896 38.2514 474.893 38.2535 473.404 37.9436C472.583 37.7728 471.718 37.594 471.483 37.5462C471.249 37.4988 470.851 37.3314 470.6 37.1743C470.349 37.0173 469.407 36.9801 468.506 37.092C467.249 37.2478 466.65 37.0894 465.926 36.4094C465.408 35.9223 464.814 35.5556 464.605 35.5941C463.566 35.7862 462.733 35.4984 462.733 34.9478C462.733 34.1013 461.913 33.671 460.504 33.7786C459.785 33.8332 459.316 33.656 459.314 33.3286C459.312 33.0315 458.832 32.5662 458.247 32.2947C457.364 31.8854 457.183 31.9114 457.183 32.4476C457.183 32.9056 456.902 33.0238 456.219 32.8522C455.689 32.7191 454.968 32.7916 454.618 33.0127C454.193 33.2817 454.159 33.4174 454.515 33.4221C454.808 33.4255 455.049 33.7167 455.049 34.0688C455.049 34.9239 454.017 34.8833 453.287 33.9993C452.79 33.3974 452.791 33.2595 453.295 33.09C453.658 32.9679 453.326 32.6456 452.441 32.261C451.131 31.6916 451.075 31.5989 451.847 31.2796C452.659 30.9445 452.654 30.9258 451.74 30.8972C450.935 30.872 450.78 31.0914 450.78 32.2567C450.78 33.487 450.598 33.7034 449.193 34.1431C448.01 34.5136 447.385 34.5171 446.739 34.158C446.262 33.893 445.654 33.7196 445.389 33.7726C445.124 33.8259 444.813 33.5109 444.699 33.0734C444.575 32.5995 443.953 32.1701 443.164 32.0122C442.153 31.8098 441.683 31.3765 441.186 30.1877C440.643 28.8879 440.43 28.7154 439.907 29.15C439.406 29.5657 439.148 29.541 438.634 29.027C438.279 28.6723 437.754 28.3039 437.467 28.2083C437.062 28.0729 437.075 27.4979 437.529 25.6069C437.849 24.2712 437.994 23.061 437.85 22.9172C437.706 22.7737 437.462 23.1588 437.308 23.7735C437.014 24.9444 435.839 25.3422 435.839 24.2708C435.839 23.0806 434.887 21.5405 434.292 21.7689C433.969 21.8927 433.705 21.7817 433.705 21.5217C433.705 21.2617 433.43 21.0491 433.093 21.0491C432.757 21.0491 432.345 20.6176 432.178 20.0904C431.842 19.0317 430.696 18.0234 430.187 18.3381C430.008 18.4486 429.677 18.055 429.453 17.4634C428.974 16.2041 427.254 14.3775 426.716 14.5568C426.511 14.6251 426.444 14.4193 426.567 14.0992C426.689 13.7795 426.448 13.3044 426.031 13.0435C425.075 12.4463 423.496 9.22514 423.168 7.20047C423.031 6.35355 422.757 5.56169 422.561 5.44003C422.364 5.31879 421.75 5.51602 421.197 5.87886C420.074 6.61479 419.618 6.38983 419.618 5.0981C419.618 4.42321 419.504 4.34424 419.106 4.74251C418.824 5.02425 418.056 5.25477 417.398 5.25477C416.741 5.25477 416.203 5.414 416.203 5.60865C416.203 6.00735 414.399 6.03424 414.069 5.64109C413.951 5.50107 413.139 5.27355 412.262 5.13524C410.65 4.88125 409.643 5.48357 410.645 6.10297C411.465 6.61009 410.38 7.09332 409.126 6.77871C408.33 6.57851 407.792 6.80048 406.91 7.69222C406.269 8.34021 405.649 8.88918 405.531 8.91266C405.414 8.93571 404.777 9.17861 404.116 9.45266C402.311 10.2001 400.039 10.0571 398.848 9.12055C398.268 8.66422 397.517 8.39656 397.18 8.52591C396.815 8.66592 396.567 8.50201 396.567 8.11995C396.567 7.68966 396.035 7.42799 394.949 7.32468C394.06 7.23973 393.004 7.23375 392.602 7.31102C391.944 7.4378 391.937 7.51592 392.533 8.11141C393.394 8.97284 393.105 9.21702 391.826 8.70605C391.264 8.48108 390.978 8.28472 391.19 8.26978C392.053 8.20959 389.98 6.56484 388.732 6.31939C386.833 5.94587 384.882 5.16854 384.514 4.63879C384.328 4.37071 384.198 4.49066 384.194 4.93461C384.184 6.00094 383.534 5.85794 382.518 4.56621C381.406 3.15155 380.346 3.48067 380.346 5.24153C380.346 6.19175 380.147 6.53368 379.599 6.52898C379.111 6.52471 379.024 6.41245 379.349 6.20584C380.094 5.73158 378.867 4.22216 378.005 4.55256C377.546 4.72886 377.202 4.47315 376.928 3.75259C376.345 2.22096 375.516 2.39342 375.863 3.97414C376.018 4.67848 375.986 5.25348 375.791 5.2522C375.596 5.25049 374.918 4.979 374.284 4.6486C373.281 4.12482 373.063 4.1308 372.594 4.69556C372.299 5.052 371.616 5.51089 371.079 5.71537C370.541 5.92027 370.101 6.40092 370.101 6.78383C370.101 7.22095 369.867 7.39085 369.474 7.24016C369.129 7.10783 368.734 7.18339 368.595 7.40792C368.456 7.63246 368.557 7.81601 368.82 7.81601C369.083 7.81601 369.18 8.00597 369.036 8.23861C368.884 8.48449 368.39 8.30222 367.852 7.80107C367.344 7.32809 366.706 7.02715 366.433 7.13173C366.159 7.23674 365.727 7.11338 365.472 6.85811C364.828 6.21481 362.116 5.99154 361.229 6.50892C360.814 6.75138 360.727 6.94177 361.03 6.94946C361.644 6.9644 361.771 8.66976 361.158 8.66976C360.934 8.66976 360.55 8.33338 360.304 7.92273C359.897 7.24357 359.808 7.23759 359.322 7.85614C359.029 8.23008 358.068 8.67105 357.188 8.83582C355.709 9.11243 355.328 9.59181 355.537 10.9109C355.629 11.4991 353.991 11.2395 353.443 10.5792C352.968 10.0072 352.843 10.046 352.42 10.8993C352.154 11.4342 351.488 11.9358 350.938 12.0143C350.388 12.0929 349.843 12.5227 349.726 12.9697C349.609 13.417 349.361 13.6881 349.174 13.5728C348.588 13.2109 347.417 13.8759 347.636 14.4462C347.751 14.7451 347.576 15.3448 347.247 15.7785C346.915 16.2161 346.643 16.3356 346.636 16.0466C346.628 15.7602 346.333 15.6376 345.978 15.7738C345.623 15.91 344.675 15.5198 343.872 14.9068C343.068 14.2938 342.224 13.7923 341.995 13.7923C341.767 13.7923 341.681 14.1764 341.803 14.646C341.958 15.2398 341.816 15.4998 341.337 15.4998C340.957 15.4998 340.633 15.1634 340.616 14.7527C340.59 14.0992 340.546 14.109 340.264 14.8283C339.976 15.5642 339.913 15.5753 339.667 14.935C339.516 14.5414 339.02 14.2191 338.565 14.2191C337.95 14.2191 337.795 14.4364 337.96 15.0665C338.082 15.5326 338.056 16.2395 337.904 16.6378C337.667 17.2534 337.434 17.1518 336.346 15.9604C335.384 14.9077 335.18 14.4202 335.525 14.0036C335.861 13.5989 335.837 13.3961 335.435 13.2561C335.131 13.1502 334.63 13.4678 334.32 13.9617C333.852 14.7092 333.8 14.7241 334.01 14.0522C334.225 13.3637 334.165 13.3257 333.602 13.7927C333.239 14.0941 332.82 14.2191 332.671 14.0702C332.522 13.9216 332.128 14.0258 331.795 14.3019C331.325 14.6925 331.107 14.6708 330.819 14.2038C330.508 13.7018 330.403 13.7171 330.181 14.2968C329.945 14.9102 329.781 14.9213 328.771 14.3937C327.699 13.8341 327.618 13.8567 327.484 14.7544C327.256 16.2822 326.715 16.5089 325.706 15.4998C325.023 14.8168 324.638 14.6887 324.297 15.0302C323.71 15.6167 323.002 15.6492 323.358 15.0729C323.503 14.8381 323.215 14.646 322.718 14.646C322.136 14.646 321.924 14.824 322.122 15.1455C322.34 15.4985 322.192 15.5446 321.614 15.3021C321.164 15.1134 319.755 14.7681 318.483 14.5342C316.487 14.1675 316.097 14.2085 315.64 14.8338C315.149 15.5057 315.09 15.4976 314.845 14.7224C314.554 13.808 312.504 13.1929 311.854 13.8251C311.194 14.4654 310.874 14.2862 310.579 13.1105C310.348 12.1868 310.126 12.0455 309.252 12.2649C308.597 12.4292 308.204 12.3447 308.204 12.0408C308.204 11.6801 308.048 11.6826 307.605 12.0502C307.148 12.4292 306.966 12.4263 306.836 12.0369C306.716 11.6788 306.301 11.7659 305.44 12.3302C304.553 12.9116 304.165 12.9889 304.039 12.6094C303.943 12.3208 303.676 12.0848 303.447 12.0848C303.218 12.0848 303.141 12.2636 303.276 12.4822C303.657 13.0973 302.809 13.4204 301.607 13.1186C301.009 12.9688 300.52 12.5658 300.52 12.2231C300.52 11.7753 300.251 11.6826 299.56 11.8931C299.032 12.054 298.245 12.4975 297.812 12.8787C297.077 13.5246 296.966 13.5003 296.173 12.521C295.432 11.6067 295.273 11.5593 294.94 12.1552C294.685 12.6102 294.09 12.8002 293.163 12.7221C292.396 12.6581 291.769 12.5624 291.769 12.5099C291.769 12.4574 291.21 12.3494 290.526 12.2696C289.843 12.1902 289.17 11.9682 289.032 11.7766C288.894 11.5849 287.532 11.3668 286.006 11.2921C283.757 11.1819 283.021 10.9574 282.12 10.1062C281.315 9.34592 280.491 9.04157 279.132 9.00358C278.1 8.97412 277.015 8.76751 276.722 8.54425C276.428 8.321 276.188 8.30691 276.188 8.51309C276.188 9.04924 273.732 10.0652 273.212 9.7442C272.419 9.25415 271.066 9.13889 271.066 9.56149C271.066 9.78987 270.744 10.1006 270.351 10.2513C269.958 10.402 269.269 10.8929 268.82 11.342C268.275 11.8871 267.672 12.0758 267.009 11.9089C266.461 11.7719 265.946 11.8628 265.863 12.1112C265.766 12.4045 265.284 12.3404 264.488 11.9277C263.323 11.3228 263.176 11.3574 261.406 12.6491C260.384 13.3953 259.434 14.4206 259.294 14.9277C259.135 15.5027 258.291 16.1734 257.049 16.7112C255.227 17.5001 254.995 17.5159 254.311 16.8973C253.9 16.5255 253.564 16.3855 253.564 16.5862C253.564 16.7868 253.357 16.7441 253.104 16.4914C252.775 16.1627 252.354 16.3211 251.629 17.0463C250.426 18.2492 249.495 18.3415 248.918 17.314C248.459 16.4965 248.546 16.3851 247.796 18.7487C247.652 19.2025 247.774 19.3613 248.155 19.2153C248.904 18.9276 249.907 19.5499 249.571 20.0942C249.211 20.6765 247.161 20.6265 247.159 20.0353C247.158 19.7211 246.014 19.5551 243.851 19.5551C240.911 19.5551 240.456 19.4458 239.746 18.5686C239.307 18.026 238.689 17.6815 238.372 17.8032C238.055 17.9244 237.699 17.8659 237.58 17.6725C237.46 17.4796 236.877 17.4147 236.283 17.5283C235.689 17.6418 234.918 17.4984 234.57 17.2094C234.06 16.7859 233.888 16.8137 233.68 17.3541C233.492 17.8446 233.062 17.9607 232.075 17.7874C229.727 17.3746 223.697 15.4421 223.435 15.0182C223.297 14.7946 222.807 14.7309 222.345 14.8774C221.864 15.0302 221.04 14.8381 220.414 14.4283C219.676 13.9442 219.182 13.8529 218.889 14.1461C218.651 14.3843 218.216 14.4872 217.924 14.3749C217.631 14.2627 217.29 14.5585 217.166 15.0328C216.999 15.6709 216.68 15.8438 215.936 15.6987C215.384 15.5911 214.307 15.3849 213.544 15.2406C212.781 15.0959 212.157 14.8069 212.157 14.5986C212.157 14.3899 211.953 14.2191 211.705 14.2191C211.456 14.2191 211.37 14.4091 211.514 14.6413C211.663 14.8829 211.492 14.9546 211.112 14.8091C210.747 14.669 210.449 14.7544 210.449 14.9986C210.449 15.2423 210.052 15.5685 209.565 15.723C208.999 15.9027 208.382 15.7332 207.851 15.2526C207.057 14.5342 206.994 14.5371 206.414 15.3209C205.815 16.1285 205.798 16.1285 205.198 15.3196C204.603 14.5154 204.575 14.5175 203.797 15.4263C202.872 16.5063 202.104 16.6165 201.76 15.7183C201.553 15.1804 201.285 15.2197 200.006 15.974C199.165 16.4705 198.497 16.657 198.497 16.3958C198.497 15.5723 197.325 15.8933 197.092 16.7804C196.814 17.8454 196.168 17.8668 195.146 16.8444C194.43 16.1285 194.312 16.1187 193.881 16.7377C193.456 17.3477 193.316 17.3178 192.572 16.4576C192.049 15.8528 191.677 15.6842 191.57 16.0043C191.449 16.3676 191.105 16.307 190.371 15.7934C189.093 14.8978 188.778 14.891 188.603 15.7542C188.468 16.4209 185.75 17.6149 184.338 17.6277C183.947 17.6311 182.653 17.1453 181.463 16.5477C178.774 15.1971 175.385 14.7327 173.924 15.5147C173.001 16.0086 172.64 15.9638 171.062 15.1591C169.603 14.4155 169.23 14.3549 169.122 14.8454C169.049 15.1792 168.713 15.3465 168.375 15.2172C168.038 15.0874 167.762 15.1941 167.762 15.4541C167.762 15.714 168.05 15.9505 168.402 15.98C168.754 16.0094 169.282 16.0572 169.576 16.0867C170.199 16.149 170.582 18.061 169.972 18.061C169.746 18.061 169.45 17.7729 169.315 17.4207C168.982 16.5524 168.292 16.6118 168.072 17.5274C167.924 18.1421 167.816 18.0879 167.464 17.2222C167.039 16.181 167.029 16.1866 166.512 17.7558C166.224 18.6279 165.726 19.3416 165.405 19.3416C165.085 19.3416 164.513 18.9096 164.134 18.3812L163.445 17.4207L163.711 18.5233C163.953 19.5273 163.859 19.6263 162.668 19.6263C161.948 19.6263 161.356 19.5141 161.352 19.3771C161.349 19.24 161.164 18.8409 160.942 18.49C160.595 17.9419 160.452 17.9696 159.928 18.6872C159.416 19.3864 159.208 19.4325 158.651 18.9702C157.858 18.3124 156.236 18.7158 156.236 19.5704C156.236 19.9606 155.976 20.0729 155.489 19.8931C155.078 19.7412 154.644 19.4739 154.524 19.2985C154.403 19.1231 153.247 19.2255 151.953 19.5265C150.497 19.8645 149.224 19.9333 148.611 19.7066C148.066 19.5047 147.471 19.4317 147.289 19.544C147.108 19.6567 146.628 19.3826 146.224 18.9357C145.575 18.2198 145.037 18.1476 141.684 18.3278C138.94 18.4755 137.881 18.3927 137.881 18.0311C137.881 17.6495 137.735 17.6508 137.27 18.0362C136.782 18.4418 136.565 18.3666 136.188 17.6619C135.848 17.0267 135.295 16.7804 134.209 16.7804C133.38 16.7804 132.318 16.575 131.849 16.324C131.242 15.9988 130.836 16.0005 130.44 16.3292C130.032 16.6672 129.747 16.6267 129.373 16.1763C129.026 15.7571 128.392 15.6385 127.379 15.8028C126.212 15.9924 125.674 15.8365 124.865 15.0767C123.314 13.6198 120.135 13.826 118.751 15.4733C118.331 15.9736 118.136 16.0069 117.969 15.6065C117.847 15.3128 117.389 15.0729 116.954 15.0729C116.517 15.0729 116.042 14.8808 115.897 14.646C115.751 14.4112 115.101 14.2191 114.45 14.2191C113.624 14.2191 113.093 13.8964 112.695 13.1519C112.048 11.9426 111.087 11.7543 110.701 12.7609C110.523 13.2266 110.348 13.2851 110.14 12.9483C109.974 12.6798 109.025 12.4489 108.032 12.4348C107.039 12.4211 106.139 12.1821 106.032 11.9037C105.924 11.6233 105.224 11.4466 104.464 11.5076C102.806 11.6404 100.866 10.805 99.5302 9.38263C98.7191 8.51948 98.256 8.37135 96.9237 8.55021C95.9641 8.6787 95.1842 8.57327 95.01 8.29153C94.8483 8.02986 94.2707 7.81599 93.726 7.81599C93.1817 7.81599 92.4974 7.52785 92.205 7.17568C91.9126 6.8235 91.2108 6.53536 90.6452 6.53536C90.0796 6.53536 89.5063 6.24722 89.3715 5.89505C89.0364 5.02209 86.4904 5.06564 85.7506 5.95653C85.2328 6.58062 85.2747 6.62458 86.1255 6.35479C86.9472 6.09397 87.0825 6.20582 87.0825 7.14708C87.0825 7.74983 86.925 8.24286 86.7325 8.24286C86.5404 8.24286 85.965 7.76263 85.4549 7.17568C84.9443 6.58872 84.6762 6.10849 84.8589 6.10849C85.3913 6.10849 86.706 3.62877 86.3052 3.38118C86.105 3.25739 85.4775 3.48406 84.911 3.88532C84.3446 4.28616 83.1463 4.62637 82.2482 4.64131C81.3462 4.65625 80.4519 4.93203 80.2509 5.2573C79.9491 5.74565 79.3706 5.67392 76.8683 4.8381C75.2077 4.28359 73.8494 3.67317 73.8494 3.4815C73.8494 3.28984 72.9196 3.49943 71.7829 3.94722C70.0574 4.62766 69.2404 4.70279 66.8333 4.4044C64.8598 4.1598 63.6514 3.76622 63.003 3.15664C62.4817 2.66702 61.765 2.26661 61.4103 2.26661C61.0556 2.26661 60.314 2.74685 59.7625 3.3338C58.7308 4.43215 57.4531 4.72669 56.9878 3.97411C56.8427 3.73933 56.0512 3.54724 55.2286 3.54724C54.4061 3.54724 52.6909 3.0542 51.4167 2.45145C48.9446 1.28182 46.7454 1.19515 46.739 2.26661C46.7364 2.69178 46.3061 2.90735 45.4584 2.90863C44.7561 2.90948 43.9306 3.07169 43.6237 3.26891C43.0551 3.63431 40.4119 3.88403 34.4331 4.13717C31.3775 4.26651 30.8785 4.1662 28.6703 2.97907C27.3406 2.26405 26.0019 1.33133 25.695 0.905735C24.9603 -0.113215 23.8141 -0.076936 23.1503 0.985983C22.857 1.45555 22.2321 1.83973 21.7613 1.83973C21.2904 1.83973 20.4985 2.07964 20.0017 2.37333C19.2785 2.8002 19.0591 2.8002 18.9046 2.37333C18.6335 1.62544 16.8181 1.70869 15.5699 2.52658C14.5924 3.16689 14.4015 3.15409 12.7435 2.33363C11.4685 1.70314 10.7508 1.56909 10.2066 1.86022C9.72121 2.12019 9.04335 2.11336 8.32961 1.84187C7.71491 1.60794 6.59782 1.41926 5.84694 1.42225C5.0965 1.42524 3.74242 1.43164 2.83787 1.43633C1.93375 1.44145 0.92547 1.22246 0.596776 0.950117C0.0862337 0.525803 2.57945e-05 9.81418 2.09358e-05 65.392L1.52588e-05 130.329L683 130.329L1366 130.329L1365.99 90.3097ZM844.314 117.914C843.399 117.19 842.651 116.326 842.651 115.993C842.651 115.66 842.803 115.389 842.989 115.389C843.593 115.389 846.939 118.643 846.641 118.941C846.481 119.1 846.266 119.23 846.163 119.23C846.06 119.23 845.228 118.638 844.314 117.914ZM837.529 113.894C837.529 113.542 837.689 113.254 837.884 113.254C838.08 113.254 838.24 113.542 838.24 113.894C838.24 114.247 838.08 114.535 837.884 114.535C837.689 114.535 837.529 114.247 837.529 113.894ZM870.113 112.116C870.27 111.959 870.398 112.088 870.398 112.4C870.398 112.713 870.27 112.841 870.113 112.685C869.957 112.528 869.957 112.272 870.113 112.116ZM882.066 110.835C882.223 110.679 882.351 110.807 882.351 111.12C882.351 111.433 882.223 111.561 882.066 111.405C881.91 111.248 881.91 110.992 882.066 110.835ZM881.475 109.48C880.275 108.509 880.995 107.914 882.281 108.814C883.218 109.471 883.516 110.266 882.825 110.266C882.616 110.266 882.009 109.913 881.475 109.48ZM878.607 109.732C878.369 109.439 878.098 108.815 878.005 108.345C877.909 107.854 877.551 107.539 877.163 107.604C876.792 107.666 876.247 107.425 875.952 107.07C875.493 106.516 875.609 106.424 876.768 106.424C878.335 106.424 880.216 108.044 880.216 109.393C880.216 110.362 879.279 110.56 878.607 109.732ZM891.457 108.701C891.614 108.544 891.87 108.544 892.027 108.701C892.183 108.857 892.055 108.985 891.742 108.985C891.429 108.985 891.301 108.857 891.457 108.701ZM888.642 108.302C888.806 107.679 890.461 107.768 890.461 108.401C890.461 108.76 890.097 108.924 889.501 108.833C888.973 108.753 888.586 108.514 888.642 108.302ZM895.797 106.851C895.942 106.616 896.242 106.424 896.463 106.424C896.684 106.424 896.864 106.616 896.864 106.851C896.864 107.086 896.565 107.278 896.199 107.278C895.833 107.278 895.652 107.086 895.797 106.851ZM879.932 106.566C880.088 106.41 880.344 106.41 880.501 106.566C880.657 106.723 880.529 106.851 880.216 106.851C879.903 106.851 879.775 106.723 879.932 106.566ZM818.319 106.424C818.319 106.189 818.511 105.997 818.746 105.997C818.981 105.997 819.173 106.189 819.173 106.424C819.173 106.659 818.981 106.851 818.746 106.851C818.511 106.851 818.319 106.659 818.319 106.424ZM817.039 105.57C817.039 105.336 817.231 105.144 817.466 105.144C817.7 105.144 817.893 105.336 817.893 105.57C817.893 105.805 817.7 105.997 817.466 105.997C817.231 105.997 817.039 105.805 817.039 105.57ZM913.299 102.155C913.154 101.921 913.239 101.729 913.487 101.729C913.736 101.729 913.939 101.921 913.939 102.155C913.939 102.39 913.855 102.582 913.751 102.582C913.647 102.582 913.444 102.39 913.299 102.155ZM815.467 101.648C815.603 101.308 815.704 101.409 815.724 101.907C815.743 102.356 815.642 102.608 815.5 102.467C815.359 102.325 815.343 101.957 815.467 101.648ZM809.142 100.875C808.996 100.64 808.793 100.448 808.69 100.448C808.586 100.448 808.501 100.64 808.501 100.875C808.501 101.11 808.705 101.302 808.953 101.302C809.202 101.302 809.287 101.11 809.142 100.875ZM914.108 98.8561C914.542 98.422 914.9 99.0755 914.544 99.6514C914.275 100.087 914.175 100.087 914.03 99.6531C913.931 99.3564 913.967 98.9978 914.108 98.8561ZM773.924 90.2281C773.924 90.007 774.116 89.7077 774.351 89.5626C774.586 89.4175 774.778 89.5985 774.778 89.9643C774.778 90.3301 774.586 90.6298 774.351 90.6298C774.116 90.6298 773.924 90.4492 773.924 90.2281ZM699.221 90.0147C699.221 89.6762 699.43 89.2706 699.685 89.1127C700.288 88.74 701.111 89.563 700.738 90.1658C700.32 90.8428 699.221 90.7335 699.221 90.0147ZM689.972 90.3451C690.129 90.1888 690.385 90.1888 690.542 90.3451C690.698 90.5017 690.57 90.6298 690.257 90.6298C689.944 90.6298 689.816 90.5017 689.972 90.3451ZM669.528 88.3123C670.454 88.0263 671.286 87.5661 671.378 87.2899C671.47 87.0137 671.33 86.7879 671.066 86.7879C670.487 86.7879 667.206 88.428 667.206 88.7174C667.206 88.9876 667.525 88.9317 669.528 88.3123ZM1108.74 84.3689C1108.89 84.2126 1109.02 84.3407 1109.02 84.6536C1109.02 84.9665 1108.89 85.0945 1108.74 84.9383C1108.58 84.7816 1108.58 84.5255 1108.74 84.3689ZM1063.35 84.6536C1063.35 84.4188 1063.43 84.2267 1063.53 84.2267C1063.64 84.2267 1063.84 84.4188 1063.99 84.6536C1064.13 84.8884 1064.05 85.0804 1063.8 85.0804C1063.55 85.0804 1063.35 84.8884 1063.35 84.6536ZM1062.39 83.9817C1062.62 82.7894 1064.3 81.8691 1065.27 82.4103C1065.74 82.6767 1065.73 82.8812 1065.21 83.5864C1064.61 84.3923 1064.54 84.3983 1064.02 83.6931C1063.45 82.9273 1062.88 82.6946 1062.97 83.2662C1063.1 84.1144 1062.88 85.0804 1062.55 85.0804C1062.35 85.0804 1062.28 84.5857 1062.39 83.9817ZM1062.07 81.2386C1062.07 81.0038 1062.26 80.8117 1062.49 80.8117C1062.73 80.8117 1062.92 81.0038 1062.92 81.2386C1062.92 81.4734 1062.73 81.6654 1062.49 81.6654C1062.26 81.6654 1062.07 81.4734 1062.07 81.2386ZM968.722 79.6732C968.878 79.517 969.134 79.517 969.291 79.6732C969.447 79.8299 969.319 79.9579 969.006 79.9579C968.693 79.9579 968.565 79.8299 968.722 79.6732ZM1009.56 78.2504C1009.56 78.0157 1009.75 77.8236 1009.99 77.8236C1010.22 77.8236 1010.41 78.0157 1010.41 78.2504C1010.41 78.4852 1010.22 78.6773 1009.99 78.6773C1009.75 78.6773 1009.56 78.4852 1009.56 78.2504ZM1061.79 77.6101C1061.66 77.258 1061.47 76.9698 1061.38 76.9698C1061.29 76.9698 1061.21 77.258 1061.21 77.6101C1061.21 77.9623 1061.4 78.2504 1061.62 78.2504C1061.85 78.2504 1061.93 77.9623 1061.79 77.6101ZM639.032 76.9698C639.032 76.735 639.116 76.5429 639.22 76.5429C639.324 76.5429 639.527 76.735 639.672 76.9698C639.817 77.2046 639.732 77.3967 639.484 77.3967C639.235 77.3967 639.032 77.2046 639.032 76.9698ZM990.492 76.6851C990.649 76.5289 990.905 76.5289 991.062 76.6851C991.218 76.8418 991.09 76.9698 990.777 76.9698C990.464 76.9698 990.336 76.8418 990.492 76.6851ZM636.186 76.6851C636.343 76.5288 636.599 76.5288 636.755 76.6851C636.912 76.8417 636.784 76.9698 636.471 76.9698C636.158 76.9698 636.03 76.8417 636.186 76.6851ZM1080.85 74.8354C1080.85 74.6007 1081.15 74.4086 1081.51 74.4086C1081.88 74.4086 1082.06 74.6007 1081.91 74.8354C1081.77 75.0702 1081.47 75.2623 1081.25 75.2623C1081.03 75.2623 1080.85 75.0702 1080.85 74.8354ZM1199.52 72.3199C1199.52 72.1103 1199.81 71.8281 1200.16 71.6928C1200.81 71.4431 1201.03 71.8981 1200.51 72.4164C1200.11 72.8244 1199.52 72.7672 1199.52 72.3199ZM1211.14 71.5003C1211.04 71.1882 1211.23 71.093 1211.65 71.2523C1212.02 71.3953 1212.33 71.6992 1212.33 71.9284C1212.33 72.4898 1211.35 72.1385 1211.14 71.5003ZM1211.01 69.2212C1210.59 68.4285 1210.62 68.341 1211.24 68.5809C1211.64 68.7341 1212.05 68.8592 1212.15 68.8592C1212.24 68.8592 1212.33 69.1474 1212.33 69.4995C1212.33 70.4382 1211.58 70.2799 1211.01 69.2212ZM611 69.4282C611.157 69.2719 611.285 69.4 611.285 69.7129C611.285 70.0258 611.157 70.1539 611 69.9976C610.844 69.841 610.844 69.5848 611 69.4282ZM1183.3 65.256C1183.3 65.1522 1183.52 64.9307 1183.79 64.7633C1184.1 64.5742 1184.17 64.646 1183.98 64.9512C1183.67 65.4434 1183.3 65.612 1183.3 65.256ZM1149.36 63.8131C1149.69 63.4738 1150.43 64.2438 1150.17 64.6656C1149.99 64.9524 1149.77 64.9085 1149.54 64.5418C1149.35 64.2297 1149.27 63.9019 1149.36 63.8131ZM1329.93 60.7486C1329.78 60.5138 1329.96 60.3217 1330.33 60.3217C1330.7 60.3217 1331 60.5138 1331 60.7486C1331 60.9834 1330.82 61.1755 1330.59 61.1755C1330.37 61.1755 1330.07 60.9834 1329.93 60.7486ZM1326.16 58.7564C1326 58.6001 1325.75 58.6001 1325.59 58.7564C1325.43 58.913 1325.56 59.0411 1325.87 59.0411C1326.19 59.0411 1326.31 58.913 1326.16 58.7564ZM1306.02 58.1873C1306.17 57.9526 1306.47 57.7605 1306.69 57.7605C1306.91 57.7605 1307.09 57.9526 1307.09 58.1873C1307.09 58.4221 1306.79 58.6142 1306.43 58.6142C1306.06 58.6142 1305.88 58.4221 1306.02 58.1873ZM1326.59 57.4757C1326.43 57.3195 1326.17 57.3195 1326.02 57.4757C1325.86 57.6324 1325.99 57.7605 1326.3 57.7605C1326.61 57.7605 1326.74 57.6324 1326.59 57.4757ZM1297.7 57.3336C1297.7 57.0988 1297.78 56.9067 1297.89 56.9067C1297.99 56.9067 1298.2 57.0988 1298.34 57.3336C1298.49 57.5684 1298.4 57.7605 1298.15 57.7605C1297.9 57.7605 1297.7 57.5684 1297.7 57.3336ZM1281.69 57.3336C1281.55 57.0988 1281.74 56.9067 1282.12 56.9067C1282.5 56.9067 1282.69 57.0988 1282.55 57.3336C1282.4 57.5684 1282.21 57.7605 1282.12 57.7605C1282.03 57.7605 1281.84 57.5684 1281.69 57.3336ZM1292.69 57.0758C1292.83 56.934 1293.2 56.9187 1293.51 57.042C1293.85 57.1782 1293.75 57.2794 1293.25 57.2999C1292.8 57.3182 1292.55 57.2175 1292.69 57.0758ZM1340.29 55.9731C1340.08 55.335 1339.11 54.9836 1339.11 55.545C1339.11 55.7742 1339.41 56.0782 1339.78 56.2212C1340.2 56.3804 1340.39 56.2852 1340.29 55.9731ZM1342.7 55.6778C1342.84 55.4639 1342.66 55.1787 1342.31 55.0438C1341.95 54.9094 1341.67 54.9738 1341.67 55.1873C1341.67 55.7661 1342.43 56.1255 1342.7 55.6778ZM1294.43 54.9145C1294.58 54.7583 1294.71 54.8863 1294.71 55.1992C1294.71 55.5121 1294.58 55.6402 1294.43 55.4839C1294.27 55.3273 1294.27 55.0712 1294.43 54.9145ZM1280.77 54.9145C1280.92 54.7583 1281.05 54.8863 1281.05 55.1992C1281.05 55.5121 1280.92 55.6402 1280.77 55.4839C1280.61 55.3273 1280.61 55.0712 1280.77 54.9145ZM1361.87 51.4995C1362.03 51.3433 1362.29 51.3433 1362.44 51.4995C1362.6 51.6562 1362.47 51.7842 1362.16 51.7842C1361.85 51.7842 1361.72 51.6562 1361.87 51.4995ZM1280.84 50.9305C1280.69 50.6957 1280.78 50.5036 1281.03 50.5036C1281.28 50.5036 1281.48 50.6957 1281.48 50.9305C1281.48 51.1652 1281.39 51.3573 1281.29 51.3573C1281.19 51.3573 1280.98 51.1652 1280.84 50.9305ZM520.93 44.6694C521.086 44.5132 521.342 44.5132 521.499 44.6694C521.655 44.8261 521.527 44.9542 521.214 44.9542C520.901 44.9542 520.773 44.8261 520.93 44.6694ZM520.076 42.9619C520.233 42.8057 520.489 42.8057 520.645 42.9619C520.802 43.1186 520.674 43.2467 520.361 43.2467C520.048 43.2467 519.92 43.1186 520.076 42.9619ZM522.091 41.7799C521.713 41.3249 521.704 40.9398 522.054 40.2858C522.313 39.8013 522.61 39.4048 522.714 39.4048C523.167 39.4048 524.25 41.5443 524.001 41.9472C523.61 42.5799 522.688 42.4992 522.091 41.7799ZM507.225 41.032C507.489 40.2406 508.408 40.1095 508.408 40.8634C508.408 41.2348 508.104 41.5391 507.732 41.5391C507.361 41.5391 507.132 41.3112 507.225 41.032ZM518.306 40.285C518.199 39.9648 518.359 39.8048 518.68 39.9115C518.988 40.0144 519.324 40.3507 519.427 40.6585C519.533 40.9787 519.373 41.1387 519.053 41.032C518.745 40.9296 518.409 40.5932 518.306 40.285ZM516.946 40.2585C516.946 40.0237 517.03 39.8317 517.134 39.8317C517.238 39.8317 517.441 40.0237 517.586 40.2585C517.731 40.4933 517.646 40.6854 517.398 40.6854C517.149 40.6854 516.946 40.4933 516.946 40.2585ZM505.802 39.2784C506.351 38.7303 506.906 39.1538 506.5 39.8103C506.343 40.0643 506.019 40.1514 505.78 40.0037C505.489 39.8235 505.496 39.5849 505.802 39.2784ZM514.146 39.205C513.69 38.8601 513.52 38.5719 513.769 38.5647C514.018 38.557 514.594 38.8332 515.05 39.1777C515.505 39.5226 515.675 39.8107 515.426 39.818C515.178 39.8257 514.602 39.5495 514.146 39.205ZM170.892 16.0688C171.049 15.9125 171.305 15.9125 171.462 16.0688C171.618 16.2254 171.49 16.3535 171.177 16.3535C170.864 16.3535 170.736 16.2254 170.892 16.0688ZM349.326 15.215C349.483 15.0588 349.739 15.0588 349.895 15.215C350.052 15.3717 349.924 15.4998 349.611 15.4998C349.298 15.4998 349.17 15.3717 349.326 15.215ZM302.848 14.474C302.342 13.9681 302.341 13.8401 302.837 13.6497C303.525 13.3859 303.935 13.7047 303.935 14.5039C303.935 15.2342 303.599 15.2248 302.848 14.474ZM406.812 12.9385C406.812 12.7037 407.004 12.5116 407.239 12.5116C407.474 12.5116 407.666 12.7037 407.666 12.9385C407.666 13.1733 407.474 13.3654 407.239 13.3654C407.004 13.3654 406.812 13.1733 406.812 12.9385ZM357.437 9.66566C357.593 9.50943 357.849 9.50943 358.006 9.66566C358.162 9.82233 358.034 9.95039 357.721 9.95039C357.408 9.95039 357.28 9.82233 357.437 9.66566ZM389.452 9.23879C389.609 9.08256 389.865 9.08256 390.022 9.23879C390.178 9.39546 390.05 9.52351 389.737 9.52351C389.424 9.52351 389.296 9.39546 389.452 9.23879ZM407.666 8.24289C407.666 8.00811 407.858 7.81602 408.093 7.81602C408.327 7.81602 408.519 8.00811 408.519 8.24289C408.519 8.47767 408.327 8.66977 408.093 8.66977C407.858 8.66977 407.666 8.47767 407.666 8.24289ZM386.322 8.24289C386.322 8.00811 386.61 7.81601 386.962 7.81601C387.314 7.81601 387.603 8.00811 387.603 8.24289C387.603 8.47767 387.314 8.66976 386.962 8.66976C386.61 8.66976 386.322 8.47767 386.322 8.24289ZM388.136 7.49586C388.032 7.18296 388.326 6.96226 388.848 6.96226C389.372 6.96226 389.737 7.23803 389.737 7.63374C389.737 8.41833 388.405 8.30351 388.136 7.49586ZM377.998 5.68164C377.853 5.44686 377.83 5.25476 377.947 5.25476C378.065 5.25476 378.28 5.44686 378.425 5.68164C378.57 5.91642 378.592 6.10851 378.475 6.10851C378.358 6.10851 378.143 5.91642 377.998 5.68164Z"/>
</svg>
