<svg width="1366" height="800" viewBox="0 0 1366 800" xmlns="http://www.w3.org/2000/svg">
<path fill-rule="evenodd" clip-rule="evenodd" d="M1366 50.1528V729.932H1360.66C1355.82 729.932 1355.3 729.732 1355.06 727.748C1354.85 725.999 1354.08 725.459 1351.22 725.043C1349.25 724.756 1346.49 724.555 1345.08 724.592C1343.67 724.631 1341.41 724.33 1340.05 723.924C1338.28 723.395 1337.75 723.509 1338.18 724.322C1338.51 724.948 1338.37 725.46 1337.88 725.46C1337.38 725.46 1336.97 725.013 1336.97 724.466C1336.97 723.92 1335.82 723.472 1334.41 723.472C1333 723.472 1331.85 723.955 1331.85 724.545C1331.85 725.243 1330.88 725.362 1329.08 724.883C1327.55 724.478 1325.53 724.033 1324.59 723.893C1323.65 723.753 1322.69 723.549 1322.46 723.441C1322.22 723.332 1321.31 723.333 1320.42 723.444C1319.53 723.554 1318.51 723.075 1318.14 722.379C1317.6 721.366 1317.19 721.386 1316.06 722.479C1315.12 723.379 1314.45 723.491 1314.07 722.811C1313.69 722.134 1311.35 722.054 1307.2 722.579C1303.74 723.017 1300.7 723.623 1300.44 723.925C1300.18 724.227 1299.14 723.837 1298.12 723.059C1296.84 722.085 1294.36 721.734 1290.15 721.932C1284.99 722.175 1284.04 721.971 1284.04 720.61C1284.04 719.245 1282.87 719 1276.32 719C1271.85 719 1268.35 719.442 1268 720.052C1266.83 722.071 1263.15 724.466 1261.23 724.466C1260.16 724.466 1259.28 724.919 1259.28 725.474C1259.28 726.115 1257.5 726.239 1254.37 725.815C1251.67 725.448 1248.89 725.206 1248.18 725.276C1247.48 725.347 1245.01 725.613 1242.69 725.867C1240.37 726.121 1237.83 725.923 1237.03 725.426C1235.21 724.291 1228.03 726.647 1228.33 728.282C1228.45 728.916 1227.93 729.436 1227.17 729.436C1226.32 729.436 1225.98 728.886 1226.28 727.977C1227.06 725.627 1225.5 725.333 1223.24 727.402C1221.71 728.802 1220.1 729.234 1217.24 729.011C1212.91 728.675 1204.4 730.778 1206.39 731.692C1207.07 732.005 1206.41 732.296 1204.91 732.339C1201.34 732.442 1196.01 736.353 1196.44 738.56C1196.62 739.479 1195.94 741.115 1194.94 742.195C1193.52 743.725 1192.15 744.095 1188.74 743.868C1186.33 743.707 1183.84 744.002 1183.19 744.522C1182.36 745.19 1182.58 745.284 1183.94 744.839C1185.07 744.469 1185.86 744.647 1185.86 745.271C1185.86 745.854 1184.83 746.331 1183.58 746.331C1182.32 746.331 1180.59 747.077 1179.73 747.988C1177.34 750.497 1173.39 750.064 1170.64 746.994C1168.76 744.899 1167.43 744.344 1164.29 744.344C1161.5 744.344 1159.42 745.057 1157.27 746.754C1154.66 748.821 1153.56 749.083 1149.55 748.602C1146.78 748.269 1144.88 748.432 1144.88 749.002C1144.88 749.531 1145.96 749.778 1147.28 749.553C1148.84 749.285 1150.1 749.741 1150.9 750.875C1152.05 752.487 1151.86 752.571 1148.19 752.09C1144.66 751.628 1144.29 751.766 1144.66 753.424C1145.06 755.187 1143.63 756.129 1143.03 754.5C1142.87 754.073 1141.46 753.01 1139.89 752.138C1137.59 750.864 1136.51 750.773 1134.38 751.672C1131.05 753.08 1128.33 756.241 1123.19 764.691C1122.19 766.344 1121.68 766.474 1119.99 765.519C1116.54 763.57 1114.14 763.28 1114.14 764.811C1114.14 765.579 1113.74 766.209 1113.24 766.209C1112.74 766.209 1112.57 766.656 1112.86 767.202C1113.15 767.749 1112.62 768.196 1111.68 768.196C1110.74 768.196 1109.71 767.703 1109.39 767.101C1108.59 765.582 1103.06 762.861 1100.48 762.71C1099.31 762.642 1098.11 762.999 1097.82 763.506C1097.5 764.058 1096.59 763.995 1095.56 763.35C1094.23 762.521 1093.59 762.612 1092.79 763.745C1092.21 764.553 1091.38 765.215 1090.94 765.215C1089.97 765.215 1082.62 768.879 1080.85 770.247C1080.14 770.79 1078.89 771.498 1078.07 771.82C1077.25 772.141 1076.58 773.07 1076.58 773.885C1076.58 774.794 1076.08 775.144 1075.3 774.794C1074.59 774.48 1074.02 774.641 1074.02 775.152C1074.02 775.665 1073.15 776.657 1072.1 777.358C1071.04 778.058 1070.18 779.303 1070.18 780.123C1070.18 781.203 1069.29 781.583 1066.97 781.5C1064.6 781.416 1063.77 781.787 1063.77 782.941C1063.77 784.15 1063.54 784.23 1062.75 783.303C1062.18 782.647 1060.55 782.103 1059.12 782.095C1057.44 782.085 1055.46 780.992 1053.53 779.004C1050.61 776.002 1050.53 775.981 1050.25 778.134C1050.01 780.02 1049.59 780.251 1047.37 779.731C1045.93 779.398 1044.03 778.147 1043.14 776.95C1041.57 774.837 1035.63 771.804 1034.85 772.713C1034.63 772.962 1035 773.169 1035.67 773.173C1036.34 773.176 1035.77 774.032 1034.41 775.077C1031.41 777.377 1028.54 777.161 1025.98 774.442C1024.93 773.324 1022.54 771.816 1020.66 771.091C1018.78 770.366 1016.67 769.237 1015.96 768.581C1015.26 767.926 1011.67 766.806 1007.99 766.093C1002.7 765.069 1000.95 764.289 999.662 762.386C998.766 761.061 998.034 759.349 998.034 758.581C998.034 757.654 997.245 758.035 995.694 759.709C993.274 762.322 992.057 762.872 992.057 761.356C992.057 759.894 987.925 759.451 986.311 760.74C984.551 762.145 966.495 764.728 963.919 763.944C962.589 763.539 962.045 763.986 961.653 765.804C961.363 767.152 960.507 768.196 959.694 768.196C958.899 768.196 957.845 768.666 957.352 769.241C956.724 769.971 956.025 769.523 955.027 767.75C953.861 765.679 952.923 765.215 949.909 765.215C945.96 765.215 942.135 763.443 937.565 759.498C935.523 757.735 934.059 757.201 932.354 757.598C931.049 757.902 929.543 757.638 929.005 757.011C928.27 756.156 927.774 756.166 927.014 757.051C926.233 757.961 925.65 757.861 924.468 756.616C923.22 755.301 922.695 755.233 921.639 756.254C920.926 756.944 920.343 757.203 920.343 756.832C920.343 756.461 919.541 756.811 918.562 757.61C916.987 758.893 916.48 758.871 914.187 757.417C912.21 756.164 911.5 756.068 911.201 757.015C910.664 758.716 908.4 758.577 906.653 756.735C905.34 755.352 905.076 755.445 903.773 757.761C902.984 759.162 901.966 760.04 901.509 759.712C901.052 759.383 900.899 758.698 901.17 758.189C901.441 757.677 900.151 757.264 898.287 757.264C896.157 757.264 894.741 757.786 894.447 758.677C893.791 760.667 890.461 761.084 887.687 759.526C886.25 758.718 885.339 758.602 885.339 759.226C885.339 759.786 884.666 760.281 883.845 760.324C882.953 760.371 882.78 760.604 883.418 760.903C884.685 761.499 884.86 764.221 883.631 764.221C883.162 764.221 882.778 763.774 882.778 763.227C882.778 762.68 882.49 762.286 882.137 762.35C880.397 762.67 879.362 762.096 879.362 760.809C879.362 758.983 876.437 757.899 873.68 758.705C872.322 759.101 871.733 758.96 872.073 758.318C872.926 756.712 870.927 753.288 869.138 753.288C868.243 753.288 867.273 753.736 866.983 754.282C866.693 754.829 867.224 755.276 868.163 755.276C870.272 755.276 871.43 757.208 869.956 758.269C869.358 758.699 869.105 759.767 869.393 760.642C869.789 761.843 869.387 762.233 867.754 762.233C866.564 762.233 864.798 761.74 863.83 761.137C862.515 760.317 861.909 760.344 861.432 761.243C861.016 762.025 859.862 762.207 858.126 761.764C855.913 761.198 855.547 761.349 855.977 762.652C856.293 763.612 856.044 764.209 855.335 764.189C853.766 764.146 851.189 761.782 851.189 760.385C851.189 759.761 850.612 759.252 849.908 759.252C849.204 759.252 848.628 758.804 848.628 758.258C848.628 757.039 848.845 757.031 851.405 758.164C853.017 758.878 853.652 758.668 854.464 757.155C855.212 755.76 856.057 755.413 857.607 755.866C858.908 756.246 859.726 756.06 859.726 755.383C859.726 754.778 859.246 754.395 858.659 754.531C858.072 754.668 857.688 754.221 857.805 753.537C857.922 752.854 857.443 752.294 856.738 752.294C856.034 752.294 855.458 751.847 855.458 751.301C855.458 750.754 855.085 750.307 854.63 750.307C854.176 750.307 854.049 751.09 854.348 752.046C854.838 753.607 854.704 753.591 853.041 751.892C851.199 750.01 851.189 750.013 851.189 752.559C851.189 754.631 850.668 755.251 848.45 755.819C846.684 756.27 845.597 756.121 845.39 755.4C845.214 754.785 844.526 754.282 843.861 754.282C843.196 754.282 842.651 753.611 842.651 752.791C842.651 751.971 842.244 751.301 841.747 751.301C841.25 751.301 841.111 751.805 841.439 752.424C841.793 753.091 841.579 753.369 840.91 753.109C840.292 752.87 839.374 751.805 838.87 750.744C838.367 749.684 837.869 748.64 837.763 748.425C837.657 748.212 837.046 748.543 836.404 749.163C835.762 749.782 835.003 750.017 834.717 749.684C834.431 749.351 833.945 750.249 833.636 751.68C833.327 753.111 832.572 754.282 831.958 754.282C831.343 754.282 830.646 754.842 830.408 755.525C830.082 756.46 829.751 756.398 829.069 755.276C828.571 754.456 828.158 754.207 828.15 754.721C828.143 755.235 827.559 754.788 826.852 753.727C825.646 751.918 825.618 751.966 826.392 754.496C826.847 755.98 826.89 757.43 826.488 757.719C825.738 758.259 824.32 753.695 824.601 751.646C824.826 750.014 818.904 750.383 818.359 752.036C818.027 753.041 817.501 753.114 816.25 752.334C815.141 751.644 814.403 751.63 814.052 752.292C813.262 753.781 809.988 753.495 807.846 751.749C806.109 750.332 805.81 750.369 804.098 752.228C802.767 753.671 801.934 753.954 801.176 753.222C800.443 752.514 799.935 752.538 799.53 753.301C799.207 753.909 798.117 754.824 797.106 755.335C794.564 756.622 791.968 758.569 791.259 759.72C790.933 760.25 790.391 760.367 790.057 759.977C789.723 759.587 788.933 759.767 788.303 760.376C787.455 761.196 786.819 761.156 785.85 760.22C784.769 759.175 784.335 759.283 783.341 760.844C782.324 762.439 781.871 762.54 780.405 761.498C778.933 760.452 778.541 760.547 777.819 762.118C777.21 763.442 775.562 764.168 772.032 764.666C769.316 765.049 765.734 765.441 764.071 765.537C762.409 765.633 760.018 766.497 758.76 767.455C755.559 769.894 748.355 771.582 746.45 770.341C745.44 769.684 744.38 769.708 743.247 770.415C742.315 770.995 737.567 771.591 732.696 771.741C725.606 771.958 723.502 772.368 722.15 773.792C720.252 775.791 720.177 775.72 717.1 768.942C716.169 766.892 715.201 765.215 714.948 765.215C714.695 765.215 714.704 765.621 714.968 766.119C715.232 766.616 715.209 767.746 714.918 768.629C714.508 769.872 714.123 769.977 713.208 769.094C712.559 768.467 712.028 768.383 712.028 768.909C712.028 769.435 711.123 770.345 710.017 770.931C708.325 771.829 707.641 771.603 705.697 769.504C703.618 767.26 703.136 767.132 700.878 768.221C699.497 768.887 698.367 769.824 698.367 770.304C698.367 770.785 697.676 771.178 696.831 771.178C695.986 771.178 694.874 771.667 694.361 772.264C693.686 773.049 692.871 772.996 691.415 772.071C690.309 771.368 688.294 770.919 686.939 771.075C685.584 771.23 684.182 770.803 683.824 770.128C683.465 769.453 682.533 769.186 681.752 769.535C680.97 769.884 680.569 770.62 680.862 771.171C681.154 771.722 680.942 772.172 680.389 772.172C679.793 772.172 679.575 771.333 679.85 770.106C680.216 768.478 680.011 768.176 678.882 768.684C678.095 769.039 676.449 769.565 675.226 769.852C673.652 770.222 672.841 769.893 672.457 768.726C672.129 767.732 671.497 767.376 670.865 767.831C670.288 768.246 668.724 768.489 667.39 768.37C664.381 768.104 662.73 769.115 664.315 770.255C666.191 771.604 664.713 772.199 661.854 771.244C660.382 770.753 658.332 769.434 657.299 768.314C656.267 767.193 655.093 766.514 654.69 766.803C654.288 767.092 653.359 766.63 652.624 765.775C651.89 764.921 650.633 764.221 649.833 764.221C649.032 764.221 647.51 763.514 646.452 762.652C643.617 760.34 639.351 759.112 638.158 760.265C637.604 760.8 635.321 761.039 633.086 760.795C630.85 760.551 629.224 760.589 629.474 760.879C629.723 761.171 629.542 762.698 629.069 764.276C628.349 766.683 627.813 767.089 625.735 766.808C624.373 766.623 622.738 765.969 622.102 765.355C621.466 764.741 620.704 764.521 620.406 764.866C620.11 765.211 618.352 765.593 616.499 765.715C613.836 765.89 613.044 765.549 612.714 764.085C612.16 761.618 610.718 761.74 609.516 764.355C608.732 766.06 608.387 766.207 607.762 765.1C607.131 763.982 606.787 764.098 605.934 765.712C605.355 766.805 604.882 768.37 604.882 769.19C604.882 770.01 604.017 770.824 602.961 770.999C601.905 771.173 601.04 771.956 601.04 772.738C601.04 773.519 600.446 774.159 599.718 774.159C598.992 774.159 597.461 775.335 596.318 776.771C594.679 778.831 593.714 779.262 591.763 778.808C588.78 778.113 587.875 778.907 589.309 780.963C590.189 782.226 590.133 782.38 588.978 781.877C588.213 781.544 587.253 781.661 586.844 782.138C586.139 782.958 583.815 782.021 577.442 778.351C574.876 776.873 574.672 776.91 572.746 779.209C570.456 781.942 565.997 782.494 565.356 780.123C565.135 779.303 564.571 778.07 564.105 777.383C563.453 776.424 562.82 776.725 561.373 778.686C559.883 780.704 559.013 781.099 557.214 780.572C554.654 779.825 554.231 780.793 556.333 782.583C557.577 783.641 557.447 784.006 555.142 785.916C552.906 787.769 552.486 787.851 552.045 786.513C551.764 785.662 551.173 785.226 550.732 785.543C549.958 786.1 548.337 785.133 542.08 780.382C540.468 779.158 538.516 778.39 537.742 778.677C536.968 778.963 535.792 778.564 535.13 777.793C533.497 775.893 528.783 774.756 528.074 776.092C527.693 776.81 527.004 776.829 525.914 776.15C523.298 774.52 522.416 774.993 522.676 777.886C522.883 780.191 522.568 780.667 520.661 780.925C518.358 781.235 517.408 783.234 517.384 787.825C517.371 790.384 516.339 790.713 514.853 788.629C514.292 787.842 513.324 787.425 512.703 787.703C512.082 787.98 511.005 787.263 510.31 786.108C509.282 784.398 508.956 784.285 508.557 785.497C507.674 788.175 501.634 785.361 500.859 781.912C500.369 779.732 499.139 779.625 497.431 781.614C496.727 782.433 495.374 783.104 494.425 783.104C493.475 783.104 492.392 783.697 492.016 784.42C491.64 785.144 490.12 786.763 488.638 788.017C486.844 789.536 484.795 790.28 482.511 790.243C478.693 790.182 474.334 787.948 473.125 785.436C472.651 784.449 471.782 784.038 470.954 784.408C469.803 784.922 469.737 785.446 470.56 787.548C471.103 788.934 471.274 790.387 470.94 790.776C469.757 792.154 467.428 789.297 467.425 786.463C467.423 784.889 467.112 783.043 466.734 782.359C465.925 780.895 464.093 780.651 464.867 782.11C465.902 784.059 463.85 783.063 461.93 780.683C460.503 778.914 459.104 778.277 456.733 778.315C454.95 778.344 452.304 777.678 450.854 776.836C449.405 775.994 448.219 775.692 448.219 776.165C448.219 776.637 448.636 777.324 449.147 777.692C449.766 778.137 449.79 778.691 449.221 779.353C448.145 780.606 446.511 779.494 446.511 777.509C446.511 776.192 446.345 776.199 445.17 777.567C444.431 778.426 443.375 779.136 442.822 779.144C442.223 779.153 442.324 779.533 443.071 780.084C445.092 781.572 443.312 782.544 440.905 781.268C438.865 780.185 438.748 780.254 439.285 782.224C440.014 784.896 438.561 786.02 435.18 785.4C433.161 785.029 432.719 785.245 433.104 786.412C433.404 787.321 432.56 788.889 430.923 790.469C429.454 791.884 427.847 793.033 427.351 793.021C425.373 792.973 419.19 789.085 419.166 787.874C419.149 787.091 418.797 787.267 418.269 788.322C416.567 791.724 408.092 789.457 408.092 785.6C408.092 784.848 407.324 783.948 406.385 783.601C405.446 783.254 404.672 782.218 404.665 781.298C404.654 779.861 404.538 779.835 403.844 781.112C403.148 782.393 402.874 782.337 401.852 780.711C401.201 779.674 400.265 779.115 399.774 779.468C399.283 779.822 398.662 779.451 398.396 778.643C398.097 777.734 397.357 777.422 396.459 777.824C395.454 778.273 395.203 778.102 395.645 777.27C396.107 776.401 395.698 776.239 394.17 776.685C393.008 777.025 391.833 776.879 391.558 776.361C391.283 775.843 390.089 775.635 388.904 775.9C387.318 776.253 386.749 775.954 386.749 774.773C386.749 773.888 386.119 773.166 385.349 773.166C384.579 773.166 383.402 772.383 382.734 771.426C381.893 770.224 381.387 770.053 381.091 770.874C380.855 771.526 380.207 771.862 379.65 771.618C379.093 771.376 378.193 772.296 377.65 773.665C376.83 775.731 376.902 776.314 378.077 777.113C379.253 777.912 379.12 778.079 377.296 778.105C373.662 778.155 367.605 780.997 364.818 783.961C363.376 785.495 361.67 786.818 361.026 786.905C360.382 786.99 358.895 787.252 357.721 787.484C356.547 787.718 355.298 787.945 354.947 787.991C354.594 788.036 354.402 788.409 354.52 788.819C354.637 789.229 353.914 790.519 352.911 791.685C351.648 793.155 350.405 793.653 348.856 793.308C347.627 793.035 346.622 792.384 346.622 791.862C346.622 791.34 346.019 791.616 345.281 792.475C343.895 794.089 341.501 794.605 341.499 793.291C341.498 792.882 339.867 792.546 337.872 792.546C335.52 792.546 333.707 791.918 332.707 790.756C331.808 789.711 330.523 789.204 329.618 789.539C328.551 789.932 327.43 789.175 326.033 787.114C323.82 783.854 321.01 783.095 321.01 785.759C321.01 786.672 321.633 788.222 322.394 789.201C323.155 790.18 323.552 791.668 323.275 792.509C322.709 794.227 321.01 794.596 321.01 793.003C321.01 792.434 320.169 790.645 319.142 789.028C317.129 785.857 313.839 785.084 313.015 787.586C312.742 788.411 312.221 789.029 311.856 788.959C309.402 788.49 307.35 789.271 307.35 790.675C307.35 791.792 306.83 792.123 305.643 791.761C304.703 791.476 303.935 791.701 303.935 792.264C303.935 792.932 303.565 792.953 302.868 792.325C302.28 791.797 301.074 791.06 300.186 790.689C298.755 790.092 298.707 790.207 299.759 791.697C300.843 793.231 300.704 793.322 298.172 792.739C296.563 792.367 295.398 792.506 295.398 793.068C295.398 793.601 295.8 794.037 296.291 794.037C297.522 794.037 294.364 798.936 293.107 798.975C292.552 798.992 291.854 798.112 291.556 797.018C290.908 794.642 289.223 794.485 286.518 796.548C285.002 797.704 283.988 797.825 282.254 797.058C281.003 796.505 277.815 796.157 275.168 796.287C271.925 796.445 270.239 796.116 269.999 795.279C269.803 794.595 268.895 794.037 267.979 794.037C267.065 794.037 266.095 793.366 265.825 792.546C265.555 791.726 264.968 791.055 264.521 791.055C264.073 791.055 263.971 791.55 264.292 792.155C265.222 793.907 261.326 792.141 259.456 789.963C258.425 788.763 256.637 788.074 254.56 788.074C252.76 788.074 251.01 788.396 250.673 788.789C250.335 789.183 248.552 789.622 246.712 789.765C244.076 789.971 242.9 789.484 241.17 787.469C239.962 786.064 238.427 785.158 237.759 785.456C237.091 785.755 236.316 785.571 236.039 785.048C235.761 784.526 234.549 784.098 233.346 784.098C231.692 784.098 231.373 784.401 232.043 785.341C232.73 786.305 232.031 786.583 228.925 786.583C226.119 786.583 224.222 787.223 222.584 788.723C220.279 790.834 220.203 790.838 217.056 789.047C215.3 788.047 213.247 786.37 212.492 785.321C210.497 782.548 201.627 776.865 200.251 777.48C199.606 777.768 197.719 777.519 196.059 776.925C193.59 776.043 192.65 776.145 190.89 777.488C188.258 779.496 187.825 779.526 187.825 777.705C187.825 776.16 186.665 775.602 181.422 774.621C176.859 773.768 171.219 771.493 166.227 768.493C163.974 767.14 161.518 766.306 160.771 766.64C160.023 766.974 158.5 766.553 157.388 765.705C155.993 764.64 154.904 764.448 153.88 765.086C153.063 765.592 149.959 765.981 146.982 765.947C142.055 765.892 141.408 765.633 139.778 763.066C138.536 761.111 137.237 760.245 135.543 760.245C134.199 760.245 131.967 759.563 130.581 758.729C128.894 757.714 128.063 757.586 128.063 758.343C128.063 759.101 127.055 759.253 124.999 758.803C122.561 758.272 120.82 758.761 116.475 761.201C112.832 763.246 110.33 764.067 108.958 763.666C107.786 763.323 105.799 763.729 104.336 764.61C101.945 766.05 101.621 766.021 99.6267 764.194C97.0774 761.86 94.8918 761.73 90.8936 763.675C88.2615 764.955 87.5076 764.934 84.1584 763.489C80.8962 762.082 79.9247 762.041 76.9485 763.184C74.5939 764.089 71.7014 764.29 67.7733 763.821C63.5105 763.313 60.6333 762.224 56.5746 759.581C51.8192 756.486 50.6504 756.115 47.5402 756.714C45.5757 757.093 38.3974 757.534 31.5888 757.695C20.7829 757.95 18.9925 757.766 17.5019 756.245C16.4185 755.14 13.923 754.355 10.6719 754.096C7.85452 753.872 4.30035 752.962 2.7747 752.074L1.52588e-05 750.459V775.23L0 800V70.9325H5.33594C10.1818 70.9325 10.6966 71.1358 10.9391 73.144C11.1525 74.9148 11.9183 75.4612 14.781 75.8827C16.7472 76.1725 19.5082 76.3767 20.9169 76.3385C22.3256 76.2993 24.5914 76.6041 25.9531 77.0156C27.7213 77.5509 28.2549 77.4352 27.8237 76.6122C27.4907 75.9783 27.6265 75.4602 28.1234 75.4602C28.6203 75.4602 29.0275 75.9129 29.0275 76.4663C29.0275 77.0197 30.1801 77.4724 31.5887 77.4724C32.9974 77.4724 34.15 76.9834 34.15 76.3868C34.15 75.6795 35.1182 75.5598 36.9247 76.0447C38.4512 76.4542 40.4678 76.905 41.4069 77.0468C42.346 77.1887 43.3065 77.395 43.5412 77.5046C43.776 77.6143 44.693 77.6133 45.58 77.5016C46.4662 77.3899 47.4933 77.8749 47.8621 78.5792C48.3999 79.6044 48.814 79.5843 49.9444 78.4786C50.8758 77.567 51.5503 77.4533 51.9302 78.1415C52.3093 78.8277 54.6537 78.9082 58.7961 78.3769C62.2563 77.9332 65.2991 77.3195 65.5586 77.0146C65.8173 76.7088 66.864 77.1032 67.8834 77.891C69.1606 78.877 71.6424 79.2322 75.8489 79.0319C81.014 78.7854 81.96 78.9927 81.9609 80.3701C81.9609 81.7525 83.1339 82 89.6753 82C94.1464 82 97.646 81.5523 97.9986 80.9355C99.169 78.8911 102.845 76.4663 104.775 76.4663C105.844 76.4663 106.719 76.0075 106.719 75.4461C106.719 74.7971 108.503 74.6713 111.628 75.101C114.327 75.4722 117.113 75.7177 117.817 75.6463C118.522 75.5749 120.993 75.3052 123.31 75.0486C125.626 74.7911 128.173 74.9913 128.97 75.4944C130.793 76.6434 137.969 74.2588 137.667 72.6037C137.549 71.9618 138.071 71.4356 138.826 71.4356C139.681 71.4356 140.017 71.992 139.717 72.9126C138.942 75.2911 140.499 75.5889 142.759 73.4942C144.288 72.0775 145.902 71.6399 148.764 71.8652C153.089 72.2053 161.604 70.0763 159.611 69.1517C158.929 68.8348 159.592 68.54 161.086 68.4967C164.664 68.3921 169.991 64.4329 169.56 62.1983C169.381 61.2686 170.055 59.6125 171.059 58.5189C172.481 56.9694 173.852 56.5951 177.261 56.8245C179.667 56.9875 182.165 56.6897 182.81 56.1625C183.639 55.4864 183.421 55.3918 182.062 55.8425C180.933 56.2168 180.141 56.0367 180.141 55.4049C180.141 54.8143 181.167 54.3313 182.422 54.3313C183.676 54.3313 185.41 53.5767 186.275 52.6541C188.656 50.1146 192.608 50.5523 195.36 53.6602C197.238 55.7812 198.569 56.3436 201.707 56.3436C204.502 56.3436 206.581 55.6212 208.728 53.9037C211.345 51.811 212.444 51.5453 216.45 52.0323C219.22 52.3694 221.121 52.2043 221.121 51.6278C221.121 51.0926 220.043 50.842 218.725 51.0694C217.156 51.3411 215.903 50.8793 215.096 49.7313C213.949 48.0993 214.135 48.0148 217.809 48.5018C221.344 48.9696 221.71 48.8298 221.338 47.1505C220.942 45.3667 222.374 44.4128 222.971 46.0619C223.128 46.4945 224.542 47.5701 226.115 48.4525C228.414 49.7423 229.492 49.8349 231.622 48.9243C234.953 47.4997 237.67 44.2991 242.808 35.745C243.814 34.0718 244.316 33.94 246.007 34.9069C249.462 36.8799 251.856 37.1737 251.856 35.6232C251.856 34.8455 252.263 34.2086 252.76 34.2086C253.257 34.2086 253.427 33.7559 253.137 33.2025C252.847 32.6491 253.378 32.1964 254.317 32.1964C255.256 32.1964 256.285 32.6954 256.606 33.3051C257.412 34.8425 262.936 37.5973 265.516 37.7502C266.69 37.8196 267.89 37.4574 268.182 36.9443C268.501 36.3859 269.405 36.4493 270.441 37.1023C271.771 37.9414 272.408 37.8498 273.215 36.7028C273.792 35.8848 274.621 35.2148 275.059 35.2148C276.031 35.2148 283.382 31.5051 285.152 30.1207C285.857 29.5703 287.106 28.854 287.927 28.528C288.749 28.203 289.421 27.2623 289.421 26.4372C289.421 25.5176 289.916 25.1625 290.702 25.5176C291.406 25.8356 291.982 25.6726 291.982 25.1544C291.982 24.6352 292.846 23.6311 293.903 22.9218C294.96 22.2125 295.824 20.9528 295.824 20.1227C295.824 19.0291 296.706 18.6447 299.026 18.7282C301.403 18.8137 302.228 18.4375 302.228 17.2693C302.228 16.0459 302.455 15.9644 303.252 16.9031C303.815 17.5671 305.448 18.1175 306.88 18.1266C308.565 18.1366 310.54 19.2424 312.473 21.2556C315.39 24.2942 315.467 24.3153 315.746 22.136C315.989 20.2264 316.406 19.9929 318.635 20.5191C320.067 20.8562 321.969 22.1229 322.859 23.3343C324.434 25.4734 330.37 28.5441 331.151 27.6235C331.365 27.3719 330.995 27.1627 330.33 27.1586C329.664 27.1556 330.233 26.2883 331.594 25.2309C334.591 22.9027 337.457 23.121 340.015 25.8738C341.066 27.0057 343.464 28.532 345.342 29.2655C347.22 30 349.333 31.1429 350.038 31.807C350.742 32.47 354.331 33.6039 358.014 34.3253C363.301 35.3627 365.053 36.1515 366.338 38.0782C367.234 39.4194 367.966 41.153 367.966 41.9307C367.966 42.8684 368.755 42.4831 370.306 40.7887C372.726 38.1436 373.943 37.5862 373.943 39.1216C373.943 40.6016 378.075 41.0493 379.689 39.7444C381.449 38.3227 399.505 35.7078 402.081 36.5016C403.411 36.9111 403.955 36.4583 404.347 34.6181C404.637 33.2538 405.493 32.1964 406.306 32.1964C407.101 32.1964 408.155 31.7204 408.648 31.1389C409.276 30.3994 409.975 30.8532 410.973 32.6481C412.139 34.7449 413.077 35.2148 416.091 35.2148C420.04 35.2148 423.865 37.0087 428.435 41.002C430.477 42.7869 431.941 43.3272 433.646 42.9258C434.951 42.6179 436.457 42.8855 436.995 43.5194C437.73 44.3857 438.226 44.3756 438.986 43.4791C439.767 42.5585 440.35 42.6591 441.532 43.9198C442.78 45.2509 443.305 45.3194 444.361 44.2861C445.074 43.5878 445.658 43.3252 445.658 43.7005C445.658 44.0768 446.459 43.7226 447.438 42.9137C449.013 41.6148 449.52 41.6369 451.813 43.1089C453.79 44.3776 454.5 44.4742 454.799 43.5154C455.336 41.7939 457.6 41.9347 459.347 43.7991C460.66 45.1996 460.924 45.1051 462.227 42.7608C463.016 41.3421 464.034 40.4537 464.491 40.7857C464.948 41.1188 465.101 41.812 464.83 42.3271C464.559 42.8453 465.849 43.2638 467.713 43.2638C469.843 43.2638 471.259 42.7356 471.553 41.8331C472.209 39.8188 475.539 39.3962 478.313 40.9739C479.75 41.7919 480.661 41.9096 480.661 41.2777C480.661 40.7103 481.334 40.2092 482.155 40.1659C483.047 40.1187 483.22 39.8822 482.582 39.5794C481.315 38.9767 481.14 36.2209 482.369 36.2209C482.838 36.2209 483.223 36.6736 483.223 37.227C483.223 37.7804 483.51 38.1798 483.863 38.1144C485.603 37.7905 486.637 38.372 486.637 39.6749C486.637 41.5232 489.563 42.6209 492.32 41.8049C493.678 41.4035 494.267 41.5464 493.927 42.1963C493.074 43.8222 495.073 47.2884 496.862 47.2884C497.757 47.2884 498.727 46.8356 499.017 46.2822C499.307 45.7289 498.776 45.2761 497.837 45.2761C495.728 45.2761 494.57 43.3202 496.044 42.2466C496.642 41.811 496.895 40.7294 496.607 39.844C496.211 38.6286 496.613 38.2332 498.246 38.2332C499.436 38.2332 501.202 38.7322 502.17 39.3429C503.485 40.173 504.091 40.1458 504.568 39.2353C504.984 38.4434 506.138 38.2593 507.874 38.7081C510.087 39.2816 510.453 39.1286 510.023 37.8096C509.707 36.8376 509.956 36.233 510.665 36.2531C512.234 36.2963 514.811 38.6899 514.811 40.1046C514.811 40.7354 515.388 41.2516 516.092 41.2516C516.796 41.2516 517.372 41.7043 517.372 42.2577C517.372 43.4912 517.155 43.4993 514.595 42.3523C512.983 41.6299 512.348 41.8422 511.536 43.3735C510.788 44.7861 509.943 45.1373 508.393 44.6785C507.092 44.2941 506.274 44.4823 506.274 45.1674C506.274 45.7802 506.754 46.1685 507.341 46.0307C507.928 45.8919 508.312 46.3446 508.195 47.0368C508.078 47.7281 508.558 48.2945 509.262 48.2945C509.966 48.2945 510.542 48.7473 510.542 49.3006C510.542 49.854 510.915 50.3068 511.37 50.3068C511.824 50.3068 511.951 49.5139 511.652 48.546C511.162 46.9654 511.296 46.9815 512.959 48.702C514.801 50.6076 514.811 50.6046 514.811 48.0269C514.811 45.9291 515.332 45.3013 517.55 44.7268C519.316 44.27 520.403 44.4209 520.61 45.1503C520.786 45.7731 521.474 46.2822 522.139 46.2822C522.804 46.2822 523.349 46.9614 523.349 47.7914C523.349 48.6215 523.756 49.3006 524.253 49.3006C524.75 49.3006 524.889 48.7895 524.561 48.1637C524.207 47.4886 524.421 47.2069 525.09 47.4695C525.708 47.712 526.626 48.7895 527.13 49.8641C527.633 50.9376 528.131 51.9941 528.237 52.2114C528.343 52.4277 528.954 52.0927 529.596 51.4648C530.238 50.838 530.997 50.6006 531.283 50.9376C531.569 51.2747 532.055 50.3651 532.364 48.9163C532.673 47.4675 533.428 46.2822 534.042 46.2822C534.657 46.2822 535.354 45.7158 535.592 45.0246C535.918 44.0778 536.249 44.1402 536.931 45.2761C537.429 46.1062 537.842 46.3587 537.85 45.8385C537.857 45.3174 538.441 45.7701 539.148 46.8447C540.354 48.6758 540.382 48.6265 539.608 46.0659C539.153 44.5638 539.11 43.0958 539.512 42.803C540.262 42.2567 541.68 46.8769 541.399 48.9505C541.174 50.6036 547.096 50.2293 547.641 48.5561C547.973 47.5389 548.499 47.4644 549.75 48.2543C550.859 48.9525 551.597 48.9676 551.948 48.2975C552.738 46.7893 556.012 47.0791 558.154 48.8469C559.891 50.2816 560.19 50.2434 561.902 48.3619C563.233 46.901 564.066 46.6143 564.824 47.3558C565.557 48.0722 566.065 48.048 566.47 47.2753C566.793 46.6605 567.883 45.7339 568.894 45.2167C571.436 43.9138 574.032 41.9428 574.741 40.7777C575.067 40.2404 575.609 40.1227 575.943 40.5171C576.277 40.9115 577.067 40.7294 577.697 40.1136C578.545 39.2836 579.181 39.3238 580.15 40.2716C581.231 41.329 581.665 41.2194 582.659 39.6397C583.676 38.0249 584.129 37.9223 585.595 38.9777C587.067 40.0362 587.459 39.9406 588.181 38.3499C588.79 37.0097 590.438 36.2742 593.968 35.7701C596.684 35.3828 600.266 34.9854 601.929 34.8888C603.591 34.7912 605.982 33.9168 607.24 32.9469C610.441 30.4779 617.645 28.7684 619.55 30.0251C620.56 30.6902 621.62 30.666 622.753 29.9507C623.685 29.3631 628.433 28.7594 633.304 28.6075C640.394 28.3881 642.498 27.9736 643.85 26.5318C645.748 24.5075 645.823 24.5799 648.9 31.4417C649.831 33.5164 650.799 35.2148 651.052 35.2148C651.305 35.2148 651.296 34.8032 651.032 34.2992C650.768 33.7961 650.791 32.6521 651.082 31.7587C651.492 30.5 651.877 30.3934 652.792 31.2878C653.441 31.9227 653.972 32.0072 653.972 31.4749C653.972 30.9427 654.877 30.0211 655.983 29.4275C657.675 28.5189 658.359 28.7473 660.303 30.8723C662.382 33.1441 662.864 33.2739 665.122 32.1712C666.503 31.4971 667.633 30.5483 667.633 30.0623C667.633 29.5754 668.324 29.1779 669.169 29.1779C670.014 29.1779 671.126 28.6829 671.639 28.0782C672.314 27.2834 673.129 27.3377 674.585 28.2734C675.691 28.9858 677.706 29.4395 679.061 29.2826C680.416 29.1256 681.818 29.5573 682.176 30.2404C682.535 30.9246 683.467 31.1942 684.248 30.8411C685.03 30.4879 685.431 29.7424 685.138 29.185C684.846 28.6276 685.058 28.1718 685.611 28.1718C686.207 28.1718 686.425 29.021 686.15 30.2636C685.784 31.9116 685.989 32.2165 687.118 31.7023C687.905 31.3431 689.551 30.8109 690.774 30.5201C692.348 30.1458 693.159 30.4789 693.543 31.6601C693.871 32.6662 694.503 33.0264 695.135 32.5666C695.712 32.146 697.276 31.9005 698.61 32.0203C701.619 32.2899 703.27 31.2667 701.685 30.1126C699.809 28.7463 701.287 28.1446 704.146 29.1115C705.618 29.6086 707.668 30.9437 708.701 32.0776C709.733 33.2115 710.907 33.8997 711.31 33.6069C711.712 33.3142 712.641 33.782 713.376 34.6473C714.11 35.5126 715.367 36.2209 716.167 36.2209C716.968 36.2209 718.49 36.9362 719.548 37.8096C722.383 40.1498 726.649 41.3924 727.842 40.2253C728.396 39.684 730.679 39.4425 732.914 39.689C735.15 39.9365 736.776 39.8973 736.526 39.6035C736.277 39.3087 736.458 37.7623 736.931 36.1656C737.651 33.7287 738.187 33.3172 740.265 33.6019C741.627 33.7891 743.262 34.4511 743.898 35.0729C744.534 35.6947 745.296 35.917 745.594 35.5679C745.89 35.2188 747.648 34.8314 749.501 34.7087C752.164 34.5316 752.956 34.8767 753.286 36.3587C753.84 38.856 755.282 38.7322 756.484 36.0851C757.268 34.3585 757.613 34.2106 758.238 35.3305C758.869 36.4624 759.213 36.3456 760.066 34.7117C760.645 33.6049 761.118 32.0203 761.118 31.1902C761.118 30.3602 761.983 29.5361 763.039 29.359C764.095 29.183 764.96 28.3901 764.96 27.5983C764.96 26.8075 765.554 26.1595 766.282 26.1595C767.008 26.1595 768.539 24.9693 769.682 23.5154C771.321 21.4307 772.286 20.994 774.237 21.4538C777.22 22.1571 778.125 21.3532 776.691 19.2725C775.811 17.9937 775.867 17.8378 777.022 18.3469C777.787 18.684 778.747 18.5652 779.156 18.0823C779.861 17.2522 782.185 18.201 788.558 21.9167C791.124 23.4128 791.328 23.3756 793.254 21.0474C795.544 18.2805 800.003 17.7221 800.644 20.1227C800.865 20.9528 801.429 22.2004 801.895 22.8966C802.547 23.8676 803.18 23.5627 804.627 21.5776C806.117 19.5341 806.987 19.1347 808.786 19.6679C811.346 20.4246 811.769 19.4446 809.667 17.6325C808.423 16.561 808.553 16.1918 810.858 14.258C813.094 12.3815 813.514 12.299 813.955 13.6533C814.236 14.5145 814.827 14.9562 815.268 14.6353C816.042 14.0718 817.663 15.0508 823.92 19.8601C825.532 21.0997 827.484 21.8764 828.258 21.5867C829.032 21.2969 830.208 21.7003 830.87 22.4811C832.503 24.4048 837.217 25.5559 837.926 24.2036C838.307 23.4762 838.996 23.4571 840.086 24.1443C842.702 25.7943 843.584 25.3154 843.324 22.3865C843.117 20.0533 843.432 19.5714 845.339 19.3108C847.642 18.9969 848.592 16.9725 848.616 12.3252C848.629 9.73438 849.661 9.40136 851.147 11.5112C851.708 12.3081 852.676 12.7307 853.297 12.4489C853.918 12.1682 854.995 12.8947 855.69 14.0638C856.718 15.7943 857.044 15.909 857.443 14.6826C858.326 11.971 864.365 14.8194 865.141 18.3117C865.631 20.5181 866.861 20.6268 868.569 18.6135C869.273 17.7835 870.626 17.1043 871.575 17.1043C872.525 17.1043 873.608 16.5047 873.984 15.7722C874.359 15.0397 875.88 13.4007 877.362 12.131C879.156 10.5936 881.205 9.84003 883.489 9.87726C887.307 9.93964 891.666 12.2004 892.875 14.7439C893.349 15.743 894.218 16.1596 895.046 15.7843C896.197 15.2641 896.263 14.7339 895.44 12.6059C894.897 11.2023 894.726 9.73136 895.06 9.33796C896.243 7.94246 898.572 10.8351 898.575 13.7046C898.577 15.2973 898.888 17.1667 899.266 17.8589C900.075 19.341 901.907 19.5875 901.133 18.1105C900.098 16.1374 902.15 17.1466 904.07 19.5553C905.497 21.3462 906.896 21.9911 909.267 21.9529C911.05 21.9237 913.696 22.5978 915.146 23.45C916.595 24.3022 917.781 24.6081 917.781 24.1292C917.781 23.6512 917.364 22.956 916.853 22.5837C916.234 22.133 916.21 21.5726 916.779 20.9015C917.855 19.6337 919.489 20.7596 919.489 22.7689C919.489 24.102 919.655 24.0949 920.83 22.7095C921.569 21.8402 922.625 21.1218 923.178 21.1138C923.777 21.1047 923.676 20.7194 922.929 20.162C920.908 18.6558 922.688 17.6718 925.095 18.9637C927.135 20.0593 927.252 19.9899 926.715 17.9958C925.986 15.2903 927.439 14.1523 930.82 14.7802C932.839 15.1554 933.281 14.9371 932.896 13.7559C932.596 12.8353 933.44 11.2486 935.077 9.64886C936.546 8.21612 938.153 7.05304 938.649 7.06511C940.627 7.11341 946.81 11.0494 946.834 12.2759C946.851 13.0687 947.203 12.8906 947.731 11.8221C949.433 8.37811 957.907 10.6731 957.907 14.5779C957.907 15.3396 958.676 16.2501 959.615 16.6013C960.554 16.9524 961.328 18.0018 961.335 18.9325C961.346 20.3873 961.462 20.4135 962.156 19.1216C962.852 17.8247 963.126 17.8811 964.148 19.5271C964.799 20.5765 965.735 21.1429 966.226 20.7858C966.717 20.4276 967.338 20.8029 967.604 21.6209C967.903 22.5405 968.643 22.8564 969.541 22.4499C970.546 21.9951 970.797 22.1682 970.355 23.0103C969.893 23.8907 970.302 24.0547 971.83 23.6029C972.992 23.2589 974.167 23.4068 974.442 23.931C974.717 24.4551 975.911 24.6654 977.096 24.3978C978.682 24.0406 979.251 24.3425 979.251 25.5388C979.251 26.4342 979.881 27.1657 980.651 27.1657C981.422 27.1657 982.598 27.9585 983.266 28.9264C984.107 30.1438 984.613 30.3169 984.909 29.4858C985.145 28.8258 985.793 28.4857 986.35 28.7322C986.907 28.9777 987.807 28.046 988.35 26.6606C989.17 24.5688 989.098 23.9782 987.923 23.1693C986.747 22.3604 986.88 22.1913 988.704 22.1652C992.338 22.1149 998.395 19.2373 1001.18 16.237C1002.62 14.6846 1004.33 13.3444 1004.97 13.2569C1005.62 13.1703 1007.1 12.9057 1008.28 12.6703C1009.45 12.4338 1010.7 12.2034 1011.05 12.1572C1011.41 12.1119 1011.6 11.7346 1011.48 11.319C1011.36 10.9045 1012.09 9.59855 1013.09 8.41735C1014.35 6.92928 1015.6 6.42521 1017.14 6.77434C1018.37 7.05102 1019.38 7.71004 1019.38 8.23827C1019.38 8.76649 1019.98 8.48778 1020.72 7.61748C1022.11 5.98452 1024.5 5.46133 1024.5 6.79144C1024.5 7.20597 1026.13 7.54604 1028.13 7.54604C1030.48 7.54604 1032.29 8.18192 1033.29 9.35809C1034.19 10.4165 1035.48 10.9297 1036.38 10.5906C1037.45 10.1922 1038.57 10.9589 1039.97 13.0456C1042.18 16.3457 1044.99 17.1134 1044.99 14.4169C1044.99 13.4923 1044.37 11.9237 1043.61 10.9327C1042.84 9.94165 1042.45 8.43446 1042.72 7.58327C1043.29 5.84467 1044.99 5.47039 1044.99 7.08322C1044.99 7.65973 1045.83 9.47078 1046.86 11.1078C1048.87 14.3173 1052.16 15.1001 1052.99 12.5677C1053.26 11.7326 1053.78 11.1068 1054.14 11.1772C1056.6 11.6521 1058.65 10.8613 1058.65 9.4406C1058.65 8.3097 1059.17 7.97466 1060.36 8.34089C1061.3 8.62965 1062.06 8.40125 1062.06 7.83178C1062.06 7.15566 1062.43 7.13353 1063.13 7.7694C1063.72 8.30467 1064.93 9.05021 1065.81 9.4255C1067.24 10.0302 1067.29 9.91347 1066.24 8.40528C1065.16 6.85281 1065.3 6.76025 1067.83 7.35085C1069.44 7.72714 1070.6 7.58628 1070.6 7.01782C1070.6 6.47853 1070.2 6.03684 1069.71 6.03684C1068.48 6.03684 1071.64 1.0776 1072.89 1.03735C1073.45 1.02025 1074.15 1.91168 1074.44 3.01843C1075.09 5.4241 1076.78 5.58307 1079.48 3.49433C1081 2.3242 1082.01 2.20145 1083.75 2.97819C1085 3.5386 1088.19 3.89075 1090.83 3.75895C1094.07 3.59897 1095.76 3.932 1096 4.77917C1096.2 5.47139 1097.11 6.03684 1098.02 6.03684C1098.94 6.03684 1099.9 6.71598 1100.17 7.54604C1100.45 8.3761 1101.03 9.05524 1101.48 9.05524C1101.93 9.05524 1102.03 8.55419 1101.71 7.94145C1100.78 6.16864 1104.67 7.95654 1106.54 10.161C1107.57 11.3754 1109.36 12.0736 1111.44 12.0736C1113.24 12.0736 1114.99 11.7477 1115.33 11.3492C1115.67 10.9508 1117.45 10.5061 1119.29 10.3612C1121.92 10.1529 1123.1 10.6459 1124.83 12.6854C1126.04 14.1081 1127.57 15.0257 1128.24 14.7238C1128.91 14.421 1129.68 14.6071 1129.96 15.1363C1130.24 15.6655 1131.45 16.0982 1132.65 16.0982C1134.31 16.0982 1134.63 15.7913 1133.96 14.8405C1133.27 13.8646 1133.97 13.5829 1137.07 13.5829C1139.88 13.5829 1141.78 12.9349 1143.42 11.4166C1145.72 9.27961 1145.8 9.27559 1148.94 11.0886C1150.7 12.1008 1152.75 13.7982 1153.51 14.8606C1155.5 17.6678 1164.37 23.4208 1165.75 22.798C1166.39 22.5063 1168.28 22.7588 1169.94 23.3595C1172.41 24.2529 1173.35 24.1493 1175.11 22.79C1177.74 20.7576 1178.17 20.7264 1178.17 22.5707C1178.17 24.1342 1179.34 24.6996 1184.58 25.6927C1189.14 26.556 1194.78 28.859 1199.77 31.8955C1202.03 33.2659 1204.48 34.11 1205.23 33.772C1205.98 33.4339 1207.5 33.8595 1208.61 34.7187C1210.01 35.7963 1211.1 35.9905 1212.12 35.3456C1212.94 34.8324 1216.04 34.439 1219.02 34.4732C1223.95 34.5296 1224.59 34.7912 1226.22 37.39C1227.46 39.3691 1228.76 40.2454 1230.46 40.2454C1231.8 40.2454 1234.03 40.9366 1235.42 41.7808C1237.11 42.8081 1237.94 42.9378 1237.94 42.1712C1237.94 41.4035 1238.94 41.2506 1241 41.7053C1243.44 42.2436 1245.18 41.7486 1249.53 39.2785C1253.17 37.2079 1255.67 36.3768 1257.04 36.7823C1258.21 37.1294 1260.2 36.7189 1261.66 35.8265C1264.05 34.3696 1264.38 34.3988 1266.37 36.2481C1268.92 38.6105 1271.11 38.7423 1275.11 36.7733C1277.74 35.4774 1278.49 35.4985 1281.84 36.9614C1285.1 38.3861 1286.08 38.4273 1289.05 37.2703C1291.41 36.3547 1294.3 36.1505 1298.23 36.6254C1302.49 37.1395 1305.37 38.2422 1309.43 40.9175C1314.18 44.0516 1315.35 44.4269 1318.46 43.8202C1320.42 43.4369 1327.6 42.9902 1334.41 42.8272C1345.22 42.5696 1347.01 42.7557 1348.5 44.2951C1349.58 45.4139 1352.08 46.2088 1355.33 46.4704C1358.15 46.6978 1361.7 47.6184 1363.23 48.5179L1366 50.1528ZM120.015 71.3159C120.555 70.2846 119.845 70.2212 117.177 71.0633C116.12 71.3974 115.256 72.0071 115.256 72.4196C115.256 73.4147 119.421 72.4488 120.015 71.3159ZM218.276 45.6111C217.962 45.2429 217.706 45.5447 217.706 46.2822C217.706 47.0197 217.962 47.3216 218.276 46.9533C218.588 46.5841 218.588 45.9804 218.276 45.6111ZM562.621 46.2822C562.621 45.7289 562.237 45.2761 561.768 45.2761C561.298 45.2761 560.914 45.7289 560.914 46.2822C560.914 46.8356 561.298 47.2884 561.768 47.2884C562.237 47.2884 562.621 46.8356 562.621 46.2822ZM513.673 43.5989C513.36 43.2306 512.848 43.2306 512.534 43.5989C512.222 43.9681 512.478 44.27 513.104 44.27C513.73 44.27 513.986 43.9681 513.673 43.5989ZM501.31 42.2024C500.223 41.6892 499.564 40.83 499.845 40.2937C500.144 39.7253 501.056 40.0251 502.035 41.0121C504.496 43.4963 504.395 43.6613 501.31 42.2024ZM561.483 40.5805C561.17 40.2122 560.914 40.5141 560.914 41.2516C560.914 41.9891 561.17 42.2909 561.483 41.9227C561.796 41.5534 561.796 40.9497 561.483 40.5805ZM455.902 40.2454C455.902 39.6921 455.733 39.2393 455.526 39.2393C455.319 39.2393 454.912 39.6921 454.622 40.2454C454.332 40.7988 454.501 41.2516 454.998 41.2516C455.495 41.2516 455.902 40.7988 455.902 40.2454ZM462.306 36.2209C462.015 35.6675 461.394 35.2148 460.924 35.2148C460.455 35.2148 460.308 35.6675 460.598 36.2209C460.888 36.7743 461.51 37.227 461.979 37.227C462.449 37.227 462.596 36.7743 462.306 36.2209ZM587.38 36.3889C587.38 35.0789 586.365 34.2076 585.539 34.8083C584.657 35.4512 585.418 37.227 586.577 37.227C587.019 37.227 587.38 36.8497 587.38 36.3889ZM357.437 32.5314C357.124 32.1631 356.611 32.1631 356.298 32.5314C355.986 32.9006 356.242 33.2025 356.867 33.2025C357.493 33.2025 357.749 32.9006 357.437 32.5314ZM593.783 32.1964C594.073 31.643 593.689 31.1902 592.929 31.1902C592.17 31.1902 591.785 31.643 592.076 32.1964C592.366 32.7497 592.75 33.2025 592.929 33.2025C593.109 33.2025 593.493 32.7497 593.783 32.1964ZM368.482 28.4445C367.615 27.4212 366.898 28.9616 367.61 30.3189C368.148 31.3452 368.35 31.3452 368.638 30.3229C368.836 29.6237 368.765 28.7785 368.482 28.4445ZM645.008 28.1718C645.298 27.6184 645.705 27.1657 645.912 27.1657C646.12 27.1657 646.289 27.6184 646.289 28.1718C646.289 28.7252 645.881 29.1779 645.385 29.1779C644.888 29.1779 644.718 28.7252 645.008 28.1718ZM683.854 28.2312C683.854 26.8296 682.285 25.9402 681.201 26.729C680.543 27.2089 680.607 27.6788 681.415 28.2825C682.939 29.4204 683.854 29.4013 683.854 28.2312ZM698.083 26.4946C697.77 26.1263 697.514 26.4282 697.514 27.1657C697.514 27.9032 697.77 28.205 698.083 27.8368C698.396 27.4675 698.396 26.8638 698.083 26.4946ZM678.731 26.722C678.731 26.4775 678.287 25.9553 677.745 25.5609C677.135 25.1152 676.991 25.2842 677.37 26.0036C677.977 27.1637 678.731 27.5611 678.731 26.722ZM701.782 23.1411C701.782 22.5878 701.375 22.135 700.878 22.135C700.381 22.135 700.212 22.5878 700.502 23.1411C700.792 23.6945 701.199 24.1473 701.406 24.1473C701.613 24.1473 701.782 23.6945 701.782 23.1411ZM987.504 19.4516C987.191 19.0834 986.935 19.3852 986.935 20.1227C986.935 20.8602 987.191 21.1621 987.504 20.7938C987.817 20.4246 987.817 19.8209 987.504 19.4516ZM867.126 18.4455C866.812 18.0773 866.3 18.0773 865.987 18.4455C865.674 18.8148 865.93 19.1166 866.556 19.1166C867.182 19.1166 867.438 18.8148 867.126 18.4455ZM785.166 16.4332C784.852 16.065 784.34 16.065 784.027 16.4332C783.714 16.8025 783.97 17.1043 784.596 17.1043C785.222 17.1043 785.478 16.8025 785.166 16.4332ZM901.133 16.0982C901.423 15.5448 901.039 15.0921 900.279 15.0921C899.52 15.0921 899.135 15.5448 899.426 16.0982C899.716 16.6516 900.1 17.1043 900.279 17.1043C900.459 17.1043 900.843 16.6516 901.133 16.0982ZM313.095 14.4844C312.811 14.1503 312.075 14.1141 311.459 14.4049C310.778 14.7258 310.98 14.9643 311.975 15.0126C312.875 15.0558 313.378 14.8184 313.095 14.4844ZM821.307 13.7006C821.307 12.9349 820.635 12.0284 819.813 11.6873C818.992 11.3452 817.804 10.7888 817.173 10.4487C816.543 10.1097 816.9 11.0152 817.968 12.462C820.117 15.3748 821.307 15.8165 821.307 13.7006ZM1036.88 12.0736C1036.59 11.5203 1036.76 11.0675 1037.26 11.0675C1037.75 11.0675 1038.16 11.5203 1038.16 12.0736C1038.16 12.627 1037.99 13.0798 1037.78 13.0798C1037.58 13.0798 1037.17 12.627 1036.88 12.0736ZM1052.25 7.04297C1052.54 6.4896 1052.37 6.03684 1051.87 6.03684C1051.37 6.03684 1050.97 6.4896 1050.97 7.04297C1050.97 7.59635 1051.14 8.04911 1051.34 8.04911C1051.55 8.04911 1051.96 7.59635 1052.25 7.04297ZM1248.82 729.803C1246.15 730.635 1245.44 730.573 1245.98 729.554C1246.58 728.435 1250.74 727.481 1250.74 728.464C1250.74 728.871 1249.88 729.473 1248.82 729.803ZM863.965 759.488C864.944 760.463 865.856 760.759 866.155 760.198C866.436 759.668 865.777 758.819 864.69 758.312C861.605 756.871 861.504 757.034 863.965 759.488ZM1148.29 754.282C1148.29 755.011 1148.04 755.309 1147.72 754.945C1147.41 754.58 1147.41 753.984 1147.72 753.619C1148.04 753.256 1148.29 753.554 1148.29 754.282ZM804.232 755.276C803.763 755.276 803.379 754.829 803.379 754.282C803.379 753.736 803.763 753.288 804.232 753.288C804.702 753.288 805.086 753.736 805.086 754.282C805.086 754.829 804.702 755.276 804.232 755.276ZM853.466 756.933C853.152 757.297 852.64 757.297 852.327 756.933C852.014 756.568 852.27 756.27 852.896 756.27C853.522 756.27 853.778 756.568 853.466 756.933ZM905.076 765.215C904.606 765.215 903.985 764.767 903.694 764.221C903.404 763.674 903.551 763.227 904.021 763.227C904.49 763.227 905.112 763.674 905.402 764.221C905.692 764.767 905.545 765.215 905.076 765.215ZM805.086 759.252C805.086 759.98 804.83 760.278 804.517 759.914C804.204 759.55 804.204 758.953 804.517 758.589C804.83 758.225 805.086 758.523 805.086 759.252ZM910.474 761.239C910.267 761.239 910.098 760.792 910.098 760.245C910.098 759.699 910.505 759.252 911.002 759.252C911.499 759.252 911.668 759.699 911.378 760.245C911.088 760.792 910.681 761.239 910.474 761.239ZM780.461 765.616C779.635 766.21 778.62 765.349 778.62 764.055C778.62 763.6 778.981 763.227 779.423 763.227C780.582 763.227 781.343 764.981 780.461 765.616ZM997.362 770.047C997.65 769.037 997.852 769.037 998.39 770.051C999.102 771.392 998.385 772.913 997.518 771.902C997.235 771.572 997.164 770.738 997.362 770.047ZM1009.7 767.865C1009.39 768.229 1008.88 768.229 1008.56 767.865C1008.25 767.501 1008.51 767.202 1009.13 767.202C1009.76 767.202 1010.01 767.501 1009.7 767.865ZM773.071 769.19C772.311 769.19 771.927 768.743 772.217 768.196C772.507 767.65 772.891 767.202 773.071 767.202C773.25 767.202 773.634 767.65 773.924 768.196C774.215 768.743 773.83 769.19 773.071 769.19ZM684.799 773.597C683.715 774.376 682.146 773.498 682.146 772.113C682.146 770.957 683.061 770.938 684.585 772.062C685.393 772.659 685.457 773.123 684.799 773.597ZM720.088 773.166C720.295 773.166 720.702 772.718 720.992 772.172C721.282 771.625 721.112 771.178 720.615 771.178C720.119 771.178 719.711 771.625 719.711 772.172C719.711 772.718 719.88 773.166 720.088 773.166ZM687.269 773.604C687.269 772.775 688.023 773.168 688.63 774.314C689.009 775.024 688.865 775.191 688.255 774.751C687.713 774.361 687.269 773.845 687.269 773.604ZM668.486 773.166C668.486 773.894 668.23 774.192 667.917 773.829C667.604 773.464 667.604 772.867 667.917 772.503C668.23 772.139 668.486 772.437 668.486 773.166ZM500.013 781.779C499.7 782.143 499.188 782.143 498.874 781.779C498.562 781.415 498.818 781.117 499.444 781.117C500.07 781.117 500.326 781.415 500.013 781.779ZM665.122 778.135C664.625 778.135 664.218 777.688 664.218 777.141C664.218 776.594 664.387 776.147 664.594 776.147C664.801 776.147 665.208 776.594 665.498 777.141C665.788 777.688 665.619 778.135 665.122 778.135ZM379.065 780.123C379.065 780.851 378.809 781.149 378.496 780.786C378.183 780.421 378.183 779.825 378.496 779.46C378.809 779.096 379.065 779.394 379.065 780.123ZM1054.54 785.771C1053.93 786.058 1053.19 786.022 1052.91 785.692C1052.62 785.362 1053.13 785.128 1054.03 785.171C1055.02 785.218 1055.22 785.454 1054.54 785.771ZM581.973 783.767C581.66 784.131 581.148 784.131 580.834 783.767C580.522 783.402 580.778 783.104 581.404 783.104C582.03 783.104 582.286 783.402 581.973 783.767ZM465.721 785.092C464.961 785.092 464.577 784.645 464.867 784.098C465.157 783.552 465.541 783.104 465.721 783.104C465.9 783.104 466.284 783.552 466.574 784.098C466.865 784.645 466.48 785.092 465.721 785.092ZM548.827 789.679C548.196 789.343 547.008 788.793 546.187 788.455C545.365 788.118 544.693 787.223 544.693 786.467C544.693 784.376 545.883 784.813 548.032 787.69C549.1 789.119 549.457 790.014 548.827 789.679ZM328.744 789.068C329.241 789.068 329.411 788.62 329.121 788.074C328.83 787.527 328.424 787.08 328.217 787.08C328.009 787.08 327.84 787.527 327.84 788.074C327.84 788.62 328.247 789.068 328.744 789.068ZM314.13 794.037C313.633 794.037 313.463 793.59 313.753 793.043C314.043 792.496 314.45 792.049 314.657 792.049C314.865 792.049 315.034 792.496 315.034 793.043C315.034 793.59 314.627 794.037 314.13 794.037Z" />
</svg>
