<svg xmlns="http://www.w3.org/2000/svg" width="1600" height="82" viewBox="0 0 1600 82"><path fill-rule="evenodd" d="M1504 79.88C1504 78.511 1505.11 78.305 1511.16 78.55C1516.08 78.749 1518.99 78.396 1520.49 77.416C1521.68 76.633 1522.91 76.241 1523.21 76.545C1523.51 76.848 1527.08 77.458 1531.13 77.899C1535.98 78.427 1538.73 78.347 1539.17 77.665C1539.62 76.981 1540.41 77.094 1541.5 78C1542.82 79.099 1543.31 79.119 1543.94 78.1C1544.37 77.4 1545.57 76.918 1546.61 77.029C1547.65 77.14 1548.72 77.141 1549 77.032C1549.28 76.923 1550.4 76.718 1551.5 76.577C1552.6 76.436 1554.96 75.988 1556.75 75.581C1558.87 75.099 1560 75.218 1560 75.921C1560 76.514 1561.35 77 1563 77C1564.65 77 1566 76.55 1566 76C1566 75.45 1566.48 75 1567.06 75C1567.64 75 1567.8 75.515 1567.41 76.145C1566.9 76.963 1567.53 77.078 1569.6 76.546C1571.2 76.137 1573.85 75.834 1575.5 75.873C1577.15 75.911 1580.38 75.708 1582.69 75.42C1586.04 75.001 1586.94 74.458 1587.19 72.698C1587.47 70.702 1588.07 70.5 1593.75 70.5H1600V35.25V0H800H0V24.923V49.847L3.25 48.222C5.037 47.328 9.2 46.413 12.5 46.187C16.308 45.927 19.231 45.137 20.5 44.025C22.246 42.495 24.343 42.31 37 42.566C44.975 42.728 53.383 43.172 55.684 43.553C59.327 44.156 60.696 43.783 66.266 40.668C71.02 38.009 74.3901 36.913 79.3831 36.402C83.9841 35.93 87.372 36.133 90.13 37.043C93.616 38.193 94.754 38.152 98.575 36.736C102.498 35.282 103.381 35.261 106.464 36.549C111.147 38.506 113.707 38.375 116.693 36.027C119.029 34.189 119.409 34.16 122.209 35.608C123.923 36.495 126.25 36.903 127.623 36.558C129.23 36.155 132.16 36.981 136.427 39.039C141.517 41.494 143.556 41.986 146.412 41.451C148.82 40.999 150 41.151 150 41.914C150 42.676 150.974 42.547 152.95 41.526C154.573 40.687 157.188 40 158.762 40C160.746 40 162.268 39.129 163.722 37.162C165.632 34.579 166.389 34.319 172.16 34.263C175.647 34.229 179.283 34.62 180.24 35.13C181.44 35.771 182.715 35.578 184.349 34.507C185.652 33.653 187.435 33.23 188.311 33.566C189.187 33.902 192.063 33.063 194.702 31.701C200.549 28.683 207.156 26.394 212.5 25.536C218.641 24.549 220 23.987 220 22.433C220 20.6 220.507 20.631 223.59 22.651C225.652 24.002 226.752 24.105 229.645 23.217C231.589 22.62 233.799 22.369 234.555 22.659C236.166 23.278 246.556 17.56 248.892 14.77C249.777 13.714 252.182 12.027 254.238 11.021C257.924 9.219 258.014 9.223 260.713 11.347C262.632 12.856 264.854 13.5 268.141 13.5C271.779 13.5 272.597 13.78 271.793 14.75C271.008 15.695 271.381 16 273.319 16C274.728 16 276.148 15.57 276.473 15.044C276.798 14.518 277.705 14.333 278.488 14.634C279.27 14.934 281.068 14.022 282.483 12.608C284.51 10.581 285.887 10.091 288.975 10.298C291.13 10.442 293.218 10.884 293.614 11.28C294.009 11.676 296.058 12 298.167 12C300.6 12 302.694 11.306 303.901 10.099C306.092 7.908 310.655 6.131 309.566 7.893C309.19 8.502 309.31 9 309.834 9C310.358 9 311.045 8.325 311.362 7.5C311.678 6.675 312.814 6 313.885 6C314.957 6 316.021 5.438 316.251 4.75C316.532 3.908 318.507 3.577 322.305 3.736C325.405 3.867 329.14 3.517 330.605 2.96C332.636 2.188 333.824 2.31 335.6 3.473C338.768 5.549 340.741 5.391 341.5 3C341.849 1.9 342.667 1.014 343.317 1.031C344.789 1.071 348.489 6 347.047 6C346.471 6 346 6.439 346 6.975C346 7.54 347.365 7.68 349.25 7.306C352.215 6.719 352.378 6.811 351.109 8.354C349.876 9.853 349.933 9.969 351.609 9.368C352.649 8.995 354.062 8.254 354.75 7.722C355.567 7.09 356 7.112 356 7.784C356 8.35 356.9 8.577 358 8.29C359.391 7.926 360 8.259 360 9.383C360 10.795 362.403 11.581 365.278 11.109C365.706 11.039 366.316 11.661 366.635 12.491C367.601 15.008 371.454 14.23 373.812 11.04C375.015 9.413 376 7.613 376 7.04C376 5.437 377.99 5.809 378.653 7.537C378.977 8.383 378.513 9.881 377.621 10.866C376.73 11.851 376 13.41 376 14.329C376 17.009 379.291 16.246 381.883 12.966C383.52 10.892 384.833 10.13 386.082 10.526C387.142 10.863 388.648 10.353 389.701 9.301C390.872 8.132 392.996 7.5 395.751 7.5C398.087 7.5 399.998 7.162 399.999 6.75C400.001 5.428 402.805 5.948 404.429 7.571C405.293 8.436 406 8.713 406 8.188C406 7.663 407.177 7.008 408.616 6.733C410.43 6.386 411.887 6.887 413.366 8.366C414.54 9.54 415.387 10.838 415.25 11.25C415.112 11.663 415.337 12.038 415.75 12.083C416.162 12.129 417.625 12.358 419 12.593C420.375 12.827 422.117 13.09 422.871 13.176C423.625 13.263 425.623 14.595 427.312 16.138C430.577 19.12 437.672 21.98 441.928 22.03C444.065 22.056 444.22 22.224 442.843 23.028C441.466 23.832 441.382 24.419 442.343 26.498C442.979 27.875 444.033 28.801 444.685 28.557C445.337 28.312 446.097 28.65 446.373 29.306C446.72 30.132 447.313 29.96 448.297 28.75C449.08 27.788 450.458 27 451.36 27C452.262 27 453 26.273 453 25.383C453 24.194 453.667 23.894 455.524 24.249C456.912 24.515 458.311 24.306 458.633 23.785C458.955 23.264 460.332 23.117 461.693 23.459C463.482 23.908 463.961 23.745 463.42 22.87C462.902 22.033 463.196 21.861 464.374 22.313C465.426 22.717 466.292 22.403 466.643 21.489C466.954 20.676 467.681 20.303 468.256 20.659C468.832 21.014 469.928 20.451 470.691 19.408C471.887 17.772 472.209 17.716 473.024 19.005C473.836 20.289 473.972 20.263 473.985 18.817C473.993 17.892 474.9 16.849 476 16.5C477.1 16.151 478 15.246 478 14.489C478 10.608 487.926 8.327 489.92 11.75C490.538 12.812 490.951 12.989 490.97 12.201C490.998 10.982 498.241 7.07 500.557 7.022C501.139 7.01 503.021 8.166 504.741 9.59C506.659 11.18 507.647 12.757 507.296 13.672C506.845 14.846 507.363 15.063 509.728 14.69C513.688 14.066 515.39 15.197 514.536 17.886C513.907 19.868 514.044 19.937 516.433 18.848C519.253 17.564 521.338 18.542 518.971 20.039C518.095 20.593 517.977 20.976 518.679 20.985C519.327 20.993 520.564 21.707 521.429 22.571C522.805 23.948 523 23.955 523 22.63C523 20.633 524.914 19.514 526.174 20.774C526.841 21.441 526.812 21.998 526.087 22.446C525.489 22.816 525 23.507 525 23.982C525 24.458 526.389 24.154 528.087 23.307C529.785 22.46 532.884 21.79 534.973 21.819C537.75 21.857 539.388 21.216 541.06 19.436C543.309 17.042 545.712 16.039 544.5 18C543.593 19.468 545.739 19.223 546.687 17.75C547.13 17.062 547.494 15.204 547.496 13.621C547.5 10.769 550.228 7.894 551.614 9.281C552.005 9.672 551.805 11.134 551.169 12.529C550.205 14.644 550.282 15.171 551.63 15.688C552.6 16.061 553.618 15.647 554.173 14.654C555.589 12.126 560.695 9.879 565.167 9.817C567.842 9.78 570.242 10.529 572.343 12.057C574.079 13.319 575.86 14.948 576.3 15.676C576.74 16.404 578.009 17 579.121 17C580.233 17 581.818 17.675 582.643 18.5C584.643 20.501 586.084 20.393 586.658 18.2C587.566 14.729 594.64 11.898 595.674 14.593C596.142 15.812 596.523 15.698 597.728 13.978C598.542 12.816 599.803 12.094 600.531 12.373C601.258 12.653 602.392 12.233 603.049 11.441C604.789 9.344 605.998 9.675 606.014 12.25C606.042 16.869 607.154 18.881 609.852 19.193C612.085 19.452 612.455 19.931 612.212 22.25C611.907 25.161 612.941 25.637 616.005 23.997C617.281 23.314 618.088 23.333 618.535 24.056C619.365 25.4 624.887 24.256 626.799 22.344C627.575 21.568 628.952 21.167 629.859 21.455C630.765 21.743 633.052 20.971 634.94 19.739C642.269 14.959 644.168 13.986 645.074 14.546C645.591 14.865 646.283 14.426 646.612 13.57C647.128 12.224 647.621 12.306 650.24 14.171C652.939 16.093 653.092 16.46 651.635 17.525C649.172 19.326 649.668 20.3 652.666 19.548C654.774 19.018 655.793 19.415 657.538 21.446C659.233 23.419 659.974 23.722 660.738 22.757C661.284 22.065 661.944 20.825 662.203 20C662.954 17.614 668.177 18.169 670.859 20.919C673.115 23.233 673.354 23.27 676.359 21.783C683.824 18.09 686.546 17.147 687.372 17.972C687.851 18.452 688.976 18.57 689.872 18.235C691.224 17.729 691.29 17.884 690.259 19.155C688.58 21.223 689.64 22.022 693.134 21.323C695.419 20.866 696.549 21.3 698.469 23.372C699.808 24.817 701.601 26 702.452 26C703.304 26 704 26.644 704 27.43C704 28.217 705.013 29.005 706.25 29.18C707.487 29.356 708.5 30.175 708.5 31C708.5 31.825 709.054 33.4 709.732 34.5C710.732 36.124 711.134 36.24 711.874 35.115C712.606 34.002 713.01 34.149 713.928 35.865C715.336 38.496 717.025 38.619 717.674 36.137C718.06 34.664 718.988 34.321 722.107 34.497C724.277 34.619 726.337 35.004 726.684 35.351C727.032 35.698 727.925 35.477 728.67 34.859C729.415 34.241 731.33 33.583 732.925 33.397C735.359 33.114 735.987 33.523 736.831 35.945C737.384 37.532 737.597 39.069 737.305 39.362C737.012 39.654 738.916 39.693 741.535 39.447C744.154 39.202 746.827 39.442 747.476 39.98C748.874 41.14 753.87 39.905 757.191 37.579C758.431 36.711 760.213 36 761.151 36C762.089 36 763.561 35.296 764.421 34.436C765.281 33.576 766.37 33.111 766.841 33.402C767.312 33.693 768.687 33.009 769.896 31.882C771.106 30.755 773.507 29.428 775.232 28.934C778.58 27.973 780.312 28.571 778.114 29.929C776.258 31.076 778.191 32.093 781.716 31.825C783.279 31.706 785.11 31.95 785.786 32.368C786.526 32.825 787.267 32.467 787.651 31.467C788.101 30.293 789.051 29.962 790.894 30.334C792.327 30.623 794.255 31.152 795.177 31.509C796.499 32.02 796.739 31.717 796.31 30.079C795.988 28.844 796.244 28 796.942 28C797.589 28 797.838 28.453 797.496 29.007C797.153 29.561 797.622 30.302 798.538 30.653C799.453 31.004 800.545 30.736 800.965 30.056C801.385 29.377 803.027 28.948 804.614 29.104C806.201 29.26 808.561 28.809 809.857 28.101C811.562 27.171 812.517 27.117 813.307 27.907C813.908 28.508 815.21 29 816.2 29C817.19 29 818 29.395 818 29.879C818 30.362 819.323 31.305 820.94 31.975C823.585 33.071 824.15 32.942 826.585 30.684C828.862 28.572 829.663 28.345 831.645 29.248C832.94 29.838 834 30.754 834 31.283C834 31.812 834.622 31.728 835.383 31.097C836.454 30.208 836.906 30.314 837.386 31.565C837.727 32.453 837.753 33.59 837.444 34.09C837.135 34.591 837.124 35 837.421 35C837.717 35 838.851 33.312 839.941 31.25C843.545 24.43 843.633 24.358 845.856 26.37C847.44 27.803 849.905 28.215 858.209 28.433C863.915 28.584 869.476 29.184 870.567 29.768C871.895 30.479 873.136 30.503 874.319 29.842C876.55 28.593 884.989 30.292 888.738 32.746C890.212 33.71 893.012 34.579 894.959 34.676C896.907 34.772 901.102 35.167 904.283 35.552C908.418 36.053 910.349 36.784 911.062 38.116C911.908 39.697 912.367 39.792 914.091 38.74C915.808 37.691 916.339 37.793 917.53 39.398C918.694 40.968 919.202 41.077 920.469 40.026C921.603 39.084 922.348 39.044 923.342 39.869C924.08 40.481 925.005 40.662 925.396 40.27C925.788 39.878 926.422 39.995 926.804 40.529C927.634 41.687 930.675 43.646 933.653 44.941C934.837 45.455 936.114 46.376 936.492 46.987C936.966 47.755 937.561 47.779 938.42 47.067C939.308 46.33 940.283 46.615 941.842 48.067C943.848 49.937 944.198 49.975 946.233 48.549C948.741 46.792 952.576 46.504 953.502 48.003C953.913 48.669 954.777 48.654 956.076 47.96C957.542 47.175 958.158 47.249 958.546 48.26C959.185 49.923 966.121 50.295 965.858 48.652C965.529 46.591 967.19 41.999 968.068 42.542C968.539 42.833 968.488 44.292 967.956 45.785C967.049 48.33 967.082 48.379 968.494 46.559C969.322 45.491 970.007 45.041 970.015 45.559C970.024 46.076 970.508 45.825 971.091 45C971.89 43.871 972.278 43.809 972.659 44.75C972.938 45.437 973.755 46 974.475 46C975.194 46 976.079 47.178 976.44 48.618C976.802 50.058 977.372 50.962 977.707 50.627C978.042 50.292 978.931 50.528 979.682 51.151C980.434 51.775 981.15 52.108 981.274 51.893C981.398 51.677 981.982 50.627 982.571 49.56C983.161 48.492 984.236 47.421 984.961 47.18C985.744 46.919 985.995 47.199 985.58 47.87C985.196 48.492 985.359 49 985.941 49C986.523 49 987 48.325 987 47.5C987 46.675 987.638 46 988.417 46C989.196 46 990.002 45.494 990.208 44.875C990.45 44.15 991.724 44 993.792 44.454C996.39 45.025 997 45.649 997 47.734C997 50.296 997.012 50.299 999.17 48.405C1001.12 46.695 1001.27 46.679 1000.7 48.25C1000.35 49.212 1000.5 50 1001.03 50C1001.56 50 1002 49.55 1002 49C1002 48.45 1002.68 48 1003.5 48C1004.32 48 1004.89 47.437 1004.75 46.75C1004.61 46.062 1005.06 45.612 1005.75 45.75C1006.44 45.887 1007 45.501 1007 44.892C1007 44.211 1006.04 44.024 1004.52 44.406C1002.7 44.862 1001.71 44.513 1000.84 43.109C999.885 41.587 999.141 41.376 997.253 42.094C994.255 43.234 994 43.226 994 42C994 41.45 994.675 41 995.5 41C996.325 41 997 40.487 997 39.86C997 38.454 1000.02 36.075 1001.86 36.032C1002.69 36.012 1002.98 36.613 1002.61 37.579C1002.1 38.89 1002.53 39.042 1005.13 38.472C1007.16 38.026 1008.51 38.209 1009 38.996C1009.56 39.901 1010.27 39.928 1011.81 39.103C1012.94 38.496 1015.01 38 1016.4 38C1018.32 38 1018.79 38.393 1018.32 39.601C1017.98 40.481 1018.28 41.556 1018.98 41.989C1020.71 43.056 1019.35 45 1016.88 45C1015.78 45 1015.16 45.45 1015.5 46C1015.84 46.55 1016.98 47 1018.02 47C1020.12 47 1022.46 43.555 1021.46 41.939C1021.06 41.293 1021.75 41.151 1023.34 41.55C1026.57 42.361 1030 41.27 1030 39.433C1030 38.138 1031.21 37.56 1033.25 37.882C1033.66 37.947 1034 37.55 1034 37C1034 36.45 1034.45 36 1035 36C1036.44 36 1036.23 38.739 1034.75 39.338C1034 39.639 1034.21 39.874 1035.25 39.921C1036.21 39.964 1037 40.462 1037 41.026C1037 41.654 1038.07 41.537 1039.75 40.724C1043 39.156 1046.9 39.576 1047.67 41.578C1048.01 42.475 1049.67 43 1052.17 43C1054.35 43 1055.86 42.584 1055.54 42.069C1055.23 41.557 1055.41 40.868 1055.94 40.537C1056.48 40.207 1057.67 41.09 1058.59 42.5C1060.12 44.83 1060.43 44.924 1061.97 43.532C1064.01 41.679 1066.66 41.539 1067.29 43.25C1067.64 44.203 1068.47 44.107 1070.79 42.846C1073.48 41.383 1074.07 41.361 1075.91 42.652C1077.06 43.456 1078 43.808 1078 43.434C1078 43.061 1078.68 43.322 1079.52 44.016C1080.76 45.043 1081.37 44.975 1082.83 43.652C1084.22 42.399 1084.9 42.299 1085.81 43.214C1086.71 44.105 1087.28 44.115 1088.15 43.254C1088.78 42.624 1090.54 42.358 1092.07 42.664C1094.07 43.063 1095.78 42.526 1098.17 40.752C1103.53 36.783 1108.01 35 1112.63 35C1116.16 35 1117.26 34.533 1118.63 32.449C1119.8 30.665 1120.61 30.214 1121.35 30.949C1121.93 31.527 1123.16 32 1124.09 32C1125.05 32 1126.05 33.051 1126.39 34.407C1126.85 36.236 1127.48 36.686 1129.04 36.279C1132.06 35.49 1153.21 38.089 1155.27 39.502C1157.16 40.799 1162 40.354 1162 38.883C1162 37.357 1163.43 37.911 1166.26 40.54C1168.08 42.224 1169 42.607 1169 41.675C1169 40.902 1169.86 39.179 1170.91 37.846C1172.41 35.931 1174.46 35.147 1180.66 34.116C1184.97 33.399 1189.18 32.272 1190 31.613C1190.82 30.953 1193.3 29.817 1195.5 29.087C1197.7 28.358 1200.51 26.841 1201.74 25.716C1204.74 22.98 1208.09 22.763 1211.6 25.077C1213.2 26.128 1213.86 26.99 1213.08 26.993C1212.3 26.997 1211.87 27.205 1212.12 27.455C1213.04 28.37 1219.99 25.318 1221.83 23.192C1222.88 21.988 1225.1 20.729 1226.78 20.394C1229.39 19.871 1229.88 20.103 1230.17 22.001C1230.49 24.167 1230.58 24.146 1234 21.126C1236.26 19.125 1238.58 18.026 1240.55 18.016C1242.23 18.007 1244.14 17.46 1244.8 16.8C1245.73 15.867 1246 15.948 1246 17.164C1246 18.325 1246.97 18.699 1249.75 18.614C1252.47 18.531 1253.5 18.913 1253.5 20C1253.5 20.825 1254.51 22.077 1255.75 22.782C1256.99 23.487 1258 24.485 1258 25.001C1258 25.516 1258.68 25.678 1259.5 25.362C1260.42 25.009 1261 25.362 1261 26.276C1261 27.096 1261.79 28.031 1262.75 28.354C1263.71 28.678 1265.18 29.39 1266 29.937C1268.07 31.313 1276.68 35 1277.82 35C1278.34 35 1279.31 35.666 1279.98 36.479C1280.93 37.619 1281.67 37.71 1283.23 36.876C1284.44 36.227 1285.5 36.164 1285.88 36.719C1286.22 37.229 1287.62 37.589 1289 37.52C1292.02 37.368 1298.49 34.63 1299.44 33.102C1299.81 32.496 1301.02 32 1302.12 32C1303.22 32 1303.84 32.45 1303.5 33C1303.16 33.55 1303.36 34 1303.94 34C1304.52 34 1305 34.633 1305 35.406C1305 36.947 1307.8 36.655 1311.85 34.694C1313.83 33.733 1314.42 33.864 1315.6 35.527C1321.62 44.029 1324.8 47.21 1328.7 48.626C1331.2 49.531 1332.46 49.439 1335.15 48.157C1336.99 47.28 1338.65 46.211 1338.83 45.781C1339.53 44.142 1341.21 45.09 1340.75 46.863C1340.31 48.532 1340.74 48.671 1344.88 48.206C1349.18 47.722 1349.4 47.806 1348.06 49.428C1347.11 50.569 1345.65 51.028 1343.81 50.758C1342.26 50.532 1341 50.781 1341 51.313C1341 51.886 1343.23 52.05 1346.47 51.715C1351.16 51.231 1352.45 51.495 1355.52 53.575C1358.03 55.282 1360.47 56 1363.74 56C1367.42 56 1368.97 55.441 1371.17 53.333C1374.4 50.244 1379.03 49.809 1381.82 52.333C1382.83 53.25 1384.86 54 1386.33 54C1387.8 54 1389 54.48 1389 55.067C1389 55.695 1388.07 55.874 1386.75 55.502C1385.16 55.054 1384.9 55.148 1385.87 55.82C1386.63 56.344 1389.55 56.64 1392.37 56.478C1396.37 56.25 1397.97 56.622 1399.64 58.162C1400.81 59.249 1401.6 60.895 1401.39 61.819C1400.89 64.04 1407.13 67.975 1411.32 68.079C1413.07 68.122 1413.85 68.415 1413.05 68.73C1410.71 69.649 1420.69 71.765 1425.75 71.427C1429.1 71.203 1430.99 71.638 1432.79 73.046C1435.43 75.128 1437.26 74.832 1436.35 72.468C1436 71.553 1436.39 71 1437.39 71C1438.28 71 1438.89 71.523 1438.75 72.161C1438.4 73.806 1446.8 76.176 1448.94 75.034C1449.87 74.534 1452.85 74.335 1455.57 74.591C1458.28 74.846 1461.18 75.114 1462 75.185C1462.82 75.256 1466.09 75.012 1469.25 74.643C1472.91 74.216 1475 74.341 1475 74.986C1475 75.544 1476.03 76 1477.28 76C1479.54 76 1483.84 78.41 1485.21 80.442C1485.63 81.055 1489.73 81.5 1494.96 81.5C1502.62 81.5 1504 81.254 1504 79.88ZM1459.43 70.881C1458.79 69.856 1459.62 69.793 1462.75 70.63C1463.99 70.962 1465 71.568 1465 71.978C1465 72.967 1460.12 72.007 1459.43 70.881ZM1344.33 45.333C1344.7 44.967 1345 45.267 1345 46C1345 46.733 1344.7 47.033 1344.33 46.667C1343.97 46.3 1343.97 45.7 1344.33 45.333ZM941 46C941 45.45 941.45 45 942 45C942.55 45 943 45.45 943 46C943 46.55 942.55 47 942 47C941.45 47 941 46.55 941 46ZM998.333 43.333C998.7 42.967 999.3 42.967 999.667 43.333C1000.03 43.7 999.733 44 999 44C998.267 44 997.967 43.7 998.333 43.333ZM1012.81 41.945C1014.09 41.435 1014.86 40.581 1014.53 40.048C1014.18 39.483 1013.11 39.781 1011.97 40.762C1009.08 43.231 1009.2 43.395 1012.81 41.945ZM942.333 40.333C942.7 39.967 943 40.267 943 41C943 41.733 942.7 42.033 942.333 41.667C941.967 41.3 941.967 40.7 942.333 40.333ZM1066 40C1066 39.45 1066.2 39 1066.44 39C1066.68 39 1067.16 39.45 1067.5 40C1067.84 40.55 1067.64 41 1067.06 41C1066.48 41 1066 40.55 1066 40ZM1058.5 36C1058.84 35.45 1059.57 35 1060.12 35C1060.67 35 1060.84 35.45 1060.5 36C1060.16 36.55 1059.43 37 1058.88 37C1058.33 37 1058.16 36.55 1058.5 36ZM912 36.167C912 34.865 913.189 33.999 914.156 34.596C915.19 35.235 914.298 37 912.941 37C912.423 37 912 36.625 912 36.167ZM1181.33 32.333C1181.7 31.967 1182.3 31.967 1182.67 32.333C1183.03 32.7 1182.73 33 1182 33C1181.27 33 1180.97 32.7 1181.33 32.333ZM904.5 32C904.16 31.45 904.61 31 905.5 31C906.39 31 906.84 31.45 906.5 32C906.16 32.55 905.71 33 905.5 33C905.29 33 904.84 32.55 904.5 32ZM1168.4 28.271C1169.41 27.254 1170.25 28.785 1169.42 30.134C1168.79 31.154 1168.55 31.154 1168.21 30.138C1167.98 29.443 1168.06 28.603 1168.4 28.271ZM844.5 28C844.16 27.45 843.684 27 843.441 27C843.198 27 843 27.45 843 28C843 28.55 843.477 29 844.059 29C844.641 29 844.84 28.55 844.5 28ZM799 28.059C799 26.666 800.838 25.782 802.107 26.566C802.878 27.043 802.803 27.51 801.857 28.11C800.072 29.241 799 29.222 799 28.059ZM782.333 26.333C782.7 25.967 783 26.267 783 27C783 27.733 782.7 28.033 782.333 27.667C781.967 27.3 781.967 26.7 782.333 26.333ZM805 26.559C805 26.316 805.52 25.797 806.155 25.405C806.87 24.962 807.038 25.13 806.595 25.845C805.883 26.998 805 27.393 805 26.559ZM778 23C778 22.45 778.477 22 779.059 22C779.641 22 779.84 22.45 779.5 23C779.16 23.55 778.684 24 778.441 24C778.198 24 778 23.55 778 23ZM443.333 19.333C443.7 18.967 444 19.267 444 20C444 20.733 443.7 21.033 443.333 20.667C442.967 20.3 442.967 19.7 443.333 19.333ZM584.333 18.333C584.7 17.967 585.3 17.967 585.667 18.333C586.033 18.7 585.733 19 585 19C584.267 19 583.967 18.7 584.333 18.333ZM680.333 16.333C680.7 15.967 681.3 15.967 681.667 16.333C682.033 16.7 681.733 17 681 17C680.267 17 679.967 16.7 680.333 16.333ZM544.5 16C544.16 15.45 544.61 15 545.5 15C546.39 15 546.84 15.45 546.5 16C546.16 16.55 545.71 17 545.5 17C545.29 17 544.84 16.55 544.5 16ZM1233.27 14.396C1233.6 14.064 1234.47 14.028 1235.19 14.317C1235.99 14.636 1235.75 14.873 1234.58 14.921C1233.53 14.964 1232.94 14.728 1233.27 14.396ZM638 13.617C638 12.856 638.788 11.955 639.75 11.616C640.712 11.276 642.104 10.723 642.843 10.385C643.581 10.048 643.163 10.948 641.912 12.386C639.395 15.281 638 15.72 638 13.617ZM385.5 12C385.84 11.45 385.641 11 385.059 11C384.477 11 384 11.45 384 12C384 12.55 384.198 13 384.441 13C384.684 13 385.16 12.55 385.5 12ZM367.5 7C367.16 6.45 367.359 6 367.941 6C368.523 6 369 6.45 369 7C369 7.55 368.802 8 368.559 8C368.316 8 367.84 7.55 367.5 7Z" clip-rule="evenodd"/></svg>