<svg xmlns="http://www.w3.org/2000/svg" width="1600" height="82" viewBox="0 0 1600 82"><path fill-rule="evenodd" d="M96.001 1.62C96 2.989 94.892 3.195 88.842 2.95C83.915 2.751 81.008 3.104 79.512 4.084C78.318 4.867 77.092 5.259 76.789 4.955C76.485 4.652 72.921 4.042 68.868 3.601C64.016 3.073 61.27 3.153 60.826 3.835C60.381 4.519 59.591 4.406 58.5 3.5C57.176 2.401 56.691 2.381 56.061 3.4C55.629 4.1 54.426 4.582 53.388 4.471C52.349 4.36 51.275 4.359 51 4.468C50.725 4.577 49.6 4.782 48.5 4.923C47.4 5.064 45.038 5.512 43.25 5.919C41.134 6.401 40 6.282 40 5.579C40 4.986 38.65 4.5 37 4.5C35.35 4.5 34 4.95 34 5.5C34 6.05 33.523 6.5 32.941 6.5C32.359 6.5 32.2 5.985 32.59 5.355C33.095 4.537 32.47 4.422 30.399 4.954C28.804 5.363 26.15 5.666 24.5 5.627C22.85 5.589 19.616 5.792 17.313 6.08C13.96 6.499 13.063 7.042 12.813 8.802C12.529 10.798 11.926 11 6.25 11H0V46.25V81.5H800H1600V56.577V31.653L1596.75 33.278C1594.96 34.172 1590.8 35.087 1587.5 35.313C1583.69 35.573 1580.77 36.363 1579.5 37.475C1577.75 39.005 1575.66 39.19 1563 38.934C1555.03 38.772 1546.62 38.328 1544.32 37.947C1540.67 37.344 1539.3 37.717 1533.73 40.832C1528.98 43.491 1525.61 44.587 1520.62 45.098C1516.02 45.57 1512.63 45.367 1509.87 44.457C1506.38 43.307 1505.25 43.348 1501.43 44.764C1497.5 46.218 1496.62 46.239 1493.54 44.951C1488.85 42.994 1486.29 43.125 1483.31 45.473C1480.97 47.311 1480.59 47.34 1477.79 45.892C1476.08 45.005 1473.75 44.597 1472.38 44.942C1470.77 45.345 1467.84 44.519 1463.57 42.461C1458.48 40.006 1456.44 39.514 1453.59 40.049C1451.18 40.501 1450 40.349 1450 39.586C1450 38.824 1449.03 38.953 1447.05 39.974C1445.43 40.813 1442.81 41.5 1441.24 41.5C1439.25 41.5 1437.73 42.371 1436.28 44.338C1434.37 46.921 1433.61 47.181 1427.84 47.237C1424.35 47.271 1420.72 46.88 1419.76 46.37C1418.56 45.729 1417.29 45.922 1415.65 46.993C1414.35 47.847 1412.56 48.27 1411.69 47.934C1410.81 47.598 1407.94 48.437 1405.3 49.799C1399.45 52.817 1392.84 55.106 1387.5 55.964C1381.36 56.951 1380 57.513 1380 59.067C1380 60.9 1379.49 60.869 1376.41 58.849C1374.35 57.498 1373.25 57.395 1370.35 58.283C1368.41 58.88 1366.2 59.131 1365.44 58.841C1363.83 58.222 1353.44 63.94 1351.11 66.73C1350.22 67.786 1347.82 69.473 1345.76 70.479C1342.08 72.281 1341.99 72.277 1339.29 70.153C1337.37 68.644 1335.15 68 1331.86 68C1328.22 68 1327.4 67.72 1328.21 66.75C1328.99 65.805 1328.62 65.5 1326.68 65.5C1325.27 65.5 1323.85 65.93 1323.53 66.456C1323.2 66.982 1322.29 67.167 1321.51 66.866C1320.73 66.566 1318.93 67.478 1317.52 68.892C1315.49 70.919 1314.11 71.409 1311.03 71.202C1308.87 71.058 1306.78 70.616 1306.39 70.22C1305.99 69.824 1303.94 69.5 1301.83 69.5C1299.4 69.5 1297.31 70.194 1296.1 71.401C1293.91 73.592 1289.34 75.369 1290.43 73.607C1290.81 72.998 1290.69 72.5 1290.17 72.5C1289.64 72.5 1288.95 73.175 1288.64 74C1288.32 74.825 1287.19 75.5 1286.11 75.5C1285.04 75.5 1283.98 76.062 1283.75 76.75C1283.47 77.592 1281.49 77.923 1277.69 77.764C1274.59 77.633 1270.86 77.983 1269.4 78.54C1267.36 79.312 1266.18 79.19 1264.4 78.027C1261.23 75.951 1259.26 76.109 1258.5 78.5C1258.15 79.6 1257.33 80.486 1256.68 80.469C1255.21 80.429 1251.51 75.5 1252.95 75.5C1253.53 75.5 1254 75.061 1254 74.525C1254 73.96 1252.63 73.82 1250.75 74.194C1247.79 74.781 1247.62 74.689 1248.89 73.146C1250.12 71.647 1250.07 71.531 1248.39 72.132C1247.35 72.505 1245.94 73.246 1245.25 73.778C1244.43 74.41 1244 74.388 1244 73.716C1244 73.15 1243.1 72.923 1242 73.21C1240.61 73.574 1240 73.241 1240 72.117C1240 70.705 1237.6 69.919 1234.72 70.391C1234.29 70.461 1233.68 69.839 1233.36 69.009C1232.4 66.492 1228.55 67.27 1226.19 70.46C1224.98 72.087 1224 73.887 1224 74.46C1224 76.063 1222.01 75.691 1221.35 73.963C1221.02 73.117 1221.49 71.619 1222.38 70.634C1223.27 69.649 1224 68.09 1224 67.171C1224 64.491 1220.71 65.254 1218.12 68.534C1216.48 70.608 1215.17 71.37 1213.92 70.974C1212.86 70.637 1211.35 71.147 1210.3 72.199C1209.13 73.368 1207 74 1204.25 74C1201.91 74 1200 74.338 1200 74.75C1200 76.072 1197.2 75.552 1195.57 73.929C1194.71 73.064 1194 72.787 1194 73.312C1194 73.837 1192.82 74.492 1191.38 74.767C1189.57 75.114 1188.11 74.613 1186.63 73.134C1185.46 71.96 1184.61 70.662 1184.75 70.25C1184.89 69.837 1184.66 69.462 1184.25 69.417C1183.84 69.371 1182.38 69.142 1181 68.907C1179.62 68.673 1177.88 68.41 1177.13 68.324C1176.38 68.237 1174.38 66.905 1172.69 65.362C1169.42 62.38 1162.33 59.52 1158.07 59.47C1155.94 59.444 1155.78 59.276 1157.16 58.472C1158.53 57.668 1158.62 57.081 1157.66 55.002C1157.02 53.625 1155.97 52.699 1155.31 52.943C1154.66 53.188 1153.9 52.85 1153.63 52.194C1153.28 51.368 1152.69 51.54 1151.7 52.75C1150.92 53.712 1149.54 54.5 1148.64 54.5C1147.74 54.5 1147 55.227 1147 56.117C1147 57.306 1146.33 57.606 1144.48 57.251C1143.09 56.985 1141.69 57.194 1141.37 57.715C1141.04 58.236 1139.67 58.383 1138.31 58.041C1136.52 57.592 1136.04 57.755 1136.58 58.63C1137.1 59.467 1136.8 59.639 1135.63 59.187C1134.57 58.783 1133.71 59.097 1133.36 60.011C1133.05 60.824 1132.32 61.197 1131.74 60.841C1131.17 60.486 1130.07 61.049 1129.31 62.092C1128.11 63.728 1127.79 63.784 1126.98 62.495C1126.16 61.211 1126.03 61.237 1126.02 62.683C1126.01 63.608 1125.1 64.651 1124 65C1122.9 65.349 1122 66.254 1122 67.011C1122 70.892 1112.07 73.173 1110.08 69.75C1109.46 68.688 1109.05 68.511 1109.03 69.299C1109 70.518 1101.76 74.43 1099.44 74.478C1098.86 74.49 1096.98 73.334 1095.26 71.91C1093.34 70.32 1092.35 68.743 1092.7 67.828C1093.15 66.654 1092.64 66.437 1090.27 66.81C1086.31 67.434 1084.61 66.303 1085.46 63.614C1086.09 61.632 1085.96 61.563 1083.57 62.652C1080.75 63.936 1078.66 62.958 1081.03 61.461C1081.91 60.907 1082.02 60.524 1081.32 60.515C1080.67 60.507 1079.44 59.793 1078.57 58.929C1077.2 57.552 1077 57.545 1077 58.87C1077 60.867 1075.09 61.986 1073.83 60.726C1073.16 60.059 1073.19 59.502 1073.91 59.054C1074.51 58.684 1075 57.993 1075 57.518C1075 57.042 1073.61 57.346 1071.91 58.193C1070.21 59.04 1067.12 59.71 1065.03 59.681C1062.25 59.643 1060.61 60.284 1058.94 62.064C1056.69 64.458 1054.29 65.461 1055.5 63.5C1056.41 62.032 1054.26 62.277 1053.31 63.75C1052.87 64.438 1052.51 66.296 1052.5 67.879C1052.5 70.731 1049.77 73.606 1048.39 72.219C1047.99 71.828 1048.2 70.366 1048.83 68.971C1049.8 66.856 1049.72 66.329 1048.37 65.812C1047.4 65.439 1046.38 65.853 1045.83 66.846C1044.41 69.374 1039.31 71.621 1034.83 71.683C1032.16 71.72 1029.76 70.971 1027.66 69.443C1025.92 68.181 1024.14 66.552 1023.7 65.824C1023.26 65.096 1021.99 64.5 1020.88 64.5C1019.77 64.5 1018.18 63.825 1017.36 63C1015.36 60.999 1013.92 61.107 1013.34 63.3C1012.43 66.771 1005.36 69.602 1004.33 66.907C1003.86 65.688 1003.48 65.802 1002.27 67.522C1001.46 68.684 1000.2 69.406 999.469 69.127C998.742 68.847 997.608 69.267 996.951 70.059C995.211 72.156 994.002 71.825 993.986 69.25C993.958 64.631 992.846 62.619 990.148 62.307C987.915 62.048 987.545 61.569 987.788 59.25C988.093 56.339 987.059 55.863 983.995 57.503C982.719 58.186 981.912 58.167 981.465 57.444C980.635 56.1 975.113 57.244 973.201 59.156C972.425 59.932 971.048 60.333 970.141 60.045C969.235 59.757 966.948 60.529 965.06 61.761C957.731 66.541 955.832 67.514 954.926 66.954C954.409 66.635 953.717 67.074 953.388 67.93C952.872 69.276 952.379 69.194 949.76 67.329C947.061 65.407 946.908 65.04 948.365 63.975C950.828 62.174 950.332 61.2 947.334 61.952C945.226 62.482 944.207 62.085 942.462 60.054C940.767 58.081 940.026 57.778 939.262 58.743C938.716 59.435 938.056 60.675 937.797 61.5C937.046 63.886 931.823 63.331 929.141 60.581C926.885 58.267 926.646 58.23 923.641 59.717C916.176 63.41 913.454 64.353 912.628 63.528C912.149 63.048 911.024 62.93 910.128 63.265C908.776 63.771 908.71 63.616 909.741 62.345C911.42 60.277 910.36 59.478 906.866 60.177C904.581 60.634 903.451 60.2 901.531 58.128C900.192 56.683 898.399 55.5 897.548 55.5C896.696 55.5 896 54.856 896 54.07C896 53.283 894.987 52.495 893.75 52.32C892.513 52.144 891.5 51.325 891.5 50.5C891.5 49.675 890.946 48.1 890.268 47C889.268 45.376 888.866 45.26 888.126 46.385C887.394 47.498 886.99 47.351 886.072 45.635C884.664 43.004 882.975 42.881 882.326 45.363C881.94 46.836 881.012 47.179 877.893 47.003C875.723 46.881 873.663 46.496 873.316 46.149C872.968 45.802 872.075 46.023 871.33 46.641C870.585 47.259 868.67 47.917 867.075 48.103C864.641 48.386 864.013 47.977 863.169 45.555C862.616 43.968 862.403 42.431 862.695 42.138C862.988 41.846 861.084 41.807 858.465 42.053C855.846 42.298 853.173 42.058 852.524 41.52C851.126 40.36 846.13 41.595 842.809 43.921C841.569 44.789 839.787 45.5 838.849 45.5C837.911 45.5 836.439 46.204 835.579 47.064C834.719 47.924 833.63 48.389 833.159 48.098C832.688 47.807 831.313 48.491 830.104 49.618C828.894 50.745 826.493 52.072 824.768 52.566C821.42 53.527 819.688 52.929 821.886 51.571C823.742 50.424 821.809 49.407 818.284 49.675C816.721 49.794 814.89 49.55 814.214 49.132C813.474 48.675 812.733 49.033 812.349 50.033C811.899 51.207 810.949 51.538 809.106 51.166C807.673 50.877 805.745 50.348 804.823 49.991C803.501 49.48 803.261 49.783 803.69 51.421C804.012 52.656 803.756 53.5 803.058 53.5C802.411 53.5 802.162 53.047 802.504 52.493C802.847 51.939 802.378 51.198 801.462 50.847C800.547 50.496 799.455 50.764 799.035 51.444C798.615 52.123 796.973 52.552 795.386 52.396C793.799 52.24 791.439 52.691 790.143 53.399C788.438 54.329 787.483 54.383 786.693 53.593C786.092 52.992 784.79 52.5 783.8 52.5C782.81 52.5 782 52.105 782 51.621C782 51.138 780.677 50.195 779.06 49.525C776.415 48.429 775.85 48.558 773.415 50.816C771.138 52.928 770.337 53.155 768.355 52.252C767.06 51.662 766 50.746 766 50.217C766 49.688 765.378 49.772 764.617 50.403C763.546 51.292 763.094 51.186 762.614 49.935C762.273 49.047 762.247 47.91 762.556 47.41C762.865 46.909 762.876 46.5 762.579 46.5C762.283 46.5 761.149 48.188 760.059 50.25C756.455 57.07 756.367 57.142 754.144 55.13C752.56 53.697 750.095 53.285 741.791 53.067C736.085 52.916 730.524 52.316 729.433 51.732C728.105 51.021 726.864 50.997 725.681 51.658C723.45 52.907 715.011 51.208 711.262 48.754C709.788 47.79 706.988 46.921 705.041 46.824C703.093 46.728 698.898 46.333 695.717 45.948C691.582 45.447 689.651 44.716 688.938 43.384C688.092 41.803 687.633 41.708 685.909 42.76C684.192 43.809 683.661 43.707 682.47 42.102C681.306 40.532 680.798 40.423 679.531 41.474C678.397 42.416 677.652 42.456 676.658 41.631C675.92 41.019 674.995 40.838 674.604 41.23C674.212 41.622 673.578 41.505 673.196 40.971C672.366 39.813 669.325 37.854 666.347 36.559C665.163 36.045 663.886 35.124 663.508 34.513C663.034 33.745 662.439 33.721 661.58 34.433C660.692 35.17 659.717 34.885 658.158 33.433C656.152 31.563 655.802 31.525 653.767 32.951C651.259 34.708 647.424 34.996 646.498 33.497C646.087 32.831 645.223 32.846 643.924 33.54C642.458 34.325 641.842 34.251 641.454 33.24C640.815 31.577 633.879 31.205 634.142 32.848C634.471 34.909 632.81 39.501 631.932 38.958C631.461 38.667 631.512 37.208 632.044 35.715C632.951 33.17 632.918 33.121 631.506 34.941C630.678 36.009 629.993 36.459 629.985 35.941C629.976 35.424 629.492 35.675 628.909 36.5C628.11 37.629 627.722 37.691 627.341 36.75C627.062 36.063 626.245 35.5 625.525 35.5C624.806 35.5 623.921 34.322 623.56 32.882C623.198 31.442 622.628 30.538 622.293 30.873C621.958 31.208 621.069 30.972 620.318 30.349C619.566 29.725 618.85 29.392 618.726 29.607C618.602 29.823 618.018 30.873 617.429 31.94C616.839 33.008 615.764 34.079 615.039 34.32C614.256 34.581 614.005 34.301 614.42 33.63C614.804 33.008 614.641 32.5 614.059 32.5C613.477 32.5 613 33.175 613 34C613 34.825 612.362 35.5 611.583 35.5C610.804 35.5 609.998 36.006 609.792 36.625C609.55 37.35 608.276 37.5 606.208 37.046C603.61 36.475 603 35.851 603 33.766C603 31.204 602.988 31.201 600.83 33.095C598.883 34.805 598.726 34.821 599.299 33.25C599.65 32.288 599.501 31.5 598.969 31.5C598.436 31.5 598 31.95 598 32.5C598 33.05 597.325 33.5 596.5 33.5C595.675 33.5 595.113 34.063 595.25 34.75C595.388 35.438 594.938 35.888 594.25 35.75C593.563 35.613 593 35.999 593 36.608C593 37.289 593.958 37.476 595.482 37.094C597.298 36.638 598.287 36.987 599.164 38.391C600.115 39.913 600.859 40.124 602.747 39.406C605.745 38.266 606 38.274 606 39.5C606 40.05 605.325 40.5 604.5 40.5C603.675 40.5 603 41.013 603 41.64C603 43.046 599.981 45.425 598.143 45.468C597.313 45.488 597.021 44.887 597.392 43.921C597.895 42.61 597.467 42.458 594.874 43.028C592.841 43.474 591.489 43.291 591.002 42.504C590.443 41.599 589.734 41.572 588.193 42.397C587.059 43.004 584.991 43.5 583.597 43.5C581.684 43.5 581.213 43.107 581.677 41.899C582.015 41.019 581.718 39.944 581.018 39.511C579.291 38.444 580.648 36.5 583.118 36.5C584.218 36.5 584.84 36.05 584.5 35.5C584.16 34.95 583.024 34.5 581.976 34.5C579.88 34.5 577.539 37.945 578.538 39.561C578.937 40.207 578.247 40.349 576.656 39.95C573.427 39.139 570 40.23 570 42.067C570 43.362 568.788 43.94 566.75 43.618C566.337 43.553 566 43.95 566 44.5C566 45.05 565.55 45.5 565 45.5C563.561 45.5 563.766 42.761 565.25 42.162C565.997 41.861 565.795 41.626 564.75 41.579C563.788 41.536 563 41.038 563 40.474C563 39.846 561.933 39.963 560.25 40.776C557 42.344 553.1 41.924 552.332 39.922C551.987 39.025 550.329 38.5 547.834 38.5C545.65 38.5 544.139 38.916 544.457 39.431C544.774 39.943 544.595 40.632 544.06 40.963C543.525 41.293 542.332 40.41 541.408 39C539.882 36.67 539.573 36.576 538.035 37.968C535.988 39.821 533.336 39.961 532.707 38.25C532.357 37.297 531.526 37.393 529.21 38.654C526.524 40.117 525.93 40.139 524.086 38.848C522.939 38.044 522 37.692 522 38.066C522 38.439 521.317 38.178 520.481 37.484C519.244 36.457 518.63 36.525 517.168 37.848C515.783 39.101 515.101 39.201 514.186 38.286C513.295 37.395 512.715 37.385 511.854 38.246C511.224 38.876 509.459 39.142 507.931 38.836C505.934 38.437 504.219 38.974 501.827 40.748C496.474 44.717 491.994 46.5 487.369 46.5C483.838 46.5 482.74 46.967 481.374 49.051C480.205 50.835 479.386 51.286 478.651 50.551C478.073 49.973 476.839 49.5 475.908 49.5C474.955 49.5 473.953 48.449 473.613 47.093C473.154 45.264 472.516 44.814 470.959 45.221C467.941 46.01 446.792 43.411 444.731 41.998C442.84 40.701 438 41.146 438 42.617C438 44.143 436.575 43.589 433.74 40.96C431.924 39.276 431 38.893 431 39.825C431 40.598 430.142 42.321 429.093 43.654C427.588 45.569 425.536 46.353 419.343 47.384C415.029 48.101 410.825 49.228 410 49.887C409.175 50.547 406.7 51.683 404.5 52.413C402.3 53.142 399.492 54.659 398.261 55.784C395.264 58.52 391.908 58.737 388.397 56.423C386.803 55.372 386.137 54.51 386.917 54.507C387.696 54.503 388.129 54.295 387.878 54.045C386.963 53.13 380.01 56.182 378.166 58.308C377.123 59.512 374.896 60.771 373.218 61.106C370.607 61.629 370.119 61.397 369.834 59.499C369.508 57.333 369.417 57.354 366 60.374C363.736 62.375 361.423 63.474 359.45 63.484C357.772 63.493 355.86 64.04 355.2 64.7C354.267 65.633 354 65.552 354 64.336C354 63.175 353.034 62.801 350.25 62.886C347.533 62.969 346.5 62.587 346.5 61.5C346.5 60.675 345.488 59.423 344.25 58.718C343.012 58.013 342 57.015 342 56.499C342 55.984 341.325 55.822 340.5 56.138C339.58 56.491 339 56.138 339 55.224C339 54.404 338.212 53.469 337.25 53.146C336.288 52.822 334.825 52.11 334 51.563C331.926 50.187 323.316 46.5 322.177 46.5C321.664 46.5 320.693 45.834 320.017 45.021C319.072 43.881 318.326 43.79 316.768 44.624C315.555 45.273 314.496 45.336 314.123 44.781C313.78 44.271 312.375 43.911 311 43.98C307.978 44.132 301.507 46.87 300.563 48.398C300.188 49.004 298.982 49.5 297.882 49.5C296.782 49.5 296.16 49.05 296.5 48.5C296.84 47.95 296.641 47.5 296.059 47.5C295.477 47.5 295 46.867 295 46.094C295 44.553 292.196 44.845 288.149 46.806C286.168 47.767 285.58 47.636 284.402 45.973C278.384 37.471 275.201 34.29 271.3 32.874C268.805 31.969 267.542 32.061 264.849 33.343C263.007 34.22 261.35 35.289 261.167 35.719C260.467 37.358 258.79 36.41 259.254 34.637C259.69 32.968 259.261 32.829 255.12 33.294C250.817 33.778 250.599 33.694 251.943 32.072C252.888 30.931 254.355 30.472 256.193 30.742C257.737 30.968 259 30.719 259 30.187C259 29.614 256.773 29.45 253.529 29.785C248.836 30.269 247.549 30.005 244.484 27.925C241.969 26.218 239.534 25.5 236.26 25.5C232.584 25.5 231.026 26.059 228.826 28.167C225.602 31.256 220.973 31.691 218.184 29.167C217.171 28.25 215.14 27.5 213.671 27.5C212.202 27.5 211 27.02 211 26.433C211 25.805 211.927 25.626 213.25 25.998C214.841 26.446 215.097 26.352 214.126 25.68C213.37 25.156 210.445 24.86 207.626 25.022C203.633 25.25 202.027 24.878 200.362 23.338C199.186 22.251 198.396 20.605 198.606 19.681C199.111 17.46 192.872 13.525 188.681 13.421C186.931 13.378 186.154 13.085 186.953 12.77C189.287 11.851 179.314 9.735 174.248 10.073C170.895 10.297 169.005 9.862 167.214 8.454C164.567 6.372 162.743 6.668 163.651 9.032C164.002 9.947 163.609 10.5 162.607 10.5C161.723 10.5 161.112 9.977 161.25 9.339C161.604 7.694 153.198 5.324 151.063 6.466C150.129 6.966 147.146 7.165 144.433 6.909C141.72 6.654 138.825 6.386 138 6.315C137.175 6.244 133.912 6.488 130.75 6.857C127.09 7.284 125 7.159 125 6.514C125 5.956 123.975 5.5 122.723 5.5C120.463 5.5 116.157 3.09 114.786 1.058C114.373 0.445 110.274 0 105.037 0C97.375 0 96.001 0.246 96.001 1.62ZM140.574 10.619C141.207 11.644 140.375 11.707 137.25 10.87C136.012 10.538 135 9.932 135 9.522C135 8.533 139.878 9.493 140.574 10.619ZM255.667 36.167C255.3 36.533 255 36.233 255 35.5C255 34.767 255.3 34.467 255.667 34.833C256.033 35.2 256.033 35.8 255.667 36.167ZM659 35.5C659 36.05 658.55 36.5 658 36.5C657.45 36.5 657 36.05 657 35.5C657 34.95 657.45 34.5 658 34.5C658.55 34.5 659 34.95 659 35.5ZM601.667 38.167C601.3 38.533 600.7 38.533 600.333 38.167C599.967 37.8 600.267 37.5 601 37.5C601.733 37.5 602.033 37.8 601.667 38.167ZM587.186 39.555C585.913 40.065 585.141 40.919 585.47 41.452C585.82 42.017 586.889 41.719 588.035 40.738C590.918 38.269 590.8 38.105 587.186 39.555ZM657.667 41.167C657.3 41.533 657 41.233 657 40.5C657 39.767 657.3 39.467 657.667 39.833C658.033 40.2 658.033 40.8 657.667 41.167ZM534 41.5C534 42.05 533.802 42.5 533.559 42.5C533.316 42.5 532.84 42.05 532.5 41.5C532.16 40.95 532.359 40.5 532.941 40.5C533.523 40.5 534 40.95 534 41.5ZM541.5 45.5C541.16 46.05 540.432 46.5 539.882 46.5C539.332 46.5 539.16 46.05 539.5 45.5C539.84 44.95 540.568 44.5 541.118 44.5C541.668 44.5 541.84 44.95 541.5 45.5ZM688 45.333C688 46.635 686.811 47.501 685.844 46.904C684.81 46.265 685.702 44.5 687.059 44.5C687.577 44.5 688 44.875 688 45.333ZM418.667 49.167C418.3 49.533 417.7 49.533 417.333 49.167C416.967 48.8 417.267 48.5 418 48.5C418.733 48.5 419.033 48.8 418.667 49.167ZM695.5 49.5C695.84 50.05 695.39 50.5 694.5 50.5C693.61 50.5 693.16 50.05 693.5 49.5C693.84 48.95 694.29 48.5 694.5 48.5C694.71 48.5 695.16 48.95 695.5 49.5ZM431.604 53.229C430.588 54.246 429.749 52.715 430.583 51.366C431.213 50.346 431.449 50.346 431.787 51.362C432.019 52.057 431.936 52.897 431.604 53.229ZM755.5 53.5C755.84 54.05 756.316 54.5 756.559 54.5C756.802 54.5 757 54.05 757 53.5C757 52.95 756.523 52.5 755.941 52.5C755.359 52.5 755.16 52.95 755.5 53.5ZM801 53.441C801 54.834 799.162 55.718 797.893 54.934C797.122 54.457 797.197 53.99 798.143 53.39C799.928 52.259 801 52.278 801 53.441ZM817.667 55.167C817.3 55.533 817 55.233 817 54.5C817 53.767 817.3 53.467 817.667 53.833C818.033 54.2 818.033 54.8 817.667 55.167ZM795 54.941C795 55.184 794.48 55.703 793.845 56.095C793.13 56.538 792.962 56.37 793.405 55.655C794.117 54.502 795 54.107 795 54.941ZM822 58.5C822 59.05 821.523 59.5 820.941 59.5C820.359 59.5 820.16 59.05 820.5 58.5C820.84 57.95 821.316 57.5 821.559 57.5C821.802 57.5 822 57.95 822 58.5ZM1156.67 62.167C1156.3 62.533 1156 62.233 1156 61.5C1156 60.767 1156.3 60.467 1156.67 60.833C1157.03 61.2 1157.03 61.8 1156.67 62.167ZM1015.67 63.167C1015.3 63.533 1014.7 63.533 1014.33 63.167C1013.97 62.8 1014.27 62.5 1015 62.5C1015.73 62.5 1016.03 62.8 1015.67 63.167ZM919.667 65.167C919.3 65.533 918.7 65.533 918.333 65.167C917.967 64.8 918.267 64.5 919 64.5C919.733 64.5 920.033 64.8 919.667 65.167ZM1055.5 65.5C1055.84 66.05 1055.39 66.5 1054.5 66.5C1053.61 66.5 1053.16 66.05 1053.5 65.5C1053.84 64.95 1054.29 64.5 1054.5 64.5C1054.71 64.5 1055.16 64.95 1055.5 65.5ZM366.729 67.104C366.397 67.436 365.534 67.472 364.813 67.183C364.015 66.864 364.252 66.627 365.417 66.579C366.471 66.536 367.061 66.772 366.729 67.104ZM962 67.883C962 68.644 961.212 69.545 960.25 69.884C959.288 70.224 957.896 70.777 957.157 71.115C956.419 71.452 956.837 70.552 958.088 69.114C960.605 66.219 962 65.78 962 67.883ZM1214.5 69.5C1214.16 70.05 1214.36 70.5 1214.94 70.5C1215.52 70.5 1216 70.05 1216 69.5C1216 68.95 1215.8 68.5 1215.56 68.5C1215.32 68.5 1214.84 68.95 1214.5 69.5ZM1232.5 74.5C1232.84 75.05 1232.64 75.5 1232.06 75.5C1231.48 75.5 1231 75.05 1231 74.5C1231 73.95 1231.2 73.5 1231.44 73.5C1231.68 73.5 1232.16 73.95 1232.5 74.5Z" clip-rule="evenodd"/></svg>