<svg width="1600" height="82" viewBox="0 0 1600 82" xmlns="http://www.w3.org/2000/svg">
<path fill-rule="evenodd" clip-rule="evenodd" d="M96.001 79.88C96 78.511 94.892 78.305 88.842 78.55C83.915 78.749 81.008 78.396 79.512 77.416C78.318 76.633 77.092 76.241 76.789 76.545C76.485 76.848 72.921 77.458 68.868 77.899C64.016 78.427 61.27 78.347 60.826 77.665C60.381 76.981 59.591 77.094 58.5 78C57.176 79.099 56.691 79.119 56.061 78.1C55.629 77.4 54.426 76.918 53.388 77.029C52.349 77.14 51.275 77.141 51 77.032C50.725 76.923 49.6 76.718 48.5 76.577C47.4 76.436 45.038 75.988 43.25 75.581C41.134 75.099 40 75.218 40 75.921C40 76.514 38.65 77 37 77C35.35 77 34 76.55 34 76C34 75.45 33.523 75 32.941 75C32.359 75 32.2 75.515 32.59 76.145C33.095 76.963 32.47 77.078 30.399 76.546C28.804 76.137 26.15 75.834 24.5 75.873C22.85 75.911 19.616 75.708 17.313 75.42C13.96 75.001 13.063 74.458 12.813 72.698C12.529 70.702 11.926 70.5 6.25 70.5H0V35.25V0H800H1600V24.923V49.847L1596.75 48.222C1594.96 47.328 1590.8 46.413 1587.5 46.187C1583.69 45.927 1580.77 45.137 1579.5 44.025C1577.75 42.495 1575.66 42.31 1563 42.566C1555.03 42.728 1546.62 43.172 1544.32 43.553C1540.67 44.156 1539.3 43.783 1533.73 40.668C1528.98 38.009 1525.61 36.913 1520.62 36.402C1516.02 35.93 1512.63 36.133 1509.87 37.043C1506.38 38.193 1505.25 38.152 1501.43 36.736C1497.5 35.282 1496.62 35.261 1493.54 36.549C1488.85 38.506 1486.29 38.375 1483.31 36.027C1480.97 34.189 1480.59 34.16 1477.79 35.608C1476.08 36.495 1473.75 36.903 1472.38 36.558C1470.77 36.155 1467.84 36.981 1463.57 39.039C1458.48 41.494 1456.44 41.986 1453.59 41.451C1451.18 40.999 1450 41.151 1450 41.914C1450 42.676 1449.03 42.547 1447.05 41.526C1445.43 40.687 1442.81 40 1441.24 40C1439.25 40 1437.73 39.129 1436.28 37.162C1434.37 34.579 1433.61 34.319 1427.84 34.263C1424.35 34.229 1420.72 34.62 1419.76 35.13C1418.56 35.771 1417.29 35.578 1415.65 34.507C1414.35 33.653 1412.56 33.23 1411.69 33.566C1410.81 33.902 1407.94 33.063 1405.3 31.701C1399.45 28.683 1392.84 26.394 1387.5 25.536C1381.36 24.549 1380 23.987 1380 22.433C1380 20.6 1379.49 20.631 1376.41 22.651C1374.35 24.002 1373.25 24.105 1370.35 23.217C1368.41 22.62 1366.2 22.369 1365.44 22.659C1363.83 23.278 1353.44 17.56 1351.11 14.77C1350.22 13.714 1347.82 12.027 1345.76 11.021C1342.08 9.219 1341.99 9.223 1339.29 11.347C1337.37 12.856 1335.15 13.5 1331.86 13.5C1328.22 13.5 1327.4 13.78 1328.21 14.75C1328.99 15.695 1328.62 16 1326.68 16C1325.27 16 1323.85 15.57 1323.53 15.044C1323.2 14.518 1322.29 14.333 1321.51 14.634C1320.73 14.934 1318.93 14.022 1317.52 12.608C1315.49 10.581 1314.11 10.091 1311.03 10.298C1308.87 10.442 1306.78 10.884 1306.39 11.28C1305.99 11.676 1303.94 12 1301.83 12C1299.4 12 1297.31 11.306 1296.1 10.099C1293.91 7.908 1289.34 6.131 1290.43 7.893C1290.81 8.502 1290.69 9 1290.17 9C1289.64 9 1288.95 8.325 1288.64 7.5C1288.32 6.675 1287.19 6 1286.11 6C1285.04 6 1283.98 5.438 1283.75 4.75C1283.47 3.908 1281.49 3.577 1277.69 3.736C1274.59 3.867 1270.86 3.517 1269.4 2.96C1267.36 2.188 1266.18 2.31 1264.4 3.473C1261.23 5.549 1259.26 5.391 1258.5 3C1258.15 1.9 1257.33 1.014 1256.68 1.031C1255.21 1.071 1251.51 6 1252.95 6C1253.53 6 1254 6.439 1254 6.975C1254 7.54 1252.63 7.68 1250.75 7.306C1247.79 6.719 1247.62 6.811 1248.89 8.354C1250.12 9.853 1250.07 9.969 1248.39 9.368C1247.35 8.995 1245.94 8.254 1245.25 7.722C1244.43 7.09 1244 7.112 1244 7.784C1244 8.35 1243.1 8.577 1242 8.29C1240.61 7.926 1240 8.259 1240 9.383C1240 10.795 1237.6 11.581 1234.72 11.109C1234.29 11.039 1233.68 11.661 1233.36 12.491C1232.4 15.008 1228.55 14.23 1226.19 11.04C1224.98 9.413 1224 7.613 1224 7.04C1224 5.437 1222.01 5.809 1221.35 7.537C1221.02 8.383 1221.49 9.881 1222.38 10.866C1223.27 11.851 1224 13.41 1224 14.329C1224 17.009 1220.71 16.246 1218.12 12.966C1216.48 10.892 1215.17 10.13 1213.92 10.526C1212.86 10.863 1211.35 10.353 1210.3 9.301C1209.13 8.132 1207 7.5 1204.25 7.5C1201.91 7.5 1200 7.162 1200 6.75C1200 5.428 1197.2 5.948 1195.57 7.571C1194.71 8.436 1194 8.713 1194 8.188C1194 7.663 1192.82 7.008 1191.38 6.733C1189.57 6.386 1188.11 6.887 1186.63 8.366C1185.46 9.54 1184.61 10.838 1184.75 11.25C1184.89 11.663 1184.66 12.038 1184.25 12.083C1183.84 12.129 1182.38 12.358 1181 12.593C1179.62 12.827 1177.88 13.09 1177.13 13.176C1176.38 13.263 1174.38 14.595 1172.69 16.138C1169.42 19.12 1162.33 21.98 1158.07 22.03C1155.94 22.056 1155.78 22.224 1157.16 23.028C1158.53 23.832 1158.62 24.419 1157.66 26.498C1157.02 27.875 1155.97 28.801 1155.31 28.557C1154.66 28.312 1153.9 28.65 1153.63 29.306C1153.28 30.132 1152.69 29.96 1151.7 28.75C1150.92 27.788 1149.54 27 1148.64 27C1147.74 27 1147 26.273 1147 25.383C1147 24.194 1146.33 23.894 1144.48 24.249C1143.09 24.515 1141.69 24.306 1141.37 23.785C1141.04 23.264 1139.67 23.117 1138.31 23.459C1136.52 23.908 1136.04 23.745 1136.58 22.87C1137.1 22.033 1136.8 21.861 1135.63 22.313C1134.57 22.717 1133.71 22.403 1133.36 21.489C1133.05 20.676 1132.32 20.303 1131.74 20.659C1131.17 21.014 1130.07 20.451 1129.31 19.408C1128.11 17.772 1127.79 17.716 1126.98 19.005C1126.16 20.289 1126.03 20.263 1126.02 18.817C1126.01 17.892 1125.1 16.849 1124 16.5C1122.9 16.151 1122 15.246 1122 14.489C1122 10.608 1112.07 8.327 1110.08 11.75C1109.46 12.812 1109.05 12.989 1109.03 12.201C1109 10.982 1101.76 7.07 1099.44 7.022C1098.86 7.01 1096.98 8.166 1095.26 9.59C1093.34 11.18 1092.35 12.757 1092.7 13.672C1093.15 14.846 1092.64 15.063 1090.27 14.69C1086.31 14.066 1084.61 15.197 1085.46 17.886C1086.09 19.868 1085.96 19.937 1083.57 18.848C1080.75 17.564 1078.66 18.542 1081.03 20.039C1081.91 20.593 1082.02 20.976 1081.32 20.985C1080.67 20.993 1079.44 21.707 1078.57 22.571C1077.2 23.948 1077 23.955 1077 22.63C1077 20.633 1075.09 19.514 1073.83 20.774C1073.16 21.441 1073.19 21.998 1073.91 22.446C1074.51 22.816 1075 23.507 1075 23.982C1075 24.458 1073.61 24.154 1071.91 23.307C1070.21 22.46 1067.12 21.79 1065.03 21.819C1062.25 21.857 1060.61 21.216 1058.94 19.436C1056.69 17.042 1054.29 16.039 1055.5 18C1056.41 19.468 1054.26 19.223 1053.31 17.75C1052.87 17.062 1052.51 15.204 1052.5 13.621C1052.5 10.769 1049.77 7.894 1048.39 9.281C1047.99 9.672 1048.2 11.134 1048.83 12.529C1049.8 14.644 1049.72 15.171 1048.37 15.688C1047.4 16.061 1046.38 15.647 1045.83 14.654C1044.41 12.126 1039.31 9.879 1034.83 9.817C1032.16 9.78 1029.76 10.529 1027.66 12.057C1025.92 13.319 1024.14 14.948 1023.7 15.676C1023.26 16.404 1021.99 17 1020.88 17C1019.77 17 1018.18 17.675 1017.36 18.5C1015.36 20.501 1013.92 20.393 1013.34 18.2C1012.43 14.729 1005.36 11.898 1004.33 14.593C1003.86 15.812 1003.48 15.698 1002.27 13.978C1001.46 12.816 1000.2 12.094 999.469 12.373C998.742 12.653 997.608 12.233 996.951 11.441C995.211 9.344 994.002 9.675 993.986 12.25C993.958 16.869 992.846 18.881 990.148 19.193C987.915 19.452 987.545 19.931 987.788 22.25C988.093 25.161 987.059 25.637 983.995 23.997C982.719 23.314 981.912 23.333 981.465 24.056C980.635 25.4 975.113 24.256 973.201 22.344C972.425 21.568 971.048 21.167 970.141 21.455C969.235 21.743 966.948 20.971 965.06 19.739C957.731 14.959 955.832 13.986 954.926 14.546C954.409 14.865 953.717 14.426 953.388 13.57C952.872 12.224 952.379 12.306 949.76 14.171C947.061 16.093 946.908 16.46 948.365 17.525C950.828 19.326 950.332 20.3 947.334 19.548C945.226 19.018 944.207 19.415 942.462 21.446C940.767 23.419 940.026 23.722 939.262 22.757C938.716 22.065 938.056 20.825 937.797 20C937.046 17.614 931.823 18.169 929.141 20.919C926.885 23.233 926.646 23.27 923.641 21.783C916.176 18.09 913.454 17.147 912.628 17.972C912.149 18.452 911.024 18.57 910.128 18.235C908.776 17.729 908.71 17.884 909.741 19.155C911.42 21.223 910.36 22.022 906.866 21.323C904.581 20.866 903.451 21.3 901.531 23.372C900.192 24.817 898.399 26 897.548 26C896.696 26 896 26.644 896 27.43C896 28.217 894.987 29.005 893.75 29.18C892.513 29.356 891.5 30.175 891.5 31C891.5 31.825 890.946 33.4 890.268 34.5C889.268 36.124 888.866 36.24 888.126 35.115C887.394 34.002 886.99 34.149 886.072 35.865C884.664 38.496 882.975 38.619 882.326 36.137C881.94 34.664 881.012 34.321 877.893 34.497C875.723 34.619 873.663 35.004 873.316 35.351C872.968 35.698 872.075 35.477 871.33 34.859C870.585 34.241 868.67 33.583 867.075 33.397C864.641 33.114 864.013 33.523 863.169 35.945C862.616 37.532 862.403 39.069 862.695 39.362C862.988 39.654 861.084 39.693 858.465 39.447C855.846 39.202 853.173 39.442 852.524 39.98C851.126 41.14 846.13 39.905 842.809 37.579C841.569 36.711 839.787 36 838.849 36C837.911 36 836.439 35.296 835.579 34.436C834.719 33.576 833.63 33.111 833.159 33.402C832.688 33.693 831.313 33.009 830.104 31.882C828.894 30.755 826.493 29.428 824.768 28.934C821.42 27.973 819.688 28.571 821.886 29.929C823.742 31.076 821.809 32.093 818.284 31.825C816.721 31.706 814.89 31.95 814.214 32.368C813.474 32.825 812.733 32.467 812.349 31.467C811.899 30.293 810.949 29.962 809.106 30.334C807.673 30.623 805.745 31.152 804.823 31.509C803.501 32.02 803.261 31.717 803.69 30.079C804.012 28.844 803.756 28 803.058 28C802.411 28 802.162 28.453 802.504 29.007C802.847 29.561 802.378 30.302 801.462 30.653C800.547 31.004 799.455 30.736 799.035 30.056C798.615 29.377 796.973 28.948 795.386 29.104C793.799 29.26 791.439 28.809 790.143 28.101C788.438 27.171 787.483 27.117 786.693 27.907C786.092 28.508 784.79 29 783.8 29C782.81 29 782 29.395 782 29.879C782 30.362 780.677 31.305 779.06 31.975C776.415 33.071 775.85 32.942 773.415 30.684C771.138 28.572 770.337 28.345 768.355 29.248C767.06 29.838 766 30.754 766 31.283C766 31.812 765.378 31.728 764.617 31.097C763.546 30.208 763.094 30.314 762.614 31.565C762.273 32.453 762.247 33.59 762.556 34.09C762.865 34.591 762.876 35 762.579 35C762.283 35 761.149 33.312 760.059 31.25C756.455 24.43 756.367 24.358 754.144 26.37C752.56 27.803 750.095 28.215 741.791 28.433C736.085 28.584 730.524 29.184 729.433 29.768C728.105 30.479 726.864 30.503 725.681 29.842C723.45 28.593 715.011 30.292 711.262 32.746C709.788 33.71 706.988 34.579 705.041 34.676C703.093 34.772 698.898 35.167 695.717 35.552C691.582 36.053 689.651 36.784 688.938 38.116C688.092 39.697 687.633 39.792 685.909 38.74C684.192 37.691 683.661 37.793 682.47 39.398C681.306 40.968 680.798 41.077 679.531 40.026C678.397 39.084 677.652 39.044 676.658 39.869C675.92 40.481 674.995 40.662 674.604 40.27C674.212 39.878 673.578 39.995 673.196 40.529C672.366 41.687 669.325 43.646 666.347 44.941C665.163 45.455 663.886 46.376 663.508 46.987C663.034 47.755 662.439 47.779 661.58 47.067C660.692 46.33 659.717 46.615 658.158 48.067C656.152 49.937 655.802 49.975 653.767 48.549C651.259 46.792 647.424 46.504 646.498 48.003C646.087 48.669 645.223 48.654 643.924 47.96C642.458 47.175 641.842 47.249 641.454 48.26C640.815 49.923 633.879 50.295 634.142 48.652C634.471 46.591 632.81 41.999 631.932 42.542C631.461 42.833 631.512 44.292 632.044 45.785C632.951 48.33 632.918 48.379 631.506 46.559C630.678 45.491 629.993 45.041 629.985 45.559C629.976 46.076 629.492 45.825 628.909 45C628.11 43.871 627.722 43.809 627.341 44.75C627.062 45.437 626.245 46 625.525 46C624.806 46 623.921 47.178 623.56 48.618C623.198 50.058 622.628 50.962 622.293 50.627C621.958 50.292 621.069 50.528 620.318 51.151C619.566 51.775 618.85 52.108 618.726 51.893C618.602 51.677 618.018 50.627 617.429 49.56C616.839 48.492 615.764 47.421 615.039 47.18C614.256 46.919 614.005 47.199 614.42 47.87C614.804 48.492 614.641 49 614.059 49C613.477 49 613 48.325 613 47.5C613 46.675 612.362 46 611.583 46C610.804 46 609.998 45.494 609.792 44.875C609.55 44.15 608.276 44 606.208 44.454C603.61 45.025 603 45.649 603 47.734C603 50.296 602.988 50.299 600.83 48.405C598.883 46.695 598.726 46.679 599.299 48.25C599.65 49.212 599.501 50 598.969 50C598.436 50 598 49.55 598 49C598 48.45 597.325 48 596.5 48C595.675 48 595.113 47.437 595.25 46.75C595.388 46.062 594.938 45.612 594.25 45.75C593.563 45.887 593 45.501 593 44.892C593 44.211 593.958 44.024 595.482 44.406C597.298 44.862 598.287 44.513 599.164 43.109C600.115 41.587 600.859 41.376 602.747 42.094C605.745 43.234 606 43.226 606 42C606 41.45 605.325 41 604.5 41C603.675 41 603 40.487 603 39.86C603 38.454 599.981 36.075 598.143 36.032C597.313 36.012 597.021 36.613 597.392 37.579C597.895 38.89 597.467 39.042 594.874 38.472C592.841 38.026 591.489 38.209 591.002 38.996C590.443 39.901 589.734 39.928 588.193 39.103C587.059 38.496 584.991 38 583.597 38C581.684 38 581.213 38.393 581.677 39.601C582.015 40.481 581.718 41.556 581.018 41.989C579.291 43.056 580.648 45 583.118 45C584.218 45 584.84 45.45 584.5 46C584.16 46.55 583.024 47 581.976 47C579.88 47 577.539 43.555 578.538 41.939C578.937 41.293 578.247 41.151 576.656 41.55C573.427 42.361 570 41.27 570 39.433C570 38.138 568.788 37.56 566.75 37.882C566.337 37.947 566 37.55 566 37C566 36.45 565.55 36 565 36C563.561 36 563.766 38.739 565.25 39.338C565.997 39.639 565.795 39.874 564.75 39.921C563.788 39.964 563 40.462 563 41.026C563 41.654 561.933 41.537 560.25 40.724C557 39.156 553.1 39.576 552.332 41.578C551.987 42.475 550.329 43 547.834 43C545.65 43 544.139 42.584 544.457 42.069C544.774 41.557 544.595 40.868 544.06 40.537C543.525 40.207 542.332 41.09 541.408 42.5C539.882 44.83 539.573 44.924 538.035 43.532C535.988 41.679 533.336 41.539 532.707 43.25C532.357 44.203 531.526 44.107 529.21 42.846C526.524 41.383 525.93 41.361 524.086 42.652C522.939 43.456 522 43.808 522 43.434C522 43.061 521.317 43.322 520.481 44.016C519.244 45.043 518.63 44.975 517.168 43.652C515.783 42.399 515.101 42.299 514.186 43.214C513.295 44.105 512.715 44.115 511.854 43.254C511.224 42.624 509.459 42.358 507.931 42.664C505.934 43.063 504.219 42.526 501.827 40.752C496.474 36.783 491.994 35 487.369 35C483.838 35 482.74 34.533 481.374 32.449C480.205 30.665 479.386 30.214 478.651 30.949C478.073 31.527 476.839 32 475.908 32C474.955 32 473.953 33.051 473.613 34.407C473.154 36.236 472.516 36.686 470.959 36.279C467.941 35.49 446.792 38.089 444.731 39.502C442.84 40.799 438 40.354 438 38.883C438 37.357 436.575 37.911 433.74 40.54C431.924 42.224 431 42.607 431 41.675C431 40.902 430.142 39.179 429.093 37.846C427.588 35.931 425.536 35.147 419.343 34.116C415.029 33.399 410.825 32.272 410 31.613C409.175 30.953 406.7 29.817 404.5 29.087C402.3 28.358 399.492 26.841 398.261 25.716C395.264 22.98 391.908 22.763 388.397 25.077C386.803 26.128 386.137 26.99 386.917 26.993C387.696 26.997 388.129 27.205 387.878 27.455C386.963 28.37 380.01 25.318 378.166 23.192C377.123 21.988 374.896 20.729 373.218 20.394C370.607 19.871 370.119 20.103 369.834 22.001C369.508 24.167 369.417 24.146 366 21.126C363.736 19.125 361.423 18.026 359.45 18.016C357.772 18.007 355.86 17.46 355.2 16.8C354.267 15.867 354 15.948 354 17.164C354 18.325 353.034 18.699 350.25 18.614C347.533 18.531 346.5 18.913 346.5 20C346.5 20.825 345.488 22.077 344.25 22.782C343.012 23.487 342 24.485 342 25.001C342 25.516 341.325 25.678 340.5 25.362C339.58 25.009 339 25.362 339 26.276C339 27.096 338.212 28.031 337.25 28.354C336.288 28.678 334.825 29.39 334 29.937C331.926 31.313 323.316 35 322.177 35C321.664 35 320.693 35.666 320.017 36.479C319.072 37.619 318.326 37.71 316.768 36.876C315.555 36.227 314.496 36.164 314.123 36.719C313.78 37.229 312.375 37.589 311 37.52C307.978 37.368 301.507 34.63 300.563 33.102C300.188 32.496 298.982 32 297.882 32C296.782 32 296.16 32.45 296.5 33C296.84 33.55 296.641 34 296.059 34C295.477 34 295 34.633 295 35.406C295 36.947 292.196 36.655 288.149 34.694C286.168 33.733 285.58 33.864 284.402 35.527C278.384 44.029 275.201 47.21 271.3 48.626C268.805 49.531 267.542 49.439 264.849 48.157C263.007 47.28 261.35 46.211 261.167 45.781C260.467 44.142 258.79 45.09 259.254 46.863C259.69 48.532 259.261 48.671 255.12 48.206C250.817 47.722 250.599 47.806 251.943 49.428C252.888 50.569 254.355 51.028 256.193 50.758C257.737 50.532 259 50.781 259 51.313C259 51.886 256.773 52.05 253.529 51.715C248.836 51.231 247.549 51.495 244.484 53.575C241.969 55.282 239.534 56 236.26 56C232.584 56 231.026 55.441 228.826 53.333C225.602 50.244 220.973 49.809 218.184 52.333C217.171 53.25 215.14 54 213.671 54C212.202 54 211 54.48 211 55.067C211 55.695 211.927 55.874 213.25 55.502C214.841 55.054 215.097 55.148 214.126 55.82C213.37 56.344 210.445 56.64 207.626 56.478C203.633 56.25 202.027 56.622 200.362 58.162C199.186 59.249 198.396 60.895 198.606 61.819C199.111 64.04 192.872 67.975 188.681 68.079C186.931 68.122 186.154 68.415 186.953 68.73C189.287 69.649 179.314 71.765 174.248 71.427C170.895 71.203 169.005 71.638 167.214 73.046C164.567 75.128 162.743 74.832 163.651 72.468C164.002 71.553 163.609 71 162.607 71C161.723 71 161.112 71.523 161.25 72.161C161.604 73.806 153.198 76.176 151.063 75.034C150.129 74.534 147.146 74.335 144.433 74.591C141.72 74.846 138.825 75.114 138 75.185C137.175 75.256 133.912 75.012 130.75 74.643C127.09 74.216 125 74.341 125 74.986C125 75.544 123.975 76 122.723 76C120.463 76 116.157 78.41 114.786 80.442C114.373 81.055 110.274 81.5 105.037 81.5C97.375 81.5 96.001 81.254 96.001 79.88ZM140.574 70.881C141.207 69.856 140.375 69.793 137.25 70.63C136.012 70.962 135 71.568 135 71.978C135 72.967 139.878 72.007 140.574 70.881ZM255.667 45.333C255.3 44.967 255 45.267 255 46C255 46.733 255.3 47.033 255.667 46.667C256.033 46.3 256.033 45.7 255.667 45.333ZM659 46C659 45.45 658.55 45 658 45C657.45 45 657 45.45 657 46C657 46.55 657.45 47 658 47C658.55 47 659 46.55 659 46ZM601.667 43.333C601.3 42.967 600.7 42.967 600.333 43.333C599.967 43.7 600.267 44 601 44C601.733 44 602.033 43.7 601.667 43.333ZM587.186 41.945C585.913 41.435 585.141 40.581 585.47 40.048C585.82 39.483 586.889 39.781 588.035 40.762C590.918 43.231 590.8 43.395 587.186 41.945ZM657.667 40.333C657.3 39.967 657 40.267 657 41C657 41.733 657.3 42.033 657.667 41.667C658.033 41.3 658.033 40.7 657.667 40.333ZM534 40C534 39.45 533.802 39 533.559 39C533.316 39 532.84 39.45 532.5 40C532.16 40.55 532.359 41 532.941 41C533.523 41 534 40.55 534 40ZM541.5 36C541.16 35.45 540.432 35 539.882 35C539.332 35 539.16 35.45 539.5 36C539.84 36.55 540.568 37 541.118 37C541.668 37 541.84 36.55 541.5 36ZM688 36.167C688 34.865 686.811 33.999 685.844 34.596C684.81 35.235 685.702 37 687.059 37C687.577 37 688 36.625 688 36.167ZM418.667 32.333C418.3 31.967 417.7 31.967 417.333 32.333C416.967 32.7 417.267 33 418 33C418.733 33 419.033 32.7 418.667 32.333ZM695.5 32C695.84 31.45 695.39 31 694.5 31C693.61 31 693.16 31.45 693.5 32C693.84 32.55 694.29 33 694.5 33C694.71 33 695.16 32.55 695.5 32ZM431.604 28.271C430.588 27.254 429.749 28.785 430.583 30.134C431.213 31.154 431.449 31.154 431.787 30.138C432.019 29.443 431.936 28.603 431.604 28.271ZM755.5 28C755.84 27.45 756.316 27 756.559 27C756.802 27 757 27.45 757 28C757 28.55 756.523 29 755.941 29C755.359 29 755.16 28.55 755.5 28ZM801 28.059C801 26.666 799.162 25.782 797.893 26.566C797.122 27.043 797.197 27.51 798.143 28.11C799.928 29.241 801 29.222 801 28.059ZM817.667 26.333C817.3 25.967 817 26.267 817 27C817 27.733 817.3 28.033 817.667 27.667C818.033 27.3 818.033 26.7 817.667 26.333ZM795 26.559C795 26.316 794.48 25.797 793.845 25.405C793.13 24.962 792.962 25.13 793.405 25.845C794.117 26.998 795 27.393 795 26.559ZM822 23C822 22.45 821.523 22 820.941 22C820.359 22 820.16 22.45 820.5 23C820.84 23.55 821.316 24 821.559 24C821.802 24 822 23.55 822 23ZM1156.67 19.333C1156.3 18.967 1156 19.267 1156 20C1156 20.733 1156.3 21.033 1156.67 20.667C1157.03 20.3 1157.03 19.7 1156.67 19.333ZM1015.67 18.333C1015.3 17.967 1014.7 17.967 1014.33 18.333C1013.97 18.7 1014.27 19 1015 19C1015.73 19 1016.03 18.7 1015.67 18.333ZM919.667 16.333C919.3 15.967 918.7 15.967 918.333 16.333C917.967 16.7 918.267 17 919 17C919.733 17 920.033 16.7 919.667 16.333ZM1055.5 16C1055.84 15.45 1055.39 15 1054.5 15C1053.61 15 1053.16 15.45 1053.5 16C1053.84 16.55 1054.29 17 1054.5 17C1054.71 17 1055.16 16.55 1055.5 16ZM366.729 14.396C366.397 14.064 365.534 14.028 364.813 14.317C364.015 14.636 364.252 14.873 365.417 14.921C366.471 14.964 367.061 14.728 366.729 14.396ZM962 13.617C962 12.856 961.212 11.955 960.25 11.616C959.288 11.276 957.896 10.723 957.157 10.385C956.419 10.048 956.837 10.948 958.088 12.386C960.605 15.281 962 15.72 962 13.617ZM1214.5 12C1214.16 11.45 1214.36 11 1214.94 11C1215.52 11 1216 11.45 1216 12C1216 12.55 1215.8 13 1215.56 13C1215.32 13 1214.84 12.55 1214.5 12ZM1232.5 7C1232.84 6.45 1232.64 6 1232.06 6C1231.48 6 1231 6.45 1231 7C1231 7.55 1231.2 8 1231.44 8C1231.68 8 1232.16 7.55 1232.5 7Z"/>
</svg>
