<svg xmlns="http://www.w3.org/2000/svg" width="1366" height="131" viewBox="0 0 1366 131"><path fill-rule="evenodd" d="M0.00639963 40.1841C0.0102394 63.6707 0.169889 79.956 0.392291 79.6047C0.709886 79.1027 1.28233 79.0886 3.93279 79.5159C5.67145 79.7964 7.37084 79.9381 7.70893 79.8301C8.04744 79.7225 8.86021 79.5168 9.51546 79.3729C10.1707 79.2291 10.6014 78.9409 10.4725 78.7322C10.3436 78.5234 10.9224 78.4073 11.7591 78.4735C12.7465 78.552 13.216 78.4265 13.0969 78.1166C12.8583 77.4947 16.8978 77.224 17.2765 77.8366C17.428 78.082 17.7567 78.2827 18.006 78.2827C18.2976 78.2827 18.3172 78.0914 18.0611 77.7491C17.8417 77.4558 17.6743 76.8479 17.6888 76.3984C17.72 75.4422 18.7825 74.9185 18.7825 75.8593C18.7825 76.2909 19.0647 76.4215 19.6606 76.2657C20.1814 76.1295 20.4473 75.7987 20.3141 75.4521C20.1698 75.076 20.3982 74.8677 20.9553 74.8677C21.4317 74.8677 21.7023 74.6756 21.5572 74.4408C21.412 74.206 21.6729 74.0139 22.1369 74.0139C22.6005 74.0139 23.0769 73.7736 23.1955 73.4803C23.3676 73.0535 23.4175 73.0535 23.4444 73.4803C23.4943 74.2718 24.3319 74.1279 24.3319 73.3279C24.3319 72.9207 24.5709 72.7337 24.9201 72.8678C25.2437 72.992 25.7303 72.8716 26.0014 72.6005C26.374 72.2279 26.555 72.3401 26.7433 73.0607C27.0225 74.127 27.7469 74.3601 27.7469 73.3834C27.7469 73.0368 28.1895 72.4631 28.7304 72.1088C29.4211 71.6559 30.0879 71.5662 30.9715 71.8066C32.6734 72.2697 34.8689 72.0226 35.983 71.2418C37.1975 70.3915 37.9919 70.4278 37.9919 71.3344C37.9919 71.9385 38.1101 71.9005 38.6565 71.121C39.4189 70.032 41.0543 69.8732 41.8337 70.8124C42.1262 71.1645 42.7259 71.4527 43.1664 71.4527C44.0236 71.4527 44.2456 70.8209 43.5412 70.3855C42.9061 69.9928 43.0252 69.4604 43.7487 69.4605C44.0975 69.4605 44.4863 69.7874 44.6131 70.187C44.7399 70.5866 45.1839 71.2209 45.5992 71.597C46.3087 72.239 46.3467 72.1971 46.222 70.9063C46.0534 69.1689 47.4361 67.356 48.5562 67.846C48.9673 68.0262 49.4522 68.1414 49.6336 68.1021C49.815 68.0633 50.1463 68.5132 50.37 69.1019C50.6543 69.8489 51.0982 70.1721 51.8397 70.1721C52.4284 70.1721 53.6129 70.7915 54.4931 71.5594C55.6333 72.554 55.9975 72.7184 55.7789 72.1395C55.5241 71.4638 55.577 71.4172 56.1046 71.8548C57.0074 72.6044 60.5539 73.6063 60.8143 73.1854C61.1759 72.6001 64.1012 73.8304 64.9392 74.9198C65.3686 75.4781 65.7242 75.695 65.7294 75.4013C65.743 74.6256 66.455 74.7477 66.7748 75.5806C66.925 75.9729 66.8405 76.4219 66.5869 76.5786C65.8933 77.0076 67.1901 77.9275 68.0323 77.604C68.4144 77.4575 68.7269 77.5344 68.7269 77.7747C68.7269 78.015 68.5139 78.2827 68.253 78.3693C67.9568 78.4684 68.0366 78.7407 68.4665 79.0976C68.9941 79.5351 69.1537 79.5441 69.1537 79.1364C69.1537 78.7241 69.3044 78.73 69.8265 79.1633C70.3379 79.5876 70.5744 79.6004 70.8121 79.2158C71.0469 78.8363 71.3325 78.8666 71.9536 79.3362C73.0191 80.1421 73.4584 80.1532 73.1561 79.3661C73.0246 79.0229 72.5504 78.6259 72.1026 78.4837C70.8792 78.0953 71.1233 77.4703 72.462 77.5621C73.4447 77.6291 73.6193 77.4857 73.5343 76.6819C73.4174 75.5784 74.0564 75.3863 74.4478 76.407C74.631 76.8838 75.0199 77.0153 75.7255 76.8381C76.3457 76.6823 76.9314 76.8142 77.2328 77.1775C77.5043 77.5045 78.5702 78.021 79.6024 78.3258C80.6341 78.6306 81.3846 79.0314 81.2702 79.2167C81.1558 79.4019 81.3598 79.4391 81.7244 79.2995C82.0889 79.1595 82.3869 79.2141 82.3869 79.4207C82.3869 79.6269 83.0797 80.169 83.9262 80.6249C85.4523 81.4467 85.4715 81.4467 86.0776 80.6177C86.6031 79.8988 86.7461 79.8711 87.0927 80.4192C87.3279 80.7914 87.4991 80.8478 87.503 80.5545C87.5064 80.2783 86.8848 79.5373 86.122 78.9085C85.2555 78.1943 85.0553 77.8801 85.5884 78.0722C86.058 78.2413 86.814 78.4855 87.2686 78.6152C88.0344 78.8334 88.0233 78.7501 87.1149 77.4742C86.1668 76.1432 86.1609 76.0783 86.9288 75.4999C87.3655 75.1712 88.043 74.9983 88.434 75.1157C88.825 75.2331 89.2642 75.1366 89.4098 74.901C89.5836 74.6201 90.0463 74.6427 90.7579 74.9667C91.5856 75.3436 92.0355 75.3394 92.6635 74.9471C93.1155 74.6645 93.4856 74.5941 93.4856 74.79C93.4856 74.9864 94.0568 75.0628 94.7543 74.9603C95.7732 74.8109 96.2437 75.0359 97.1401 76.1018C97.7544 76.8317 98.6495 77.4289 99.1293 77.4289C100.303 77.4289 102.65 75.9344 103.666 74.5403C104.41 73.5192 104.568 73.4684 105.253 74.0302C105.942 74.5958 105.992 74.5731 105.79 73.7877C105.668 73.3113 105.826 72.6795 106.143 72.3837C106.46 72.0879 106.719 72.0251 106.719 72.2441C106.719 72.4627 107.017 72.7564 107.381 72.8964C107.811 73.0612 107.937 72.9783 107.742 72.6612C107.434 72.1634 108.171 72.2701 109.884 72.9707C110.459 73.2067 110.61 73.1576 110.392 72.8059C110.222 72.531 110.22 72.0853 110.387 71.8151C110.601 71.4693 110.847 71.5368 111.215 72.0409C111.675 72.6693 111.771 72.6774 111.991 72.1054C112.342 71.1919 113.013 71.2922 113.335 72.3064C113.643 73.2746 114.829 73.4761 114.829 72.56C114.829 72.1767 115.128 72.0375 115.654 72.1754C116.321 72.3495 116.434 72.2189 116.245 71.4949C116.11 70.9797 116.213 70.5989 116.487 70.5989C116.967 70.5989 117.123 71.1227 116.997 72.3064C116.94 72.8362 116.997 72.8451 117.325 72.3585C117.543 72.0349 117.916 71.8902 118.153 72.0366C118.39 72.1835 119.036 71.8271 119.589 71.2452C120.725 70.047 121.3 69.942 122.532 70.7057C123.235 71.1415 123.462 71.1287 123.767 70.6378C123.973 70.307 124.031 69.7469 123.895 69.3939C123.735 68.9755 123.823 68.859 124.148 69.0601C124.423 69.2299 124.66 69.9817 124.677 70.7308L124.705 72.093L125.209 71.0258C126.027 69.2923 126.909 68.4646 127.936 68.4646C128.598 68.4646 128.981 68.1431 129.157 67.4379C129.35 66.6717 129.808 66.3379 130.965 66.121C131.818 65.9609 132.785 65.4457 133.114 64.9761C133.502 64.4216 134.013 64.2009 134.571 64.3474C135.044 64.4707 135.71 64.2936 136.05 63.9529C136.39 63.6127 136.832 63.4351 137.032 63.5585C137.231 63.6819 137.521 63.5781 137.676 63.3284C137.874 63.0078 138.118 63.0074 138.502 63.3267C138.897 63.6541 139.195 63.602 139.58 63.138C139.919 62.7308 140.484 62.5899 141.131 62.7521C141.749 62.9071 142.149 62.8204 142.149 62.531C142.149 62.1822 142.357 62.184 142.923 62.5374C143.518 62.9092 143.986 62.8704 144.958 62.3675C145.652 62.0089 146.722 61.8113 147.336 61.9283C147.95 62.0456 148.582 61.9317 148.741 61.6747C149.086 61.1172 151.252 61.0579 152.294 61.5774C152.701 61.7806 153.653 62.146 154.408 62.3889C155.418 62.7137 155.756 62.7005 155.689 62.3393C155.638 62.0691 156.025 61.848 156.548 61.848C157.709 61.848 157.872 61.1347 156.801 60.742C156.217 60.5272 156.433 60.3761 157.671 60.1354C158.882 59.8993 159.42 59.9706 159.704 60.4043C159.915 60.7287 160.009 61.3302 159.91 61.7409C159.705 62.598 159.827 62.6958 161.572 63.0761C162.715 63.325 162.773 63.2921 162.106 62.7679C161.695 62.4452 161.359 61.86 161.359 61.4672C161.359 60.4504 162.496 60.149 163.299 60.9528C164.139 61.7929 164.774 61.8305 164.774 61.0399C164.774 60.0812 165.979 59.872 166.268 60.7808C166.409 61.2265 166.899 61.7097 167.357 61.8548C167.814 62 168.192 62.4422 168.195 62.8371C168.2 63.3865 168.286 63.4232 168.558 62.9933C168.818 62.5844 169.063 62.7888 169.457 63.7403C169.756 64.4605 170.181 65.0496 170.403 65.0496C170.624 65.0496 171.299 64.4626 171.903 63.7455C172.525 63.0065 173.252 62.5438 173.582 62.6783C173.903 62.8085 174.453 63.0317 174.805 63.1743C175.216 63.3408 175.446 63.188 175.446 62.7474C175.446 61.985 176.103 61.8254 176.513 62.4883C176.658 62.7231 177.297 62.9152 177.932 62.9152C178.873 62.9152 179.339 63.3352 180.435 65.167C181.492 66.9338 182.037 67.4401 182.964 67.5169C183.614 67.5707 184.541 67.9741 185.025 68.4133C185.508 68.8522 186.369 69.4519 186.938 69.746C187.825 70.2049 188.051 70.1708 188.538 69.504C188.85 69.0776 189.106 68.4565 189.106 68.1239C189.106 67.7278 189.358 67.6164 189.84 67.8012C190.243 67.9562 190.438 67.9476 190.273 67.7824C189.858 67.3671 191.27 66.3605 192.29 66.3439C192.75 66.3362 193.943 65.4414 194.94 64.3546C196.313 62.8588 196.972 62.4362 197.651 62.6142C198.208 62.7598 198.638 62.6181 198.782 62.2416C198.91 61.9078 199.283 61.6346 199.61 61.6346C199.937 61.6346 200.204 61.4425 200.204 61.2077C200.204 60.5362 201.485 60.7095 201.756 61.4181C201.914 61.8301 202.334 61.9718 202.942 61.819C203.46 61.6892 204.16 61.5411 204.498 61.4899C204.836 61.4391 205.355 61.2461 205.651 61.0613C206.006 60.8397 207.062 61.6196 208.744 63.3446C210.15 64.7853 211.175 65.6399 211.023 65.2438C210.785 64.6227 210.874 64.5911 211.665 65.015C212.171 65.2852 212.584 65.7125 212.584 65.9639C212.584 66.2158 212.879 66.308 213.24 66.1697C213.601 66.031 213.998 66.1816 214.122 66.5039C214.246 66.8262 214.766 67.0939 215.279 67.0986C215.793 67.1033 216.583 67.1724 217.036 67.2522C217.572 67.3466 217.946 67.0981 218.104 66.5436C218.237 66.0741 218.683 65.6741 219.094 65.6545C221.41 65.5439 221.807 65.3983 222.194 64.516C222.524 63.7634 222.985 63.5461 224.323 63.512C226.762 63.4501 227.889 62.9809 227.664 62.1221C227.558 61.7165 227.953 60.9541 228.567 60.377C229.167 59.8127 229.659 59.577 229.659 59.8528C229.659 60.1286 229.947 60.3539 230.299 60.3539C230.651 60.3539 230.939 60.0658 230.939 59.7136C230.939 58.7809 231.592 58.9299 232.341 60.0338C232.865 60.8069 233.1 60.8901 233.545 60.4607C234.327 59.7059 235.112 59.799 235.341 60.6741C235.521 61.3656 235.54 61.3665 235.585 60.6873C235.617 60.2195 235.867 60.0428 236.275 60.1994C236.674 60.3527 236.916 60.1964 236.916 59.7845C236.916 59.4212 236.721 59.0029 236.482 58.8556C235.984 58.5483 236.328 57.7927 236.966 57.7927C237.201 57.7927 237.276 57.9822 237.132 58.2136C236.975 58.4689 237.422 58.5709 238.266 58.4727C239.875 58.2853 241.175 58.6977 242.197 59.7196C242.87 60.3924 243.011 60.3638 244.451 59.2663C245.422 58.5256 246.556 58.0783 247.534 58.0505C248.773 58.0151 249.086 57.8362 249.106 57.1524C249.12 56.6828 249.285 55.7706 249.473 55.1247C249.748 54.1792 250.065 53.9508 251.101 53.9508C252.166 53.9508 252.301 53.8462 251.883 53.3425C251.47 52.8456 251.675 52.5985 253.005 51.9893C253.899 51.5795 254.901 51.0365 255.231 50.783C255.926 50.2494 257.776 50.0547 261.659 50.1064C263.517 50.1311 264.66 50.3604 265.154 50.8082C265.558 51.174 266.107 51.3392 266.372 51.1749C266.656 50.9994 266.951 51.2457 267.089 51.7733C267.325 52.6779 268.077 53.0352 268.077 52.2433C268.077 52.0085 268.366 51.8164 268.718 51.8164C269.07 51.8164 269.358 51.9906 269.358 52.2032C269.358 52.4162 269.694 52.5182 270.105 52.4299C270.602 52.3231 271.608 53.1573 273.112 54.9245C274.356 56.3844 275.532 57.8388 275.726 58.156C275.961 58.541 277.158 58.7711 279.32 58.8471C282.021 58.9418 282.68 58.8296 283.273 58.1735C283.665 57.7402 284.139 57.4807 284.326 57.5963C284.513 57.712 284.787 57.6113 284.935 57.3727C285.082 57.134 285.722 56.939 286.355 56.939C287.059 56.939 287.724 56.5945 288.06 56.0553C288.424 55.4735 289.005 55.1973 289.764 55.2468C290.397 55.2882 291.107 55.2733 291.342 55.2135C291.577 55.1538 292.131 55.0855 292.574 55.0616C293.016 55.0377 293.593 54.6347 293.854 54.166C294.116 53.6977 294.661 52.8115 295.065 52.1968C295.469 51.5825 295.757 51.0024 295.705 50.9072C295.653 50.8124 295.793 50.8824 296.016 51.0622C296.701 51.615 297.105 51.4288 297.105 50.561C297.105 50.1051 297.297 49.6138 297.532 49.4686C297.78 49.315 297.959 49.7406 297.959 50.4855C297.959 51.9449 298.681 52.6796 298.889 51.4314C299.015 50.6746 299.149 50.6519 300.52 51.1539C301.342 51.4549 302.353 51.8446 302.766 52.0196C303.353 52.2685 303.458 52.1814 303.244 51.6252C303.053 51.1275 303.241 50.841 303.865 50.6775C304.358 50.5491 304.867 50.1072 304.998 49.6962C305.285 48.7903 304.861 47.5477 304.264 47.5477C304.014 47.5477 304.055 47.2766 304.362 46.9074C304.962 46.1838 306.069 46.0455 306.069 46.694C306.069 46.9287 306.352 47.1208 306.696 47.1208C307.096 47.1208 307.228 47.3688 307.061 47.8034C306.836 48.3899 306.92 48.4104 307.66 47.9485C308.39 47.4926 308.717 47.5511 309.815 48.3332C311.347 49.4238 312.4 49.5126 312.758 48.582C313.07 47.7684 315.073 46.93 315.425 47.4653C315.562 47.6732 316.202 47.9724 316.848 48.1304C317.735 48.3472 318.022 48.261 318.022 47.7774C318.022 47.0683 319.839 46.4476 320.578 46.904C320.836 47.0636 321.509 46.892 322.074 46.5219C322.766 46.0686 323.192 45.9981 323.382 46.3064C323.538 46.5578 324.092 46.656 324.615 46.5245C325.227 46.3708 325.886 46.5847 326.467 47.126C326.962 47.5878 327.46 47.8175 327.572 47.6356C327.767 47.321 335.417 47.3586 337.658 47.6856C338.245 47.7714 338.937 47.8713 339.197 47.908C339.456 47.9447 340.16 48.4066 340.762 48.935C344.339 52.0747 344.736 52.3022 346.516 52.2297C348.552 52.1464 349.157 52.1772 350.678 52.4414C352.99 52.8435 354.305 53.5312 354.313 54.3431C354.317 54.8157 354.417 54.8648 354.644 54.507C354.85 54.1835 355.752 54.0541 357.102 54.1544C358.276 54.242 359.423 54.3687 359.652 54.4362C360.44 54.6684 361.99 53.4932 361.99 52.6651C361.99 52.2092 362.477 51.5168 363.073 51.1266C364.102 50.4522 364.204 50.462 365.126 51.3277C365.659 51.8288 367.045 52.4495 368.205 52.7073C370.596 53.2388 374.433 53.6358 373.622 53.2683C372.997 52.9844 372.899 51.8165 373.501 51.8165C373.933 51.8165 374.697 53.0079 374.733 53.7374C374.758 54.256 377.357 54.8473 377.357 54.3346C377.357 54.1352 377.975 54.0955 378.729 54.2467C380.3 54.5608 381.866 55.9644 382.497 57.6241C382.736 58.2516 383.037 58.6588 383.167 58.5286C383.297 58.3989 383.18 57.8755 382.907 57.3658C382.634 56.8561 382.487 56.3627 382.58 56.2692C382.674 56.1761 383.574 56.8916 384.581 57.8589C385.877 59.1049 386.507 59.4644 386.739 59.09C386.993 58.6772 387.333 58.702 388.288 59.2018C389.397 59.7832 389.651 59.7704 391.042 59.061C392.417 58.3592 392.562 58.1231 392.454 56.7554C392.364 55.6114 392.499 55.2315 392.996 55.2315C393.361 55.2315 393.759 54.8473 393.882 54.3777C394.01 53.8872 394.464 53.524 394.949 53.524C395.434 53.524 395.888 53.1607 396.016 52.6702C396.14 52.1977 396.598 51.8165 397.044 51.8165C397.486 51.8165 397.847 51.6244 397.847 51.3896C397.847 51.1548 398.136 50.9627 398.488 50.9627C398.84 50.9627 399.128 51.2568 399.128 51.6163C399.128 52.4935 400.274 52.8866 401.021 52.2664C401.481 51.8848 401.818 51.8895 402.455 52.2873C403.15 52.7214 403.507 52.6501 404.622 51.8557C405.357 51.3324 405.958 50.7049 405.958 50.4603C405.958 50.2012 406.397 50.1269 407.014 50.2814C407.842 50.4893 408.016 50.4069 407.822 49.9006C407.641 49.4289 407.866 49.2552 408.659 49.2552C409.256 49.2552 410.219 49.4358 410.799 49.656C411.379 49.8763 412.392 49.9126 413.051 49.7363C413.937 49.4998 414.073 49.3483 413.574 49.1566C413.201 49.0136 412.006 48.7634 410.917 48.6C408.754 48.2755 408.013 47.6514 409.082 47.0534C409.479 46.831 409.666 46.3636 409.529 45.9358C409.358 45.4052 409.403 45.3527 409.687 45.748C410.209 46.4724 411.507 45.9478 411.507 45.0129C411.507 44.1182 413.695 42.809 413.946 43.5539C414.131 44.1045 415.776 43.8126 415.776 43.229C415.776 43.022 416.244 42.8521 416.815 42.8521C417.478 42.8521 417.951 42.5439 418.124 41.9983C418.47 40.909 419.631 40.8897 419.914 41.9689C420.032 42.4222 420.374 42.6993 420.672 42.5844C420.971 42.47 421.321 42.6515 421.45 42.9878C421.579 43.3238 422.184 43.5991 422.794 43.5991C423.748 43.5991 423.83 43.5022 423.379 42.9054C423.092 42.5238 422.441 41.8267 421.933 41.3559L421.01 40.5004L422.875 40.4283C424.519 40.3647 424.744 40.4663 424.774 41.2837C424.793 41.7943 424.905 41.9706 425.024 41.6756C425.174 41.3047 425.471 41.4255 425.991 42.0671C427.044 43.3673 428.155 42.847 428.159 41.0511C428.162 39.9489 428.407 39.537 429.311 39.1169C429.943 38.8232 430.619 38.5833 430.812 38.5833C431.006 38.5833 431.386 39.1118 431.655 39.7572L432.146 40.9312L432.392 39.4371C432.627 38.0075 432.73 37.9319 434.772 37.6835C435.946 37.5409 437.05 37.5042 437.227 37.602C437.403 37.6997 437.547 37.5516 437.547 37.272C437.547 36.9283 438.038 36.8438 439.066 37.0107C440.831 37.2972 441.816 37.0163 441.816 36.2253C441.816 35.9179 442.056 35.5696 442.349 35.4509C442.643 35.3327 442.343 35.2204 441.684 35.2021C440.929 35.1807 440.592 34.995 440.774 34.7005C440.933 34.4431 441.617 34.3137 442.293 34.4132C442.969 34.5122 443.523 34.435 443.523 34.2407C443.523 34.0465 443.837 33.8877 444.22 33.8877C444.604 33.8877 445.287 33.4617 445.738 32.9409C446.245 32.3565 446.673 32.1636 446.855 32.4372C447.018 32.6809 448.016 32.8577 449.072 32.8299C452.287 32.7463 454.388 31.8199 452.808 31.1822C452.381 31.0102 452.381 30.9602 452.808 30.9333C453.101 30.915 453.341 30.5154 453.341 30.0458C453.341 28.5629 454.846 29.0576 456.1 30.9525L457.265 32.713L457.793 31.6996C458.083 31.1421 458.544 30.7344 458.819 30.7929C459.093 30.8518 459.317 30.5282 459.317 30.0744C459.317 29.3283 460.208 28.7255 461.191 28.8066C461.399 28.8241 461.724 28.5881 461.913 28.2824C462.161 27.8812 462.374 28.037 462.682 28.845C463.232 30.2904 464.233 30.9841 463.8 29.619C463.571 28.8993 463.631 28.7426 464.04 28.9953C464.429 29.2356 464.506 29.1259 464.309 28.612C464.069 27.9887 464.158 27.9589 464.963 28.3896C465.657 28.7614 465.934 28.7639 466.056 28.3994C466.145 28.1313 466.61 27.9115 467.089 27.9115C467.814 27.9115 467.871 27.8047 467.428 27.2712C466.808 26.5241 467.144 26.4486 468.31 27.0727C468.947 27.4137 469.136 27.3753 469.136 26.9057C469.136 26.1963 470.988 25.6298 472.125 25.991C472.671 26.1643 472.993 25.9747 473.185 25.3681C473.409 24.6629 473.844 24.4884 475.461 24.4538C477.007 24.4209 477.218 24.3428 476.392 24.1097L475.325 23.8079L476.331 23.5398C476.885 23.3926 477.821 23.4553 478.411 23.6799C479.461 24.079 480.341 23.7294 481.188 22.5755C481.384 22.31 481.504 22.3467 481.509 22.6737C481.512 22.9623 482.276 23.5864 483.205 24.0611C484.331 24.6352 485.73 24.9233 487.392 24.9233C489.459 24.9233 490.121 24.7304 491.242 23.8015C491.987 23.1843 492.499 22.5217 492.38 22.3288C492.26 22.1359 492.531 21.7815 492.98 21.5412C493.429 21.3005 493.915 20.6307 494.06 20.0523C494.23 19.3735 494.604 19.0214 495.114 19.0598C495.652 19.1003 495.84 19.3637 495.703 19.8871C495.593 20.3093 495.717 20.6546 495.979 20.6546C496.241 20.6546 496.456 20.2704 496.456 19.8008C496.456 19.3313 496.6 18.9309 496.776 18.9117C496.952 18.892 497.576 18.7943 498.163 18.694C498.75 18.5941 499.422 18.4839 499.657 18.4489C499.892 18.4144 500.516 18.5253 501.045 18.6952C501.764 18.927 502.005 18.8365 502.005 18.3354C502.005 17.9674 501.737 17.6665 501.41 17.6665C501.083 17.6665 500.705 17.3783 500.57 17.0262C500.383 16.5399 500.655 16.3824 501.698 16.3722C502.454 16.3649 503.445 16.0768 503.901 15.7319C504.357 15.3874 505.053 15.1052 505.449 15.1052C505.845 15.1052 506.381 14.8499 506.64 14.5379C506.941 14.1759 508.002 13.9851 509.574 14.0111C510.928 14.0338 512.51 13.8152 513.088 13.5258C513.73 13.2043 514.236 13.1578 514.39 13.4067C514.549 13.6637 515.182 13.6585 516.111 13.3922C516.919 13.1604 517.897 12.9708 518.284 12.9708C518.671 12.9708 519.914 13.7371 521.047 14.6732C522.743 16.0747 523.171 16.2616 523.467 15.7314C523.666 15.3771 524.012 15.2004 524.236 15.3391C524.46 15.4779 524.541 15.7566 524.416 15.959C523.973 16.6757 525.194 16.9318 525.707 16.23C526.181 15.5825 526.293 15.6153 526.933 16.5916C527.32 17.1828 527.997 17.6665 528.435 17.6665C528.875 17.6665 529.352 17.9747 529.496 18.3512C529.643 18.7345 530.034 18.9304 530.383 18.796C531.186 18.4882 532.236 19.5417 532.585 21.0046C532.974 22.6366 533.594 23.2735 534.51 22.9828C535.014 22.8227 535.399 22.9755 535.563 23.3998C535.704 23.7682 536.064 24.0696 536.362 24.0696C536.66 24.0696 537.141 24.3556 537.432 24.7052C537.722 25.0548 538.145 25.226 538.373 25.0856C538.6 24.9451 539.335 25.3562 540.006 25.9995C540.677 26.6424 541.498 27.0646 541.83 26.9369C542.162 26.8097 542.914 27.1504 543.501 27.6946C544.087 28.2385 545.755 28.9881 547.206 29.3599C548.657 29.7317 549.982 30.0155 550.15 29.9904C551.113 29.8465 551.586 30.1171 551.368 30.6862C551.225 31.0597 551.362 31.3265 551.696 31.3265C552.011 31.3265 552.918 31.4503 553.71 31.6014L555.151 31.8763L554.187 30.8228C553.656 30.2431 553.353 29.639 553.512 29.4798C553.88 29.1114 555.364 30.433 555.364 31.1293C555.364 31.7709 557.133 32.2899 557.628 31.7943C557.825 31.5975 557.493 31.0477 556.889 30.573C556.285 30.0979 555.791 29.4969 555.791 29.2373C555.791 28.9778 555.465 28.7652 555.066 28.7652C554.498 28.7652 554.452 28.653 554.856 28.2487C555.26 27.8449 555.642 27.8914 556.608 28.4621C557.288 28.8638 558.081 29.1921 558.371 29.1921C558.662 29.1921 559.148 29.5285 559.453 29.9391C559.976 30.6443 560.044 30.6384 560.66 29.8324C561.02 29.3628 561.32 29.2049 561.327 29.4819C561.335 29.7586 561.651 30.296 562.032 30.6759C562.669 31.3128 562.786 31.3098 563.526 30.6401C563.967 30.2405 564.329 29.6612 564.329 29.3526C564.329 29.0278 564.6 28.8963 564.975 29.0397C565.33 29.1763 565.906 29.0504 566.255 28.7605C566.881 28.241 566.945 28.2811 567.05 29.2634C567.08 29.537 567.344 29.8414 567.637 29.9391C567.972 30.051 568.171 29.7069 568.171 29.0141C568.171 27.8018 569.016 27.4547 569.038 28.6585C569.045 29.0696 569.333 29.7786 569.678 30.2341C570.291 31.0439 570.305 31.0413 570.305 30.1274C570.305 29.613 570.434 29.1921 570.591 29.1921C570.749 29.1921 571.241 29.5208 571.685 29.9221C572.328 30.5043 572.561 30.5389 572.837 30.0937C573.245 29.4333 574.787 29.6254 574.787 30.3361C574.787 30.6068 574.917 30.9577 575.074 31.1156C575.232 31.2735 575.251 32.1059 575.117 32.9652L574.872 34.528L575.796 33.7093C576.304 33.2589 576.626 32.5866 576.51 32.2152C576.395 31.8438 576.456 31.2923 576.647 30.9897C577.111 30.2499 578.734 30.8898 580.091 32.3484C580.66 32.9601 581.428 33.4668 581.798 33.4745C582.779 33.4941 584.097 34.6091 583.769 35.1406C583.612 35.395 583.982 35.7852 584.605 36.0221C585.22 36.256 585.6 36.6483 585.448 36.8938C585.296 37.1392 585.416 37.6344 585.715 37.9943C586.014 38.3537 586.656 39.4499 587.143 40.43C587.739 41.6295 588.351 42.2579 589.016 42.3522C589.821 42.4666 591.746 41.8195 593.437 40.865C593.6 40.7736 594.416 41.2991 595.252 42.0334C596.087 42.7672 596.771 43.1556 596.771 42.8965C596.771 42.6374 597.071 42.4252 597.437 42.4252C597.803 42.4252 597.99 42.243 597.852 42.0197C597.714 41.7969 597.991 41.4058 598.467 41.151C599.127 40.7976 599.336 40.8176 599.346 41.2364C599.355 41.589 599.562 41.5185 599.927 41.0379C600.5 40.2827 601.289 39.9698 600.856 40.6695C600.498 41.2496 601.737 42.0807 603.058 42.1456C603.741 42.1793 604.873 42.7889 605.736 43.588C606.674 44.4572 607.504 44.8862 607.966 44.7406C608.37 44.6134 609.397 44.8388 610.246 45.2422C611.473 45.824 611.861 45.8629 612.129 45.4287C612.315 45.1282 612.729 44.9754 613.05 45.0894C613.935 45.4035 615.725 44.3398 616.385 43.1074C616.815 42.304 617.115 42.1268 617.502 42.4483C617.874 42.7569 618.108 42.7232 618.287 42.3364C618.488 41.9006 618.594 41.8968 618.791 42.3185C619.161 43.1112 619.729 42.9652 620.036 41.9984C620.187 41.5211 620.682 41.1446 621.157 41.1446C621.697 41.1446 621.895 40.9628 621.699 40.6452C621.491 40.3088 621.623 40.2354 622.104 40.4198C622.563 40.5961 623.006 40.3933 623.344 39.852C623.96 38.8659 625.593 38.6721 625.226 39.6288C625.067 40.0424 625.193 40.1688 625.607 40.01C625.947 39.8793 626.562 39.919 626.973 40.0983C627.384 40.2772 628.363 40.48 629.149 40.5491C629.935 40.6183 631.033 40.9726 631.588 41.3367C632.144 41.7004 632.942 41.9992 633.361 42.0005C633.78 42.0013 634.699 42.5401 635.403 43.1974C637.041 44.7261 637.717 44.966 639.022 44.4815C639.892 44.1583 639.967 44.0145 639.448 43.6683C638.977 43.3533 639.141 43.2781 640.099 43.3699C640.903 43.4467 641.335 43.7059 641.26 44.0657C641.169 44.4994 641.551 44.5818 642.823 44.4038C644.008 44.2382 644.659 44.3526 645.023 44.791C645.307 45.1333 645.804 45.4134 646.127 45.4134C646.451 45.4134 646.716 45.7399 646.716 46.139C646.716 47.0671 647.37 46.3969 647.777 45.0509C648.038 44.1904 647.961 44.0862 647.238 44.3159C646.62 44.5122 646.334 44.3521 646.168 43.7178C645.96 42.9213 646.141 42.8521 648.432 42.8521C650.07 42.8521 651.141 43.0698 651.559 43.4882C652.186 44.1152 653.851 44.1186 655.36 43.4958C655.771 43.3264 656.443 43.3272 656.854 43.498C658.188 44.0521 660.008 43.9351 660.731 43.2487C661.439 42.5755 661.695 42.5904 665.675 43.5364C666.747 43.7912 666.879 43.7281 666.629 43.0771C666.402 42.4854 666.515 42.368 667.152 42.5349C667.599 42.6519 668.226 42.5819 668.546 42.3796C668.997 42.0936 668.957 42.0099 668.365 42.0048C667.735 41.9996 667.682 41.8498 668.059 41.1446C668.311 40.675 668.722 40.2909 668.973 40.2909C669.224 40.2909 670.379 40.7677 671.54 41.3508C672.7 41.9339 673.534 42.222 673.391 41.9911C673.088 41.5011 673.744 41.4217 674.214 41.8916C674.389 42.0679 674.662 42.2246 674.818 42.24C675.496 42.307 678.304 43.8958 678.304 44.2117C678.304 44.4029 678.593 44.5596 678.945 44.5596C679.297 44.5596 679.588 44.3197 679.591 44.026C679.596 43.6704 679.736 43.7059 680.012 44.1327C680.288 44.5596 680.428 44.595 680.432 44.2395C680.437 43.8531 681.482 43.7059 684.215 43.7059C686.826 43.7059 688.415 43.4946 689.364 43.0212C690.119 42.6442 690.85 42.4491 690.988 42.5874C691.126 42.7258 691.502 42.5055 691.822 42.0983C692.142 41.6914 692.353 41.5501 692.291 41.7849C692.167 42.2515 692.481 42.4252 693.445 42.4252C693.833 42.4252 693.976 42.1755 693.821 41.7708C693.604 41.2069 693.729 41.189 694.719 41.6398C695.506 41.9988 695.959 42.0227 696.157 41.7162C696.316 41.4699 697.071 41.2539 697.834 41.2351C698.932 41.2086 699.221 41.3734 699.221 42.027C699.221 42.6434 699.52 42.8521 700.401 42.8521C701.571 42.8521 701.733 43.0241 703.043 45.6597C703.9 47.3851 703.86 47.362 704.5 46.487C705.195 45.5359 706.459 45.888 706.782 47.123C706.905 47.5913 707.144 47.9746 707.316 47.9746C707.486 47.9746 707.968 47.5964 708.387 47.1345C708.996 46.4609 709.317 46.3858 710.005 46.7542C710.477 47.0069 711.514 47.1081 712.309 46.9791C713.162 46.8408 713.652 46.9091 713.506 47.146C713.37 47.3672 713.45 47.5477 713.685 47.5477C713.92 47.5477 714.041 47.9208 713.953 48.3767C713.849 48.9189 713.984 49.1327 714.344 48.9948C714.666 48.8715 715.116 49.3218 715.431 50.0812C715.727 50.795 716.151 51.2658 716.374 51.1279C716.598 50.9896 716.89 51.2953 717.024 51.8062C717.157 52.3176 717.706 52.9029 718.243 53.1069C718.789 53.3144 719.281 53.9112 719.358 54.4614C719.471 55.258 719.721 55.4189 720.672 55.3075C721.513 55.2093 721.846 55.3608 721.846 55.8411C721.846 56.7819 722.581 56.6769 723.126 55.6584C723.733 54.5242 724.657 54.5754 725.057 55.7651C725.369 56.6914 725.387 56.6837 725.563 55.5516C725.768 54.2236 726.541 53.9432 726.541 55.1965C726.541 56.3119 726.978 57.3659 727.441 57.3659C727.65 57.3659 727.822 56.8856 727.822 56.2987C727.822 55.7117 728.014 55.2315 728.249 55.2315C728.484 55.2315 728.676 55.5137 728.676 55.8586C728.676 56.2393 728.926 56.3892 729.313 56.2406C729.664 56.1057 729.845 55.824 729.715 55.6135C729.311 54.96 732.275 55.1952 733.276 55.8961C733.798 56.2615 734.225 56.9979 734.225 57.5323C734.225 58.8377 734.6 59.131 735.591 58.6008C736.262 58.2414 736.615 58.3707 737.463 59.2855C738.037 59.9058 738.397 60.5918 738.262 60.8103C738.127 61.0289 738.322 61.2077 738.695 61.2077C739.069 61.2077 739.485 60.9209 739.619 60.57C739.754 60.2191 740.024 60.0308 740.22 60.1521C740.416 60.2729 740.743 60.0727 740.948 59.7064C741.256 59.1558 741.424 59.2463 741.921 60.2311C742.251 60.8859 742.577 61.5031 742.646 61.6035C742.715 61.7038 743.031 61.4306 743.349 60.9964C743.905 60.2349 743.953 60.2392 744.706 61.119C745.291 61.8024 745.627 61.9142 746.046 61.5667C746.353 61.3119 746.604 60.8385 746.604 60.5154C746.604 59.5049 747.456 59.872 747.964 61.101C748.231 61.7465 748.412 62.4393 748.366 62.6399C748.32 62.841 748.525 63.2986 748.823 63.6572C749.295 64.2262 749.394 64.1822 749.6 63.311C749.791 62.5029 750.151 62.2929 751.491 62.2071C752.401 62.1486 753.282 61.8801 753.449 61.6103C753.672 61.25 753.985 61.2436 754.626 61.5872C755.283 61.9386 755.544 61.924 755.675 61.5283C755.802 61.1484 756.049 61.2001 756.563 61.7144C756.956 62.1067 757.276 62.7231 757.276 63.0847C757.276 63.477 757.52 63.6486 757.882 63.5099C758.618 63.2273 760.779 64.563 760.449 65.0961C760.32 65.3053 760.418 65.4765 760.666 65.4765C760.915 65.4765 761.118 65.2844 761.118 65.0496C761.118 64.8148 761.331 64.6227 761.591 64.6227C761.851 64.6227 761.96 64.8921 761.834 65.2208C761.695 65.5824 761.947 65.9089 762.471 66.0459C762.948 66.1706 763.212 66.4779 763.057 66.7285C762.89 66.9983 763.156 67.184 763.711 67.184C764.225 67.184 765.016 67.61 765.468 68.1308C766.159 68.9274 766.352 68.9781 766.685 68.451C766.903 68.1065 767.087 68.0164 767.094 68.2512C767.102 68.486 767.294 68.3899 767.521 68.0377C767.787 67.6271 767.937 67.5853 767.942 67.9212C767.949 68.509 770.736 69.9668 772.662 70.3894C773.498 70.5734 773.924 70.4987 773.924 70.1687C773.924 69.8238 774.45 69.7589 775.633 69.9587C777.048 70.1977 777.299 70.1375 777.096 69.6082C776.938 69.195 777.187 68.862 777.8 68.6674C779.243 68.2093 782.022 68.3494 782.703 68.9141C783.098 69.2424 784.012 69.3171 785.339 69.1297C786.457 68.9717 787.707 68.7447 788.118 68.6251C788.587 68.4881 788.865 68.6384 788.865 69.029C788.865 69.3709 789.259 70.1042 789.739 70.6583L790.613 71.6662L790.346 70.2788C790.119 69.1037 790.203 68.8915 790.894 68.8915C791.343 68.8915 791.855 69.0358 792.031 69.2117C792.207 69.3879 792.558 69.5318 792.811 69.5318C793.064 69.5318 793.48 70.1422 793.736 70.8884C794.425 72.8981 795 73.1999 794.671 71.3793C794.339 69.5403 794.958 68.9056 796.087 69.9271C796.512 70.3121 797.164 70.5 797.554 70.3501C797.94 70.202 798.592 70.2272 799.003 70.4065C799.414 70.5853 800.397 70.7885 801.188 70.8577C801.978 70.9273 802.938 71.2521 803.322 71.5804C804.215 72.3449 805.646 72.8674 805.297 72.3018C804.773 71.4545 805.665 71.915 807.382 73.3788C810.987 76.4514 811.17 76.5646 812.132 76.323C812.766 76.1637 813.167 76.3097 813.342 76.7635C813.567 77.3504 815.312 78.3523 816.298 78.4603C816.477 78.48 816.916 79.0588 817.273 79.7469C817.63 80.4346 818.299 81.2619 818.761 81.585C819.222 81.9086 819.6 82.4375 819.6 82.7602C819.6 83.579 821.219 84.0097 821.966 83.3903C822.306 83.1081 822.989 82.9839 823.485 83.1133C823.981 83.243 824.822 83.1837 825.354 82.9814C825.951 82.7547 826.491 82.7829 826.763 83.0552C827.066 83.3587 827.183 83.261 827.137 82.7406C827.042 81.6606 829.338 80.4432 831.634 80.3565C833.104 80.3006 833.82 80.5076 834.567 81.2039C835.11 81.7101 835.69 82.1246 835.855 82.1246C836.021 82.1246 836.27 82.5822 836.411 83.1419C836.551 83.7015 837.242 84.7755 837.945 85.5285C838.648 86.2815 839.419 87.6006 839.656 88.4599C840.202 90.4372 842.145 91.8693 843.925 91.6081C844.628 91.5048 845.099 91.2495 844.97 91.0412C844.617 90.47 845.498 90.5861 846.143 91.1957C846.78 91.7989 848.987 92.6966 851.144 93.2302C851.942 93.427 852.755 93.8423 852.952 94.1531C853.149 94.4634 853.313 94.5155 853.317 94.2692C853.32 94.0225 853.114 93.6123 852.859 93.357C852.525 93.0227 852.525 92.8127 852.859 92.6061C853.114 92.4482 853.323 92.5045 853.323 92.7312C853.323 92.9579 853.688 93.0479 854.133 92.9314C854.579 92.8153 855.35 92.9374 855.847 93.2033C857.234 93.9456 856.802 92.7628 855.351 91.8446C854.705 91.4356 854.177 90.9323 854.177 90.7257C854.177 90.5131 854.965 90.5025 855.991 90.701C856.989 90.8939 857.972 91.06 858.175 91.0702C858.379 91.0805 858.449 91.4587 858.33 91.9107C858.168 92.5318 858.286 92.6719 858.814 92.4849C859.198 92.3487 859.736 92.0657 860.008 91.8561C860.28 91.6465 861.433 91.5846 862.569 91.7186C865.086 92.0157 866.129 92.3205 866.129 92.7594C866.129 93.3143 869.769 92.2057 870.567 91.4083C871.347 90.6284 872.336 90.3719 871.911 91.0595C871.775 91.2781 871.84 91.565 872.054 91.6973C872.268 91.8296 872.553 91.6508 872.688 91.2999C872.822 90.949 873.24 90.6621 873.617 90.6621C873.993 90.6621 874.589 90.374 874.941 90.0218C875.696 89.2675 876.374 89.1877 876.374 89.854C876.374 90.12 876.686 90.2071 877.087 90.053C877.48 89.9027 877.912 89.9505 878.048 90.1593C878.184 90.368 879.064 90.6698 880.003 90.8299C881.225 91.0378 881.528 90.9968 881.07 90.6843C880.543 90.3258 880.597 90.2472 881.375 90.2417C881.895 90.2382 882.529 90.625 882.784 91.101C883.039 91.5769 883.43 91.854 883.653 91.7161C883.876 91.5782 884.058 91.7549 884.058 92.1088C884.058 92.7483 885.829 94.9309 886.348 94.9309C886.497 94.9309 886.619 94.5582 886.619 94.1023C886.619 93.6464 886.782 93.1734 886.98 93.0513C887.631 92.6479 890.461 93.6716 890.461 94.3106C890.461 95.0248 891.98 95.155 892.399 94.4771C892.553 94.2274 892.324 93.6221 891.89 93.1312C891.104 92.2424 891.107 92.2403 892.596 92.5502C893.417 92.7209 894.282 92.8998 894.517 92.9476C894.751 92.995 895.149 93.1623 895.4 93.3194C895.651 93.4765 896.593 93.5137 897.494 93.4018C898.751 93.246 899.35 93.4044 900.074 94.0844C900.592 94.5714 901.186 94.9381 901.395 94.8997C902.434 94.7076 903.267 94.9953 903.267 95.546C903.267 96.3925 904.087 96.8228 905.496 96.7152C906.215 96.6606 906.684 96.8377 906.686 97.1651C906.688 97.4622 907.168 97.9275 907.753 98.199C908.636 98.6084 908.817 98.5824 908.817 98.0462C908.817 97.5882 909.098 97.4699 909.781 97.6415C910.311 97.7747 911.032 97.7022 911.382 97.481C911.807 97.2121 911.841 97.0764 911.485 97.0717C911.192 97.0682 910.951 96.7771 910.951 96.4249C910.951 95.5699 911.983 95.6105 912.713 96.4945C913.21 97.0964 913.209 97.2343 912.705 97.4038C912.342 97.5259 912.674 97.8481 913.559 98.2328C914.869 98.8022 914.925 98.8948 914.153 99.2141C913.341 99.5492 913.346 99.568 914.26 99.5966C915.065 99.6218 915.22 99.4024 915.22 98.237C915.22 97.0068 915.402 96.7903 916.807 96.3507C917.99 95.9801 918.615 95.9767 919.261 96.3357C919.738 96.6008 920.346 96.7741 920.611 96.7212C920.876 96.6678 921.187 96.9829 921.301 97.4204C921.425 97.8942 922.047 98.3237 922.836 98.4816C923.847 98.684 924.317 99.1172 924.814 100.306C925.357 101.606 925.57 101.778 926.093 101.344C926.594 100.928 926.852 100.953 927.366 101.467C927.721 101.821 928.246 102.19 928.533 102.286C928.938 102.421 928.925 102.996 928.471 104.887C928.151 106.223 928.006 107.433 928.15 107.577C928.294 107.72 928.538 107.335 928.692 106.72C928.986 105.549 930.161 105.152 930.161 106.223C930.161 107.413 931.113 108.953 931.708 108.725C932.031 108.601 932.295 108.712 932.295 108.972C932.295 109.232 932.57 109.445 932.907 109.445C933.243 109.445 933.655 109.876 933.822 110.403C934.158 111.462 935.304 112.47 935.813 112.156C935.992 112.045 936.323 112.439 936.547 113.03C937.026 114.29 938.746 116.116 939.284 115.937C939.489 115.869 939.556 116.074 939.433 116.395C939.311 116.714 939.552 117.189 939.969 117.45C940.925 118.047 942.504 121.269 942.832 123.293C942.969 124.14 943.243 124.932 943.439 125.054C943.636 125.175 944.25 124.978 944.803 124.615C945.926 123.879 946.382 124.104 946.382 125.396C946.382 126.071 946.496 126.15 946.894 125.751C947.176 125.47 947.944 125.239 948.602 125.239C949.259 125.239 949.797 125.08 949.797 124.885C949.797 124.486 951.601 124.46 951.931 124.853C952.049 124.993 952.861 125.22 953.738 125.359C955.35 125.613 956.357 125.01 955.355 124.391C954.535 123.884 955.62 123.4 956.874 123.715C957.67 123.915 958.208 123.693 959.09 122.802C959.731 122.154 960.351 121.605 960.469 121.581C960.586 121.558 961.223 121.315 961.884 121.041C963.689 120.294 965.961 120.437 967.152 121.373C967.732 121.83 968.483 122.097 968.82 121.968C969.185 121.828 969.433 121.992 969.433 122.374C969.433 122.804 969.965 123.066 971.051 123.169C971.94 123.254 972.996 123.26 973.398 123.183C974.056 123.056 974.063 122.978 973.467 122.382C972.606 121.521 972.895 121.277 974.174 121.788C974.736 122.013 975.022 122.209 974.81 122.224C973.947 122.284 976.02 123.929 977.268 124.174C979.167 124.548 981.118 125.325 981.486 125.855C981.672 126.123 981.802 126.003 981.806 125.559C981.816 124.493 982.466 124.636 983.482 125.928C984.594 127.342 985.654 127.013 985.654 125.252C985.654 124.302 985.853 123.96 986.401 123.965C986.889 123.969 986.976 124.081 986.651 124.288C985.906 124.762 987.133 126.272 987.995 125.941C988.454 125.765 988.798 126.021 989.072 126.741C989.655 128.273 990.484 128.1 990.137 126.52C989.982 125.815 990.014 125.24 990.209 125.242C990.404 125.243 991.082 125.515 991.716 125.845C992.719 126.369 992.937 126.363 993.406 125.798C993.701 125.442 994.384 124.983 994.921 124.778C995.459 124.574 995.899 124.093 995.899 123.71C995.899 123.273 996.133 123.103 996.526 123.254C996.871 123.386 997.266 123.31 997.405 123.086C997.544 122.861 997.443 122.678 997.18 122.678C996.917 122.678 996.82 122.488 996.964 122.255C997.116 122.009 997.61 122.192 998.148 122.693C998.656 123.166 999.294 123.467 999.567 123.362C999.841 123.257 1000.27 123.38 1000.53 123.636C1001.17 124.279 1003.88 124.502 1004.77 123.985C1005.19 123.742 1005.27 123.552 1004.97 123.544C1004.36 123.529 1004.23 121.824 1004.84 121.824C1005.07 121.824 1005.45 122.16 1005.7 122.571C1006.1 123.25 1006.19 123.256 1006.68 122.638C1006.97 122.264 1007.93 121.823 1008.81 121.658C1010.29 121.381 1010.67 120.902 1010.46 119.583C1010.37 118.995 1012.01 119.254 1012.56 119.915C1013.03 120.487 1013.16 120.448 1013.58 119.594C1013.85 119.06 1014.51 118.558 1015.06 118.479C1015.61 118.401 1016.16 117.971 1016.27 117.524C1016.39 117.077 1016.64 116.806 1016.83 116.921C1017.41 117.283 1018.58 116.618 1018.36 116.048C1018.25 115.749 1018.42 115.149 1018.75 114.715C1019.08 114.278 1019.36 114.158 1019.36 114.447C1019.37 114.734 1019.67 114.856 1020.02 114.72C1020.38 114.584 1021.32 114.974 1022.13 115.587C1022.93 116.2 1023.78 116.702 1024 116.702C1024.23 116.702 1024.32 116.317 1024.2 115.848C1024.04 115.254 1024.18 114.994 1024.66 114.994C1025.04 114.994 1025.37 115.33 1025.38 115.741C1025.41 116.395 1025.45 116.385 1025.74 115.665C1026.02 114.93 1026.09 114.918 1026.33 115.559C1026.48 115.952 1026.98 116.275 1027.43 116.275C1028.05 116.275 1028.21 116.057 1028.04 115.427C1027.92 114.961 1027.94 114.254 1028.1 113.856C1028.33 113.24 1028.57 113.342 1029.65 114.533C1030.62 115.586 1030.82 116.074 1030.47 116.49C1030.14 116.895 1030.16 117.098 1030.57 117.238C1030.87 117.344 1031.37 117.026 1031.68 116.532C1032.15 115.785 1032.2 115.77 1031.99 116.442C1031.77 117.13 1031.83 117.168 1032.4 116.701C1032.76 116.4 1033.18 116.275 1033.33 116.424C1033.48 116.572 1033.87 116.468 1034.2 116.192C1034.68 115.801 1034.89 115.823 1035.18 116.29C1035.49 116.792 1035.6 116.777 1035.82 116.197C1036.05 115.584 1036.22 115.572 1037.23 116.1C1038.3 116.66 1038.38 116.637 1038.52 115.739C1038.74 114.212 1039.29 113.985 1040.29 114.994C1040.98 115.677 1041.36 115.805 1041.7 115.464C1042.29 114.877 1043 114.845 1042.64 115.421C1042.5 115.656 1042.79 115.848 1043.28 115.848C1043.86 115.848 1044.08 115.67 1043.88 115.348C1043.66 114.995 1043.81 114.949 1044.39 115.192C1044.84 115.38 1046.24 115.726 1047.52 115.96C1049.51 116.326 1049.9 116.285 1050.36 115.66C1050.85 114.988 1050.91 114.996 1051.16 115.771C1051.45 116.686 1053.5 117.301 1054.15 116.669C1054.81 116.028 1055.13 116.208 1055.42 117.383C1055.65 118.307 1055.87 118.448 1056.75 118.229C1057.4 118.065 1057.8 118.149 1057.8 118.453C1057.8 118.814 1057.95 118.811 1058.4 118.444C1058.85 118.065 1059.03 118.068 1059.16 118.457C1059.28 118.815 1059.7 118.728 1060.56 118.164C1061.45 117.582 1061.83 117.505 1061.96 117.884C1062.06 118.173 1062.32 118.409 1062.55 118.409C1062.78 118.409 1062.86 118.23 1062.72 118.012C1062.34 117.396 1063.19 117.073 1064.39 117.375C1064.99 117.525 1065.48 117.928 1065.48 118.271C1065.48 118.718 1065.75 118.811 1066.44 118.601C1066.97 118.44 1067.76 117.996 1068.19 117.615C1068.92 116.969 1069.03 116.993 1069.83 117.973C1070.57 118.887 1070.73 118.934 1071.06 118.339C1071.31 117.884 1071.91 117.694 1072.84 117.772C1073.6 117.836 1074.23 117.931 1074.23 117.984C1074.23 118.036 1074.79 118.144 1075.47 118.224C1076.16 118.304 1076.83 118.526 1076.97 118.717C1077.11 118.909 1078.47 119.127 1079.99 119.202C1082.24 119.312 1082.98 119.536 1083.88 120.388C1084.69 121.148 1085.51 121.452 1086.87 121.49C1087.9 121.52 1088.98 121.726 1089.28 121.95C1089.57 122.173 1089.81 122.187 1089.81 121.981C1089.81 121.445 1092.27 120.429 1092.79 120.75C1093.58 121.24 1094.93 121.355 1094.93 120.932C1094.93 120.704 1095.26 120.393 1095.65 120.242C1096.04 120.092 1096.73 119.601 1097.18 119.152C1097.72 118.607 1098.33 118.418 1098.99 118.585C1099.54 118.722 1100.05 118.631 1100.14 118.383C1100.23 118.089 1100.72 118.153 1101.51 118.566C1102.68 119.171 1102.82 119.136 1104.59 117.845C1105.62 117.099 1106.57 116.073 1106.71 115.566C1106.86 114.991 1107.71 114.32 1108.95 113.783C1110.77 112.994 1111.01 112.978 1111.69 113.596C1112.1 113.968 1112.44 114.108 1112.44 113.908C1112.44 113.707 1112.64 113.75 1112.9 114.002C1113.22 114.331 1113.65 114.173 1114.37 113.447C1115.57 112.245 1116.51 112.152 1117.08 113.18C1117.54 113.997 1117.45 114.109 1118.2 111.745C1118.35 111.291 1118.23 111.133 1117.85 111.278C1117.1 111.566 1116.09 110.944 1116.43 110.4C1116.79 109.817 1118.84 109.867 1118.84 110.458C1118.84 110.773 1119.99 110.939 1122.15 110.939C1125.09 110.939 1125.54 111.048 1126.25 111.925C1126.69 112.468 1127.31 112.812 1127.63 112.691C1127.94 112.569 1128.3 112.628 1128.42 112.821C1128.54 113.014 1129.12 113.079 1129.72 112.966C1130.31 112.852 1131.08 112.995 1131.43 113.284C1131.94 113.708 1132.11 113.68 1132.32 113.14C1132.51 112.649 1132.94 112.533 1133.93 112.706C1136.27 113.119 1142.3 115.052 1142.56 115.476C1142.7 115.699 1143.19 115.763 1143.65 115.616C1144.14 115.464 1144.96 115.656 1145.59 116.065C1146.32 116.55 1146.82 116.641 1147.11 116.348C1147.35 116.109 1147.78 116.007 1148.08 116.119C1148.37 116.231 1148.71 115.935 1148.83 115.461C1149 114.823 1149.32 114.65 1150.06 114.795C1150.62 114.903 1151.69 115.109 1152.46 115.253C1153.22 115.398 1153.84 115.687 1153.84 115.895C1153.84 116.104 1154.05 116.275 1154.3 116.275C1154.54 116.275 1154.63 116.085 1154.49 115.852C1154.34 115.611 1154.51 115.539 1154.89 115.685C1155.25 115.825 1155.55 115.739 1155.55 115.495C1155.55 115.251 1155.95 114.925 1156.44 114.771C1157 114.591 1157.62 114.761 1158.15 115.241C1158.94 115.96 1159.01 115.957 1159.59 115.173C1160.18 114.365 1160.2 114.365 1160.8 115.174C1161.4 115.978 1161.43 115.976 1162.2 115.067C1163.13 113.987 1163.9 113.877 1164.24 114.775C1164.45 115.313 1164.72 115.274 1165.99 114.52C1166.83 114.023 1167.5 113.837 1167.5 114.098C1167.5 114.921 1168.68 114.6 1168.91 113.713C1169.19 112.648 1169.83 112.627 1170.85 113.649C1171.57 114.365 1171.69 114.375 1172.12 113.756C1172.54 113.146 1172.68 113.176 1173.43 114.036C1173.95 114.641 1174.32 114.81 1174.43 114.489C1174.55 114.126 1174.9 114.187 1175.63 114.7C1176.91 115.596 1177.22 115.603 1177.4 114.74C1177.53 114.073 1180.25 112.879 1181.66 112.866C1182.05 112.863 1183.35 113.348 1184.54 113.946C1187.23 115.297 1190.61 115.761 1192.08 114.979C1193 114.485 1193.36 114.53 1194.94 115.335C1196.4 116.078 1196.77 116.139 1196.88 115.648C1196.95 115.315 1197.29 115.147 1197.62 115.277C1197.96 115.406 1198.24 115.3 1198.24 115.04C1198.24 114.78 1197.95 114.543 1197.6 114.514C1197.25 114.484 1196.72 114.437 1196.42 114.407C1195.8 114.345 1195.42 112.433 1196.03 112.433C1196.25 112.433 1196.55 112.721 1196.69 113.073C1197.02 113.941 1197.71 113.882 1197.93 112.966C1198.08 112.352 1198.18 112.406 1198.54 113.272C1198.96 114.313 1198.97 114.307 1199.49 112.738C1199.78 111.866 1200.27 111.152 1200.59 111.152C1200.92 111.152 1201.49 111.584 1201.87 112.113L1202.55 113.073L1202.29 111.97C1202.05 110.966 1202.14 110.867 1203.33 110.867C1204.05 110.867 1204.64 110.98 1204.65 111.117C1204.65 111.254 1204.84 111.653 1205.06 112.004C1205.4 112.552 1205.55 112.524 1206.07 111.807C1206.58 111.107 1206.79 111.061 1207.35 111.524C1208.14 112.181 1209.76 111.778 1209.76 110.923C1209.76 110.533 1210.02 110.421 1210.51 110.601C1210.92 110.753 1211.36 111.02 1211.48 111.195C1211.6 111.371 1212.75 111.268 1214.05 110.967C1215.5 110.629 1216.78 110.561 1217.39 110.787C1217.93 110.989 1218.53 111.062 1218.71 110.95C1218.89 110.837 1219.37 111.111 1219.78 111.558C1220.42 112.274 1220.96 112.346 1224.32 112.166C1227.06 112.018 1228.12 112.101 1228.12 112.463C1228.12 112.844 1228.27 112.843 1228.73 112.458C1229.22 112.052 1229.44 112.127 1229.81 112.832C1230.15 113.467 1230.7 113.713 1231.79 113.713C1232.62 113.713 1233.68 113.919 1234.15 114.17C1234.76 114.495 1235.16 114.493 1235.56 114.165C1235.97 113.827 1236.25 113.867 1236.63 114.317C1236.97 114.737 1237.61 114.855 1238.62 114.691C1239.79 114.501 1240.33 114.657 1241.14 115.417C1242.69 116.874 1245.86 116.668 1247.25 115.021C1247.67 114.52 1247.86 114.487 1248.03 114.887C1248.15 115.181 1248.61 115.421 1249.05 115.421C1249.48 115.421 1249.96 115.613 1250.1 115.848C1250.25 116.083 1250.9 116.275 1251.55 116.275C1252.38 116.275 1252.91 116.597 1253.3 117.342C1253.95 118.551 1254.91 118.739 1255.3 117.733C1255.48 117.267 1255.65 117.209 1255.86 117.545C1256.03 117.814 1256.97 118.045 1257.97 118.059C1258.96 118.073 1259.86 118.312 1259.97 118.59C1260.08 118.87 1260.78 119.047 1261.54 118.986C1263.19 118.853 1265.13 119.689 1266.47 121.111C1267.28 121.974 1267.74 122.122 1269.08 121.944C1270.04 121.815 1270.82 121.921 1270.99 122.202C1271.15 122.464 1271.73 122.678 1272.27 122.678C1272.82 122.678 1273.5 122.966 1273.79 123.318C1274.09 123.67 1274.79 123.958 1275.35 123.958C1275.92 123.958 1276.49 124.247 1276.63 124.599C1276.96 125.472 1279.51 125.428 1280.25 124.537C1280.77 123.913 1280.73 123.869 1279.87 124.139C1279.05 124.4 1278.92 124.288 1278.92 123.347C1278.92 122.744 1279.08 122.251 1279.27 122.251C1279.46 122.251 1280.04 122.731 1280.55 123.318C1281.06 123.905 1281.32 124.385 1281.14 124.385C1280.61 124.385 1279.29 126.865 1279.69 127.113C1279.9 127.236 1280.52 127.01 1281.09 126.608C1281.66 126.208 1282.85 125.867 1283.75 125.852C1284.65 125.838 1285.55 125.562 1285.75 125.236C1286.05 124.748 1286.63 124.82 1289.13 125.656C1290.79 126.21 1292.15 126.821 1292.15 127.012C1292.15 127.204 1293.08 126.994 1294.22 126.547C1295.94 125.866 1296.76 125.791 1299.17 126.089C1301.14 126.334 1302.35 126.728 1303 127.337C1303.52 127.827 1304.23 128.227 1304.59 128.227C1304.94 128.227 1305.69 127.747 1306.24 127.16C1307.27 126.062 1308.55 125.767 1309.01 126.52C1309.16 126.754 1309.95 126.947 1310.77 126.947C1311.59 126.947 1313.31 127.44 1314.58 128.042C1317.06 129.212 1319.25 129.299 1319.26 128.227C1319.26 127.802 1319.69 127.586 1320.54 127.585C1321.24 127.584 1322.07 127.422 1322.38 127.225C1322.94 126.859 1325.59 126.61 1331.57 126.357C1334.62 126.227 1335.12 126.328 1337.33 127.515C1338.66 128.23 1340 129.162 1340.31 129.588C1341.04 130.607 1342.19 130.571 1342.85 129.508C1343.14 129.038 1343.77 128.654 1344.24 128.654C1344.71 128.654 1345.5 128.414 1346 128.12C1346.72 127.694 1346.94 127.694 1347.1 128.12C1347.37 128.868 1349.18 128.785 1350.43 127.967C1351.41 127.327 1351.6 127.34 1353.26 128.16C1354.53 128.791 1355.25 128.925 1355.79 128.634C1356.28 128.374 1356.96 128.38 1357.67 128.652C1358.29 128.886 1359.4 129.075 1360.15 129.072C1360.9 129.069 1362.26 129.062 1363.16 129.057C1364.07 129.052 1365.07 129.271 1365.4 129.544C1365.91 129.968 1366 120.68 1366 65.1017L1366 0.16467L683 0.16461L0 0.164551L0.00639963 40.1841ZM521.686 12.5798C522.601 13.3038 523.349 14.1682 523.349 14.5008C523.349 14.8333 523.197 15.1052 523.011 15.1052C522.407 15.1052 519.061 11.8512 519.359 11.5532C519.519 11.394 519.734 11.2633 519.837 11.2633C519.94 11.2633 520.772 11.8558 521.686 12.5798ZM528.471 16.5993C528.471 16.9515 528.311 17.2396 528.116 17.2396C527.92 17.2396 527.76 16.9515 527.76 16.5993C527.76 16.2471 527.92 15.959 528.116 15.959C528.311 15.959 528.471 16.2471 528.471 16.5993ZM495.887 18.3781C495.73 18.5343 495.602 18.4062 495.602 18.0933C495.602 17.7804 495.73 17.6524 495.887 17.8086C496.043 17.9653 496.043 18.2214 495.887 18.3781ZM483.934 19.6587C483.777 19.8149 483.649 19.6869 483.649 19.374C483.649 19.0611 483.777 18.933 483.934 19.0892C484.09 19.2459 484.09 19.502 483.934 19.6587ZM484.525 21.0136C485.725 21.9852 485.005 22.5802 483.719 21.6799C482.782 21.023 482.484 20.2277 483.175 20.2277C483.384 20.2277 483.991 20.5812 484.525 21.0136ZM487.393 20.7613C487.631 21.055 487.902 21.6791 487.995 22.1487C488.091 22.64 488.449 22.9546 488.837 22.8901C489.208 22.8282 489.753 23.0686 490.048 23.4237C490.507 23.9774 490.391 24.0696 489.232 24.0696C487.665 24.0696 485.784 22.45 485.784 21.1007C485.784 20.1317 486.721 19.934 487.393 20.7613ZM474.543 21.7931C474.386 21.9493 474.13 21.9493 473.973 21.7931C473.817 21.6364 473.945 21.5083 474.258 21.5083C474.571 21.5083 474.699 21.6364 474.543 21.7931ZM477.358 22.1913C477.194 22.815 475.539 22.7258 475.539 22.0932C475.539 21.7333 475.903 21.5694 476.499 21.6603C477.027 21.741 477.414 21.9796 477.358 22.1913ZM470.203 23.6427C470.058 23.8775 469.758 24.0696 469.537 24.0696C469.316 24.0696 469.136 23.8775 469.136 23.6427C469.136 23.4079 469.435 23.2158 469.801 23.2158C470.167 23.2158 470.348 23.4079 470.203 23.6427ZM486.068 23.9274C485.912 24.0837 485.656 24.0837 485.499 23.9274C485.343 23.7708 485.471 23.6427 485.784 23.6427C486.097 23.6427 486.225 23.7708 486.068 23.9274ZM547.681 24.0696C547.681 24.3044 547.489 24.4965 547.254 24.4965C547.019 24.4965 546.827 24.3044 546.827 24.0696C546.827 23.8348 547.019 23.6427 547.254 23.6427C547.489 23.6427 547.681 23.8348 547.681 24.0696ZM548.961 24.9233C548.961 25.1581 548.769 25.3502 548.534 25.3502C548.3 25.3502 548.107 25.1581 548.107 24.9233C548.107 24.6886 548.3 24.4965 548.534 24.4965C548.769 24.4965 548.961 24.6886 548.961 24.9233ZM452.701 28.3383C452.846 28.5731 452.761 28.7652 452.513 28.7652C452.264 28.7652 452.061 28.5731 452.061 28.3383C452.061 28.1036 452.145 27.9115 452.249 27.9115C452.353 27.9115 452.556 28.1036 452.701 28.3383ZM550.533 28.8455C550.397 29.1857 550.296 29.0845 550.276 28.5872C550.257 28.1373 550.358 27.8854 550.5 28.0272C550.641 28.1689 550.657 28.5373 550.533 28.8455ZM556.858 29.619C557.004 29.8538 557.207 30.0458 557.31 30.0458C557.414 30.0458 557.499 29.8538 557.499 29.619C557.499 29.3842 557.295 29.1921 557.047 29.1921C556.798 29.1921 556.713 29.3842 556.858 29.619ZM451.892 31.6377C451.458 32.0718 451.1 31.4182 451.456 30.8424C451.725 30.407 451.825 30.407 451.97 30.8407C452.069 31.1374 452.033 31.4959 451.892 31.6377ZM592.076 40.2657C592.076 40.4868 591.884 40.786 591.649 40.9312C591.414 41.0763 591.222 40.8953 591.222 40.5295C591.222 40.1636 591.414 39.864 591.649 39.864C591.884 39.864 592.076 40.0445 592.076 40.2657ZM666.779 40.4791C666.779 40.8176 666.57 41.2232 666.315 41.3811C665.712 41.7538 664.889 40.9307 665.262 40.328C665.68 39.651 666.779 39.7603 666.779 40.4791ZM676.028 40.1487C675.871 40.3049 675.615 40.3049 675.458 40.1487C675.302 39.992 675.43 39.864 675.743 39.864C676.056 39.864 676.184 39.992 676.028 40.1487ZM696.472 42.1815C695.546 42.4675 694.714 42.9277 694.622 43.2039C694.53 43.48 694.67 43.7059 694.934 43.7059C695.513 43.7059 698.794 42.0658 698.794 41.7764C698.794 41.5062 698.475 41.5621 696.472 42.1815ZM257.263 46.1249C257.107 46.2812 256.979 46.1531 256.979 45.8402C256.979 45.5273 257.107 45.3992 257.263 45.5555C257.42 45.7121 257.42 45.9683 257.263 46.1249ZM302.654 45.8402C302.654 46.075 302.57 46.2671 302.466 46.2671C302.362 46.2671 302.159 46.075 302.014 45.8402C301.869 45.6054 301.954 45.4133 302.202 45.4133C302.451 45.4133 302.654 45.6054 302.654 45.8402ZM303.607 46.5121C303.379 47.7044 301.695 48.6247 300.733 48.0834C300.26 47.8171 300.27 47.6126 300.793 46.9074C301.391 46.1014 301.457 46.0955 301.981 46.8007C302.549 47.5665 303.121 47.7991 303.031 47.2275C302.897 46.3793 303.12 45.4133 303.449 45.4133C303.651 45.4133 303.722 45.9081 303.607 46.5121ZM303.935 49.2552C303.935 49.49 303.743 49.6821 303.508 49.6821C303.273 49.6821 303.081 49.49 303.081 49.2552C303.081 49.0204 303.273 48.8283 303.508 48.8283C303.743 48.8283 303.935 49.0204 303.935 49.2552ZM397.278 50.8206C397.122 50.9768 396.866 50.9768 396.709 50.8206C396.553 50.6639 396.681 50.5358 396.994 50.5358C397.307 50.5358 397.435 50.6639 397.278 50.8206ZM356.441 52.2433C356.441 52.4781 356.249 52.6702 356.014 52.6702C355.779 52.6702 355.587 52.4781 355.587 52.2433C355.587 52.0086 355.779 51.8165 356.014 51.8165C356.249 51.8165 356.441 52.0086 356.441 52.2433ZM304.207 52.8836C304.343 53.2358 304.529 53.524 304.621 53.524C304.713 53.524 304.789 53.2358 304.789 52.8836C304.789 52.5315 304.603 52.2433 304.375 52.2433C304.148 52.2433 304.072 52.5315 304.207 52.8836ZM726.968 53.524C726.968 53.7588 726.884 53.9509 726.78 53.9509C726.676 53.9509 726.473 53.7588 726.328 53.524C726.183 53.2892 726.268 53.0971 726.516 53.0971C726.765 53.0971 726.968 53.2892 726.968 53.524ZM375.508 53.8087C375.351 53.9649 375.095 53.9649 374.938 53.8087C374.782 53.652 374.91 53.524 375.223 53.524C375.536 53.524 375.664 53.652 375.508 53.8087ZM729.814 53.8087C729.657 53.965 729.401 53.965 729.245 53.8087C729.088 53.6521 729.216 53.524 729.529 53.524C729.842 53.524 729.97 53.6521 729.814 53.8087ZM285.152 55.6583C285.152 55.8931 284.853 56.0852 284.487 56.0852C284.121 56.0852 283.94 55.8931 284.085 55.6583C284.23 55.4235 284.53 55.2315 284.751 55.2315C284.972 55.2315 285.152 55.4235 285.152 55.6583ZM166.481 58.1739C166.481 58.3835 166.193 58.6656 165.841 58.801C165.19 59.0507 164.967 58.5956 165.485 58.0774C165.893 57.6693 166.481 57.7265 166.481 58.1739ZM154.858 58.9935C154.962 59.3055 154.767 59.4007 154.351 59.2415C153.979 59.0985 153.675 58.7946 153.675 58.5653C153.675 58.004 154.645 58.3553 154.858 58.9935ZM154.99 61.2726C155.415 62.0653 155.383 62.1528 154.757 61.9129C154.358 61.7596 153.952 61.6346 153.853 61.6346C153.755 61.6346 153.675 61.3464 153.675 60.9943C153.675 60.0556 154.424 60.2139 154.99 61.2726ZM755 61.0656C754.843 61.2218 754.715 61.0938 754.715 60.7809C754.715 60.468 754.843 60.3399 755 60.4961C755.156 60.6528 755.156 60.9089 755 61.0656ZM182.702 65.2378C182.702 65.3415 182.481 65.5631 182.209 65.7304C181.904 65.9195 181.833 65.8478 182.022 65.5426C182.326 65.0504 182.702 64.8818 182.702 65.2378ZM216.644 66.6807C216.305 67.02 215.571 66.2499 215.832 65.8282C216.009 65.5413 216.229 65.5853 216.456 65.952C216.648 66.264 216.733 66.5919 216.644 66.6807ZM36.0709 69.7452C36.2161 69.98 36.0351 70.1721 35.6692 70.1721C35.3034 70.1721 35.0037 69.98 35.0037 69.7452C35.0037 69.5104 35.1843 69.3183 35.4054 69.3183C35.6266 69.3183 35.9258 69.5104 36.0709 69.7452ZM39.8415 71.7374C39.9982 71.8936 40.2543 71.8936 40.411 71.7374C40.5672 71.5807 40.4391 71.4527 40.1262 71.4527C39.8133 71.4527 39.6853 71.5807 39.8415 71.7374ZM59.9759 72.3064C59.8308 72.5412 59.5316 72.7333 59.3104 72.7333C59.0893 72.7333 58.9087 72.5412 58.9087 72.3064C58.9087 72.0716 59.2084 71.8796 59.5742 71.8796C59.9401 71.8796 60.1211 72.0716 59.9759 72.3064ZM39.4146 73.018C39.5713 73.1743 39.8274 73.1743 39.9841 73.018C40.1403 72.8614 40.0123 72.7333 39.6994 72.7333C39.3865 72.7333 39.2584 72.8614 39.4146 73.018ZM68.3 73.1602C68.3 73.395 68.2155 73.5871 68.1117 73.5871C68.008 73.5871 67.8048 73.395 67.6597 73.1602C67.5145 72.9254 67.5995 72.7333 67.8479 72.7333C68.0964 72.7333 68.3 72.9254 68.3 73.1602ZM84.3078 73.1602C84.4529 73.395 84.2608 73.5871 83.8809 73.5871C83.501 73.5871 83.3089 73.395 83.4541 73.1602C83.5992 72.9254 83.7913 72.7333 83.8809 72.7333C83.9706 72.7333 84.1627 72.9254 84.3078 73.1602ZM73.3068 73.418C73.1651 73.5597 72.7967 73.5751 72.4889 73.4517C72.1483 73.3156 72.2494 73.2144 72.7468 73.1939C73.1967 73.1755 73.4485 73.2763 73.3068 73.418ZM25.7102 74.5206C25.9228 75.1588 26.8931 75.5101 26.8931 74.9488C26.8931 74.7196 26.5888 74.4156 26.2169 74.2726C25.8016 74.1134 25.6061 74.2086 25.7102 74.5206ZM23.2967 74.816C23.1644 75.0299 23.3432 75.315 23.6941 75.4499C24.045 75.5844 24.3319 75.5199 24.3319 75.3065C24.3319 74.7277 23.5733 74.3682 23.2967 74.816ZM71.5728 75.5793C71.4162 75.7355 71.2881 75.6075 71.2881 75.2946C71.2881 74.9817 71.4162 74.8536 71.5728 75.0098C71.7291 75.1665 71.7291 75.4226 71.5728 75.5793ZM85.2328 75.5793C85.0762 75.7355 84.9481 75.6075 84.9481 75.2946C84.9481 74.9817 85.0762 74.8536 85.2328 75.0098C85.3891 75.1665 85.3891 75.4226 85.2328 75.5793ZM4.12659 78.9943C3.96993 79.1505 3.71381 79.1505 3.55714 78.9943C3.40091 78.8376 3.52897 78.7096 3.84187 78.7096C4.15477 78.7096 4.28283 78.8376 4.12659 78.9943ZM85.1616 79.5633C85.3067 79.7981 85.2217 79.9902 84.9733 79.9902C84.7249 79.9902 84.5212 79.7981 84.5212 79.5633C84.5212 79.3285 84.6058 79.1364 84.7095 79.1364C84.8132 79.1364 85.0164 79.3285 85.1616 79.5633ZM845.07 85.8244C844.914 85.9806 844.658 85.9806 844.501 85.8244C844.345 85.6677 844.473 85.5396 844.786 85.5396C845.099 85.5396 845.227 85.6677 845.07 85.8244ZM845.924 87.5319C845.767 87.6881 845.511 87.6881 845.355 87.5319C845.198 87.3752 845.326 87.2471 845.639 87.2471C845.952 87.2471 846.08 87.3752 845.924 87.5319ZM843.909 88.7139C844.287 89.1689 844.296 89.554 843.946 90.2079C843.687 90.6924 843.39 91.089 843.286 91.089C842.833 91.089 841.75 88.9495 841.999 88.5465C842.39 87.9139 843.312 87.9946 843.909 88.7139ZM858.775 89.4618C858.511 90.2532 857.592 90.3842 857.592 89.6304C857.592 89.259 857.896 88.9546 858.268 88.9546C858.639 88.9546 858.868 89.1826 858.775 89.4618ZM847.694 90.2088C847.801 90.5289 847.641 90.689 847.32 90.5823C847.012 90.4794 846.676 90.143 846.573 89.8353C846.467 89.5151 846.627 89.355 846.947 89.4618C847.255 89.5642 847.591 89.9006 847.694 90.2088ZM849.054 90.2352C849.054 90.47 848.97 90.6621 848.866 90.6621C848.762 90.6621 848.559 90.47 848.414 90.2352C848.269 90.0005 848.354 89.8084 848.602 89.8084C848.851 89.8084 849.054 90.0005 849.054 90.2352ZM860.198 91.2154C859.649 91.7635 859.094 91.34 859.5 90.6835C859.657 90.4295 859.981 90.3424 860.22 90.4901C860.511 90.6702 860.504 90.9089 860.198 91.2154ZM851.854 91.2888C852.31 91.6337 852.48 91.9218 852.231 91.9291C851.982 91.9368 851.406 91.6606 850.95 91.3161C850.495 90.9712 850.325 90.683 850.574 90.6758C850.822 90.6681 851.398 90.9443 851.854 91.2888ZM1195.11 114.425C1194.95 114.581 1194.7 114.581 1194.54 114.425C1194.38 114.268 1194.51 114.14 1194.82 114.14C1195.14 114.14 1195.26 114.268 1195.11 114.425ZM1016.67 115.279C1016.52 115.435 1016.26 115.435 1016.1 115.279C1015.95 115.122 1016.08 114.994 1016.39 114.994C1016.7 114.994 1016.83 115.122 1016.67 115.279ZM1063.15 116.02C1063.66 116.526 1063.66 116.654 1063.16 116.844C1062.47 117.108 1062.06 116.789 1062.06 115.99C1062.06 115.26 1062.4 115.269 1063.15 116.02ZM959.188 117.555C959.188 117.79 958.996 117.982 958.761 117.982C958.526 117.982 958.334 117.79 958.334 117.555C958.334 117.32 958.526 117.128 958.761 117.128C958.996 117.128 959.188 117.32 959.188 117.555ZM1008.56 120.828C1008.41 120.984 1008.15 120.984 1007.99 120.828C1007.84 120.671 1007.97 120.543 1008.28 120.543C1008.59 120.543 1008.72 120.671 1008.56 120.828ZM976.548 121.255C976.391 121.411 976.135 121.411 975.978 121.255C975.822 121.098 975.95 120.97 976.263 120.97C976.576 120.97 976.704 121.098 976.548 121.255ZM958.334 122.251C958.334 122.486 958.142 122.678 957.907 122.678C957.673 122.678 957.481 122.486 957.481 122.251C957.481 122.016 957.673 121.824 957.907 121.824C958.142 121.824 958.334 122.016 958.334 122.251ZM979.678 122.251C979.678 122.486 979.39 122.678 979.038 122.678C978.686 122.678 978.397 122.486 978.397 122.251C978.397 122.016 978.686 121.824 979.038 121.824C979.39 121.824 979.678 122.016 979.678 122.251ZM977.864 122.998C977.968 123.311 977.674 123.532 977.152 123.532C976.628 123.532 976.263 123.256 976.263 122.86C976.263 122.075 977.595 122.19 977.864 122.998ZM988.002 124.812C988.147 125.047 988.17 125.239 988.053 125.239C987.935 125.239 987.72 125.047 987.575 124.812C987.43 124.577 987.408 124.385 987.525 124.385C987.642 124.385 987.857 124.577 988.002 124.812Z" clip-rule="evenodd"/></svg>