<svg xmlns="http://www.w3.org/2000/svg" width="24" height="3000" fill="none" viewBox="0 0 24 3000"><path fill="#000" fill-rule="evenodd" d="M16.6211 0.0140622C12.2906 0.0224995 9.28789 0.373124 9.35267 0.861562C9.44523 1.55906 9.44782 2.81625 9.36904 8.63719C9.31733 12.4556 9.2912 16.1878 9.31111 16.9303C9.33094 17.6737 9.36888 19.4587 9.39541 20.8978C9.42193 22.3369 9.47506 23.2828 9.51355 22.9997C9.55203 22.7166 9.57344 23.9878 9.56124 25.8253C9.54676 27.9938 9.5699 29.025 9.62704 28.7634C9.74172 28.2394 9.79162 37.1109 9.67867 37.9425C9.63342 38.2753 9.59642 38.9972 9.59642 39.5447C9.59642 40.185 9.63169 40.2281 9.69481 39.6656C9.74888 39.1838 9.86096 38.8162 9.94384 38.8481C10.1201 38.9166 10.2167 41.25 10.0433 41.25C9.96368 41.25 9.93959 41.8697 9.96832 43.1784C9.99343 44.3222 10.0544 44.9063 10.1183 44.6138C10.1877 44.2969 10.2261 44.7984 10.2261 46.0219C10.2261 47.0681 10.2615 47.6625 10.3048 47.3437C10.3481 47.025 10.3835 47.5978 10.3835 48.6169C10.3835 49.635 10.4278 50.6813 10.4819 50.9419C10.5606 51.3197 10.5606 51.4294 10.4819 51.4884C10.336 51.5981 10.3625 53.4375 10.51 53.4375C10.5851 53.4375 10.6195 53.9625 10.5948 54.7294C10.5719 55.44 10.5941 56.5087 10.6441 57.1041C10.7128 57.9225 10.6921 58.32 10.5593 58.7334C10.3626 59.3466 10.3197 60.9375 10.4998 60.9375C10.5637 60.9375 10.6695 61.9097 10.7348 63.0975C10.8183 64.6144 10.8348 66.0788 10.7905 68.0194C10.7051 71.7572 10.7507 76.5787 10.8946 79.0256C11.0514 81.6928 11.0447 83.4375 10.8776 83.4375C10.7662 83.4375 10.7732 83.6972 10.9169 84.8972C11.1177 86.5716 11.147 90.1631 10.9738 91.875C10.9089 92.5172 10.8558 93.8344 10.8558 94.8019C10.8558 96.6844 10.9722 97.1719 11.0525 95.625C11.1249 94.23 11.2231 94.4916 11.2231 96.0806C11.2231 96.8466 11.1628 97.7006 11.0891 97.9791C11.0154 98.2575 10.8985 99.2325 10.8291 100.145C10.7108 101.703 10.7185 101.786 10.9565 101.512C11.2768 101.142 11.6111 104.179 11.5208 106.639C11.4875 107.542 11.4663 108.607 11.4735 109.005C11.4807 109.403 11.3977 110.131 11.2892 110.622C11.1515 111.247 11.0919 112.222 11.0919 113.85C11.0919 115.143 10.9777 117.744 10.8361 119.677C10.6527 122.182 10.6224 122.981 10.7291 122.501C10.8537 121.942 10.8623 122.058 10.7816 123.217C10.6434 125.199 10.4587 132.988 10.5363 133.56C10.6442 134.354 10.4173 140.779 10.2165 142.619C10.1135 143.562 10.0735 144.343 10.1277 144.354C10.2707 144.384 10.2482 145.948 10.0946 146.65C10.0223 146.98 9.93951 146.795 9.91062 146.238C9.83152 144.714 9.6619 147.563 9.72157 149.412C9.74856 150.251 9.7344 150.937 9.69008 150.937C9.64577 150.937 9.59642 150.47 9.58044 149.897C9.56218 149.246 9.51197 149.422 9.44617 150.366C9.36549 151.524 9.36384 151.875 9.439 151.875C9.51504 151.875 9.51393 152.206 9.43404 153.353C9.35581 154.476 9.35345 154.995 9.42436 155.517C9.49433 156.033 9.48875 156.66 9.40217 158.024C9.25357 160.364 9.25152 161.329 9.39666 160.665C9.45994 160.376 9.53314 159.335 9.55935 158.351C9.63097 155.664 9.7462 156.201 9.72928 159.141C9.71692 161.299 9.74337 161.682 9.89157 161.496C10.095 161.239 10.1305 162.642 9.94226 163.502C9.85435 163.904 9.8301 164.758 9.86277 166.308C9.8915 167.67 9.86718 168.956 9.80019 169.618C9.7399 170.214 9.64467 172.555 9.58847 174.822C9.53227 177.088 9.45836 178.736 9.42421 178.485C9.39005 178.234 9.3832 178.682 9.40894 179.482C9.43475 180.283 9.42468 180.937 9.38658 180.937C9.34857 180.937 9.24861 182.459 9.16455 184.318C9.01303 187.67 9.01303 187.712 9.16588 189.043C9.29843 190.197 9.30354 190.511 9.20248 191.273C9.13385 191.789 9.12346 192.165 9.17753 192.173C9.22846 192.181 9.36509 190.816 9.48103 189.141C9.61271 187.237 9.67064 186.798 9.63522 187.969C9.60405 189 9.55903 190.66 9.5351 191.659C9.49488 193.341 9.51023 193.316 9.74549 191.321C9.9909 189.239 10.0029 189.226 10.1095 190.912C10.1701 191.872 10.202 193.359 10.1804 194.218C10.1587 195.077 10.1765 196.042 10.2199 196.361C10.2717 196.743 10.2676 197.759 10.2078 199.322C10.1383 201.14 10.1391 202.128 10.2114 203.507C10.2635 204.5 10.2765 205.312 10.2404 205.312C10.2042 205.312 10.1901 206.567 10.209 208.099C10.2366 210.337 10.1951 211.37 9.99854 213.338C9.86395 214.688 9.75383 216.653 9.75383 217.707C9.75383 220.285 10.0294 225.44 10.2864 227.67C10.4747 229.304 10.4841 229.652 10.3805 231.156C10.2762 232.669 10.2804 232.779 10.4252 232.336C10.5131 232.067 10.6295 232.415 10.6841 233.11C10.7386 233.806 10.7502 234.375 10.7098 234.375C10.6695 234.375 10.6154 235.029 10.5896 235.83C10.5592 236.773 10.5744 237.052 10.6329 236.621C10.7247 235.945 10.705 237.565 10.5759 241.326C10.5323 242.59 10.5414 242.92 10.6062 242.442C10.6569 242.069 10.7391 242.064 10.7889 242.432C10.8527 242.901 10.8402 243.442 10.7473 244.251C10.6314 245.26 10.6299 245.471 10.7354 245.953C10.9038 246.724 10.8853 248.199 10.6983 248.906C10.5198 249.581 10.4827 252.187 10.6516 252.187C10.7223 252.187 10.7479 252.843 10.7225 253.999C10.6904 255.463 10.7145 255.712 10.848 255.296C10.943 255 11.0132 255.227 11.0132 255.828C11.0132 256.882 10.9166 257.225 10.6983 256.947C10.6007 256.822 10.599 256.947 10.6887 257.668C10.7484 258.148 10.7751 258.967 10.7481 259.488C10.721 260.008 10.7867 261.427 10.894 262.64C11.1149 265.134 11.1343 266.397 10.9935 269.104C10.9131 270.648 10.9155 271.146 11.006 271.817C11.067 272.269 11.1703 272.395 11.2354 272.098C11.3125 271.746 11.334 271.939 11.2969 272.653C11.2656 273.257 11.127 273.778 10.9888 273.814L10.7377 273.877L10.9345 274.983C11.2541 276.78 11.4067 278.716 11.4067 280.972C11.4067 282.427 11.466 283.267 11.596 283.655C11.7373 284.078 11.7988 285.082 11.8388 287.625C11.8683 289.498 11.9633 291.621 12.0499 292.343C12.1521 293.197 12.1928 294.319 12.1658 295.545C12.1431 296.583 12.1758 298.044 12.2386 298.792C12.3013 299.54 12.334 300.51 12.3113 300.949C12.2885 301.387 12.3077 302.023 12.3537 302.362C12.4128 302.797 12.4129 303.333 12.354 304.177C12.2937 305.045 12.3033 305.699 12.3888 306.546C12.4639 307.288 12.4899 308.53 12.46 309.951C12.4314 311.308 12.4474 312.187 12.5007 312.187C12.565 312.187 12.5647 312.643 12.4996 313.886C12.431 315.194 12.4382 316.222 12.5309 318.356C12.597 319.881 12.6334 322.231 12.6119 323.579C12.5902 324.927 12.6112 326.316 12.6586 326.664C12.7614 327.421 12.7724 332.178 12.6766 334.466C12.6391 335.362 12.5717 337.451 12.5269 339.11C12.4671 341.329 12.4695 342.071 12.5361 341.922C12.5859 341.811 12.6267 342.66 12.6267 343.81C12.6267 346.359 12.7582 346.718 12.8306 344.366C12.8702 343.083 12.8981 343.558 12.9424 346.275C12.986 348.935 12.9728 350.117 12.8929 350.74C12.833 351.205 12.7221 351.41 12.6464 351.194C12.4884 350.743 12.4704 351.01 12.4002 354.844C12.3543 357.354 12.3604 357.48 12.4571 356.016C12.5166 355.114 12.6245 354.375 12.6969 354.375C12.8844 354.375 12.9399 356.872 12.7917 358.637C12.6368 360.482 12.6299 361.875 12.7757 361.875C12.9524 361.875 12.991 364.522 12.8234 365.156C12.7413 365.467 12.6522 366.543 12.6254 367.548C12.5986 368.553 12.5171 369.382 12.4443 369.389C12.343 369.4 12.3362 369.588 12.4155 370.187C12.4909 370.756 12.4532 371.296 12.2778 372.161C12.145 372.817 12.0364 373.75 12.0364 374.237C12.0364 374.723 12.1446 376.206 12.2768 377.531C12.4131 378.897 12.4984 380.496 12.4736 381.22C12.4496 381.924 12.4084 383.133 12.3821 383.906C12.3514 384.809 12.3796 385.312 12.4608 385.312C12.6014 385.312 12.6308 386.756 12.5086 387.656C12.4653 387.975 12.4299 389.378 12.4299 390.773C12.4299 392.839 12.3525 393.863 12.0147 396.27C11.6889 398.591 11.5956 399.787 11.5814 401.824C11.5715 403.252 11.4971 405.289 11.4161 406.35C11.3352 407.412 11.2246 409.302 11.1704 410.551C11.0858 412.5 11.0921 412.996 11.215 414.067C11.2937 414.752 11.4082 415.312 11.4695 415.312C11.5425 415.312 11.5631 415.868 11.529 416.925C11.5004 417.811 11.502 418.239 11.5325 417.877C11.6091 416.965 11.7946 420.066 11.7977 422.306C11.7991 423.316 11.9641 425.935 12.1645 428.126C12.4403 431.142 12.5182 432.588 12.4854 434.08C12.4585 435.303 12.4847 436.247 12.5541 436.564C12.6156 436.845 12.666 437.663 12.666 438.382C12.666 439.1 12.7014 439.687 12.7447 439.687C12.8685 439.687 12.8366 442.499 12.7059 443.096C12.63 443.443 12.6038 444.364 12.632 445.7C12.6559 446.837 12.6833 448.374 12.6927 449.118C12.7021 449.86 12.7376 451 12.7717 451.65C12.8126 452.428 12.6688 454.748 12.3507 458.443C12.0851 461.529 11.9275 463.782 12.0005 463.447C12.1151 462.924 12.1209 463.119 12.0427 464.857C11.9929 465.967 11.9141 466.875 11.8678 466.875C11.8213 466.875 11.8043 467.524 11.8298 468.317C11.8554 469.11 11.8276 469.981 11.7682 470.253C11.7088 470.525 11.6594 471.668 11.6586 472.795C11.6577 473.922 11.6449 475.658 11.6302 476.654C11.6128 477.83 11.6586 478.651 11.7609 478.998C11.8475 479.291 11.9212 480.27 11.9248 481.172C11.9452 486.26 11.9721 487.131 12.1347 487.981C12.2735 488.706 12.3136 489.718 12.3199 492.656C12.3313 498.013 12.4178 500.487 12.5761 499.994C12.6509 499.762 12.7915 500.628 12.8979 501.978C13.0019 503.296 13.0454 504.375 12.9945 504.375C12.9437 504.375 12.9021 505.008 12.9021 505.781C12.9021 506.555 12.9553 507.187 13.0202 507.187C13.1922 507.187 13.1647 508.62 12.9612 510.265C12.8186 511.418 12.8033 511.933 12.8825 512.911C13.0216 514.628 13.0045 516.352 12.8431 516.854C12.7156 517.251 12.7154 517.291 12.8407 517.391C12.9269 517.461 12.9595 518.009 12.9306 518.906C12.9024 519.783 12.9312 520.312 13.0071 520.312C13.0741 520.312 13.1513 519.884 13.1784 519.36C13.2351 518.267 13.3744 519.022 13.3744 520.423C13.3744 520.939 13.3394 521.104 13.2968 520.789C13.2497 520.443 13.2309 521.424 13.249 523.279C13.2836 526.811 13.2075 529.667 13.0191 531.911C12.8951 533.389 12.9003 533.7 13.1027 536.861C13.2392 538.994 13.3217 541.485 13.3268 543.633C13.3334 546.354 13.3664 547.042 13.4925 547.086C13.579 547.115 13.7472 547.478 13.8663 547.89C14.0407 548.495 14.0828 549.191 14.0828 551.467C14.0828 553.806 14.102 554.101 14.1949 553.184C14.2865 552.277 14.3321 552.728 14.4444 555.647C14.52 557.612 14.6201 559.812 14.6669 560.537C14.7652 562.064 14.8011 566.126 14.7916 574.655C14.787 578.735 14.7448 581.244 14.6622 582.33C14.5948 583.218 14.5643 584.422 14.5946 585.004C14.6269 585.627 14.5815 586.276 14.4842 586.579C14.3175 587.098 14.2516 588.75 14.3976 588.75C14.4409 588.75 14.4763 589.383 14.4763 590.156C14.4763 590.93 14.4442 591.562 14.405 591.562C14.3657 591.562 14.3469 592.301 14.3632 593.203C14.3829 594.295 14.2291 596.503 13.9032 599.808C13.634 602.539 13.3659 605.121 13.3074 605.547C13.2364 606.064 13.194 608.693 13.18 613.44C13.1625 619.372 13.1832 620.819 13.3042 622.123C13.3841 622.984 13.4319 624.024 13.4106 624.436C13.3893 624.847 13.4078 625.447 13.4518 625.772C13.4958 626.095 13.5318 627.5 13.5318 628.892C13.5318 630.437 13.5953 631.897 13.6947 632.636C13.802 633.434 13.8529 634.712 13.8438 636.377C13.8362 637.768 13.8389 639.328 13.8499 639.844C13.861 640.359 13.8736 641.576 13.878 642.548C13.8824 643.521 13.9567 644.786 14.0431 645.361C14.1294 645.936 14.2928 647.132 14.4062 648.019C14.5194 648.907 14.6264 649.539 14.6439 649.425C14.6614 649.312 14.6485 649.619 14.6154 650.109C14.5134 651.613 14.5478 652.5 14.7078 652.5C14.7918 652.5 14.8824 652.922 14.9092 653.437C14.9375 653.983 14.8591 654.375 14.7217 654.375C14.4526 654.375 14.3171 655.961 14.5473 656.418C14.6868 656.694 14.691 656.989 14.5985 660C14.543 661.805 14.4711 664.025 14.4388 664.932C14.3929 666.221 14.409 666.452 14.5116 665.982C14.6033 665.563 14.6561 665.976 14.6863 667.347C14.71 668.428 14.7914 669.547 14.8672 669.834C15.0343 670.465 15.2634 669.533 15.2634 668.223C15.2634 667.673 15.3134 667.764 15.3814 668.437C15.5148 669.756 15.5404 672.187 15.4208 672.187C15.3775 672.187 15.3421 672.807 15.3421 673.565C15.3421 674.441 15.2964 674.732 15.2162 674.366C15.1081 673.871 15.1043 674.056 15.1895 675.681C15.2735 677.284 15.2627 678.003 15.1186 680.414C14.9175 683.778 14.9011 686.092 15.0727 686.876C15.2227 687.562 15.3773 691.96 15.2786 692.735C15.2402 693.036 15.1851 694.441 15.1559 695.859C15.116 697.807 15.1319 698.437 15.221 698.437C15.3518 698.437 15.4662 702.428 15.3821 704.05C15.3526 704.618 15.3843 706.097 15.4525 707.336C15.5361 708.857 15.5491 709.792 15.4923 710.21C15.4459 710.551 15.4278 711.769 15.452 712.916C15.4804 714.262 15.4409 715.708 15.3411 716.984C15.256 718.073 15.2136 719.166 15.2472 719.411C15.3052 719.839 15.2982 736.64 15.238 741.562C15.2221 742.852 15.2037 744.372 15.1969 744.941C15.1902 745.51 15.105 747.057 15.0076 748.379C14.4287 756.235 14.3867 757.107 14.4001 761.016C14.4155 765.488 14.4098 766.817 14.3611 770.156C14.2869 775.235 14.1601 778.122 14.0104 778.139C13.9233 778.149 13.9142 778.368 13.9802 778.867C14.0399 779.319 14.0637 781.3 14.0452 784.266C14.0291 786.843 14.0057 789.363 13.9933 789.866C13.9504 791.595 14.1671 795 14.3198 795C14.4039 795 14.5315 796.071 14.6035 797.378C14.7278 799.639 14.726 799.863 14.5664 801.887C14.474 803.058 14.3596 806.101 14.312 808.649C14.214 813.9 14.1408 822.326 14.2086 820.547C14.2609 819.173 14.4763 818.958 14.4763 820.28C14.4763 821.229 14.2566 822.907 14.1221 822.986C14.0265 823.042 13.9175 828.75 14.012 828.75C14.0487 828.75 14.0561 830.106 14.0282 831.762C13.9703 835.212 13.7115 838.652 13.4055 840.037C13.2898 840.562 13.2147 841.223 13.2387 841.508C13.2626 841.793 13.3591 841.537 13.4531 840.937C13.5471 840.338 13.638 840.016 13.6553 840.22C13.6724 840.426 13.5405 842.403 13.3622 844.614C13.1324 847.462 13.0662 848.844 13.1352 849.353C13.2113 849.912 13.2067 850.658 13.1146 852.755C13.0074 855.192 13.0097 855.749 13.1405 858.804C13.2699 861.824 13.3135 862.142 13.5656 861.906C13.7766 861.708 13.8466 862.004 13.8466 863.096C13.8466 863.896 13.9175 864.772 14.004 865.041C14.0945 865.323 14.1615 866.319 14.1615 867.384C14.1615 868.449 14.2284 869.447 14.3189 869.728C14.406 870 14.4763 871.007 14.4763 871.985C14.4763 872.955 14.5117 873.75 14.555 873.75C14.5983 873.75 14.6337 874.383 14.6337 875.156C14.6337 875.93 14.5795 876.562 14.5132 876.562C14.3515 876.562 14.279 879.079 14.3933 880.719C14.4637 881.73 14.4628 882.471 14.3895 883.868C14.3094 885.395 14.3226 886.178 14.469 888.629C14.5655 890.242 14.6812 891.562 14.7263 891.562C14.7741 891.562 14.7878 892.527 14.7593 893.881C14.721 895.7 14.7362 896.082 14.8295 895.656C14.9165 895.258 14.9485 895.753 14.9485 897.495C14.9485 898.806 14.9152 900.92 14.8746 902.194C14.834 903.467 14.8273 905.693 14.8598 907.14C14.9034 909.085 14.9314 909.384 14.9667 908.288C14.9931 907.47 15.0392 904.845 15.0694 902.453C15.1292 897.702 15.2442 896.076 15.3545 898.423C15.3955 899.295 15.4817 899.706 15.5606 899.404C15.6584 899.03 15.6681 899.127 15.5952 899.753C15.4616 900.897 15.5584 903.75 15.7307 903.75C15.8957 903.75 16.1371 908.555 15.9998 909.105C15.8982 909.511 15.9521 913.125 16.0597 913.125C16.0978 913.125 16.1292 914.152 16.1292 915.406C16.1292 916.863 16.186 917.901 16.2866 918.281C16.4874 919.041 16.491 921.592 16.292 922.211C16.2084 922.472 16.1573 923.222 16.1785 923.877C16.1996 924.533 16.1661 925.302 16.1041 925.586C16.0422 925.869 15.9914 927.197 15.9914 928.537C15.9914 930.632 16.0093 930.812 16.1193 929.823C16.1897 929.191 16.3182 927.761 16.405 926.647L16.5628 924.619L16.5761 928.716C16.5878 932.325 16.5691 932.821 16.4183 932.887C16.3242 932.927 16.2917 933.174 16.3461 933.435C16.4145 933.764 16.3922 934.418 16.2739 935.558C16.0342 937.871 16.1301 940.311 16.4612 940.32C16.6644 940.326 16.7404 940.865 16.8178 942.85C16.872 944.239 16.9162 945.722 16.9162 946.147C16.9162 946.573 16.8188 947.407 16.6998 947.998L16.4833 949.075L16.7588 949.616C17.0224 950.133 17.0363 950.359 17.0822 954.844C17.1084 957.422 17.1152 959.847 17.0972 960.234C17.0792 960.621 17.1065 960.937 17.158 960.937C17.2214 960.937 17.237 962.017 17.2062 964.273C17.1534 968.151 17.2052 970.312 17.351 970.312C17.4077 970.312 17.4719 970.839 17.4938 971.484C17.5156 972.129 17.5363 971.471 17.5397 970.023C17.5436 968.364 17.5779 967.625 17.6322 968.024C17.6796 968.374 17.7035 969.876 17.6851 971.361C17.6669 972.847 17.6811 974.062 17.7169 974.062C17.7527 974.062 17.782 974.752 17.782 975.593C17.782 976.435 17.8606 977.935 17.9566 978.927C18.0643 980.04 18.0999 980.979 18.0495 981.381C18.0045 981.739 17.9719 983.93 17.9771 986.25C17.9925 993.31 18.1633 997.923 18.2809 994.453C18.3126 993.516 18.3218 993.516 18.3268 994.453C18.3301 995.098 18.4038 995.625 18.4904 995.625C18.7638 995.625 18.6726 998.931 18.3232 1001.68L17.9986 1004.24L18.1855 1005.4C18.2883 1006.04 18.3634 1007.05 18.3527 1007.66C18.3418 1008.26 18.4015 1008.75 18.4851 1008.75C18.6227 1008.75 18.7338 1010.71 18.7189 1012.86C18.7157 1013.32 18.7592 1014.04 18.8155 1014.45C18.8895 1015 18.8608 1015.46 18.7118 1016.14C18.4453 1017.35 18.3174 1019.55 18.5691 1018.59C18.7018 1018.09 18.7307 1018.22 18.6841 1019.12C18.6398 1019.98 18.66 1020.15 18.7548 1019.71C18.8697 1019.19 18.8752 1019.38 18.7958 1021.15C18.7272 1022.67 18.7268 1023.28 18.794 1023.55C18.8434 1023.75 18.8839 1024.77 18.8839 1025.82C18.8839 1027.41 18.9036 1027.53 19.002 1026.56C19.1397 1025.2 19.1537 1025.94 19.0386 1028.5C18.9757 1029.9 18.9828 1030.31 19.0694 1030.31C19.2002 1030.31 19.3046 1034.38 19.238 1036.88C19.2061 1038.08 19.241 1038.78 19.3529 1039.21C19.4829 1039.7 19.5151 1040.65 19.5215 1044.2C19.5275 1047.6 19.5419 1048.06 19.5849 1046.25L19.6406 1043.91L19.69 1046.12C19.7171 1047.33 19.7056 1049.39 19.6642 1050.68C19.5906 1052.99 19.655 1054.92 19.8678 1056.78C19.9167 1057.21 19.91 1057.48 19.8497 1057.49C19.7965 1057.49 19.6814 1059.17 19.5939 1061.21C19.488 1063.68 19.4349 1066.76 19.4349 1070.41C19.4349 1074.95 19.4705 1076.4 19.6417 1078.86C19.7555 1080.5 19.8777 1081.62 19.9133 1081.36C19.9488 1081.1 20.0142 1081.69 20.0585 1082.68C20.1029 1083.66 20.2264 1084.73 20.333 1085.05C20.4582 1085.43 20.5231 1086.25 20.516 1087.37C20.5085 1088.55 20.46 1088.96 20.3635 1088.66C20.2856 1088.42 20.222 1088.69 20.222 1089.27C20.222 1089.84 20.2928 1090.31 20.3794 1090.31C20.466 1090.31 20.5398 1090.63 20.5433 1091.02C20.547 1091.4 20.565 1092.77 20.5835 1094.06C20.6019 1095.35 20.6222 1096.83 20.6287 1097.34C20.635 1097.86 20.6146 1099.23 20.5832 1100.39C20.5405 1101.97 20.5572 1102.5 20.6496 1102.5C20.7174 1102.5 20.7729 1101.91 20.7729 1101.19C20.7729 1100.48 20.826 1099.65 20.891 1099.35C20.9806 1098.94 21.0097 1099.54 21.0116 1101.83C21.0129 1103.49 21.066 1105.66 21.1296 1106.66C21.1931 1107.66 21.2452 1109.19 21.2452 1110.06C21.2452 1110.93 21.2922 1112.11 21.3498 1112.68C21.4165 1113.34 21.4517 1115.67 21.4469 1119.12C21.4427 1122.1 21.483 1125.57 21.5364 1126.84C21.5957 1128.25 21.6042 1129.36 21.5583 1129.7C21.511 1130.05 21.5119 1131.44 21.561 1133.48C21.6038 1135.25 21.6387 1137.4 21.6387 1138.25C21.6387 1139.1 21.4974 1141.83 21.3248 1144.32C21.0664 1148.04 21.0319 1148.98 21.1297 1149.64C21.195 1150.07 21.2276 1150.83 21.202 1151.32C21.1765 1151.82 21.1251 1151.99 21.0878 1151.72C20.9556 1150.75 20.9084 1153.43 21.0378 1154.55C21.1572 1155.6 21.1511 1155.84 20.9711 1157.25C20.8621 1158.1 20.7729 1159.58 20.7729 1160.55C20.7729 1161.51 20.7161 1162.56 20.6467 1162.88C20.576 1163.2 20.5399 1164.06 20.5647 1164.82C20.6214 1166.59 20.4272 1168.89 20.1574 1169.66C19.8565 1170.51 19.7391 1171.87 19.7927 1173.89C19.8222 1174.99 19.794 1175.84 19.7158 1176.2C19.6479 1176.51 19.5923 1177.3 19.5923 1177.95C19.5923 1178.61 19.5396 1179.67 19.4751 1180.3C19.4106 1180.94 19.3791 1181.87 19.405 1182.37C19.4309 1182.87 19.3551 1184.48 19.2365 1185.96C19.1179 1187.43 19.0401 1189.23 19.0636 1189.96C19.0871 1190.69 19.0243 1192.34 18.9239 1193.63C18.8236 1194.92 18.6854 1198.58 18.6169 1201.77C18.5483 1204.96 18.496 1207.87 18.5006 1208.24C18.5271 1210.35 18.4772 1211.39 18.3723 1210.91C18.3035 1210.6 18.2543 1210.9 18.2543 1211.63C18.2543 1212.32 18.2314 1214.31 18.2036 1216.05L18.1529 1219.22L18.3471 1217.1C18.454 1215.94 18.5654 1215.27 18.5947 1215.62C18.6627 1216.43 18.419 1219.69 18.2906 1219.69C18.1723 1219.69 18.0766 1223.57 18.168 1224.66C18.2043 1225.09 18.3057 1224.36 18.3932 1223.04C18.4808 1221.71 18.5916 1220.62 18.6395 1220.62C18.6873 1220.62 18.7265 1219.91 18.7265 1219.03C18.7265 1217.78 18.7472 1217.68 18.8217 1218.57C18.8962 1219.46 18.8876 1220.3 18.7824 1222.42C18.7083 1223.91 18.6478 1225.65 18.6478 1226.29C18.6478 1226.93 18.5858 1228 18.5101 1228.67C18.38 1229.82 18.3811 1229.96 18.5297 1231.32C18.6163 1232.11 18.6454 1232.77 18.5944 1232.78C18.5434 1232.8 18.4443 1233.5 18.3742 1234.33C18.2568 1235.73 18.2573 1235.99 18.3808 1237.61C18.4545 1238.58 18.5613 1239.37 18.6182 1239.37C18.6781 1239.37 18.7023 1239.97 18.6759 1240.79C18.6507 1241.57 18.6739 1242.84 18.7274 1243.61C18.8232 1244.98 18.8158 1245.12 18.6347 1245.35C18.5842 1245.42 18.5281 1246 18.5101 1246.64C18.4894 1247.38 18.5529 1247.81 18.6806 1247.81C18.9041 1247.81 18.9681 1249.67 18.7462 1249.72C18.6704 1249.73 18.5397 1250.37 18.4557 1251.12C18.3064 1252.47 18.3068 1252.5 18.4753 1252.5C18.5702 1252.5 18.6478 1252.78 18.6478 1253.13C18.6478 1253.48 18.5872 1254.56 18.5132 1255.53C18.4058 1256.94 18.3995 1257.46 18.4816 1258.06C18.6033 1258.96 18.5679 1262.34 18.4369 1262.34C18.387 1262.34 18.3223 1262.63 18.2931 1262.97C18.264 1263.32 18.1105 1263.36 17.9521 1263.07L17.6639 1262.53L17.8149 1264.56C17.8979 1265.68 18.0219 1266.38 18.0904 1266.13C18.1589 1265.88 18.2606 1266.01 18.3164 1266.43C18.4528 1267.45 18.3348 1271.01 18.0658 1273.99C17.953 1275.24 17.8596 1276.93 17.8582 1277.74C17.8546 1279.89 17.649 1282.79 17.551 1282.07C17.5041 1281.72 17.4322 1282.54 17.3885 1283.91C17.3453 1285.26 17.273 1286.09 17.2277 1285.76C17.1825 1285.42 17.0912 1285.69 17.0248 1286.34C16.9586 1287 16.7564 1288.41 16.5757 1289.48C16.3546 1290.79 16.2387 1292.13 16.2213 1293.59C16.2002 1295.36 16.3195 1299.59 16.4955 1303.3C16.5124 1303.66 16.4155 1305.45 16.2801 1307.29C16.1448 1309.12 16.0732 1310.62 16.121 1310.62C16.1687 1310.62 16.2078 1311.28 16.2078 1312.09C16.2078 1312.89 16.2415 1313.3 16.2826 1313C16.3237 1312.7 16.3958 1313.3 16.4428 1314.35C16.508 1315.8 16.5043 1316.26 16.427 1316.28C16.362 1316.3 16.375 1316.75 16.4636 1317.55C16.6029 1318.81 16.6606 1320.55 16.5316 1319.6C16.4246 1318.81 16.2714 1321.53 16.2594 1324.43C16.2532 1325.93 16.1408 1328.42 15.9934 1330.31C15.8332 1332.37 15.7541 1334.2 15.7809 1335.21C15.8044 1336.1 15.7628 1338.35 15.6884 1340.22C15.5812 1342.91 15.574 1343.76 15.6541 1344.35C15.7095 1344.76 15.7376 1345.67 15.7166 1346.38C15.6587 1348.32 15.8548 1352.25 16.0821 1353.7C16.2302 1354.65 16.2629 1355.3 16.2036 1356.15C16.1467 1356.97 16.1529 1357.48 16.2242 1357.88C16.3046 1358.32 16.3053 1358.55 16.2275 1358.98C16.0814 1359.8 16.1083 1361.04 16.2866 1361.72C16.3745 1362.05 16.444 1363.14 16.444 1364.18C16.444 1365.37 16.4775 1365.8 16.5361 1365.37C16.5981 1364.91 16.6116 1365.2 16.5776 1366.26C16.5451 1367.27 16.5825 1368.24 16.6823 1368.98C16.8641 1370.34 16.8998 1373.92 16.7235 1373.12C16.6472 1372.77 16.6239 1373.05 16.6532 1373.95C16.6773 1374.7 16.6699 1376.05 16.6369 1376.95C16.6039 1377.86 16.5665 1380.01 16.5538 1381.73C16.541 1383.46 16.4757 1385.87 16.4085 1387.09C16.3415 1388.31 16.2864 1390.06 16.2862 1390.98C16.286 1391.9 16.1867 1393.92 16.0655 1395.47C15.7836 1399.07 15.7394 1400.55 15.8287 1403.41C15.8883 1405.33 15.9148 1405.49 15.9786 1404.35C16.0367 1403.32 16.0506 1403.68 16.0337 1405.78C16.0195 1407.55 15.9717 1408.5 15.9054 1408.33C15.8254 1408.13 15.8102 1408.97 15.843 1411.76C15.8736 1414.36 15.8525 1415.8 15.7716 1416.6C15.7085 1417.22 15.6569 1418.31 15.6569 1419.02C15.6569 1419.73 15.5967 1420.31 15.5231 1420.31C15.352 1420.31 15.4755 1421.75 15.7237 1422.64C15.8824 1423.22 15.9016 1423.05 15.8592 1421.46C15.823 1420.1 15.8526 1419.47 15.9695 1419.11C16.1164 1418.65 16.1291 1419.05 16.1291 1424.08C16.1291 1427.68 16.089 1430.03 16.0119 1430.95C15.8962 1432.33 15.8956 1435.98 16.0104 1439.3C16.0417 1440.2 16.0415 1441.68 16.01 1442.58C15.9079 1445.51 15.9294 1449.5 16.056 1451.09C16.1801 1452.65 16.1774 1453.21 16.003 1461.95C15.956 1464.3 15.9676 1464.59 16.0877 1464.05C16.1967 1463.55 16.2184 1463.79 16.1876 1465.19C16.166 1466.18 16.179 1467.55 16.2163 1468.26C16.269 1469.25 16.2844 1469.16 16.2854 1467.86C16.2863 1466.47 16.3139 1466.36 16.444 1467.19C16.5305 1467.74 16.6014 1468.64 16.6014 1469.19C16.6014 1469.75 16.5135 1472.28 16.4059 1474.83C16.2984 1477.38 16.2453 1479.21 16.2879 1478.9C16.3782 1478.23 16.3929 1479.67 16.3062 1480.7C16.2737 1481.09 16.2448 1481.69 16.242 1482.03C16.2296 1483.52 15.9367 1489.69 15.8784 1489.69C15.8432 1489.69 15.8143 1490.32 15.8143 1491.09C15.8143 1491.87 15.8585 1492.51 15.9127 1492.51C15.9782 1492.52 15.9717 1492.83 15.893 1493.44C15.8143 1494.04 15.8078 1494.35 15.8733 1494.36C15.9446 1494.37 15.9717 1496.67 15.9717 1502.67C15.9717 1508.4 16.0107 1511.89 16.098 1513.98C16.1675 1515.63 16.2034 1517.24 16.1779 1517.54C16.1524 1517.85 16.193 1518.67 16.2681 1519.37C16.3431 1520.08 16.3692 1520.54 16.3259 1520.4C16.2399 1520.13 16.2078 1520.82 16.2078 1522.94C16.2078 1523.79 16.2539 1524.11 16.3285 1523.76C16.4325 1523.29 16.4358 1523.56 16.3527 1525.74C16.2865 1527.47 16.2821 1528.46 16.3386 1528.9C16.384 1529.25 16.4238 1530.9 16.4273 1532.58C16.4322 1534.99 16.4018 1535.62 16.2813 1535.62C16.1676 1535.62 16.1291 1536.28 16.1291 1538.22C16.1291 1540.79 16.0974 1541.14 15.6115 1544.02C15.2933 1545.9 15.2976 1545.81 15.4589 1547.22C15.6343 1548.75 15.5694 1551.52 15.3417 1552.23C15.2553 1552.5 15.1846 1553.03 15.1846 1553.4C15.1846 1553.78 15.2544 1554.84 15.3395 1555.75C15.4637 1557.09 15.4776 1557.8 15.4097 1559.31C15.3631 1560.35 15.3444 1562.62 15.3682 1564.37C15.3937 1566.24 15.3811 1567.32 15.3374 1567C15.2966 1566.7 15.2633 1566.87 15.2633 1567.39C15.2633 1567.91 15.1945 1568.17 15.1105 1567.98C15.0105 1567.75 14.9711 1568.05 14.9965 1568.84C15.0193 1569.54 14.9362 1570.53 14.7962 1571.22C14.6646 1571.87 14.5778 1572.81 14.6032 1573.3C14.6287 1573.79 14.5724 1574.43 14.4781 1574.72C14.3839 1575.02 14.2759 1576.22 14.2383 1577.4C14.2001 1578.6 14.09 1579.68 13.9886 1579.85C13.8417 1580.1 13.812 1580.65 13.8326 1582.73C13.8507 1584.58 13.8227 1585.31 13.7342 1585.31C13.5607 1585.31 13.5801 1586.93 13.7679 1588.12C13.977 1589.46 13.9676 1591.49 13.7482 1592.37C13.5774 1593.05 13.5788 1593.09 13.7876 1593.48C14.0324 1593.93 14.0841 1595.62 13.853 1595.62C13.6474 1595.62 13.4531 1596.59 13.4531 1597.6C13.4531 1598.06 13.5416 1598.44 13.6498 1598.44C13.758 1598.44 13.8466 1598.86 13.8466 1599.37C13.8466 1599.89 13.7946 1600.31 13.731 1600.31C13.6608 1600.31 13.6331 1600.86 13.6605 1601.71C13.6854 1602.48 13.7373 1602.88 13.7761 1602.6C13.8966 1601.71 13.8533 1608.22 13.724 1610.42C13.6567 1611.56 13.5209 1612.5 13.4224 1612.5C13.1817 1612.5 13.1276 1613.32 13.2253 1615.5C13.2916 1616.97 13.2678 1617.75 13.0991 1619.61C12.9847 1620.87 12.8583 1621.66 12.818 1621.37C12.7777 1621.07 12.7447 1621.5 12.7447 1622.32C12.7447 1623.14 12.7976 1624.05 12.8623 1624.35C12.927 1624.64 12.9617 1625.24 12.9393 1625.67C12.917 1626.1 12.954 1626.82 13.0215 1627.26C13.123 1627.94 13.1063 1628.31 12.9248 1629.4C12.804 1630.13 12.6902 1630.84 12.6717 1630.99C12.6532 1631.15 12.7036 1631.84 12.7836 1632.54C12.9241 1633.76 12.9233 1633.87 12.761 1635.52C12.635 1636.8 12.6144 1637.54 12.6785 1638.46C12.7255 1639.14 12.8128 1639.69 12.8723 1639.69C13.0586 1639.69 12.991 1641.56 12.7644 1642.67C12.6453 1643.26 12.5176 1643.66 12.4806 1643.56C12.4435 1643.45 12.3592 1643.91 12.293 1644.56C12.1881 1645.6 12.1962 1645.81 12.3569 1646.27C12.5059 1646.68 12.5446 1647.48 12.5604 1650.42C12.5712 1652.42 12.6207 1654.35 12.6705 1654.72C12.7369 1655.21 12.7381 1655.9 12.6747 1657.3C12.6099 1658.75 12.6126 1659.32 12.6856 1659.61C12.7556 1659.89 12.7461 1660.43 12.6512 1661.56C12.5789 1662.42 12.4653 1663.12 12.3986 1663.12C12.3263 1663.12 12.2946 1663.66 12.3202 1664.46C12.3723 1666.07 12.126 1670.82 12.0277 1670.09C11.9892 1669.81 11.9576 1670.02 11.9576 1670.57C11.9576 1671.12 11.993 1671.56 12.0363 1671.56C12.0796 1671.56 12.115 1672.03 12.115 1672.6C12.115 1673.17 12.0653 1673.41 12.0047 1673.13C11.9381 1672.83 11.8779 1673.38 11.8526 1674.53C11.8296 1675.58 11.7729 1676.16 11.7267 1675.82C11.677 1675.45 11.6428 1676.04 11.6428 1677.26C11.6428 1678.39 11.5642 1680.12 11.4682 1681.11C11.3213 1682.63 11.312 1683.06 11.4092 1683.79C11.4727 1684.27 11.4893 1684.67 11.446 1684.69C11.4027 1684.7 11.4204 1685.13 11.4853 1685.62C11.5611 1686.21 11.5688 1686.54 11.5068 1686.55C11.3985 1686.56 11.1297 1692.69 11.0517 1696.92C11.0178 1698.75 11.0316 1699.69 11.0924 1699.69C11.156 1699.69 11.168 1700.84 11.1312 1703.44C11.0871 1706.55 11.0982 1707.1 11.1958 1706.65C11.272 1706.31 11.3334 1706.85 11.3693 1708.2C11.4537 1711.37 11.4279 1717.47 11.3238 1718.97C11.2632 1719.84 11.2495 1721.84 11.284 1724.76C11.3131 1727.21 11.355 1729.96 11.377 1730.86C11.4023 1731.89 11.3746 1732.5 11.3026 1732.5C11.2395 1732.5 11.1043 1733.36 11.0022 1734.42L10.8163 1736.34L11.0721 1735.75C11.2888 1735.25 11.3279 1735.44 11.3279 1736.96C11.3279 1737.94 11.3013 1739.07 11.2689 1739.45C11.2364 1739.84 11.2099 1740.61 11.2099 1741.17C11.2099 1741.72 11.0973 1742.64 10.9597 1743.2C10.5892 1744.71 10.5335 1745.97 10.8692 1745.25C11.2083 1744.52 11.3253 1745.88 11.137 1748.36C11.066 1749.3 11.0314 1750.73 11.059 1751.58C11.0863 1752.43 11.0816 1753.86 11.0486 1754.77C11.0156 1755.67 10.9781 1757.83 10.9654 1759.56C10.9526 1761.3 10.8927 1763.41 10.8321 1764.25C10.6912 1766.21 10.5948 1769.36 10.6991 1768.59C10.8554 1767.44 10.7704 1769.4 10.5005 1773.17C9.93401 1781.09 9.91315 1781.49 9.9577 1783.6C9.98706 1784.99 9.96014 1785.87 9.87647 1786.26C9.76825 1786.75 9.58352 1790.58 9.56361 1792.75C9.55998 1793.14 9.45326 1794.1 9.32638 1794.89C9.19958 1795.67 9.04704 1797.14 8.98746 1798.16C8.9278 1799.17 8.83028 1800 8.77078 1800C8.61982 1800 8.5404 1803.56 8.65461 1805.2C8.70663 1805.94 8.72954 1807.44 8.70569 1808.53C8.68176 1809.62 8.6927 1811.47 8.73001 1812.64C8.7718 1813.95 8.76661 1815.13 8.71639 1815.73C8.66043 1816.4 8.67845 1816.65 8.7744 1816.55C8.97353 1816.34 9.19801 1821.39 9.21398 1826.43C9.22429 1829.66 9.18612 1831.23 9.05775 1832.87C8.9644 1834.06 8.88797 1835.34 8.88797 1835.7C8.88797 1836.06 8.8036 1836.61 8.70041 1836.92C8.59723 1837.23 8.3992 1838.74 8.26036 1840.29C8.12151 1841.83 7.87831 1843.53 7.71987 1844.05C7.35529 1845.25 7.09123 1849.51 7.13939 1853.42C7.15844 1854.97 7.20551 1856 7.24392 1855.72C7.34923 1854.94 7.32782 1856.88 7.21543 1858.29C7.10421 1859.69 6.93869 1864.54 6.8403 1869.28C6.80402 1871.03 6.72744 1872.82 6.67014 1873.25C6.61292 1873.68 6.60331 1874.04 6.64873 1874.05C6.69422 1874.06 6.76986 1873.6 6.81693 1873.04C6.87856 1872.31 6.91728 1872.31 6.95537 1873.04C6.9845 1873.6 6.97411 1874.06 6.93231 1874.06C6.89052 1874.06 6.87391 1874.86 6.8954 1875.84C6.91681 1876.82 6.8943 1878.51 6.84526 1879.6C6.70839 1882.65 6.92649 1881.7 7.09579 1878.52C7.17119 1877.1 7.26399 1875.94 7.30208 1875.94C7.34128 1875.94 7.34325 1877.67 7.30665 1879.92C7.27107 1882.11 7.24046 1884.27 7.23857 1884.72C7.23668 1885.17 7.16694 1885.32 7.08359 1885.06C6.96907 1884.7 6.94325 1884.96 6.97773 1886.12C7.00283 1886.97 7.05502 1888.15 7.09366 1888.74C7.13231 1889.34 7.14372 1891.87 7.11901 1894.37C7.06423 1899.9 7.00803 1902.19 6.92712 1902.19C6.8248 1902.19 7.0292 1910.18 7.17623 1911.93C7.32003 1913.65 7.36733 1915.82 7.24053 1914.88C7.20023 1914.59 7.14734 1914.73 7.12294 1915.2C7.09854 1915.67 7.13152 1916.3 7.19622 1916.59C7.26092 1916.89 7.31381 1917.8 7.31381 1918.63C7.31381 1919.46 7.36694 1920.77 7.43187 1921.54C7.57095 1923.2 7.58567 1924.69 7.4628 1924.69C7.41377 1924.69 7.39771 1925.37 7.42613 1926.25C7.45383 1927.11 7.44501 1928.06 7.40653 1928.36C7.36804 1928.66 7.31239 1930.59 7.28288 1932.66C7.24454 1935.34 7.2521 1936.01 7.30972 1935C7.37583 1933.84 7.39031 1933.96 7.39134 1935.67C7.39197 1936.81 7.32066 1938.2 7.2329 1938.76C7.14514 1939.32 7.09406 1940.18 7.11948 1940.67C7.1449 1941.16 7.11231 1941.56 7.04707 1941.56C6.92916 1941.56 6.52673 1945.45 6.52673 1946.59C6.52673 1946.92 6.59544 1947.19 6.6795 1947.19C6.76356 1947.19 6.85077 1947.54 6.87328 1947.98C6.94766 1949.41 6.75892 1955.62 6.64109 1955.62C6.50941 1955.62 6.48541 1958.96 6.61039 1959.88C6.65644 1960.22 6.76805 1959.72 6.85856 1958.76C7.02243 1957.04 7.02282 1957.04 6.96568 1960.31C6.9342 1962.12 6.90122 1964.02 6.8924 1964.53C6.88367 1965.05 6.85281 1965.92 6.82385 1966.47C6.79488 1967.02 6.78804 1969.09 6.80866 1971.07C6.83739 1973.83 6.80819 1975.15 6.6828 1976.74C6.593 1977.87 6.52539 1979.18 6.53247 1979.64C6.56789 1981.92 6.51484 1983.75 6.41331 1983.75C6.25723 1983.75 6.17789 1985.55 6.19773 1988.64C6.2078 1990.22 6.17514 1991.25 6.11477 1991.26C6.05999 1991.26 5.97419 1992.32 5.92414 1993.6C5.84865 1995.54 5.85346 1995.94 5.95231 1995.94C6.03677 1995.94 6.05857 1996.56 6.02693 1998.05C6.00237 1999.22 6.01575 2000.8 6.05652 2001.57C6.10611 2002.5 6.13114 2002.58 6.132 2001.8C6.13263 2001.15 6.18631 2000.62 6.25125 2000.62C6.4089 2000.62 6.40142 2002.89 6.23842 2004.49C6.12744 2005.59 6.10202 2005.58 6.07077 2004.48C6.04826 2003.68 5.98883 2004.41 5.91792 2006.35C5.81292 2009.23 5.79584 2009.35 5.73697 2007.66C5.67518 2005.87 5.67172 2005.88 5.66645 2007.89C5.6618 2009.66 5.70226 2010 5.91713 2010C6.14397 2010 6.18387 2010.4 6.26494 2013.48C6.33326 2016.08 6.33389 2017.46 6.2677 2018.88C6.21882 2019.92 6.18686 2021.26 6.19662 2021.84C6.20646 2022.42 6.14837 2023.1 6.0677 2023.36C5.98033 2023.63 5.90115 2024.99 5.87203 2026.73C5.83472 2028.95 5.75483 2029.98 5.53563 2031.07C5.29597 2032.26 5.26417 2032.73 5.34429 2033.88C5.42095 2034.98 5.41639 2035.55 5.32162 2036.68C5.25622 2037.45 5.18829 2038.61 5.17066 2039.24C5.14571 2040.13 5.03969 2040.1 4.69102 2039.1C4.44474 2038.4 4.2216 2038.08 4.19508 2038.4C4.16863 2038.71 4.23962 2039.25 4.35296 2039.59C4.56886 2040.23 4.64222 2042.81 4.44466 2042.81C4.22522 2042.81 3.94124 2044.9 3.98335 2046.21C4.00618 2046.92 3.98571 2047.5 3.93778 2047.5C3.88985 2047.5 3.85065 2048.1 3.85065 2048.84C3.85065 2049.58 3.77107 2050.49 3.67387 2050.85C3.47867 2051.59 3.29277 2054.11 3.35077 2055.23C3.37116 2055.62 3.29859 2056.35 3.1895 2056.84C2.95731 2057.89 2.62052 2061.67 2.65358 2062.85C2.66617 2063.3 2.62823 2063.45 2.5692 2063.18C2.51025 2062.91 2.42265 2063.44 2.37456 2064.35C2.26444 2066.45 1.67051 2069.92 1.2972 2070.64C1.14105 2070.94 0.99504 2071.54 0.972609 2071.98C0.950255 2072.41 0.98662 2073.75 1.05352 2074.97C1.18921 2077.44 1.14773 2078.44 0.909564 2078.44C0.785126 2078.44 0.770564 2078.69 0.843999 2079.56C0.895946 2080.18 0.93845 2081.87 0.93845 2083.31C0.938449 2084.76 0.967808 2085.94 1.0037 2085.94C1.07721 2085.94 1.08217 2089.9 1.00968 2090.62C0.983864 2090.88 0.941912 2092.67 0.916411 2094.59C0.869579 2098.13 0.980636 2100.35 1.09484 2098.14C1.18835 2096.34 1.27744 2098.73 1.21944 2101.48C1.18252 2103.23 1.22345 2104.41 1.38787 2106.35C1.50735 2107.75 1.60857 2109.12 1.6129 2109.37C1.61715 2109.63 1.66193 2111.03 1.71246 2112.48C1.85028 2116.45 1.82391 2121.44 1.65123 2124.05C1.56709 2125.33 1.51774 2126.98 1.54159 2127.72C1.5674 2128.52 1.53718 2129.06 1.46674 2129.06C1.3874 2129.06 1.33915 2130.23 1.3201 2132.61C1.30444 2134.57 1.30334 2136.89 1.31758 2137.77C1.34096 2139.21 1.35536 2139.23 1.46516 2137.92C1.62399 2136.03 1.66901 2136.67 1.5748 2139.47C1.53332 2140.71 1.49712 2141.34 1.49436 2140.87C1.48326 2138.98 1.18 2143.53 1.13474 2146.27C1.06587 2150.44 0.922548 2154.72 0.824871 2155.53C0.775442 2155.94 0.797559 2156.23 0.879415 2156.24C1.07603 2156.26 1.04966 2157.68 0.81149 2159.92C0.550651 2162.36 0.611335 2164.69 0.936006 2164.69C1.11121 2164.69 1.17425 2165.12 1.17339 2166.33C1.1726 2167.4 1.1519 2167.59 1.11381 2166.88C1.02636 2165.24 0.748052 2167.94 0.808972 2169.83C0.841478 2170.84 0.79433 2171.59 0.661471 2172.19C0.379066 2173.47 0.410865 2175.29 0.702321 2174.53C0.83219 2174.19 0.938208 2174.26 0.937972 2174.69C0.937657 2175.12 0.887599 2176.61 0.826679 2178C0.730104 2180.2 0.731207 2180.68 0.835338 2181.71C0.901059 2182.36 0.985671 2183.86 1.02337 2185.04C1.06115 2186.22 1.14978 2187.19 1.22038 2187.19C1.30097 2187.19 1.3323 2187.7 1.30452 2188.56C1.28012 2189.32 1.29405 2190.19 1.33545 2190.49C1.37685 2190.8 1.41069 2190.58 1.41069 2190C1.41069 2189.42 1.44572 2189.21 1.48861 2189.53C1.53395 2189.86 1.50034 2190.95 1.40794 2192.13C1.32073 2193.24 1.26524 2194.64 1.28452 2195.24C1.30389 2195.84 1.28114 2196.79 1.23407 2197.35C1.11546 2198.77 1.07429 2204.72 1.16969 2206.67C1.21439 2207.58 1.2495 2207.77 1.25092 2207.11C1.25367 2205.76 1.56811 2205.48 1.56811 2206.83C1.56811 2207.32 1.50609 2208.16 1.43037 2208.7C1.30514 2209.6 1.30404 2209.79 1.41809 2210.86C1.48704 2211.5 1.56834 2213.61 1.59873 2215.55C1.64973 2218.79 1.73812 2219.63 1.98133 2219.17C2.08978 2218.97 2.04193 2222.57 1.92017 2223.77C1.8147 2224.81 1.82186 2225.09 1.9792 2226.02C2.07782 2226.6 2.1703 2228.07 2.18478 2229.27C2.19927 2230.48 2.27853 2231.68 2.36093 2231.93C2.44342 2232.19 2.4934 2232.74 2.47215 2233.15C2.4054 2234.43 2.52803 2237.01 2.63319 2236.52C2.68828 2236.27 2.79887 2236.66 2.87883 2237.38C2.95951 2238.11 2.98155 2238.7 2.92826 2238.72C2.87545 2238.74 2.85286 2239.39 2.87797 2240.17C2.90307 2240.94 2.83113 2243.03 2.71811 2244.79C2.60508 2246.56 2.5126 2248.41 2.5126 2248.91C2.5126 2249.41 2.58344 2249.6 2.67002 2249.33C2.7795 2248.99 2.82744 2249.31 2.82744 2250.36C2.82744 2251.19 2.76541 2251.91 2.6897 2251.94C2.56919 2252 2.571 2252.1 2.70363 2252.71C2.83932 2253.35 2.84137 2253.49 2.7233 2254.03C2.65074 2254.36 2.59131 2255.45 2.59131 2256.45C2.59131 2257.8 2.63137 2258.14 2.74755 2257.78C2.83349 2257.51 2.96384 2257.56 3.03727 2257.9C3.15077 2258.42 3.13204 2258.93 2.91236 2261.32C2.71827 2263.43 2.62838 2263.88 2.55156 2263.12C2.47695 2262.38 2.43956 2262.44 2.41374 2263.32C2.39422 2263.99 2.45278 2265.09 2.54385 2265.77C2.68167 2266.8 2.68442 2266.91 2.56054 2266.45C2.43358 2265.98 2.42658 2266.11 2.51268 2267.34C2.56825 2268.14 2.59131 2269.06 2.56384 2269.39C2.53645 2269.72 2.55566 2270.58 2.60658 2271.31C2.6786 2272.35 2.67458 2272.82 2.58848 2273.46C2.49592 2274.14 2.49875 2274.37 2.60564 2274.86C2.71874 2275.38 2.72078 2275.74 2.6235 2277.96C2.52032 2280.31 2.52449 2280.49 2.69001 2280.78C2.97171 2281.28 3.0135 2282.47 2.82743 2284.69C2.7015 2286.19 2.67789 2287.03 2.74085 2287.78C2.849 2289.07 2.85498 2290.63 2.74873 2289.84C2.70544 2289.52 2.67002 2290.16 2.67002 2291.25C2.67002 2292.53 2.70284 2292.99 2.76211 2292.56C2.8272 2292.08 2.8357 2292.4 2.79099 2293.67C2.7562 2294.66 2.69253 2297.76 2.6494 2300.55C2.58179 2304.93 2.58934 2305.79 2.70465 2306.79C2.82854 2307.87 2.82704 2308 2.6841 2308.54C2.51551 2309.18 2.40209 2313.68 2.51866 2315.11C2.63672 2316.56 2.60367 2317.26 2.3869 2317.91C2.21658 2318.42 2.19053 2318.9 2.23098 2320.82C2.26129 2322.26 2.2457 2323.12 2.18966 2323.12C2.12315 2323.12 2.12363 2323.47 2.19139 2324.44C2.26129 2325.44 2.26073 2325.84 2.18895 2326.13C2.12292 2326.39 2.13897 2327.3 2.24303 2329.2C2.35023 2331.14 2.36447 2331.99 2.2945 2332.27C2.24129 2332.48 2.19777 2333.07 2.19777 2333.57C2.19777 2334.07 2.23075 2334.24 2.27104 2333.95C2.38446 2333.11 2.44404 2334.97 2.3884 2337.61C2.36077 2338.93 2.28647 2340 2.22327 2340C2.1407 2340 2.12362 2340.59 2.16243 2342.11C2.1921 2343.27 2.27388 2345 2.34416 2345.95C2.46325 2347.56 2.45876 2347.8 2.27821 2349.55C2.10961 2351.17 2.10088 2351.52 2.21075 2352.26C2.29466 2352.81 2.32968 2354.12 2.31528 2356.16C2.30347 2357.84 2.28584 2359.22 2.27616 2359.22C2.26648 2359.22 2.24657 2360.45 2.23185 2361.95C2.21721 2363.45 2.17628 2364.93 2.14094 2365.23C2.1056 2365.53 2.06538 2368.52 2.05161 2371.87C2.0313 2376.82 1.9899 2378.43 1.83295 2380.41C1.69277 2382.18 1.63666 2383.99 1.62965 2386.97C1.62422 2389.24 1.58612 2391.62 1.54496 2392.27C1.5038 2392.91 1.5012 2393.44 1.53921 2393.44C1.63807 2393.44 1.8254 2398.83 1.76621 2399.97C1.67585 2401.72 1.6546 2404.69 1.73252 2404.69C1.77463 2404.69 1.83193 2405.39 1.85971 2406.26C1.8875 2407.12 1.97801 2408.63 2.06081 2409.62C2.16132 2410.82 2.19611 2412.14 2.16534 2413.6C2.14007 2414.8 2.15684 2415.93 2.20264 2416.11C2.25672 2416.33 2.24491 2417.38 2.1688 2419.13C2.05727 2421.69 2.06364 2422.02 2.30181 2425.9C2.4394 2428.15 2.62845 2430.23 2.72196 2430.54C2.82798 2430.89 2.95163 2432.74 3.0508 2435.47C3.19625 2439.47 3.19916 2439.98 3.08512 2441.48C3.01656 2442.39 2.99075 2443.12 3.02774 2443.12C3.06473 2443.12 3.05686 2443.58 3.01027 2444.13C2.94966 2444.86 2.97886 2445.78 3.11259 2447.37C3.33438 2450.02 3.35139 2452.06 3.16194 2453.33C3.01121 2454.34 2.99067 2454.14 3.42647 2455.79C3.51014 2456.11 3.53942 2455.84 3.5125 2455C3.45945 2453.36 3.57421 2451.16 3.67456 2451.89C3.78192 2452.68 3.77271 2457.19 3.6637 2457.19C3.60577 2457.19 3.57515 2459.71 3.57515 2464.46C3.57515 2470.91 3.555 2471.91 3.39326 2473.47C3.29322 2474.44 3.2297 2475.79 3.25213 2476.49C3.27449 2477.18 3.2637 2477.97 3.22805 2478.23C3.19247 2478.49 3.18051 2479.77 3.20145 2481.08C3.22238 2482.38 3.19594 2484.07 3.14265 2484.84C3.06457 2485.96 3.06969 2486.34 3.16933 2486.79C3.25977 2487.21 3.28118 2488.15 3.24922 2490.32C3.17311 2495.48 2.8168 2508.72 2.73864 2509.29C2.6974 2509.6 2.68567 2510.67 2.71267 2511.69C2.74084 2512.74 2.70543 2514.55 2.62987 2515.93C2.54061 2517.55 2.52377 2518.63 2.57784 2519.28C2.62176 2519.8 2.64073 2520.75 2.62003 2521.4C2.59933 2522.04 2.65387 2522.79 2.74132 2523.06C2.85899 2523.43 2.89086 2524.13 2.8641 2525.76C2.84427 2526.98 2.80625 2529.34 2.77965 2531.02C2.75297 2532.69 2.69968 2534.06 2.66127 2534.06C2.62278 2534.06 2.5913 2534.51 2.5913 2535.06C2.5913 2535.6 2.62632 2535.79 2.66914 2535.48C2.71369 2535.15 2.72691 2535.52 2.70007 2536.36C2.67426 2537.16 2.69 2537.81 2.73502 2537.81C2.77996 2537.81 2.8401 2538.69 2.86859 2539.76C2.90172 2541 2.87048 2542.35 2.78185 2543.52C2.64938 2545.26 2.64994 2545.4 2.79444 2546.68C2.94336 2547.99 2.94336 2548.03 2.79421 2549.34C2.64592 2550.65 2.64632 2550.71 2.81388 2552.42C3.01302 2554.45 3.03332 2556.14 2.86772 2556.9C2.76855 2557.35 2.77579 2557.94 2.91487 2560.75C3.0064 2562.59 3.0408 2564.06 2.99263 2564.06C2.8408 2564.06 2.89999 2566.64 3.06355 2567.15C3.25992 2567.76 3.26386 2569.18 3.07535 2571.42C2.94336 2572.99 2.94155 2573.25 3.05567 2574.2C3.16815 2575.13 3.16264 2575.44 3.00404 2577.07C2.89251 2578.22 2.86142 2579.04 2.92045 2579.28C2.98744 2579.54 2.97626 2580.3 2.88157 2581.91C2.71644 2584.72 2.71518 2585.41 2.87433 2585.79C2.99727 2586.09 3.21742 2592.06 3.21978 2595.16C3.22041 2596.02 3.13084 2598.86 3.02065 2601.47C2.77161 2607.38 2.68598 2614.82 2.83017 2618.03C2.92124 2620.06 2.91297 2620.85 2.76461 2624.32C2.6275 2627.52 2.61632 2628.34 2.70676 2628.57C2.76831 2628.74 2.79916 2629.47 2.77532 2630.22C2.75139 2630.96 2.77106 2631.56 2.819 2631.56C2.86693 2631.56 2.91053 2630.93 2.91597 2630.16C2.9214 2629.38 2.93021 2628.22 2.93564 2627.58C2.94713 2626.21 3.29967 2625.37 3.29967 2626.71C3.29967 2627.21 3.24654 2627.85 3.18161 2628.15C3.02151 2628.88 3.03245 2630.4 3.20128 2630.88C3.31462 2631.21 3.30463 2631.44 3.14501 2632.22C2.95304 2633.15 2.95406 2633.17 3.24339 2634.31C3.40419 2634.94 3.53579 2636.03 3.53579 2636.74C3.53579 2637.44 3.45614 2638.7 3.3587 2639.53L3.1816 2641.04L3.38491 2640.46C3.57003 2639.93 3.58829 2640.13 3.58829 2642.75C3.58829 2644.33 3.56759 2645.63 3.54232 2645.64C3.51706 2645.65 3.44347 2646.05 3.37877 2646.54C3.27771 2647.3 3.28282 2647.62 3.41513 2648.77C3.54406 2649.89 3.55256 2650.35 3.46731 2651.57C3.34603 2653.31 3.42041 2656.87 3.57798 2656.87C3.64992 2656.87 3.67062 2657.45 3.63748 2658.52C3.60946 2659.42 3.56019 2660.37 3.52784 2660.64C3.49549 2660.9 3.51438 2663.44 3.56987 2666.28C3.63221 2669.48 3.64488 2672.28 3.60309 2673.62C3.56586 2674.82 3.5524 2676.12 3.5731 2676.52C3.59388 2676.92 3.54335 2677.98 3.46094 2678.86C3.32895 2680.29 3.31564 2681.47 3.34886 2688.83C3.37609 2694.86 3.36082 2697.19 3.29415 2697.19C3.22379 2697.19 3.22402 2697.51 3.2951 2698.53C3.36987 2699.6 3.35602 2700.08 3.22607 2700.9C3.10895 2701.65 3.06354 2702.87 3.06354 2705.25C3.06354 2707.07 3.02568 2709.4 2.9794 2710.43C2.91942 2711.77 2.91974 2712.66 2.98034 2713.53C3.04268 2714.42 3.0352 2715.05 2.95217 2715.87C2.87488 2716.63 2.85299 2718.03 2.8833 2720.25C2.91824 2722.81 2.88952 2724 2.74942 2725.77C2.48078 2729.18 2.5188 2736.16 2.82253 2739.2C2.91478 2740.12 2.92092 2740.55 2.84709 2740.92C2.79294 2741.19 2.74871 2742.19 2.74871 2743.15C2.74871 2744.11 2.71329 2745.15 2.67 2745.47C2.62671 2745.79 2.59129 2747.22 2.59129 2748.65C2.59129 2750.46 2.53179 2751.63 2.39452 2752.5C2.17154 2753.92 2.13683 2756.03 2.32242 2756.88C2.40829 2757.27 2.41908 2757.65 2.35698 2758.11C2.30747 2758.48 2.26489 2760.56 2.26229 2762.74C2.25977 2764.92 2.21569 2766.9 2.16438 2767.13C2.11266 2767.37 2.08008 2768.91 2.09134 2770.58C2.11581 2774.22 1.96178 2778.48 1.69953 2781.41C1.54038 2783.19 1.51307 2784.21 1.54605 2787.14C1.56974 2789.24 1.5503 2790.96 1.49835 2791.34C1.4501 2791.69 1.41067 2792.96 1.41067 2794.16C1.41067 2795.36 1.35754 2796.86 1.2926 2797.5C1.22767 2798.14 1.17454 2799.68 1.17454 2800.93C1.17454 2802.17 1.12141 2803.43 1.05648 2803.72C0.895522 2804.46 0.903551 2810.05 1.06781 2811.68C1.18289 2812.81 1.19099 2812.72 1.14125 2810.85C1.09316 2809.05 1.11378 2808.75 1.28733 2808.75C1.39847 2808.75 1.48937 2809.1 1.48937 2809.52C1.48937 2809.94 1.40083 2811.2 1.2926 2812.32C1.18438 2813.45 1.09583 2814.03 1.09583 2813.63C1.09583 2812.46 0.638618 2809.58 0.592967 2810.46C0.570142 2810.9 0.611936 2812.27 0.685922 2813.52C0.759828 2814.76 0.822558 2817.39 0.825313 2819.37C0.828068 2821.35 0.878915 2823.31 0.93889 2823.75C1.02893 2824.42 1.01571 2825.69 0.861597 2831.18C0.759355 2834.83 0.646804 2837.81 0.611464 2837.81C0.576124 2837.81 0.61477 2839.85 0.697334 2842.35C0.822795 2846.14 0.836646 2847.93 0.781629 2853.22C0.736529 2857.56 0.66396 2860.21 0.551565 2861.63C0.461287 2862.78 0.387459 2864.35 0.387459 2865.13C0.387459 2865.91 0.476005 2867.54 0.584229 2868.75C0.786745 2871.02 0.841053 2873.82 0.702291 2874.84C0.659001 2875.16 0.623583 2876.9 0.623583 2878.71C0.623582 2880.51 0.532676 2884.28 0.42154 2887.08C0.205879 2892.51 0.1899 2897.34 0.387458 2897.35C0.465851 2897.36 0.505598 2898.3 0.505834 2900.16C0.505992 2901.71 0.5359 2903.52 0.572263 2904.19C0.639637 2905.44 0.685681 2911.25 0.732354 2924.38C0.756202 2931.09 0.737707 2932.18 0.51882 2937.03C0.386984 2939.95 0.215007 2942.89 0.136535 2943.57C-0.051341 2945.18 -0.0446518 2947.7 0.151331 2949.16C0.23791 2949.8 0.308747 2951.17 0.308747 2952.21C0.308747 2953.24 0.352981 2954.98 0.407132 2956.07C0.48584 2957.66 0.48584 2958.14 0.407132 2958.48C0.269235 2959.08 0.284584 2963.06 0.435388 2965.81C0.55345 2967.95 0.55109 2968.37 0.399812 2972.01C0.283561 2974.81 0.258845 2976.39 0.312524 2977.58C0.360457 2978.65 0.359198 2980.14 0.30914 2981.71C0.266008 2983.06 0.231218 2985.51 0.231769 2987.16C0.23232 2988.81 0.2335 2991.78 0.234366 2993.77C0.23531 2995.75 0.194932 2997.97 0.144716 2998.69C0.0664805 2999.81 1.77909 3000 12.0266 3000L23.9999 3000L23.9999 1500L24 0L16.6211 0.0140622ZM21.7108 1145.72C21.5773 1147.73 21.4179 1149.37 21.3566 1149.37C21.2953 1149.37 21.2452 1149.04 21.2452 1148.63C21.2452 1147.31 21.8452 1139.96 21.9001 1140.61C21.9295 1140.96 21.9535 1141.44 21.9535 1141.66C21.9535 1141.89 21.8443 1143.72 21.7108 1145.72ZM20.9697 1160.62C20.9048 1160.62 20.8516 1160.27 20.8516 1159.84C20.8516 1159.41 20.9048 1159.06 20.9697 1159.06C21.0346 1159.06 21.0878 1159.41 21.0878 1159.84C21.0878 1160.27 21.0346 1160.62 20.9697 1160.62ZM20.6417 1089.06C20.6129 1088.72 20.6365 1088.44 20.6942 1088.44C20.7519 1088.44 20.7755 1088.72 20.7467 1089.06C20.7178 1089.41 20.6706 1089.41 20.6417 1089.06ZM20.4056 1062.81C20.3768 1062.47 20.4004 1062.19 20.4581 1062.19C20.5158 1062.19 20.5394 1062.47 20.5106 1062.81C20.4817 1063.16 20.4345 1063.16 20.4056 1062.81ZM20.1558 1064.11C19.9766 1066.75 19.8669 1065.16 20.0329 1062.34C20.154 1060.28 20.3007 1059.63 20.3007 1061.15C20.3007 1061.6 20.2355 1062.94 20.1558 1064.11ZM20.2023 1070.41C20.1481 1070.93 20.0331 1071.53 19.9465 1071.73C19.8559 1071.94 19.7979 1072.73 19.8098 1073.58C19.8212 1074.4 19.7769 1075.59 19.7114 1076.24C19.6093 1077.25 19.5923 1076.99 19.5923 1074.45C19.5923 1071.01 19.8909 1066.87 20.1397 1066.87C20.3184 1066.87 20.3548 1068.93 20.2023 1070.41ZM20.0121 1042.19C19.9832 1041.84 19.9832 1041.28 20.0121 1040.94C20.0409 1040.59 20.0646 1040.88 20.0646 1041.56C20.0646 1042.25 20.0409 1042.53 20.0121 1042.19ZM19.9386 1048.37C19.8236 1048.01 19.8401 1044.37 19.9567 1044.37C20.0231 1044.37 20.0533 1045.17 20.0365 1046.48C20.0217 1047.64 19.9777 1048.49 19.9386 1048.37ZM19.671 1032.66C19.6277 1032.34 19.5923 1031.68 19.5923 1031.19C19.5923 1030.71 19.6277 1030.31 19.671 1030.31C19.7143 1030.31 19.7497 1030.97 19.7497 1031.77C19.7497 1032.58 19.7143 1032.97 19.671 1032.66ZM19.6185 1067.5C19.5897 1067.16 19.5897 1066.59 19.6185 1066.25C19.6474 1065.91 19.671 1066.19 19.671 1066.87C19.671 1067.56 19.6474 1067.84 19.6185 1067.5ZM19.5923 1202.81C19.549 1202.81 19.5136 1202.39 19.5136 1201.87C19.5136 1201.36 19.549 1200.94 19.5923 1200.94C19.6356 1200.94 19.671 1201.36 19.671 1201.87C19.671 1202.39 19.6356 1202.81 19.5923 1202.81ZM19.4349 1205.62C19.3916 1205.62 19.3562 1205.2 19.3562 1204.69C19.3562 1204.17 19.3916 1203.75 19.4349 1203.75C19.4782 1203.75 19.5136 1204.17 19.5136 1204.69C19.5136 1205.2 19.4782 1205.62 19.4349 1205.62ZM18.8052 994.219C18.7619 994.537 18.7265 994.351 18.7265 993.805C18.7265 993.26 18.7619 992.812 18.8052 992.812C18.8485 992.812 18.8839 992.998 18.8839 993.226C18.8839 993.454 18.8485 993.9 18.8052 994.219ZM18.7117 1209.08C18.649 1208.78 18.6676 1208.56 18.7593 1208.51C18.8423 1208.47 18.8887 1208.69 18.8626 1209C18.8365 1209.32 18.7685 1209.35 18.7117 1209.08ZM18.5691 1222.97C18.5258 1223.29 18.4904 1223.73 18.4904 1223.96C18.4904 1224.19 18.5258 1224.37 18.5691 1224.37C18.6124 1224.37 18.6478 1223.93 18.6478 1223.38C18.6478 1222.84 18.6124 1222.65 18.5691 1222.97ZM18.1969 992.441C18.1168 991.489 18.2373 990.702 18.3435 991.484C18.4238 992.075 18.4238 992.296 18.3438 992.613C18.2891 992.83 18.223 992.753 18.1969 992.441ZM16.606 1300.31C16.5653 1300.31 16.5101 1299.89 16.4833 1299.37C16.4566 1298.86 16.4899 1298.44 16.5574 1298.44C16.6248 1298.44 16.6801 1298.86 16.6801 1299.37C16.6801 1299.89 16.6468 1300.31 16.606 1300.31ZM16.5667 1464.37C16.5043 1464.37 16.4295 1463.92 16.4004 1463.36C16.3316 1462.03 16.4834 1460.22 16.5945 1461.04C16.7194 1461.96 16.6992 1464.37 16.5667 1464.37ZM16.6276 1484.69C16.5988 1484.34 16.5988 1483.78 16.6276 1483.44C16.6565 1483.09 16.6801 1483.38 16.6801 1484.06C16.6801 1484.75 16.6565 1485.03 16.6276 1484.69ZM16.2528 1529.59C16.2 1527.55 16.1152 1525.73 16.0643 1525.52C16.0133 1525.32 15.9717 1525.63 15.9717 1526.21C15.9717 1527.48 16.2741 1534.69 16.3275 1534.69C16.3773 1534.69 16.367 1533.99 16.2528 1529.59ZM15.5257 565C15.4969 564.656 15.5205 564.375 15.5782 564.375C15.6359 564.375 15.6595 564.656 15.6307 565C15.6018 565.343 15.5546 565.343 15.5257 565ZM15.5782 664.687C15.5349 664.687 15.4995 664.502 15.4995 664.274C15.4995 664.046 15.5349 663.6 15.5782 663.281C15.6215 662.962 15.6569 663.149 15.6569 663.695C15.6569 664.24 15.6215 664.687 15.5782 664.687ZM15.4543 666.779C15.2345 666.278 15.0648 662.581 15.1646 660.468C15.2137 659.428 15.2514 659.451 15.3814 660.6C15.53 661.913 15.5311 662.059 15.4011 663.208C15.2599 664.456 15.217 665.712 15.3224 665.514C15.4788 665.22 15.6569 665.709 15.6569 666.432C15.6569 666.877 15.5657 667.032 15.4543 666.779ZM14.9485 667.5C14.9053 667.5 14.8698 667.078 14.8698 666.562C14.8698 666.047 14.9053 665.625 14.9485 665.625C14.9918 665.625 15.0273 666.047 15.0273 666.562C15.0273 667.078 14.9918 667.5 14.9485 667.5ZM14.6599 872.5C14.6311 872.156 14.6311 871.594 14.6599 871.25C14.6888 870.907 14.7124 871.188 14.7124 871.875C14.7124 872.562 14.6888 872.843 14.6599 872.5ZM14.3976 782.812C14.3543 782.812 14.3189 782.391 14.3189 781.875C14.3189 781.359 14.3543 780.937 14.3976 780.937C14.4409 780.937 14.4763 781.359 14.4763 781.875C14.4763 782.391 14.4409 782.812 14.3976 782.812ZM14.2795 668.098C14.2146 668.395 14.1615 668.804 14.1615 669.007C14.1615 669.209 14.2146 669.375 14.2795 669.375C14.3445 669.375 14.3976 668.966 14.3976 668.467C14.3976 667.968 14.3445 667.802 14.2795 668.098ZM14.1614 1596.56C14.1181 1596.56 14.0827 1596.38 14.0827 1596.15C14.0827 1595.92 14.1181 1595.47 14.1614 1595.16C14.2047 1594.84 14.2401 1595.02 14.2401 1595.57C14.2401 1596.12 14.2047 1596.56 14.1614 1596.56ZM14.109 824.688C14.0802 824.344 14.0802 823.781 14.109 823.437C14.1378 823.094 14.1615 823.375 14.1615 824.062C14.1615 824.75 14.1378 825.031 14.109 824.688ZM14.1089 1602.81C14.0801 1602.47 14.0801 1601.91 14.1089 1601.56C14.1378 1601.22 14.1614 1601.5 14.1614 1602.19C14.1614 1602.87 14.1378 1603.16 14.1089 1602.81ZM13.7679 626.25C13.7246 626.25 13.6892 625.592 13.6892 624.788C13.6892 623.985 13.7246 623.587 13.7679 623.906C13.8112 624.225 13.8466 624.882 13.8466 625.368C13.8466 625.853 13.8112 626.25 13.7679 626.25ZM13.3041 365.625C13.2655 365.625 13.2134 364.992 13.1885 364.219C13.1424 362.79 13.2263 362.299 13.3219 363.438C13.3971 364.333 13.3866 365.625 13.3041 365.625ZM13.153 340.098C13.0955 340.327 13.0779 339.897 13.1073 338.985C13.1336 338.168 13.1897 337.5 13.2319 337.5C13.3354 337.5 13.2707 339.631 13.153 340.098ZM12.7328 340.388C12.5866 341.32 12.5705 341.251 12.6147 339.877C12.643 339.001 12.666 338.107 12.666 337.892C12.666 337.676 12.7192 337.5 12.7841 337.5C12.9572 337.5 12.928 339.144 12.7328 340.388ZM12.7709 1658.13C12.7421 1657.78 12.7657 1657.5 12.8234 1657.5C12.8811 1657.5 12.9047 1657.78 12.8759 1658.13C12.847 1658.47 12.7998 1658.47 12.7709 1658.13ZM12.0016 401.25C11.9825 401.25 11.9417 400.763 11.9108 400.167C11.876 399.497 11.8892 399.339 11.9455 399.755C12.0362 400.422 12.0673 401.25 12.0016 401.25ZM11.7356 475.792C11.673 475.048 11.815 473.436 11.8928 474.008C11.9457 474.398 11.9376 474.88 11.87 475.379C11.8124 475.802 11.752 475.988 11.7356 475.792ZM11.1706 79.2187C11.1273 79.5375 11.0919 79.14 11.0919 78.3366C11.0919 77.5331 11.1273 76.875 11.1706 76.875C11.2139 76.875 11.2493 77.2716 11.2493 77.7572C11.2493 78.2428 11.2139 78.9 11.1706 79.2187ZM10.8033 87.4997C10.7744 87.8437 10.7744 88.4062 10.8033 88.7503C10.8321 89.0934 10.8558 88.8122 10.8558 88.125C10.8558 87.4378 10.8321 87.1566 10.8033 87.4997ZM10.6983 131.719C10.655 131.4 10.6196 130.743 10.6196 130.257C10.6196 129.772 10.655 129.375 10.6983 129.375C10.7416 129.375 10.777 130.033 10.777 130.837C10.777 131.64 10.7416 132.037 10.6983 131.719ZM10.5671 86.5622C10.5383 86.9062 10.5383 87.4687 10.5671 87.8128C10.596 88.1559 10.6196 87.8747 10.6196 87.1875C10.6196 86.5003 10.596 86.2191 10.5671 86.5622ZM10.5409 150C10.4976 150 10.4622 149.814 10.4622 149.587C10.4622 149.359 10.4976 148.912 10.5409 148.594C10.5842 148.275 10.6196 148.462 10.6196 149.007C10.6196 149.553 10.5842 150 10.5409 150ZM10.5409 185.156C10.4976 185.475 10.4622 185.053 10.4622 184.219C10.4622 183.384 10.4976 182.962 10.5409 183.281C10.5842 183.6 10.6196 184.022 10.6196 184.219C10.6196 184.416 10.5842 184.837 10.5409 185.156ZM10.4934 160.996C10.4672 160.685 10.4644 159.876 10.4872 159.2C10.5123 158.452 10.5309 158.674 10.5347 159.766C10.5381 160.754 10.5195 161.307 10.4934 160.996ZM10.2901 56.4647C10.1724 56.9316 10.1076 59.0625 10.2111 59.0625C10.2534 59.0625 10.3094 58.3941 10.3358 57.5775C10.3652 56.6653 10.3476 56.2359 10.2901 56.4647ZM10.2356 51.1641C10.1962 50.8734 10.1436 51.2662 10.1187 52.0369C10.0939 52.8075 10.1058 53.4375 10.1452 53.4375C10.2519 53.4375 10.3182 51.7716 10.2356 51.1641ZM10.0949 157.188C10.0661 156.844 10.0897 156.562 10.1474 156.562C10.2051 156.562 10.2287 156.844 10.1999 157.188C10.171 157.531 10.1238 157.531 10.0949 157.188ZM10.0949 187.188C10.0661 186.844 10.0897 186.562 10.1474 186.562C10.2051 186.562 10.2287 186.844 10.1999 187.188C10.171 187.531 10.1238 187.531 10.0949 187.188ZM9.46522 9.06281C9.43641 8.71875 9.43641 8.15625 9.46522 7.81219C9.4941 7.46906 9.51772 7.75031 9.51772 8.4375C9.51772 9.12469 9.4941 9.40594 9.46522 9.06281ZM9.36029 187.031C9.317 187.35 9.28159 187.163 9.28159 186.618C9.28159 186.072 9.317 185.625 9.36029 185.625C9.40358 185.625 9.439 185.811 9.439 186.038C9.439 186.266 9.40358 186.712 9.36029 187.031ZM8.20581 1855.94C8.177 1855.59 8.177 1855.03 8.20581 1854.69C8.2347 1854.34 8.25831 1854.63 8.25831 1855.31C8.25831 1856 8.2347 1856.28 8.20581 1855.94ZM7.89098 1857.81C7.86217 1857.47 7.86217 1856.91 7.89098 1856.56C7.91986 1856.22 7.94348 1856.5 7.94348 1857.19C7.94348 1857.87 7.91986 1858.16 7.89098 1857.81ZM7.67304 1853.39C7.58913 1854.22 7.51814 1854.24 7.39756 1853.47C7.30822 1852.9 7.2351 1852.25 7.2351 1852.02C7.2351 1851.02 7.62959 1848.65 7.70389 1849.19C7.82053 1850.05 7.80566 1852.08 7.67304 1853.39ZM7.53514 1886.04C7.38921 1885.46 7.36505 1883.44 7.50405 1883.44C7.57252 1883.44 7.62864 1884.11 7.62864 1884.92C7.62864 1885.74 7.58661 1886.24 7.53514 1886.04ZM7.3974 1861.7C7.33837 1861.93 7.30885 1861.58 7.32853 1860.88C7.3475 1860.2 7.40952 1859.46 7.46627 1859.24C7.5253 1859 7.55482 1859.36 7.53514 1860.06C7.51625 1860.73 7.45423 1861.47 7.3974 1861.7ZM7.39252 1864.69C7.34923 1864.69 7.31381 1864.5 7.31381 1864.27C7.31381 1864.05 7.34923 1863.6 7.39252 1863.28C7.43581 1862.96 7.47123 1863.15 7.47123 1863.69C7.47123 1864.24 7.43581 1864.69 7.39252 1864.69ZM7.2118 1889.16C7.11074 1887.96 7.18882 1886.74 7.30987 1887.63C7.35671 1887.97 7.37276 1888.68 7.34553 1889.21C7.31231 1889.85 7.26832 1889.83 7.2118 1889.16ZM7.19827 1870.84C7.13467 1871.84 7.08154 1872.21 7.08021 1871.66C7.07879 1871.12 7.12971 1869.85 7.19323 1868.85C7.25683 1867.85 7.30995 1867.48 7.31129 1868.02C7.31271 1868.57 7.26178 1869.84 7.19827 1870.84ZM2.93234 2624.69C2.90353 2624.34 2.90353 2623.78 2.93234 2623.44C2.96122 2623.09 2.98484 2623.38 2.98484 2624.06C2.98484 2624.75 2.96122 2625.03 2.93234 2624.69ZM2.77494 2232.81C2.74613 2232.47 2.74613 2231.91 2.77494 2231.56C2.80382 2231.22 2.82744 2231.5 2.82744 2232.19C2.82744 2232.87 2.80382 2233.16 2.77494 2232.81ZM2.6383 2334.89C2.54503 2336 2.52141 2336 2.48631 2334.91C2.43767 2333.4 2.49646 2332.5 2.64381 2332.5C2.77847 2332.5 2.77674 2333.24 2.6383 2334.89ZM2.35519 2106.56C2.3119 2106.56 2.27649 2106.14 2.27649 2105.62C2.27649 2105.11 2.3119 2104.69 2.35519 2104.69C2.39848 2104.69 2.4339 2105.11 2.4339 2105.62C2.4339 2106.14 2.39848 2106.56 2.35519 2106.56ZM1.75173 2215C1.72293 2214.66 1.72293 2214.09 1.75173 2213.75C1.78062 2213.41 1.80423 2213.69 1.80423 2214.37C1.80423 2215.06 1.78062 2215.34 1.75173 2215ZM1.67303 2144.69C1.64422 2144.34 1.64422 2143.78 1.67303 2143.44C1.70192 2143.09 1.72553 2143.38 1.72553 2144.06C1.72553 2144.75 1.70192 2145.03 1.67303 2144.69ZM1.4894 2104.69C1.44612 2104.69 1.4107 2104.27 1.4107 2103.75C1.4107 2103.23 1.44612 2102.81 1.48941 2102.81C1.53269 2102.81 1.56811 2103.23 1.56811 2103.75C1.56811 2104.27 1.53269 2104.69 1.4894 2104.69ZM1.4894 2151.56C1.44611 2151.56 1.41069 2150.93 1.41069 2150.16C1.41069 2149.38 1.44611 2148.75 1.4894 2148.75C1.53269 2148.75 1.56811 2149.38 1.56811 2150.16C1.56811 2150.93 1.53269 2151.56 1.4894 2151.56ZM1.35166 2147.58C1.29397 2147.81 1.25328 2147.16 1.25328 2146.02C1.25328 2144.86 1.30412 2144.06 1.37709 2144.06C1.52175 2144.06 1.50058 2146.99 1.35166 2147.58ZM1.01715 2169.84C0.973864 2170.16 0.938446 2170.21 0.938446 2169.95C0.938446 2169.7 0.973864 2169.22 1.01715 2168.91C1.06044 2168.59 1.09586 2168.54 1.09586 2168.8C1.09586 2169.05 1.06044 2169.52 1.01715 2169.84Z" clip-rule="evenodd"/></svg>