<svg xmlns="http://www.w3.org/2000/svg" width="24" height="3000" fill="none" viewBox="0 0 24 3000"><path fill="#000" fill-rule="evenodd" d="M7.37888 2999.99C11.7094 2999.98 14.7121 2999.63 14.6473 2999.14C14.5548 2998.44 14.5522 2997.18 14.631 2991.36C14.6827 2987.54 14.7088 2983.81 14.6889 2983.07C14.6691 2982.33 14.6311 2980.54 14.6046 2979.1C14.5781 2977.66 14.5249 2976.72 14.4865 2977C14.448 2977.28 14.4266 2976.01 14.4388 2974.17C14.4532 2972.01 14.4301 2970.98 14.373 2971.24C14.2583 2971.76 14.2084 2962.89 14.3213 2962.06C14.3666 2961.72 14.4036 2961 14.4036 2960.46C14.4036 2959.82 14.3683 2959.77 14.3052 2960.33C14.2511 2960.82 14.139 2961.18 14.0562 2961.15C13.8799 2961.08 13.7833 2958.75 13.9567 2958.75C14.0363 2958.75 14.0604 2958.13 14.0317 2956.82C14.0066 2955.68 13.9456 2955.09 13.8817 2955.39C13.8123 2955.7 13.7739 2955.2 13.7739 2953.98C13.7739 2952.93 13.7385 2952.34 13.6952 2952.66C13.6519 2952.98 13.6165 2952.4 13.6165 2951.38C13.6165 2950.37 13.5722 2949.32 13.5181 2949.06C13.4394 2948.68 13.4394 2948.57 13.5181 2948.51C13.664 2948.4 13.6375 2946.56 13.49 2946.56C13.4149 2946.56 13.3804 2946.04 13.4052 2945.27C13.4281 2944.56 13.4059 2943.49 13.3559 2942.9C13.2872 2942.08 13.3079 2941.68 13.4407 2941.27C13.6374 2940.65 13.6803 2939.06 13.5002 2939.06C13.4363 2939.06 13.3306 2938.09 13.2652 2936.9C13.1817 2935.39 13.1652 2933.92 13.2095 2931.98C13.2949 2928.24 13.2493 2923.42 13.1054 2920.97C12.9486 2918.31 12.9553 2916.56 13.1224 2916.56C13.2338 2916.56 13.2268 2916.3 13.0831 2915.1C12.8823 2913.43 12.853 2909.84 13.0262 2908.13C13.0911 2907.48 13.1442 2906.17 13.1442 2905.2C13.1442 2903.32 13.0278 2902.83 12.9475 2904.38C12.8751 2905.77 12.7769 2905.51 12.7769 2903.92C12.7769 2903.15 12.8372 2902.3 12.9109 2902.02C12.9846 2901.74 13.1015 2900.77 13.1709 2899.86C13.2892 2898.3 13.2815 2898.21 13.0435 2898.49C12.7232 2898.86 12.3889 2895.82 12.4792 2893.36C12.5125 2892.46 12.5337 2891.39 12.5265 2890.99C12.5193 2890.6 12.6023 2889.87 12.7108 2889.38C12.8485 2888.75 12.9081 2887.78 12.9081 2886.15C12.9081 2884.86 13.0223 2882.26 13.1639 2880.32C13.3473 2877.82 13.3776 2877.02 13.2709 2877.5C13.1463 2878.06 13.1377 2877.94 13.2184 2876.78C13.3566 2874.8 13.5413 2867.01 13.4637 2866.44C13.3558 2865.65 13.5827 2859.22 13.7835 2857.38C13.8865 2856.44 13.9265 2855.66 13.8723 2855.65C13.7293 2855.62 13.7518 2854.05 13.9054 2853.35C13.9777 2853.02 14.0605 2853.21 14.0894 2853.76C14.1685 2855.29 14.3381 2852.44 14.2784 2850.59C14.2514 2849.75 14.2656 2849.06 14.3099 2849.06C14.3542 2849.06 14.4036 2849.53 14.4196 2850.1C14.4378 2850.75 14.488 2850.58 14.5538 2849.63C14.6345 2848.48 14.6362 2848.13 14.561 2848.13C14.485 2848.13 14.4861 2847.79 14.566 2846.65C14.6442 2845.52 14.6466 2845.01 14.5756 2844.48C14.5057 2843.97 14.5113 2843.34 14.5978 2841.98C14.7464 2839.64 14.7485 2838.67 14.6033 2839.33C14.5401 2839.62 14.4669 2840.67 14.4407 2841.65C14.369 2844.34 14.2538 2843.8 14.2707 2840.86C14.2831 2838.7 14.2566 2838.32 14.1084 2838.5C13.905 2838.76 13.8695 2837.36 14.0577 2836.5C14.1457 2836.1 14.1699 2835.24 14.1372 2833.69C14.1085 2832.33 14.1328 2831.04 14.1998 2830.38C14.2601 2829.79 14.3553 2827.44 14.4115 2825.18C14.4677 2822.91 14.5416 2821.26 14.5758 2821.52C14.61 2821.77 14.6168 2821.32 14.5911 2820.52C14.5652 2819.72 14.5753 2819.06 14.6134 2819.06C14.6514 2819.06 14.7514 2817.54 14.8355 2815.68C14.987 2812.33 14.987 2812.29 14.8341 2810.96C14.7016 2809.8 14.6965 2809.49 14.7975 2808.73C14.8662 2808.21 14.8765 2807.84 14.8225 2807.83C14.7715 2807.82 14.6349 2809.18 14.519 2810.86C14.3873 2812.76 14.3294 2813.2 14.3648 2812.03C14.3959 2811 14.441 2809.34 14.4649 2808.34C14.5051 2806.66 14.4898 2806.68 14.2545 2808.68C14.0091 2810.76 13.9971 2810.77 13.8905 2809.09C13.8299 2808.13 13.798 2806.64 13.8196 2805.78C13.8413 2804.92 13.8235 2803.96 13.7801 2803.64C13.7283 2803.26 13.7324 2802.24 13.7922 2800.68C13.8617 2798.86 13.8609 2797.87 13.7886 2796.49C13.7365 2795.5 13.7235 2794.69 13.7596 2794.69C13.7958 2794.69 13.8099 2793.43 13.791 2791.9C13.7635 2789.66 13.8049 2788.63 14.0015 2786.66C14.1361 2785.31 14.2462 2783.35 14.2462 2782.29C14.2462 2779.71 13.9706 2774.56 13.7136 2772.33C13.5253 2770.7 13.5159 2770.35 13.6195 2768.84C13.7238 2767.33 13.7196 2767.22 13.5748 2767.66C13.4869 2767.93 13.3705 2767.59 13.3159 2766.89C13.2614 2766.19 13.2498 2765.63 13.2902 2765.63C13.3305 2765.63 13.3846 2764.97 13.4104 2764.17C13.4408 2763.23 13.4256 2762.95 13.3671 2763.38C13.2753 2764.05 13.295 2762.43 13.4241 2758.67C13.4677 2757.41 13.4586 2757.08 13.3938 2757.56C13.3431 2757.93 13.2609 2757.94 13.2111 2757.57C13.1473 2757.1 13.1598 2756.56 13.2527 2755.75C13.3686 2754.74 13.3701 2754.53 13.2646 2754.05C13.0962 2753.28 13.1147 2751.8 13.3017 2751.09C13.4802 2750.42 13.5173 2747.81 13.3484 2747.81C13.2777 2747.81 13.2521 2747.16 13.2775 2746C13.3096 2744.54 13.2855 2744.29 13.152 2744.7C13.057 2745 12.9868 2744.77 12.9868 2744.17C12.9868 2743.12 13.0834 2742.78 13.3017 2743.05C13.3993 2743.18 13.401 2743.05 13.3113 2742.33C13.2516 2741.85 13.2249 2741.03 13.2519 2740.51C13.279 2739.99 13.2133 2738.57 13.106 2737.36C12.8851 2734.87 12.8657 2733.6 13.0065 2730.9C13.0869 2729.35 13.0845 2728.85 12.994 2728.18C12.933 2727.73 12.8297 2727.6 12.7646 2727.9C12.6875 2728.25 12.666 2728.06 12.7031 2727.35C12.7344 2726.74 12.873 2726.22 13.0112 2726.19L13.2623 2726.12L13.0655 2725.02C12.7459 2723.22 12.5933 2721.28 12.5933 2719.03C12.5933 2717.57 12.534 2716.73 12.404 2716.35C12.2627 2715.92 12.2012 2714.92 12.1612 2712.38C12.1317 2710.5 12.0367 2708.38 11.9501 2707.66C11.8479 2706.8 11.8072 2705.68 11.8342 2704.46C11.8569 2703.42 11.8242 2701.96 11.7614 2701.21C11.6987 2700.46 11.666 2699.49 11.6887 2699.05C11.7115 2698.61 11.6923 2697.98 11.6463 2697.64C11.5872 2697.2 11.5871 2696.67 11.646 2695.82C11.7063 2694.96 11.6967 2694.3 11.6112 2693.45C11.5361 2692.71 11.5101 2691.47 11.54 2690.05C11.5686 2688.69 11.5526 2687.81 11.4993 2687.81C11.435 2687.81 11.4353 2687.36 11.5004 2686.11C11.569 2684.81 11.5618 2683.78 11.4691 2681.64C11.403 2680.12 11.3666 2677.77 11.3881 2676.42C11.4098 2675.07 11.3888 2673.68 11.3414 2673.34C11.2386 2672.58 11.2276 2667.82 11.3234 2665.53C11.3609 2664.64 11.4283 2662.55 11.4731 2660.89C11.5329 2658.67 11.5305 2657.93 11.4639 2658.08C11.4141 2658.19 11.3733 2657.34 11.3733 2656.19C11.3733 2653.64 11.2418 2653.28 11.1694 2655.63C11.1298 2656.92 11.1019 2656.44 11.0576 2653.73C11.014 2651.07 11.0272 2649.88 11.1071 2649.26C11.167 2648.79 11.2779 2648.59 11.3536 2648.81C11.5116 2649.26 11.5296 2648.99 11.5998 2645.16C11.6457 2642.65 11.6396 2642.52 11.5429 2643.98C11.4834 2644.89 11.3755 2645.63 11.3031 2645.63C11.1156 2645.63 11.0601 2643.13 11.2083 2641.36C11.3632 2639.52 11.3701 2638.13 11.2243 2638.13C11.0476 2638.13 11.009 2635.48 11.1766 2634.84C11.2587 2634.53 11.3478 2633.46 11.3746 2632.45C11.4014 2631.45 11.4829 2630.62 11.5557 2630.61C11.657 2630.6 11.6638 2630.41 11.5845 2629.81C11.5091 2629.24 11.5468 2628.7 11.7222 2627.84C11.855 2627.18 11.9636 2626.25 11.9636 2625.76C11.9636 2625.28 11.8554 2623.79 11.7232 2622.47C11.5869 2621.1 11.5016 2619.5 11.5264 2618.78C11.5504 2618.08 11.5916 2616.87 11.6179 2616.09C11.6486 2615.19 11.6204 2614.69 11.5392 2614.69C11.3986 2614.69 11.3692 2613.24 11.4914 2612.34C11.5347 2612.03 11.5701 2610.62 11.5701 2609.23C11.5701 2607.16 11.6475 2606.14 11.9853 2603.73C12.3111 2601.41 12.4044 2600.21 12.4186 2598.18C12.4285 2596.75 12.5029 2594.71 12.5839 2593.65C12.6648 2592.59 12.7754 2590.7 12.8296 2589.45C12.9142 2587.5 12.9079 2587 12.785 2585.93C12.7063 2585.25 12.5918 2584.69 12.5305 2584.69C12.4575 2584.69 12.4369 2584.13 12.471 2583.08C12.4996 2582.19 12.498 2581.76 12.4675 2582.12C12.3909 2583.03 12.2054 2579.93 12.2023 2577.69C12.2009 2576.68 12.0359 2574.06 11.8355 2571.87C11.5597 2568.86 11.4818 2567.41 11.5146 2565.92C11.5415 2564.7 11.5153 2563.75 11.4459 2563.44C11.3844 2563.15 11.334 2562.34 11.334 2561.62C11.334 2560.9 11.2986 2560.31 11.2553 2560.31C11.1315 2560.31 11.1634 2557.5 11.2941 2556.9C11.37 2556.56 11.3962 2555.64 11.368 2554.3C11.3441 2553.16 11.3167 2551.63 11.3073 2550.88C11.2979 2550.14 11.2624 2549 11.2283 2548.35C11.1874 2547.57 11.3312 2545.25 11.6493 2541.56C11.9149 2538.47 12.0725 2536.22 11.9995 2536.55C11.8849 2537.08 11.8791 2536.88 11.9573 2535.14C12.0071 2534.03 12.0859 2533.13 12.1322 2533.13C12.1787 2533.13 12.1957 2532.48 12.1702 2531.68C12.1446 2530.89 12.1724 2530.02 12.2318 2529.75C12.2912 2529.48 12.3406 2528.33 12.3414 2527.2C12.3423 2526.08 12.3551 2524.34 12.3698 2523.35C12.3872 2522.17 12.3414 2521.35 12.2391 2521C12.1525 2520.71 12.0788 2519.73 12.0752 2518.83C12.0548 2513.74 12.0279 2512.87 11.8653 2512.02C11.7265 2511.29 11.6864 2510.28 11.6801 2507.34C11.6687 2501.99 11.5822 2499.51 11.4239 2500.01C11.3491 2500.24 11.2085 2499.37 11.1021 2498.02C10.9981 2496.7 10.9546 2495.63 11.0055 2495.63C11.0563 2495.63 11.0979 2494.99 11.0979 2494.22C11.0979 2493.45 11.0447 2492.81 10.9798 2492.81C10.8078 2492.81 10.8353 2491.38 11.0388 2489.73C11.1814 2488.58 11.1967 2488.07 11.1175 2487.09C10.9784 2485.37 10.9955 2483.65 11.1569 2483.15C11.2844 2482.75 11.2846 2482.71 11.1593 2482.61C11.0731 2482.54 11.0405 2481.99 11.0694 2481.09C11.0976 2480.22 11.0688 2479.69 10.9929 2479.69C10.9259 2479.69 10.8487 2480.12 10.8216 2480.64C10.7649 2481.73 10.6256 2480.98 10.6256 2479.58C10.6256 2479.06 10.6606 2478.9 10.7032 2479.21C10.7503 2479.56 10.7691 2478.58 10.751 2476.72C10.7164 2473.19 10.7925 2470.33 10.9809 2468.09C11.1049 2466.61 11.0997 2466.3 10.8973 2463.14C10.7608 2461.01 10.6783 2458.52 10.6732 2456.37C10.6666 2453.65 10.6336 2452.96 10.5075 2452.91C10.421 2452.89 10.2528 2452.52 10.1337 2452.11C9.95935 2451.51 9.91724 2450.81 9.91724 2448.53C9.91724 2446.19 9.89796 2445.9 9.80508 2446.82C9.71346 2447.72 9.66789 2447.27 9.55557 2444.35C9.48002 2442.39 9.3799 2440.19 9.33315 2439.46C9.23476 2437.94 9.19887 2433.87 9.2084 2425.35C9.21296 2421.27 9.25523 2418.76 9.33779 2417.67C9.40524 2416.78 9.4357 2415.58 9.4054 2415C9.37305 2414.37 9.41847 2413.72 9.51575 2413.42C9.68253 2412.9 9.74841 2411.25 9.60241 2411.25C9.55912 2411.25 9.5237 2410.62 9.5237 2409.84C9.5237 2409.07 9.55581 2408.44 9.59501 2408.44C9.63429 2408.44 9.6531 2407.7 9.6368 2406.8C9.61713 2405.7 9.77092 2403.5 10.0968 2400.19C10.366 2397.46 10.6341 2394.88 10.6926 2394.45C10.7636 2393.94 10.806 2391.31 10.82 2386.56C10.8375 2380.63 10.8168 2379.18 10.6958 2377.88C10.6159 2377.02 10.5681 2375.98 10.5894 2375.56C10.6107 2375.15 10.5922 2374.55 10.5482 2374.23C10.5042 2373.9 10.4682 2372.5 10.4682 2371.11C10.4682 2369.56 10.4047 2368.1 10.3053 2367.36C10.198 2366.57 10.1471 2365.29 10.1562 2363.62C10.1638 2362.23 10.1611 2360.67 10.1501 2360.16C10.139 2359.64 10.1264 2358.42 10.122 2357.45C10.1176 2356.48 10.0433 2355.21 9.95691 2354.64C9.87057 2354.06 9.70717 2352.87 9.59383 2351.98C9.48057 2351.09 9.37361 2350.46 9.35606 2350.58C9.33858 2350.69 9.35149 2350.38 9.38463 2349.89C9.48655 2348.39 9.45224 2347.5 9.29222 2347.5C9.20816 2347.5 9.11757 2347.08 9.09081 2346.56C9.06247 2346.02 9.14095 2345.63 9.27829 2345.63C9.54739 2345.63 9.68285 2344.04 9.45271 2343.58C9.31316 2343.31 9.30899 2343.01 9.40155 2340C9.45704 2338.2 9.5289 2335.98 9.56117 2335.07C9.60706 2333.78 9.591 2333.55 9.48844 2334.02C9.39667 2334.44 9.34386 2334.02 9.31371 2332.65C9.29002 2331.57 9.20856 2330.45 9.13276 2330.17C8.96574 2329.53 8.73662 2330.47 8.73662 2331.78C8.73662 2332.33 8.68664 2332.24 8.61856 2331.56C8.48515 2330.24 8.45965 2327.81 8.57921 2327.81C8.6225 2327.81 8.65791 2327.19 8.65791 2326.44C8.65792 2325.56 8.70364 2325.27 8.78377 2325.63C8.89191 2326.13 8.89569 2325.94 8.81053 2324.32C8.72647 2322.72 8.73725 2322 8.88145 2319.59C9.08255 2316.22 9.09892 2313.91 8.92733 2313.12C8.77732 2312.44 8.62273 2308.04 8.72143 2307.27C8.75976 2306.96 8.81494 2305.56 8.84406 2304.14C8.88404 2302.19 8.86815 2301.56 8.77897 2301.56C8.64824 2301.56 8.53379 2297.57 8.61793 2295.95C8.64737 2295.38 8.61573 2293.9 8.54749 2292.66C8.4639 2291.14 8.45092 2290.21 8.50774 2289.79C8.5541 2289.45 8.5722 2288.23 8.54796 2287.08C8.51963 2285.74 8.55906 2284.29 8.65886 2283.02C8.74402 2281.93 8.78637 2280.83 8.75284 2280.59C8.69483 2280.16 8.70176 2263.36 8.76205 2258.44C8.77787 2257.15 8.79629 2255.63 8.80306 2255.06C8.80982 2254.49 8.89499 2252.94 8.99243 2251.62C9.57133 2243.76 9.61328 2242.89 9.5999 2238.98C9.58455 2234.51 9.59022 2233.18 9.63894 2229.84C9.71308 2224.77 9.83988 2221.88 9.98958 2221.86C10.0767 2221.85 10.0858 2221.63 10.0198 2221.13C9.96014 2220.68 9.9363 2218.7 9.95479 2215.73C9.97093 2213.16 9.9943 2210.64 10.0067 2210.13C10.0496 2208.41 9.83287 2205 9.68018 2205C9.59612 2205 9.46846 2203.93 9.39652 2202.62C9.27216 2200.36 9.27397 2200.14 9.43359 2198.11C9.52599 2196.94 9.64043 2193.9 9.68797 2191.35C9.78596 2186.1 9.85916 2177.67 9.7914 2179.45C9.73906 2180.83 9.52371 2181.04 9.52371 2179.72C9.52371 2178.77 9.74338 2177.09 9.8779 2177.01C9.97353 2176.96 10.0825 2171.25 9.98801 2171.25C9.95125 2171.25 9.94393 2169.89 9.9718 2168.24C10.0297 2164.79 10.2885 2161.35 10.5945 2159.96C10.7102 2159.44 10.7853 2158.78 10.7613 2158.49C10.7374 2158.21 10.6409 2158.46 10.5469 2159.06C10.4529 2159.66 10.362 2159.98 10.3447 2159.78C10.3276 2159.57 10.4595 2157.6 10.6378 2155.39C10.8676 2152.54 10.9338 2151.16 10.8648 2150.65C10.7887 2150.09 10.7933 2149.34 10.8854 2147.25C10.9926 2144.81 10.9903 2144.25 10.8595 2141.2C10.7301 2138.18 10.6865 2137.86 10.4344 2138.09C10.2234 2138.29 10.1534 2138 10.1534 2136.9C10.1534 2136.1 10.0825 2135.23 9.99596 2134.96C9.90553 2134.68 9.83854 2133.68 9.83854 2132.62C9.83854 2131.55 9.77156 2130.55 9.68113 2130.27C9.594 2130 9.52371 2128.99 9.52371 2128.02C9.52371 2127.05 9.48829 2126.25 9.445 2126.25C9.40172 2126.25 9.3663 2125.62 9.3663 2124.84C9.3663 2124.07 9.42053 2123.44 9.4868 2123.44C9.64854 2123.44 9.72103 2120.92 9.60667 2119.28C9.53631 2118.27 9.53717 2117.53 9.61053 2116.13C9.69057 2114.61 9.67743 2113.82 9.53095 2111.37C9.43446 2109.76 9.31876 2108.44 9.27366 2108.44C9.22588 2108.44 9.21219 2107.47 9.24068 2106.12C9.27901 2104.3 9.26382 2103.92 9.17047 2104.34C9.0835 2104.74 9.05147 2104.25 9.05147 2102.51C9.05147 2101.19 9.08476 2099.08 9.12537 2097.81C9.16599 2096.53 9.17268 2094.31 9.14017 2092.86C9.09657 2090.91 9.06862 2090.62 9.03328 2091.71C9.00692 2092.53 8.96079 2095.15 8.93065 2097.55C8.87083 2102.3 8.75576 2103.92 8.64549 2101.58C8.60448 2100.71 8.5183 2100.29 8.43943 2100.6C8.3416 2100.97 8.33192 2100.87 8.4048 2100.25C8.53837 2099.1 8.44164 2096.25 8.26926 2096.25C8.10429 2096.25 7.8629 2091.45 8.00024 2090.9C8.10177 2090.49 8.04794 2086.88 7.94034 2086.88C7.90217 2086.88 7.87085 2085.85 7.87085 2084.59C7.87085 2083.14 7.81402 2082.1 7.71343 2081.72C7.51257 2080.96 7.50902 2078.41 7.708 2077.79C7.79159 2077.53 7.84267 2076.78 7.8215 2076.12C7.8004 2075.47 7.83385 2074.7 7.89587 2074.41C7.95782 2074.13 8.00858 2072.8 8.00858 2071.46C8.00858 2069.37 7.99072 2069.19 7.88068 2070.18C7.81032 2070.81 7.68179 2072.24 7.59497 2073.35L7.43724 2075.38L7.42394 2071.28C7.41221 2067.67 7.43095 2067.18 7.58167 2067.11C7.67581 2067.07 7.70831 2066.83 7.65393 2066.57C7.58553 2066.24 7.6078 2065.58 7.7261 2064.44C7.96585 2062.13 7.8699 2059.69 7.53878 2059.68C7.33555 2059.67 7.2596 2059.14 7.18215 2057.15C7.128 2055.76 7.08377 2054.28 7.08377 2053.85C7.08377 2053.43 7.18121 2052.59 7.30021 2052L7.51666 2050.92L7.24118 2050.38C6.97759 2049.87 6.96366 2049.64 6.91785 2045.16C6.89156 2042.58 6.88479 2040.15 6.90282 2039.77C6.92084 2039.38 6.89353 2039.06 6.84198 2039.06C6.77862 2039.06 6.76303 2037.98 6.79381 2035.73C6.84662 2031.85 6.79483 2029.69 6.64898 2029.69C6.59231 2029.69 6.52809 2029.16 6.50621 2028.52C6.48441 2027.87 6.46371 2028.53 6.46032 2029.98C6.45639 2031.64 6.42215 2032.38 6.36784 2031.98C6.32038 2031.63 6.29653 2030.12 6.31487 2028.64C6.33313 2027.15 6.31888 2025.94 6.28307 2025.94C6.24726 2025.94 6.21798 2025.25 6.21798 2024.41C6.21798 2023.56 6.13943 2022.06 6.0434 2021.07C5.93565 2019.96 5.90008 2019.02 5.95053 2018.62C5.99547 2018.26 6.02806 2016.07 6.02294 2013.75C6.00751 2006.69 5.83672 2002.08 5.71913 2005.55C5.68741 2006.48 5.6782 2006.48 5.67324 2005.55C5.66986 2004.9 5.59619 2004.38 5.50961 2004.38C5.23618 2004.38 5.3274 2001.07 5.67678 1998.32L6.00138 1995.76L5.81452 1994.6C5.71173 1993.96 5.63656 1992.95 5.64735 1992.34C5.65821 1991.74 5.59855 1991.25 5.51488 1991.25C5.3773 1991.25 5.26616 1989.29 5.28112 1987.14C5.28435 1986.68 5.24082 1985.96 5.18447 1985.55C5.11048 1985 5.13921 1984.54 5.2882 1983.86C5.55471 1982.65 5.68261 1980.45 5.4309 1981.41C5.2982 1981.91 5.26931 1981.78 5.31591 1980.88C5.36022 1980.02 5.33999 1979.85 5.24523 1980.29C5.13031 1980.81 5.1248 1980.62 5.20422 1978.85C5.27278 1977.33 5.27325 1976.72 5.20603 1976.45C5.1566 1976.25 5.11607 1975.23 5.11607 1974.18C5.11607 1972.59 5.09639 1972.47 4.99801 1973.44C4.86027 1974.8 4.84634 1974.06 4.96141 1971.5C5.02429 1970.1 5.01721 1969.69 4.93063 1969.69C4.79982 1969.69 4.69537 1965.62 4.76196 1963.12C4.79392 1961.92 4.75897 1961.22 4.64713 1960.79C4.5171 1960.3 4.48491 1959.35 4.47853 1955.8C4.47247 1952.4 4.45807 1951.94 4.4151 1953.75L4.35945 1956.09L4.31002 1953.88C4.28287 1952.67 4.29444 1950.61 4.33584 1949.32C4.40943 1947.01 4.34497 1945.08 4.13222 1943.22C4.08326 1942.79 4.09003 1942.52 4.15032 1942.51C4.20353 1942.51 4.3186 1940.83 4.40612 1938.79C4.51199 1936.32 4.56511 1933.24 4.56511 1929.59C4.56511 1925.05 4.52954 1923.6 4.35827 1921.14C4.24446 1919.5 4.1223 1918.38 4.08673 1918.64C4.05115 1918.9 3.98582 1918.31 3.94151 1917.32C3.89712 1916.34 3.77363 1915.27 3.66698 1914.95C3.54183 1914.57 3.4769 1913.75 3.48398 1912.63C3.49146 1911.45 3.54002 1911.04 3.63652 1911.34C3.71436 1911.58 3.77803 1911.31 3.77803 1910.73C3.77803 1910.16 3.7072 1909.69 3.62062 1909.69C3.53404 1909.69 3.46021 1909.37 3.45667 1908.98C3.45305 1908.6 3.43502 1907.23 3.41653 1905.94C3.39811 1904.65 3.3778 1903.17 3.37135 1902.66C3.36497 1902.14 3.38544 1900.77 3.41676 1899.61C3.4595 1898.03 3.44282 1897.5 3.35041 1897.5C3.28257 1897.5 3.22708 1898.09 3.22708 1898.81C3.22708 1899.52 3.17395 1900.35 3.10902 1900.65C3.01937 1901.06 2.99032 1900.46 2.98844 1898.17C2.9871 1896.51 2.93397 1894.34 2.87037 1893.34C2.80686 1892.34 2.75483 1890.81 2.75483 1889.94C2.75483 1889.07 2.70776 1887.89 2.65023 1887.32C2.58348 1886.66 2.5483 1884.33 2.5531 1880.88C2.55727 1877.9 2.51698 1874.43 2.46361 1873.16C2.40434 1871.75 2.39577 1870.64 2.44165 1870.3C2.48903 1869.95 2.48809 1868.56 2.43898 1866.52C2.39624 1864.75 2.36129 1862.6 2.36129 1861.75C2.36129 1860.9 2.50257 1858.17 2.67518 1855.68C2.93358 1851.96 2.96805 1851.02 2.8703 1850.36C2.80497 1849.93 2.77238 1849.17 2.79796 1848.68C2.82354 1848.18 2.87494 1848.01 2.91225 1848.28C3.0444 1849.25 3.09162 1846.57 2.96223 1845.45C2.84283 1844.4 2.84889 1844.16 3.02889 1842.75C3.1379 1841.9 3.22708 1840.42 3.22708 1839.45C3.22708 1838.49 3.28391 1837.44 3.35333 1837.12C3.42401 1836.8 3.46014 1835.94 3.43534 1835.18C3.37859 1833.41 3.57285 1831.11 3.84258 1830.34C4.14348 1829.49 4.26091 1828.13 4.20731 1826.11C4.1778 1825.01 4.20597 1824.16 4.28421 1823.8C4.35213 1823.49 4.4077 1822.7 4.4077 1822.05C4.4077 1821.39 4.46044 1820.33 4.5249 1819.7C4.58936 1819.06 4.62092 1818.13 4.59503 1817.63C4.56913 1817.13 4.64493 1815.52 4.76354 1814.04C4.88208 1812.57 4.95992 1810.77 4.93638 1810.04C4.91293 1809.31 4.97574 1807.66 5.07609 1806.37C5.17637 1805.08 5.31458 1801.42 5.38313 1798.23C5.45169 1795.04 5.50403 1792.13 5.49938 1791.76C5.47286 1789.65 5.52276 1788.61 5.62768 1789.09C5.69655 1789.4 5.74574 1789.1 5.74574 1788.37C5.74574 1787.68 5.76857 1785.69 5.79643 1783.95L5.84712 1780.78L5.65287 1782.9C5.54598 1784.06 5.43461 1784.73 5.40525 1784.38C5.33733 1783.57 5.58101 1780.31 5.70938 1780.31C5.82768 1780.31 5.92339 1776.43 5.83201 1775.34C5.79572 1774.91 5.69435 1775.64 5.60682 1776.96C5.51922 1778.29 5.4084 1779.38 5.36054 1779.38C5.31269 1779.38 5.27349 1780.09 5.27349 1780.97C5.27349 1782.22 5.25279 1782.32 5.17826 1781.43C5.1038 1780.54 5.11238 1779.7 5.21761 1777.58C5.29167 1776.09 5.3522 1774.35 5.3522 1773.71C5.3522 1773.07 5.41422 1772 5.48994 1771.33C5.61997 1770.18 5.61886 1770.04 5.47026 1768.68C5.38368 1767.89 5.35456 1767.23 5.40564 1767.22C5.45665 1767.2 5.55574 1766.5 5.62579 1765.67C5.74322 1764.27 5.74267 1764.01 5.61918 1762.39C5.54551 1761.42 5.4387 1760.63 5.3818 1760.63C5.3219 1760.63 5.29766 1760.03 5.3241 1759.21C5.34929 1758.43 5.32607 1757.16 5.27263 1756.39C5.17684 1755.02 5.18424 1754.88 5.36535 1754.65C5.4158 1754.58 5.47192 1754 5.48994 1753.36C5.51056 1752.62 5.44712 1752.19 5.31938 1752.19C5.09585 1752.19 5.03186 1750.33 5.25382 1750.28C5.32961 1750.27 5.46035 1749.63 5.54433 1748.88C5.69364 1747.53 5.69317 1747.5 5.52465 1747.5C5.42981 1747.5 5.3522 1747.22 5.3522 1746.87C5.3522 1746.53 5.41281 1745.44 5.48679 1744.47C5.59415 1743.06 5.60053 1742.54 5.51843 1741.94C5.39667 1741.04 5.43209 1737.66 5.56314 1737.66C5.61304 1737.66 5.67774 1737.37 5.70686 1737.03C5.73598 1736.68 5.88946 1736.64 6.0479 1736.93L6.33605 1737.47L6.18509 1735.44C6.10205 1734.32 5.97809 1733.62 5.90961 1733.87C5.84114 1734.12 5.73945 1733.99 5.68364 1733.57C5.54724 1732.55 5.66523 1728.99 5.93417 1726.01C6.04696 1724.76 6.14039 1723.07 6.1418 1722.26C6.14542 1720.11 6.35101 1717.21 6.449 1717.93C6.49591 1718.28 6.56785 1717.46 6.61153 1716.09C6.65466 1714.74 6.727 1713.91 6.77225 1714.24C6.81751 1714.58 6.90881 1714.31 6.97516 1713.66C7.04144 1713 7.24356 1711.59 7.42427 1710.52C7.64544 1709.21 7.7613 1707.87 7.77869 1706.41C7.79979 1704.64 7.68047 1700.41 7.50448 1696.7C7.48763 1696.34 7.58452 1694.55 7.7199 1692.71C7.8552 1690.88 7.92682 1689.38 7.87905 1689.38C7.83127 1689.38 7.79215 1688.72 7.79215 1687.91C7.79215 1687.11 7.75855 1686.7 7.71738 1687C7.6763 1687.31 7.6042 1686.7 7.55721 1685.65C7.49204 1684.2 7.49574 1683.74 7.57295 1683.72C7.63797 1683.7 7.62498 1683.25 7.53635 1682.45C7.39712 1681.19 7.33943 1679.45 7.46843 1680.4C7.57539 1681.19 7.72864 1678.47 7.7406 1675.57C7.74682 1674.07 7.85921 1671.58 8.00656 1669.69C8.16681 1667.63 8.24591 1665.8 8.21907 1664.79C8.19561 1663.9 8.23717 1661.65 8.31155 1659.78C8.41883 1657.09 8.42599 1656.24 8.34595 1655.65C8.29054 1655.24 8.26236 1654.33 8.28337 1653.62C8.3413 1651.68 8.14516 1647.75 7.91793 1646.3C7.7698 1645.35 7.73714 1644.7 7.79641 1643.85C7.85331 1643.03 7.84709 1642.52 7.77579 1642.12C7.69542 1641.68 7.69472 1641.45 7.77248 1641.02C7.91864 1640.2 7.89172 1638.96 7.71345 1638.28C7.62545 1637.95 7.55603 1636.86 7.55603 1635.82C7.55603 1634.63 7.5225 1634.2 7.46394 1634.63C7.40192 1635.09 7.38838 1634.8 7.42239 1633.74C7.45489 1632.73 7.41751 1631.76 7.3177 1631.02C7.13589 1629.66 7.10016 1626.08 7.27654 1626.88C7.35281 1627.23 7.37611 1626.95 7.34683 1626.05C7.32274 1625.3 7.33006 1623.95 7.36312 1623.05C7.3961 1622.14 7.43349 1619.99 7.44624 1618.27C7.45899 1616.54 7.52431 1614.13 7.59145 1612.91C7.65851 1611.69 7.71361 1609.94 7.71384 1609.02C7.714 1608.1 7.81333 1606.08 7.93454 1604.53C8.21639 1600.93 8.26063 1599.45 8.1713 1596.59C8.11171 1594.67 8.08519 1594.51 8.02136 1595.65C7.96327 1596.68 7.94942 1596.32 7.96634 1594.22C7.98051 1592.45 8.02828 1591.5 8.09463 1591.67C8.1746 1591.87 8.18979 1591.03 8.15697 1588.24C8.12643 1585.64 8.14753 1584.2 8.22836 1583.4C8.29148 1582.78 8.34312 1581.69 8.34312 1580.98C8.34312 1580.27 8.40333 1579.69 8.47692 1579.69C8.64803 1579.69 8.52446 1578.25 8.27629 1577.36C8.11762 1576.78 8.09841 1576.95 8.14076 1578.54C8.17696 1579.9 8.14745 1580.53 8.03049 1580.89C7.88362 1581.35 7.87087 1580.95 7.87087 1575.92C7.87087 1572.32 7.91101 1569.97 7.98814 1569.05C8.10376 1567.67 8.10439 1564.02 7.98956 1560.7C7.95831 1559.8 7.95847 1558.32 7.98995 1557.42C8.09212 1554.49 8.07055 1550.5 7.94399 1548.91C7.81987 1547.35 7.82262 1546.79 7.99704 1538.05C8.04403 1535.7 8.03238 1535.41 7.91235 1535.95C7.80326 1536.45 7.78161 1536.21 7.81239 1534.81C7.83396 1533.82 7.82105 1532.45 7.78374 1531.74C7.73101 1530.75 7.71558 1530.84 7.71463 1532.14C7.71369 1533.53 7.68606 1533.64 7.55604 1532.81C7.46946 1532.26 7.39862 1531.36 7.39862 1530.81C7.39862 1530.26 7.48654 1527.72 7.59405 1525.17C7.70157 1522.62 7.7547 1520.79 7.71212 1521.1C7.62176 1521.77 7.60712 1520.33 7.69378 1519.3C7.72628 1518.91 7.75517 1518.31 7.758 1517.97C7.77036 1516.48 8.06331 1510.31 8.12156 1510.31C8.15682 1510.31 8.1857 1509.68 8.1857 1508.91C8.1857 1508.13 8.14147 1507.49 8.08732 1507.49C8.02175 1507.48 8.02829 1507.17 8.107 1506.56C8.1857 1505.96 8.19224 1505.65 8.12667 1505.64C8.05544 1505.63 8.02829 1503.33 8.02829 1497.33C8.02829 1491.6 7.98933 1488.11 7.90204 1486.02C7.83254 1484.37 7.79657 1482.76 7.82207 1482.46C7.84757 1482.15 7.80696 1481.33 7.73187 1480.63C7.65686 1479.92 7.63081 1479.46 7.6741 1479.6C7.76013 1479.87 7.79216 1479.18 7.79216 1477.06C7.79216 1476.21 7.74612 1475.89 7.6715 1476.24C7.56753 1476.71 7.56423 1476.44 7.64734 1474.26C7.71353 1472.53 7.71794 1471.54 7.66143 1471.1C7.61602 1470.75 7.57619 1469.1 7.57273 1467.42C7.56785 1465.01 7.59823 1464.38 7.71873 1464.38C7.83238 1464.38 7.87087 1463.72 7.87087 1461.78C7.87087 1459.21 7.90259 1458.86 8.38854 1455.98C8.70667 1454.1 8.70242 1454.19 8.54107 1452.78C8.36571 1451.25 8.43064 1448.48 8.65835 1447.77C8.74469 1447.5 8.81537 1446.97 8.81537 1446.6C8.81537 1446.22 8.74563 1445.16 8.66047 1444.25C8.53627 1442.91 8.52242 1442.2 8.59034 1440.69C8.63694 1439.65 8.65559 1437.38 8.63182 1435.63C8.60632 1433.76 8.61891 1432.68 8.6626 1433C8.70337 1433.3 8.73666 1433.13 8.73666 1432.61C8.73666 1432.09 8.80545 1431.83 8.88951 1432.02C8.98947 1432.25 9.02891 1431.95 9.00348 1431.16C8.98074 1430.46 9.06377 1429.47 9.20379 1428.78C9.33539 1428.13 9.42221 1427.19 9.39679 1426.7C9.37129 1426.21 9.42764 1425.57 9.52185 1425.28C9.61615 1424.98 9.72406 1423.78 9.76168 1422.6C9.79993 1421.4 9.90996 1420.32 10.0114 1420.15C10.1583 1419.9 10.188 1419.35 10.1674 1417.27C10.1493 1415.42 10.1773 1414.69 10.2658 1414.69C10.4393 1414.69 10.4199 1413.07 10.2321 1411.88C10.023 1410.54 10.0324 1408.51 10.2518 1407.63C10.4226 1406.95 10.4212 1406.91 10.2124 1406.52C9.96758 1406.07 9.91587 1404.38 10.147 1404.38C10.3526 1404.38 10.5469 1403.41 10.5469 1402.4C10.5469 1401.94 10.4584 1401.56 10.3502 1401.56C10.242 1401.56 10.1534 1401.14 10.1534 1400.63C10.1534 1400.11 10.2054 1399.69 10.269 1399.69C10.3392 1399.69 10.3669 1399.14 10.3395 1398.29C10.3146 1397.52 10.2627 1397.12 10.2239 1397.4C10.1034 1398.29 10.1467 1391.78 10.276 1389.58C10.3433 1388.44 10.4791 1387.5 10.5776 1387.5C10.8183 1387.5 10.8724 1386.68 10.7747 1384.5C10.7084 1383.03 10.7322 1382.25 10.9009 1380.39C11.0153 1379.13 11.1417 1378.34 11.182 1378.63C11.2223 1378.93 11.2553 1378.5 11.2553 1377.68C11.2553 1376.86 11.2024 1375.95 11.1377 1375.65C11.073 1375.36 11.0383 1374.76 11.0607 1374.33C11.083 1373.9 11.046 1373.18 10.9785 1372.74C10.877 1372.06 10.8937 1371.69 11.0752 1370.6C11.196 1369.87 11.3098 1369.16 11.3283 1369.01C11.3468 1368.85 11.2964 1368.16 11.2164 1367.46C11.0759 1366.24 11.0767 1366.13 11.239 1364.48C11.365 1363.2 11.3856 1362.46 11.3215 1361.54C11.2745 1360.86 11.1872 1360.31 11.1277 1360.31C10.9414 1360.31 11.009 1358.44 11.2356 1357.33C11.3547 1356.74 11.4824 1356.34 11.5194 1356.44C11.5565 1356.55 11.6408 1356.09 11.707 1355.44C11.8119 1354.4 11.8038 1354.19 11.6431 1353.73C11.4941 1353.32 11.4554 1352.52 11.4396 1349.58C11.4288 1347.58 11.3793 1345.65 11.3295 1345.28C11.2631 1344.79 11.2619 1344.1 11.3253 1342.7C11.3901 1341.25 11.3874 1340.68 11.3144 1340.39C11.2444 1340.11 11.2539 1339.57 11.3488 1338.44C11.4211 1337.58 11.5347 1336.88 11.6014 1336.88C11.6737 1336.88 11.7054 1336.34 11.6798 1335.54C11.6277 1333.93 11.874 1329.18 11.9723 1329.91C12.0108 1330.19 12.0424 1329.98 12.0424 1329.43C12.0424 1328.88 12.007 1328.44 11.9637 1328.44C11.9204 1328.44 11.885 1327.97 11.885 1327.4C11.885 1326.83 11.9347 1326.59 11.9953 1326.87C12.0619 1327.17 12.1221 1326.62 12.1474 1325.47C12.1704 1324.42 12.2271 1323.84 12.2733 1324.18C12.323 1324.55 12.3572 1323.96 12.3572 1322.74C12.3572 1321.61 12.4358 1319.88 12.5318 1318.89C12.6787 1317.37 12.688 1316.94 12.5908 1316.21C12.5273 1315.73 12.5107 1315.33 12.554 1315.31C12.5973 1315.3 12.5796 1314.87 12.5147 1314.38C12.4389 1313.79 12.4312 1313.46 12.4932 1313.45C12.6015 1313.44 12.8703 1307.31 12.9483 1303.08C12.9822 1301.25 12.9684 1300.31 12.9076 1300.31C12.844 1300.31 12.832 1299.16 12.8688 1296.56C12.9129 1293.45 12.9018 1292.9 12.8042 1293.35C12.728 1293.69 12.6666 1293.15 12.6307 1291.8C12.5463 1288.63 12.5721 1282.53 12.6762 1281.03C12.7368 1280.16 12.7505 1278.16 12.716 1275.24C12.6869 1272.79 12.645 1270.04 12.623 1269.14C12.5977 1268.11 12.6254 1267.5 12.6974 1267.5C12.7605 1267.5 12.8957 1266.64 12.9978 1265.58L13.1837 1263.66L12.9279 1264.25C12.7112 1264.75 12.6721 1264.56 12.6721 1263.04C12.6721 1262.06 12.6987 1260.93 12.7311 1260.55C12.7636 1260.16 12.7901 1259.39 12.7901 1258.83C12.7901 1258.28 12.9027 1257.36 13.0403 1256.8C13.4108 1255.29 13.4665 1254.03 13.1308 1254.75C12.7917 1255.48 12.6747 1254.12 12.863 1251.64C12.934 1250.7 12.9686 1249.27 12.941 1248.42C12.9137 1247.57 12.9184 1246.14 12.9514 1245.23C12.9844 1244.33 13.0219 1242.17 13.0346 1240.44C13.0474 1238.7 13.1073 1236.59 13.1679 1235.75C13.3088 1233.79 13.4052 1230.64 13.3009 1231.41C13.1446 1232.56 13.2296 1230.6 13.4995 1226.83C14.066 1218.91 14.0869 1218.51 14.0423 1216.4C14.0129 1215.01 14.0399 1214.13 14.1235 1213.74C14.2318 1213.25 14.4165 1209.42 14.4364 1207.25C14.44 1206.86 14.5467 1205.9 14.6736 1205.11C14.8004 1204.33 14.953 1202.86 15.0125 1201.84C15.0722 1200.83 15.1697 1200 15.2292 1200C15.3802 1200 15.4596 1196.44 15.3454 1194.8C15.2934 1194.06 15.2705 1192.56 15.2943 1191.47C15.3182 1190.38 15.3073 1188.53 15.27 1187.36C15.2282 1186.05 15.2334 1184.87 15.2836 1184.27C15.3396 1183.6 15.3215 1183.35 15.2256 1183.45C15.0265 1183.66 14.802 1178.61 14.786 1173.57C14.7757 1170.34 14.8139 1168.77 14.9423 1167.13C15.0356 1165.94 15.112 1164.66 15.112 1164.3C15.112 1163.94 15.1964 1163.39 15.2996 1163.08C15.4028 1162.77 15.6008 1161.26 15.7396 1159.71C15.8785 1158.17 16.1217 1156.47 16.2801 1155.95C16.6447 1154.75 16.9088 1150.49 16.8606 1146.58C16.8416 1145.03 16.7945 1144 16.7561 1144.28C16.6508 1145.06 16.6722 1143.12 16.7846 1141.71C16.8958 1140.31 17.0613 1135.46 17.1597 1130.72C17.196 1128.97 17.2726 1127.18 17.3299 1126.75C17.3871 1126.32 17.3967 1125.96 17.3513 1125.95C17.3058 1125.94 17.2301 1126.4 17.1831 1126.96C17.1214 1127.69 17.0827 1127.69 17.0446 1126.96C17.0155 1126.4 17.0259 1125.94 17.0677 1125.94C17.1095 1125.94 17.1261 1125.14 17.1046 1124.16C17.0832 1123.18 17.1057 1121.49 17.1547 1120.4C17.2916 1117.35 17.0735 1118.3 16.9042 1121.48C16.8288 1122.9 16.736 1124.06 16.6979 1124.06C16.6587 1124.06 16.6568 1122.33 16.6934 1120.08C16.7289 1117.89 16.7595 1115.73 16.7614 1115.28C16.7633 1114.83 16.8331 1114.68 16.9164 1114.94C17.0309 1115.3 17.0567 1115.04 17.0223 1113.88C16.9972 1113.03 16.945 1111.85 16.9063 1111.26C16.8677 1110.66 16.8563 1108.13 16.881 1105.63C16.9358 1100.1 16.992 1097.81 17.0729 1097.81C17.1752 1097.81 16.9708 1089.82 16.8238 1088.07C16.68 1086.35 16.6327 1084.18 16.7595 1085.12C16.7998 1085.41 16.8527 1085.27 16.8771 1084.8C16.9015 1084.33 16.8685 1083.7 16.8038 1083.41C16.7391 1083.11 16.6862 1082.2 16.6862 1081.37C16.6862 1080.54 16.6331 1079.23 16.5681 1078.46C16.4291 1076.8 16.4143 1075.31 16.5372 1075.31C16.5862 1075.31 16.6023 1074.63 16.5739 1073.75C16.5462 1072.89 16.555 1071.94 16.5935 1071.64C16.632 1071.34 16.6876 1069.41 16.7171 1067.34C16.7555 1064.66 16.7479 1063.99 16.6903 1065C16.6242 1066.16 16.6097 1066.04 16.6087 1064.33C16.608 1063.19 16.6793 1061.8 16.7671 1061.24C16.8549 1060.68 16.9059 1059.82 16.8805 1059.33C16.8551 1058.84 16.8877 1058.44 16.9529 1058.44C17.0708 1058.44 17.4733 1054.55 17.4733 1053.41C17.4733 1053.08 17.4046 1052.81 17.3205 1052.81C17.2364 1052.81 17.1492 1052.46 17.1267 1052.02C17.0523 1050.59 17.2411 1044.38 17.3589 1044.38C17.4906 1044.38 17.5146 1041.04 17.3896 1040.12C17.3436 1039.78 17.232 1040.28 17.1414 1041.24C16.9776 1042.96 16.9772 1042.96 17.0343 1039.69C17.0658 1037.88 17.0988 1035.98 17.1076 1035.47C17.1163 1034.95 17.1472 1034.08 17.1762 1033.53C17.2051 1032.98 17.212 1030.91 17.1913 1028.93C17.1626 1026.17 17.1918 1024.85 17.3172 1023.26C17.407 1022.13 17.4746 1020.82 17.4675 1020.36C17.4321 1018.08 17.4852 1016.25 17.5867 1016.25C17.7428 1016.25 17.8221 1014.45 17.8023 1011.36C17.7922 1009.78 17.8249 1008.75 17.8852 1008.74C17.94 1008.74 18.0258 1007.68 18.0759 1006.4C18.1513 1004.46 18.1465 1004.06 18.0477 1004.06C17.9632 1004.06 17.9414 1003.44 17.9731 1001.95C17.9976 1000.78 17.9842 999.199 17.9435 998.43C17.8939 997.496 17.8689 997.421 17.868 998.203C17.8674 998.847 17.8137 999.375 17.7488 999.375C17.5911 999.375 17.5986 997.108 17.7616 995.505C17.8726 994.414 17.898 994.417 17.9292 995.524C17.9517 996.322 18.0112 995.592 18.0821 993.649C18.1871 990.771 18.2042 990.647 18.263 992.344C18.3248 994.127 18.3283 994.116 18.3336 992.109C18.3382 990.34 18.2977 990 18.0829 990C17.856 990 17.8161 989.6 17.7351 986.515C17.6667 983.917 17.6661 982.545 17.7323 981.125C17.7812 980.077 17.8131 978.743 17.8034 978.16C17.7935 977.578 17.8516 976.896 17.9323 976.644C18.0197 976.372 18.0988 975.007 18.128 973.274C18.1653 971.053 18.2452 970.021 18.4644 968.931C18.704 967.738 18.7358 967.27 18.6557 966.12C18.579 965.019 18.5836 964.453 18.6784 963.324C18.7438 962.545 18.8117 961.393 18.8293 960.763C18.8543 959.871 18.9603 959.902 19.309 960.898C19.5553 961.601 19.7784 961.919 19.8049 961.603C19.8314 961.287 19.7604 960.752 19.647 960.412C19.4311 959.767 19.3578 957.188 19.5553 957.188C19.7748 957.188 20.0588 955.096 20.0166 953.79C19.9938 953.08 20.0143 952.5 20.0622 952.5C20.1102 952.5 20.1494 951.895 20.1494 951.156C20.1494 950.418 20.2289 949.513 20.3261 949.146C20.5213 948.408 20.7072 945.893 20.6492 944.774C20.6288 944.381 20.7014 943.655 20.8105 943.161C21.0427 942.109 21.3795 938.333 21.3464 937.15C21.3338 936.7 21.3718 936.553 21.4308 936.823C21.4898 937.092 21.5774 936.562 21.6254 935.646C21.7356 933.546 22.3295 930.08 22.7028 929.359C22.859 929.057 23.005 928.457 23.0274 928.025C23.0497 927.593 23.0134 926.245 22.9465 925.029C22.8108 922.563 22.8523 921.563 23.0904 921.563C23.2149 921.563 23.2294 921.312 23.156 920.438C23.1041 919.819 23.0615 918.131 23.0615 916.688C23.0615 915.244 23.0322 914.063 22.9963 914.063C22.9228 914.063 22.9178 910.101 22.9903 909.375C23.0161 909.117 23.0581 907.332 23.0836 905.407C23.1304 901.867 23.0194 899.654 22.9052 901.855C22.8117 903.657 22.7226 901.274 22.7806 898.521C22.8175 896.771 22.7766 895.589 22.6121 893.652C22.4927 892.245 22.3914 890.883 22.3871 890.625C22.3829 890.367 22.3381 888.969 22.2875 887.517C22.1497 883.554 22.1761 878.562 22.3488 875.948C22.4329 874.673 22.4823 873.024 22.4584 872.284C22.4326 871.482 22.4628 870.938 22.5333 870.938C22.6126 870.938 22.6608 869.769 22.6799 867.385C22.6956 865.432 22.6967 863.112 22.6824 862.231C22.659 860.785 22.6446 860.77 22.5348 862.077C22.376 863.97 22.331 863.333 22.4252 860.527C22.4667 859.292 22.5029 858.663 22.5056 859.13C22.5167 861.023 22.82 856.472 22.8653 853.731C22.9341 849.56 23.0775 845.276 23.1751 844.467C23.2246 844.058 23.2024 843.772 23.1206 843.764C22.924 843.743 22.9503 842.316 23.1885 840.083C23.4493 837.64 23.3887 835.313 23.064 835.313C22.8888 835.313 22.8257 834.877 22.8266 833.672C22.8274 832.6 22.8481 832.41 22.8862 833.124C22.9736 834.76 23.2519 832.064 23.191 830.171C23.1585 829.164 23.2057 828.408 23.3385 827.806C23.6209 826.526 23.5891 824.707 23.2977 825.469C23.1678 825.808 23.0618 825.737 23.062 825.309C23.0623 824.881 23.1124 823.393 23.1733 822.001C23.2699 819.797 23.2688 819.319 23.1647 818.289C23.0989 817.64 23.0143 816.142 22.9766 814.96C22.9388 813.779 22.8502 812.813 22.7796 812.813C22.699 812.813 22.6677 812.3 22.6955 811.436C22.7199 810.68 22.706 809.811 22.6646 809.506C22.6232 809.201 22.5893 809.423 22.5893 810C22.5893 810.577 22.5543 810.79 22.5114 810.474C22.4661 810.141 22.4997 809.055 22.5921 807.874C22.6793 806.759 22.7348 805.357 22.7155 804.757C22.6961 804.157 22.7189 803.207 22.7659 802.646C22.8845 801.233 22.9257 795.277 22.8303 793.328C22.7856 792.416 22.7505 792.226 22.7491 792.891C22.7463 794.241 22.4319 794.519 22.4319 793.172C22.4319 792.682 22.4939 791.838 22.5696 791.297C22.6949 790.403 22.696 790.208 22.5819 789.142C22.513 788.497 22.4317 786.386 22.4013 784.453C22.3503 781.207 22.2619 780.369 22.0187 780.827C21.9102 781.03 21.9581 777.433 22.0798 776.229C22.1853 775.186 22.1781 774.912 22.0208 773.981C21.9222 773.399 21.8297 771.935 21.8152 770.727C21.8007 769.52 21.7215 768.323 21.6391 768.067C21.5566 767.81 21.5066 767.263 21.5279 766.854C21.5946 765.567 21.472 762.995 21.3668 763.476C21.3117 763.728 21.2011 763.343 21.1212 762.622C21.0405 761.893 21.0185 761.296 21.0717 761.28C21.1246 761.263 21.1471 760.614 21.122 759.834C21.0969 759.055 21.1689 756.974 21.2819 755.209C21.3949 753.444 21.4874 751.59 21.4874 751.087C21.4874 750.586 21.4166 750.396 21.33 750.666C21.2205 751.007 21.1726 750.695 21.1726 749.641C21.1726 748.806 21.2346 748.095 21.3103 748.059C21.4308 748.001 21.429 747.905 21.2964 747.286C21.1607 746.652 21.1586 746.514 21.2767 745.974C21.3493 745.642 21.4087 744.554 21.4087 743.555C21.4087 742.204 21.3686 741.862 21.2525 742.224C21.1665 742.492 21.0362 742.437 20.9627 742.102C20.8492 741.582 20.868 741.069 21.0876 738.68C21.2817 736.568 21.3716 736.119 21.4484 736.879C21.5231 737.616 21.5604 737.562 21.5863 736.68C21.6058 736.013 21.5472 734.912 21.4561 734.232C21.3183 733.203 21.3156 733.089 21.4395 733.551C21.5664 734.023 21.5734 733.891 21.4873 732.655C21.4318 731.857 21.4087 730.937 21.4362 730.611C21.4635 730.284 21.4443 729.418 21.3934 728.687C21.3214 727.653 21.3254 727.176 21.4115 726.542C21.5041 725.86 21.5012 725.63 21.3944 725.141C21.2813 724.624 21.2792 724.263 21.3765 722.044C21.4797 719.691 21.4755 719.512 21.31 719.217C21.0283 718.718 20.9865 717.529 21.1726 715.313C21.2985 713.813 21.3221 712.969 21.2591 712.219C21.151 710.931 21.145 709.374 21.2513 710.156C21.2946 710.475 21.33 709.842 21.33 708.75C21.33 707.473 21.2972 707.006 21.2379 707.442C21.1728 707.921 21.1643 707.595 21.209 706.326C21.2438 705.338 21.3075 702.245 21.3506 699.451C21.4182 695.066 21.4107 694.21 21.2954 693.206C21.1715 692.127 21.173 691.999 21.3159 691.459C21.4845 690.822 21.5979 686.319 21.4813 684.891C21.3633 683.443 21.3963 682.74 21.6131 682.092C21.7834 681.583 21.8095 681.097 21.769 679.177C21.7387 677.739 21.7543 676.875 21.8103 676.875C21.8768 676.875 21.8764 676.533 21.8086 675.56C21.7387 674.556 21.7393 674.156 21.811 673.871C21.8771 673.609 21.861 672.697 21.757 670.805C21.6498 668.857 21.6355 668.005 21.7055 667.728C21.7587 667.517 21.8022 666.932 21.8022 666.429C21.8022 665.926 21.7693 665.757 21.729 666.053C21.6155 666.889 21.556 665.028 21.6116 662.387C21.6392 661.074 21.7135 660 21.7767 660C21.8593 660 21.8764 659.408 21.8376 657.891C21.8079 656.731 21.7261 655.003 21.6558 654.052C21.5368 652.438 21.5412 652.195 21.7218 650.453C21.8904 648.827 21.8991 648.477 21.7892 647.745C21.7053 647.185 21.6703 645.879 21.6847 643.842C21.6965 642.158 21.7142 640.781 21.7238 640.781C21.7335 640.781 21.7534 639.553 21.7682 638.051C21.7828 636.55 21.8237 635.074 21.8591 634.77C21.8944 634.467 21.9346 631.477 21.9484 628.125C21.9687 623.184 22.0101 621.569 22.167 619.59C22.3072 617.822 22.3633 616.013 22.3703 613.028C22.3758 610.761 22.4139 608.378 22.455 607.734C22.4962 607.09 22.4988 606.563 22.4608 606.563C22.3619 606.563 22.1746 601.167 22.2338 600.025C22.3241 598.284 22.3454 595.313 22.2675 595.313C22.2254 595.313 22.1681 594.607 22.1403 593.743C22.1125 592.881 22.022 591.368 21.9392 590.381C21.8387 589.184 21.8039 587.86 21.8347 586.403C21.8599 585.201 21.8432 584.069 21.7974 583.887C21.7433 583.673 21.7551 582.615 21.8312 580.867C21.9427 578.307 21.9364 577.985 21.6982 574.098C21.5606 571.854 21.3715 569.767 21.278 569.46C21.172 569.111 21.0484 567.258 20.9492 564.529C20.8037 560.528 20.8008 560.018 20.9149 558.516C20.9834 557.614 21.0093 556.875 20.9723 556.875C20.9353 556.875 20.9431 556.42 20.9897 555.865C21.0503 555.144 21.0211 554.219 20.8874 552.626C20.6656 549.983 20.6486 547.939 20.8381 546.672C20.9888 545.664 21.0093 545.856 20.5735 544.208C20.4899 543.892 20.4606 544.16 20.4875 544.996C20.5405 546.642 20.4258 548.844 20.3254 548.106C20.2181 547.315 20.2273 542.814 20.3363 542.809C20.3942 542.806 20.4248 540.294 20.4248 535.543C20.4248 529.087 20.445 528.087 20.6067 526.528C20.7068 525.563 20.7703 524.206 20.7479 523.511C20.7255 522.816 20.7363 522.033 20.772 521.771C20.8075 521.509 20.8195 520.227 20.7986 518.923C20.7776 517.619 20.8041 515.926 20.8573 515.162C20.9354 514.041 20.9303 513.663 20.8307 513.207C20.7402 512.795 20.7188 511.849 20.7508 509.681C20.8269 504.524 21.1832 491.283 21.2614 490.707C21.3026 490.403 21.3143 489.326 21.2873 488.313C21.2592 487.257 21.2946 485.447 21.3701 484.073C21.4594 482.451 21.4762 481.367 21.4222 480.723C21.3782 480.2 21.3593 479.245 21.38 478.603C21.4007 477.96 21.3461 477.211 21.2587 476.939C21.141 476.573 21.1091 475.871 21.1359 474.237C21.1557 473.024 21.1937 470.66 21.2204 468.984C21.247 467.309 21.3003 465.938 21.3387 465.938C21.3772 465.938 21.4087 465.49 21.4087 464.945C21.4087 464.399 21.3737 464.21 21.3309 464.525C21.2863 464.853 21.2731 464.477 21.2999 463.643C21.3257 462.842 21.31 462.188 21.265 462.188C21.22 462.188 21.1599 461.314 21.1314 460.245C21.0983 459.002 21.1295 457.647 21.2181 456.48C21.3506 454.737 21.3501 454.599 21.2056 453.324C21.0566 452.01 21.0566 451.972 21.2058 450.655C21.3541 449.347 21.3537 449.286 21.1861 447.577C20.987 445.546 20.9667 443.859 21.1323 443.103C21.2315 442.65 21.2242 442.06 21.0851 439.252C20.9936 437.406 20.9592 435.938 21.0074 435.938C21.1592 435.938 21.1 433.363 20.9365 432.853C20.7401 432.242 20.7361 430.823 20.9246 428.578C21.0566 427.006 21.0585 426.746 20.9443 425.799C20.8319 424.867 20.8374 424.559 20.996 422.926C21.1075 421.777 21.1386 420.959 21.0795 420.725C21.0126 420.458 21.0237 419.703 21.1184 418.092C21.2836 415.284 21.2848 414.593 21.1257 414.209C21.0027 413.913 20.7826 407.943 20.7802 404.843C20.7796 403.983 20.8692 401.141 20.9794 398.528C21.2284 392.623 21.314 385.18 21.1698 381.97C21.0788 379.943 21.087 379.15 21.2354 375.684C21.3725 372.482 21.3837 371.662 21.2932 371.425C21.2317 371.264 21.2008 370.526 21.2247 369.785C21.2486 369.044 21.2289 368.438 21.181 368.438C21.1331 368.438 21.0895 369.07 21.084 369.844C21.0786 370.617 21.0698 371.777 21.0644 372.422C21.0529 373.789 20.7003 374.631 20.7003 373.291C20.7003 372.794 20.7535 372.145 20.8184 371.848C20.9785 371.117 20.9675 369.602 20.7987 369.118C20.6854 368.793 20.6954 368.557 20.855 367.782C21.047 366.85 21.0459 366.829 20.7566 365.692C20.5958 365.06 20.4642 363.966 20.4642 363.261C20.4642 362.557 20.5439 361.301 20.6413 360.47L20.8184 358.958L20.6151 359.542C20.43 360.072 20.4117 359.867 20.4117 357.25C20.4117 355.669 20.4324 354.369 20.4577 354.361C20.4829 354.353 20.5565 353.947 20.6212 353.46C20.7223 352.699 20.7172 352.385 20.5849 351.232C20.4559 350.109 20.4474 349.652 20.5327 348.427C20.654 346.687 20.5796 343.125 20.422 343.125C20.3501 343.125 20.3294 342.554 20.3625 341.484C20.3905 340.582 20.4398 339.628 20.4722 339.364C20.5045 339.099 20.4856 336.56 20.4301 333.719C20.3678 330.521 20.3551 327.725 20.3969 326.377C20.4341 325.181 20.4476 323.875 20.4269 323.476C20.4061 323.078 20.4567 322.024 20.5391 321.136C20.6711 319.712 20.6844 318.53 20.6511 311.167C20.6239 305.139 20.6392 302.813 20.7058 302.813C20.7762 302.813 20.776 302.492 20.7049 301.472C20.6301 300.399 20.644 299.923 20.7739 299.095C20.891 298.348 20.9365 297.134 20.9365 294.749C20.9365 292.928 20.9743 290.596 21.0206 289.566C21.0806 288.233 21.0803 287.341 21.0197 286.471C20.9573 285.576 20.9648 284.949 21.0478 284.129C21.1251 283.365 21.147 281.973 21.1167 279.749C21.0818 277.187 21.1105 276.004 21.2506 274.227C21.5192 270.822 21.4812 263.841 21.1775 260.8C21.0852 259.877 21.0791 259.448 21.1529 259.082C21.2071 258.814 21.2513 257.81 21.2513 256.853C21.2513 255.894 21.2867 254.85 21.33 254.531C21.3733 254.213 21.4087 252.783 21.4087 251.353C21.4087 249.541 21.4682 248.375 21.6055 247.5C21.8285 246.079 21.8632 243.97 21.6776 243.121C21.5917 242.729 21.5809 242.345 21.643 241.888C21.6925 241.523 21.7351 239.44 21.7377 237.26C21.7402 235.078 21.7843 233.101 21.8356 232.867C21.8873 232.63 21.9199 231.093 21.9087 229.423C21.8842 225.782 22.0382 221.522 22.3005 218.587C22.4596 216.806 22.4869 215.789 22.454 212.863C22.4303 210.756 22.4497 209.043 22.5017 208.66C22.5499 208.305 22.5893 207.037 22.5893 205.84C22.5893 204.645 22.6425 203.142 22.7074 202.5C22.7723 201.858 22.8255 200.316 22.8255 199.074C22.8255 197.832 22.8786 196.573 22.9435 196.277C23.1045 195.541 23.0964 189.95 22.9322 188.325C22.8171 187.188 22.809 187.28 22.8588 189.148C22.9068 190.953 22.8862 191.25 22.7127 191.25C22.6015 191.25 22.5106 190.904 22.5106 190.481C22.5106 190.059 22.5992 188.796 22.7074 187.675C22.8156 186.554 22.9042 185.965 22.9042 186.367C22.9042 187.536 23.3614 190.423 23.407 189.543C23.4299 189.103 23.3881 187.725 23.3141 186.481C23.2402 185.237 23.1774 182.605 23.1747 180.633C23.1719 178.652 23.1211 176.688 23.0611 176.246C22.9711 175.584 22.9843 174.313 23.1384 168.818C23.2406 165.171 23.3532 162.188 23.3885 162.188C23.4239 162.188 23.3852 160.145 23.3027 157.649C23.1772 153.86 23.1634 152.065 23.2184 146.779C23.2635 142.445 23.336 139.791 23.4484 138.367C23.5387 137.222 23.6125 135.648 23.6125 134.869C23.6125 134.09 23.524 132.461 23.4158 131.25C23.2133 128.984 23.1589 126.178 23.2977 125.156C23.341 124.838 23.3764 123.099 23.3764 121.293C23.3764 119.486 23.4673 115.719 23.5785 112.921C23.7941 107.492 23.8101 102.662 23.6125 102.648C23.5341 102.642 23.4944 101.697 23.4942 99.8352C23.494 98.293 23.4641 96.4802 23.4277 95.8062C23.3604 94.5574 23.3143 88.7522 23.2676 75.6216C23.2438 68.911 23.2623 67.815 23.4812 62.9653C23.613 60.045 23.785 57.1052 23.8635 56.4312C24.0513 54.8177 24.0447 52.3003 23.8487 50.8425C23.7621 50.1985 23.6913 48.8261 23.6913 47.792C23.6913 46.7579 23.647 45.0187 23.5929 43.9275C23.5142 42.3394 23.5142 41.8574 23.5929 41.5181C23.7308 40.9228 23.7154 36.9358 23.5646 34.1946C23.4465 32.0477 23.4489 31.6286 23.6002 27.9873C23.7164 25.187 23.7412 23.6108 23.6875 22.4155C23.6395 21.3496 23.6408 19.861 23.6909 18.2935C23.734 16.9435 23.7688 14.4901 23.7682 12.8411C23.7677 11.1929 23.7665 8.21899 23.7656 6.23242C23.7647 4.2468 23.8051 2.03242 23.8553 1.31055C23.9335 0.189298 22.2209 9.71301e-07 11.9734 5.23366e-07L0.000131134 0L6.55671e-05 1500L0 3000L7.37888 2999.99ZM2.2892 1854.28C2.42268 1852.27 2.58207 1850.63 2.64338 1850.63C2.7047 1850.63 2.75483 1850.96 2.75483 1851.37C2.75483 1852.69 2.15484 1860.04 2.0999 1859.39C2.07054 1859.04 2.04646 1858.56 2.04646 1858.34C2.04646 1858.11 2.15571 1856.28 2.2892 1854.28ZM3.03031 1839.38C3.09524 1839.38 3.14837 1839.73 3.14837 1840.16C3.14837 1840.59 3.09524 1840.94 3.03031 1840.94C2.96538 1840.94 2.91225 1840.59 2.91225 1840.16C2.91225 1839.73 2.96538 1839.38 3.03031 1839.38ZM3.35828 1910.94C3.38709 1911.28 3.36348 1911.56 3.30579 1911.56C3.24809 1911.56 3.22448 1911.28 3.25329 1910.94C3.28217 1910.59 3.3294 1910.59 3.35828 1910.94ZM3.59441 1937.19C3.62321 1937.53 3.5996 1937.81 3.54191 1937.81C3.48422 1937.81 3.4606 1937.53 3.48941 1937.19C3.5183 1936.84 3.56552 1936.84 3.59441 1937.19ZM3.84423 1935.89C4.02337 1933.25 4.13309 1934.84 3.96709 1937.66C3.84596 1939.72 3.69932 1940.37 3.69932 1938.85C3.69932 1938.4 3.7645 1937.06 3.84423 1935.89ZM3.79771 1929.59C3.85186 1929.07 3.96693 1928.47 4.05351 1928.27C4.1441 1928.06 4.20211 1927.27 4.19023 1926.42C4.17882 1925.6 4.22313 1924.41 4.28861 1923.76C4.3907 1922.75 4.4077 1923.01 4.4077 1925.55C4.4077 1928.99 4.10908 1933.13 3.86028 1933.13C3.68162 1933.13 3.64517 1931.07 3.79771 1929.59ZM3.98795 1957.81C4.01675 1958.16 4.01675 1958.72 3.98795 1959.06C3.95906 1959.41 3.93545 1959.12 3.93545 1958.44C3.93545 1957.75 3.95906 1957.47 3.98795 1957.81ZM4.06138 1951.63C4.17637 1951.99 4.15992 1955.63 4.04328 1955.63C3.97693 1955.63 3.9467 1954.83 3.96347 1953.52C3.97834 1952.36 4.02234 1951.51 4.06138 1951.63ZM4.32899 1967.34C4.37228 1967.66 4.4077 1968.32 4.4077 1968.81C4.4077 1969.29 4.37228 1969.69 4.32899 1969.69C4.2857 1969.69 4.25028 1969.03 4.25028 1968.23C4.25028 1967.42 4.2857 1967.03 4.32899 1967.34ZM4.38149 1932.5C4.41029 1932.84 4.41029 1933.41 4.38149 1933.75C4.3526 1934.09 4.32899 1933.81 4.32899 1933.13C4.32899 1932.44 4.3526 1932.16 4.38149 1932.5ZM4.4077 1797.19C4.45099 1797.19 4.48641 1797.61 4.48641 1798.13C4.48641 1798.64 4.45099 1799.06 4.4077 1799.06C4.36441 1799.06 4.329 1798.64 4.329 1798.13C4.329 1797.61 4.36441 1797.19 4.4077 1797.19ZM4.56512 1794.38C4.60841 1794.38 4.64383 1794.8 4.64383 1795.31C4.64383 1795.83 4.60841 1796.25 4.56512 1796.25C4.52183 1796.25 4.48641 1795.83 4.48641 1795.31C4.48641 1794.8 4.52183 1794.38 4.56512 1794.38ZM5.19478 2005.78C5.23806 2005.46 5.27348 2005.65 5.27348 2006.19C5.27348 2006.74 5.23806 2007.19 5.19478 2007.19C5.15149 2007.19 5.11607 2007 5.11607 2006.77C5.11607 2006.55 5.15149 2006.1 5.19478 2005.78ZM5.28829 1790.92C5.35102 1791.22 5.33237 1791.44 5.24067 1791.49C5.15771 1791.53 5.11128 1791.31 5.13741 1791C5.16354 1790.68 5.23146 1790.65 5.28829 1790.92ZM5.43091 1777.03C5.4742 1776.71 5.50962 1776.27 5.50962 1776.04C5.50962 1775.81 5.4742 1775.63 5.43091 1775.63C5.38762 1775.63 5.3522 1776.07 5.3522 1776.62C5.3522 1777.16 5.38762 1777.35 5.43091 1777.03ZM5.80311 2007.56C5.88316 2008.51 5.76265 2009.3 5.65648 2008.52C5.57619 2007.93 5.57619 2007.7 5.65616 2007.39C5.71086 2007.17 5.77698 2007.25 5.80311 2007.56ZM7.39397 1699.69C7.43474 1699.69 7.48992 1700.11 7.51668 1700.63C7.54344 1701.14 7.51006 1701.56 7.44261 1701.56C7.37516 1701.56 7.31991 1701.14 7.31991 1700.63C7.31991 1700.11 7.3532 1699.69 7.39397 1699.69ZM7.43333 1535.63C7.49575 1535.63 7.57052 1536.08 7.59964 1536.64C7.66835 1537.97 7.5166 1539.78 7.40547 1538.96C7.28064 1538.04 7.30079 1535.63 7.43333 1535.63ZM7.37241 1515.31C7.40122 1515.66 7.40122 1516.22 7.37241 1516.56C7.34353 1516.91 7.31991 1516.62 7.31991 1515.94C7.31991 1515.25 7.34353 1514.97 7.37241 1515.31ZM7.74722 1470.41C7.79996 1472.45 7.8848 1474.27 7.93573 1474.48C7.98665 1474.68 8.02829 1474.37 8.02829 1473.79C8.02829 1472.52 7.72589 1465.31 7.67253 1465.31C7.62271 1465.31 7.63302 1466.01 7.74722 1470.41ZM8.47429 2435C8.50309 2435.34 8.47948 2435.63 8.42179 2435.63C8.36409 2435.63 8.34048 2435.34 8.36929 2435C8.39817 2434.66 8.4454 2434.66 8.47429 2435ZM8.42179 2335.31C8.46508 2335.31 8.5005 2335.5 8.5005 2335.73C8.5005 2335.95 8.46508 2336.4 8.42179 2336.72C8.3785 2337.04 8.34308 2336.85 8.34308 2336.31C8.34308 2335.76 8.3785 2335.31 8.42179 2335.31ZM8.54568 2333.22C8.76551 2333.72 8.9352 2337.42 8.8354 2339.53C8.78629 2340.57 8.74859 2340.55 8.61856 2339.4C8.46996 2338.09 8.46886 2337.94 8.59888 2336.79C8.74009 2335.54 8.78298 2334.29 8.67759 2334.49C8.5212 2334.78 8.34308 2334.29 8.34308 2333.57C8.34308 2333.12 8.4343 2332.97 8.54568 2333.22ZM9.05146 2332.5C9.09474 2332.5 9.13016 2332.92 9.13016 2333.44C9.13016 2333.95 9.09474 2334.38 9.05146 2334.38C9.00817 2334.38 8.97275 2333.95 8.97275 2333.44C8.97275 2332.92 9.00817 2332.5 9.05146 2332.5ZM9.34009 2127.5C9.36889 2127.84 9.36889 2128.41 9.34009 2128.75C9.3112 2129.09 9.28759 2128.81 9.28759 2128.13C9.28759 2127.44 9.3112 2127.16 9.34009 2127.5ZM9.60242 2217.19C9.64571 2217.19 9.68112 2217.61 9.68112 2218.13C9.68112 2218.64 9.64571 2219.06 9.60242 2219.06C9.55913 2219.06 9.52371 2218.64 9.52371 2218.13C9.52371 2217.61 9.55913 2217.19 9.60242 2217.19ZM9.72047 2331.9C9.78541 2331.6 9.83854 2331.2 9.83854 2330.99C9.83854 2330.79 9.78541 2330.63 9.72047 2330.63C9.65554 2330.63 9.60241 2331.03 9.60241 2331.53C9.60241 2332.03 9.65554 2332.2 9.72047 2331.9ZM9.83858 1403.44C9.88187 1403.44 9.91728 1403.62 9.91728 1403.85C9.91728 1404.08 9.88187 1404.53 9.83858 1404.84C9.79529 1405.16 9.75987 1404.98 9.75987 1404.43C9.75987 1403.88 9.79529 1403.44 9.83858 1403.44ZM9.89104 2175.31C9.91985 2175.66 9.91985 2176.22 9.89104 2176.56C9.86215 2176.91 9.83854 2176.62 9.83854 2175.94C9.83854 2175.25 9.86215 2174.97 9.89104 2175.31ZM9.89107 1397.19C9.91988 1397.53 9.91988 1398.09 9.89107 1398.44C9.86219 1398.78 9.83858 1398.5 9.83858 1397.81C9.83858 1397.13 9.86219 1396.84 9.89107 1397.19ZM10.2321 2373.75C10.2754 2373.75 10.3108 2374.41 10.3108 2375.21C10.3108 2376.02 10.2754 2376.41 10.2321 2376.09C10.1888 2375.78 10.1534 2375.12 10.1534 2374.63C10.1534 2374.15 10.1888 2373.75 10.2321 2373.75ZM10.6959 2634.38C10.7345 2634.38 10.7866 2635.01 10.8115 2635.78C10.8576 2637.21 10.7737 2637.7 10.6781 2636.56C10.6029 2635.67 10.6134 2634.38 10.6959 2634.38ZM10.847 2659.9C10.9045 2659.67 10.9221 2660.1 10.8927 2661.01C10.8664 2661.83 10.8103 2662.5 10.7681 2662.5C10.6646 2662.5 10.7293 2660.37 10.847 2659.9ZM11.2672 2659.61C11.4134 2658.68 11.4295 2658.75 11.3853 2660.12C11.357 2661 11.334 2661.89 11.334 2662.11C11.334 2662.32 11.2808 2662.5 11.2159 2662.5C11.0428 2662.5 11.072 2660.86 11.2672 2659.61ZM11.2291 1341.87C11.2579 1342.22 11.2343 1342.5 11.1766 1342.5C11.1189 1342.5 11.0953 1342.22 11.1241 1341.87C11.153 1341.53 11.2002 1341.53 11.2291 1341.87ZM11.9984 2598.75C12.0175 2598.75 12.0583 2599.24 12.0892 2599.83C12.124 2600.5 12.1108 2600.66 12.0545 2600.25C11.9638 2599.58 11.9327 2598.75 11.9984 2598.75ZM12.2644 2524.21C12.327 2524.95 12.185 2526.56 12.1072 2525.99C12.0543 2525.6 12.0624 2525.12 12.13 2524.62C12.1876 2524.2 12.248 2524.01 12.2644 2524.21ZM12.8294 2920.78C12.8727 2920.46 12.9081 2920.86 12.9081 2921.66C12.9081 2922.47 12.8727 2923.13 12.8294 2923.13C12.7861 2923.13 12.7507 2922.73 12.7507 2922.24C12.7507 2921.76 12.7861 2921.1 12.8294 2920.78ZM13.1967 2912.5C13.2256 2912.16 13.2256 2911.59 13.1967 2911.25C13.1679 2910.91 13.1442 2911.19 13.1442 2911.88C13.1442 2912.56 13.1679 2912.84 13.1967 2912.5ZM13.3017 2868.28C13.345 2868.6 13.3804 2869.26 13.3804 2869.74C13.3804 2870.23 13.345 2870.63 13.3017 2870.63C13.2584 2870.63 13.223 2869.97 13.223 2869.16C13.223 2868.36 13.2584 2867.96 13.3017 2868.28ZM13.4329 2913.44C13.4617 2913.09 13.4617 2912.53 13.4329 2912.19C13.404 2911.84 13.3804 2912.13 13.3804 2912.81C13.3804 2913.5 13.404 2913.78 13.4329 2913.44ZM13.4591 2850C13.5024 2850 13.5378 2850.19 13.5378 2850.41C13.5378 2850.64 13.5024 2851.09 13.4591 2851.41C13.4158 2851.73 13.3804 2851.54 13.3804 2850.99C13.3804 2850.45 13.4158 2850 13.4591 2850ZM13.4591 2814.84C13.5024 2814.53 13.5378 2814.95 13.5378 2815.78C13.5378 2816.62 13.5024 2817.04 13.4591 2816.72C13.4158 2816.4 13.3804 2815.98 13.3804 2815.78C13.3804 2815.58 13.4158 2815.16 13.4591 2814.84ZM13.5066 2839C13.5328 2839.32 13.5356 2840.12 13.5128 2840.8C13.4877 2841.55 13.4691 2841.33 13.4653 2840.23C13.4619 2839.25 13.4805 2838.69 13.5066 2839ZM13.7099 2943.54C13.8276 2943.07 13.8924 2940.94 13.7889 2940.94C13.7466 2940.94 13.6906 2941.61 13.6642 2942.42C13.6348 2943.33 13.6524 2943.76 13.7099 2943.54ZM13.7644 2948.84C13.8038 2949.13 13.8564 2948.73 13.8813 2947.96C13.9061 2947.19 13.8942 2946.56 13.8548 2946.56C13.7481 2946.56 13.6818 2948.23 13.7644 2948.84ZM13.9051 2842.81C13.9339 2843.16 13.9103 2843.44 13.8526 2843.44C13.7949 2843.44 13.7713 2843.16 13.8001 2842.81C13.829 2842.47 13.8762 2842.47 13.9051 2842.81ZM13.9051 2812.81C13.9339 2813.16 13.9103 2813.44 13.8526 2813.44C13.7949 2813.44 13.7713 2813.16 13.8001 2812.81C13.829 2812.47 13.8762 2812.47 13.9051 2812.81ZM14.5348 2990.94C14.5636 2991.28 14.5636 2991.84 14.5348 2992.19C14.5059 2992.53 14.4823 2992.25 14.4823 2991.56C14.4823 2990.88 14.5059 2990.59 14.5348 2990.94ZM14.6397 2812.97C14.683 2812.65 14.7184 2812.84 14.7184 2813.38C14.7184 2813.93 14.683 2814.38 14.6397 2814.38C14.5964 2814.38 14.561 2814.19 14.561 2813.96C14.561 2813.73 14.5964 2813.29 14.6397 2812.97ZM15.7942 1144.06C15.823 1144.41 15.823 1144.97 15.7942 1145.31C15.7653 1145.66 15.7417 1145.37 15.7417 1144.69C15.7417 1144 15.7653 1143.72 15.7942 1144.06ZM16.109 1142.19C16.1378 1142.53 16.1378 1143.09 16.109 1143.44C16.0801 1143.78 16.0565 1143.5 16.0565 1142.81C16.0565 1142.13 16.0801 1141.84 16.109 1142.19ZM16.327 1146.61C16.4109 1145.78 16.4819 1145.76 16.6024 1146.53C16.6918 1147.1 16.7649 1147.75 16.7649 1147.98C16.7649 1148.98 16.3704 1151.35 16.2961 1150.81C16.1795 1149.95 16.1943 1147.92 16.327 1146.61ZM16.4649 1113.96C16.6108 1114.54 16.6349 1116.56 16.496 1116.56C16.4275 1116.56 16.3714 1115.89 16.3714 1115.08C16.3714 1114.26 16.4134 1113.76 16.4649 1113.96ZM16.6026 1138.3C16.6616 1138.07 16.6911 1138.42 16.6715 1139.12C16.6525 1139.8 16.5905 1140.54 16.5337 1140.76C16.4747 1141 16.4452 1140.64 16.4649 1139.94C16.4838 1139.26 16.5458 1138.53 16.6026 1138.3ZM16.6075 1135.31C16.6508 1135.31 16.6862 1135.5 16.6862 1135.73C16.6862 1135.95 16.6508 1136.4 16.6075 1136.72C16.5642 1137.04 16.5288 1136.85 16.5288 1136.31C16.5288 1135.76 16.5642 1135.31 16.6075 1135.31ZM16.7882 1110.84C16.8893 1112.04 16.8112 1113.26 16.6901 1112.37C16.6433 1112.03 16.6272 1111.32 16.6545 1110.79C16.6877 1110.15 16.7317 1110.17 16.7882 1110.84ZM16.8017 1129.16C16.8653 1128.16 16.9185 1127.79 16.9198 1128.34C16.9212 1128.88 16.8703 1130.15 16.8068 1131.15C16.7432 1132.15 16.69 1132.52 16.6887 1131.98C16.6873 1131.43 16.7382 1130.16 16.8017 1129.16ZM21.0677 375.312C21.0965 375.656 21.0965 376.219 21.0677 376.563C21.0388 376.906 21.0152 376.625 21.0152 375.938C21.0152 375.25 21.0388 374.969 21.0677 375.312ZM21.2251 767.187C21.2539 767.531 21.2539 768.094 21.2251 768.438C21.1962 768.781 21.1726 768.5 21.1726 767.813C21.1726 767.125 21.1962 766.844 21.2251 767.187ZM21.3617 665.113C21.455 664.002 21.4786 663.998 21.5137 665.089C21.5623 666.6 21.5035 667.5 21.3562 667.5C21.2215 667.5 21.2233 666.762 21.3617 665.113ZM21.6448 893.438C21.6881 893.438 21.7235 893.859 21.7235 894.375C21.7235 894.891 21.6881 895.313 21.6448 895.313C21.6015 895.313 21.5661 894.891 21.5661 894.375C21.5661 893.859 21.6015 893.438 21.6448 893.438ZM22.2483 785C22.2771 785.344 22.2771 785.906 22.2483 786.25C22.2194 786.593 22.1958 786.312 22.1958 785.625C22.1958 784.938 22.2194 784.657 22.2483 785ZM22.327 855.312C22.3558 855.656 22.3558 856.219 22.327 856.563C22.2981 856.906 22.2745 856.625 22.2745 855.938C22.2745 855.25 22.2981 854.969 22.327 855.312ZM22.5106 895.313C22.5539 895.313 22.5893 895.734 22.5893 896.25C22.5893 896.766 22.5539 897.188 22.5106 897.188C22.4673 897.188 22.4319 896.766 22.4319 896.25C22.4319 895.734 22.4673 895.313 22.5106 895.313ZM22.5106 848.438C22.5539 848.438 22.5893 849.07 22.5893 849.844C22.5893 850.617 22.5539 851.25 22.5106 851.25C22.4673 851.25 22.4319 850.617 22.4319 849.844C22.4319 849.07 22.4673 848.438 22.5106 848.438ZM22.6483 852.422C22.706 852.192 22.7467 852.839 22.7467 853.985C22.7467 855.136 22.6959 855.938 22.6229 855.938C22.4782 855.938 22.4994 853.013 22.6483 852.422ZM22.9828 830.156C23.0261 829.838 23.0616 829.788 23.0616 830.046C23.0616 830.303 23.0261 830.775 22.9828 831.094C22.9396 831.413 22.9041 831.462 22.9041 831.204C22.9041 830.947 22.9396 830.475 22.9828 830.156Z" clip-rule="evenodd"/></svg>