<svg width="81" height="2561" viewBox="0 0 81 2561" xmlns="http://www.w3.org/2000/svg">
<path fill-rule="evenodd" clip-rule="evenodd" d="M1.84018 154.352C3.18398 154.35 3.38619 152.577 3.1457 142.897C2.95036 135.014 3.29687 130.363 4.25883 127.969C5.02742 126.059 5.4122 124.097 5.1138 123.612C4.81637 123.126 4.2176 117.424 3.78472 110.939C3.26644 103.176 3.34497 98.782 4.01441 98.0716C4.68582 97.3596 4.5749 96.0956 3.68558 94.35C2.60681 92.2316 2.58717 91.4556 3.58742 90.4476C4.27454 89.7564 4.74766 87.8316 4.63871 86.1708C4.52975 84.5084 4.52877 82.79 4.63576 82.35C4.74276 81.91 4.94398 80.11 5.08239 78.35C5.22079 76.59 5.66055 72.8108 6.06006 69.95C6.53319 66.5644 6.41638 64.75 5.72632 64.75C5.14423 64.75 4.66718 62.59 4.66718 59.95C4.66718 57.31 5.10889 55.15 5.64877 55.15C6.18865 55.15 6.63037 54.3868 6.63037 53.4556C6.63037 52.5244 6.12484 52.27 5.50644 52.894C4.70349 53.702 4.59061 52.702 5.11282 49.3884C5.51429 46.8364 5.81172 42.59 5.77343 39.95C5.73613 37.31 5.9354 32.1356 6.2181 28.4508C6.62939 23.086 7.16239 21.6508 8.89 21.2508C10.8493 20.7964 11.0475 19.8316 11.0475 10.75L11.0475 0.75L45.6488 0.750002L80.25 0.750003L80.2499 1280.75L80.2499 2560.75L55.7856 2560.75L31.3203 2560.75L32.9154 2555.55C33.793 2552.69 34.6911 2546.03 34.913 2540.75C35.1682 2534.66 35.9436 2529.98 37.0352 2527.95C38.537 2525.16 38.7186 2521.8 38.4673 2501.55C38.3083 2488.79 37.8725 2475.34 37.4985 2471.66C36.9066 2465.83 37.2727 2463.64 40.3304 2454.72C42.9404 2447.12 44.0163 2441.73 44.5179 2433.74C44.9812 2426.38 44.7819 2420.95 43.8887 2416.54C42.7598 2410.96 42.8001 2409.14 44.19 2403.03C45.6173 2396.75 45.6379 2395.34 44.3736 2390.41C42.4526 2382.91 42.5812 2378.82 44.886 2374.04C46.6901 2370.3 46.7186 2369.7 45.2973 2365.22C44.4266 2362.47 44.0261 2358.75 44.3647 2356.55C44.7603 2353.98 43.9495 2349.29 41.9294 2342.47C39.5196 2334.32 39.0366 2331.06 39.5618 2326.49C40.0055 2322.64 39.8563 2320.75 39.1073 2320.75C38.3593 2320.75 38.486 2319.19 39.4882 2316.03C40.3117 2313.43 40.9861 2309.25 40.9861 2306.73C40.9861 2303.56 41.8411 2301.12 43.7719 2298.79C46.3073 2295.74 46.5625 2294.53 46.6175 2285.29C46.6509 2279.71 46.2671 2273.9 45.7665 2272.37C45.1373 2270.45 45.3267 2268.41 46.378 2265.79C47.2163 2263.71 47.6315 2260.85 47.3017 2259.45C46.9719 2258.05 47.7954 2253.45 49.1324 2249.23C52.0948 2239.87 54.3417 2229.3 55.1839 2220.75C56.1527 2210.92 56.7044 2208.75 58.2298 2208.75C60.029 2208.75 59.9986 2207.94 58.0158 2203.01C56.6897 2199.71 56.5886 2197.95 57.4602 2193.32C58.0462 2190.21 58.2926 2186.67 58.0079 2185.46C57.4003 2182.88 63.0131 2166.26 65.7517 2162.52C66.7883 2161.11 68.4443 2157.26 69.4317 2153.97C71.2006 2148.07 71.1967 2147.93 69.1117 2143.61C67.6305 2140.54 66.9984 2136.98 66.9984 2131.72C66.9984 2125.9 66.7235 2124.59 65.7714 2125.88C64.8438 2127.14 64.5444 2126.54 64.5444 2123.44C64.5444 2121.19 64.9665 2118.91 65.4828 2118.39C65.9991 2117.87 66.1807 2116.42 65.8852 2115.17C65.5908 2113.92 66.486 2111.04 67.874 2108.78C69.8636 2105.53 70.3446 2103.33 70.1414 2098.39C70.0001 2094.94 69.5662 2091.6 69.1775 2090.97C68.7888 2090.34 68.4708 2087.06 68.4708 2083.68C68.4708 2079.79 69.152 2076.44 70.3368 2074.51C72.4875 2071 74.2318 2063.7 72.5022 2065.44C71.9044 2066.05 71.4156 2065.85 71.4156 2065.02C71.4156 2064.18 72.0781 2063.08 72.8879 2062.57C73.6978 2062.07 74.3603 2060.25 74.3603 2058.53C74.3603 2056.82 74.912 2055.12 75.5873 2054.75C76.4138 2054.3 76.7387 2051.14 76.5827 2045.06C76.4541 2040.1 76.7976 2034.13 77.3444 2031.78C78.1022 2028.53 77.9824 2026.63 76.8408 2023.79C74.803 2018.72 74.9581 2015.56 77.3051 2014.35C78.3849 2013.79 79.2546 2012.48 79.2379 2011.44C79.1986 2009.09 74.3603 2003.17 74.3603 2005.47C74.3603 2006.4 73.9294 2007.15 73.4033 2007.15C72.8487 2007.15 72.7113 2004.97 73.0784 2001.95C73.6546 1997.21 73.5643 1996.95 72.0497 1998.98C70.5783 2000.95 70.4644 2000.86 71.0543 1998.18C71.4205 1996.51 72.1478 1994.25 72.67 1993.15C73.2904 1991.84 73.2688 1991.15 72.6092 1991.15C72.0536 1991.15 71.8308 1989.71 72.1125 1987.95C72.4698 1985.72 72.1429 1984.75 71.0396 1984.75C69.6536 1984.75 68.8821 1980.91 69.3454 1976.31C69.4141 1975.62 68.8035 1974.64 67.9888 1974.13C65.5181 1972.59 66.2818 1966.42 69.4131 1962.65C71.0102 1960.73 72.777 1959.15 73.3395 1959.15C74.913 1959.15 74.5478 1955.97 72.8516 1954.91C72.0212 1954.39 70.5508 1955.13 69.5839 1956.56C68.617 1957.98 67.0867 1959.15 66.1846 1959.15C63.554 1959.15 64.3029 1953.88 67.5225 1949.74C69.5584 1947.12 70.3064 1945.02 69.9176 1943.02C69.5868 1941.32 70.0875 1938.91 71.1201 1937.23C72.2676 1935.35 72.888 1931.96 72.888 1927.55C72.888 1923.81 73.2197 1920.75 73.6241 1920.75C74.9218 1920.75 74.4114 1916.26 72.8183 1913.66C71.9692 1912.28 71.6973 1911.15 72.2126 1911.15C72.728 1911.15 73.3709 1909.27 73.6408 1906.96C73.9814 1904.06 73.4897 1901.73 72.0379 1899.36C70.8855 1897.49 69.6114 1896.13 69.207 1896.35C68.8016 1896.57 68.4335 1896.21 68.3893 1895.55C68.3442 1894.89 68.1194 1892.55 67.8887 1890.35C67.659 1888.15 67.4008 1885.36 67.3164 1884.16C67.231 1882.95 65.9235 1879.75 64.4089 1877.05C61.4818 1871.83 58.6745 1860.47 58.6254 1853.67C58.5999 1850.25 58.435 1850 57.6457 1852.2C56.8565 1854.4 56.2803 1854.54 54.2396 1853C52.888 1851.98 51.979 1850.3 52.2185 1849.25C52.459 1848.21 52.1272 1846.99 51.4833 1846.55C50.6725 1846 50.8413 1845.05 52.0291 1843.47C52.9734 1842.22 53.7469 1840.02 53.7469 1838.57C53.7469 1837.13 54.4605 1835.95 55.3341 1835.95C56.5012 1835.95 56.7957 1834.88 56.4472 1831.91C56.1861 1829.69 56.3913 1827.45 56.9027 1826.94C57.4141 1826.42 57.5584 1824.22 57.2227 1822.04C56.7819 1819.18 56.9419 1818.41 57.8008 1819.28C58.6224 1820.11 58.7913 1819.64 58.3476 1817.75C57.951 1816.07 58.2592 1814.68 59.1564 1814.12C59.9545 1813.62 60.3206 1812.46 59.9712 1811.54C59.6227 1810.62 60.1753 1808.87 61.1991 1807.64C62.805 1805.73 62.86 1805.22 61.5947 1803.91C60.3343 1802.61 60.3599 1802.39 61.7792 1802.37C62.6872 1802.36 63.711 1800.91 64.0536 1799.15C64.3962 1797.39 65.2845 1795.95 66.0276 1795.95C69.8372 1795.95 72.0762 1780.07 68.7162 1776.88C67.6737 1775.89 67.5 1775.23 68.2735 1775.2C69.47 1775.15 73.31 1763.56 73.3572 1759.86C73.3689 1758.93 72.2342 1755.92 70.8364 1753.16C69.2757 1750.1 67.7277 1748.51 66.8296 1749.08C65.6772 1749.8 65.4642 1748.97 65.8303 1745.19C66.4428 1738.85 65.3326 1736.13 62.6931 1737.49C60.7476 1738.5 60.6799 1738.28 61.7488 1734.46C63.0092 1729.95 62.0492 1726.61 60.5797 1730.4C60.0359 1731.8 59.66 1731.99 59.6512 1730.86C59.6433 1729.83 58.9424 1727.85 58.0943 1726.46C56.7427 1724.26 56.7358 1723.95 58.0364 1723.95C59.9967 1723.95 61.0951 1720.89 59.8583 1718.87C59.2035 1717.8 58.6568 1717.85 58.217 1719.01C57.8539 1719.97 57.1756 1720.75 56.7093 1720.75C56.2421 1720.75 56.5405 1718.53 57.3719 1715.81C58.2033 1713.09 58.861 1708.14 58.8325 1704.79C58.7952 1700.35 59.4244 1697.73 61.1716 1695.05C63.5216 1691.46 64.5061 1687.61 62.5812 1689.55C61.1402 1691 61.3807 1687.57 62.8266 1686.05C63.502 1685.34 65.3258 1684.76 66.8796 1684.76C69.6791 1684.75 72.5012 1680.39 71.1397 1678.17C70.7559 1677.54 69.3208 1677.86 67.9515 1678.88C65.8754 1680.42 65.3581 1680.3 64.8507 1678.14C64.4845 1676.59 64.8909 1674.96 65.8656 1674.07C68.3471 1671.81 70.5527 1663.64 70.6136 1656.48C70.6499 1652.2 69.9147 1648.36 68.4148 1645C67.1761 1642.22 65.577 1639.37 64.8624 1638.67C64.1478 1637.97 63.5628 1635.94 63.5628 1634.16C63.5628 1632.38 62.9002 1629.84 62.0904 1628.52C60.1262 1625.32 60.2323 1623.02 62.3849 1622.1C65.792 1620.64 68.5709 1609.33 65.9255 1607.67C64.7289 1606.92 64.8409 1606.31 66.5292 1604.39C67.6698 1603.08 68.3785 1601.07 68.1047 1599.9C67.8298 1598.74 68.2421 1596.92 69.0195 1595.87C71.0779 1593.09 70.753 1591.15 68.2254 1591.13C63.6914 1591.08 61.7164 1589.3 61.4102 1584.99C61.1559 1581.41 60.6858 1580.82 58.4094 1581.21C55.552 1581.7 55.0848 1580.04 56.6946 1575.14C57.365 1573.1 57.3464 1571.81 56.6367 1571.09C55.3174 1569.77 56.4404 1560.93 58.3172 1557.87C59.0789 1556.63 59.4725 1554.43 59.1898 1552.98C58.9071 1551.53 59.6649 1547.87 60.8742 1544.85C65.5663 1533.12 66.5213 1530.08 65.9717 1528.63C65.6585 1527.8 66.0894 1526.7 66.9297 1526.17C68.2509 1525.35 68.1704 1524.56 66.3398 1520.37C64.4531 1516.05 64.0929 1515.8 63.0475 1518.13C61.2796 1522.07 60.3236 1521.28 61.0617 1516.48C61.582 1513.11 61.1923 1511.48 59.1986 1508.69C57.262 1505.98 56.9645 1504.79 57.9118 1503.57C58.591 1502.7 59.8082 1501.64 60.618 1501.23C62.9601 1500.02 62.4153 1491.67 59.7159 1487.38C57.4445 1483.77 57.4082 1483.38 58.8679 1478.58C62.4929 1466.63 63.4185 1462.28 62.6087 1460.95C62.1375 1460.19 62.0217 1458.39 62.3505 1456.95C62.8472 1454.79 62.6951 1454.69 61.4475 1456.34C59.4175 1459.02 58.6333 1457.33 59.3194 1451.74C59.768 1448.08 59.342 1446.27 57.3081 1443.2C55.8897 1441.06 54.7285 1438.19 54.7285 1436.83C54.7285 1435.46 54.0963 1434.35 53.3248 1434.35C52.5523 1434.35 51.7788 1432.73 51.607 1430.75C51.4342 1428.77 50.6303 1427.15 49.8205 1427.15C49.0107 1427.15 47.4647 1426.26 46.3849 1425.18C44.7908 1423.58 44.6769 1422.94 45.7812 1421.75C46.8737 1420.58 46.7294 1419.93 45.045 1418.47C42.4625 1416.21 42.3417 1413.51 44.778 1412.47C46.2239 1411.85 46.5606 1410.37 46.3879 1405.38C46.2681 1401.91 45.8902 1398.61 45.5496 1398.06C45.209 1397.5 45.4259 1396.07 46.0325 1394.88C46.6391 1393.69 47.285 1390.62 47.4676 1388.07C47.7454 1384.18 47.3439 1383.17 44.9665 1381.82C43.4087 1380.94 41.9 1380.59 41.6124 1381.06C41.3258 1381.53 41.2875 1378.48 41.529 1374.29C41.7695 1370.1 41.5339 1365.83 41.0058 1364.79C39.8671 1362.55 41.0794 1354.56 43.3626 1349.24C44.2146 1347.26 44.9125 1344.41 44.9125 1342.91C44.9125 1341.41 45.6036 1339.05 46.4477 1337.68C47.2919 1336.3 47.7483 1334.56 47.4627 1333.8C47.1771 1333.05 47.8485 1330.85 48.9547 1328.92C50.061 1326.98 51.3636 1323.14 51.8485 1320.38C52.7918 1315.02 52.2048 1312.25 50.8718 1315.77C49.7459 1318.74 48.7476 1315.64 49.0107 1310C49.1275 1307.5 48.888 1304.57 48.4777 1303.49C48.0291 1302.31 48.3805 1301.12 49.3621 1300.51C50.5145 1299.79 50.8394 1298.27 50.4742 1295.32C50.1906 1293.03 49.6713 1289.94 49.3209 1288.47C48.8193 1286.35 49.1167 1285.97 50.7245 1286.65C51.9368 1287.17 52.7653 1286.76 52.7653 1285.64C52.7653 1284.61 52.3206 1284.21 51.7768 1284.76C51.233 1285.31 50.5056 1284.55 50.1611 1283.09C49.8166 1281.63 50.0796 1279.88 50.7471 1279.21C51.4136 1278.53 51.8347 1275.91 51.6816 1273.37C51.5285 1270.83 51.9712 1267.05 52.6661 1264.98C53.579 1262.25 53.632 1260.72 52.8566 1259.46C52.2666 1258.5 51.7837 1256.41 51.7837 1254.83C51.7837 1253.25 51.396 1251.95 50.9209 1251.95C50.4468 1251.95 49.5211 1249.83 48.8634 1247.25C47.7876 1243.01 47.9142 1242.11 50.1307 1238.21C52.2038 1234.57 52.4266 1233.29 51.5403 1230.12C50.9611 1228.05 50.062 1226.35 49.5427 1226.35C49.0234 1226.35 49.1059 1225.35 49.7253 1224.14C50.5979 1222.42 50.4939 1221.7 49.2659 1220.93C48.3942 1220.39 47.2782 1220.35 46.7874 1220.84C46.2956 1221.33 45.8941 1221.35 45.8941 1220.88C45.8941 1220.4 47.5511 1218.59 49.5751 1216.84C56.2696 1211.08 56.3403 1210.94 54.3653 1207.38C52.9587 1204.85 52.5542 1200.9 52.3403 1187.62C52.192 1178.49 51.6031 1169.59 51.0298 1167.84C50.3319 1165.72 50.3084 1163.73 50.9572 1161.84C52.1832 1158.27 50.5155 1144.77 48.1066 1138.77C47.1604 1136.41 46.3074 1131.93 46.2122 1128.82C46.1179 1125.7 45.7302 1118.99 45.3523 1113.9C44.8605 1107.28 44.143 1104.19 42.8355 1103.05C41.2836 1101.7 41.1903 1100.96 42.223 1098.2C43.2527 1095.46 43.1525 1094.61 41.5771 1092.7C40.036 1090.84 39.929 1090.03 40.9606 1088C41.8853 1086.19 41.9246 1084.99 41.1147 1083.4C40.514 1082.22 40.3363 1080.74 40.7211 1080.12C41.1059 1079.49 40.9911 1078.47 40.4669 1077.86C39.3302 1076.54 37.4073 1071.67 36.1361 1066.91C35.6315 1065.01 34.7275 1062.97 34.1277 1062.36C33.3739 1061.6 33.3503 1060.65 34.0492 1059.28C34.7727 1057.86 34.4929 1056.3 33.0676 1053.8C31.232 1050.59 31.1947 1050.03 32.5945 1046.78C34.3192 1042.76 34.6019 1036.63 33.1304 1035.15C32.4767 1034.49 32.4914 1033.11 33.1727 1031.03C33.9432 1028.68 33.8706 1027.7 32.8782 1027.08C31.2458 1026.05 30.8806 1014.96 32.4934 1015.38C34.5165 1015.9 39.0239 1013.25 38.4909 1011.84C38.2053 1011.09 36.7731 1011.17 35.3076 1012.02C32.8095 1013.47 32.7614 1013.42 34.5479 1011.16C35.5962 1009.83 36.0379 1008.74 35.5295 1008.73C35.022 1008.71 35.2684 1007.94 36.0782 1007C37.1864 1005.73 37.2473 1005.11 36.3236 1004.5C35.6492 1004.05 35.0966 1002.74 35.0966 1001.59C35.0966 1000.44 33.9403 999.024 32.5268 998.446C31.1133 997.867 30.2259 996.955 30.5547 996.419C30.8836 995.883 30.6519 994.46 30.0404 993.259C29.4279 992.056 29.101 990.91 29.312 990.712C29.5241 990.513 30.5547 989.579 31.6021 988.636C32.6504 987.692 33.7017 985.972 33.9383 984.812C34.1945 983.56 33.9197 983.158 33.261 983.822C32.6504 984.436 32.1518 984.176 32.1518 983.244C32.1518 982.313 32.8144 981.55 33.6242 981.55C34.434 981.55 35.0966 980.529 35.0966 979.283C35.0966 978.036 35.5933 976.747 36.2009 976.417C36.9125 976.03 37.0598 973.992 36.6141 970.683C36.0536 966.526 35.4411 965.55 33.3945 965.55C30.8797 965.55 30.8767 965.531 32.7358 962.078C34.4144 958.963 34.4301 958.712 32.888 959.628C31.9437 960.19 31.1702 959.952 31.1702 959.1C31.1702 958.248 31.6119 957.55 32.1518 957.55C32.6917 957.55 33.1334 956.47 33.1334 955.15C33.1334 953.83 33.686 952.931 34.3604 953.15C35.0357 953.371 35.4774 952.651 35.342 951.55C35.2075 950.451 35.5864 949.55 36.1842 949.55C36.8527 949.55 37.0362 951.083 36.6612 953.521C36.2136 956.427 36.5562 958.009 37.9344 959.412C39.4284 960.934 39.6355 962.124 38.9307 965.145C37.8117 969.942 37.8195 970.35 39.023 970.35C39.5628 970.35 40.0046 969.27 40.0046 967.95C40.0046 966.63 40.5081 965.55 41.1236 965.55C42.5037 965.55 44.8389 960.72 44.8811 957.779C44.9008 956.451 44.3108 955.984 43.3626 956.577C42.0757 957.382 41.9265 956.697 42.486 952.548C42.9238 949.296 42.7442 947.132 41.9717 946.353C41.0833 945.459 41.0568 944.324 41.8666 941.859C42.4625 940.044 42.9493 936.736 42.9493 934.505C42.9493 931.444 42.5636 930.691 41.3778 931.433C40.514 931.974 39.4588 931.499 39.0338 930.379C37.9864 927.616 36.0782 929.787 36.0782 933.739C36.0782 935.499 35.6365 936.494 35.0966 935.95C34.5567 935.406 34.115 933.588 34.115 931.912C34.115 928.558 37.4966 924.812 39.0828 926.411C39.717 927.049 39.8563 925.945 39.4647 923.4C38.6686 918.233 39.7395 912.75 41.5427 912.75C42.8139 912.75 43.3812 910.811 43.0652 907.55C43.0014 906.889 43.3911 906.35 43.9309 906.35C44.4708 906.35 44.9125 905.63 44.9125 904.75C44.9125 902.448 42.2239 902.776 41.636 905.15C41.3405 906.345 41.1098 906.022 41.0637 904.35C41.0215 902.811 40.5327 901.55 39.979 901.55C39.3626 901.55 39.4774 899.843 40.2755 897.15C41.8146 891.95 41.4024 885.71 39.4372 884.481C38.5567 883.929 38.0414 881.276 38.0414 877.284C38.0414 873.79 38.4497 871.372 38.9552 871.881C39.4578 872.388 40.1341 872.102 40.459 871.246C40.783 870.39 39.9162 868.481 38.5322 867.003C36.2451 864.561 36.1528 864.067 37.5192 861.606C39.3381 858.331 39.4755 854.088 37.796 853.081C36.8605 852.521 36.9547 851.192 38.1925 847.486C39.6286 843.188 39.6502 842.238 38.383 839.288C37.5938 837.452 37.2482 835.95 37.6154 835.95C37.9815 835.95 37.7253 834.857 37.0441 833.52C36.036 831.54 36.1027 830.558 37.4014 828.219C38.6313 826.003 38.7295 824.912 37.8313 823.448C36.9567 822.022 36.9469 821.094 37.792 819.716C38.4105 818.708 38.6716 815.884 38.3712 813.44C37.9795 810.244 38.5067 807.5 40.248 803.673C44.144 795.108 45.8941 787.94 45.8941 780.54C45.8941 774.891 46.3525 773.134 48.3982 770.948C50.1494 769.078 50.5921 767.768 49.8706 766.592C49.3032 765.667 48.8389 763.692 48.8389 762.203C48.8389 760.678 47.8073 759.075 46.4762 758.531C44.6809 757.796 44.2392 756.776 44.6387 754.284C45.4132 749.456 42.862 715.617 41.475 712.32C40.2019 709.294 40.6387 701.55 42.0826 701.55C43.5805 701.55 43.0367 699.27 40.4561 694.734C38.8031 691.828 38.4271 690.35 39.342 690.35C40.1008 690.35 41.7921 688.977 43.1005 687.299C44.9803 684.891 45.7498 681.608 46.7619 671.699C47.4657 664.796 48.5719 658.07 49.2188 656.75C49.8667 655.43 50.9817 651.47 51.6983 647.95C52.4139 644.43 53.903 639.937 55.0073 637.968C57.6929 633.172 57.9059 627.803 55.6345 622.185C54.6029 619.635 53.7567 618.569 53.7538 619.817C53.7499 621.064 53.5457 621.756 53.3003 621.355C52.4021 619.891 55.3979 608.766 57.4848 605.816C58.6667 604.147 59.9025 600.584 60.2313 597.899C60.7447 593.721 60.517 592.94 58.6539 592.484C56.5278 591.963 56.5484 591.817 59.5128 586.35C61.477 582.728 62.5557 579.027 62.5656 575.87C62.5744 573.185 63.1113 570.126 63.7592 569.07C64.675 567.577 64.5955 567.15 63.4019 567.15C62.2622 567.15 61.8951 565.604 61.9786 561.15C62.06 556.803 61.6851 555.15 60.6181 555.15C59.8083 555.15 58.5793 553.531 57.8873 551.55C57.1953 549.569 56.2156 547.95 55.7091 547.95C55.2036 547.95 55.0446 546.87 55.3548 545.55C55.7013 544.078 55.3548 543.15 54.4576 543.15C53.6527 543.15 52.7349 541.889 52.4178 540.35C52.0998 538.811 51.4009 536.47 50.864 535.15C49.5133 531.832 45.8941 518.056 45.8941 516.233C45.8941 515.412 45.2404 513.859 44.4424 512.777C43.3234 511.265 43.234 510.072 44.0527 507.579C44.6897 505.638 44.7516 503.944 44.2068 503.347C43.7062 502.798 43.3528 500.55 43.4205 498.35C43.5697 493.515 46.2573 483.161 47.7572 481.651C48.3521 481.051 48.8389 479.121 48.8389 477.361C48.8389 475.601 48.3972 474.606 47.8573 475.15C47.3175 475.694 46.8757 475.376 46.8757 474.444C46.8757 473.513 46.2544 472.75 45.4956 472.75C43.983 472.75 44.2696 468.264 46.1945 461.788C47.1378 458.619 47.0092 457.678 45.3769 455.793C37.0313 446.164 33.9089 441.072 32.5189 434.83C31.6306 430.838 31.7209 428.817 32.9793 424.508C33.8402 421.561 34.8895 418.91 35.3116 418.617C36.9204 417.497 35.9899 414.814 34.2495 415.556C32.6112 416.254 32.4748 415.568 32.9312 408.942C33.4063 402.057 33.3238 401.708 31.7317 403.859C30.6117 405.371 30.1611 407.718 30.4262 410.659C30.648 413.129 30.4036 415.15 29.8814 415.15C29.3189 415.15 29.158 411.587 29.4868 406.396C29.9619 398.888 29.7027 396.828 27.661 391.924C25.9854 387.9 25.2807 384.004 25.2807 378.766C25.2807 372.884 25.8294 370.392 27.8986 366.872C30.9307 361.713 31.3577 354.307 28.8802 349.844C27.98 348.224 27.2439 344.974 27.2439 342.624C27.2439 340.273 26.7727 338.35 26.1965 338.35C25.58 338.35 25.4043 339.833 25.7695 341.95C26.2093 344.496 26.117 344.905 25.4573 343.352C24.943 342.142 24.6524 337.462 24.8115 332.952C25.0353 326.563 24.6701 323.993 23.1585 321.329C22.0915 319.448 20.4758 318.184 19.5688 318.52C17.3886 319.328 13.5261 309.345 13.424 302.64C13.3818 299.84 13.0942 298.596 12.785 299.875C11.8829 303.609 9.80582 287.652 10.1376 279.547C10.3575 274.182 9.93048 271.158 8.54839 268.292C6.50471 264.057 6.79526 261.139 9.11576 262.592C10.0139 263.153 10.5567 262.524 10.5567 260.921C10.5567 259.507 10.0434 258.529 9.41711 258.75C7.80238 259.316 5.476 245.867 6.59698 242.451C7.08778 240.956 7.28312 236.184 7.03183 231.843C6.78152 227.502 6.51846 222.87 6.44876 221.55C6.37907 220.23 6.61858 215.009 6.98079 209.95C7.39993 204.094 7.27723 200.75 6.6441 200.75C6.09637 200.75 5.64876 199.11 5.64876 197.107C5.64876 193.491 3.28312 186.601 1.28852 184.408C0.686802 183.747 0.249992 177.188 0.249993 168.809C0.249993 156.55 0.491466 154.352 1.84018 154.352ZM10.6735 225.668C11.6797 226.681 11.7415 225.35 10.9199 220.35C10.594 218.369 9.99919 216.75 9.59674 216.75C8.62594 216.75 9.56827 224.555 10.6735 225.668ZM35.7513 409.817C36.1106 409.23 35.8161 408.75 35.0966 408.75C34.3771 408.75 34.0826 409.23 34.4419 409.817C34.8021 410.403 35.3911 410.403 35.7513 409.817ZM35.0966 1055.15C35.6365 1055.15 36.0782 1054.43 36.0782 1053.55C36.0782 1052.67 35.6365 1051.95 35.0966 1051.95C34.5567 1051.95 34.115 1052.67 34.115 1053.55C34.115 1054.43 34.5567 1055.15 35.0966 1055.15ZM37.7145 963.417C38.0738 962.83 38.0738 961.87 37.7145 961.283C37.3543 960.697 37.0598 961.177 37.0598 962.35C37.0598 963.523 37.3543 964.003 37.7145 963.417ZM39.077 940.248C39.5776 938.211 40.4158 936.976 40.939 937.502C41.4936 938.062 41.2011 939.772 40.2382 941.606C37.8146 946.219 37.6536 946.03 39.077 940.248ZM40.6593 1053.02C41.0185 1052.43 40.7241 1051.95 40.0046 1051.95C39.285 1051.95 38.9906 1052.43 39.3498 1053.02C39.7101 1053.6 40.299 1053.6 40.6593 1053.02ZM40.9862 855.15C41.526 855.15 41.9678 854.833 41.9678 854.444C41.9678 854.056 41.526 853.294 40.9862 852.75C40.4463 852.206 40.0046 852.524 40.0046 853.456C40.0046 854.387 40.4463 855.15 40.9862 855.15ZM44.9125 867.15C45.4524 866.606 45.8941 865.441 45.8941 864.561C45.8941 863.681 45.4524 863.406 44.9125 863.95C44.3727 864.494 43.9309 865.659 43.9309 866.539C43.9309 867.419 44.3727 867.694 44.9125 867.15ZM44.7486 1101.55C46.0266 1101.55 46.8767 1099.65 46.2907 1098.1C45.6634 1096.45 43.9309 1097.87 43.9309 1100.04C43.9309 1100.87 44.299 1101.55 44.7486 1101.55ZM48.5121 670.617C48.8713 670.03 48.8713 669.07 48.5121 668.483C48.1518 667.897 47.8573 668.377 47.8573 669.55C47.8573 670.723 48.1518 671.203 48.5121 670.617ZM48.8389 1113.55C49.3788 1114.09 49.8205 1113.37 49.8205 1111.95C49.8205 1110.53 49.3788 1109.81 48.8389 1110.35C48.299 1110.89 47.8573 1111.61 47.8573 1111.95C47.8573 1112.29 48.299 1113.01 48.8389 1113.55ZM52.4993 691.316C53.4976 689.691 51.9948 688.348 50.6706 689.683C49.6694 690.691 49.6694 691.068 50.6667 691.609C51.3489 691.98 52.1734 691.848 52.4993 691.316ZM52.7653 1209.55C53.3052 1210.09 53.7469 1210.86 53.7469 1211.24C53.7469 1211.63 53.3052 1211.95 52.7653 1211.95C52.2254 1211.95 51.7837 1211.19 51.7837 1210.26C51.7837 1209.32 52.2254 1209.01 52.7653 1209.55ZM52.7074 1282.35C54.0747 1282.35 54.9425 1279.41 54.1729 1277.38C53.7047 1276.15 53.2463 1276.27 52.6573 1277.78C51.5471 1280.63 51.5658 1282.35 52.7074 1282.35ZM54.4016 1309.02C54.7609 1308.43 54.4664 1307.95 53.7469 1307.95C53.0274 1307.95 52.7329 1308.43 53.0922 1309.02C53.4524 1309.6 54.0414 1309.6 54.4016 1309.02ZM54.1798 1272.75C54.4183 1272.75 54.9277 1271.92 55.3125 1270.9C55.7474 1269.76 55.5825 1269.49 54.8806 1270.2C53.7488 1271.34 53.3611 1272.75 54.1798 1272.75ZM57.6733 1315.95C58.2131 1315.95 58.6549 1315.19 58.6549 1314.26C58.6549 1313.32 58.2131 1313.01 57.6733 1313.55C57.1334 1314.09 56.6917 1314.86 56.6917 1315.24C56.6917 1315.63 57.1334 1315.95 57.6733 1315.95ZM61.2727 1851.42C61.632 1850.83 61.3375 1850.35 60.618 1850.35C59.8985 1850.35 59.604 1850.83 59.9633 1851.42C60.3235 1852 60.9125 1852 61.2727 1851.42ZM62.2543 1625.82C62.6136 1625.23 62.6136 1624.27 62.2543 1623.68C61.8941 1623.1 61.5996 1623.58 61.5996 1624.75C61.5996 1625.92 61.8941 1626.4 62.2543 1625.82ZM64.2175 1472.22C64.5768 1471.63 64.5768 1470.67 64.2175 1470.08C63.8573 1469.5 63.5628 1469.98 63.5628 1471.15C63.5628 1472.32 63.8573 1472.8 64.2175 1472.22ZM64.5444 1689.55C65.0843 1690.09 65.526 1689.37 65.526 1687.95C65.526 1686.53 65.0843 1685.81 64.5444 1686.35C64.0045 1686.89 63.5628 1687.61 63.5628 1687.95C63.5628 1688.29 64.0045 1689.01 64.5444 1689.55ZM66.1189 587.516C66.4448 586.985 66.4802 585.604 66.1965 584.451C65.8833 583.174 65.6507 583.553 65.6036 585.417C65.5614 587.104 65.793 588.048 66.1189 587.516ZM66.8836 1539.95C67.6305 1539.95 68.515 1538.69 68.8477 1537.15C69.1815 1535.61 69.7243 1533.38 70.0561 1532.2C70.3869 1531.02 69.5034 1531.69 68.0919 1533.69C65.2502 1537.72 64.8193 1539.95 66.8836 1539.95ZM68.4708 1943.95C69.0107 1943.41 69.4524 1943.72 69.4524 1944.66C69.4524 1945.59 69.0107 1946.35 68.4708 1946.35C67.9309 1946.35 67.4892 1946.03 67.4892 1945.64C67.4892 1945.26 67.9309 1944.49 68.4708 1943.95ZM73.3787 1972.75C73.9186 1973.29 74.3603 1972.98 74.3603 1972.04C74.3603 1971.11 73.9186 1970.35 73.3787 1970.35C72.8389 1970.35 72.3972 1970.67 72.3972 1971.06C72.3972 1971.44 72.8389 1972.21 73.3787 1972.75Z"/>
</svg>
