<?xml version="1.0" encoding="UTF-8" standalone="no"?>
<svg width="373px" height="203px" viewBox="0 0 373 203" version="1.1" xmlns="http://www.w3.org/2000/svg" xmlns:xlink="http://www.w3.org/1999/xlink">
    <!-- Generator: Sketch 39.1 (31720) - http://www.bohemiancoding.com/sketch -->
    <title>Artboard</title>
    <desc>Created with Sketch.</desc>
    <defs></defs>
    <g id="Page-1" stroke="none" stroke-width="1" fill="none" fill-rule="evenodd">
        <g id="Artboard">
            <g id="group-5" transform="translate(250.000000, 135.000000)" font-family="WorkSans-Bold, Work Sans" fill="#000000" font-weight="bold">
                <g id="C28EBA17-4E7F-40E7-9D87-4F1F5A81633C">
                    <g id="Wires">
                        <g id="Home">
                            <g id="Group-5">
                                <g id="October" font-size="29">
                                    <text>
                                        <tspan x="0" y="27">October</tspan>
                                    </text>
                                </g>
                                <g id="21-29th" transform="translate(1.000000, 27.000000)" font-size="30">
                                    <text>
                                        <tspan x="0" y="28">21-29th</tspan>
                                    </text>
                                </g>
                            </g>
                        </g>
                    </g>
                </g>
            </g>
            <g id="d-c-design-week-copy" transform="translate(1.000000, 6.000000)" fill="#0000FF">
                <g id="83E209CE-88B7-4AE8-8276-2DD840E3D1A4">
                    <g id="Wires">
                        <g id="Home">
                            <path d="M16.239174,46.75627 L16.239174,11.218367 L24.947137,11.218367 C34.047351,11.218367 41.578562,16.945225 41.578562,29.026543 C41.578562,41.107861 33.968901,46.75627 24.868687,46.75627 L16.239174,46.75627 L16.239174,46.75627 Z M25.260938,56.797885 C41.107861,56.797885 52.796929,46.599369 52.796929,29.026543 C52.796929,11.453717 41.186311,1.176752 25.339388,1.176752 L5.413058,1.176752 L5.413058,56.797885 L25.260938,56.797885 L25.260938,56.797885 Z M88.224867,57.974636 C103.83644,57.974636 111.838352,47.619221 113.956505,39.068158 L103.83644,36.008604 C102.345888,41.186311 97.717331,47.383871 88.224867,47.383871 C79.281554,47.383871 70.965841,40.872511 70.965841,29.026543 C70.965841,16.396074 79.752255,10.433866 88.067967,10.433866 C97.717331,10.433866 102.032088,16.317624 103.36574,21.652232 L113.564255,18.435777 C111.367652,9.414014 103.44419,0 88.067967,0 C73.162445,0 59.747475,11.296817 59.747475,29.026543 C59.747475,46.75627 72.691744,57.974636 88.224867,57.974636 L88.224867,57.974636 L88.224867,57.974636 Z M16.239174,110.263507 L16.239174,74.725604 L24.947137,74.725604 C34.047351,74.725604 41.578562,80.452463 41.578562,92.533781 C41.578562,104.615099 33.968901,110.263507 24.868687,110.263507 L16.239174,110.263507 L16.239174,110.263507 Z M25.260938,120.305122 C41.107861,120.305122 52.796929,110.106607 52.796929,92.533781 C52.796929,74.960954 41.186311,64.683989 25.339388,64.683989 L5.413058,64.683989 L5.413058,120.305122 L25.260938,120.305122 L25.260938,120.305122 Z M70.10289,96.613187 C70.338241,93.082931 73.319345,89.003525 78.732403,89.003525 C84.694612,89.003525 87.205016,92.769131 87.361916,96.613187 L70.10289,96.613187 L70.10289,96.613187 Z M88.381767,106.654802 C87.126566,110.106607 84.459262,112.53856 79.595354,112.53856 C74.417647,112.53856 70.10289,108.851405 69.86754,103.752147 L97.481981,103.752147 C97.481981,103.595247 97.638881,102.026245 97.638881,100.535692 C97.638881,88.140574 90.499921,80.530913 78.575503,80.530913 C68.690788,80.530913 59.590575,88.532825 59.590575,100.849493 C59.590575,113.872212 68.926138,121.481874 79.516904,121.481874 C89.009368,121.481874 95.128477,115.911915 97.08973,109.243655 L88.381767,106.654802 L88.381767,106.654802 Z M103.412676,109.557456 C103.883376,113.950662 107.884332,121.481874 119.49495,121.481874 C129.615015,121.481874 134.478922,115.048964 134.478922,108.772955 C134.478922,103.124546 130.634866,98.495989 123.025205,96.926987 L117.533697,95.750235 C115.415544,95.357985 114.003441,94.181233 114.003441,92.29843 C114.003441,90.101827 116.200045,88.454374 118.945799,88.454374 C123.339005,88.454374 124.986458,91.357029 125.300258,93.632082 L134.008221,91.670829 C133.537521,87.512973 129.850365,80.530913 118.867349,80.530913 C110.551636,80.530913 104.432527,86.257771 104.432527,93.161381 C104.432527,98.57444 107.805882,103.046096 115.258643,104.693549 L120.357901,105.8703 C123.339005,106.497901 124.515757,107.910003 124.515757,109.635906 C124.515757,111.675609 122.868305,113.479962 119.416499,113.479962 C114.866393,113.479962 112.591339,110.655758 112.355989,107.596203 L103.412676,109.557456 L103.412676,109.557456 Z M154.138387,120.305122 L154.138387,81.707664 L143.704522,81.707664 L143.704522,120.305122 L154.138387,120.305122 L154.138387,120.305122 Z M142.44932,69.077196 C142.44932,72.529001 145.351974,75.431655 148.882229,75.431655 C152.490935,75.431655 155.315139,72.529001 155.315139,69.077196 C155.315139,65.46849 152.490935,62.565836 148.882229,62.565836 C145.351974,62.565836 142.44932,65.46849 142.44932,69.077196 L142.44932,69.077196 L142.44932,69.077196 Z M163.363987,122.423275 C164.462288,129.797586 171.522799,136.387396 182.113565,136.387396 C196.626836,136.387396 202.353695,126.738031 202.353695,116.147266 L202.353695,81.707664 L192.31208,81.707664 L192.31208,86.257771 C190.978428,83.668917 187.448173,81.001613 181.329063,81.001613 C170.738298,81.001613 163.363987,89.631126 163.363987,99.829641 C163.363987,110.655758 171.052098,118.579219 181.329063,118.579219 C186.899022,118.579219 190.507727,116.147266 192.076729,113.636862 L192.076729,116.461066 C192.076729,123.913827 188.389574,127.208732 181.799764,127.208732 C176.857407,127.208732 173.484052,124.149178 172.778001,119.912871 L163.363987,122.423275 L163.363987,122.423275 Z M183.133416,109.635906 C177.720358,109.635906 173.876302,105.8703 173.876302,99.829641 C173.876302,93.867433 177.955708,90.101827 183.133416,90.101827 C188.154224,90.101827 192.23363,93.867433 192.23363,99.829641 C192.23363,105.79185 188.468024,109.635906 183.133416,109.635906 L183.133416,109.635906 L183.133416,109.635906 Z M224.209763,98.103739 C224.209763,93.632082 226.877067,90.101827 231.427174,90.101827 C236.447981,90.101827 238.566134,93.475182 238.566134,97.789938 L238.566134,120.305122 L249,120.305122 L249,95.985586 C249,87.512973 244.606793,80.687813 235.035879,80.687813 C230.878023,80.687813 226.249466,82.492166 223.895963,86.493122 L223.895963,81.707664 L213.775898,81.707664 L213.775898,120.305122 L224.209763,120.305122 L224.209763,98.103739 L224.209763,98.103739 Z M57.582386,166.631784 L45.187267,128.191226 L33.968901,128.191226 L21.652232,166.474883 L11.453717,128.191226 L0,128.191226 L15.454673,183.812359 L26.75149,183.812359 L39.460409,144.19505 L52.169328,183.812359 L63.309244,183.812359 L78.685467,128.191226 L67.624001,128.191226 L57.582386,166.631784 L57.582386,166.631784 Z M90.656821,160.120424 C90.892171,156.590169 93.873276,152.510763 99.286334,152.510763 C105.248543,152.510763 107.758946,156.276368 107.915846,160.120424 L90.656821,160.120424 L90.656821,160.120424 Z M108.935698,170.162039 C107.680496,173.613844 105.013192,176.045798 100.149285,176.045798 C94.971577,176.045798 90.656821,172.358642 90.42147,167.259385 L118.035912,167.259385 C118.035912,167.102484 118.192812,165.533482 118.192812,164.04293 C118.192812,151.647811 111.053851,144.03815 99.129433,144.03815 C89.244719,144.03815 80.144505,152.040062 80.144505,164.35673 C80.144505,177.37945 89.480069,184.989111 100.070835,184.989111 C109.563299,184.989111 115.682408,179.419153 117.643661,172.750893 L108.935698,170.162039 L108.935698,170.162039 Z M134.871172,160.120424 C135.106523,156.590169 138.087627,152.510763 143.500685,152.510763 C149.462894,152.510763 151.973298,156.276368 152.130198,160.120424 L134.871172,160.120424 L134.871172,160.120424 Z M153.15005,170.162039 C151.894848,173.613844 149.227544,176.045798 144.363637,176.045798 C139.185929,176.045798 134.871172,172.358642 134.635822,167.259385 L162.250263,167.259385 C162.250263,167.102484 162.407163,165.533482 162.407163,164.04293 C162.407163,151.647811 155.268203,144.03815 143.343785,144.03815 C133.45907,144.03815 124.358857,152.040062 124.358857,164.35673 C124.358857,177.37945 133.694421,184.989111 144.285186,184.989111 C153.777651,184.989111 159.89676,179.419153 161.858013,172.750893 L153.15005,170.162039 L153.15005,170.162039 Z M208.896569,145.214902 L195.246248,145.214902 L181.909728,159.571273 L181.909728,140.712114 L171.475863,139.466874 L171.475863,183.812359 L181.909728,183.812359 L181.909728,173.613844 L186.224485,169.063737 L196.423,183.812359 L209.210369,183.812359 L193.441896,161.454076 L208.896569,145.214902 L208.896569,145.214902 Z M215.141064,177.222549 C215.141064,181.145055 218.357519,184.36151 222.280024,184.36151 C226.28098,184.36151 229.497435,181.145055 229.497435,177.222549 C229.497435,173.300044 226.28098,170.083589 222.280024,170.083589 C218.357519,170.083589 215.141064,173.300044 215.141064,177.222549 L215.141064,177.222549 L215.141064,177.222549 Z" id="DC-Design-Week.-Copy"></path>
                        </g>
                    </g>
                </g>
            </g>
        </g>
    </g>
</svg>