<?xml version="1.0" encoding="UTF-8"?>
<svg width="300px" height="52px" viewBox="0 0 300 52" version="1.1" xmlns="http://www.w3.org/2000/svg" xmlns:xlink="http://www.w3.org/1999/xlink">
    <!-- Generator: Sketch 51.3 (57544) - http://www.bohemiancoding.com/sketch -->
    <title>dcdw-lockup-collaboration</title>
    <desc>Created with Sketch.</desc>
    <defs>
        <polygon id="path-1" points="0.157143656 0.00905533818 98.9388094 0.00905533818 98.9388094 51.1458748 0.157143656 51.1458748"></polygon>
    </defs>
    <g id="dcdw-lockup-collaboration" stroke="none" stroke-width="1" fill="none" fill-rule="evenodd">
        <g id="Group-3" transform="translate(200.894354, 0.158636)">
            <mask id="mask-2" fill="white">
                <use xlink:href="#path-1"></use>
            </mask>
            <g id="Clip-2"></g>
            <path d="M92.0092957,35.3245221 C88.1200279,38.856104 84.6553549,41.1162493 78.9989547,41.1162493 C70.5134321,41.1162493 64.6443991,34.0530855 64.6443991,25.5774567 L64.6443991,25.4360928 C64.6443991,16.9604639 70.6551314,10.0384964 78.9989547,10.0384964 C83.9485355,10.0384964 87.8371325,12.1576132 91.6556344,15.6184293 L98.5851481,7.63715484 C93.9888932,3.11669648 88.4027557,0.00887087759 79.0692174,0.00887087759 C63.8669816,0.00887087759 53.2604975,11.5218949 53.2604975,25.5774567 L53.2604975,25.7186529 C53.2604975,39.9154108 64.0787759,51.1458748 78.6451258,51.1458748 C88.1909614,51.1458748 93.8475293,47.7556568 98.9388094,42.3169201 L92.0092957,35.3245221 Z M34.3801174,25.7186529 C34.3801174,34.4770095 28.3697205,40.480531 19.4604416,40.480531 L11.0458524,40.480531 L11.0458524,10.6742146 L19.4604416,10.6742146 C28.3697205,10.6742146 34.3801174,16.8191001 34.3801174,25.5774567 L34.3801174,25.7186529 Z M19.4604416,0.856383454 L0.157143656,0.856383454 L0.157143656,50.2983622 L19.4604416,50.2983622 C35.0166741,50.2983622 45.7641867,39.4918222 45.7641867,25.5774567 L45.7641867,25.4360928 C45.7641867,11.5218949 35.0166741,0.856383454 19.4604416,0.856383454 Z" id="Fill-1" fill="#000000" mask="url(#mask-2)"></path>
        </g>
        <g id="Group-4" transform="translate(139.000000, 1.000000)" fill="#000000">
            <path d="M46.946976,31.2829346 L41.001308,31.2829346 C41.001308,31.2829346 40.9104192,31.2634824 40.9781666,31.2410117 C41.0450755,31.2019396 42.9539072,30.5878535 43.1081833,30.5432476 C43.399128,30.4424651 43.4749245,30.3780715 43.4873337,29.9248016 C43.4982337,29.4814254 43.6221576,26.8954556 43.6221576,26.7428563 C43.6221576,26.5795249 43.6665959,26.2619173 43.2428396,26.2297205 C43.0431191,26.2127837 42.3951593,26.1557686 41.7134936,26.1433594 C40.8995193,26.1163611 40.0536836,26.1361487 39.9066182,26.1433594 C39.4504975,26.1485579 39.3389827,26.1752208 39.0711794,26.375109 C38.8686082,26.533242 36.0150028,30.0633147 35.9026495,30.2211124 C35.7911347,30.3861207 35.8250084,30.5638737 36.1265176,30.6520794 C36.4389268,30.7458189 38.2441252,31.1179262 38.6589939,31.2019396 C38.7126551,31.2143488 38.7019229,31.2829346 38.624114,31.2829346 L33.0238904,31.2829346 C32.9685523,31.2829346 32.9685523,31.2215595 33.0131582,31.2019396 C33.0577641,31.1767859 33.7939296,30.9108273 34.1732476,30.6128396 C34.3758189,30.4924371 44.993706,18.9190442 45.1729681,18.7431358 C45.2283063,18.6921576 45.2952152,18.6985299 45.3166797,18.748502 C45.3631302,18.8377138 45.1935942,29.8293851 45.2049972,30.0007658 C45.2167356,30.1890833 45.2283063,30.4228452 45.5397093,30.5682337 C45.8199217,30.701213 46.8792286,31.157166 47.0138849,31.2089827 C47.0675461,31.2339687 47.0353494,31.2829346 46.946976,31.2829346 Z M32.3427278,30.5311738 C32.1777194,30.5953997 30.2465847,31.3342482 28.383365,31.3842202 C23.5872219,31.5118334 21.8363555,28.1655506 22.6619005,25.1182616 C23.0856568,23.5111068 24.1332253,22.0049022 25.4725769,20.9546506 C26.2409391,20.3558245 28.5056121,18.9504025 31.4752599,18.9504025 C32.0303186,18.9504025 33.4608944,19.0210006 34.5084628,19.2931638 C35.021431,19.4261431 34.9429514,19.7097093 34.8867747,19.9184852 C34.8547457,20.0194354 33.7266853,23.4094857 33.6946562,23.4933315 C33.6500503,23.6192677 33.5385355,23.6244662 33.5385355,23.4861207 C33.5385355,23.4094857 33.683924,20.4068027 33.6713471,20.2791895 C33.6713471,19.9632588 33.6713471,19.7668921 33.3153382,19.659905 C32.8236669,19.495735 30.469782,19.2931638 28.7296478,20.1034489 C25.8188597,21.4615819 24.1206484,24.5997596 24.4669312,27.0973561 C24.7471437,29.1577809 26.3881722,30.8417384 28.9972834,30.9103242 C29.8120961,30.9307826 30.4144438,30.8095416 30.5920291,30.753365 C30.8497708,30.67673 30.882806,30.5999273 30.948038,30.4498435 C30.995327,30.2972443 31.4397093,28.4573337 31.4521185,28.3815372 C31.4752599,28.2975238 31.5850978,28.0387759 31.3172946,27.9648239 C31.049659,27.8933874 28.6850419,27.2546506 28.5627949,27.2232923 C28.4387032,27.1927725 28.4950475,27.1278759 28.5859363,27.1278759 L33.0245612,27.1278759 C33.2029849,27.1278759 33.6713471,27.0849469 33.5491001,27.5266462 C33.4144438,27.9772331 32.7451873,30.0948407 32.6890106,30.2402292 C32.6336724,30.3911515 32.5006931,30.4749972 32.3427278,30.5311738 Z M21.178502,19.7611906 C20.8875573,19.8871269 20.7867747,20.0449245 20.7108105,20.273488 C20.6537954,20.4492286 18.4114254,29.9177585 18.3783902,30.0829346 C18.3311012,30.2969089 18.3212074,30.4800279 18.5675461,30.5754444 C18.8244494,30.6824315 20.1067859,31.1305031 20.20673,31.1767859 C20.3076803,31.2143488 20.2843712,31.2829346 20.1728563,31.2829346 L14.6635215,31.2829346 C14.5645836,31.2829346 14.5074008,31.251744 14.6065064,31.2089827 C14.7180212,31.157166 15.9351258,30.7208329 16.0466406,30.6762269 C16.1796199,30.6254164 16.4920291,30.5118893 16.5810732,30.2326831 C16.6374176,30.0257518 18.9466965,20.5134544 18.9914701,20.3288262 C19.0466406,20.0959027 19.0234992,19.8621409 18.7468083,19.7665567 C18.6014198,19.709374 17.1834209,19.2312856 17.1398211,19.2116657 C17.0613415,19.1848351 17.0613415,19.1348631 17.1290889,19.1348631 L22.9077362,19.1348631 C22.9738066,19.1348631 23.0309894,19.179469 22.9506652,19.204455 C22.8614533,19.2240749 21.9128228,19.5024427 21.8138849,19.533801 C21.7013639,19.5720347 21.3560872,19.6773449 21.178502,19.7611906 Z M0.394991615,0.595567356 L0.394991615,31.2017719 C0.428529905,31.1947289 0.451671325,31.1891951 0.451671325,31.182152 C0.495438793,31.1625321 1.24401342,30.9108273 1.62232532,30.6128396 C1.81248742,30.4924371 12.4320514,18.9190442 12.6114813,18.7431358 C12.6658133,18.6921576 12.7337283,18.6985299 12.7551928,18.748502 C12.8006372,18.8377138 12.6426719,29.8293851 12.6426719,30.0007658 C12.6534041,30.1890833 12.6765456,30.4228452 12.9782225,30.5682337 C13.2565903,30.701213 14.3175741,31.157166 14.452398,31.2089827 C14.50673,31.2339687 14.4738625,31.2829346 14.382806,31.2829346 L8.43898267,31.2829346 C8.43898267,31.2829346 8.34876467,31.2634824 8.41567356,31.2410117 C8.4835886,31.2019396 10.4019788,30.5878535 10.5466965,30.5432476 C10.8374734,30.4424651 10.9151146,30.3780715 10.9258468,29.9248016 C10.9365791,29.4814254 11.0606708,26.8954556 11.0606708,26.7428563 C11.0606708,26.5795249 11.1052767,26.2619173 10.6813527,26.2297205 C10.4913583,26.2127837 9.83367244,26.1557686 9.15183902,26.1433594 C8.33820011,26.1163611 7.49035215,26.1361487 7.34496367,26.1433594 C6.88901062,26.1485579 6.77648966,26.1752208 6.51941867,26.375109 C6.30795975,26.533242 3.45250978,30.0633147 3.35172722,30.2211124 C3.22948016,30.3861207 3.26167691,30.5638737 3.56503074,30.6520794 C3.87727222,30.7458189 5.68247065,31.1179262 6.09566238,31.2019396 C6.16072666,31.2143488 6.14026831,31.2829346 6.06262717,31.2829346 L0.462403577,31.2829346 C0.451671325,31.2829346 0.428529905,31.2831023 0.394991615,31.2901453 L0.394991615,49.5007658 L49.2981778,49.5007658 L49.3000224,0.595567356 L0.394991615,0.595567356 Z" id="Fill-8"></path>
            <path d="M43.2991839,21.6521465 C43.1885075,21.7851258 40.1526216,25.0421968 39.983924,25.2313527 C39.8172387,25.4087703 39.8065064,25.6559475 40.2527334,25.6623197 C40.2527334,25.6623197 42.7511683,25.6675182 43.1519508,25.6675182 C43.5550811,25.6675182 43.6665959,25.5291727 43.6665959,25.2813248 C43.6665959,25.1107826 43.7113695,22.0956903 43.7113695,21.752929 C43.7113695,21.4175461 43.5212074,21.4058077 43.2991839,21.6521465" id="Fill-4"></path>
            <path d="M10.5921576,25.6675685 C11.0035048,25.6675685 11.1052935,25.529223 11.1052935,25.2812074 C11.1052935,25.1108329 11.1596255,22.0955729 11.1596255,21.7528116 C11.1596255,21.4174287 10.9597373,21.405858 10.7482784,21.6521968 C10.6367636,21.7851761 7.59115148,25.0422471 7.43503074,25.2312353 C7.26817775,25.4088206 7.25576859,25.6559978 7.70283399,25.66237 C7.70283399,25.66237 10.1896982,25.6675685 10.5921576,25.6675685" id="Fill-6"></path>
        </g>
        <g id="Group-2" transform="translate(90.000000, 10.000000)" fill="#87C5B7">
            <polygon id="Fill-10" points="1.00626607 24.6641867 7.94533818 31.6034265 16.7417608 22.8071716 25.5871492 31.6523924 32.3308608 24.9085131 23.4859754 16.0632923 32.282398 7.26686976 25.3428228 0.327629961 16.5462325 9.12388485 7.70151481 0.278664058 0.957300168 7.02254332 9.80268865 15.8677641"></polygon>
        </g>
        <g id="Group" transform="translate(0.000000, 1.000000)" fill="#000000">
            <polygon id="Fill-12" points="0.396254891 34.3564002 73.2954164 34.3564002 73.2954164 22.9954723 0.396254891 22.9954723"></polygon>
            <polygon id="Fill-14" points="0.402124092 48.9571269 73.3004472 48.9571269 73.3004472 37.6055897 0.402124092 37.6055897"></polygon>
            <path d="M8.53014533,12.7427166 C6.81583566,13.9192398 5.17279486,15.0467971 3.27603689,16.3485858 C3.92315819,14.1461263 4.48425377,12.2366238 5.07234768,10.2352264 C3.4836389,9.01158189 1.90448854,7.79548351 1.67691448e-05,6.32885411 L6.33238122,6.32885411 C7.0680436,4.27178312 7.74786473,2.37049748 8.53198994,0.178099497 C9.29984908,2.33477921 9.96759642,4.21007267 10.6953773,6.25406372 L17.1397596,6.25406372 C15.1762605,7.77368362 13.6150531,8.9819005 11.9897876,10.2397541 C12.5644662,12.1977194 13.131934,14.1320402 13.7824092,16.3484181 C11.8876635,15.0476356 10.2419396,13.9178983 8.53014533,12.7427166" id="Fill-15"></path>
            <path d="M45.035299,6.25040805 C43.0516769,7.77640022 41.4928172,8.97572946 39.8631917,10.2295584 C40.4328396,12.1793069 40.9984628,14.1151369 41.649441,16.3429178 C39.7619061,15.0485075 38.121213,13.9234656 36.4028787,12.7450978 C34.738038,13.8860704 33.0710173,15.02872 31.151621,16.3440917 C31.79237,14.1587367 32.3507826,12.2540973 32.9407211,10.2429737 C31.3647568,9.02335383 29.7899665,7.80474008 27.8802963,6.32670766 L34.2015931,6.32670766 C34.9419508,4.26192286 35.6224427,2.36449413 36.4053941,0.181486864 C37.1749301,2.34386808 37.841839,4.21832309 38.5649245,6.25040805 L45.035299,6.25040805 Z" id="Fill-16"></path>
            <path d="M64.3914701,12.7474623 C62.6722974,13.9259978 61.0332812,15.0496982 59.1439016,16.3449469 C59.7928675,14.1337675 60.3536277,12.2229234 60.9373617,10.2335998 C59.3399329,9.00391839 57.7622918,7.78949693 55.8514477,6.31833985 L62.200749,6.31833985 C62.9357406,4.26546115 63.614891,2.36820011 64.3971716,0.183348239 C65.1697261,2.34807714 65.8394857,4.22471213 66.5691112,6.26920626 L72.9925321,6.26920626 C71.0370822,7.77943544 69.4720179,8.98815539 67.8539631,10.2379598 C68.428474,12.1925713 68.9907434,14.105763 69.6462493,16.3360593 C67.7504975,15.0414813 66.0973952,13.9124148 64.3914701,12.7474623" id="Fill-17"></path>
        </g>
    </g>
</svg>