<?xml version="1.0" encoding="UTF-8"?>
<svg width="800px" height="600px" viewBox="0 0 800 600" version="1.1" xmlns="http://www.w3.org/2000/svg" xmlns:xlink="http://www.w3.org/1999/xlink">
    <!-- Generator: Sketch 51.3 (57544) - http://www.bohemiancoding.com/sketch -->
    <title>dcdw-primary-lockup</title>
    <desc>Created with Sketch.</desc>
    <defs>
        <polygon id="path-1" points="0.281768327 0.0754784555 58.6577057 0.0754784555 58.6577057 60.772244 0.281768327 60.772244"></polygon>
        <polygon id="path-3" points="0.00560716284 0.0754784555 58.380873 0.0754784555 58.380873 60.772244 0.00560716284 60.772244"></polygon>
        <polygon id="path-5" points="0.0247118075 0.202126469 21.5434583 0.202126469 21.5434583 21.7134527 0.0247118075 21.7134527"></polygon>
    </defs>
    <g id="dcdw-primary-lockup" stroke="none" stroke-width="1" fill="none" fill-rule="evenodd">
        <g id="Group-35" transform="translate(100.000000, 198.000000)">
            <g id="Group-11" transform="translate(248.125350, 121.678120)">
                <g id="Group-3" transform="translate(93.340795, 20.817012)">
                    <mask id="mask-2" fill="white">
                        <use xlink:href="#path-1"></use>
                    </mask>
                    <g id="Clip-2"></g>
                    <path d="M18.3767879,22.8126917 C20.0495355,17.9509121 23.9503749,15.2980862 29.5236262,15.2980862 C34.825249,15.2980862 38.505831,18.0737997 39.6383436,22.8126917 L18.3767879,22.8126917 Z M29.9671628,0.0754784555 C12.49061,0.0754784555 0.281768327,12.5562843 0.281768327,30.4239955 C0.281768327,48.5750867 12.7441074,60.7725126 31.2897146,60.7725126 C40.3800336,60.7725126 48.0732625,58.2089983 54.1645887,53.1612087 C54.6786346,52.7324454 54.8277112,52.0098937 54.5295579,51.4139228 L48.4607275,39.380347 C48.2633016,38.9891886 47.8943033,38.709502 47.4621824,38.6201903 C47.0223391,38.5231561 46.5831673,38.6500727 46.2514382,38.9368103 C42.1608954,42.4464913 37.2020817,44.2236598 31.5093005,44.2236598 C26.5471293,44.2236598 20.761343,42.099653 18.5816004,36.269211 L57.2270397,36.269211 C58.0167431,36.269211 58.6577057,35.6285842 58.6577057,34.838545 L58.6577057,30.8671964 C58.6577057,12.1610968 47.3953665,0.0754784555 29.9671628,0.0754784555 Z" id="Fill-1" fill="#ffffff" mask="url(#mask-2)"></path>
                </g>
                <g id="Group-6" transform="translate(160.492445, 20.817012)">
                    <mask id="mask-4" fill="white">
                        <use xlink:href="#path-3"></use>
                    </mask>
                    <g id="Clip-5"></g>
                    <path d="M18.1039843,22.8126917 C19.776732,17.9509121 23.6775713,15.2980862 29.2508226,15.2980862 C34.5561388,15.2980862 38.2370565,18.0737997 39.3618467,22.8126917 L18.1039843,22.8126917 Z M29.6906659,0.0754784555 C12.214113,0.0754784555 0.00560716284,12.5562843 0.00560716284,30.4239955 C0.00560716284,48.5750867 12.4672748,60.7725126 31.016911,60.7725126 C40.0998433,60.7725126 47.7967655,58.2130274 53.8917851,53.1612087 C54.405831,52.7324454 54.558601,52.0098937 54.2567543,51.4139228 L48.1879239,39.380347 C47.990498,38.9891886 47.6214997,38.709502 47.1893788,38.6201903 C46.7535646,38.5231561 46.3103637,38.6500727 45.9789703,38.9368103 C41.8880918,42.4464913 36.9292781,44.2236598 31.2364969,44.2236598 C26.2702966,44.2236598 20.4848461,42.099653 18.3054393,36.269211 L56.9502071,36.269211 C57.7402462,36.269211 58.380873,35.6285842 58.380873,34.838545 L58.380873,30.8671964 C58.380873,12.1610968 47.1185339,0.0754784555 29.6906659,0.0754784555 Z" id="Fill-4" fill="#ffffff" mask="url(#mask-4)"></path>
                </g>
                <path d="M260.477829,47.5079799 L283.330543,24.6629882 C283.736475,24.2530274 283.859698,23.6382541 283.63944,23.1020481 C283.416161,22.5691998 282.894729,22.2190039 282.317224,22.2190039 L263.000381,22.2190039 C262.605193,22.2190039 262.229144,22.3828539 261.960873,22.6695915 L244.454102,41.2376945 L244.454102,1.57557918 C244.454102,0.785875769 243.813475,0.145249021 243.023772,0.145249021 L228.4569,0.145249021 C227.666861,0.145249021 227.026234,0.785875769 227.026234,1.57557918 L227.026234,78.8325462 C227.026234,79.6219138 227.666861,80.2632121 228.4569,80.2632121 L243.023772,80.2632121 C243.813475,80.2632121 244.454102,79.6219138 244.454102,78.8325462 L244.454102,63.4309793 L248.548674,59.4186682 L262.370498,79.6407163 C262.638769,80.0281813 263.078276,80.2632121 263.55136,80.2632121 L282.317224,80.2632121 C282.861153,80.2632121 283.356732,79.9576721 283.598478,79.4691438 C283.840895,78.9849804 283.784824,78.4041186 283.460817,77.971662 L260.477829,47.5079799 Z" id="Fill-7" fill="#ffffff"></path>
                <path d="M94.5939116,0.685114717 C94.3219474,0.34230554 93.9123223,0.145215445 93.4761724,0.145215445 L76.9088528,0.145215445 C76.2158478,0.145215445 75.6235702,0.64045887 75.5006827,1.32204813 L68.1576497,42.1317851 L58.9219474,1.25892557 C58.772535,0.607218802 58.1916732,0.145215445 57.5248573,0.145215445 L40.7782429,0.145215445 C40.111427,0.145215445 39.5339228,0.607218802 39.3848461,1.25523223 L29.8214438,43.1081701 L19.5949189,1.23676553 C19.4384555,0.595803022 18.8646447,0.145215445 18.2052154,0.145215445 L1.63789591,0.145215445 C1.19435926,0.145215445 0.773318411,0.353721321 0.501354225,0.70391718 C0.23308338,1.05780638 0.140078344,1.5161164 0.255579183,1.94454393 L20.9732065,79.2495243 C21.1410856,79.8753777 21.707174,80.3111919 22.3555232,80.3111919 L36.8256967,80.3111919 C37.4851259,80.3111919 38.058601,79.8606044 38.2150644,79.223671 L49.0936318,34.9677112 L59.972535,79.223671 C60.1289983,79.8606044 60.7028092,80.3111919 61.3619026,80.3111919 L75.828047,80.3111919 C76.4951987,80.3111919 77.0723671,79.8491886 77.2217795,79.1974818 L94.8695691,1.8925014 C94.9662675,1.47146055 94.8658758,1.02423055 94.5939116,0.685114717" id="Fill-9" fill="#ffffff"></path>
            </g>
            <g id="Group-27" transform="translate(246.446558, 0.133632)">
                <path d="M50.5192613,45.2615893 C50.5192613,58.0885618 41.8798657,67.0486066 29.5108674,67.0486066 L18.3418691,67.0486066 L18.3418691,23.4819586 L29.5108674,23.4819586 C41.8798657,23.4819586 50.5192613,32.43831 50.5192613,45.2615893 M68.8526693,45.2615893 C68.8526693,22.0177168 52.3075098,5.14855064 29.5108674,5.14855064 L1.43140459,5.14855064 C0.641701175,5.14855064 0.000738668159,5.78951315 0.000738668159,6.57921656 L0.000738668159,83.9513486 C0.000738668159,84.741052 0.641701175,85.3820145 1.43140459,85.3820145 L29.5108674,85.3820145 C52.3075098,85.3820145 68.8526693,68.509155 68.8526693,45.2615893" id="Fill-12" fill="#ffffff"></path>
                <path d="M94.5434135,48.6395187 C96.2124678,43.7777392 100.112971,41.1289424 105.690252,41.1289424 C110.991539,41.1289424 114.672457,43.9043201 115.804969,48.6395187 L94.5434135,48.6395187 Z M107.456004,86.5993397 C116.54263,86.5993397 124.239552,84.0358254 130.327185,78.9880358 C130.841231,78.5596083 130.990644,77.8367208 130.69249,77.2407499 L124.627353,65.2108674 C124.429927,64.819709 124.060929,64.5400224 123.628808,64.4507107 C123.192658,64.3577057 122.749457,64.4805932 122.417728,64.7676665 C118.323492,68.2770118 113.360985,70.0541802 107.672233,70.0541802 C102.706032,70.0541802 96.9202462,67.9268159 94.7445327,62.0963738 L133.39333,62.0963738 C134.183033,62.0963738 134.823996,61.4554113 134.823996,60.6657079 L134.823996,56.6943593 C134.823996,37.991953 123.561656,25.9063346 106.129759,25.9063346 C88.6532065,25.9063346 76.4447006,38.3831114 76.4447006,56.2508226 C76.4447006,74.4019138 88.906704,86.5993397 107.456004,86.5993397 Z" id="Fill-14" fill="#ffffff"></path>
                <path d="M144.669771,44.884197 C144.669771,59.7754113 159.318567,62.7482149 164.117224,63.7205708 C173.274359,65.6840851 175.241903,66.2652826 175.241903,67.9528036 C175.241903,70.3558254 171.50122,70.7134079 169.273128,70.7134079 C162.280291,70.7134079 156.479731,68.3516844 152.940504,64.06338 C152.664846,63.7279575 152.258914,63.5567208 151.815378,63.5416116 C151.379564,63.5493341 150.969938,63.7541466 150.705361,64.1006491 L142.20329,75.1356799 C141.805081,75.6534191 141.805081,76.3763067 142.211013,76.8903525 C147.132557,83.1532513 156.233956,86.5991382 167.842798,86.5991382 C188.724275,86.5991382 193.109614,76.0371908 193.109614,67.1778735 C193.109614,54.291136 183.613027,50.479944 174.317896,48.4496139 C165.45455,46.5569446 162.649289,45.8864354 162.649289,44.3328819 C162.649289,42.0752434 166.959754,41.8999776 168.282306,41.8999776 C173.770274,41.8999776 179.33211,43.971606 182.122932,47.0599105 C182.40967,47.3728372 182.841791,47.5329938 183.240336,47.5293005 C183.665406,47.5108338 184.059922,47.3097146 184.317112,46.9705988 L192.483425,36.3750755 C192.919239,35.8123447 192.871226,35.0115613 192.371617,34.5012087 C186.794673,28.7973475 179.060481,25.9064689 169.384936,25.9064689 C153.909166,25.9064689 144.669771,32.9996978 144.669771,44.884197" id="Fill-16" fill="#ffffff"></path>
                <g id="Group-20" transform="translate(200.783436, 0.000000)">
                    <mask id="mask-6" fill="white">
                        <use xlink:href="#path-5"></use>
                    </mask>
                    <g id="Clip-19"></g>
                    <path d="M10.7320425,21.7134527 C16.8942138,21.7134527 21.5434583,17.1122216 21.5434583,11.0135087 C21.5434583,4.95206491 16.7934863,0.202092893 10.7320425,0.202092893 C4.6293005,0.202092893 0.0247118075,4.8516732 0.0247118075,11.0135087 C0.0247118075,17.1122216 4.6293005,21.7134527 10.7320425,21.7134527" id="Fill-18" fill="#ffffff" mask="url(#mask-6)"></path>
                </g>
                <path d="M203.513352,27.2288528 C202.723649,27.2288528 202.082686,27.8698153 202.082686,28.6595187 L202.082686,83.8460884 C202.082686,84.6357918 202.723649,85.2767543 203.513352,85.2767543 L218.08056,85.2767543 C218.869927,85.2767543 219.51089,84.6357918 219.51089,83.8460884 L219.51089,28.6595187 C219.51089,27.8698153 218.869927,27.2288528 218.08056,27.2288528 L203.513352,27.2288528 Z" id="Fill-21" fill="#ffffff"></path>
                <path d="M332.390095,25.9063346 C324.707946,25.9063346 319.428819,29.1289424 315.945327,32.6755568 L315.945327,28.6595523 C315.945327,27.8698489 315.304701,27.2288864 314.514997,27.2288864 L300.387633,27.2288864 C299.597594,27.2288864 298.956967,27.8698489 298.956967,28.6595523 L298.956967,83.846122 C298.956967,84.6358254 299.597594,85.2767879 300.387633,85.2767879 L314.954169,85.2767879 C315.744208,85.2767879 316.385171,84.6358254 316.385171,83.846122 L316.385171,57.465596 C316.385171,47.5852378 319.853553,42.7832233 326.987745,42.7832233 C332.784947,42.7832233 335.601287,46.2143369 335.601287,53.2743257 L335.601287,83.846122 C335.601287,84.6358254 336.24225,85.2767879 337.031953,85.2767879 L351.926861,85.2767879 C352.716564,85.2767879 353.357191,84.6358254 353.357191,83.846122 L353.357191,49.6306771 C353.357191,34.553117 345.716004,25.9063346 332.390095,25.9063346" id="Fill-23" fill="#ffffff"></path>
                <path d="M259.0384,69.6104757 C251.37136,69.6104757 246.013665,64.1154561 246.013665,56.2506547 C246.013665,48.3858534 251.37136,42.8951987 259.0384,42.8951987 C266.888092,42.8951987 271.958377,48.136385 271.958377,56.2506547 C271.958377,64.2417012 266.765204,69.6104757 259.0384,69.6104757 M287.628215,27.0564745 L273.557258,27.0564745 C272.858545,27.0564745 272.292457,27.6228987 272.292457,28.3216116 L272.292457,32.3214997 C266.703425,28.2944152 261.891337,25.9068383 255.397773,25.9068383 C242.428774,25.9068383 228.304096,35.3315725 228.304096,56.0314046 C228.304096,74.1331393 238.962071,85.8286066 255.589491,85.8286066 C261.542485,85.8286066 266.723234,84.0756128 270.698276,80.8123783 C271.163302,80.4306212 271.851606,80.8315165 271.792177,81.4305092 C271.072647,88.6949748 266.225305,92.2358814 257.0769,92.2358814 C253.555132,92.2358814 250.406055,91.5334751 247.497717,90.0927364 C246.85944,89.7767879 246.089882,89.9715277 245.722899,90.582272 L238.43728,102.708853 C238.045786,103.359888 238.260336,104.224801 238.928495,104.586077 C244.184119,107.425585 250.279138,108.78507 257.61042,108.78507 C277.892233,108.78507 289.058881,98.6327476 289.058881,80.2023055 L289.058881,28.4871405 C289.058881,27.7004589 288.414896,27.0564745 287.628215,27.0564745" id="Fill-25" fill="#ffffff"></path>
            </g>
            <path d="M197.359709,5.98559597 L182.153553,5.98559597 C181.366536,5.98559597 180.72826,6.62387241 180.72826,7.41122552 L180.72826,159.785372 C180.72826,163.250733 176.747846,165.204846 174.006044,163.08554 L153.218579,147.019172 C149.355008,144.032938 144.610073,142.412904 139.72714,142.412904 L1.42562955,142.412904 C0.638276441,142.412904 0,143.051517 0,143.838534 L0,159.044689 C0,159.832043 0.638276441,160.469983 1.42562955,160.469983 L134.050811,160.469983 C138.617124,160.469983 143.054841,161.984924 146.667935,164.777762 L192.036598,199.325943 C194.803246,201.43249 198.785339,199.459575 198.785339,195.982462 L198.785339,7.41122552 C198.785339,6.62387241 198.147062,5.98559597 197.359709,5.98559597" id="Fill-28" fill="#ffffff"></path>
            <g id="Group-34" transform="translate(22.160045, 39.417348)" fill="#ffffff">
                <path d="M82.8820593,57.4074426 C83.082507,57.4588137 83.2806044,57.5266368 83.4756799,57.5917739 C83.81446,57.705596 84.1532401,57.816732 84.5004141,57.8845551 C84.6196083,57.9090655 84.7441746,57.9198097 84.9368998,57.930554 C86.8994068,58.2857862 88.6883268,58.4566872 90.4910129,58.4566872 C90.618601,58.4566872 90.7431673,58.4429211 90.9896139,58.4157247 C92.1959933,58.386178 93.2912367,58.2884723 94.2941466,58.1256295 C101.068405,57.3396195 107.06169,54.6884723 111.626323,50.4599328 C111.970811,50.1399552 112.057437,49.6302742 111.843223,49.2156128 L106.454639,38.84169 C106.297168,38.5435367 106.007073,38.3377168 105.673665,38.2913822 C105.332199,38.2265809 105.004163,38.3592054 104.773833,38.6059877 C100.772938,42.8398993 95.8554225,45.0898153 90.4638165,45.1143257 C82.9065697,45.1032457 77.1053386,40.7256295 75.3244768,33.6914941 C74.9151875,32.0593733 74.722798,30.6525462 74.722798,29.2675434 C74.722798,27.8932848 74.9098153,26.5079463 75.3083604,24.9114158 C77.0677336,17.8363179 82.8740011,13.4341914 90.5615221,13.4261332 C95.8554225,13.4449356 100.769916,15.6948517 104.773833,19.929099 C105.004163,20.1731953 105.334885,20.2977616 105.673665,20.2433688 C106.007073,20.1973699 106.297168,19.9912143 106.454639,19.693061 L111.843223,9.32216004 C112.057437,8.90716284 111.970811,8.39781757 111.626323,8.07783996 C106.05878,2.91925014 98.5525686,0.0783995523 90.4097594,0.0783995523 C88.6829547,0.0783995523 86.8910129,0.25198657 84.8633688,0.60956911 C84.8146838,0.612590935 84.5571572,0.639451595 84.5057862,0.647845551 C84.1478679,0.720705092 83.8090879,0.832176833 83.4703078,0.945998881 C83.2748965,1.01113598 83.0798209,1.07862339 82.8793733,1.13033016 C70.0194964,4.41035255 61.3804365,15.6867935 61.3804365,29.3487969 C61.3804365,42.8509793 70.0194964,54.1274203 82.8820593,57.4074426" id="Fill-30"></path>
                <path d="M13.5487857,45.1170118 L13.5487857,13.4207611 L21.6754785,13.4207611 C30.6751427,13.4207611 36.9612087,19.9371572 36.9612087,29.2675434 C36.9612087,38.6002798 30.6751427,45.1170118 21.6754785,45.1170118 L13.5487857,45.1170118 Z M1.24492445,58.4563514 L21.6754785,58.4563514 C38.262272,58.4563514 50.3005484,46.1796866 50.3005484,29.2675434 C50.3005484,12.3554001 38.262272,0.0783995523 21.6754785,0.0783995523 L1.24492445,0.0783995523 C0.670106323,0.0783995523 0.203738109,0.544767767 0.203738109,1.11925014 L0.203738109,57.4155008 C0.203738109,57.990319 0.670106323,58.4563514 1.24492445,58.4563514 Z" id="Fill-32"></path>
            </g>
        </g>
    </g>
</svg>