<svg xmlns="http://www.w3.org/2000/svg" width="39" height="44" fill="none"><path fill="#000" d="M38.684 0h-2.145a.201.201 0 0 0-.202.201v38.1a.588.588 0 0 1-.948.466L32.456 36.5a3.115 3.115 0 0 0-1.903-.65H.2A.201.201 0 0 0 0 36.05v2.146a.201.201 0 0 0 .201.201h29.55c.645 0 1.271.214 1.78.608l6.401 4.874a.593.593 0 0 0 .952-.472V.201a.201.201 0 0 0-.2-.201z"/><path fill="#000" d="M29.603 17.968a.202.202 0 0 0-.158-.076h-2.341a.202.202 0 0 0-.2.166l-1.036 5.765-1.305-5.776a.203.203 0 0 0-.198-.157H22a.202.202 0 0 0-.197.157l-1.351 5.916-1.445-5.917a.202.202 0 0 0-.197-.154h-2.34a.201.201 0 0 0-.2.163.203.203 0 0 0 .004.091L19.2 29.07a.203.203 0 0 0 .195.15h2.045a.202.202 0 0 0 .197-.154l1.538-6.254 1.538 6.254a.203.203 0 0 0 .197.154h2.044a.203.203 0 0 0 .197-.158l2.494-10.923a.203.203 0 0 0-.042-.17zM14.86 23.555c0-3.284-2.338-5.67-5.559-5.67H5.334a.202.202 0 0 0-.202.202v10.935a.202.202 0 0 0 .202.202H9.3c3.221 0 5.56-2.384 5.56-5.669zm-2.59 0c0 1.813-1.22 3.077-2.969 3.077H7.723v-6.155h1.578c1.748 0 2.969 1.266 2.969 3.078zm10.786-9.834c1.443 0 2.895-.547 3.885-1.464a.171.171 0 0 0 .035-.204l-.99-1.907a.173.173 0 0 0-.128-.09.234.234 0 0 0-.091.014.172.172 0 0 0-.057.039c-.74.782-1.648 1.198-2.626 1.201h-.021c-1.396 0-2.469-.812-2.799-2.114a3.053 3.053 0 0 1-.003-1.624c.326-1.309 1.4-2.123 2.805-2.126h.016c.98.004 1.89.42 2.628 1.202a.172.172 0 0 0 .124.053h.024a.172.172 0 0 0 .128-.09l.99-1.908a.17.17 0 0 0-.035-.204c-1.064-.986-2.334-1.466-3.885-1.466-3.326 0-5.314 2.71-5.314 5.328v.03c0 3.04 2.285 5.33 5.314 5.33zm-17.811-.035h3.754c3.036 0 5.24-2.169 5.24-5.265 0-3.097-2.204-5.265-5.24-5.265H5.245c-.095 0-.201-.044-.201.05V13.55c0 .095.106.136.201.136zm2.168-2.37v-5.79h1.586c1.665 0 2.829 1.169 2.829 2.895s-1.164 2.896-2.83 2.896H7.414z"/></svg>