<svg width="84" height="84" fill="none" xmlns="http://www.w3.org/2000/svg"><path fill-rule="evenodd" clip-rule="evenodd" d="M60.639 11H12C5.925 11 1 15.925 1 22v50c0 6.075 4.925 11 11 11h50c6.075 0 11-4.925 11-11V23.361h1V72c0 6.627-5.373 12-12 12H12C5.373 84 0 78.627 0 72V22c0-6.627 5.373-12 12-12h48.639v1z" fill="#000"/><path fill-rule="evenodd" clip-rule="evenodd" d="M73 0h1v9.293l6.571-6.571.707.707L74.708 10H84v1h-9.293l6.571 6.571-.707.707L74 11.708V21h-1v-9.293l-6.571 6.571-.707-.707L72.292 11H63v-1h9.293l-6.571-6.571.707-.707L73 9.292V0z" fill="#000"/></svg>