<svg height="170" width="500" xmlns="http://www.w3.org/2000/svg" xmlns:xlink="http://www.w3.org/1999/xlink"><mask id="a" fill="#fff"><path d="m0 0h49v51h-49z" fill="none"/></mask><mask id="b" fill="#fff"><path d="m0 0h49v51h-49z" fill="none"/></mask><mask id="c" fill="#fff"><path d="m0 0h18v18h-18z" fill="none"/></mask><g fill="#fff" fill-rule="evenodd"><path d="m15 19c2-4 5-6 10-6 4 0 7 2 8 6zm10-19c-15 0-25 10-25 25s11 26 26 26c8 0 14-2 19-7v-1l-5-10v-1h-1c-4 3-8 5-13 5-4 0-9-2-11-7h33l1-1v-3c0-16-10-26-24-26z" mask="url(#a)" transform="translate(285 119)"/><path d="m15 19c1-4 5-6 9-6 5 0 8 2 9 6zm10-19c-15 0-25 10-25 25s10 26 26 26c7 0 14-2 19-7v-1l-5-10-1-1h-1c-3 3-7 5-12 5-4 0-9-2-11-7h32l2-1v-3c0-16-10-26-24-26z" mask="url(#b)" transform="translate(341 119)"/><path d="m424 141 19-19v-1l-1-1h-16-1l-15 16v-33l-1-1h-12l-1 1v64l1 1h12l1-1v-13l4-3 11 17h17a1 1 0 0 0 1-2zm-138-39h-15l-1 1-6 34-8-35h-16l-8 35-9-35h-15-1v1l17 64 1 1h12l2-1 9-36 9 36 1 1h12l1-1 15-64z"/><path d="m247 38c0 11-7 18-17 18h-9v-36h9c10 0 17 7 17 18m16 0c0-20-14-34-33-34h-23l-2 2v64l2 1h23c19 0 33-14 33-33m21 3c2-4 5-7 9-7 5 0 8 3 9 7zm11 31c7 0 14-2 19-6v-2l-5-10h-1-1c-3 3-7 4-12 4-4 0-9-1-11-6h33l1-1v-4c0-15-10-25-24-25-15 0-25 10-25 25s10 25 26 25zm31-34c0 12 12 14 16 15 8 2 9 2 9 4s-3 2-5 2c-5 0-10-2-13-6h-1l-1 1-7 9v1c4 5 12 8 21 8 18 0 21-9 21-16 0-11-8-14-15-16-8-1-10-2-10-3 0-2 4-2 5-2 4 0 9 2 11 4l1 1 1-1 7-9v-1c-5-5-11-7-19-7-13 0-21 6-21 16"/><path d="m9 18c5 0 9-4 9-9s-4-9-9-9-9 4-9 9 4 9 9 9" mask="url(#c)" transform="translate(373)"/><path d="m375 23-1 1v46l1 1h12l1-1v-46l-1-1zm107-1c-6 0-10 2-13 5v-3l-2-1h-11l-1 1v46l1 1h12l1-1v-22c0-8 3-12 9-12 5 0 7 3 7 9v25l1 1h13l1-1v-29c0-12-7-19-18-19m-61 36c-6 0-11-4-11-11s5-11 11-11c7 0 11 4 11 11s-4 11-11 11m24-35h-12l-1 1v3c-4-3-8-5-14-5-11 0-22 8-22 25 0 15 9 25 22 25 5 0 10-2 13-5l1 1c-1 6-5 9-12 9l-8-2-2 1-6 10v1c5 3 10 4 16 4 17 0 26-9 26-24v-43z"/><path d="m164 5h-12l-1 1v127c0 3-4 5-6 3l-17-13c-4-3-7-4-12-4h-115l-1 1v13l1 1h111c4 0 7 1 10 3l38 29c2 2 6 0 6-3v-157z"/><path d="m88 81a7 7 0 0 0 1 0l5 1 3-1c6 0 11-3 14-6l1-1-5-9h-1c-4 4-8 5-12 5-6 0-11-3-13-9a15 15 0 0 1 0-7c2-6 7-10 13-10 4 0 8 2 12 5l1 1v-1l5-8-1-1a26 26 0 0 0 -23-6c-11 3-18 12-18 23 0 12 7 21 18 24m-58-11v-26h7c7 0 12 5 12 13s-5 13-12 13zm-10 12h17c13 0 23-11 23-25s-10-24-23-24h-17l-1 1v47z"/></g></svg>