<svg width="150" height="60" viewBox="0 0 200 60" xmlns="http://www.w3.org/2000/svg" xmlns:xlink="http://www.w3.org/1999/xlink">
  <defs>
    <path id="a" d="M.3 48.4h7.4V.6H.3z"/>
  </defs>
  <g fill="none" fill-rule="evenodd">
    <path d="M0 0h200v60H0z"/>
    <path d="M58.5 45.3l.4.1a4.8 4.8 0 0 0 .8.2 17 17 0 0 0 5.2.1c3.8-.4 7-1.9 9.6-4.3.2-.1.3-.4.2-.7l-3-5.7c-.1-.2-.3-.3-.5-.3l-.5.1c-2.2 2.4-5 3.6-8 3.7a8.3 8.3 0 0 1-8.4-6.4 9.9 9.9 0 0 1 0-4.9c1-4 4.2-6.4 8.5-6.4 3 0 5.7 1.3 8 3.6 0 .2.2.2.4.2s.4-.1.5-.3l3-5.8c0-.2 0-.5-.2-.7a17.2 17.2 0 0 0-15.6-4l-.4.1c-7.1 1.9-12 8.2-12 15.8 0 7.5 4.9 13.8 12 15.6M21.4 38.4V20.8H26c5 0 8.5 3.6 8.5 8.8 0 5.2-3.4 8.8-8.5 8.8h-4.5zM14.6 46h11.3c9.3 0 16-6.9 16-16.3s-6.7-16.2-16-16.2H14.6c-.3 0-.6.2-.6.6v31.3c0 .3.3.6.6.6zM139 29.6c0 5.2-3.5 8.9-8.5 8.9H126V20.8h4.5c5 0 8.5 3.6 8.5 8.8m7.5 0c0-9.4-6.8-16.2-16-16.2h-11.4c-.3 0-.6.2-.6.5v31.4c0 .3.3.6.6.6h11.4c9.2 0 16-6.8 16-16.3M186.3 13.6a.6.6 0 0 0-.5-.2h-6.7c-.3 0-.5.2-.6.4l-3 16.6-3.7-16.6c0-.2-.3-.4-.6-.4h-6.7c-.3 0-.5.2-.6.4l-3.9 17-4.1-17c-.1-.2-.3-.4-.6-.4h-6.7c-.2 0-.4 0-.5.2v.5l8.3 31.3c.1.3.3.5.6.5h5.9c.2 0 .5-.2.5-.5l4.4-18 4.4 18c.1.3.3.5.6.5h5.9c.2 0 .5-.2.5-.5l7.2-31.3-.1-.5" fill="#000"/>
    <g transform="translate(92.6 5.1)">
      <mask id="b" fill="#fff">
        <use xlink:href="#a"/>
      </mask>
      <path d="M7 .6H1c-.4 0-.7.3-.7.6v46.6c0 .3.3.6.6.6h6.2c.3 0 .6-.3.6-.6V1.2c0-.3-.3-.6-.6-.6" fill="#000" mask="url(#b)"/>
    </g>
  </g>
</svg>