<svg xmlns="http://www.w3.org/2000/svg" viewBox="0 0 1920 1080"><title>logo-white_primaryLock</title><g id="Week"><path d="M1173.31,661.86c-52,0-88.41,37.17-88.41,90.39,0,54.06,37.11,90.39,92.35,90.39,27.07,0,50-7.64,68.13-22.67a4.3,4.3,0,0,0,1.09-5.21l-18.08-35.84a4.33,4.33,0,0,0-3-2.26,4.14,4.14,0,0,0-3.61.94c-12.18,10.46-27,15.75-43.91,15.75-14.78,0-32-6.33-38.5-23.69h115.1a4.26,4.26,0,0,0,4.26-4.26V753.57C1258.76,697.86,1225.22,661.86,1173.31,661.86Zm-34.52,67.72c5-14.48,16.6-22.38,33.2-22.38,15.79,0,26.75,8.27,30.13,22.38Z"/><path d="M1372.49,661.86c-52,0-88.42,37.17-88.42,90.39,0,54.06,37.12,90.39,92.37,90.39,27,0,50-7.63,68.13-22.67a4.27,4.27,0,0,0,1.08-5.21l-18.07-35.84a4.33,4.33,0,0,0-3-2.26,4.14,4.14,0,0,0-3.6.94c-12.18,10.46-27,15.75-43.91,15.75-14.79,0-32-6.33-38.51-23.69h115.1a4.26,4.26,0,0,0,4.26-4.26V753.57C1457.94,697.86,1424.39,661.86,1372.49,661.86ZM1338,729.58c5-14.48,16.6-22.38,33.2-22.38,15.8,0,26.76,8.27,30.11,22.38Z"/><path d="M1581.85,741.13l68.06-68a4.27,4.27,0,0,0-3-7.28h-57.53a4.22,4.22,0,0,0-3.09,1.34l-52.14,55.31V604.33a4.27,4.27,0,0,0-4.27-4.26h-43.38a4.26,4.26,0,0,0-4.26,4.26v230.1a4.26,4.26,0,0,0,4.26,4.26h43.38a4.27,4.27,0,0,0,4.27-4.26V788.55l12.19-11.95,41.17,60.23a4.25,4.25,0,0,0,3.51,1.86h55.89a4.27,4.27,0,0,0,3.41-6.83Z"/><path d="M1087.79,601.68a4.24,4.24,0,0,0-3.33-1.61h-49.34a4.26,4.26,0,0,0-4.2,3.5l-21.87,121.55-27.5-121.73a4.27,4.27,0,0,0-4.16-3.32H927.51a4.25,4.25,0,0,0-4.15,3.3L894.88,728,864.42,603.32a4.27,4.27,0,0,0-4.14-3.25H810.94a4.25,4.25,0,0,0-4.12,5.36l61.7,230.24a4.27,4.27,0,0,0,4.12,3.16h43.1a4.27,4.27,0,0,0,4.14-3.24l32.4-131.81,32.4,131.81a4.25,4.25,0,0,0,4.14,3.24h43.08a4.26,4.26,0,0,0,4.15-3.32l52.56-230.24A4.23,4.23,0,0,0,1087.79,601.68Z"/></g><g id="Design"><path d="M1006.13,372.44C1006.13,303.21,956.85,253,889,253H805.32a4.26,4.26,0,0,0-4.26,4.26V487.67a4.26,4.26,0,0,0,4.26,4.26H889C956.85,491.93,1006.13,441.68,1006.13,372.44Zm-54.61,0c0,38.2-25.73,64.89-62.57,64.89H855.69V307.57H889C925.79,307.57,951.52,334.25,951.52,372.44Z"/><path d="M1121.1,495.56c27.06,0,50-7.64,68.12-22.67a4.28,4.28,0,0,0,1.08-5.21l-18.06-35.82a4.32,4.32,0,0,0-3-2.27,4.15,4.15,0,0,0-3.61,1c-12.19,10.45-27,15.74-43.92,15.74-14.79,0-32-6.34-38.5-23.7h115.11a4.26,4.26,0,0,0,4.26-4.26V406.49c0-55.7-33.54-91.7-85.46-91.7s-88.41,37.16-88.41,90.38C1028.74,459.23,1065.85,495.56,1121.1,495.56ZM1082.64,382.5c5-14.48,16.59-22.37,33.2-22.37,15.79,0,26.75,8.27,30.12,22.37Z"/><path d="M1231.93,371.32c0,44.35,43.63,53.2,57.92,56.1C1317.13,433.27,1323,435,1323,440c0,7.16-11.14,8.22-17.78,8.22-20.83,0-38.1-7-48.64-19.8a4.45,4.45,0,0,0-3.35-1.56,4.29,4.29,0,0,0-3.31,1.67l-25.32,32.87a4.23,4.23,0,0,0,0,5.22c14.66,18.65,41.77,28.92,76.34,28.92,62.19,0,75.25-31.46,75.25-57.85,0-38.38-28.28-49.73-56-55.77-26.4-5.64-34.76-7.64-34.76-12.27,0-6.72,12.84-7.24,16.78-7.24,16.34,0,32.91,6.17,41.22,15.37a4.51,4.51,0,0,0,3.33,1.39,4.24,4.24,0,0,0,3.21-1.66L1374.34,346a4.26,4.26,0,0,0-.33-5.58c-16.61-17-39.65-25.6-68.47-25.6C1259.45,314.79,1231.93,335.92,1231.93,371.32Z"/><path d="M1431,302.31c18.35,0,32.2-13.71,32.2-31.87a31.86,31.86,0,0,0-32.2-32.2c-18.17,0-31.89,13.85-31.89,32.2C1399.13,288.6,1412.85,302.31,1431,302.31Z"/><rect x="1402.93" y="318.73" width="51.91" height="172.89" rx="4.26" ry="4.26"/><path d="M1791,314.79c-22.88,0-38.61,9.6-49,20.17V323a4.26,4.26,0,0,0-4.26-4.26h-42.08a4.26,4.26,0,0,0-4.26,4.26V487.36a4.26,4.26,0,0,0,4.26,4.26h43.39a4.26,4.26,0,0,0,4.26-4.26V408.79c0-29.43,10.33-43.73,31.58-43.73,17.26,0,25.65,10.22,25.65,31.24v91.06a4.26,4.26,0,0,0,4.26,4.26h44.36a4.26,4.26,0,0,0,4.26-4.26V385.45C1853.47,340.55,1830.72,314.79,1791,314.79Z"/><path d="M1657.71,318.22H1615.8A3.76,3.76,0,0,0,1612,322V333.9c-16.65-12-31-19.1-50.32-19.1-38.63,0-80.7,28.07-80.7,89.72,0,53.91,31.75,88.74,81.27,88.74,17.73,0,33.16-5.22,45-14.94a2,2,0,0,1,3.26,1.84c-2.15,21.64-16.58,32.19-43.83,32.19a63,63,0,0,1-28.53-6.39,4,4,0,0,0-5.29,1.46l-21.7,36.12a4,4,0,0,0,1.47,5.59c15.65,8.46,33.8,12.5,55.64,12.5,60.4,0,93.66-30.23,93.66-85.12v-154A4.28,4.28,0,0,0,1657.71,318.22ZM1572.56,445c-22.83,0-38.79-16.37-38.79-39.79s16-39.78,38.79-39.78c23.38,0,38.48,15.61,38.48,39.78C1611,429,1595.57,445,1572.56,445Z"/></g><g id="Bubble"><path d="M654.86,255.07H609.57a4.24,4.24,0,0,0-4.24,4.24V713.13a12.42,12.42,0,0,1-20,9.83l-61.92-47.85a65.7,65.7,0,0,0-40.18-13.72H71.3a4.24,4.24,0,0,0-4.24,4.25v45.29a4.24,4.24,0,0,0,4.24,4.24h395A61.41,61.41,0,0,1,503.88,728L639,830.9a12.52,12.52,0,0,0,20.1-10V259.31A4.24,4.24,0,0,0,654.86,255.07Z"/></g><g id="DC"><path d="M379.91,525.61c.6.16,1.19.36,1.77.55a25.77,25.77,0,0,0,3.05.88,9.09,9.09,0,0,0,1.3.13,91.16,91.16,0,0,0,16.54,1.57,14.17,14.17,0,0,0,1.49-.12,72,72,0,0,0,9.84-.87c20.17-2.34,38-10.23,51.62-22.83a3.12,3.12,0,0,0,.65-3.7l-16.05-30.9a3.14,3.14,0,0,0-2.33-1.64,2.91,2.91,0,0,0-2.68.94c-11.92,12.61-26.56,19.31-42.62,19.38-22.51,0-39.79-13.07-45.09-34a49.31,49.31,0,0,1,0-26.15c5.24-21.07,22.53-34.18,45.43-34.21,15.77.06,30.41,6.76,42.33,19.37a3,3,0,0,0,2.68.94,3.14,3.14,0,0,0,2.33-1.64l16.05-30.89a3.14,3.14,0,0,0-.65-3.71c-16.58-15.36-38.94-23.82-63.19-23.82a94.68,94.68,0,0,0-16.52,1.58c-.14,0-.91.09-1.06.12a24.35,24.35,0,0,0-3.09.88c-.58.2-1.16.4-1.76.55-38.3,9.77-64,43.36-64,84.05C315.87,482.26,341.6,515.85,379.91,525.61Z"/><path d="M136.77,528.74h60.85c49.4,0,85.25-36.57,85.25-86.94S247,354.87,197.62,354.87H136.77a3.1,3.1,0,0,0-3.1,3.1V525.64A3.1,3.1,0,0,0,136.77,528.74ZM173.41,489v-94.4h24.21c26.8,0,45.52,19.41,45.52,47.19S224.42,489,197.62,489Z"/></g></svg>