<svg xmlns="http://www.w3.org/2000/svg" xmlns:xlink="http://www.w3.org/1999/xlink" width="200" height="56"><defs><path id="a" d="M.1.1h44.7v37.8H.1z"/><path id="c" d="M.1.1h8.5v55.6H.1z"/></defs><g fill="none" fill-rule="evenodd"><g transform="translate(155.1 8.9)"><mask id="b" fill="#fff"><use xlink:href="#a"/></mask><path fill="#87C5B7" d="M44.7.3a.7.7 0 0 0-.6-.2h-7.8c-.3 0-.6.2-.7.5L32.2 20 27.8.6c0-.3-.3-.5-.6-.5h-8c-.3 0-.5.2-.6.5L14 20.4 9.2.6c0-.3-.3-.5-.6-.5H.8C.5 0 .3 0 .2.3V1l9.7 36.5c0 .3.3.5.6.5h6.9c.3 0 .6-.2.6-.5l5.2-20.9 5.1 21c0 .2.4.4.7.4h6.8c.3 0 .6-.2.7-.5L44.8 1l-.1-.6" mask="url(#b)"/></g><path fill="#87C5B7" d="M144.8 28c0 6-4.1 10.2-10 10.2h-5.2V17.6h5.2c5.9 0 10 4.2 10 10.3m8.6 0c0-11-7.8-19-18.6-19h-13.2c-.4 0-.7.4-.7.7v36.6c0 .4.3.7.7.7h13.2c10.8 0 18.6-8 18.6-19"/><g transform="translate(91)"><mask id="d" fill="#fff"><use xlink:href="#c"/></mask><path fill="#87C5B7" d="M8 0H.8C.4 0 0 .5 0 .9V55c0 .4.3.7.7.7H8c.3 0 .6-.3.6-.7V.8C8.6.4 8.3 0 8 0" mask="url(#d)"/></g><g fill="#87C5B7"><path d="M51.9 46.2h.3a5.6 5.6 0 0 0 1 .3 19.9 19.9 0 0 0 6 .1c4.5-.5 8.4-2.2 11.3-5 .2-.1.3-.5.2-.7L67.2 34a.7.7 0 0 0-.5-.3c-.2 0-.5 0-.6.2a12.7 12.7 0 0 1-9.3 4.2c-5 0-8.7-2.9-9.8-7.4a11.5 11.5 0 0 1 0-5.7c1-4.6 4.9-7.5 9.8-7.5 3.5 0 6.7 1.5 9.3 4.2.1.2.3.3.6.2.2 0 .4-.1.5-.3l3.5-6.7c.1-.3 0-.6-.2-.8a20 20 0 0 0-18.3-4.7l-.3.1c-8.4 2.2-14 9.5-14 18.4 0 8.7 5.6 16 14 18.2M8.6 38.2V17.6H14c5.8 0 10 4.3 10 10.3 0 6-4.2 10.3-10 10.3H8.6zm-8 8.6H14c10.8 0 18.6-8 18.6-18.9 0-11-7.8-19-18.6-19H.7c-.4 0-.7.4-.7.8v36.5c0 .3.3.6.7.6z"/></g></g></svg>