<svg height="48" viewBox="0 0 172 48" width="172" xmlns="http://www.w3.org/2000/svg" xmlns:xlink="http://www.w3.org/1999/xlink"><mask id="a" fill="#fff"><path d="m.07077006.06965581h38.48476484v32.57879069h-38.48476484z" fill="none"/></mask><mask id="b" fill="#fff"><path d="m.07460465.06689302h7.36427907v47.84008368h-7.36427907z" fill="none"/></mask><g fill="#87c5b7" fill-rule="evenodd"><g transform="translate(104 7.654047)"><path d="m38.4288465.28909767c-.1104186-.13925581-.2771163-.21944186-.4542325-.21944186h-6.7328373c-.2815814 0-.5223255.20130233-.572279.47832559l-2.9841861 16.5847442-3.7533023-16.61041862c-.0605581-.26502326-.2967442-.45265117-.5677209-.45265117h-6.8055814c-.2710698 0-.5056744.18762791-.5662326.45106977l-3.8866046 17.00865112-4.15590701-17.016186c-.06362791-.26046512-.29683721-.44353489-.56483721-.44353489h-6.73293023c-.18009302 0-.35116279.08474419-.46167442.22706977-.10902326.14381396-.14688372.33004651-.1.50418605l8.41953488 31.41609307c.06809303.2543255.29832559.4314418.56176745.4314418h5.88046514c.268 0 .5012093-.1830698.5647442-.4420465l4.4210232-17.9851163 4.4209302 17.9851163c.063628.2589767.2966512.4420465.5646512.4420465h5.8790698c.2710697 0 .5056744-.1876279.5662325-.4526512l7.172-31.416186c.0393489-.17097674-.0015814-.35274418-.112093-.49051163" mask="url(#a)" transform="translate(29.488372)"/><path d="m20.5527535 16.3574977c0 5.2128372-3.5110698 8.8541395-8.5376744 8.8541395h-4.5390698v-17.70511627h4.5390698c5.0266046 0 8.5376744 3.63972097 8.5376744 8.85097677m7.4505116 0c0-9.44604654-6.7238139-16.3014884-15.988186-16.3014884h-11.41125584c-.32093024 0-.58139535.2603721-.58139535.58139535v31.44325585c0 .3211162.26046511.5813953.58139535.5813953h11.41125584c9.2643721 0 15.988186-6.8569302 15.988186-16.3045581"/></g><path d="m6.85748837.06689302h-6.20148837c-.32093023 0-.58139535.26046512-.58139535.58139535v46.67730233c0 .3209302.26046512.5813953.58139535.5813953h6.20148837c.32102326 0 .58139535-.2604651.58139535-.5813953v-46.67730233c0-.32093023-.26037209-.58139535-.58139535-.58139535" mask="url(#b)" transform="translate(78.232558 .02614)"/><g transform="translate(0 7.654047)"><path d="m44.6240186 32.074707c.1135814.0287442.2226047.0666046.3315349.1028837.1893023.0636279.3785116.1256744.5874418.168093.0620466.0106047.1256745.0151628.2301396.0212093 1.0916279.1983256 2.0923721.2951628 3.1038139.2951628.0711628 0 .1423256-.0075349.2770233-.024093.6525581-.0151628 1.283907-.0696744 1.8471628-.1621395 3.7804651-.436 7.128-1.9166512 9.6807442-4.2800931.192186-.1786046.2406511-.4633488.1210232-.6949767l-3.0098604-5.7941395c-.087814-.1665117-.2498605-.2815814-.4360931-.3073489-.1770232-.0348837-.3739535.0393489-.5026046.1756279-2.2377675 2.3649303-4.9826977 3.6215814-7.9925582 3.6351628-4.2211162-.0075349-7.4611162-2.4512558-8.4559069-6.380093-.2300465-.9115349-.3375814-1.6957209-.3375814-2.4708837 0-.7646512.1044651-1.5382326.3285581-2.4346047.9826047-3.95162789 4.2255814-6.41032556 8.5194419-6.41348835 2.9569302.01069767 5.7017674 1.26725581 7.9380465 3.63218605.1286511.1362791.3164651.2028837.5026046.1756279.1862326-.0256744.3482791-.1408372.4360931-.3073488l3.0098604-5.79413957c.1196279-.23162791.0711628-.5163721-.1210232-.69488372-3.1083721-2.87981396-7.3007442-4.46641861-11.8504186-4.46641861-.972 0-1.9727442.09683721-3.0961861.29665117-.0257674 0-.1710697.01674418-.1983256.02130232-.1998139.03934884-.3891162.10139535-.5783255.16493023-.1090233.0363721-.2195349.07423256-.3331163.10306977-7.1825117 1.83190698-12.007721 8.13023256-12.007721 15.76093021 0 7.5414884 4.8252093 13.839814 12.0062326 15.671814"/><path d="m7.43992558 25.1964279v-17.67479069h4.53302322c5.0190698 0 8.524 3.63367439 8.524 8.83739539 0 5.2037209-3.5049302 8.8373953-8.524 8.8373953zm-6.85851163 7.4429768h11.39153485c9.2522791 0 15.9669768-6.8464187 15.9669768-16.2803721 0-9.43395353-6.7146977-16.28037213-15.9669768-16.28037213h-11.39153485c-.32102325 0-.58139535.26037209-.58139535.58139534v31.39795349c0 .3210233.2603721.5813954.58139535.5813954z"/></g></g></svg>