<?xml version="1.0" encoding="utf-8"?>
<!-- Generator: Adobe Illustrator 22.1.0, SVG Export Plug-In . SVG Version: 6.00 Build 0)  -->
<svg version="1.1" xmlns="http://www.w3.org/2000/svg" xmlns:xlink="http://www.w3.org/1999/xlink" x="0px" y="0px"
	 viewBox="0 0 1920 1080" style="enable-background:new 0 0 1920 1080;" xml:space="preserve">
<g id="Week" fill="#ffffff">
	<g>
		<path d="M1173.3,661.9c-52.1,0-88.4,37.2-88.4,90.4c0,54.1,37.1,90.4,92.4,90.4c27.1,0,50-7.6,68.1-22.7c1.5-1.3,2-3.4,1.1-5.2
			l-18.1-35.8c-0.6-1.2-1.7-2-3-2.3c-1.3-0.3-2.6,0.1-3.6,0.9c-12.2,10.5-27,15.7-43.9,15.7c-14.8,0-32-6.3-38.5-23.7h115.1
			c2.4,0,4.3-1.9,4.3-4.3v-11.8C1258.8,697.9,1225.2,661.9,1173.3,661.9z M1138.8,729.6c5-14.5,16.6-22.4,33.2-22.4
			c15.8,0,26.8,8.3,30.1,22.4H1138.8z"/>
		<path d="M1372.5,661.9c-52.1,0-88.4,37.2-88.4,90.4c0,54.1,37.1,90.4,92.4,90.4c27.1,0,50-7.6,68.1-22.7c1.5-1.3,2-3.4,1.1-5.2
			l-18.1-35.8c-0.6-1.2-1.7-2-3-2.3c-1.3-0.3-2.6,0.1-3.6,0.9c-12.2,10.5-27,15.7-43.9,15.7c-14.8,0-32-6.3-38.5-23.7h115.1
			c2.4,0,4.3-1.9,4.3-4.3v-11.8C1457.9,697.9,1424.4,661.9,1372.5,661.9z M1338,729.6c5-14.5,16.6-22.4,33.2-22.4
			c15.8,0,26.8,8.3,30.1,22.4H1338z"/>
		<path d="M1581.8,741.1l68.1-68c1.2-1.2,1.6-3.1,0.9-4.6c-0.7-1.6-2.2-2.6-3.9-2.6h-57.5c-1.2,0-2.3,0.5-3.1,1.3l-52.1,55.3V604.3
			c0-2.4-1.9-4.3-4.3-4.3h-43.4c-2.4,0-4.3,1.9-4.3,4.3v230.1c0,2.4,1.9,4.3,4.3,4.3h43.4c2.4,0,4.3-1.9,4.3-4.3v-45.9l12.2-12
			l41.2,60.2c0.8,1.2,2.1,1.9,3.5,1.9h55.9c1.6,0,3.1-0.9,3.8-2.4c0.7-1.4,0.6-3.2-0.4-4.5L1581.8,741.1z"/>
		<path d="M1087.8,601.7c-0.8-1-2-1.6-3.3-1.6h-49.3c-2.1,0-3.8,1.5-4.2,3.5l-21.9,121.5l-27.5-121.7c-0.4-1.9-2.2-3.3-4.2-3.3
			h-49.9c-2,0-3.7,1.4-4.1,3.3L894.9,728l-30.5-124.7c-0.5-1.9-2.2-3.3-4.1-3.3h-49.3c-1.3,0-2.6,0.6-3.4,1.7
			c-0.8,1.1-1.1,2.4-0.7,3.7l61.7,230.2c0.5,1.9,2.2,3.2,4.1,3.2h43.1c2,0,3.7-1.3,4.1-3.2l32.4-131.8l32.4,131.8
			c0.5,1.9,2.2,3.2,4.1,3.2h43.1c2,0,3.7-1.4,4.1-3.3l52.6-230.2C1088.9,604,1088.6,602.7,1087.8,601.7z"/>
	</g>
</g>
<g id="Design" fill="#ffffff">
	<g>
		<path d="M1006.1,372.4c0-69.2-49.3-119.5-117.2-119.5h-83.6c-2.4,0-4.3,1.9-4.3,4.3v230.4c0,2.4,1.9,4.3,4.3,4.3H889
			C956.8,491.9,1006.1,441.7,1006.1,372.4z M951.5,372.4c0,38.2-25.7,64.9-62.6,64.9h-33.3V307.6H889
			C925.8,307.6,951.5,334.2,951.5,372.4z"/>
		<path d="M1121.1,495.6c27.1,0,50-7.6,68.1-22.7c1.5-1.3,2-3.4,1.1-5.2l-18.1-35.8c-0.6-1.2-1.7-2-3-2.3c-1.3-0.3-2.6,0.1-3.6,0.9
			c-12.2,10.5-27,15.7-43.9,15.7c-14.8,0-32-6.3-38.5-23.7h115.1c2.4,0,4.3-1.9,4.3-4.3v-11.8c0-55.7-33.5-91.7-85.5-91.7
			c-52.1,0-88.4,37.2-88.4,90.4C1028.7,459.2,1065.9,495.6,1121.1,495.6z M1082.6,382.5c5-14.5,16.6-22.4,33.2-22.4
			c15.8,0,26.8,8.3,30.1,22.4H1082.6z"/>
		<path d="M1231.9,371.3c0,44.4,43.6,53.2,57.9,56.1c27.3,5.8,33.1,7.6,33.1,12.6c0,7.2-11.1,8.2-17.8,8.2c-20.8,0-38.1-7-48.6-19.8
			c-0.8-1-2-1.5-3.4-1.6c-1.3,0-2.5,0.6-3.3,1.7l-25.3,32.9c-1.2,1.5-1.2,3.7,0,5.2c14.7,18.7,41.8,28.9,76.3,28.9
			c62.2,0,75.3-31.5,75.3-57.8c0-38.4-28.3-49.7-56-55.8c-26.4-5.6-34.8-7.6-34.8-12.3c0-6.7,12.8-7.2,16.8-7.2
			c16.3,0,32.9,6.2,41.2,15.4c0.9,0.9,2.1,1.4,3.3,1.4c1.3-0.1,2.4-0.7,3.2-1.7l24.3-31.6c1.3-1.7,1.2-4.1-0.3-5.6
			c-16.6-17-39.6-25.6-68.5-25.6C1259.5,314.8,1231.9,335.9,1231.9,371.3z"/>
		<path d="M1431,302.3c18.4,0,32.2-13.7,32.2-31.9c0-18.1-14.1-32.2-32.2-32.2c-18.2,0-31.9,13.8-31.9,32.2
			C1399.1,288.6,1412.8,302.3,1431,302.3z"/>
		<path d="M1407.2,318.7c-2.4,0-4.3,1.9-4.3,4.3v164.4c0,2.4,1.9,4.3,4.3,4.3h43.4c2.4,0,4.3-1.9,4.3-4.3V323c0-2.4-1.9-4.3-4.3-4.3
			H1407.2z"/>
		<path d="M1791,314.8c-22.9,0-38.6,9.6-49,20.2v-12c0-2.4-1.9-4.3-4.3-4.3h-42.1c-2.4,0-4.3,1.9-4.3,4.3v164.4
			c0,2.4,1.9,4.3,4.3,4.3h43.4c2.4,0,4.3-1.9,4.3-4.3v-78.6c0-29.4,10.3-43.7,31.6-43.7c17.3,0,25.7,10.2,25.7,31.2v91.1
			c0,2.4,1.9,4.3,4.3,4.3h44.4c2.4,0,4.3-1.9,4.3-4.3V385.5C1853.5,340.5,1830.7,314.8,1791,314.8z"/>
		<path d="M1657.7,318.2h-41.9c-2.1,0-3.8,1.7-3.8,3.8v11.9c-16.6-12-31-19.1-50.3-19.1c-38.6,0-80.7,28.1-80.7,89.7
			c0,53.9,31.7,88.7,81.3,88.7c17.7,0,33.2-5.2,45-14.9c1.4-1.1,3.4,0.1,3.3,1.8c-2.1,21.6-16.6,32.2-43.8,32.2
			c-10.5,0-19.9-2.1-28.5-6.4c-1.9-0.9-4.2-0.4-5.3,1.5l-21.7,36.1c-1.2,1.9-0.5,4.5,1.5,5.6c15.7,8.5,33.8,12.5,55.6,12.5
			c60.4,0,93.7-30.2,93.7-85.1v-154C1662,320.1,1660.1,318.2,1657.7,318.2z M1572.6,445c-22.8,0-38.8-16.4-38.8-39.8
			s16-39.8,38.8-39.8c23.4,0,38.5,15.6,38.5,39.8C1611,429,1595.6,445,1572.6,445z"/>
	</g>
</g>
<g id="Bubble" fill="#ffffff">
	<path d="M654.9,255.1h-45.3c-2.3,0-4.2,1.9-4.2,4.2v453.8c0,10.3-11.9,16.1-20,9.8l-61.9-47.9c-11.5-8.9-25.6-13.7-40.2-13.7H71.3
		c-2.3,0-4.2,1.9-4.2,4.2v45.3c0,2.3,1.9,4.2,4.2,4.2h395c13.6,0,26.8,4.5,37.6,12.8L639,830.9c8.2,6.3,20.1,0.4,20.1-10V259.3
		C659.1,257,657.2,255.1,654.9,255.1z"/>
</g>
<g id="DC" fill="#ffffff">
	<g>
		<path d="M379.9,525.6c0.6,0.2,1.2,0.4,1.8,0.5c1,0.3,2,0.7,3.1,0.9c0.4,0.1,0.7,0.1,1.3,0.1c5.8,1.1,11.2,1.6,16.5,1.6
			c0.4,0,0.8,0,1.5-0.1c3.6-0.1,6.9-0.4,9.8-0.9c20.2-2.3,38-10.2,51.6-22.8c1-1,1.3-2.5,0.6-3.7l-16-30.9c-0.5-0.9-1.3-1.5-2.3-1.6
			c-1-0.2-2,0.2-2.7,0.9c-11.9,12.6-26.6,19.3-42.6,19.4c-22.5,0-39.8-13.1-45.1-34c-1.2-4.9-1.8-9.1-1.8-13.2c0-4.1,0.6-8.2,1.7-13
			c5.2-21.1,22.5-34.2,45.4-34.2c15.8,0.1,30.4,6.8,42.3,19.4c0.7,0.7,1.7,1.1,2.7,0.9c1-0.1,1.9-0.8,2.3-1.6l16-30.9
			c0.6-1.2,0.4-2.8-0.6-3.7c-16.6-15.4-38.9-23.8-63.2-23.8c-5.1,0-10.5,0.5-16.5,1.6c-0.1,0-0.9,0.1-1.1,0.1
			c-1.1,0.2-2.1,0.5-3.1,0.9c-0.6,0.2-1.2,0.4-1.8,0.5c-38.3,9.8-64,43.4-64,84C315.9,482.3,341.6,515.8,379.9,525.6z"/>
		<path d="M136.8,528.7h60.8c49.4,0,85.3-36.6,85.3-86.9s-35.9-86.9-85.3-86.9h-60.8c-1.7,0-3.1,1.4-3.1,3.1v167.7
			C133.7,527.4,135.1,528.7,136.8,528.7z M173.4,489v-94.4h24.2c26.8,0,45.5,19.4,45.5,47.2c0,27.8-18.7,47.2-45.5,47.2H173.4z"/>
	</g>
</g>
<g id="date_-_outlined" fill="#ffffff">
	<g>
		<path d="M924.8,908c7,7.2,10.5,17.3,10.5,30.2c0,13-3.5,23-10.5,30.2c-7,7.2-16.7,10.8-29.2,10.8c-8.2,0-15.3-1.6-21.3-4.8
			c-6-3.2-10.6-7.9-13.8-14.1c-3.2-6.2-4.8-13.6-4.8-22.1c0-8.5,1.6-15.9,4.8-22.1c3.2-6.2,7.8-10.9,13.8-14.1
			c6-3.2,13.1-4.8,21.3-4.8C908.1,897.2,917.8,900.9,924.8,908z M884.7,921.6c-2.4,3.7-3.6,9.2-3.6,16.7c0,7.5,1.2,13,3.6,16.7
			c2.4,3.7,6.1,5.5,11,5.5c4.9,0,8.5-1.8,10.9-5.4c2.4-3.6,3.6-9.2,3.6-16.8c0-7.6-1.2-13.2-3.6-16.8c-2.4-3.6-6-5.4-10.9-5.4
			C890.7,916.1,887.1,917.9,884.7,921.6z"/>
		<path d="M998.2,922.2c4.8,3.7,7.5,8.4,8.1,14.1l-22.6,6.9c-0.2-6.5-2.5-9.8-6.9-9.8c-3.2,0-5.6,1.1-7.1,3.4
			c-1.5,2.3-2.2,6.1-2.2,11.4s0.8,9,2.4,11.2c1.6,2.1,3.8,3.2,6.8,3.2c4.3,0,6.9-2.9,7.6-8.8l21.8,6.9c-0.2,3.5-1.5,6.6-3.9,9.5
			c-2.4,2.9-5.7,5.1-10,6.8c-4.3,1.6-9.4,2.5-15.4,2.5c-10.9,0-19.3-2.7-25.1-8.1c-5.8-5.4-8.7-13.2-8.7-23.2
			c0-10,2.9-17.7,8.6-23.2c5.7-5.5,13.7-8.2,24-8.2C986,916.6,993.5,918.4,998.2,922.2z"/>
		<path d="M1061.3,974.9c-1.9,1.3-4.5,2.3-7.8,3.1c-3.3,0.8-6.5,1.2-9.7,1.2c-8,0-14.1-1.6-18.1-4.8c-4-3.2-6-8.4-6-15.7v-24.2h-9.8
			v-16.8h9.8v-13.2l24.4-6.8v19.9h16.5v16.8H1044v20.4c0,2.8,0.6,4.8,1.9,6c1.2,1.2,3.2,1.8,5.7,1.8c3.1,0,5.7-0.7,8.1-2.1
			L1061.3,974.9z"/>
		<path d="M1101,962.9c12.5-7.2,21.7-13.9,27.7-20.3c6-6.4,9-12.2,9-17.6c0-2.7-0.7-4.8-2.2-6.5c-1.4-1.6-3.5-2.5-6.3-2.5
			c-6.6,0-9.9,5.1-9.9,15.2l-21.1-5.7c0-6.1,1.4-11.3,4.2-15.6c2.8-4.3,6.7-7.5,11.6-9.6c4.9-2.1,10.5-3.2,16.8-3.2
			c7.2,0,13.1,1.3,17.7,3.9c4.7,2.6,8.1,5.8,10.3,9.8c2.2,3.9,3.3,8,3.3,12.2c0,7.4-2.8,14.1-8.3,20c-5.5,6-13.5,11.7-23.9,17.1v0.2
			c5-0.4,10.9-0.6,17.6-0.6h15.3v18.2H1101V962.9z"/>
		<path d="M1180.3,969c-5.7-6.8-8.5-17.1-8.5-30.8c0-13.7,2.8-23.9,8.5-30.8c5.7-6.8,14.3-10.3,25.9-10.3c11.5,0,20.1,3.4,25.8,10.3
			c5.7,6.8,8.5,17.1,8.5,30.8c0,13.7-2.8,23.9-8.5,30.8c-5.7,6.8-14.3,10.3-25.8,10.3C1194.6,979.3,1186,975.9,1180.3,969z
			 M1212.1,958.4c1.4-1.4,2.5-3.7,3.1-6.9c0.6-3.2,1-7.6,1-13.2c0-5.6-0.3-10-1-13.2c-0.6-3.2-1.7-5.5-3.1-6.9
			c-1.4-1.4-3.4-2.1-5.9-2.1c-2.6,0-4.6,0.7-6,2.1c-1.4,1.4-2.5,3.7-3.1,6.9c-0.6,3.2-1,7.6-1,13.2c0,5.6,0.3,10,1,13.2
			c0.6,3.2,1.7,5.5,3.1,6.9c1.4,1.4,3.5,2.1,6,2.1C1208.7,960.5,1210.6,959.8,1212.1,958.4z"/>
		<path d="M1271,936.1c-1.1,0.8-2.6,1.4-4.6,1.8c-1.9,0.5-3.8,0.7-5.6,0.7c-4.7,0-8.2-0.9-10.6-2.8c-2.3-1.9-3.5-4.9-3.5-9.1v-14.1
			h-5.7v-9.8h5.7v-7.7l14.2-3.9v11.6h9.6v9.8h-9.6v11.9c0,1.6,0.4,2.8,1.1,3.5c0.7,0.7,1.8,1.1,3.3,1.1c1.8,0,3.4-0.4,4.7-1.2
			L1271,936.1z"/>
		<path d="M1309.8,905.2c2,2.1,3.1,5.1,3.1,8.9v23.8h-14.2v-20c0-1.9-0.3-3.3-0.9-4.1c-0.6-0.8-1.5-1.2-2.7-1.2
			c-1.5,0-2.6,0.6-3.5,1.7c-0.9,1.1-1.3,2.8-1.3,5.1v18.5h-14.2v-49.7h14.2v21.3c1-2.5,2.5-4.4,4.4-5.6c1.9-1.3,4.1-1.9,6.7-1.9
			C1304.9,902,1307.8,903.1,1309.8,905.2z"/>
		<path d="M1417.2,920.4c5.6,6.7,11.8,12.5,18.5,17.4v0.7c-6.7,4.9-12.8,10.7-18.5,17.4c-5.6,6.7-11.3,14.9-17.1,24.6l-18.1-12.2
			c5-7.6,11-14.1,18.1-19.5c-7.5,1-14.7,1.6-21.6,1.6h-23.2V926h23.2c6.9,0,14.1,0.5,21.6,1.6c-7.1-5.5-13.1-12-18.1-19.5l18.1-12.2
			C1405.9,905.5,1411.6,913.6,1417.2,920.4z"/>
		<path d="M1477.8,962.9c12.5-7.2,21.7-13.9,27.7-20.3c6-6.4,9-12.2,9-17.6c0-2.7-0.7-4.8-2.2-6.5c-1.4-1.6-3.5-2.5-6.3-2.5
			c-6.6,0-9.9,5.1-9.9,15.2l-21.1-5.7c0-6.1,1.4-11.3,4.2-15.6c2.8-4.3,6.7-7.5,11.6-9.6c4.9-2.1,10.5-3.2,16.8-3.2
			c7.2,0,13.1,1.3,17.7,3.9c4.7,2.6,8.1,5.8,10.3,9.8c2.2,3.9,3.3,8,3.3,12.2c0,7.4-2.8,14.1-8.3,20c-5.5,6-13.5,11.7-23.9,17.1v0.2
			c5-0.4,10.9-0.6,17.6-0.6h15.3v18.2h-61.9V962.9z"/>
		<path d="M1604.8,903.7c5.6,4.1,8.4,9.6,8.4,16.7c0,4.1-1.1,7.6-3.4,10.6c-2.3,3-5.5,5.2-9.8,6.8v0.1c5,1.5,8.8,3.9,11.4,7.1
			c2.6,3.2,3.9,7.2,3.9,12.1c0,6.8-3,12.2-8.9,16.2c-6,4-14.2,6-24.7,6c-10.5,0-18.7-2-24.6-6c-6-4-8.9-9.4-8.9-16.2
			c0-4.8,1.3-8.8,3.9-12.1c2.6-3.2,6.4-5.6,11.4-7.1v-0.1c-4.3-1.5-7.5-3.8-9.8-6.8c-2.3-3-3.4-6.5-3.4-10.6
			c0-7.1,2.8-12.6,8.3-16.7c5.5-4.1,13.2-6.1,23-6.1C1591.5,897.6,1599.2,899.6,1604.8,903.7z M1589,959.9c1.7-1.4,2.5-3.5,2.5-6
			c0-2.6-0.9-4.6-2.6-6c-1.7-1.4-4.2-2.2-7.3-2.2c-3.1,0-5.5,0.7-7.2,2.2c-1.8,1.4-2.7,3.5-2.7,6c0,2.6,0.9,4.6,2.6,6
			c1.7,1.4,4.2,2.2,7.3,2.2C1584.9,962,1587.3,961.3,1589,959.9z M1575.2,916.8c-1.6,1.4-2.4,3.3-2.4,5.8c0,2.5,0.8,4.4,2.4,5.9
			c1.6,1.4,3.7,2.1,6.5,2.1c2.7,0,4.9-0.7,6.5-2.1c1.6-1.4,2.4-3.4,2.4-5.9c0-2.5-0.8-4.4-2.4-5.8c-1.6-1.4-3.8-2.1-6.6-2.1
			C1578.9,914.7,1576.8,915.4,1575.2,916.8z"/>
		<path d="M1650.2,936.1c-1.1,0.8-2.6,1.4-4.6,1.8c-1.9,0.5-3.8,0.7-5.6,0.7c-4.7,0-8.2-0.9-10.6-2.8c-2.3-1.9-3.5-4.9-3.5-9.1
			v-14.1h-5.7v-9.8h5.7v-7.7l14.2-3.9v11.6h9.6v9.8h-9.6v11.9c0,1.6,0.4,2.8,1.1,3.5c0.7,0.7,1.8,1.1,3.3,1.1c1.8,0,3.4-0.4,4.7-1.2
			L1650.2,936.1z"/>
		<path d="M1689,905.2c2,2.1,3.1,5.1,3.1,8.9v23.8h-14.2v-20c0-1.9-0.3-3.3-0.9-4.1c-0.6-0.8-1.5-1.2-2.7-1.2
			c-1.5,0-2.6,0.6-3.5,1.7c-0.9,1.1-1.3,2.8-1.3,5.1v18.5h-14.2v-49.7h14.2v21.3c1-2.5,2.5-4.4,4.4-5.6c1.9-1.3,4.1-1.9,6.7-1.9
			C1684.2,902,1687,903.1,1689,905.2z"/>
	</g>
</g>
</svg>
