<svg width="101" height="46" fill="none" xmlns="http://www.w3.org/2000/svg"><g clip-path="url(#clip0)"><path fill-rule="evenodd" clip-rule="evenodd" d="M5.757 45.718h2.215V28.426H5.757v17.292zM.22 27.215h13.29v-2.161H.22v2.161zm28.198 9.453v9.05H26.29v-9.05s-.086-4.438-4.428-4.438c0 0-1.927-.087-3.25 1.556v-2.334c.661-.577 1.668-1.096 3.25-1.153 0 0 6.556-.404 6.556 6.37zm-11.014.98v8.07h-2.1V25.054h2.1v12.594z" fill="#000"/><mask id="a" maskUnits="userSpaceOnUse" x="36" y="25" width="24" height="21"><path d="M36.492 25.054h23.282V46H36.492V25.054z" fill="#000"/></mask><g mask="url(#a)"><path fill-rule="evenodd" clip-rule="evenodd" d="M44.429 30.328v2.19a4.754 4.754 0 0 0-.92-.086c-1.668 0-2.876.576-3.71 1.585v-2.45c1.007-.951 2.33-1.297 3.71-1.297.316 0 .632.029.92.058zm-7.937 15.39h2.128V30.587h-2.128v15.131zm21.154 0h2.128V25.054h-2.128v20.664zm-1.18-1.095c-1.178 1.038-2.846 1.384-4.284 1.384-4.256 0-7.218-3.257-7.247-7.869.029-4.611 3.02-7.868 7.247-7.868 1.438 0 3.106.346 4.285 1.383v2.508c-.95-1.268-2.445-1.96-4.285-1.96-3.365 0-5.12 2.479-5.148 5.937.029 3.459 1.783 5.938 5.148 5.938 1.84 0 3.336-.692 4.285-1.931v2.478z" fill="#000"/></g><path fill-rule="evenodd" clip-rule="evenodd" d="M31.137 45.718h2.128v-15.16h-2.128v15.16zm2.34-18.795c0 .757-.611 1.37-1.366 1.37a1.368 1.368 0 0 1-1.366-1.37c0-.756.611-1.369 1.366-1.369.755 0 1.367.613 1.367 1.37zM11.25 13.748h2.214V0H11.25v13.748zm0 1.182h2.214c0 7.493-6.614 7.119-6.614 7.119-7.304 0-6.844-7.12-6.844-7.12h2.128c0 5.563 4.716 5.102 4.716 5.102 4.544 0 4.4-5.101 4.4-5.101zm17.513-2.623v9.453h-2.128V11.125c0-1.556-1.639-2.796-4.055-2.796-2.444 0-4.112 1.528-4.112 3.632v.202H16.34v-.202c0-2.796 2.214-5.591 6.24-5.591 4.113 0 6.183 2.046 6.183 5.937zm-3.307 8.416c-.776.692-2.07 1.326-4.285 1.326-3.048 0-5.406-1.672-5.406-4.208 0-5.563 6.844-4.41 9.691-5.39v1.902c-2.645.75-7.65.144-7.563 3.372.029 1.5 1.093 2.306 3.278 2.306 1.985 0 3.394-.807 4.285-1.845v2.537zm19.037-8.013v9.05h-2.128v-9.05s-.086-4.438-4.428-4.438c0 0-1.956-.087-3.25 1.556V7.465c.633-.606 1.668-1.124 3.25-1.153 0 0 6.556-.375 6.556 6.398zM33.48 14.036v7.724h-2.128V6.6h2.128v7.436zm24.225 7.724h2.128V6.6h-2.128v15.16zm-1.179-.864c-.661.605-1.668 1.124-3.25 1.153 0 0-6.556.403-6.556-6.37V6.6h2.099v9.079s.115 4.41 4.457 4.41c0 0 1.927.115 3.25-1.557v2.364zm18.387-8.59v9.454h-2.128V11.125c0-1.556-1.639-2.796-4.055-2.796-2.444 0-4.112 1.528-4.112 3.632v.202H62.49v-.202c0-2.796 2.214-5.591 6.24-5.591 4.113 0 6.183 2.046 6.183 5.937zm-3.307 8.417c-.776.692-2.07 1.326-4.285 1.326-3.048 0-5.406-1.672-5.406-4.208 0-5.563 6.844-4.41 9.691-5.39v1.902c-2.645.75-7.65.144-7.563 3.372.029 1.5 1.093 2.306 3.278 2.306 1.985 0 3.394-.807 4.285-1.845v2.537z" fill="#000"/><mask id="b" maskUnits="userSpaceOnUse" x="76" y="6" width="25" height="27"><path d="M76.626 6.312H101v26.377H76.626V6.312z" fill="#000"/></mask><g mask="url(#b)" fill-rule="evenodd" clip-rule="evenodd" fill="#000"><path d="M84.235 6.37v2.19a4.75 4.75 0 0 0-.92-.086c-1.668 0-2.876.576-3.71 1.585v-2.45c1.006-.951 2.33-1.297 3.71-1.297.316 0 .632.029.92.058zm-7.61 15.39h2.129V6.63h-2.128V21.76zm16.725-3.314h2.359L101 6.6h-2.33l-5.32 11.846zm-.287 0h-2.358L85.413 6.6h2.33l5.32 11.846z"/><path d="M87.01 32.689h2.358L101 6.6h-2.33L87.01 32.69z"/></g></g><defs><clipPath id="clip0"><path fill="#fff" d="M0 0H101V46H0z"/></clipPath></defs></svg>