<svg width="101" height="22" fill="none" xmlns="http://www.w3.org/2000/svg"><g clip-path="url(#clip0)"><path fill-rule="evenodd" clip-rule="evenodd" d="M17.856 18.488c-.535.542-1.316 1.021-2.65 1.021-1.91 0-3.348-1.355-3.348-3.545v-5.587h3.225v5.087c0 .647.35 1.418 1.294 1.418.801 0 1.273-.667 1.273-1.376v-5.129h3.204v8.84h-.718a3.936 3.936 0 0 1-2.28-.73zm14.202-8.11h-3.73l-2.642 3.043v-3.044H22.49v8.717h3.196v-3.577l2.623 3.577h3.995l-3.688-4.748 3.442-3.967zm3.59 2.97h2.86c-.043-.592-.56-1.243-1.43-1.243-.953 0-1.324.694-1.43 1.243zm4.798 2.93l1.157 2.006c-.883.76-2.588 1.225-4.081 1.225-2.925 0-5.218-2.154-5.218-4.773 0-2.831 2.188-4.774 4.776-4.774 2.44 0 4.88 1.78 4.608 5.266h-6.144c.105 1.305 1.242 1.747 2.42 1.747.967 0 1.956-.36 2.482-.698zm36.292 2.21c-.534.542-1.315 1.021-2.65 1.021-1.91 0-3.347-1.355-3.347-3.545v-5.587h3.225v5.087c0 .647.348 1.418 1.293 1.418.801 0 1.274-.667 1.274-1.376v-5.129h3.204v8.84h-.718a3.936 3.936 0 0 1-2.28-.73zm11.27-2.4l1.46 1.9c-.98 1.099-2.335 1.521-3.607 1.521-2.709 0-4.898-2.26-4.898-4.773 0-2.725 2.189-4.774 4.898-4.774 1.46 0 2.835.676 3.69 1.585l-1.564 2.048c-.312-.36-.938-.993-1.73-.993-.979 0-2.021.655-2.021 2.134 0 1.478 1.125 2.133 2.001 2.133.645 0 1.334-.359 1.772-.782zm12.746-5.71h-3.729l-2.643 3.043v-3.044h-3.196v8.717h3.196v-3.577l2.623 3.577H101l-3.688-4.748 3.442-3.967zm-50.023.238h-.082c-.052 0-.104.003-.156.004a1.273 1.273 0 0 1-.845-.408 1.311 1.311 0 0 1-.346-.884c.001-.345.137-.675.377-.918a1.272 1.272 0 0 1 1.811 0c.24.243.376.573.377.918a1.312 1.312 0 0 1-.327.864c-.21.237-.497.388-.81.424h.001zm5.443 7.178l.452-.53a2.839 2.839 0 0 0 .666-2.057A2.857 2.857 0 0 0 57 14.143a2.82 2.82 0 0 0-.671-.868l-.137-.12-1.929 2.27-1.84-2.28a4.253 4.253 0 0 0 2.363-3.817c0-.868-.26-1.675-.703-2.349-1.567-.934-4.722-1.058-4.722-1.058h4.425c.617 0 1.117-.507 1.117-1.13h-1.541V0H48.08v4.79h-.485c-.296 0-.58.119-.79.33-.21.213-.328.5-.328.8h1.605a4.264 4.264 0 0 0-1.531 2.228c-.334.303-1.244.976-2.883 1.17-.142.016-.247.09-.296.207-.056.135-.025.311.08.45.146.194.411.348.81.473.492.155 1.205.189 1.875.189.154 0 .305-.002.451-.004.134.416.33.808.582 1.163a6.73 6.73 0 0 0-.874.756c-1.106 1.139-1.702 2.548-1.677 3.97.053 3.02 2.527 5.478 5.515 5.478 1.145 0 2.049-.364 2.841-.922-.347-1.555-.972-2.511-1.233-2.86-.56.512-1.043.776-1.63.77-1.316-.014-2.419-1.06-2.51-2.383a2.575 2.575 0 0 1 .676-1.932c.202-.219.517-.435.864-.614l5.472 6.779a2.94 2.94 0 0 0 1.018.806 2.919 2.919 0 0 0 3.11-.38l.14-.115-2.708-3.355zm-51.51-1.022c-1.067 0-1.932-.927-1.932-2.071 0-1.144.865-2.07 1.932-2.07s1.932.926 1.932 2.07c0 1.144-.865 2.071-1.932 2.071zm1.97-11.79v5.73a3.998 3.998 0 0 0-2.322-.752C1.932 9.96 0 12.097 0 14.735c0 2.637 1.93 4.774 4.313 4.774 1.031 0 1.978-.401 2.72-1.07a4.562 4.562 0 0 0 2.533.772h.248V4.98h-3.18zm57.322 11.79c-1.068 0-1.933-.927-1.933-2.071 0-1.144.865-2.07 1.932-2.07 1.068 0 1.933.926 1.933 2.07 0 1.144-.865 2.071-1.933 2.071zm1.97-11.79v5.73a3.998 3.998 0 0 0-2.322-.752c-2.382 0-4.313 2.137-4.313 4.775 0 2.637 1.931 4.774 4.313 4.774 1.032 0 1.978-.401 2.72-1.07a4.562 4.562 0 0 0 2.533.772h.248V4.98h-3.179z" fill="#000"/></g><defs><clipPath id="clip0"><path fill="#fff" d="M0 0H101V22H0z"/></clipPath></defs></svg>