<svg width="72" height="30" fill="none" xmlns="http://www.w3.org/2000/svg"><path fill-rule="evenodd" clip-rule="evenodd" d="M3.538 10.06C1.841 11.768 1 13.544 1 15.32c0 1.77.837 3.502 2.526 5.147 1.697 1.651 4.205 3.161 7.39 4.438C17.282 27.458 26.148 29 36 29s18.718-1.542 25.084-4.095c3.185-1.277 5.693-2.787 7.39-4.438C70.164 18.822 71 17.09 71 15.319c0-1.775-.84-3.551-2.538-5.259-1.702-1.712-4.214-3.3-7.397-4.654C54.7 2.698 45.84 1 36 1c-9.84 0-18.701 1.698-25.065 4.406C7.752 6.761 5.24 8.348 3.538 10.06zM36 0C16.117 0 0 6.856 0 15.32 0 23.781 16.117 30 36 30s36-6.218 36-14.68C72 6.855 55.883 0 36 0z" fill="#000"/><path fill-rule="evenodd" clip-rule="evenodd" d="M20.996 19.966H11.01V18.8c.236-1.79 1.89-3.306 4.65-4.128l.029-.01c1.328-.422 2.38-.756 2.38-1.339 0-.586-.998-.937-2.02-.937a4.806 4.806 0 0 0-3.43 1.524l-1.48-1.425a6.535 6.535 0 0 1 5.032-2.072c2.242 0 4.636.876 4.636 2.88 0 1.6-1.472 2.514-3.523 3.138-1.524.48-2.775 1.036-3.087 1.524h6.8v2.01zm8.104.312c-3.56 0-5.794-1.82-5.794-4.959 0-3.138 2.234-4.959 5.794-4.959 3.56 0 5.81 1.82 5.81 4.96 0 3.138-2.234 4.958-5.81 4.958zm17.977-.312H37.09V18.8c.237-1.79 1.891-3.306 4.65-4.128 1.35-.427 2.41-.762 2.41-1.349 0-.586-.999-.937-2.02-.937a4.821 4.821 0 0 0-3.431 1.524l-1.471-1.425a6.505 6.505 0 0 1 5.024-2.072c2.249 0 4.635.876 4.635 2.88 0 1.6-1.471 2.514-3.522 3.138-1.525.48-2.775 1.036-3.05 1.524h6.793l-.03 2.01zm8.105.312c-3.56 0-5.794-1.82-5.794-4.959 0-3.138 2.233-4.959 5.794-4.959 3.56 0 5.81 1.828 5.81 4.96 0 3.13-2.227 4.958-5.81 4.958zm.082-7.678c-1.923 0-3.064.973-3.064 2.765 0 1.792 1.149 2.765 3.064 2.765s3.064-.973 3.064-2.765c0-1.792-1.15-2.765-3.064-2.765zM26.05 15.365c0-1.792 1.141-2.765 3.064-2.765 1.907 0 3.064.973 3.064 2.765 0 1.792-1.15 2.765-3.064 2.765-1.915 0-3.064-.973-3.064-2.765z" fill="#000"/></svg>