<svg width="40" height="40" fill="none" xmlns="http://www.w3.org/2000/svg"><path fill-rule="evenodd" clip-rule="evenodd" d="M20 39c10.493 0 19-8.507 19-19S30.493 1 20 1 1 9.507 1 20s8.507 19 19 19zm20-19c0 11.046-8.954 20-20 20S0 31.046 0 20 8.954 0 20 0s20 8.954 20 20z" fill="#000"/><path d="M20.02 13.09l-1.72 5.3h-5.57l4.51 3.27-1.72 5.3 4.5-3.28 4.51 3.28-1.72-5.3 4.51-3.27h-5.58l-1.72-5.3z" fill="#000"/><path d="M3.21 27l4.5-3.28L12.22 27l-1.72-5.3 4.5-3.32H9.43l-1.72-5.29L6 18.38H.5v.06l4.43 3.22L3.21 27zm29.12-13.91l-1.72 5.29H25l4.51 3.28L27.82 27l4.51-3.28L36.84 27l-1.72-5.3 4.42-3.22v-.06h-5.49l-1.72-5.33z" fill="#000"/></svg>