<svg width="40" height="40" fill="none" xmlns="http://www.w3.org/2000/svg"><path d="M20 0C9 0 0 4.716 0 10.49 0 16.265 9 21 20 21s20-4.706 20-10.51C40 4.686 31.06 0 20 0zm-6.74 14.986h-5V5.994h5c3.45 0 5.65 1.669 5.65 4.486 0 2.817-2.18 4.506-5.63 4.506h-.02zm13.5.3c-3.39 0-5.67-1.759-5.67-4.786 0-3.027 2.28-4.775 5.77-4.775a5.745 5.745 0 0 1 4.94 2.327l-2.25 1.16a2.999 2.999 0 0 0-2.71-1.36c-1.85 0-3.08.93-3.08 2.648s1.23 2.658 3.08 2.658a3.002 3.002 0 0 0 2.76-1.38l2.24 1.16a5.84 5.84 0 0 1-5.06 2.347h-.02z" fill="#000"/><path d="M12.99 8.08H10.8v4.82h2.19c1.92 0 3.18-.82 3.18-2.41 0-1.59-1.26-2.41-3.18-2.41z" fill="#000"/><path fill-rule="evenodd" clip-rule="evenodd" d="M39 16.808V10h1v6.808C40 22.444 31.045 27 20 27S0 22.454 0 16.818V10h1v6.818c0 2.245 1.806 4.53 5.311 6.313C9.763 24.887 14.601 26 20 26c5.398 0 10.236-1.116 13.688-2.873C37.194 21.34 39 19.053 39 16.808z" fill="#000"/><path fill-rule="evenodd" clip-rule="evenodd" d="M39 23.408V17h1v6.408C40 28.712 31.045 33 20 33S0 28.712 0 23.408V17h1v6.408c0 2.047 1.762 4.192 5.29 5.883C9.747 30.948 14.593 32 20 32s10.253-1.052 13.71-2.709C37.239 27.6 39 25.455 39 23.408z" fill="#000"/><path fill-rule="evenodd" clip-rule="evenodd" d="M39 29.808V23h1v6.808C40 35.444 31.045 40 20 40S0 35.444 0 29.808V23h1v6.808c0 2.245 1.806 4.533 5.312 6.319C9.763 37.885 14.602 39 20 39c5.398 0 10.236-1.115 13.688-2.873C37.194 34.34 39 32.053 39 29.808z" fill="#000"/></svg>