<?xml version="1.0" encoding="UTF-8" standalone="no"?>
<!DOCTYPE svg PUBLIC "-//W3C//DTD SVG 1.1//EN" "http://www.w3.org/Graphics/SVG/1.1/DTD/svg11.dtd">
<svg width="100%" height="100%" viewBox="0 0 439 114" version="1.1" xmlns="http://www.w3.org/2000/svg" xmlns:xlink="http://www.w3.org/1999/xlink" xml:space="preserve" xmlns:serif="http://www.serif.com/" style="fill-rule:evenodd;clip-rule:evenodd;stroke-linejoin:round;stroke-miterlimit:2;">
    <g transform="matrix(1,0,0,1,-203.009,-193.318)">
        <g transform="matrix(1,0,0,1,44.1094,-103.182)">
            <g>
                <g>
                    <path d="M537.7,385.2L500.9,409.8L512.9,367.2L478.1,339.8L522.4,338L537.7,296.5L553,338L597.3,339.8L562.5,367.2L574.5,409.8L537.7,385.2Z" style="fill:rgb(230,80,60);fill-rule:nonzero;"/>
                    <path d="M378.1,385.2L341.3,409.8L353.3,367.2L318.5,339.8L362.7,338L378.1,296.5L393.4,338L437.7,339.8L402.9,367.2L414.9,409.8L378.1,385.2Z" style="fill:rgb(230,80,60);fill-rule:nonzero;"/>
                    <path d="M218.5,385.2L181.6,409.8L193.6,367.2L158.9,339.8L203.1,338L218.5,296.5L233.8,338L278.1,339.8L243.3,367.2L255.3,409.8L218.5,385.2Z" style="fill:rgb(230,80,60);fill-rule:nonzero;"/>
                </g>
            </g>
        </g>
    </g>
</svg>
