<svg width="40" height="40" fill="none" xmlns="http://www.w3.org/2000/svg"><path fill-rule="evenodd" clip-rule="evenodd" d="M8.26 14.986h5.02c3.45 0 5.63-1.689 5.63-4.506s-2.2-4.486-5.65-4.486h-5v8.992zM21.09 10.5c0 3.027 2.28 4.785 5.67 4.785h.02a5.845 5.845 0 0 0 5.06-2.347l-2.24-1.16a2.998 2.998 0 0 1-2.76 1.38c-1.85 0-3.08-.94-3.08-2.658s1.23-2.647 3.08-2.647a3.003 3.003 0 0 1 2.71 1.358l2.25-1.159a5.739 5.739 0 0 0-4.94-2.327c-3.49 0-5.77 1.748-5.77 4.775zM10.8 8.08h2.19c1.92 0 3.18.82 3.18 2.41 0 1.59-1.26 2.41-3.18 2.41H10.8V8.08z" fill="#000"/><path fill-rule="evenodd" clip-rule="evenodd" d="M39 16.808V10h1v6.808C40 22.444 31.045 27 20 27S0 22.454 0 16.818V10h1v6.818c0 2.245 1.806 4.53 5.311 6.313C9.763 24.887 14.601 26 20 26c5.398 0 10.236-1.116 13.688-2.873C37.194 21.34 39 19.053 39 16.808z" fill="#000"/><path fill-rule="evenodd" clip-rule="evenodd" d="M39 23.408V17h1v6.408C40 28.712 31.045 33 20 33S0 28.712 0 23.408V17h1v6.408c0 2.047 1.762 4.192 5.29 5.883C9.747 30.948 14.593 32 20 32s10.253-1.052 13.71-2.709C37.239 27.6 39 25.455 39 23.408z" fill="#000"/><path fill-rule="evenodd" clip-rule="evenodd" d="M39 29.808V23h1v6.808C40 35.444 31.045 40 20 40S0 35.444 0 29.808V23h1v6.808c0 2.245 1.806 4.533 5.312 6.319C9.763 37.885 14.602 39 20 39c5.398 0 10.236-1.115 13.688-2.873C37.194 34.34 39 32.053 39 29.808zM33.677 17.04C37.173 15.204 39 12.842 39 10.5c0-2.342-1.827-4.704-5.323-6.54C30.228 2.15 25.394 1 20 1S9.772 2.15 6.323 3.96C2.827 5.797 1 8.159 1 10.5c0 2.342 1.827 4.704 5.323 6.54C9.772 18.85 14.606 20 20 20s10.228-1.15 13.677-2.96zM20 21c11.046 0 20-4.701 20-10.5S31.046 0 20 0 0 4.701 0 10.5 8.954 21 20 21z" fill="#000"/></svg>