<svg width="40" height="38" fill="none" xmlns="http://www.w3.org/2000/svg"><path fill-rule="evenodd" clip-rule="evenodd" d="M25.535 0c-1.875 1.36-3.104 2.143-5.582 2.143-2.479 0-3.697-.804-5.572-2.143a11.4 11.4 0 0 0-2.662 3.842 11.507 11.507 0 0 0-.893 3.882c-1-.147-2.017-.164-3.026-.047A11.58 11.58 0 0 0 3.303 9.17c.757 2.182 1.18 3.598.443 5.982C3.01 17.536 1.862 18.483 0 19.888a11.333 11.333 0 0 0 2.915 3.678c.662.55 1.384 1.022 2.15 1.41a11.585 11.585 0 0 0-.41 6.828c2.298-.096 3.759-.086 5.833 1.289 2.075 1.374 2.657 2.76 3.483 4.907a11.182 11.182 0 0 0 4.32-1.724c.615-.41 1.187-.88 1.709-1.401.522.52 1.094.99 1.709 1.401A11.181 11.181 0 0 0 26.029 38c.826-2.148 1.408-3.533 3.483-4.907 2.074-1.375 3.535-1.385 5.832-1.289a11.584 11.584 0 0 0-.41-6.828 11.515 11.515 0 0 0 2.15-1.41A11.333 11.333 0 0 0 40 19.888c-1.862-1.405-3.01-2.352-3.746-4.736-.737-2.384-.314-3.8.444-5.982A11.58 11.58 0 0 0 32.2 7.677c-1.01-.117-2.03-.1-3.03.047-.08-1.34-.393-2.659-.927-3.893A11.4 11.4 0 0 0 25.535 0zm9.006 24.054c.678-.349 1.318-.77 1.905-1.258a10.354 10.354 0 0 0 2.265-2.635c-.653-.51-1.249-1.023-1.764-1.621-.712-.826-1.245-1.784-1.649-3.093-.404-1.31-.502-2.4-.376-3.478.092-.782.3-1.535.555-2.316a10.594 10.594 0 0 0-6.295-.919c-.202 4.29-4.819 7.974-7.43 9.724 3.063-.022 9.538.413 12.036 4.262.28.428.532.874.753 1.334zm-13.96-4.243c.056-.121.109-.23.155-.326a27.24 27.24 0 0 1 4.827.207c2.972.404 5.983 1.41 7.386 3.573l.003.004c.253.385.48.786.679 1.2-.327.131-.66.246-1 .344l-.01.003-.008.002c-2.48.765-5.498-.414-8.102-2.035a28.393 28.393 0 0 1-3.93-2.972zm-1.882 1.92c-2.61 2.077-7.523 5.302-11.607 4.043-.378-.11-.75-.238-1.114-.384a10.557 10.557 0 0 0-.512 5.386c.818-.02 1.594 0 2.365.137 1.063.189 2.073.593 3.21 1.346 1.141.756 1.907 1.542 2.497 2.455.427.66.75 1.373 1.055 2.132a10.195 10.195 0 0 0 3.143-1.402c.572-.382 1.104-.82 1.587-1.307a11.43 11.43 0 0 1-.883-1.205c-2.077-3.207-.91-8.033.259-11.202zM20 33.385a10.422 10.422 0 0 1-.717-.992l-.004-.006c-1.406-2.172-1.114-5.385-.292-8.316A27.584 27.584 0 0 1 20 21.141c.337.826.705 1.835 1.013 2.931.822 2.931 1.114 6.144-.292 8.316l-.004.007c-.22.345-.46.676-.717.991zm.677.751c.32-.38.614-.783.883-1.205 2.077-3.207.91-8.033-.259-11.202 2.61 2.078 7.523 5.303 11.607 4.044.378-.11.75-.238 1.114-.384a10.563 10.563 0 0 1 .512 5.386c-.818-.02-1.594 0-2.365.137-1.063.189-2.073.593-3.21 1.346-1.141.756-1.907 1.542-2.497 2.455-.427.66-.75 1.373-1.055 2.132a10.195 10.195 0 0 1-3.143-1.402 10.302 10.302 0 0 1-1.587-1.307zm-2.054-13.636a27.5 27.5 0 0 0 .796-.69c-.056-.121-.109-.23-.155-.326a27.24 27.24 0 0 0-4.827.207c-2.972.404-5.983 1.41-7.386 3.573l-.003.004c-.253.385-.48.786-.679 1.2.327.131.66.246 1 .344l.01.003.008.002c2.48.765 5.499-.414 8.102-2.035a28.393 28.393 0 0 0 3.134-2.282zm-12.411 2.22c2.496-3.847 8.961-4.284 12.027-4.263-2.607-1.75-7.219-5.435-7.42-9.724a10.641 10.641 0 0 0-6.296.92c.255.78.464 1.533.555 2.315.126 1.078.028 2.169-.376 3.478-.404 1.309-.938 2.267-1.649 3.093-.515.598-1.111 1.11-1.764 1.621a10.354 10.354 0 0 0 2.265 2.635c.587.488 1.227.91 1.905 1.258.22-.46.472-.906.753-1.334zM28.178 7.914a10.509 10.509 0 0 0-.853-3.687 10.41 10.41 0 0 0-1.899-2.922c-.678.472-1.34.884-2.061 1.195-.992.426-2.056.642-3.412.642-1.36 0-2.422-.223-3.41-.652-.715-.31-1.371-.72-2.042-1.183A10.42 10.42 0 0 0 12.64 4.23a10.51 10.51 0 0 0-.821 3.683c.238.056.474.12.709.192 4.253 1.259 6.526 6.892 7.472 9.982.946-3.09 3.219-8.723 7.472-9.982.234-.071.469-.135.706-.191zm-6.979 9.71c.25-.742.565-1.579.953-2.435 1.246-2.753 3.09-5.381 5.604-6.125l.008-.003c.133-.04.266-.078.4-.113-.234 2.413-2.106 4.732-4.23 6.59a27.336 27.336 0 0 1-2.735 2.086zm-5.137-2.086a27.323 27.323 0 0 0 2.741 2.093 26.229 26.229 0 0 0-.955-2.442c-1.246-2.753-3.09-5.381-5.604-6.125l-.008-.003c-.133-.04-.266-.078-.4-.113.235 2.414 2.104 4.733 4.226 6.59z" fill="#000"/></svg>