<svg width="220" height="360" fill="none" xmlns="http://www.w3.org/2000/svg"><path fill-rule="evenodd" clip-rule="evenodd" d="M160 0h60v60h-60V0zm0 180h60v180H100v-60h60V180zM20 240h80v60H40v-40H20v-20zm0 0v-20H0v20h20zm80-60h20v20h-20v-20z" fill="#000"/><path fill-rule="evenodd" clip-rule="evenodd" d="M140 80h-20v20h20v20h20v20h20v20h-20v20h-20v20h-20v20h-20v20h20v-20h20v20h20v-20h-20v-20h20v-20h20v-20h20v20h20v-20h-20v-20h20v-20h-20v20h-20v-20h-20v-20h-20V80zM0 200h20v20H0v-20zm20 20h20v20H20v-20zm20 80H20v20h20v-20z" fill="#F1F1F1"/></svg>