<svg width="280" height="340" fill="none" xmlns="http://www.w3.org/2000/svg"><path fill-rule="evenodd" clip-rule="evenodd" d="M200 0h20v20h-20V0zm0 40h-20V20h20v20zm20 0v20h-20V40h20zm20-20v20h-20V20h20zm20 0h-20V0h20v20zm0 0h20v20h-20V20zM20 120H0v20h20v20H0v20h20v-20h20v20h20v20h20v20H60v20h20v20H60v20h20v-20h20v-20h20v-20h20v20h20v-20h20v-20h-20v-20h-20v20h-20v-20h-20v20H80v-20H60v-20H40v-20h20v-20H40v20H20v-20zm80 100h20v-20h-20v20zm40-20h20v20h-20v-20zm-40 20H80v20h20v-20zm80-80h20v20h-20v-20zm40 20v20h-20v-20h20zm0-20h20v20h-20v-20zm0 0v-20h-20v20h20zm-20 100h20v20h-20v-20zm0 20v20h-20v-20h20z" fill="#F1F1F1"/><path fill-rule="evenodd" clip-rule="evenodd" d="M120 0H60v60H0v60h60v60H0v160h40v-40h20V180h60v20h20v-20h-20v-60h100v20h40v20h20v-20h-20v-20h-20V60h-60V0h-60z" fill="#000"/></svg>