<svg fill="none" height="300" viewBox="0 0 240 300" width="240" xmlns="http://www.w3.org/2000/svg"><g clip-rule="evenodd" fill-rule="evenodd"><path d="m80 80h-20v20h20zm40 20h-20v20h-40v40h40v60h60v60h-60v-40h-40v40h-20v20h60 60 80v-40-40-20h-60v20h-20v-60h-60v-40h20zm100 80v-20h-40v-60h60v60 20z" fill="#000"/><path d="m240 0h-20v20h-20v20h-20v20h-20v20h20v20h-20v20h20v-20h20v-20h20v20h20v-20h-20v-20h20v-20h-20v-20h20zm-40 60v20h-20v-20zm0 0h20v-20h-20zm-40 80h20v20h-20zm40 40v-20h-20v20h-20v20h20v-20zm0 0h20v20h-20zm-160-40h20v20h-20zm0-20v20h-20v-20zm0 0h20v-20h-20zm60-20h-20v20h20zm20 120h20v20h-20zm0 40v-20h-20v-20h-20v-20h-20v20h-20v20h20v-20h20v20h20v20zm20 0v20h-20v-20zm0 0h20v-20h-20zm-80 0h-20v20h-20v-20h-20v20h20v20h20v-20h20z" fill="#f1f1f1"/></g></svg>