<svg xmlns="http://www.w3.org/2000/svg" width="220" height="300" fill="none" viewBox="0 0 220 300"><path fill="#000" fill-rule="evenodd" d="M0 0H40H100V60H40V100H0V0ZM100 100H40V160H0V200H40V160H80V180H60V200H80V220H100V200H80V180H100V160V100ZM140 100V60H100V100H140ZM160 120H140V100H160V120ZM160 120V140H180V120H160ZM220 0H160V60H220V0Z" clip-rule="evenodd"/><path fill="#F1F1F1" fill-rule="evenodd" d="M120 0H140V20H120V0ZM120 40V20H100V40H120ZM140 40V60H120V40H140ZM140 40V20H160V40H140ZM60 80H40V100H20V120H0V140H20V160H40V140H20V120H40V100H60V80ZM80 80H60V60H80V80ZM80 80V100H100V80H80ZM140 120H120V140H140V160H120V180H140V160H160V180H180V160H160V140H140V120ZM180 200H160V220H140V240H160V220H180V200ZM20 200H0V220H20V240H40V260H60V280H40V300H60V280H80V300H100V280H80V260H100V240H80V260H60V240H40V220H20V200Z" clip-rule="evenodd"/></svg>