<svg width="320" height="280" fill="none" xmlns="http://www.w3.org/2000/svg"><path fill-rule="evenodd" clip-rule="evenodd" d="M120 60h20v20h-20V60zm20 20h20v20h-20V80zm140 40h40v160H200v-60h60v-60h20v-40zm-120 60h40v-40h40v40h-20v20h-20v20h-40v-40zm-20 0h20v-20h-20v-20h-20v20h20v20zm0 0v20h-20v-20h20z" fill="#000"/><path fill-rule="evenodd" clip-rule="evenodd" d="M260 0h20v20h-20V0zm0 40V20h-20V0h-20v20h20v20h-20v20h20V40h20zm0 0h20v20h-20V40zM140 20h-20v20h-20v20h20V40h20v20h20V40h-20V20zm120 60h20v20h-20V80zm0 40v-20h-20V80h-20v20h-20V80h-20v20h-20v20h20v20h-20v20h20v-20h20v-20h20v20h20v20h20v-20h20v-20h20v-20h20V80h-20v20h-20v20h-20zm-20 0v-20h-20v20h20zm0 0h20v20h-20v-20zm-40 0h-20v-20h20v20zm-80 40h-20v20H80v20h20v20H80v20H60v20H40v-20H20v20H0v20h20v-20h20v20h20v-20h20v20h20v-20h20v20h20v-20h20v20h20v-20h20v-20h-20v-20h-20v-20h-20v20h-20v-20h-20v-20h20v-20zm0 80v-20h-20v20H80v20h20v-20h20zm20 0v-20h20v20h-20zm0 0v20h-20v-20h20zm20 0v20h20v-20h-20zM40 180h20v20H40v-20zm-20 0v-20h20v20H20zm0 20H0v-20h20v20zm0 0v20h20v-20H20zm220-20h20v20h-20v-20zm0 20v20h-20v-20h20z" fill="#F1F1F1"/></svg>