<svg fill="none" height="300" width="240" xmlns="http://www.w3.org/2000/svg"><g clip-rule="evenodd" fill-rule="evenodd"><path d="M80 80H60v20h20zm40 20h-20v20H60v40h40v60h60v60h-60v-40H60v40H40v20h200V200h-60v20h-20v-60h-60v-40h20zm100 80v-20h-40v-60h60v80z" fill="#000"/><path d="M240 0h-20v20h-20v20h-20v20h-20v20h20v20h-20v20h20v-20h20V80h20v20h20V80h-20V60h20V40h-20V20h20zm-40 60v20h-20V60zm0 0h20V40h-20zm-40 80h20v20h-20zm40 40v-20h-20v20h-20v20h20v-20zm0 0h20v20h-20zM40 140h20v20H40zm0-20v20H20v-20zm0 0h20v-20H40zm60-20H80v20h20zm20 120h20v20h-20zm0 40v-20h-20v-20H80v-20H60v20H40v20h20v-20h20v20h20v20zm20 0v20h-20v-20zm0 0h20v-20h-20zm-80 0H40v20H20v-20H0v20h20v20h20v-20h20z" fill="#f1f1f1"/></g></svg>