<svg width="220" height="300" fill="none" xmlns="http://www.w3.org/2000/svg"><path fill-rule="evenodd" clip-rule="evenodd" d="M0 0h100v60H40v40H0V0zm100 100H40v60H0v40h40v-40h40v20H60v20h20v20h20v-20H80v-20h20v-80zm40 0V60h-40v40h40zm20 20h-20v-20h20v20zm0 0v20h20v-20h-20zM220 0h-60v60h60V0z" fill="#000"/><path fill-rule="evenodd" clip-rule="evenodd" d="M120 0h20v20h-20V0zm0 40V20h-20v20h20zm20 0v20h-20V40h20zm0 0V20h20v20h-20zM60 80H40v20H20v20H0v20h20v20h20v-20H20v-20h20v-20h20V80zm20 0H60V60h20v20zm0 0v20h20V80H80zm60 40h-20v20h20v20h-20v20h20v-20h20v20h20v-20h-20v-20h-20v-20zm40 80h-20v20h-20v20h20v-20h20v-20zm-160 0H0v20h20v20h20v20h20v20H40v20h20v-20h20v20h20v-20H80v-20h20v-20H80v20H60v-20H40v-20H20v-20z" fill="#F1F1F1"/></svg>