<svg width="300" height="340" fill="none" xmlns="http://www.w3.org/2000/svg"><path fill-rule="evenodd" clip-rule="evenodd" d="M0 0h120v40h60v60h-20v20h-20v-20h-20v40h-20v-20H60V60H0V0zm120 140v20h20v-20h-20zM0 120h20v40H0v-40zm40 80v-20H0v60h20v-20h40v-20H40zm40-40H60v20h20v-20zm80 0h20v20h-20v-20z" fill="#000"/><path fill-rule="evenodd" clip-rule="evenodd" d="M140 0h-20v20h20v20h20V20h20v20h20v20h20V40h19V20h-19V0h-20v20h-20V0h-20v20h-20V0zm60 20h19v20h-19V20zM20 60h20v20H20V60zm0 40H0V80h20v20zm20 0H20v20h20v20H20v20H0v20h20v-20h20v20h20v20h20v-20H60v-20H40v-20h20v-20H40v-20zm0 0h20V80H40v20zM0 240h20v20H0v-20zm20 20h20v20H20v-20zm40 40h20v20H60v-20zm0 20v20H40v-20h20zm40-140h20v20h-20v-20zm20-20h-20v-20h20v20zm20 0h-20v20h20v20h20v20h20v-20h-20v-20h-20v-20zm0-20h20v20h-20v-20zm0 0v-20h-20v20h20zm60 0h-20v20h20v20h20v-20h20v-20h-20v-20h-20v20zm0 0h20v20h-20v-20zm40-60h20v20h-20V80zm40 20v20h-20v-20h20zm0-20h20v20h-20V80zm0 0V60h-20v20h20zm-20 100h20v20h-20v-20zm0 20v20h-20v-20h20z" fill="#F1F1F1"/></svg>