<svg width="320" height="280" viewBox="0 0 320 280" fill="none" xmlns="http://www.w3.org/2000/svg">
<path fill-rule="evenodd" clip-rule="evenodd" d="M120 60H140V80H120V60ZM140 80H160V100H140V80ZM280 120H320V160V220V280H200V220H260V160H280V120ZM160 180H200V140H240V180H220V200H200V220H160V180ZM140 180H160V160H140V140H120V160H140V180ZM140 180V200H120V180H140Z" fill="black"/>
<path fill-rule="evenodd" clip-rule="evenodd" d="M260 0H280V20H260V0ZM260 40V20H240V0H220V20H240V40H220V60H240V40H260ZM260 40H280V60H260V40ZM140 20H120V40H100V60H120V40H140V60H160V40H140V20ZM260 80H280V100H260V80ZM260 120V100H240V80H220V100H200V80H180V100H160V120H180V140H160V160H180V140H200V120H220V140H240V160H260V140H280V120H300V100H320V80H300V100H280V120H260ZM240 120V100H220V120H240ZM240 120H260V140H240V120ZM200 120H180V100H200V120ZM120 160H100V180H80V200H100V220H80V240H60V260H40V240H20V260H0V280H20V260H40V280H60V260H80V280H100V260H120V280H140V260H160V280H180V260H200V240H180V220H160V200H140V220H120V200H100V180H120V160ZM120 240V220H100V240H80V260H100V240H120ZM140 240V220H160V240H140ZM140 240V260H120V240H140ZM160 240V260H180V240H160ZM40 180H60V200H40V180ZM20 180V160H40V180H20ZM20 200H0V180H20V200ZM20 200V220H40V200H20ZM240 180H260V200H240V180ZM240 200V220H220V200H240Z" fill="#F1F1F1"/>
</svg>
