<svg xmlns="http://www.w3.org/2000/svg" width="1366" height="400" fill="none" viewBox="0 0 1366 400"><g clip-path="url(#clip0)"><path fill="#000" fill-rule="evenodd" d="M29.0275 76.4663C29.0275 75.9129 28.6203 75.4602 28.1234 75.4602C27.6265 75.4602 27.4907 75.9783 27.8237 76.6122C28.2549 77.4352 27.7213 77.5509 25.9531 77.0156C24.5914 76.6041 22.3256 76.2993 20.9169 76.3385C19.5082 76.3767 16.7472 76.1725 14.781 75.8827C11.9183 75.4612 11.1525 74.9148 10.9391 73.144C10.6966 71.1358 10.1818 70.9325 5.33594 70.9325H0V400L1.52588e-05 375.23V350.459L2.7747 352.074C4.30035 352.962 7.85452 353.872 10.6719 354.096C13.923 354.355 16.4185 355.14 17.5019 356.245C18.9925 357.766 20.7829 357.95 31.5888 357.695C38.3974 357.534 45.5757 357.093 47.5402 356.714C50.6504 356.115 51.8192 356.486 56.5746 359.581C60.6333 362.224 63.5105 363.313 67.7733 363.821C71.7014 364.29 74.5939 364.089 76.9485 363.184C79.9247 362.041 80.8962 362.082 84.1584 363.489C87.5076 364.934 88.2615 364.955 90.8936 363.675C94.8918 361.73 97.0774 361.86 99.6267 364.194C101.621 366.021 101.945 366.05 104.336 364.61C105.799 363.729 107.786 363.323 108.958 363.666C110.33 364.067 112.832 363.246 116.475 361.201C120.82 358.761 122.561 358.272 124.999 358.803C127.055 359.253 128.063 359.101 128.063 358.343C128.063 357.586 128.894 357.714 130.581 358.729C131.967 359.563 134.199 360.245 135.543 360.245C137.237 360.245 138.536 361.111 139.778 363.066C141.408 365.633 142.055 365.892 146.982 365.947C149.959 365.981 153.063 365.592 153.88 365.086C154.904 364.448 155.993 364.64 157.388 365.705C158.5 366.553 160.023 366.974 160.771 366.64C161.518 366.306 163.974 367.14 166.227 368.493C171.219 371.493 176.859 373.768 181.422 374.621C186.665 375.602 187.825 376.16 187.825 377.705C187.825 379.526 188.258 379.496 190.89 377.488C192.65 376.145 193.59 376.043 196.059 376.925C197.719 377.519 199.606 377.768 200.251 377.48C201.627 376.865 210.497 382.548 212.492 385.321C213.247 386.37 215.3 388.047 217.056 389.047C220.203 390.838 220.279 390.834 222.584 388.723C224.222 387.223 226.119 386.583 228.925 386.583C232.031 386.583 232.73 386.305 232.043 385.34C231.373 384.401 231.692 384.098 233.346 384.098C234.549 384.098 235.761 384.526 236.039 385.048C236.316 385.571 237.091 385.755 237.759 385.456C238.427 385.158 239.962 386.064 241.17 387.469C242.9 389.484 244.076 389.971 246.712 389.765C248.552 389.622 250.335 389.183 250.673 388.789C251.01 388.396 252.76 388.074 254.56 388.074C256.637 388.074 258.425 388.763 259.456 389.963C261.326 392.141 265.222 393.907 264.292 392.155C263.971 391.55 264.073 391.055 264.521 391.055C264.968 391.055 265.555 391.726 265.825 392.546C266.095 393.366 267.065 394.037 267.979 394.037C268.895 394.037 269.803 394.595 269.999 395.279C270.239 396.116 271.925 396.445 275.168 396.287C277.815 396.157 281.003 396.505 282.254 397.058C283.988 397.825 285.002 397.704 286.518 396.548C289.223 394.485 290.908 394.642 291.556 397.018C291.854 398.112 292.552 398.992 293.107 398.975C294.364 398.936 297.522 394.037 296.291 394.037C295.8 394.037 295.398 393.6 295.398 393.068C295.398 392.506 296.563 392.367 298.172 392.739C300.704 393.322 300.843 393.231 299.759 391.697C298.707 390.207 298.755 390.092 300.186 390.689C301.074 391.06 302.28 391.797 302.868 392.325C303.565 392.953 303.935 392.932 303.935 392.264C303.935 391.701 304.703 391.476 305.643 391.761C306.83 392.123 307.35 391.792 307.35 390.675C307.35 389.271 309.402 388.49 311.856 388.959C312.221 389.029 312.742 388.411 313.015 387.586C313.839 385.084 317.129 385.857 319.142 389.028C320.169 390.645 321.01 392.434 321.01 393.003C321.01 394.596 322.709 394.227 323.275 392.509C323.552 391.668 323.155 390.18 322.394 389.201C321.633 388.222 321.01 386.672 321.01 385.759C321.01 383.095 323.82 383.854 326.033 387.114C327.43 389.175 328.551 389.932 329.618 389.539C330.523 389.204 331.808 389.711 332.707 390.756C333.707 391.918 335.52 392.546 337.872 392.546C339.867 392.546 341.498 392.882 341.499 393.291C341.501 394.605 343.895 394.089 345.281 392.475C346.019 391.616 346.622 391.34 346.622 391.862C346.622 392.384 347.627 393.035 348.856 393.308C350.405 393.653 351.648 393.155 352.911 391.685C353.914 390.519 354.637 389.228 354.52 388.819C354.402 388.409 354.594 388.036 354.947 387.991C355.298 387.945 356.547 387.718 357.721 387.484C358.895 387.252 360.382 386.99 361.026 386.905C361.67 386.818 363.376 385.495 364.818 383.961C367.605 380.997 373.662 378.155 377.296 378.105C379.12 378.079 379.253 377.912 378.077 377.113C376.902 376.314 376.83 375.731 377.65 373.665C378.193 372.296 379.093 371.376 379.65 371.618C380.207 371.862 380.855 371.526 381.091 370.874C381.387 370.053 381.893 370.224 382.734 371.426C383.402 372.382 384.579 373.166 385.349 373.166C386.119 373.166 386.749 373.888 386.749 374.773C386.749 375.954 387.318 376.253 388.904 375.9C390.089 375.635 391.283 375.843 391.558 376.361C391.833 376.879 393.008 377.025 394.17 376.685C395.698 376.239 396.107 376.401 395.645 377.27C395.203 378.102 395.454 378.273 396.459 377.824C397.357 377.422 398.097 377.734 398.396 378.643C398.662 379.451 399.283 379.822 399.774 379.468C400.265 379.115 401.201 379.674 401.852 380.711C402.874 382.337 403.148 382.393 403.844 381.112C404.538 379.835 404.654 379.861 404.665 381.298C404.672 382.218 405.446 383.254 406.385 383.601C407.324 383.948 408.092 384.848 408.092 385.6C408.092 389.457 416.567 391.724 418.269 388.322C418.797 387.267 419.149 387.091 419.166 387.874C419.19 389.085 425.373 392.973 427.351 393.021C427.847 393.033 429.454 391.884 430.923 390.469C432.56 388.889 433.404 387.321 433.104 386.412C432.719 385.245 433.161 385.029 435.18 385.4C438.561 386.02 440.014 384.896 439.285 382.224C438.748 380.254 438.865 380.185 440.905 381.268C443.312 382.544 445.092 381.572 443.071 380.084C442.324 379.533 442.223 379.153 442.822 379.144C443.375 379.136 444.431 378.426 445.17 377.567C446.345 376.199 446.511 376.192 446.511 377.509C446.511 379.494 448.145 380.606 449.221 379.353C449.79 378.691 449.766 378.137 449.147 377.692C448.636 377.324 448.219 376.637 448.219 376.165C448.219 375.692 449.405 375.994 450.854 376.836C452.304 377.678 454.95 378.344 456.733 378.315C459.104 378.277 460.503 378.914 461.93 380.683C463.85 383.063 465.902 384.059 464.867 382.11C464.093 380.651 465.925 380.895 466.734 382.359C467.112 383.043 467.423 384.889 467.425 386.463C467.428 389.297 469.757 392.154 470.94 390.776C471.274 390.387 471.103 388.934 470.56 387.548C469.737 385.446 469.803 384.922 470.954 384.408C471.782 384.038 472.651 384.449 473.125 385.436C474.334 387.948 478.693 390.182 482.511 390.243C484.795 390.28 486.844 389.536 488.638 388.017C490.12 386.763 491.64 385.144 492.016 384.42C492.392 383.697 493.475 383.104 494.425 383.104C495.374 383.104 496.727 382.433 497.431 381.613C499.139 379.625 500.369 379.732 500.859 381.912C501.634 385.361 507.674 388.175 508.557 385.497C508.956 384.285 509.282 384.398 510.31 386.108C511.005 387.263 512.082 387.98 512.703 387.703C513.324 387.425 514.292 387.842 514.853 388.629C516.339 390.713 517.371 390.384 517.384 387.825C517.408 383.234 518.358 381.235 520.661 380.925C522.568 380.667 522.883 380.191 522.676 377.887C522.416 374.993 523.298 374.52 525.914 376.15C527.004 376.829 527.693 376.81 528.074 376.092C528.783 374.756 533.497 375.893 535.13 377.793C535.792 378.564 536.968 378.963 537.742 378.677C538.516 378.39 540.468 379.158 542.08 380.382C548.337 385.133 549.958 386.1 550.732 385.543C551.173 385.226 551.764 385.663 552.045 386.513C552.486 387.851 552.906 387.77 555.142 385.916C557.447 384.006 557.577 383.641 556.333 382.583C554.231 380.793 554.654 379.825 557.214 380.572C559.013 381.099 559.883 380.704 561.373 378.686C562.82 376.725 563.453 376.424 564.105 377.383C564.571 378.07 565.135 379.303 565.356 380.123C565.997 382.494 570.456 381.942 572.746 379.209C574.672 376.91 574.876 376.873 577.442 378.351C583.815 382.021 586.139 382.958 586.844 382.138C587.253 381.661 588.213 381.544 588.978 381.877C590.133 382.38 590.189 382.226 589.309 380.963C587.875 378.907 588.78 378.113 591.763 378.808C593.714 379.262 594.679 378.831 596.318 376.771C597.461 375.335 598.992 374.16 599.718 374.16C600.446 374.16 601.04 373.519 601.04 372.738C601.04 371.956 601.905 371.173 602.961 370.999C604.017 370.824 604.882 370.01 604.882 369.19C604.882 368.37 605.355 366.805 605.934 365.712C606.787 364.098 607.131 363.982 607.762 365.1C608.387 366.207 608.732 366.06 609.516 364.355C610.718 361.74 612.16 361.618 612.714 364.085C613.044 365.549 613.836 365.89 616.499 365.715C618.352 365.593 620.11 365.211 620.406 364.866C620.704 364.521 621.466 364.741 622.102 365.355C622.738 365.969 624.373 366.623 625.735 366.808C627.813 367.089 628.349 366.683 629.069 364.276C629.542 362.698 629.723 361.171 629.474 360.879C629.224 360.589 630.85 360.551 633.086 360.795C635.321 361.039 637.604 360.8 638.158 360.265C639.351 359.112 643.617 360.34 646.452 362.652C647.51 363.514 649.032 364.221 649.833 364.221C650.633 364.221 651.89 364.921 652.624 365.775C653.359 366.63 654.288 367.092 654.69 366.803C655.093 366.514 656.267 367.194 657.299 368.314C658.332 369.434 660.382 370.753 661.854 371.243C664.713 372.199 666.191 371.604 664.315 370.255C662.73 369.115 664.381 368.104 667.39 368.37C668.724 368.489 670.288 368.246 670.865 367.831C671.497 367.376 672.129 367.732 672.457 368.726C672.841 369.893 673.652 370.222 675.226 369.852C676.449 369.565 678.095 369.039 678.882 368.684C680.011 368.176 680.216 368.478 679.85 370.106C679.575 371.333 679.793 372.172 680.389 372.172C680.942 372.172 681.154 371.722 680.862 371.171C680.569 370.62 680.97 369.884 681.752 369.535C682.533 369.186 683.465 369.453 683.824 370.128C684.182 370.803 685.584 371.23 686.939 371.075C688.294 370.919 690.309 371.368 691.415 372.071C692.871 372.996 693.686 373.049 694.361 372.264C694.874 371.667 695.986 371.178 696.831 371.178C697.676 371.178 698.367 370.785 698.367 370.304C698.367 369.824 699.497 368.887 700.878 368.221C703.136 367.132 703.618 367.26 705.697 369.504C707.641 371.603 708.325 371.829 710.017 370.931C711.123 370.345 712.028 369.435 712.028 368.909C712.028 368.383 712.559 368.467 713.208 369.094C714.123 369.977 714.508 369.872 714.918 368.629C715.209 367.746 715.232 366.616 714.968 366.119C714.704 365.621 714.695 365.215 714.948 365.215C715.201 365.215 716.169 366.892 717.1 368.942C720.177 375.72 720.252 375.791 722.15 373.792C723.502 372.368 725.606 371.958 732.696 371.741C737.567 371.591 742.315 370.995 743.247 370.415C744.38 369.708 745.44 369.684 746.45 370.341C748.355 371.582 755.559 369.894 758.76 367.455C760.018 366.497 762.409 365.633 764.071 365.537C765.734 365.441 769.316 365.049 772.032 364.666C775.562 364.168 777.21 363.442 777.819 362.118C778.541 360.547 778.933 360.452 780.405 361.498C781.871 362.54 782.324 362.439 783.341 360.844C784.335 359.283 784.769 359.175 785.85 360.22C786.819 361.156 787.455 361.196 788.303 360.376C788.933 359.767 789.723 359.587 790.057 359.977C790.391 360.367 790.933 360.25 791.259 359.72C791.968 358.569 794.564 356.622 797.106 355.335C798.117 354.824 799.207 353.909 799.53 353.301C799.935 352.538 800.443 352.514 801.176 353.222C801.934 353.954 802.767 353.671 804.098 352.228C805.81 350.369 806.109 350.332 807.846 351.749C809.988 353.495 813.262 353.781 814.052 352.292C814.403 351.63 815.141 351.645 816.25 352.334C817.501 353.114 818.027 353.041 818.359 352.036C818.904 350.383 824.826 350.014 824.601 351.646C824.32 353.695 825.738 358.259 826.488 357.719C826.89 357.43 826.847 355.98 826.392 354.496C825.618 351.966 825.646 351.918 826.852 353.727C827.559 354.788 828.143 355.235 828.15 354.72C828.158 354.207 828.571 354.456 829.069 355.276C829.751 356.398 830.082 356.46 830.408 355.525C830.646 354.842 831.343 354.282 831.958 354.282C832.572 354.282 833.327 353.111 833.636 351.68C833.945 350.249 834.431 349.351 834.717 349.684C835.003 350.017 835.762 349.782 836.404 349.163C837.046 348.543 837.657 348.212 837.763 348.425C837.869 348.64 838.367 349.684 838.87 350.744C839.374 351.805 840.292 352.87 840.91 353.109C841.579 353.369 841.793 353.091 841.439 352.424C841.111 351.806 841.25 351.301 841.747 351.301C842.244 351.301 842.651 351.971 842.651 352.791C842.651 353.611 843.196 354.282 843.861 354.282C844.526 354.282 845.214 354.785 845.39 355.4C845.597 356.121 846.684 356.27 848.45 355.819C850.668 355.251 851.189 354.631 851.189 352.559C851.189 350.013 851.199 350.01 853.041 351.892C854.704 353.591 854.838 353.607 854.348 352.046C854.049 351.09 854.176 350.307 854.63 350.307C855.085 350.307 855.458 350.754 855.458 351.301C855.458 351.847 856.034 352.294 856.738 352.294C857.443 352.294 857.922 352.854 857.805 353.537C857.688 354.221 858.072 354.668 858.659 354.531C859.246 354.395 859.726 354.778 859.726 355.383C859.726 356.06 858.908 356.246 857.607 355.866C856.057 355.413 855.212 355.76 854.464 357.155C853.652 358.668 853.017 358.878 851.405 358.164C848.845 357.031 848.628 357.039 848.628 358.258C848.628 358.804 849.204 359.252 849.908 359.252C850.612 359.252 851.189 359.761 851.189 360.385C851.189 361.782 853.766 364.146 855.335 364.189C856.044 364.209 856.293 363.612 855.977 362.652C855.547 361.349 855.913 361.198 858.126 361.764C859.862 362.207 861.016 362.025 861.432 361.243C861.909 360.344 862.515 360.317 863.83 361.137C864.798 361.74 866.564 362.233 867.754 362.233C869.387 362.233 869.789 361.843 869.393 360.642C869.105 359.767 869.358 358.699 869.956 358.269C871.43 357.208 870.272 355.276 868.163 355.276C867.224 355.276 866.693 354.829 866.983 354.282C867.273 353.736 868.243 353.288 869.138 353.288C870.927 353.288 872.926 356.712 872.073 358.318C871.733 358.96 872.322 359.101 873.68 358.705C876.437 357.899 879.362 358.983 879.362 360.809C879.362 362.096 880.397 362.67 882.137 362.35C882.49 362.286 882.778 362.68 882.778 363.227C882.778 363.774 883.162 364.221 883.631 364.221C884.86 364.221 884.685 361.499 883.418 360.903C882.78 360.604 882.953 360.371 883.845 360.324C884.666 360.281 885.339 359.786 885.339 359.226C885.339 358.602 886.25 358.718 887.687 359.526C890.461 361.084 893.791 360.667 894.447 358.677C894.741 357.786 896.157 357.264 898.287 357.264C900.151 357.264 901.441 357.677 901.17 358.189C900.899 358.698 901.052 359.383 901.509 359.712C901.966 360.04 902.984 359.162 903.773 357.761C905.076 355.445 905.34 355.352 906.653 356.735C908.4 358.577 910.664 358.716 911.201 357.015C911.5 356.068 912.21 356.164 914.187 357.417C916.48 358.871 916.987 358.893 918.562 357.61C919.541 356.811 920.343 356.461 920.343 356.832C920.343 357.203 920.926 356.944 921.639 356.254C922.695 355.233 923.22 355.301 924.468 356.616C925.65 357.861 926.233 357.961 927.014 357.051C927.774 356.166 928.27 356.156 929.005 357.011C929.543 357.637 931.049 357.902 932.354 357.598C934.059 357.201 935.523 357.735 937.565 359.498C942.135 363.443 945.96 365.215 949.909 365.215C952.923 365.215 953.861 365.679 955.027 367.75C956.025 369.523 956.724 369.971 957.352 369.241C957.845 368.666 958.899 368.196 959.694 368.196C960.507 368.196 961.363 367.152 961.653 365.804C962.045 363.986 962.589 363.539 963.919 363.944C966.495 364.728 984.551 362.145 986.311 360.74C987.925 359.451 992.057 359.894 992.057 361.356C992.057 362.872 993.274 362.322 995.694 359.709C997.245 358.035 998.034 357.654 998.034 358.581C998.034 359.349 998.766 361.061 999.662 362.386C1000.95 364.289 1002.7 365.069 1007.99 366.093C1011.67 366.806 1015.26 367.926 1015.96 368.581C1016.67 369.237 1018.78 370.366 1020.66 371.091C1022.54 371.816 1024.93 373.324 1025.98 374.442C1028.54 377.161 1031.41 377.377 1034.41 375.077C1035.77 374.032 1036.34 373.176 1035.67 373.173C1035 373.169 1034.63 372.962 1034.85 372.713C1035.63 371.804 1041.57 374.837 1043.14 376.95C1044.03 378.147 1045.93 379.398 1047.37 379.731C1049.59 380.251 1050.01 380.02 1050.25 378.134C1050.53 375.981 1050.61 376.002 1053.53 379.004C1055.46 380.992 1057.44 382.085 1059.12 382.095C1060.55 382.103 1062.18 382.647 1062.75 383.303C1063.54 384.23 1063.77 384.15 1063.77 382.941C1063.77 381.787 1064.6 381.416 1066.97 381.5C1069.29 381.583 1070.18 381.203 1070.18 380.123C1070.18 379.303 1071.04 378.058 1072.1 377.358C1073.15 376.657 1074.02 375.665 1074.02 375.152C1074.02 374.641 1074.59 374.48 1075.3 374.794C1076.08 375.144 1076.58 374.794 1076.58 373.885C1076.58 373.07 1077.25 372.141 1078.07 371.82C1078.89 371.498 1080.14 370.79 1080.85 370.247C1082.62 368.879 1089.97 365.215 1090.94 365.215C1091.38 365.215 1092.21 364.553 1092.79 363.745C1093.59 362.612 1094.23 362.521 1095.56 363.35C1096.59 363.995 1097.5 364.058 1097.82 363.506C1098.11 362.999 1099.31 362.642 1100.48 362.71C1103.06 362.861 1108.59 365.582 1109.39 367.101C1109.71 367.703 1110.74 368.196 1111.68 368.196C1112.62 368.196 1113.15 367.749 1112.86 367.202C1112.57 366.656 1112.74 366.209 1113.24 366.209C1113.74 366.209 1114.14 365.579 1114.14 364.811C1114.14 363.28 1116.54 363.57 1119.99 365.519C1121.68 366.474 1122.19 366.344 1123.19 364.691C1128.33 356.241 1131.05 353.08 1134.38 351.672C1136.51 350.773 1137.59 350.864 1139.89 352.138C1141.46 353.01 1142.87 354.073 1143.03 354.5C1143.63 356.129 1145.06 355.187 1144.66 353.424C1144.29 351.766 1144.66 351.628 1148.19 352.09C1151.86 352.571 1152.05 352.487 1150.9 350.875C1150.1 349.741 1148.84 349.285 1147.28 349.553C1145.96 349.778 1144.88 349.531 1144.88 349.002C1144.88 348.432 1146.78 348.269 1149.55 348.602C1153.56 349.083 1154.66 348.821 1157.27 346.754C1159.42 345.057 1161.5 344.344 1164.29 344.344C1167.43 344.344 1168.76 344.899 1170.64 346.994C1173.39 350.064 1177.34 350.497 1179.73 347.988C1180.59 347.077 1182.32 346.331 1183.58 346.331C1184.83 346.331 1185.86 345.854 1185.86 345.271C1185.86 344.647 1185.07 344.469 1183.94 344.839C1182.58 345.284 1182.36 345.19 1183.19 344.522C1183.84 344.002 1186.33 343.707 1188.74 343.868C1192.15 344.095 1193.52 343.725 1194.94 342.195C1195.94 341.115 1196.62 339.479 1196.44 338.56C1196.01 336.353 1201.34 332.442 1204.91 332.339C1206.41 332.296 1207.07 332.005 1206.39 331.692C1204.4 330.778 1212.91 328.675 1217.24 329.011C1220.1 329.234 1221.71 328.801 1223.24 327.402C1225.5 325.333 1227.06 325.627 1226.28 327.977C1225.98 328.886 1226.32 329.436 1227.17 329.436C1227.93 329.436 1228.45 328.916 1228.33 328.282C1228.03 326.647 1235.21 324.291 1237.03 325.426C1237.83 325.923 1240.37 326.121 1242.69 325.867C1245.01 325.613 1247.48 325.347 1248.18 325.276C1248.89 325.206 1251.67 325.448 1254.37 325.815C1257.5 326.239 1259.28 326.115 1259.28 325.474C1259.28 324.919 1260.16 324.466 1261.23 324.466C1263.15 324.466 1266.83 322.071 1268 320.052C1268.35 319.442 1271.85 319 1276.32 319C1282.87 319 1284.04 319.244 1284.04 320.61C1284.04 321.971 1284.99 322.175 1290.15 321.932C1294.36 321.734 1296.84 322.085 1298.12 323.059C1299.14 323.837 1300.18 324.227 1300.44 323.925C1300.7 323.623 1303.74 323.017 1307.2 322.579C1311.35 322.054 1313.69 322.134 1314.07 322.811C1314.45 323.491 1315.12 323.379 1316.06 322.479C1317.19 321.386 1317.6 321.366 1318.14 322.379C1318.51 323.075 1319.53 323.554 1320.42 323.444C1321.31 323.333 1322.22 323.332 1322.46 323.441C1322.69 323.549 1323.65 323.753 1324.59 323.893C1325.53 324.033 1327.55 324.478 1329.08 324.883C1330.88 325.362 1331.85 325.243 1331.85 324.545C1331.85 323.955 1333 323.472 1334.41 323.472C1335.82 323.472 1336.97 323.92 1336.97 324.466C1336.97 325.013 1337.38 325.46 1337.88 325.46C1338.37 325.46 1338.51 324.948 1338.18 324.322C1337.75 323.509 1338.28 323.395 1340.05 323.924C1341.41 324.33 1343.67 324.631 1345.08 324.592C1346.49 324.555 1349.25 324.756 1351.22 325.043C1354.08 325.459 1354.85 325.999 1355.06 327.748C1355.3 329.732 1355.82 329.933 1360.66 329.933H1366V50.1528L1363.23 48.5179C1361.7 47.6184 1358.15 46.6978 1355.33 46.4704C1352.08 46.2088 1349.58 45.4139 1348.5 44.2951C1347.01 42.7557 1345.22 42.5696 1334.41 42.8272C1327.6 42.9902 1320.42 43.4369 1318.46 43.8202C1315.35 44.4269 1314.18 44.0516 1309.43 40.9175C1305.37 38.2422 1302.49 37.1395 1298.23 36.6254C1294.3 36.1505 1291.41 36.3547 1289.05 37.2703C1286.08 38.4273 1285.1 38.3861 1281.84 36.9614C1278.49 35.4985 1277.74 35.4774 1275.11 36.7733C1271.11 38.7423 1268.92 38.6105 1266.37 36.2481C1264.38 34.3988 1264.05 34.3696 1261.66 35.8265C1260.2 36.7189 1258.21 37.1294 1257.04 36.7823C1255.67 36.3768 1253.17 37.2079 1249.53 39.2785C1245.18 41.7486 1243.44 42.2436 1241 41.7053C1238.94 41.2506 1237.94 41.4035 1237.94 42.1712C1237.94 42.9378 1237.11 42.8081 1235.42 41.7808C1234.03 40.9366 1231.8 40.2454 1230.46 40.2454C1228.76 40.2454 1227.46 39.3691 1226.22 37.39C1224.59 34.7912 1223.95 34.5296 1219.02 34.4732C1216.04 34.439 1212.94 34.8324 1212.12 35.3456C1211.1 35.9905 1210.01 35.7963 1208.61 34.7187C1207.5 33.8595 1205.98 33.4339 1205.23 33.772C1204.48 34.11 1202.03 33.2659 1199.77 31.8955C1194.78 28.859 1189.14 26.556 1184.58 25.6927C1179.34 24.6996 1178.17 24.1342 1178.17 22.5707C1178.17 20.7264 1177.74 20.7576 1175.11 22.79C1173.35 24.1493 1172.41 24.2529 1169.94 23.3595C1168.28 22.7588 1166.39 22.5063 1165.75 22.798C1164.37 23.4208 1155.5 17.6678 1153.51 14.8606C1152.75 13.7982 1150.7 12.1008 1148.94 11.0886C1145.8 9.27559 1145.72 9.27961 1143.42 11.4166C1141.78 12.9349 1139.88 13.5829 1137.07 13.5829C1133.97 13.5829 1133.27 13.8646 1133.96 14.8405C1134.63 15.7913 1134.31 16.0982 1132.65 16.0982C1131.45 16.0982 1130.24 15.6655 1129.96 15.1363C1129.68 14.6071 1128.91 14.421 1128.24 14.7238C1127.57 15.0257 1126.04 14.1081 1124.83 12.6854C1123.1 10.6459 1121.92 10.1529 1119.29 10.3612C1117.45 10.5061 1115.67 10.9508 1115.33 11.3492C1114.99 11.7477 1113.24 12.0736 1111.44 12.0736C1109.36 12.0736 1107.57 11.3754 1106.54 10.161C1104.67 7.95654 1100.78 6.16864 1101.71 7.94145C1102.03 8.55419 1101.93 9.05524 1101.48 9.05524C1101.03 9.05524 1100.45 8.3761 1100.17 7.54604C1099.9 6.71598 1098.94 6.03684 1098.02 6.03684C1097.11 6.03684 1096.2 5.47139 1096 4.77917C1095.76 3.932 1094.07 3.59897 1090.83 3.75895C1088.19 3.89075 1085 3.5386 1083.75 2.97819C1082.01 2.20145 1081 2.3242 1079.48 3.49433C1076.78 5.58307 1075.09 5.4241 1074.44 3.01843C1074.15 1.91168 1073.45 1.02025 1072.89 1.03735C1071.64 1.0776 1068.48 6.03684 1069.71 6.03684C1070.2 6.03684 1070.6 6.47853 1070.6 7.01782C1070.6 7.58628 1069.44 7.72714 1067.83 7.35085C1065.3 6.76025 1065.16 6.85281 1066.24 8.40528C1067.29 9.91347 1067.24 10.0302 1065.81 9.4255C1064.93 9.05021 1063.72 8.30467 1063.13 7.7694C1062.43 7.13353 1062.06 7.15566 1062.06 7.83178C1062.06 8.40125 1061.3 8.62965 1060.36 8.34089C1059.17 7.97466 1058.65 8.3097 1058.65 9.4406C1058.65 10.8613 1056.6 11.6521 1054.14 11.1772C1053.78 11.1068 1053.26 11.7326 1052.99 12.5677C1052.16 15.1001 1048.87 14.3173 1046.86 11.1078C1045.83 9.47078 1044.99 7.65973 1044.99 7.08322C1044.99 5.47039 1043.29 5.84467 1042.72 7.58327C1042.45 8.43446 1042.84 9.94165 1043.61 10.9327C1044.37 11.9237 1044.99 13.4923 1044.99 14.4169C1044.99 17.1134 1042.18 16.3457 1039.97 13.0456C1038.57 10.9589 1037.45 10.1922 1036.38 10.5906C1035.48 10.9297 1034.19 10.4165 1033.29 9.35809C1032.29 8.18192 1030.48 7.54604 1028.13 7.54604C1026.13 7.54604 1024.5 7.20597 1024.5 6.79144C1024.5 5.46133 1022.11 5.98452 1020.72 7.61748C1019.98 8.48778 1019.38 8.76649 1019.38 8.23827C1019.38 7.71004 1018.37 7.05102 1017.14 6.77434C1015.6 6.42521 1014.35 6.92928 1013.09 8.41735C1012.09 9.59855 1011.36 10.9045 1011.48 11.319C1011.6 11.7346 1011.41 12.1119 1011.05 12.1572C1010.7 12.2034 1009.45 12.4338 1008.28 12.6703C1007.1 12.9057 1005.62 13.1703 1004.97 13.2569C1004.33 13.3444 1002.62 14.6846 1001.18 16.237C998.395 19.2373 992.338 22.1149 988.704 22.1652C986.88 22.1913 986.747 22.3604 987.923 23.1693C989.098 23.9782 989.17 24.5688 988.35 26.6606C987.807 28.046 986.907 28.9777 986.35 28.7322C985.793 28.4857 985.145 28.8258 984.909 29.4858C984.613 30.3169 984.107 30.1438 983.266 28.9264C982.598 27.9585 981.422 27.1657 980.651 27.1657C979.881 27.1657 979.251 26.4342 979.251 25.5388C979.251 24.3425 978.682 24.0406 977.096 24.3978C975.911 24.6654 974.717 24.4551 974.442 23.931C974.167 23.4068 972.992 23.2589 971.83 23.6029C970.302 24.0547 969.893 23.8907 970.355 23.0103C970.797 22.1682 970.546 21.9951 969.541 22.4499C968.643 22.8564 967.903 22.5405 967.604 21.6209C967.338 20.8029 966.717 20.4276 966.226 20.7858C965.735 21.1429 964.799 20.5765 964.148 19.5271C963.126 17.8811 962.852 17.8247 962.156 19.1216C961.462 20.4135 961.346 20.3873 961.335 18.9325C961.328 18.0018 960.554 16.9524 959.615 16.6013C958.676 16.2501 957.907 15.3396 957.907 14.5779C957.907 10.6731 949.433 8.37811 947.731 11.8221C947.203 12.8906 946.851 13.0687 946.834 12.2759C946.81 11.0494 940.627 7.11341 938.649 7.06511C938.153 7.05304 936.546 8.21612 935.077 9.64886C933.44 11.2486 932.596 12.8353 932.896 13.7559C933.281 14.9371 932.839 15.1554 930.82 14.7802C927.439 14.1523 925.986 15.2903 926.715 17.9958C927.252 19.9899 927.135 20.0593 925.095 18.9637C922.688 17.6718 920.908 18.6558 922.929 20.162C923.676 20.7194 923.777 21.1047 923.178 21.1138C922.625 21.1218 921.569 21.8402 920.83 22.7095C919.655 24.0949 919.489 24.102 919.489 22.7689C919.489 20.7596 917.855 19.6337 916.779 20.9015C916.21 21.5726 916.234 22.133 916.853 22.5837C917.364 22.956 917.781 23.6512 917.781 24.1292C917.781 24.6081 916.595 24.3022 915.146 23.45C913.696 22.5978 911.05 21.9237 909.267 21.9529C906.896 21.9911 905.497 21.3462 904.07 19.5553C902.15 17.1466 900.098 16.1374 901.133 18.1105C901.907 19.5875 900.075 19.341 899.266 17.8589C898.888 17.1667 898.577 15.2973 898.575 13.7046C898.572 10.8351 896.243 7.94246 895.06 9.33797C894.726 9.73136 894.897 11.2023 895.44 12.6059C896.263 14.7339 896.197 15.2641 895.046 15.7843C894.218 16.1596 893.349 15.743 892.875 14.7439C891.666 12.2004 887.307 9.93964 883.489 9.87726C881.205 9.84003 879.156 10.5936 877.362 12.131C875.88 13.4007 874.359 15.0397 873.984 15.7722C873.608 16.5047 872.525 17.1043 871.575 17.1043C870.626 17.1043 869.273 17.7835 868.569 18.6135C866.861 20.6268 865.631 20.5181 865.141 18.3117C864.365 14.8194 858.326 11.971 857.443 14.6826C857.044 15.909 856.718 15.7943 855.69 14.0638C854.995 12.8947 853.918 12.1682 853.297 12.4489C852.676 12.7307 851.708 12.3081 851.147 11.5112C849.661 9.40136 848.629 9.73438 848.616 12.3252C848.592 16.9725 847.642 18.9969 845.339 19.3108C843.432 19.5714 843.117 20.0533 843.324 22.3865C843.584 25.3154 842.702 25.7943 840.086 24.1443C838.996 23.4571 838.307 23.4762 837.926 24.2036C837.217 25.5559 832.503 24.4048 830.87 22.4811C830.208 21.7003 829.032 21.2969 828.258 21.5867C827.484 21.8764 825.532 21.0997 823.92 19.8601C817.663 15.0508 816.042 14.0718 815.268 14.6353C814.827 14.9562 814.236 14.5145 813.955 13.6533C813.514 12.299 813.094 12.3815 810.858 14.258C808.553 16.1918 808.423 16.561 809.667 17.6325C811.769 19.4446 811.346 20.4246 808.786 19.6679C806.987 19.1347 806.117 19.5341 804.627 21.5776C803.18 23.5627 802.547 23.8676 801.895 22.8966C801.429 22.2004 800.865 20.9528 800.644 20.1227C800.003 17.7221 795.544 18.2805 793.254 21.0474C791.328 23.3756 791.124 23.4128 788.558 21.9167C782.185 18.201 779.861 17.2522 779.156 18.0823C778.747 18.5652 777.787 18.684 777.022 18.3469C775.867 17.8378 775.811 17.9937 776.691 19.2725C778.125 21.3532 777.22 22.1571 774.237 21.4538C772.286 20.994 771.321 21.4307 769.682 23.5154C768.539 24.9693 767.008 26.1595 766.282 26.1595C765.554 26.1595 764.96 26.8075 764.96 27.5983C764.96 28.3901 764.095 29.183 763.039 29.359C761.983 29.5361 761.118 30.3602 761.118 31.1902C761.118 32.0203 760.645 33.6049 760.066 34.7117C759.213 36.3456 758.869 36.4624 758.238 35.3305C757.613 34.2106 757.268 34.3585 756.484 36.0851C755.282 38.7322 753.84 38.856 753.286 36.3587C752.956 34.8767 752.164 34.5316 749.501 34.7087C747.648 34.8314 745.89 35.2188 745.594 35.5679C745.296 35.917 744.534 35.6947 743.898 35.0729C743.262 34.4511 741.627 33.7891 740.265 33.6019C738.187 33.3172 737.651 33.7287 736.931 36.1656C736.458 37.7623 736.277 39.3087 736.526 39.6035C736.776 39.8973 735.15 39.9365 732.914 39.689C730.679 39.4425 728.396 39.684 727.842 40.2253C726.649 41.3924 722.383 40.1498 719.548 37.8096C718.49 36.9362 716.968 36.2209 716.167 36.2209C715.367 36.2209 714.11 35.5126 713.376 34.6473C712.641 33.782 711.712 33.3142 711.31 33.6069C710.907 33.8997 709.733 33.2115 708.701 32.0776C707.668 30.9437 705.618 29.6086 704.146 29.1115C701.287 28.1446 699.809 28.7463 701.685 30.1126C703.27 31.2667 701.619 32.2899 698.61 32.0203C697.276 31.9005 695.712 32.146 695.135 32.5666C694.503 33.0264 693.871 32.6662 693.543 31.6601C693.159 30.4789 692.348 30.1458 690.774 30.5201C689.551 30.8109 687.905 31.3431 687.118 31.7023C685.989 32.2165 685.784 31.9116 686.15 30.2636C686.425 29.021 686.207 28.1718 685.611 28.1718C685.058 28.1718 684.846 28.6276 685.138 29.185C685.431 29.7424 685.03 30.4879 684.248 30.8411C683.467 31.1942 682.535 30.9246 682.176 30.2404C681.818 29.5573 680.416 29.1256 679.061 29.2826C677.706 29.4395 675.691 28.9858 674.585 28.2734C673.129 27.3377 672.314 27.2834 671.639 28.0782C671.126 28.6829 670.014 29.1779 669.169 29.1779C668.324 29.1779 667.633 29.5754 667.633 30.0623C667.633 30.5483 666.503 31.4971 665.122 32.1712C662.864 33.2739 662.382 33.1441 660.303 30.8723C658.359 28.7473 657.675 28.5189 655.983 29.4275C654.877 30.0211 653.972 30.9427 653.972 31.4749C653.972 32.0072 653.441 31.9227 652.792 31.2878C651.877 30.3934 651.492 30.5 651.082 31.7587C650.791 32.6521 650.768 33.7961 651.032 34.2992C651.296 34.8032 651.305 35.2148 651.052 35.2148C650.799 35.2148 649.831 33.5164 648.9 31.4417C645.823 24.5799 645.748 24.5075 643.85 26.5318C642.498 27.9736 640.394 28.3881 633.304 28.6075C628.433 28.7594 623.685 29.3631 622.753 29.9507C621.62 30.666 620.56 30.6902 619.55 30.0251C617.645 28.7684 610.441 30.4779 607.24 32.9469C605.982 33.9168 603.591 34.7912 601.929 34.8888C600.266 34.9854 596.684 35.3828 593.968 35.7701C590.438 36.2742 588.79 37.0097 588.181 38.3499C587.459 39.9406 587.067 40.0362 585.595 38.9777C584.129 37.9223 583.676 38.0249 582.659 39.6397C581.665 41.2194 581.231 41.329 580.15 40.2716C579.181 39.3238 578.545 39.2836 577.697 40.1136C577.067 40.7294 576.277 40.9115 575.943 40.5171C575.609 40.1227 575.067 40.2404 574.741 40.7777C574.032 41.9428 571.436 43.9138 568.894 45.2167C567.883 45.7339 566.793 46.6605 566.47 47.2753C566.065 48.048 565.557 48.0722 564.824 47.3558C564.066 46.6143 563.233 46.901 561.902 48.3619C560.19 50.2434 559.891 50.2816 558.154 48.8469C556.012 47.0791 552.738 46.7893 551.948 48.2975C551.597 48.9676 550.859 48.9525 549.75 48.2543C548.499 47.4644 547.973 47.5389 547.641 48.5561C547.096 50.2293 541.174 50.6036 541.399 48.9505C541.68 46.8769 540.262 42.2567 539.512 42.803C539.11 43.0958 539.153 44.5638 539.608 46.0659C540.382 48.6265 540.354 48.6758 539.148 46.8447C538.441 45.7701 537.857 45.3174 537.85 45.8385C537.842 46.3587 537.429 46.1062 536.931 45.2761C536.249 44.1402 535.918 44.0778 535.592 45.0246C535.354 45.7158 534.657 46.2822 534.042 46.2822C533.428 46.2822 532.673 47.4675 532.364 48.9163C532.055 50.3651 531.569 51.2747 531.283 50.9376C530.997 50.6006 530.238 50.838 529.596 51.4648C528.954 52.0927 528.343 52.4277 528.237 52.2114C528.131 51.9941 527.633 50.9376 527.13 49.8641C526.626 48.7895 525.708 47.712 525.09 47.4695C524.421 47.2069 524.207 47.4886 524.561 48.1637C524.889 48.7895 524.75 49.3006 524.253 49.3006C523.756 49.3006 523.349 48.6215 523.349 47.7914C523.349 46.9614 522.804 46.2822 522.139 46.2822C521.474 46.2822 520.786 45.7731 520.61 45.1503C520.403 44.4209 519.316 44.27 517.55 44.7268C515.332 45.3013 514.811 45.9291 514.811 48.0269C514.811 50.6046 514.801 50.6076 512.959 48.702C511.296 46.9815 511.162 46.9654 511.652 48.546C511.951 49.5139 511.824 50.3068 511.37 50.3068C510.915 50.3068 510.542 49.854 510.542 49.3006C510.542 48.7473 509.966 48.2945 509.262 48.2945C508.558 48.2945 508.078 47.7281 508.195 47.0368C508.312 46.3446 507.928 45.8919 507.341 46.0307C506.754 46.1685 506.274 45.7802 506.274 45.1674C506.274 44.4823 507.092 44.2941 508.393 44.6785C509.943 45.1373 510.788 44.7861 511.536 43.3735C512.348 41.8422 512.983 41.6299 514.595 42.3523C517.155 43.4993 517.372 43.4912 517.372 42.2577C517.372 41.7043 516.796 41.2516 516.092 41.2516C515.388 41.2516 514.811 40.7354 514.811 40.1046C514.811 38.6899 512.234 36.2963 510.665 36.2531C509.956 36.233 509.707 36.8376 510.023 37.8096C510.453 39.1286 510.087 39.2816 507.874 38.7081C506.138 38.2593 504.984 38.4434 504.568 39.2353C504.091 40.1458 503.485 40.173 502.17 39.3429C501.202 38.7322 499.436 38.2332 498.246 38.2332C496.613 38.2332 496.211 38.6286 496.607 39.844C496.895 40.7294 496.642 41.811 496.044 42.2466C494.57 43.3202 495.728 45.2761 497.837 45.2761C498.776 45.2761 499.307 45.7289 499.017 46.2822C498.727 46.8356 497.757 47.2884 496.862 47.2884C495.073 47.2884 493.074 43.8222 493.927 42.1963C494.267 41.5464 493.678 41.4035 492.32 41.8049C489.563 42.6209 486.637 41.5232 486.637 39.6749C486.637 38.372 485.603 37.7905 483.863 38.1144C483.51 38.1798 483.223 37.7804 483.223 37.227C483.223 36.6736 482.838 36.2209 482.369 36.2209C481.14 36.2209 481.315 38.9767 482.582 39.5794C483.22 39.8822 483.047 40.1187 482.155 40.1659C481.334 40.2092 480.661 40.7103 480.661 41.2777C480.661 41.9096 479.75 41.7919 478.313 40.9739C475.539 39.3962 472.209 39.8188 471.553 41.8331C471.259 42.7356 469.843 43.2638 467.713 43.2638C465.849 43.2638 464.559 42.8453 464.83 42.3271C465.101 41.812 464.948 41.1188 464.491 40.7857C464.034 40.4537 463.016 41.3421 462.227 42.7608C460.924 45.1051 460.66 45.1996 459.347 43.7991C457.6 41.9347 455.336 41.7939 454.799 43.5154C454.5 44.4742 453.79 44.3776 451.813 43.1089C449.52 41.6369 449.013 41.6148 447.438 42.9137C446.459 43.7226 445.658 44.0768 445.658 43.7005C445.658 43.3252 445.074 43.5878 444.361 44.2861C443.305 45.3194 442.78 45.2509 441.532 43.9198C440.35 42.6591 439.767 42.5585 438.986 43.4791C438.226 44.3756 437.73 44.3857 436.995 43.5194C436.457 42.8855 434.951 42.6179 433.646 42.9258C431.941 43.3272 430.477 42.7869 428.435 41.002C423.865 37.0087 420.04 35.2148 416.091 35.2148C413.077 35.2148 412.139 34.7449 410.973 32.6481C409.975 30.8532 409.276 30.3994 408.648 31.1389C408.155 31.7204 407.101 32.1963 406.306 32.1963C405.493 32.1963 404.637 33.2538 404.347 34.6181C403.955 36.4583 403.411 36.9111 402.081 36.5016C399.505 35.7078 381.449 38.3227 379.689 39.7444C378.075 41.0493 373.943 40.6016 373.943 39.1216C373.943 37.5862 372.726 38.1436 370.306 40.7887C368.755 42.4831 367.966 42.8684 367.966 41.9307C367.966 41.153 367.234 39.4194 366.338 38.0782C365.053 36.1515 363.301 35.3627 358.014 34.3253C354.331 33.6039 350.742 32.47 350.038 31.807C349.333 31.1429 347.22 30 345.342 29.2655C343.464 28.532 341.066 27.0057 340.015 25.8738C337.457 23.121 334.591 22.9027 331.594 25.2309C330.233 26.2883 329.664 27.1556 330.33 27.1586C330.995 27.1627 331.365 27.3719 331.151 27.6235C330.37 28.5441 324.434 25.4734 322.859 23.3343C321.969 22.1229 320.067 20.8562 318.635 20.5191C316.406 19.9929 315.989 20.2264 315.746 22.136C315.467 24.3153 315.39 24.2942 312.473 21.2556C310.54 19.2424 308.565 18.1366 306.88 18.1266C305.448 18.1175 303.815 17.5671 303.252 16.9031C302.455 15.9644 302.228 16.0459 302.228 17.2693C302.228 18.4375 301.403 18.8137 299.026 18.7282C296.706 18.6447 295.824 19.0291 295.824 20.1227C295.824 20.9528 294.96 22.2125 293.903 22.9218C292.846 23.6311 291.982 24.6352 291.982 25.1544C291.982 25.6726 291.406 25.8356 290.702 25.5176C289.916 25.1625 289.421 25.5176 289.421 26.4372C289.421 27.2623 288.749 28.203 287.927 28.528C287.106 28.854 285.857 29.5703 285.152 30.1207C283.382 31.5051 276.031 35.2148 275.059 35.2148C274.621 35.2148 273.792 35.8848 273.215 36.7028C272.408 37.8498 271.771 37.9414 270.441 37.1023C269.405 36.4493 268.501 36.3859 268.182 36.9443C267.89 37.4574 266.69 37.8196 265.516 37.7502C262.936 37.5973 257.412 34.8425 256.606 33.3051C256.285 32.6954 255.256 32.1963 254.317 32.1963C253.378 32.1963 252.847 32.6491 253.137 33.2025C253.427 33.7559 253.257 34.2086 252.76 34.2086C252.263 34.2086 251.856 34.8455 251.856 35.6232C251.856 37.1737 249.462 36.8799 246.007 34.9069C244.316 33.94 243.814 34.0718 242.808 35.745C237.67 44.2991 234.953 47.4997 231.622 48.9243C229.492 49.8349 228.414 49.7423 226.115 48.4525C224.542 47.5701 223.128 46.4945 222.971 46.0619C222.374 44.4128 220.942 45.3667 221.338 47.1505C221.71 48.8298 221.344 48.9696 217.809 48.5018C214.135 48.0148 213.949 48.0993 215.096 49.7313C215.903 50.8793 217.156 51.3411 218.725 51.0694C220.043 50.842 221.121 51.0926 221.121 51.6278C221.121 52.2043 219.22 52.3694 216.45 52.0323C212.444 51.5453 211.345 51.811 208.728 53.9037C206.581 55.6212 204.502 56.3436 201.707 56.3436C198.569 56.3436 197.238 55.7812 195.36 53.6602C192.608 50.5523 188.656 50.1146 186.275 52.6541C185.41 53.5767 183.676 54.3313 182.422 54.3313C181.167 54.3313 180.141 54.8143 180.141 55.4049C180.141 56.0367 180.933 56.2168 182.062 55.8425C183.421 55.3918 183.639 55.4864 182.81 56.1625C182.165 56.6897 179.667 56.9875 177.261 56.8245C173.852 56.5951 172.481 56.9694 171.059 58.5189C170.055 59.6125 169.381 61.2686 169.56 62.1983C169.991 64.4329 164.664 68.3921 161.086 68.4967C159.592 68.54 158.929 68.8348 159.611 69.1517C161.604 70.0763 153.089 72.2053 148.764 71.8652C145.902 71.6399 144.288 72.0775 142.759 73.4942C140.499 75.5889 138.942 75.2911 139.717 72.9126C140.017 71.992 139.681 71.4356 138.826 71.4356C138.071 71.4356 137.549 71.9618 137.667 72.6037C137.969 74.2588 130.793 76.6434 128.97 75.4944C128.173 74.9913 125.626 74.7911 123.31 75.0486C120.993 75.3052 118.522 75.5749 117.817 75.6463C117.113 75.7177 114.327 75.4722 111.628 75.101C108.503 74.6713 106.719 74.7971 106.719 75.4461C106.719 76.0075 105.844 76.4663 104.775 76.4663C102.845 76.4663 99.169 78.8911 97.9986 80.9355C97.646 81.5523 94.1464 82 89.6753 82C83.1339 82 81.9609 81.7525 81.9609 80.3701C81.96 78.9927 81.014 78.7854 75.8489 79.0319C71.6424 79.2322 69.1606 78.877 67.8834 77.891C66.864 77.1032 65.8173 76.7088 65.5586 77.0146C65.2991 77.3195 62.2563 77.9332 58.7961 78.3769C54.6537 78.9082 52.3093 78.8277 51.9302 78.1415C51.5503 77.4533 50.8758 77.567 49.9444 78.4786C48.814 79.5843 48.3999 79.6044 47.8621 78.5792C47.4933 77.8749 46.4662 77.3899 45.58 77.5016C44.693 77.6133 43.776 77.6143 43.5412 77.5046C43.3065 77.395 42.346 77.1887 41.4069 77.0468C40.4678 76.905 38.4512 76.4542 36.9247 76.0447C35.1182 75.5598 34.15 75.6795 34.15 76.3868C34.15 76.9834 32.9974 77.4724 31.5887 77.4724C30.1801 77.4724 29.0275 77.0197 29.0275 76.4663ZM218.276 45.6111C217.962 45.2429 217.706 45.5447 217.706 46.2822C217.706 47.0197 217.962 47.3216 218.276 46.9533C218.588 46.5841 218.588 45.9804 218.276 45.6111ZM120.015 71.3159C120.555 70.2846 119.845 70.2212 117.177 71.0633C116.12 71.3974 115.256 72.0071 115.256 72.4196C115.256 73.4147 119.421 72.4488 120.015 71.3159ZM562.621 46.2822C562.621 45.7289 562.237 45.2761 561.768 45.2761C561.298 45.2761 560.914 45.7289 560.914 46.2822C560.914 46.8356 561.298 47.2884 561.768 47.2884C562.237 47.2884 562.621 46.8356 562.621 46.2822ZM512.534 43.5989C512.222 43.9681 512.478 44.27 513.104 44.27C513.73 44.27 513.986 43.9681 513.673 43.5989C513.36 43.2306 512.848 43.2306 512.534 43.5989ZM501.31 42.2024C500.223 41.6892 499.564 40.83 499.845 40.2937C500.144 39.7253 501.056 40.0251 502.035 41.0121C504.496 43.4963 504.395 43.6613 501.31 42.2024ZM561.483 40.5805C561.17 40.2122 560.914 40.5141 560.914 41.2516C560.914 41.9891 561.17 42.2909 561.483 41.9227C561.796 41.5534 561.796 40.9497 561.483 40.5805ZM455.902 40.2454C455.902 39.6921 455.733 39.2393 455.526 39.2393C455.319 39.2393 454.912 39.6921 454.622 40.2454C454.332 40.7988 454.501 41.2516 454.998 41.2516C455.495 41.2516 455.902 40.7988 455.902 40.2454ZM460.924 35.2148C460.455 35.2148 460.308 35.6675 460.598 36.2209C460.888 36.7743 461.51 37.227 461.979 37.227C462.449 37.227 462.596 36.7743 462.306 36.2209C462.015 35.6675 461.394 35.2148 460.924 35.2148ZM585.539 34.8083C584.657 35.4512 585.418 37.227 586.577 37.227C587.019 37.227 587.38 36.8497 587.38 36.3889C587.38 35.0789 586.365 34.2076 585.539 34.8083ZM356.298 32.5314C355.986 32.9006 356.242 33.2025 356.867 33.2025C357.493 33.2025 357.749 32.9006 357.437 32.5314C357.124 32.1631 356.611 32.1631 356.298 32.5314ZM593.783 32.1963C594.073 31.643 593.689 31.1902 592.929 31.1902C592.17 31.1902 591.785 31.643 592.076 32.1963C592.366 32.7497 592.75 33.2025 592.929 33.2025C593.109 33.2025 593.493 32.7497 593.783 32.1963ZM368.482 28.4445C367.615 27.4212 366.898 28.9616 367.61 30.3189C368.148 31.3452 368.35 31.3452 368.638 30.3229C368.836 29.6237 368.765 28.7785 368.482 28.4445ZM645.008 28.1718C645.298 27.6184 645.705 27.1657 645.912 27.1657C646.12 27.1657 646.289 27.6184 646.289 28.1718C646.289 28.7252 645.881 29.1779 645.385 29.1779C644.888 29.1779 644.718 28.7252 645.008 28.1718ZM681.201 26.729C680.543 27.2089 680.607 27.6788 681.415 28.2825C682.939 29.4204 683.854 29.4013 683.854 28.2312C683.854 26.8296 682.285 25.9402 681.201 26.729ZM698.083 26.4946C697.77 26.1263 697.514 26.4282 697.514 27.1657C697.514 27.9032 697.77 28.205 698.083 27.8368C698.396 27.4675 698.396 26.8638 698.083 26.4946ZM678.731 26.722C678.731 26.4775 678.287 25.9553 677.745 25.5609C677.135 25.1152 676.991 25.2842 677.37 26.0036C677.977 27.1637 678.731 27.5611 678.731 26.722ZM701.782 23.1411C701.782 22.5878 701.375 22.135 700.878 22.135C700.381 22.135 700.212 22.5878 700.502 23.1411C700.792 23.6945 701.199 24.1473 701.406 24.1473C701.613 24.1473 701.782 23.6945 701.782 23.1411ZM987.504 19.4516C987.191 19.0834 986.935 19.3852 986.935 20.1227C986.935 20.8602 987.191 21.1621 987.504 20.7938C987.817 20.4246 987.817 19.8209 987.504 19.4516ZM865.987 18.4455C865.674 18.8148 865.93 19.1166 866.556 19.1166C867.182 19.1166 867.438 18.8148 867.126 18.4455C866.812 18.0773 866.3 18.0773 865.987 18.4455ZM784.027 16.4332C783.714 16.8025 783.97 17.1043 784.596 17.1043C785.222 17.1043 785.478 16.8025 785.166 16.4332C784.852 16.065 784.34 16.065 784.027 16.4332ZM901.133 16.0982C901.423 15.5448 901.039 15.0921 900.279 15.0921C899.52 15.0921 899.135 15.5448 899.426 16.0982C899.716 16.6516 900.1 17.1043 900.279 17.1043C900.459 17.1043 900.843 16.6516 901.133 16.0982ZM311.459 14.4049C310.778 14.7258 310.98 14.9643 311.975 15.0126C312.875 15.0558 313.378 14.8184 313.095 14.4844C312.811 14.1503 312.075 14.1141 311.459 14.4049ZM821.307 13.7006C821.307 12.9349 820.635 12.0284 819.813 11.6873C818.992 11.3452 817.804 10.7888 817.173 10.4487C816.543 10.1097 816.9 11.0152 817.968 12.462C820.117 15.3748 821.307 15.8165 821.307 13.7006ZM1036.88 12.0736C1036.59 11.5203 1036.76 11.0675 1037.26 11.0675C1037.75 11.0675 1038.16 11.5203 1038.16 12.0736C1038.16 12.627 1037.99 13.0798 1037.78 13.0798C1037.58 13.0798 1037.17 12.627 1036.88 12.0736ZM1052.25 7.04297C1052.54 6.4896 1052.37 6.03684 1051.87 6.03684C1051.37 6.03684 1050.97 6.4896 1050.97 7.04297C1050.97 7.59635 1051.14 8.04911 1051.34 8.04911C1051.55 8.04911 1051.96 7.59635 1052.25 7.04297ZM1248.82 329.803C1246.15 330.635 1245.44 330.573 1245.98 329.554C1246.58 328.435 1250.74 327.481 1250.74 328.464C1250.74 328.871 1249.88 329.473 1248.82 329.803ZM863.965 359.488C864.944 360.463 865.856 360.759 866.155 360.198C866.436 359.668 865.777 358.819 864.69 358.312C861.605 356.871 861.504 357.034 863.965 359.488ZM1148.29 354.282C1148.29 355.011 1148.04 355.309 1147.72 354.945C1147.41 354.58 1147.41 353.984 1147.72 353.619C1148.04 353.256 1148.29 353.554 1148.29 354.282ZM804.232 355.276C803.763 355.276 803.379 354.829 803.379 354.282C803.379 353.736 803.763 353.288 804.232 353.288C804.702 353.288 805.086 353.736 805.086 354.282C805.086 354.829 804.702 355.276 804.232 355.276ZM853.466 356.933C853.152 357.297 852.64 357.297 852.327 356.933C852.014 356.568 852.27 356.27 852.896 356.27C853.522 356.27 853.778 356.568 853.466 356.933ZM905.076 365.215C904.606 365.215 903.985 364.767 903.694 364.221C903.404 363.674 903.551 363.227 904.021 363.227C904.49 363.227 905.112 363.674 905.402 364.221C905.692 364.767 905.545 365.215 905.076 365.215ZM805.086 359.252C805.086 359.98 804.83 360.278 804.517 359.914C804.204 359.55 804.204 358.953 804.517 358.589C804.83 358.225 805.086 358.523 805.086 359.252ZM910.474 361.239C910.267 361.239 910.098 360.792 910.098 360.245C910.098 359.699 910.505 359.252 911.002 359.252C911.499 359.252 911.668 359.699 911.378 360.245C911.088 360.792 910.681 361.239 910.474 361.239ZM780.461 365.616C779.635 366.21 778.62 365.349 778.62 364.055C778.62 363.6 778.981 363.227 779.423 363.227C780.582 363.227 781.343 364.981 780.461 365.616ZM997.362 370.047C997.65 369.037 997.852 369.037 998.39 370.051C999.102 371.392 998.385 372.913 997.518 371.902C997.235 371.572 997.164 370.738 997.362 370.047ZM1009.7 367.865C1009.39 368.229 1008.88 368.229 1008.56 367.865C1008.25 367.501 1008.51 367.202 1009.13 367.202C1009.76 367.202 1010.01 367.501 1009.7 367.865ZM773.071 369.19C772.311 369.19 771.927 368.743 772.217 368.196C772.507 367.65 772.891 367.202 773.071 367.202C773.25 367.202 773.634 367.65 773.924 368.196C774.215 368.743 773.83 369.19 773.071 369.19ZM684.799 373.597C683.715 374.376 682.146 373.498 682.146 372.113C682.146 370.957 683.061 370.938 684.585 372.062C685.393 372.659 685.457 373.123 684.799 373.597ZM720.088 373.166C720.295 373.166 720.702 372.718 720.992 372.172C721.282 371.625 721.112 371.178 720.615 371.178C720.119 371.178 719.711 371.625 719.711 372.172C719.711 372.718 719.88 373.166 720.088 373.166ZM687.269 373.604C687.269 372.775 688.023 373.168 688.63 374.314C689.009 375.024 688.865 375.191 688.255 374.751C687.713 374.361 687.269 373.845 687.269 373.604ZM668.486 373.166C668.486 373.894 668.23 374.192 667.917 373.829C667.604 373.464 667.604 372.867 667.917 372.503C668.23 372.139 668.486 372.437 668.486 373.166ZM500.013 381.779C499.7 382.143 499.188 382.143 498.874 381.779C498.562 381.415 498.818 381.117 499.444 381.117C500.07 381.117 500.326 381.415 500.013 381.779ZM665.122 378.135C664.625 378.135 664.218 377.688 664.218 377.141C664.218 376.594 664.387 376.147 664.594 376.147C664.801 376.147 665.208 376.594 665.498 377.141C665.788 377.688 665.619 378.135 665.122 378.135ZM379.065 380.123C379.065 380.851 378.809 381.149 378.496 380.786C378.183 380.421 378.183 379.825 378.496 379.46C378.809 379.096 379.065 379.394 379.065 380.123ZM1054.54 385.771C1053.93 386.058 1053.19 386.022 1052.91 385.692C1052.62 385.362 1053.13 385.128 1054.03 385.171C1055.02 385.218 1055.22 385.454 1054.54 385.771ZM581.973 383.767C581.66 384.131 581.148 384.131 580.834 383.767C580.522 383.402 580.778 383.104 581.404 383.104C582.03 383.104 582.286 383.402 581.973 383.767ZM465.721 385.092C464.961 385.092 464.577 384.645 464.867 384.098C465.157 383.552 465.541 383.104 465.721 383.104C465.9 383.104 466.284 383.552 466.574 384.098C466.865 384.645 466.48 385.092 465.721 385.092ZM548.827 389.679C548.196 389.343 547.008 388.793 546.187 388.455C545.365 388.118 544.693 387.223 544.693 386.467C544.693 384.376 545.883 384.813 548.032 387.69C549.1 389.119 549.457 390.014 548.827 389.679ZM328.744 389.067C329.241 389.067 329.411 388.62 329.121 388.074C328.83 387.527 328.424 387.08 328.217 387.08C328.009 387.08 327.84 387.527 327.84 388.074C327.84 388.62 328.247 389.067 328.744 389.067ZM314.13 394.037C313.633 394.037 313.463 393.59 313.753 393.043C314.043 392.496 314.45 392.049 314.657 392.049C314.865 392.049 315.034 392.496 315.034 393.043C315.034 393.59 314.627 394.037 314.13 394.037Z" clip-rule="evenodd"/></g><defs><clipPath id="clip0"><rect width="1366" height="400" fill="#fff"/></clipPath></defs></svg>