<svg width="1366" height="400" viewBox="0 0 1366 400" fill="none" xmlns="http://www.w3.org/2000/svg">
<g clip-path="url(#clip0)">
<path fill-rule="evenodd" clip-rule="evenodd" d="M28.1234 75.4602C28.6203 75.4602 29.0275 75.9129 29.0275 76.4663C29.0275 77.0197 30.1801 77.4724 31.5887 77.4724C32.9974 77.4724 34.15 76.9834 34.15 76.3868C34.15 75.6795 35.1182 75.5598 36.9247 76.0447C38.4512 76.4542 40.4678 76.905 41.4069 77.0468C42.346 77.1887 43.3065 77.395 43.5412 77.5046C43.776 77.6143 44.693 77.6133 45.58 77.5016C46.4662 77.3899 47.4933 77.8749 47.8621 78.5792C48.3999 79.6044 48.814 79.5843 49.9444 78.4786C50.8758 77.567 51.5503 77.4533 51.9302 78.1415C52.3093 78.8277 54.6537 78.9082 58.7961 78.3769C62.2563 77.9332 65.2991 77.3195 65.5586 77.0146C65.8173 76.7088 66.864 77.1032 67.8834 77.891C69.1606 78.877 71.6424 79.2322 75.8489 79.0319C81.014 78.7854 81.96 78.9927 81.9609 80.3701C81.9609 81.7525 83.1339 82 89.6753 82C94.1464 82 97.646 81.5523 97.9986 80.9355C99.169 78.8911 102.845 76.4663 104.775 76.4663C105.844 76.4663 106.719 76.0075 106.719 75.4461C106.719 74.7971 108.503 74.6713 111.628 75.101C114.327 75.4722 117.113 75.7177 117.817 75.6463C118.522 75.5749 120.993 75.3052 123.31 75.0486C125.626 74.7911 128.173 74.9913 128.97 75.4944C130.793 76.6434 137.969 74.2588 137.667 72.6037C137.549 71.9618 138.071 71.4356 138.826 71.4356C139.681 71.4356 140.017 71.992 139.717 72.9126C138.942 75.2911 140.499 75.5889 142.759 73.4942C144.288 72.0775 145.902 71.6399 148.764 71.8652C153.089 72.2053 161.604 70.0763 159.611 69.1517C158.929 68.8348 159.592 68.54 161.086 68.4967C164.664 68.3921 169.991 64.4329 169.56 62.1983C169.381 61.2686 170.055 59.6125 171.059 58.5189C172.481 56.9694 173.852 56.5951 177.261 56.8245C179.667 56.9875 182.165 56.6897 182.81 56.1625C183.639 55.4864 183.421 55.3918 182.062 55.8425C180.933 56.2168 180.141 56.0367 180.141 55.4049C180.141 54.8143 181.167 54.3313 182.422 54.3313C183.676 54.3313 185.41 53.5767 186.275 52.6541C188.656 50.1146 192.608 50.5523 195.36 53.6602C197.238 55.7812 198.569 56.3436 201.707 56.3436C204.502 56.3436 206.581 55.6212 208.728 53.9037C211.345 51.811 212.444 51.5453 216.45 52.0323C219.22 52.3694 221.121 52.2043 221.121 51.6278C221.121 51.0926 220.043 50.842 218.725 51.0694C217.156 51.3411 215.903 50.8793 215.096 49.7313C213.949 48.0993 214.135 48.0148 217.809 48.5018C221.344 48.9696 221.71 48.8298 221.338 47.1505C220.942 45.3667 222.374 44.4128 222.971 46.0619C223.128 46.4945 224.542 47.5701 226.115 48.4525C228.414 49.7423 229.492 49.8349 231.622 48.9243C234.953 47.4997 237.67 44.2991 242.808 35.745C243.814 34.0718 244.316 33.94 246.007 34.9069C249.462 36.8799 251.856 37.1737 251.856 35.6232C251.856 34.8455 252.263 34.2086 252.76 34.2086C253.257 34.2086 253.427 33.7559 253.137 33.2025C252.847 32.6491 253.378 32.1963 254.317 32.1963C255.256 32.1963 256.285 32.6954 256.606 33.3051C257.412 34.8425 262.936 37.5973 265.516 37.7502C266.69 37.8196 267.89 37.4574 268.182 36.9443C268.501 36.3859 269.405 36.4493 270.441 37.1023C271.771 37.9414 272.408 37.8498 273.215 36.7028C273.792 35.8848 274.621 35.2148 275.059 35.2148C276.031 35.2148 283.382 31.5051 285.152 30.1207C285.857 29.5703 287.106 28.854 287.927 28.528C288.749 28.203 289.421 27.2623 289.421 26.4372C289.421 25.5176 289.916 25.1625 290.702 25.5176C291.406 25.8356 291.982 25.6726 291.982 25.1544C291.982 24.6352 292.846 23.6311 293.903 22.9218C294.96 22.2125 295.824 20.9528 295.824 20.1227C295.824 19.0291 296.706 18.6447 299.026 18.7282C301.403 18.8137 302.228 18.4375 302.228 17.2693C302.228 16.0459 302.455 15.9644 303.252 16.9031C303.815 17.5671 305.448 18.1175 306.88 18.1266C308.565 18.1366 310.54 19.2424 312.473 21.2556C315.39 24.2942 315.467 24.3153 315.746 22.136C315.989 20.2264 316.406 19.9929 318.635 20.5191C320.067 20.8562 321.969 22.1229 322.859 23.3343C324.434 25.4734 330.37 28.5441 331.151 27.6235C331.365 27.3719 330.995 27.1627 330.33 27.1586C329.664 27.1556 330.233 26.2883 331.594 25.2309C334.591 22.9027 337.457 23.121 340.015 25.8738C341.066 27.0057 343.464 28.532 345.342 29.2655C347.22 30 349.333 31.1429 350.038 31.807C350.742 32.47 354.331 33.6039 358.014 34.3253C363.301 35.3627 365.053 36.1515 366.338 38.0782C367.234 39.4194 367.966 41.153 367.966 41.9307C367.966 42.8684 368.755 42.4831 370.306 40.7887C372.726 38.1436 373.943 37.5862 373.943 39.1216C373.943 40.6016 378.075 41.0493 379.689 39.7444C381.449 38.3227 399.505 35.7078 402.081 36.5016C403.411 36.9111 403.955 36.4583 404.347 34.6181C404.637 33.2538 405.493 32.1963 406.306 32.1963C407.101 32.1963 408.155 31.7204 408.648 31.1389C409.276 30.3994 409.975 30.8532 410.973 32.6481C412.139 34.7449 413.077 35.2148 416.091 35.2148C420.04 35.2148 423.865 37.0087 428.435 41.002C430.477 42.7869 431.941 43.3272 433.646 42.9258C434.951 42.6179 436.457 42.8855 436.995 43.5194C437.73 44.3857 438.226 44.3756 438.986 43.4791C439.767 42.5585 440.35 42.6591 441.532 43.9198C442.78 45.2509 443.305 45.3194 444.361 44.2861C445.074 43.5878 445.658 43.3252 445.658 43.7005C445.658 44.0768 446.459 43.7226 447.438 42.9137C449.013 41.6148 449.52 41.6369 451.813 43.1089C453.79 44.3776 454.5 44.4742 454.799 43.5154C455.336 41.7939 457.6 41.9347 459.347 43.7991C460.66 45.1996 460.924 45.1051 462.227 42.7608C463.016 41.3421 464.034 40.4537 464.491 40.7857C464.948 41.1188 465.101 41.812 464.83 42.3271C464.559 42.8453 465.849 43.2638 467.713 43.2638C469.843 43.2638 471.259 42.7356 471.553 41.8331C472.209 39.8188 475.539 39.3962 478.313 40.9739C479.75 41.7919 480.661 41.9096 480.661 41.2777C480.661 40.7103 481.334 40.2092 482.155 40.1659C483.047 40.1187 483.22 39.8822 482.582 39.5794C481.315 38.9767 481.14 36.2209 482.369 36.2209C482.838 36.2209 483.223 36.6736 483.223 37.227C483.223 37.7804 483.51 38.1798 483.863 38.1144C485.603 37.7905 486.637 38.372 486.637 39.6749C486.637 41.5232 489.563 42.6209 492.32 41.8049C493.678 41.4035 494.267 41.5464 493.927 42.1963C493.074 43.8222 495.073 47.2884 496.862 47.2884C497.757 47.2884 498.727 46.8356 499.017 46.2822C499.307 45.7289 498.776 45.2761 497.837 45.2761C495.728 45.2761 494.57 43.3202 496.044 42.2466C496.642 41.811 496.895 40.7294 496.607 39.844C496.211 38.6286 496.613 38.2332 498.246 38.2332C499.436 38.2332 501.202 38.7322 502.17 39.3429C503.485 40.173 504.091 40.1458 504.568 39.2353C504.984 38.4434 506.138 38.2593 507.874 38.7081C510.087 39.2816 510.453 39.1286 510.023 37.8096C509.707 36.8376 509.956 36.233 510.665 36.2531C512.234 36.2963 514.811 38.6899 514.811 40.1046C514.811 40.7354 515.388 41.2516 516.092 41.2516C516.796 41.2516 517.372 41.7043 517.372 42.2577C517.372 43.4912 517.155 43.4993 514.595 42.3523C512.983 41.6299 512.348 41.8422 511.536 43.3735C510.788 44.7861 509.943 45.1373 508.393 44.6785C507.092 44.2941 506.274 44.4823 506.274 45.1674C506.274 45.7802 506.754 46.1685 507.341 46.0307C507.928 45.8919 508.312 46.3446 508.195 47.0368C508.078 47.7281 508.558 48.2945 509.262 48.2945C509.966 48.2945 510.542 48.7473 510.542 49.3006C510.542 49.854 510.915 50.3068 511.37 50.3068C511.824 50.3068 511.951 49.5139 511.652 48.546C511.162 46.9654 511.296 46.9815 512.959 48.702C514.801 50.6076 514.811 50.6046 514.811 48.0269C514.811 45.9291 515.332 45.3013 517.55 44.7268C519.316 44.27 520.403 44.4209 520.61 45.1503C520.786 45.7731 521.474 46.2822 522.139 46.2822C522.804 46.2822 523.349 46.9614 523.349 47.7914C523.349 48.6215 523.756 49.3006 524.253 49.3006C524.75 49.3006 524.889 48.7895 524.561 48.1637C524.207 47.4886 524.421 47.2069 525.09 47.4695C525.708 47.712 526.626 48.7895 527.13 49.8641C527.633 50.9376 528.131 51.9941 528.237 52.2114C528.343 52.4277 528.954 52.0927 529.596 51.4648C530.238 50.838 530.997 50.6006 531.283 50.9376C531.569 51.2747 532.055 50.3651 532.364 48.9163C532.673 47.4675 533.428 46.2822 534.042 46.2822C534.657 46.2822 535.354 45.7158 535.592 45.0246C535.918 44.0778 536.249 44.1402 536.931 45.2761C537.429 46.1062 537.842 46.3587 537.85 45.8385C537.857 45.3174 538.441 45.7701 539.148 46.8447C540.354 48.6758 540.382 48.6265 539.608 46.0659C539.153 44.5638 539.11 43.0958 539.512 42.803C540.262 42.2567 541.68 46.8769 541.399 48.9505C541.174 50.6036 547.096 50.2293 547.641 48.5561C547.973 47.5389 548.499 47.4644 549.75 48.2543C550.859 48.9525 551.597 48.9676 551.948 48.2975C552.738 46.7893 556.012 47.0791 558.154 48.8469C559.891 50.2816 560.19 50.2434 561.902 48.3619C563.233 46.901 564.066 46.6143 564.824 47.3558C565.557 48.0722 566.065 48.048 566.47 47.2753C566.793 46.6605 567.883 45.7339 568.894 45.2167C571.436 43.9138 574.032 41.9428 574.741 40.7777C575.067 40.2404 575.609 40.1227 575.943 40.5171C576.277 40.9115 577.067 40.7294 577.697 40.1136C578.545 39.2836 579.181 39.3238 580.15 40.2716C581.231 41.329 581.665 41.2194 582.659 39.6397C583.676 38.0249 584.129 37.9223 585.595 38.9777C587.067 40.0362 587.459 39.9406 588.181 38.3499C588.79 37.0097 590.438 36.2742 593.968 35.7701C596.684 35.3828 600.266 34.9854 601.929 34.8888C603.591 34.7912 605.982 33.9168 607.24 32.9469C610.441 30.4779 617.645 28.7684 619.55 30.0251C620.56 30.6902 621.62 30.666 622.753 29.9507C623.685 29.3631 628.433 28.7594 633.304 28.6075C640.394 28.3881 642.498 27.9736 643.85 26.5318C645.748 24.5075 645.823 24.5799 648.9 31.4417C649.831 33.5164 650.799 35.2148 651.052 35.2148C651.305 35.2148 651.296 34.8032 651.032 34.2992C650.768 33.7961 650.791 32.6521 651.082 31.7587C651.492 30.5 651.877 30.3934 652.792 31.2878C653.441 31.9227 653.972 32.0072 653.972 31.475C653.972 30.9427 654.877 30.0211 655.983 29.4275C657.675 28.5189 658.359 28.7473 660.303 30.8723C662.382 33.1441 662.864 33.2739 665.122 32.1712C666.503 31.4971 667.633 30.5483 667.633 30.0623C667.633 29.5754 668.324 29.1779 669.169 29.1779C670.014 29.1779 671.126 28.6829 671.639 28.0782C672.314 27.2834 673.129 27.3377 674.585 28.2734C675.691 28.9858 677.706 29.4395 679.061 29.2826C680.416 29.1256 681.818 29.5573 682.176 30.2404C682.535 30.9246 683.467 31.1942 684.248 30.8411C685.03 30.4879 685.431 29.7424 685.138 29.185C684.846 28.6276 685.058 28.1718 685.611 28.1718C686.207 28.1718 686.425 29.021 686.15 30.2636C685.784 31.9116 685.989 32.2165 687.118 31.7023C687.905 31.3431 689.551 30.8109 690.774 30.5201C692.348 30.1458 693.159 30.4789 693.543 31.6601C693.871 32.6662 694.503 33.0264 695.135 32.5666C695.712 32.146 697.276 31.9005 698.61 32.0203C701.619 32.2899 703.27 31.2667 701.685 30.1126C699.809 28.7463 701.287 28.1446 704.146 29.1115C705.618 29.6086 707.668 30.9437 708.701 32.0776C709.733 33.2115 710.907 33.8997 711.31 33.6069C711.712 33.3142 712.641 33.782 713.376 34.6473C714.11 35.5126 715.367 36.2209 716.167 36.2209C716.968 36.2209 718.49 36.9362 719.548 37.8096C722.383 40.1498 726.649 41.3924 727.842 40.2253C728.396 39.684 730.679 39.4425 732.914 39.689C735.15 39.9365 736.776 39.8973 736.526 39.6035C736.277 39.3087 736.458 37.7623 736.931 36.1656C737.651 33.7287 738.187 33.3172 740.265 33.6019C741.627 33.7891 743.262 34.4511 743.898 35.0729C744.534 35.6947 745.296 35.917 745.594 35.5679C745.89 35.2188 747.648 34.8314 749.501 34.7087C752.164 34.5316 752.956 34.8767 753.286 36.3587C753.84 38.856 755.282 38.7322 756.484 36.0851C757.268 34.3585 757.613 34.2106 758.238 35.3305C758.869 36.4624 759.213 36.3456 760.066 34.7117C760.645 33.6049 761.118 32.0203 761.118 31.1902C761.118 30.3602 761.983 29.5361 763.039 29.359C764.095 29.183 764.96 28.3901 764.96 27.5983C764.96 26.8075 765.554 26.1595 766.282 26.1595C767.008 26.1595 768.539 24.9693 769.682 23.5154C771.321 21.4307 772.286 20.994 774.237 21.4538C777.22 22.1571 778.125 21.3532 776.691 19.2725C775.811 17.9937 775.867 17.8378 777.022 18.3469C777.787 18.684 778.747 18.5652 779.156 18.0823C779.861 17.2522 782.185 18.201 788.558 21.9167C791.124 23.4128 791.328 23.3756 793.254 21.0474C795.544 18.2805 800.003 17.7221 800.644 20.1227C800.865 20.9528 801.429 22.2004 801.895 22.8966C802.547 23.8676 803.18 23.5627 804.627 21.5776C806.117 19.5341 806.987 19.1347 808.786 19.668C811.346 20.4246 811.769 19.4446 809.667 17.6325C808.423 16.561 808.553 16.1918 810.858 14.258C813.094 12.3815 813.514 12.299 813.955 13.6533C814.236 14.5145 814.827 14.9562 815.268 14.6353C816.042 14.0718 817.663 15.0508 823.92 19.8601C825.532 21.0997 827.484 21.8764 828.258 21.5867C829.032 21.2969 830.208 21.7003 830.87 22.4811C832.503 24.4048 837.217 25.5559 837.926 24.2036C838.307 23.4762 838.996 23.4571 840.086 24.1443C842.702 25.7943 843.584 25.3154 843.324 22.3865C843.117 20.0533 843.432 19.5714 845.339 19.3108C847.642 18.9969 848.592 16.9725 848.616 12.3252C848.629 9.73439 849.661 9.40136 851.147 11.5112C851.708 12.3081 852.676 12.7307 853.297 12.4489C853.918 12.1682 854.995 12.8947 855.69 14.0638C856.718 15.7943 857.044 15.909 857.443 14.6826C858.326 11.971 864.365 14.8194 865.141 18.3117C865.631 20.5181 866.861 20.6268 868.569 18.6135C869.273 17.7835 870.626 17.1043 871.575 17.1043C872.525 17.1043 873.608 16.5047 873.984 15.7722C874.359 15.0397 875.88 13.4007 877.362 12.131C879.156 10.5936 881.205 9.84003 883.489 9.87726C887.307 9.93964 891.666 12.2004 892.875 14.7439C893.349 15.743 894.218 16.1596 895.046 15.7843C896.197 15.2641 896.263 14.7339 895.44 12.6059C894.897 11.2023 894.726 9.73137 895.06 9.33797C896.243 7.94246 898.572 10.8351 898.575 13.7046C898.577 15.2973 898.888 17.1667 899.266 17.8589C900.075 19.341 901.907 19.5875 901.133 18.1105C900.098 16.1374 902.15 17.1466 904.07 19.5553C905.497 21.3462 906.896 21.9911 909.267 21.9529C911.05 21.9237 913.696 22.5978 915.146 23.45C916.595 24.3022 917.781 24.6081 917.781 24.1292C917.781 23.6512 917.364 22.956 916.853 22.5837C916.234 22.133 916.21 21.5726 916.779 20.9015C917.855 19.6337 919.489 20.7596 919.489 22.7689C919.489 24.102 919.655 24.0949 920.83 22.7095C921.569 21.8402 922.625 21.1218 923.178 21.1138C923.777 21.1047 923.676 20.7194 922.929 20.162C920.908 18.6558 922.688 17.6718 925.095 18.9637C927.135 20.0593 927.252 19.9899 926.715 17.9958C925.986 15.2903 927.439 14.1523 930.82 14.7802C932.839 15.1554 933.281 14.9371 932.896 13.7559C932.596 12.8353 933.44 11.2486 935.077 9.64886C936.546 8.21612 938.153 7.05304 938.649 7.06511C940.627 7.11341 946.81 11.0494 946.834 12.2759C946.851 13.0687 947.203 12.8906 947.731 11.8221C949.433 8.37812 957.907 10.6731 957.907 14.5779C957.907 15.3396 958.676 16.2501 959.615 16.6013C960.554 16.9524 961.328 18.0018 961.335 18.9325C961.346 20.3873 961.462 20.4135 962.156 19.1216C962.852 17.8247 963.126 17.8811 964.148 19.5271C964.799 20.5765 965.735 21.1429 966.226 20.7858C966.717 20.4276 967.338 20.8029 967.604 21.6209C967.903 22.5405 968.643 22.8564 969.541 22.4499C970.546 21.9951 970.797 22.1682 970.355 23.0103C969.893 23.8907 970.302 24.0547 971.83 23.6029C972.992 23.2589 974.167 23.4068 974.442 23.931C974.717 24.4552 975.911 24.6654 977.096 24.3978C978.682 24.0406 979.251 24.3425 979.251 25.5388C979.251 26.4342 979.881 27.1657 980.651 27.1657C981.422 27.1657 982.598 27.9585 983.266 28.9264C984.107 30.1438 984.613 30.3169 984.909 29.4858C985.145 28.8258 985.793 28.4857 986.35 28.7322C986.907 28.9777 987.807 28.046 988.35 26.6606C989.17 24.5688 989.098 23.9782 987.923 23.1693C986.747 22.3604 986.88 22.1913 988.704 22.1652C992.338 22.1149 998.395 19.2373 1001.18 16.237C1002.62 14.6846 1004.33 13.3444 1004.97 13.2569C1005.62 13.1703 1007.1 12.9057 1008.28 12.6703C1009.45 12.4338 1010.7 12.2034 1011.05 12.1572C1011.41 12.1119 1011.6 11.7346 1011.48 11.319C1011.36 10.9045 1012.09 9.59855 1013.09 8.41735C1014.35 6.92928 1015.6 6.42521 1017.14 6.77434C1018.37 7.05102 1019.38 7.71004 1019.38 8.23827C1019.38 8.76649 1019.98 8.48778 1020.72 7.61748C1022.11 5.98452 1024.5 5.46133 1024.5 6.79144C1024.5 7.20597 1026.13 7.54604 1028.13 7.54604C1030.48 7.54604 1032.29 8.18192 1033.29 9.35809C1034.19 10.4165 1035.48 10.9297 1036.38 10.5906C1037.45 10.1922 1038.57 10.9589 1039.97 13.0456C1042.18 16.3457 1044.99 17.1134 1044.99 14.4169C1044.99 13.4923 1044.37 11.9237 1043.61 10.9327C1042.84 9.94165 1042.45 8.43446 1042.72 7.58327C1043.29 5.84467 1044.99 5.47039 1044.99 7.08322C1044.99 7.65974 1045.83 9.47078 1046.86 11.1078C1048.87 14.3173 1052.16 15.1001 1052.99 12.5677C1053.26 11.7326 1053.78 11.1068 1054.14 11.1772C1056.6 11.6521 1058.65 10.8613 1058.65 9.4406C1058.65 8.3097 1059.17 7.97466 1060.36 8.34089C1061.3 8.62965 1062.06 8.40125 1062.06 7.83178C1062.06 7.15566 1062.43 7.13353 1063.13 7.7694C1063.72 8.30467 1064.93 9.05021 1065.81 9.4255C1067.24 10.0302 1067.29 9.91347 1066.24 8.40528C1065.16 6.85281 1065.3 6.76025 1067.83 7.35085C1069.44 7.72715 1070.6 7.58629 1070.6 7.01782C1070.6 6.47853 1070.2 6.03684 1069.71 6.03684C1068.48 6.03684 1071.64 1.0776 1072.89 1.03735C1073.45 1.02025 1074.15 1.91169 1074.44 3.01843C1075.09 5.4241 1076.78 5.58307 1079.48 3.49434C1081 2.3242 1082.01 2.20145 1083.75 2.97819C1085 3.5386 1088.19 3.89075 1090.83 3.75895C1094.07 3.59897 1095.76 3.932 1096 4.77917C1096.2 5.47139 1097.11 6.03684 1098.02 6.03684C1098.94 6.03684 1099.9 6.71598 1100.17 7.54604C1100.45 8.3761 1101.03 9.05524 1101.48 9.05524C1101.93 9.05524 1102.03 8.55419 1101.71 7.94145C1100.78 6.16864 1104.67 7.95654 1106.54 10.161C1107.57 11.3754 1109.36 12.0736 1111.44 12.0736C1113.24 12.0736 1114.99 11.7477 1115.33 11.3492C1115.67 10.9508 1117.45 10.5061 1119.29 10.3612C1121.92 10.1529 1123.1 10.6459 1124.83 12.6854C1126.04 14.1081 1127.57 15.0257 1128.24 14.7238C1128.91 14.421 1129.68 14.6071 1129.96 15.1363C1130.24 15.6655 1131.45 16.0982 1132.65 16.0982C1134.31 16.0982 1134.63 15.7913 1133.96 14.8405C1133.27 13.8646 1133.97 13.5829 1137.07 13.5829C1139.88 13.5829 1141.78 12.9349 1143.42 11.4166C1145.72 9.27961 1145.8 9.27559 1148.94 11.0886C1150.7 12.1008 1152.75 13.7982 1153.51 14.8606C1155.5 17.6678 1164.37 23.4208 1165.75 22.798C1166.39 22.5063 1168.28 22.7588 1169.94 23.3595C1172.41 24.2529 1173.35 24.1493 1175.11 22.79C1177.74 20.7576 1178.17 20.7264 1178.17 22.5707C1178.17 24.1342 1179.34 24.6996 1184.58 25.6927C1189.14 26.556 1194.78 28.859 1199.77 31.8955C1202.03 33.2659 1204.48 34.11 1205.23 33.772C1205.98 33.4339 1207.5 33.8595 1208.61 34.7187C1210.01 35.7963 1211.1 35.9905 1212.12 35.3456C1212.94 34.8324 1216.04 34.439 1219.02 34.4732C1223.95 34.5296 1224.59 34.7912 1226.22 37.39C1227.46 39.3691 1228.76 40.2454 1230.46 40.2454C1231.8 40.2454 1234.03 40.9366 1235.42 41.7808C1237.11 42.8081 1237.94 42.9378 1237.94 42.1712C1237.94 41.4035 1238.94 41.2506 1241 41.7053C1243.44 42.2436 1245.18 41.7486 1249.53 39.2785C1253.17 37.2079 1255.67 36.3768 1257.04 36.7823C1258.21 37.1294 1260.2 36.7189 1261.66 35.8265C1264.05 34.3696 1264.38 34.3988 1266.37 36.2481C1268.92 38.6105 1271.11 38.7423 1275.11 36.7733C1277.74 35.4774 1278.49 35.4985 1281.84 36.9614C1285.1 38.3861 1286.08 38.4273 1289.05 37.2703C1291.41 36.3547 1294.3 36.1505 1298.23 36.6254C1302.49 37.1395 1305.37 38.2422 1309.43 40.9175C1314.18 44.0516 1315.35 44.4269 1318.46 43.8202C1320.42 43.4369 1327.6 42.9902 1334.41 42.8272C1345.22 42.5696 1347.01 42.7557 1348.5 44.2951C1349.58 45.4139 1352.08 46.2088 1355.33 46.4704C1358.15 46.6978 1361.7 47.6184 1363.23 48.5179L1366 50.1528V400H0V70.9325H5.33594C10.1818 70.9325 10.6966 71.1358 10.9391 73.144C11.1525 74.9148 11.9183 75.4612 14.781 75.8827C16.7472 76.1725 19.5082 76.3767 20.9169 76.3385C22.3256 76.2993 24.5914 76.6041 25.9531 77.0156C27.7213 77.5509 28.2549 77.4352 27.8237 76.6122C27.4907 75.9783 27.6265 75.4602 28.1234 75.4602ZM217.706 46.2822C217.706 45.5447 217.962 45.2429 218.276 45.6111C218.588 45.9804 218.588 46.5841 218.276 46.9533C217.962 47.3216 217.706 47.0197 217.706 46.2822ZM117.177 71.0633C119.845 70.2212 120.555 70.2846 120.015 71.3159C119.421 72.4488 115.256 73.4147 115.256 72.4196C115.256 72.0071 116.12 71.3974 117.177 71.0633ZM561.768 45.2761C562.237 45.2761 562.621 45.7289 562.621 46.2822C562.621 46.8356 562.237 47.2884 561.768 47.2884C561.298 47.2884 560.914 46.8356 560.914 46.2822C560.914 45.7289 561.298 45.2761 561.768 45.2761ZM513.104 44.27C512.478 44.27 512.222 43.9681 512.534 43.5989C512.848 43.2306 513.36 43.2306 513.673 43.5989C513.986 43.9681 513.73 44.27 513.104 44.27ZM499.845 40.2937C499.564 40.83 500.223 41.6892 501.31 42.2024C504.395 43.6613 504.496 43.4963 502.035 41.0121C501.056 40.0251 500.144 39.7253 499.845 40.2937ZM560.914 41.2516C560.914 40.5141 561.17 40.2122 561.483 40.5805C561.796 40.9497 561.796 41.5534 561.483 41.9227C561.17 42.2909 560.914 41.9891 560.914 41.2516ZM455.526 39.2393C455.733 39.2393 455.902 39.6921 455.902 40.2454C455.902 40.7988 455.495 41.2516 454.998 41.2516C454.501 41.2516 454.332 40.7988 454.622 40.2454C454.912 39.6921 455.319 39.2393 455.526 39.2393ZM460.598 36.2209C460.308 35.6675 460.455 35.2148 460.924 35.2148C461.394 35.2148 462.015 35.6675 462.306 36.2209C462.596 36.7743 462.449 37.227 461.979 37.227C461.51 37.227 460.888 36.7743 460.598 36.2209ZM586.577 37.227C585.418 37.227 584.657 35.4512 585.539 34.8083C586.365 34.2076 587.38 35.0789 587.38 36.3889C587.38 36.8497 587.019 37.227 586.577 37.227ZM356.867 33.2025C356.242 33.2025 355.986 32.9006 356.298 32.5314C356.611 32.1631 357.124 32.1631 357.437 32.5314C357.749 32.9006 357.493 33.2025 356.867 33.2025ZM592.929 31.1902C593.689 31.1902 594.073 31.643 593.783 32.1963C593.493 32.7497 593.109 33.2025 592.929 33.2025C592.75 33.2025 592.366 32.7497 592.076 32.1963C591.785 31.643 592.17 31.1902 592.929 31.1902ZM367.61 30.3189C366.898 28.9616 367.615 27.4212 368.482 28.4445C368.765 28.7785 368.836 29.6237 368.638 30.3229C368.35 31.3452 368.148 31.3452 367.61 30.3189ZM645.912 27.1657C645.705 27.1657 645.298 27.6184 645.008 28.1718C644.718 28.7252 644.888 29.1779 645.385 29.1779C645.881 29.1779 646.289 28.7252 646.289 28.1718C646.289 27.6184 646.12 27.1657 645.912 27.1657ZM681.415 28.2825C680.607 27.6788 680.543 27.2089 681.201 26.729C682.285 25.9402 683.854 26.8296 683.854 28.2312C683.854 29.4013 682.939 29.4204 681.415 28.2825ZM697.514 27.1657C697.514 26.4282 697.77 26.1263 698.083 26.4946C698.396 26.8638 698.396 27.4675 698.083 27.8368C697.77 28.205 697.514 27.9032 697.514 27.1657ZM677.745 25.5609C678.287 25.9553 678.731 26.4775 678.731 26.722C678.731 27.5611 677.977 27.1637 677.37 26.0036C676.991 25.2842 677.135 25.1152 677.745 25.5609ZM700.878 22.135C701.375 22.135 701.782 22.5878 701.782 23.1411C701.782 23.6945 701.613 24.1473 701.406 24.1473C701.199 24.1473 700.792 23.6945 700.502 23.1411C700.212 22.5878 700.381 22.135 700.878 22.135ZM986.935 20.1227C986.935 19.3852 987.191 19.0834 987.504 19.4516C987.817 19.8209 987.817 20.4246 987.504 20.7938C987.191 21.1621 986.935 20.8602 986.935 20.1227ZM866.556 19.1166C865.93 19.1166 865.674 18.8148 865.987 18.4455C866.3 18.0773 866.812 18.0773 867.126 18.4455C867.438 18.8148 867.182 19.1166 866.556 19.1166ZM784.596 17.1043C783.97 17.1043 783.714 16.8025 784.027 16.4332C784.34 16.065 784.852 16.065 785.166 16.4332C785.478 16.8025 785.222 17.1043 784.596 17.1043ZM900.279 15.0921C901.039 15.0921 901.423 15.5448 901.133 16.0982C900.843 16.6516 900.459 17.1043 900.279 17.1043C900.1 17.1043 899.716 16.6516 899.426 16.0982C899.135 15.5448 899.52 15.0921 900.279 15.0921ZM311.975 15.0126C310.98 14.9643 310.778 14.7258 311.459 14.4049C312.075 14.1141 312.811 14.1503 313.095 14.4844C313.378 14.8184 312.875 15.0558 311.975 15.0126ZM819.813 11.6873C820.635 12.0284 821.307 12.9349 821.307 13.7006C821.307 15.8165 820.117 15.3748 817.968 12.462C816.9 11.0152 816.543 10.1097 817.173 10.4487C817.804 10.7888 818.992 11.3452 819.813 11.6873ZM1037.26 11.0675C1036.76 11.0675 1036.59 11.5203 1036.88 12.0736C1037.17 12.627 1037.58 13.0798 1037.78 13.0798C1037.99 13.0798 1038.16 12.627 1038.16 12.0736C1038.16 11.5203 1037.75 11.0675 1037.26 11.0675ZM1051.87 6.03684C1052.37 6.03684 1052.54 6.4896 1052.25 7.04297C1051.96 7.59635 1051.55 8.04911 1051.34 8.04911C1051.14 8.04911 1050.97 7.59635 1050.97 7.04297C1050.97 6.4896 1051.37 6.03684 1051.87 6.03684Z" fill="#ecece5"/>
</g>
<defs>
<clipPath id="clip0">
<rect width="1366" height="400" fill="white"/>
</clipPath>
</defs>
</svg>
