<svg width="1366" height="400" viewBox="0 0 1366 400" fill="none" xmlns="http://www.w3.org/2000/svg">
<g clip-path="url(#clip0)">
<path fill-rule="evenodd" clip-rule="evenodd" d="M1101.48 4.52761C1101.93 4.52761 1102.03 4.27708 1101.71 3.97071C1100.78 3.08431 1104.67 3.97826 1106.54 5.08048C1107.57 5.68768 1109.36 6.03681 1111.44 6.03681C1113.24 6.03681 1114.99 5.87382 1115.33 5.6746C1115.67 5.47539 1117.45 5.25303 1119.29 5.18059C1121.92 5.07645 1123.1 5.32296 1124.83 6.34268C1126.04 7.05401 1127.57 7.51281 1128.24 7.36189C1128.91 7.21047 1129.68 7.30353 1129.96 7.56815C1130.24 7.83276 1131.45 8.04908 1132.65 8.04908C1134.31 8.04908 1134.63 7.89564 1133.96 7.42025C1133.27 6.93227 1133.97 6.79141 1137.07 6.79141C1139.88 6.79141 1141.78 6.46744 1143.42 5.70831C1145.72 4.63979 1145.8 4.63778 1148.94 5.54431C1150.7 6.0504 1152.75 6.89907 1153.51 7.43031C1155.5 8.83386 1164.37 11.7104 1165.75 11.399C1166.39 11.2531 1168.28 11.3794 1169.94 11.6797C1172.41 12.1264 1173.35 12.0746 1175.11 11.395C1177.74 10.3788 1178.17 10.3632 1178.17 11.2853C1178.17 12.0671 1179.34 12.3498 1184.58 12.8463C1189.14 13.278 1194.78 14.4295 1199.77 15.9477C1202.03 16.6329 1204.48 17.055 1205.23 16.886C1205.98 16.7169 1207.5 16.9297 1208.61 17.3594C1210.01 17.8981 1211.1 17.9952 1212.12 17.6728C1212.94 17.4162 1216.04 17.2195 1219.02 17.2366C1223.95 17.2648 1224.59 17.3956 1226.22 18.695C1227.46 19.6845 1228.76 20.1227 1230.46 20.1227C1231.8 20.1227 1234.03 20.4683 1235.42 20.8904C1237.11 21.404 1237.94 21.4689 1237.94 21.0856C1237.94 20.7017 1238.94 20.6253 1241 20.8527C1243.44 21.1218 1245.18 20.8743 1249.53 19.6393C1253.17 18.6039 1255.67 18.1884 1257.04 18.3911C1258.21 18.5647 1260.2 18.3594 1261.66 17.9132C1264.05 17.1848 1264.38 17.1994 1266.37 18.124C1268.92 19.3052 1271.11 19.3711 1275.11 18.3866C1277.74 17.7387 1278.49 17.7492 1281.84 18.4807C1285.1 19.193 1286.08 19.2137 1289.05 18.6351C1291.41 18.1773 1294.3 18.0752 1298.23 18.3127C1302.49 18.5697 1305.37 19.1211 1309.43 20.4587C1314.18 22.0258 1315.35 22.2134 1318.46 21.9101C1320.42 21.7184 1327.6 21.4951 1334.41 21.4136C1345.22 21.2848 1347.01 21.3779 1348.5 22.1475C1349.58 22.707 1352.08 23.1044 1355.33 23.2352C1358.15 23.3489 1361.7 23.8092 1363.23 24.2589L1366 25.0764V364.966H1360.66C1355.82 364.966 1355.3 364.866 1355.06 363.874C1354.85 362.999 1354.08 362.73 1351.22 362.521C1349.25 362.378 1346.49 362.277 1345.08 362.296C1343.67 362.316 1341.41 362.165 1340.05 361.962C1338.28 361.697 1337.75 361.755 1338.18 362.161C1338.51 362.474 1338.37 362.73 1337.88 362.73C1337.38 362.73 1336.97 362.506 1336.97 362.233C1336.97 361.96 1335.82 361.736 1334.41 361.736C1333 361.736 1331.85 361.978 1331.85 362.272C1331.85 362.622 1330.88 362.681 1329.08 362.441C1327.55 362.239 1325.53 362.016 1324.59 361.946C1323.65 361.876 1322.69 361.774 1322.46 361.72C1322.22 361.666 1321.31 361.667 1320.42 361.722C1319.53 361.777 1318.51 361.537 1318.14 361.19C1317.6 360.683 1317.19 360.693 1316.06 361.239C1315.12 361.689 1314.45 361.746 1314.07 361.406C1313.69 361.067 1311.35 361.027 1307.2 361.289C1303.74 361.509 1300.7 361.812 1300.44 361.962C1300.18 362.113 1299.14 361.919 1298.12 361.529C1296.84 361.042 1294.36 360.867 1290.15 360.966C1284.99 361.088 1284.04 360.985 1284.04 360.305C1284.04 359.622 1282.87 359.5 1276.32 359.5C1271.85 359.5 1268.35 359.721 1268 360.026C1266.83 361.035 1263.15 362.233 1261.23 362.233C1260.16 362.233 1259.28 362.46 1259.28 362.737C1259.28 363.057 1257.5 363.12 1254.37 362.907C1251.67 362.724 1248.89 362.603 1248.18 362.638C1247.48 362.673 1245.01 362.807 1242.69 362.933C1240.37 363.06 1237.83 362.962 1237.03 362.713C1235.21 362.146 1228.03 363.323 1228.33 364.141C1228.45 364.458 1227.93 364.718 1227.17 364.718C1226.32 364.718 1225.98 364.443 1226.28 363.988C1227.06 362.814 1225.5 362.666 1223.24 363.701C1221.71 364.401 1220.1 364.617 1217.24 364.506C1212.91 364.338 1204.4 365.389 1206.39 365.846C1207.07 366.002 1206.41 366.148 1204.91 366.169C1201.34 366.221 1196.01 368.176 1196.44 369.28C1196.62 369.739 1195.94 370.557 1194.94 371.097C1193.52 371.863 1192.15 372.048 1188.74 371.934C1186.33 371.854 1183.84 372.001 1183.19 372.261C1182.36 372.595 1182.58 372.642 1183.94 372.419C1185.07 372.234 1185.86 372.323 1185.86 372.635C1185.86 372.927 1184.83 373.166 1183.58 373.166C1182.32 373.166 1180.59 373.538 1179.73 373.994C1177.34 375.248 1173.39 375.032 1170.64 373.497C1168.76 372.45 1167.43 372.172 1164.29 372.172C1161.5 372.172 1159.42 372.529 1157.27 373.377C1154.66 374.41 1153.56 374.542 1149.55 374.301C1146.78 374.135 1144.88 374.216 1144.88 374.501C1144.88 374.765 1145.96 374.889 1147.28 374.777C1148.84 374.642 1150.1 374.871 1150.9 375.438C1152.05 376.244 1151.86 376.285 1148.19 376.045C1144.66 375.814 1144.29 375.883 1144.66 376.712C1145.06 377.593 1143.63 378.064 1143.03 377.25C1142.87 377.036 1141.46 376.505 1139.89 376.069C1137.59 375.432 1136.51 375.386 1134.38 375.836C1131.05 376.54 1128.33 378.121 1123.19 382.345C1122.19 383.172 1121.68 383.237 1119.99 382.759C1116.54 381.785 1114.14 381.64 1114.14 382.406C1114.14 382.79 1113.74 383.104 1113.24 383.104C1112.74 383.104 1112.57 383.328 1112.86 383.601C1113.15 383.875 1112.62 384.098 1111.68 384.098C1110.74 384.098 1109.71 383.852 1109.39 383.551C1108.59 382.791 1103.06 381.431 1100.48 381.355C1099.31 381.321 1098.11 381.5 1097.82 381.753C1097.5 382.029 1096.59 381.998 1095.56 381.675C1094.23 381.261 1093.59 381.306 1092.79 381.872C1092.21 382.276 1091.38 382.607 1090.94 382.607C1089.97 382.607 1082.62 384.44 1080.85 385.123C1080.14 385.395 1078.89 385.749 1078.07 385.91C1077.25 386.07 1076.58 386.535 1076.58 386.943C1076.58 387.397 1076.08 387.572 1075.3 387.397C1074.59 387.24 1074.02 387.32 1074.02 387.576C1074.02 387.833 1073.15 388.329 1072.1 388.679C1071.04 389.029 1070.18 389.651 1070.18 390.061C1070.18 390.601 1069.29 390.791 1066.97 390.75C1064.6 390.708 1063.77 390.894 1063.77 391.471C1063.77 392.075 1063.54 392.115 1062.75 391.651C1062.18 391.324 1060.55 391.052 1059.12 391.047C1057.44 391.042 1055.46 390.496 1053.53 389.502C1050.61 388.001 1050.53 387.991 1050.25 389.067C1050.01 390.01 1049.59 390.125 1047.37 389.866C1045.93 389.699 1044.03 389.073 1043.14 388.475C1041.57 387.419 1035.63 385.902 1034.85 386.357C1034.63 386.481 1035 386.584 1035.67 386.586C1036.34 386.588 1035.77 387.016 1034.41 387.538C1031.41 388.688 1028.54 388.58 1025.98 387.221C1024.93 386.662 1022.54 385.908 1020.66 385.546C1018.78 385.183 1016.67 384.618 1015.96 384.29C1015.26 383.963 1011.67 383.403 1007.99 383.047C1002.7 382.534 1000.95 382.145 999.662 381.193C998.766 380.531 998.034 379.674 998.034 379.29C998.034 378.827 997.245 379.017 995.694 379.854C993.274 381.161 992.057 381.436 992.057 380.678C992.057 379.947 987.925 379.726 986.311 380.37C984.551 381.072 966.495 382.364 963.919 381.972C962.589 381.77 962.045 381.993 961.653 382.902C961.363 383.576 960.507 384.098 959.694 384.098C958.899 384.098 957.845 384.333 957.352 384.62C956.724 384.986 956.025 384.762 955.027 383.875C953.861 382.839 952.923 382.607 949.909 382.607C945.96 382.607 942.135 381.721 937.565 379.749C935.523 378.867 934.059 378.601 932.354 378.799C931.049 378.951 929.543 378.819 929.005 378.506C928.27 378.078 927.774 378.083 927.014 378.526C926.233 378.98 925.65 378.931 924.468 378.308C923.22 377.65 922.695 377.617 921.639 378.127C920.926 378.472 920.343 378.602 920.343 378.416C920.343 378.23 919.541 378.405 918.562 378.805C916.987 379.446 916.48 379.435 914.187 378.708C912.21 378.082 911.5 378.034 911.201 378.508C910.664 379.358 908.4 379.288 906.653 378.367C905.34 377.676 905.076 377.722 903.773 378.88C902.984 379.581 901.966 380.02 901.509 379.856C901.052 379.691 900.899 379.349 901.17 379.095C901.441 378.839 900.151 378.632 898.287 378.632C896.157 378.632 894.741 378.893 894.447 379.339C893.791 380.333 890.461 380.542 887.687 379.763C886.25 379.359 885.339 379.301 885.339 379.613C885.339 379.893 884.666 380.141 883.845 380.162C882.953 380.185 882.78 380.302 883.418 380.452C884.685 380.749 884.86 382.11 883.631 382.11C883.162 382.11 882.778 381.887 882.778 381.613C882.778 381.34 882.49 381.143 882.137 381.175C880.397 381.335 879.362 381.048 879.362 380.404C879.362 379.492 876.437 378.949 873.68 379.352C872.322 379.551 871.733 379.48 872.073 379.159C872.926 378.356 870.927 376.644 869.138 376.644C868.243 376.644 867.273 376.868 866.983 377.141C866.693 377.414 867.224 377.638 868.163 377.638C870.272 377.638 871.43 378.604 869.956 379.134C869.358 379.349 869.105 379.884 869.393 380.321C869.789 380.921 869.387 381.117 867.754 381.117C866.564 381.117 864.798 380.87 863.83 380.568C862.515 380.158 861.909 380.172 861.432 380.622C861.016 381.013 859.862 381.104 858.126 380.882C855.913 380.599 855.547 380.674 855.977 381.326C856.293 381.806 856.044 382.104 855.335 382.094C853.766 382.073 851.189 380.891 851.189 380.192C851.189 379.881 850.612 379.626 849.908 379.626C849.204 379.626 848.628 379.402 848.628 379.129C848.628 378.52 848.845 378.516 851.405 379.082C853.017 379.439 853.652 379.334 854.464 378.578C855.212 377.88 856.057 377.707 857.607 377.933C858.908 378.123 859.726 378.03 859.726 377.692C859.726 377.389 859.246 377.197 858.659 377.265C858.072 377.334 857.688 377.11 857.805 376.768C857.922 376.427 857.443 376.147 856.738 376.147C856.034 376.147 855.458 375.924 855.458 375.65C855.458 375.377 855.085 375.153 854.63 375.153C854.176 375.153 854.049 375.545 854.348 376.023C854.838 376.804 854.704 376.796 853.041 375.946C851.199 375.005 851.189 375.006 851.189 376.279C851.189 377.315 850.668 377.626 848.45 377.909C846.684 378.135 845.597 378.06 845.39 377.7C845.214 377.393 844.526 377.141 843.861 377.141C843.196 377.141 842.651 376.806 842.651 376.396C842.651 375.986 842.244 375.65 841.747 375.65C841.25 375.65 841.111 375.903 841.439 376.212C841.793 376.545 841.579 376.684 840.91 376.555C840.292 376.435 839.374 375.903 838.87 375.372C838.367 374.842 837.869 374.32 837.763 374.213C837.657 374.106 837.046 374.271 836.404 374.581C835.762 374.891 835.003 375.008 834.717 374.842C834.431 374.675 833.945 375.125 833.636 375.84C833.327 376.556 832.572 377.141 831.958 377.141C831.343 377.141 830.646 377.421 830.408 377.762C830.082 378.23 829.751 378.199 829.069 377.638C828.571 377.228 828.158 377.103 828.15 377.36C828.143 377.618 827.559 377.394 826.852 376.863C825.646 375.959 825.618 375.983 826.392 377.248C826.847 377.99 826.89 378.715 826.488 378.859C825.738 379.129 824.32 376.847 824.601 375.823C824.826 375.007 818.904 375.192 818.359 376.018C818.027 376.52 817.501 376.557 816.25 376.167C815.141 375.822 814.403 375.815 814.052 376.146C813.262 376.891 809.988 376.747 807.846 375.874C806.109 375.166 805.81 375.185 804.098 376.114C802.767 376.835 801.934 376.977 801.176 376.611C800.443 376.257 799.935 376.269 799.53 376.651C799.207 376.954 798.117 377.412 797.106 377.667C794.564 378.311 791.968 379.284 791.259 379.86C790.933 380.125 790.391 380.183 790.057 379.988C789.723 379.794 788.933 379.884 788.303 380.188C787.455 380.598 786.819 380.578 785.85 380.11C784.769 379.587 784.335 379.642 783.341 380.422C782.324 381.219 781.871 381.27 780.405 380.749C778.933 380.226 778.541 380.273 777.819 381.059C777.21 381.721 775.562 382.084 772.032 382.333C769.316 382.524 765.734 382.721 764.071 382.768C762.409 382.817 760.018 383.248 758.76 383.727C755.559 384.947 748.355 385.791 746.45 385.171C745.44 384.842 744.38 384.854 743.247 385.207C742.315 385.497 737.567 385.796 732.696 385.871C725.606 385.979 723.502 386.184 722.15 386.896C720.252 387.896 720.177 387.86 717.1 384.471C716.169 383.446 715.201 382.607 714.948 382.607C714.695 382.607 714.704 382.811 714.968 383.06C715.232 383.308 715.209 383.873 714.918 384.314C714.508 384.936 714.123 384.989 713.208 384.547C712.559 384.233 712.028 384.192 712.028 384.454C712.028 384.717 711.123 385.172 710.017 385.466C708.325 385.914 707.641 385.802 705.697 384.752C703.618 383.63 703.136 383.566 700.878 384.111C699.497 384.444 698.367 384.912 698.367 385.152C698.367 385.393 697.676 385.589 696.831 385.589C695.986 385.589 694.874 385.833 694.361 386.132C693.686 386.525 692.871 386.498 691.415 386.036C690.309 385.684 688.294 385.46 686.939 385.537C685.584 385.615 684.182 385.402 683.824 385.064C683.465 384.726 682.533 384.593 681.752 384.767C680.97 384.942 680.569 385.31 680.862 385.585C681.154 385.861 680.942 386.086 680.389 386.086C679.793 386.086 679.575 385.666 679.85 385.053C680.216 384.239 680.011 384.088 678.882 384.342C678.095 384.52 676.449 384.782 675.226 384.926C673.652 385.111 672.841 384.946 672.457 384.363C672.129 383.866 671.497 383.688 670.865 383.915C670.288 384.123 668.724 384.244 667.39 384.185C664.381 384.052 662.73 384.557 664.315 385.127C666.191 385.802 664.713 386.099 661.854 385.622C660.382 385.376 658.332 384.717 657.299 384.157C656.267 383.597 655.093 383.257 654.69 383.401C654.288 383.546 653.359 383.315 652.624 382.888C651.89 382.46 650.633 382.11 649.833 382.11C649.032 382.11 647.51 381.757 646.452 381.326C643.617 380.17 639.351 379.556 638.158 380.133C637.604 380.4 635.321 380.519 633.086 380.397C630.85 380.275 629.224 380.295 629.474 380.44C629.723 380.585 629.542 381.349 629.069 382.138C628.349 383.341 627.813 383.545 625.735 383.404C624.373 383.311 622.738 382.984 622.102 382.677C621.466 382.37 620.704 382.26 620.406 382.433C620.11 382.605 618.352 382.797 616.499 382.857C613.836 382.945 613.044 382.774 612.714 382.042C612.16 380.809 610.718 380.87 609.516 382.177C608.732 383.03 608.387 383.103 607.762 382.55C607.131 381.991 606.787 382.049 605.934 382.856C605.355 383.402 604.882 384.185 604.882 384.595C604.882 385.005 604.017 385.412 602.961 385.499C601.905 385.586 601.04 385.978 601.04 386.369C601.04 386.76 600.446 387.08 599.718 387.08C598.992 387.08 597.461 387.668 596.318 388.386C594.679 389.415 593.714 389.631 591.763 389.404C588.78 389.057 587.875 389.454 589.309 390.481C590.189 391.113 590.133 391.19 588.978 390.938C588.213 390.772 587.253 390.831 586.844 391.069C586.139 391.479 583.815 391.01 577.442 389.175C574.876 388.436 574.672 388.455 572.746 389.605C570.456 390.971 565.997 391.247 565.356 390.061C565.135 389.651 564.571 389.035 564.105 388.691C563.453 388.212 562.82 388.362 561.373 389.343C559.883 390.352 559.013 390.549 557.214 390.286C554.654 389.912 554.231 390.396 556.333 391.291C557.577 391.82 557.447 392.003 555.142 392.958C552.906 393.885 552.486 393.925 552.045 393.257C551.764 392.831 551.173 392.613 550.732 392.772C549.958 393.05 548.337 392.566 542.08 390.191C540.468 389.579 538.516 389.195 537.742 389.338C536.968 389.481 535.792 389.282 535.13 388.897C533.497 387.946 528.783 387.378 528.074 388.046C527.693 388.405 527.004 388.414 525.914 388.075C523.298 387.26 522.416 387.497 522.676 388.943C522.883 390.096 522.568 390.334 520.661 390.462C518.358 390.617 517.408 391.617 517.384 393.913C517.371 395.192 516.339 395.357 514.853 394.315C514.292 393.921 513.324 393.712 512.703 393.851C512.082 393.99 511.005 393.631 510.31 393.054C509.282 392.199 508.956 392.142 508.557 392.748C507.674 394.087 501.634 392.681 500.859 390.956C500.369 389.866 499.139 389.812 497.431 390.807C496.727 391.217 495.374 391.552 494.425 391.552C493.475 391.552 492.392 391.848 492.016 392.21C491.64 392.572 490.12 393.381 488.638 394.008C486.844 394.768 484.795 395.14 482.511 395.122C478.693 395.091 474.334 393.974 473.125 392.718C472.651 392.224 471.782 392.019 470.954 392.204C469.803 392.461 469.737 392.723 470.56 393.774C471.103 394.467 471.274 395.194 470.94 395.388C469.757 396.077 467.428 394.648 467.425 393.231C467.423 392.445 467.112 391.521 466.734 391.179C465.925 390.447 464.093 390.326 464.867 391.055C465.902 392.03 463.85 391.531 461.93 390.342C460.503 389.457 459.104 389.139 456.733 389.157C454.95 389.172 452.304 388.839 450.854 388.418C449.405 387.997 448.219 387.846 448.219 388.083C448.219 388.319 448.636 388.662 449.147 388.846C449.766 389.068 449.79 389.345 449.221 389.677C448.145 390.303 446.511 389.747 446.511 388.754C446.511 388.096 446.345 388.099 445.17 388.784C444.431 389.213 443.375 389.568 442.822 389.572C442.223 389.576 442.324 389.767 443.071 390.042C445.092 390.786 443.312 391.272 440.905 390.634C438.865 390.093 438.748 390.127 439.285 391.112C440.014 392.448 438.561 393.01 435.18 392.7C433.161 392.515 432.719 392.622 433.104 393.206C433.404 393.661 432.56 394.444 430.923 395.234C429.454 395.942 427.847 396.516 427.351 396.51C425.373 396.487 419.19 394.543 419.166 393.937C419.149 393.545 418.797 393.633 418.269 394.161C416.567 395.862 408.092 394.729 408.092 392.8C408.092 392.424 407.324 391.974 406.385 391.801C405.446 391.627 404.672 391.109 404.665 390.649C404.654 389.931 404.538 389.918 403.844 390.556C403.148 391.196 402.874 391.168 401.852 390.356C401.201 389.837 400.265 389.557 399.774 389.734C399.283 389.911 398.662 389.725 398.396 389.321C398.097 388.867 397.357 388.711 396.459 388.912C395.454 389.137 395.203 389.051 395.645 388.635C396.107 388.2 395.698 388.119 394.17 388.342C393.008 388.512 391.833 388.439 391.558 388.18C391.283 387.922 390.089 387.818 388.904 387.95C387.318 388.126 386.749 387.977 386.749 387.386C386.749 386.944 386.119 386.583 385.349 386.583C384.579 386.583 383.402 386.191 382.734 385.713C381.893 385.112 381.387 385.026 381.091 385.437C380.855 385.763 380.207 385.931 379.65 385.809C379.093 385.688 378.193 386.148 377.65 386.832C376.83 387.865 376.902 388.157 378.077 388.557C379.253 388.956 379.12 389.04 377.296 389.053C373.662 389.077 367.605 390.499 364.818 391.98C363.376 392.747 361.67 393.409 361.026 393.452C360.382 393.495 358.895 393.626 357.721 393.742C356.547 393.859 355.298 393.973 354.947 393.996C354.594 394.018 354.402 394.204 354.52 394.409C354.637 394.614 353.914 395.259 352.911 395.843C351.648 396.578 350.405 396.827 348.856 396.654C347.627 396.517 346.622 396.192 346.622 395.931C346.622 395.67 346.019 395.808 345.281 396.238C343.895 397.044 341.501 397.303 341.499 396.646C341.498 396.441 339.867 396.273 337.872 396.273C335.52 396.273 333.707 395.959 332.707 395.378C331.808 394.855 330.523 394.602 329.618 394.769C328.551 394.966 327.43 394.587 326.033 393.557C323.82 391.927 321.01 391.548 321.01 392.879C321.01 393.336 321.633 394.111 322.394 394.6C323.155 395.09 323.552 395.834 323.275 396.255C322.709 397.113 321.01 397.298 321.01 396.502C321.01 396.217 320.169 395.322 319.142 394.514C317.129 392.929 313.839 392.542 313.015 393.793C312.742 394.205 312.221 394.514 311.856 394.48C309.402 394.245 307.35 394.636 307.35 395.337C307.35 395.896 306.83 396.061 305.643 395.88C304.703 395.738 303.935 395.851 303.935 396.132C303.935 396.466 303.565 396.477 302.868 396.163C302.28 395.898 301.074 395.53 300.186 395.345C298.755 395.046 298.707 395.104 299.759 395.849C300.843 396.615 300.704 396.661 298.172 396.369C296.563 396.184 295.398 396.253 295.398 396.534C295.398 396.8 295.8 397.018 296.291 397.018C297.522 397.018 294.364 399.468 293.107 399.488C292.552 399.496 291.854 399.056 291.556 398.509C290.908 397.321 289.223 397.242 286.518 398.274C285.002 398.852 283.988 398.913 282.254 398.529C281.003 398.252 277.815 398.078 275.168 398.143C271.925 398.222 270.239 398.058 269.999 397.64C269.803 397.298 268.895 397.018 267.979 397.018C267.065 397.018 266.095 396.683 265.825 396.273C265.555 395.863 264.968 395.528 264.521 395.528C264.073 395.528 263.971 395.775 264.292 396.078C265.222 396.953 261.326 396.07 259.456 394.981C258.425 394.382 256.637 394.037 254.56 394.037C252.76 394.037 251.01 394.198 250.673 394.395C250.335 394.591 248.552 394.811 246.712 394.883C244.076 394.985 242.9 394.742 241.17 393.735C239.962 393.032 238.427 392.579 237.759 392.728C237.091 392.877 236.316 392.785 236.039 392.524C235.761 392.263 234.549 392.049 233.346 392.049C231.692 392.049 231.373 392.201 232.043 392.67C232.73 393.152 232.031 393.291 228.925 393.291C226.119 393.291 224.222 393.611 222.584 394.361C220.279 395.417 220.203 395.419 217.056 394.523C215.3 394.023 213.247 393.185 212.492 392.66C210.497 391.274 201.627 388.432 200.251 388.74C199.606 388.884 197.719 388.759 196.059 388.463C193.59 388.021 192.65 388.073 190.89 388.744C188.258 389.748 187.825 389.763 187.825 388.852C187.825 388.08 186.665 387.801 181.422 387.31C176.859 386.884 171.219 385.746 166.227 384.247C163.974 383.57 161.518 383.153 160.771 383.32C160.023 383.487 158.5 383.277 157.388 382.852C155.993 382.32 154.904 382.224 153.88 382.543C153.063 382.796 149.959 382.99 146.982 382.974C142.055 382.946 141.408 382.817 139.778 381.533C138.536 380.556 137.237 380.123 135.543 380.123C134.199 380.123 131.967 379.781 130.581 379.364C128.894 378.857 128.063 378.793 128.063 379.172C128.063 379.551 127.055 379.626 124.999 379.402C122.561 379.136 120.82 379.38 116.475 380.6C112.832 381.623 110.33 382.033 108.958 381.833C107.786 381.662 105.799 381.864 104.336 382.305C101.945 383.025 101.621 383.01 99.6267 382.097C97.0774 380.93 94.8918 380.865 90.8936 381.838C88.2615 382.478 87.5076 382.467 84.1584 381.745C80.8962 381.041 79.9247 381.021 76.9485 381.592C74.5939 382.044 71.7014 382.145 67.7733 381.911C63.5105 381.657 60.6333 381.112 56.5746 379.791C51.8192 378.243 50.6504 378.057 47.5402 378.357C45.5757 378.546 38.3974 378.767 31.5888 378.848C20.7829 378.975 18.9925 378.883 17.5019 378.123C16.4185 377.57 13.923 377.177 10.6719 377.048C7.85452 376.936 4.30035 376.481 2.7747 376.037L1.52588e-05 375.229V387.615L0 400V35.4663H5.33594C10.1818 35.4663 10.6966 35.5679 10.9391 36.572C11.1525 37.4574 11.9183 37.7306 14.781 37.9413C16.7472 38.0862 19.5082 38.1884 20.9169 38.1692C22.3256 38.1496 24.5914 38.302 25.9531 38.5078C27.7213 38.7754 28.2549 38.7176 27.8237 38.3061C27.4907 37.9891 27.6265 37.7301 28.1234 37.7301C28.6203 37.7301 29.0275 37.9564 29.0275 38.2331C29.0275 38.5098 30.1801 38.7362 31.5887 38.7362C32.9974 38.7362 34.15 38.4917 34.15 38.1934C34.15 37.8397 35.1182 37.7799 36.9247 38.0223C38.4512 38.2271 40.4678 38.4525 41.4069 38.5234C42.346 38.5943 43.3065 38.6975 43.5412 38.7523C43.776 38.8071 44.693 38.8066 45.58 38.7508C46.4662 38.6949 47.4933 38.9374 47.8621 39.2896C48.3999 39.8022 48.814 39.7921 49.9444 39.2393C50.8758 38.7835 51.5503 38.7266 51.9302 39.0707C52.3093 39.4138 54.6537 39.4541 58.7961 39.1885C62.2563 38.9666 65.2991 38.6597 65.5586 38.5073C65.8173 38.3544 66.864 38.5516 67.8834 38.9455C69.1606 39.4385 71.6424 39.6161 75.8489 39.516C81.014 39.3927 81.96 39.4963 81.9609 40.185C81.9609 40.8762 83.1339 41 89.6753 41C94.1464 41 97.646 40.7761 97.9986 40.4678C99.169 39.4455 102.845 38.2331 104.775 38.2331C105.844 38.2331 106.719 38.0037 106.719 37.723C106.719 37.3985 108.503 37.3357 111.628 37.5505C114.327 37.7361 117.113 37.8588 117.817 37.8231C118.522 37.7874 120.993 37.6526 123.31 37.5243C125.626 37.3955 128.173 37.4956 128.97 37.7472C130.793 38.3217 137.969 37.1294 137.667 36.3019C137.549 35.9809 138.071 35.7178 138.826 35.7178C139.681 35.7178 140.017 35.996 139.717 36.4563C138.942 37.6455 140.499 37.7945 142.759 36.7471C144.288 36.0388 145.902 35.8199 148.764 35.9326C153.089 36.1026 161.604 35.0381 159.611 34.5758C158.929 34.4174 159.592 34.27 161.086 34.2483C164.664 34.196 169.991 32.2164 169.56 31.0991C169.381 30.6343 170.055 29.8062 171.059 29.2594C172.481 28.4847 173.852 28.2975 177.261 28.4122C179.667 28.4937 182.165 28.3448 182.81 28.0812C183.639 27.7432 183.421 27.6959 182.062 27.9213C180.933 28.1084 180.141 28.0183 180.141 27.7024C180.141 27.4071 181.167 27.1656 182.422 27.1656C183.676 27.1656 185.41 26.7883 186.275 26.327C188.656 25.0573 192.608 25.2761 195.36 26.8301C197.238 27.8906 198.569 28.1718 201.707 28.1718C204.502 28.1718 206.581 27.8106 208.728 26.9518C211.345 25.9055 212.444 25.7727 216.45 26.0161C219.22 26.1847 221.121 26.1022 221.121 25.8139C221.121 25.5463 220.043 25.421 218.725 25.5347C217.156 25.6705 215.903 25.4396 215.096 24.8656C213.949 24.0496 214.135 24.0074 217.809 24.2509C221.344 24.4848 221.71 24.4149 221.338 23.5753C220.942 22.6833 222.374 22.2064 222.971 23.0309C223.128 23.2473 224.542 23.785 226.115 24.2262C228.414 24.8712 229.492 24.9174 231.622 24.4622C234.953 23.7498 237.67 22.1496 242.808 17.8725C243.814 17.0359 244.316 16.97 246.007 17.4534C249.462 18.4399 251.856 18.5868 251.856 17.8116C251.856 17.4227 252.263 17.1043 252.76 17.1043C253.257 17.1043 253.427 16.8779 253.137 16.6012C252.847 16.3245 253.378 16.0982 254.317 16.0982C255.256 16.0982 256.285 16.3477 256.606 16.6525C257.412 17.4212 262.936 18.7986 265.516 18.8751C266.69 18.9098 267.89 18.7287 268.182 18.4721C268.501 18.1929 269.405 18.2246 270.441 18.5511C271.771 18.9707 272.408 18.9249 273.215 18.3514C273.792 17.9424 274.621 17.6074 275.059 17.6074C276.031 17.6074 283.382 15.7526 285.152 15.0603C285.857 14.7852 287.106 14.427 287.927 14.264C288.749 14.1015 289.421 13.6311 289.421 13.2186C289.421 12.7588 289.916 12.5812 290.702 12.7588C291.406 12.9178 291.982 12.8363 291.982 12.5772C291.982 12.3176 292.846 11.8155 293.903 11.4609C294.96 11.1062 295.824 10.4764 295.824 10.0613C295.824 9.51452 296.706 9.32234 299.026 9.3641C301.403 9.40686 302.228 9.21871 302.228 8.63465C302.228 8.02292 302.455 7.98217 303.252 8.45154C303.815 8.78356 305.448 9.05874 306.88 9.06326C308.565 9.06829 310.54 9.62117 312.473 10.6278C315.39 12.1471 315.467 12.1576 315.746 11.068C315.989 10.1132 316.406 9.99645 318.635 10.2596C320.067 10.4281 321.969 11.0614 322.859 11.6671C324.434 12.7367 330.37 14.272 331.151 13.8117C331.365 13.686 330.995 13.5813 330.33 13.5793C329.664 13.5778 330.233 13.1441 331.594 12.6154C334.591 11.4513 337.457 11.5605 340.015 12.9369C341.066 13.5028 343.464 14.266 345.342 14.6327C347.22 15 349.333 15.5714 350.038 15.9035C350.742 16.235 354.331 16.802 358.014 17.1627C363.301 17.6813 365.053 18.0757 366.338 19.0391C367.234 19.7097 367.966 20.5765 367.966 20.9653C367.966 21.4342 368.755 21.2415 370.306 20.3944C372.726 19.0718 373.943 18.7931 373.943 19.5608C373.943 20.3008 378.075 20.5246 379.689 19.8722C381.449 19.1613 399.505 17.8539 402.081 18.2508C403.411 18.4555 403.955 18.2292 404.347 17.309C404.637 16.6269 405.493 16.0982 406.306 16.0982C407.101 16.0982 408.155 15.8602 408.648 15.5694C409.276 15.1997 409.975 15.4266 410.973 16.324C412.139 17.3724 413.077 17.6074 416.091 17.6074C420.04 17.6074 423.865 18.5043 428.435 20.501C430.477 21.3934 431.941 21.6636 433.646 21.4629C434.951 21.3089 436.457 21.4427 436.995 21.7597C437.73 22.1928 438.226 22.1878 438.986 21.7396C439.767 21.2793 440.35 21.3296 441.532 21.9599C442.78 22.6255 443.305 22.6597 444.361 22.143C445.074 21.7939 445.658 21.6626 445.658 21.8502C445.658 22.0384 446.459 21.8613 447.438 21.4568C449.013 20.8074 449.52 20.8184 451.813 21.5544C453.79 22.1888 454.5 22.2371 454.799 21.7577C455.336 20.8969 457.6 20.9674 459.347 21.8995C460.66 22.5998 460.924 22.5525 462.227 21.3804C463.016 20.671 464.034 20.2268 464.491 20.3928C464.948 20.5594 465.101 20.906 464.83 21.1635C464.559 21.4226 465.849 21.6319 467.713 21.6319C469.843 21.6319 471.259 21.3678 471.553 20.9165C472.209 19.9094 475.539 19.6981 478.313 20.4869C479.75 20.8959 480.661 20.9548 480.661 20.6388C480.661 20.3551 481.334 20.1046 482.155 20.083C483.047 20.0593 483.22 19.9411 482.582 19.7897C481.315 19.4883 481.14 18.1104 482.369 18.1104C482.838 18.1104 483.223 18.3368 483.223 18.6135C483.223 18.8902 483.51 19.0899 483.863 19.0572C485.603 18.8952 486.637 19.186 486.637 19.8375C486.637 20.7616 489.563 21.3104 492.32 20.9025C493.678 20.7017 494.267 20.7732 493.927 21.0981C493.074 21.9111 495.073 23.6442 496.862 23.6442C497.757 23.6442 498.727 23.4178 499.017 23.1411C499.307 22.8644 498.776 22.638 497.837 22.638C495.728 22.638 494.57 21.6601 496.044 21.1233C496.642 20.9055 496.895 20.3647 496.607 19.922C496.211 19.3143 496.613 19.1166 498.246 19.1166C499.436 19.1166 501.202 19.3661 502.17 19.6714C503.485 20.0865 504.091 20.0729 504.568 19.6176C504.984 19.2217 506.138 19.1296 507.874 19.354C510.087 19.6408 510.453 19.5643 510.023 18.9048C509.707 18.4188 509.956 18.1165 510.665 18.1265C512.234 18.1482 514.811 19.345 514.811 20.0523C514.811 20.3677 515.388 20.6258 516.092 20.6258C516.796 20.6258 517.372 20.8521 517.372 21.1288C517.372 21.7456 517.155 21.7496 514.595 21.1761C512.983 20.8149 512.348 20.9211 511.536 21.6867C510.788 22.393 509.943 22.5686 508.393 22.3392C507.092 22.147 506.274 22.2411 506.274 22.5837C506.274 22.8901 506.754 23.0843 507.341 23.0153C507.928 22.9459 508.312 23.1723 508.195 23.5184C508.078 23.864 508.558 24.1472 509.262 24.1472C509.966 24.1472 510.542 24.3736 510.542 24.6503C510.542 24.927 510.915 25.1534 511.37 25.1534C511.824 25.1534 511.951 24.757 511.652 24.273C511.162 23.4827 511.296 23.4907 512.959 24.351C514.801 25.3038 514.811 25.3023 514.811 24.0134C514.811 22.9645 515.332 22.6506 517.55 22.3634C519.316 22.135 520.403 22.2104 520.61 22.5752C520.786 22.8866 521.474 23.1411 522.139 23.1411C522.804 23.1411 523.349 23.4807 523.349 23.8957C523.349 24.3107 523.756 24.6503 524.253 24.6503C524.75 24.6503 524.889 24.3947 524.561 24.0818C524.207 23.7443 524.421 23.6034 525.09 23.7347C525.708 23.856 526.626 24.3947 527.13 24.932C527.633 25.4688 528.131 25.997 528.237 26.1057C528.343 26.2138 528.954 26.0463 529.596 25.7324C530.238 25.419 530.997 25.3003 531.283 25.4688C531.569 25.6373 532.055 25.1826 532.364 24.4581C532.673 23.7337 533.428 23.1411 534.042 23.1411C534.657 23.1411 535.354 22.8579 535.592 22.5123C535.918 22.0389 536.249 22.0701 536.931 22.638C537.429 23.0531 537.842 23.1793 537.85 22.9193C537.857 22.6587 538.441 22.885 539.148 23.4223C540.354 24.3379 540.382 24.3133 539.608 23.0329C539.153 22.2819 539.11 21.5479 539.512 21.4015C540.262 21.1283 541.68 23.4384 541.399 24.4752C541.174 25.3018 547.096 25.1146 547.641 24.278C547.973 23.7694 548.499 23.7322 549.75 24.1271C550.859 24.4762 551.597 24.4838 551.948 24.1487C552.738 23.3947 556.012 23.5395 558.154 24.4234C559.891 25.1408 560.19 25.1217 561.902 24.1809C563.233 23.4505 564.066 23.3071 564.824 23.6779C565.557 24.0361 566.065 24.024 566.47 23.6376C566.793 23.3303 567.883 22.8669 568.894 22.6084C571.436 21.9569 574.032 20.9714 574.741 20.3888C575.067 20.1202 575.609 20.0613 575.943 20.2585C576.277 20.4557 577.067 20.3647 577.697 20.0568C578.545 19.6418 579.181 19.6619 580.15 20.1358C581.231 20.6645 581.665 20.6097 582.659 19.8199C583.676 19.0124 584.129 18.9611 585.595 19.4888C587.067 20.0181 587.459 19.9703 588.181 19.1749C588.79 18.5048 590.438 18.1371 593.968 17.8851C596.684 17.6914 600.266 17.4927 601.929 17.4444C603.591 17.3956 605.982 16.9584 607.24 16.4734C610.441 15.2389 617.645 14.3842 619.55 15.0125C620.56 15.3451 621.62 15.333 622.753 14.9753C623.685 14.6815 628.433 14.3797 633.304 14.3037C640.394 14.194 642.498 13.9868 643.85 13.2659C645.748 12.2537 645.823 12.2899 648.9 15.7209C649.831 16.7582 650.799 17.6074 651.052 17.6074C651.305 17.6074 651.296 17.4016 651.032 17.1496C650.768 16.898 650.791 16.326 651.082 15.8793C651.492 15.25 651.877 15.1967 652.792 15.6439C653.441 15.9613 653.972 16.0036 653.972 15.7375C653.972 15.4713 654.877 15.0105 655.983 14.7137C657.675 14.2594 658.359 14.3736 660.303 15.4361C662.382 16.572 662.864 16.6369 665.122 16.0856C666.503 15.7485 667.633 15.2741 667.633 15.0312C667.633 14.7877 668.324 14.589 669.169 14.589C670.014 14.589 671.126 14.3414 671.639 14.0391C672.314 13.6417 673.129 13.6688 674.585 14.1367C675.691 14.4929 677.706 14.7198 679.061 14.6413C680.416 14.5628 681.818 14.7786 682.176 15.1202C682.535 15.4623 683.467 15.5971 684.248 15.4205C685.03 15.244 685.431 14.8712 685.138 14.5925C684.846 14.3138 685.058 14.0859 685.611 14.0859C686.207 14.0859 686.425 14.5105 686.15 15.1318C685.784 15.9558 685.989 16.1082 687.118 15.8512C687.905 15.6716 689.551 15.4054 690.774 15.26C692.348 15.0729 693.159 15.2394 693.543 15.83C693.871 16.3331 694.503 16.5132 695.135 16.2833C695.712 16.073 697.276 15.9503 698.61 16.0101C701.619 16.1449 703.27 15.6333 701.685 15.0563C699.809 14.3731 701.287 14.0723 704.146 14.5558C705.618 14.8043 707.668 15.4718 708.701 16.0388C709.733 16.6058 710.907 16.9499 711.31 16.8035C711.712 16.6571 712.641 16.891 713.376 17.3236C714.11 17.7563 715.367 18.1104 716.167 18.1104C716.968 18.1104 718.49 18.4681 719.548 18.9048C722.383 20.0749 726.649 20.6962 727.842 20.1126C728.396 19.842 730.679 19.7213 732.914 19.8445C735.15 19.9683 736.776 19.9486 736.526 19.8017C736.277 19.6543 736.458 18.8811 736.931 18.0828C737.651 16.8643 738.187 16.6586 740.265 16.8009C741.627 16.8945 743.262 17.2255 743.898 17.5364C744.534 17.8473 745.296 17.9585 745.594 17.7839C745.89 17.6094 747.648 17.4157 749.501 17.3543C752.164 17.2658 752.956 17.4383 753.286 18.1794C753.84 19.428 755.282 19.3661 756.484 18.0425C757.268 17.1793 757.613 17.1053 758.238 17.6652C758.869 18.2312 759.213 18.1728 760.066 17.3558C760.645 16.8025 761.118 16.0101 761.118 15.5951C761.118 15.1801 761.983 14.7681 763.039 14.6795C764.095 14.5915 764.96 14.1951 764.96 13.7991C764.96 13.4037 765.554 13.0798 766.282 13.0798C767.008 13.0798 768.539 12.4846 769.682 11.7577C771.321 10.7153 772.286 10.497 774.237 10.7269C777.22 11.0786 778.125 10.6766 776.691 9.63626C775.811 8.99686 775.867 8.91888 777.022 9.17344C777.787 9.34196 778.747 9.2826 779.156 9.04113C779.861 8.6261 782.185 9.10049 788.558 10.9583C791.124 11.7064 791.328 11.6878 793.254 10.5237C795.544 9.14023 800.003 8.86103 800.644 10.0613C800.865 10.4764 801.429 11.1002 801.895 11.4483C802.547 11.9338 803.18 11.7813 804.627 10.7888C806.117 9.76706 806.987 9.56734 808.786 9.83396C811.346 10.2123 811.769 9.72228 809.667 8.81626C808.423 8.28049 808.553 8.09586 810.858 7.12897C813.094 6.19075 813.514 6.1495 813.955 6.82663C814.236 7.25725 814.827 7.4781 815.268 7.31762C816.042 7.0359 817.663 7.52539 823.92 9.93005C825.532 10.5498 827.484 10.9382 828.258 10.7933C829.032 10.6484 830.208 10.8502 830.87 11.2405C832.503 12.2024 837.217 12.7779 837.926 12.1018C838.307 11.7381 838.996 11.7285 840.086 12.0721C842.702 12.8971 843.584 12.6577 843.324 11.1933C843.117 10.0266 843.432 9.78567 845.339 9.65538C847.642 9.49842 848.592 8.48625 848.616 6.16258C848.629 4.86718 849.661 4.70066 851.147 5.7556C851.708 6.15403 852.676 6.36531 853.297 6.22445C853.918 6.0841 854.995 6.44731 855.69 7.03188C856.718 7.89715 857.044 7.9545 857.443 7.34127C858.326 5.9855 864.365 7.40968 865.141 9.15583C865.631 10.2591 866.861 10.3134 868.569 9.30675C869.273 8.89172 870.626 8.55215 871.575 8.55215C872.525 8.55215 873.608 8.25232 873.984 7.88609C874.359 7.51985 875.88 6.70036 877.362 6.06548C879.156 5.2968 881.205 4.92 883.489 4.93861C887.307 4.9698 891.666 6.1002 892.875 7.37195C893.349 7.8715 894.218 8.07977 895.046 7.89212C896.197 7.63204 896.263 7.36692 895.44 6.30293C894.897 5.60115 894.726 4.86567 895.06 4.66897C896.243 3.97121 898.572 5.41754 898.575 6.85228C898.577 7.64864 898.888 8.58334 899.266 8.92945C900.075 9.67047 901.907 9.79372 901.133 9.05521C900.098 8.0687 902.15 8.57328 904.07 9.77762C905.497 10.6731 906.896 10.9955 909.267 10.9764C911.05 10.9618 913.696 11.2989 915.146 11.725C916.595 12.1511 917.781 12.304 917.781 12.0646C917.781 11.8256 917.364 11.478 916.853 11.2919C916.234 11.0665 916.21 10.7863 916.779 10.4507C917.855 9.81686 919.489 10.3798 919.489 11.3844C919.489 12.051 919.655 12.0475 920.83 11.3547C921.569 10.9201 922.625 10.5609 923.178 10.5569C923.777 10.5523 923.676 10.3597 922.929 10.081C920.908 9.32788 922.688 8.83588 925.095 9.48182C927.135 10.0297 927.252 9.99495 926.715 8.99787C925.986 7.64512 927.439 7.07615 930.82 7.39006C932.839 7.57771 933.281 7.46854 932.896 6.87794C932.596 6.41763 933.44 5.62429 935.077 4.82442C936.546 4.10805 938.153 3.5265 938.649 3.53254C940.627 3.55669 946.81 5.52469 946.834 6.13793C946.851 6.53434 947.203 6.4453 947.731 5.91104C949.433 4.18904 957.907 5.33654 957.907 7.28894C957.907 7.66977 958.676 8.12504 959.615 8.30061C960.554 8.47618 961.328 9.00088 961.335 9.46622C961.346 10.1937 961.462 10.2067 962.156 9.5608C962.852 8.91234 963.126 8.94051 964.148 9.76353C964.799 10.2882 965.735 10.5715 966.226 10.3929C966.717 10.2138 967.338 10.4014 967.604 10.8104C967.903 11.2702 968.643 11.4282 969.541 11.2249C970.546 10.9976 970.797 11.0841 970.355 11.5052C969.893 11.9453 970.302 12.0273 971.83 11.8015C972.992 11.6294 974.167 11.7034 974.442 11.9655C974.717 12.2276 975.911 12.3327 977.096 12.1989C978.682 12.0203 979.251 12.1712 979.251 12.7694C979.251 13.2171 979.881 13.5828 980.651 13.5828C981.422 13.5828 982.598 13.9792 983.266 14.4632C984.107 15.0719 984.613 15.1584 984.909 14.7429C985.145 14.4129 985.793 14.2428 986.35 14.3661C986.907 14.4888 987.807 14.023 988.35 13.3303C989.17 12.2844 989.098 11.9891 987.923 11.5846C986.747 11.1802 986.88 11.0957 988.704 11.0826C992.338 11.0574 998.395 9.61865 1001.18 8.1185C1002.62 7.34227 1004.33 6.67219 1004.97 6.62842C1005.62 6.58516 1007.1 6.45285 1008.28 6.33513C1009.45 6.21691 1010.7 6.10171 1011.05 6.07856C1011.41 6.05593 1011.6 5.86728 1011.48 5.65951C1011.36 5.45225 1012.09 4.79926 1013.09 4.20866C1014.35 3.46462 1015.6 3.21259 1017.14 3.38715C1018.37 3.5255 1019.38 3.85501 1019.38 4.11912C1019.38 4.38323 1019.98 4.24388 1020.72 3.80872C1022.11 2.99225 1024.5 2.73065 1024.5 3.39571C1024.5 3.60297 1026.13 3.77301 1028.13 3.77301C1030.48 3.77301 1032.29 4.09095 1033.29 4.67903C1034.19 5.20826 1035.48 5.46482 1036.38 5.29529C1037.45 5.09607 1038.57 5.47941 1039.97 6.52278C1042.18 8.17284 1044.99 8.55668 1044.99 7.20846C1044.99 6.74614 1044.37 5.96185 1043.61 5.46633C1042.84 4.97081 1042.45 4.21722 1042.72 3.79162C1043.29 2.92232 1044.99 2.73518 1044.99 3.5416C1044.99 3.82985 1045.83 4.73537 1046.86 5.55387C1048.87 7.15865 1052.16 7.55004 1052.99 6.28381C1053.26 5.86627 1053.78 5.55336 1054.14 5.58858C1056.6 5.82603 1058.65 5.43062 1058.65 4.72028C1058.65 4.15484 1059.17 3.98731 1060.36 4.17043C1061.3 4.31481 1062.06 4.20061 1062.06 3.91588C1062.06 3.57781 1062.43 3.56675 1063.13 3.88469C1063.72 4.15232 1064.93 4.52509 1065.81 4.71273C1067.24 5.01508 1067.29 4.95672 1066.24 4.20262C1065.16 3.42639 1065.3 3.38011 1067.83 3.67541C1069.44 3.86356 1070.6 3.79313 1070.6 3.5089C1070.6 3.23925 1070.2 3.01841 1069.71 3.01841C1068.48 3.01841 1071.64 0.538785 1072.89 0.518662C1073.45 0.51011 1074.15 0.955828 1074.44 1.5092C1075.09 2.71204 1076.78 2.79152 1079.48 1.74715C1081 1.16209 1082.01 1.10071 1083.75 1.48908C1085 1.76929 1088.19 1.94536 1090.83 1.87946C1094.07 1.79947 1095.76 1.96599 1096 2.38957C1096.2 2.73568 1097.11 3.01841 1098.02 3.01841C1098.94 3.01841 1099.9 3.35798 1100.17 3.77301C1100.45 4.18804 1101.03 4.52761 1101.48 4.52761ZM1366 0L683 2.38419e-07L0 0H1366ZM455.902 20.1227C455.902 19.846 455.733 19.6196 455.526 19.6196C455.319 19.6196 454.912 19.846 454.622 20.1227C454.332 20.3994 454.501 20.6258 454.998 20.6258C455.495 20.6258 455.902 20.3994 455.902 20.1227ZM460.924 17.6074C460.455 17.6074 460.308 17.8337 460.598 18.1104C460.888 18.3871 461.51 18.6135 461.979 18.6135C462.449 18.6135 462.596 18.3871 462.306 18.1104C462.015 17.8337 461.394 17.6074 460.924 17.6074ZM120.015 35.6579C120.555 35.1423 119.845 35.1106 117.177 35.5317C116.12 35.6987 115.256 36.0035 115.256 36.2098C115.256 36.7073 119.421 36.2244 120.015 35.6579ZM218.276 22.8056C217.962 22.6214 217.706 22.7724 217.706 23.1411C217.706 23.5099 217.962 23.6608 218.276 23.4767C218.588 23.292 218.588 22.9902 218.276 22.8056ZM562.621 23.1411C562.621 22.8644 562.237 22.638 561.768 22.638C561.298 22.638 560.914 22.8644 560.914 23.1411C560.914 23.4178 561.298 23.6442 561.768 23.6442C562.237 23.6442 562.621 23.4178 562.621 23.1411ZM513.673 21.7994C513.36 21.6153 512.848 21.6153 512.534 21.7994C512.222 21.984 512.478 22.135 513.104 22.135C513.73 22.135 513.986 21.984 513.673 21.7994ZM501.31 21.1012C500.223 20.8446 499.564 20.415 499.845 20.1468C500.144 19.8626 501.056 20.0125 502.035 20.506C504.496 21.7481 504.395 21.8306 501.31 21.1012ZM561.483 20.2902C561.17 20.1061 560.914 20.257 560.914 20.6258C560.914 20.9945 561.17 21.1454 561.483 20.9613C561.796 20.7767 561.796 20.4748 561.483 20.2902ZM585.539 17.4041C584.657 17.7256 585.418 18.6135 586.577 18.6135C587.019 18.6135 587.38 18.4248 587.38 18.1944C587.38 17.5394 586.365 17.1038 585.539 17.4041ZM368.482 14.2222C367.615 13.7106 366.898 14.4808 367.61 15.1594C368.148 15.6726 368.35 15.6726 368.638 15.1614C368.836 14.8118 368.765 14.3892 368.482 14.2222ZM645.912 13.5828C646.12 13.5828 646.289 13.8092 646.289 14.0859C646.289 14.3626 645.881 14.589 645.385 14.589C644.888 14.589 644.718 14.3626 645.008 14.0859C645.298 13.8092 645.705 13.5828 645.912 13.5828ZM357.437 16.2657C357.124 16.0816 356.611 16.0816 356.298 16.2657C355.986 16.4503 356.242 16.6012 356.867 16.6012C357.493 16.6012 357.749 16.4503 357.437 16.2657ZM593.783 16.0982C594.073 15.8215 593.689 15.5951 592.929 15.5951C592.17 15.5951 591.785 15.8215 592.076 16.0982C592.366 16.3748 592.75 16.6012 592.929 16.6012C593.109 16.6012 593.493 16.3748 593.783 16.0982ZM681.201 13.3645C680.543 13.6045 680.607 13.8394 681.415 14.1412C682.939 14.7102 683.854 14.7006 683.854 14.1156C683.854 13.4148 682.285 12.9701 681.201 13.3645ZM700.878 11.0675C700.381 11.0675 700.212 11.2939 700.502 11.5706C700.792 11.8472 701.199 12.0736 701.406 12.0736C701.613 12.0736 701.782 11.8472 701.782 11.5706C701.782 11.2939 701.375 11.0675 700.878 11.0675ZM817.173 5.22436C816.543 5.05482 816.9 5.50758 817.968 6.231C820.117 7.68738 821.307 7.90822 821.307 6.85027C821.307 6.46743 820.635 6.01417 819.813 5.84363C818.992 5.67259 817.804 5.39439 817.173 5.22436ZM698.083 13.2473C697.77 13.0632 697.514 13.2141 697.514 13.5828C697.514 13.9516 697.77 14.1025 698.083 13.9184C698.396 13.7337 698.396 13.4319 698.083 13.2473ZM678.731 13.361C678.731 13.2387 678.287 12.9776 677.745 12.7804C677.135 12.5576 676.991 12.6421 677.37 13.0018C677.977 13.5818 678.731 13.7805 678.731 13.361ZM1036.88 6.03681C1036.59 5.76012 1036.76 5.53374 1037.26 5.53374C1037.75 5.53374 1038.16 5.76012 1038.16 6.03681C1038.16 6.3135 1037.99 6.53988 1037.78 6.53988C1037.58 6.53988 1037.17 6.3135 1036.88 6.03681ZM987.504 9.7258C987.191 9.54168 986.935 9.6926 986.935 10.0613C986.935 10.4301 987.191 10.581 987.504 10.3969C987.817 10.2123 987.817 9.91043 987.504 9.7258ZM867.126 9.22274C866.812 9.03861 866.3 9.03861 865.987 9.22274C865.674 9.40736 865.93 9.55828 866.556 9.55828C867.182 9.55828 867.438 9.40736 867.126 9.22274ZM785.166 8.2166C784.852 8.03248 784.34 8.03248 784.027 8.2166C783.714 8.40123 783.97 8.55215 784.596 8.55215C785.222 8.55215 785.478 8.40123 785.166 8.2166ZM901.133 8.04908C901.423 7.77239 901.039 7.54601 900.279 7.54601C899.52 7.54601 899.135 7.77239 899.426 8.04908C899.716 8.32577 900.1 8.55215 900.279 8.55215C900.459 8.55215 900.843 8.32577 901.133 8.04908ZM313.095 7.24216C312.811 7.07514 312.075 7.05703 311.459 7.20242C310.778 7.3629 310.98 7.48212 311.975 7.50627C312.875 7.5279 313.378 7.40918 313.095 7.24216ZM1052.25 3.52147C1052.54 3.24479 1052.37 3.01841 1051.87 3.01841C1051.37 3.01841 1050.97 3.24479 1050.97 3.52147C1050.97 3.79816 1051.14 4.02454 1051.34 4.02454C1051.55 4.02454 1051.96 3.79816 1052.25 3.52147ZM1248.82 364.902C1246.15 365.318 1245.44 365.286 1245.98 364.777C1246.58 364.217 1250.74 363.74 1250.74 364.232C1250.74 364.436 1249.88 364.737 1248.82 364.902ZM1148.29 377.141C1148.29 377.505 1148.04 377.654 1147.72 377.473C1147.41 377.29 1147.41 376.992 1147.72 376.81C1148.04 376.628 1148.29 376.777 1148.29 377.141ZM804.232 377.638C803.763 377.638 803.379 377.414 803.379 377.141C803.379 376.868 803.763 376.644 804.232 376.644C804.702 376.644 805.086 376.868 805.086 377.141C805.086 377.414 804.702 377.638 804.232 377.638ZM853.466 378.466C853.152 378.648 852.64 378.648 852.327 378.466C852.014 378.284 852.27 378.135 852.896 378.135C853.522 378.135 853.778 378.284 853.466 378.466ZM866.155 380.099C866.436 379.834 865.777 379.41 864.69 379.156C861.605 378.436 861.504 378.517 863.965 379.744C864.944 380.232 865.856 380.38 866.155 380.099ZM805.086 379.626C805.086 379.99 804.83 380.139 804.517 379.957C804.204 379.775 804.204 379.477 804.517 379.294C804.83 379.112 805.086 379.261 805.086 379.626ZM910.474 380.62C910.267 380.62 910.098 380.396 910.098 380.123C910.098 379.849 910.505 379.626 911.002 379.626C911.499 379.626 911.668 379.849 911.378 380.123C911.088 380.396 910.681 380.62 910.474 380.62ZM905.076 382.607C904.606 382.607 903.985 382.384 903.694 382.11C903.404 381.837 903.551 381.613 904.021 381.613C904.49 381.613 905.112 381.837 905.402 382.11C905.692 382.384 905.545 382.607 905.076 382.607ZM780.461 382.808C779.635 383.105 778.62 382.674 778.62 382.027C778.62 381.8 778.981 381.613 779.423 381.613C780.582 381.613 781.343 382.491 780.461 382.808ZM1009.7 383.933C1009.39 384.115 1008.88 384.115 1008.56 383.933C1008.25 383.75 1008.51 383.601 1009.13 383.601C1009.76 383.601 1010.01 383.75 1009.7 383.933ZM773.071 384.595C772.311 384.595 771.927 384.371 772.217 384.098C772.507 383.825 772.891 383.601 773.071 383.601C773.25 383.601 773.634 383.825 773.924 384.098C774.215 384.371 773.83 384.595 773.071 384.595ZM997.362 385.023C997.65 384.519 997.852 384.519 998.39 385.025C999.102 385.696 998.385 386.457 997.518 385.951C997.235 385.786 997.164 385.369 997.362 385.023ZM720.088 386.583C720.295 386.583 720.702 386.359 720.992 386.086C721.282 385.813 721.112 385.589 720.615 385.589C720.119 385.589 719.711 385.813 719.711 386.086C719.711 386.359 719.88 386.583 720.088 386.583ZM684.799 386.798C683.715 387.188 682.146 386.749 682.146 386.057C682.146 385.479 683.061 385.469 684.585 386.031C685.393 386.329 685.457 386.561 684.799 386.798ZM668.486 386.583C668.486 386.947 668.23 387.096 667.917 386.914C667.604 386.732 667.604 386.434 667.917 386.251C668.23 386.069 668.486 386.219 668.486 386.583ZM688.255 387.375C687.713 387.181 687.269 386.923 687.269 386.802C687.269 386.388 688.023 386.584 688.63 387.157C689.009 387.512 688.865 387.596 688.255 387.375ZM665.122 389.067C664.625 389.067 664.218 388.844 664.218 388.571C664.218 388.297 664.387 388.074 664.594 388.074C664.801 388.074 665.208 388.297 665.498 388.571C665.788 388.844 665.619 389.067 665.122 389.067ZM379.065 390.061C379.065 390.426 378.809 390.575 378.496 390.393C378.183 390.21 378.183 389.912 378.496 389.73C378.809 389.548 379.065 389.697 379.065 390.061ZM500.013 390.89C499.7 391.072 499.188 391.072 498.874 390.89C498.562 390.707 498.818 390.558 499.444 390.558C500.07 390.558 500.326 390.707 500.013 390.89ZM581.973 391.884C581.66 392.065 581.148 392.065 580.834 391.884C580.522 391.701 580.778 391.552 581.404 391.552C582.03 391.552 582.286 391.701 581.973 391.884ZM465.721 392.546C464.961 392.546 464.577 392.322 464.867 392.049C465.157 391.776 465.541 391.552 465.721 391.552C465.9 391.552 466.284 391.776 466.574 392.049C466.865 392.322 466.48 392.546 465.721 392.546ZM1054.54 392.885C1053.93 393.029 1053.19 393.011 1052.91 392.846C1052.62 392.681 1053.13 392.564 1054.03 392.585C1055.02 392.609 1055.22 392.727 1054.54 392.885ZM546.187 394.228C545.365 394.059 544.693 393.611 544.693 393.233C544.693 392.188 545.883 392.406 548.032 393.845C549.1 394.56 549.457 395.007 548.827 394.839C548.196 394.671 547.008 394.397 546.187 394.228ZM327.84 394.037C327.84 394.31 328.247 394.534 328.744 394.534C329.241 394.534 329.411 394.31 329.121 394.037C328.83 393.763 328.424 393.54 328.217 393.54C328.009 393.54 327.84 393.763 327.84 394.037ZM315.034 396.521C315.034 396.795 314.627 397.018 314.13 397.018C313.633 397.018 313.463 396.795 313.753 396.521C314.043 396.248 314.45 396.025 314.657 396.025C314.865 396.025 315.034 396.248 315.034 396.521Z" fill="#ecece5"/>
</g>
<defs>
<clipPath id="clip0">
<rect width="1366" height="400" fill="white"/>
</clipPath>
</defs>
</svg>
