<svg xmlns="http://www.w3.org/2000/svg" viewBox="0 0 460 60.32"><circle fill="#e8e5d3" cx="28.74" cy="31.58" r="28.74"/><path fill="#998d50" d="M15.74 44.38c-2.2-1.78-4.28-2.82-7.34-1.95a7.32 7.32 0 0 0 3.14 4.14 20.24 20.24 0 0 0 7.95 2.78s-.6-2.35-3.8-4.97zm21-15.96c-6.17 1.88-9 5.5-11.92 9.78 2.18.5 10.63.7 14.1-.3 8.32-2.4 13.6-10.64 13.6-10.64s-8.47-1.08-15.78 1.16zM26.3 40.05c-4.77-1.14-7.3.5-10.3 2.65a39.83 39.83 0 0 0 8.93 3.74c5.66 1.35 12.53-.76 12.53-.76s-5.5-4.28-11.17-5.63zm16.2-23.22c-2 6.55-7.1 9-11.36 11.27.1-3.53.2-9.66 1.3-13.34C34.78 7 42.3 0 42.3 0s2.53 9.07.2 16.83zM28 28.55c-.77 4.34-3.7 6.36-5.7 8.16a41.85 41.85 0 0 1 .32-9.1c.92-5.1 4.92-10.2 4.92-10.2A32.43 32.43 0 0 1 28 28.6zm-8.06 7.13c-.6 3.23-2.52 4.15-4.5 5.36a28.92 28.92 0 0 1 .28-6.48 19.63 19.63 0 0 1 3.7-7.44 22.92 22.92 0 0 1 .52 8.56z"/><path fill="#1f1f1f" d="M99.86 47.2a4.4 4.4 0 0 1-.15-1.2 4.68 4.68 0 0 1 .2-1.18h4.1l-4-9.47H88.2L84.98 43l.73 1.85h2.9a4.6 4.6 0 0 1 0 2.36h-9.9a4.6 4.6 0 0 1 0-2.3H81L94.2 14h2.15l13 30.83H112a4.62 4.62 0 0 1 0 2.36zM95.3 24l-1.13-3.9-1.23 3.9-3.75 8.88h9.7zm39 23.2a4.36 4.36 0 0 1-.15-1.18 4.63 4.63 0 0 1 .15-1.18h4.2v-28h-4.2a4.63 4.63 0 0 1-.15-1.18 4.36 4.36 0 0 1 .15-1.18h13.5c7.23 0 10.93 2.87 10.93 8.16a7.6 7.6 0 0 1-5.5 7.13l-2.14.5 2.1.22c4.6.7 7.2 3.7 7.2 7.8 0 6-5.2 8.8-12.7 8.8zM150 29.4c1.8-.83 3.33-3.3 3.33-6.52 0-4-2.1-6-6.2-6h-3.5v12.5zm-1.85 15.5c4.52 0 6.88-2.2 6.88-6.42s-2.46-6.77-7.75-6.77h-3.64v13c.72.1 3.44.3 4.46.3zm18.53-13.7A17.1 17.1 0 0 1 183.82 14c9.08 0 16.88 6.3 16.88 16.52a17.1 17.1 0 0 1-17.13 17.2c-9.1 0-16.9-6.32-16.9-16.53zm28.32-.67c0-8.88-4.72-14-11.13-14s-11.4 5-11.4 14.62c0 8.88 4.73 14 11.14 14S195 40.17 195 30.53zm10 .67A17.1 17.1 0 0 1 222.15 14c9.08 0 16.85 6.3 16.85 16.53a17.1 17.1 0 0 1-17.1 17.18c-9.1 0-16.9-6.3-16.9-16.5zm28.27-.68c0-8.88-4.72-14-11.13-14s-11.4 5-11.4 14.62c0 8.88 4.73 14 11.14 14s11.4-4.97 11.4-14.6zM267.77 47v-.72l-12.3-14.22-1.86-.5v13.07h3.8a4.6 4.6 0 0 1 0 2.36h-13a4.36 4.36 0 0 1-.1-1.2 4.64 4.64 0 0 1 .17-1.2h4.2v-28h-4.2a4.64 4.64 0 0 1-.14-1.2 4.36 4.36 0 0 1 .13-1.2h13.08a4.36 4.36 0 0 1 .2 1.2 4.63 4.63 0 0 1-.15 1.2h-3.8v12.8h1.86l11.2-11.1-.33-1.7h-2.73a4.62 4.62 0 0 1 0-2.4h11a4.6 4.6 0 0 1 0 2.35h-2.5l-12.9 12.2L273 44.6h2.87a4.68 4.68 0 0 1 .16 1.2 4.4 4.4 0 0 1-.16 1.2zm49.83 0a4.4 4.4 0 0 1-.15-1.18 4.68 4.68 0 0 1 .15-1.18h4.1l-4-9.5h-11.9l-3.17 7.65.77 1.8h2.82a4.6 4.6 0 0 1 0 2.3h-9.9a4.65 4.65 0 0 1 0-2.4h2.26L312 13.8h2.15l13 30.83h2.62a4.6 4.6 0 0 1 0 2.36zM313 23.75l-1.13-3.9-1.23 3.9-3.74 8.88h9.75zM334.18 47a4.65 4.65 0 0 1 0-2.36h4.2v-28h-4.2a4.68 4.68 0 0 1-.15-1.18 4.4 4.4 0 0 1 .15-1.18H348c7.44 0 11.5 3.6 11.5 9.34s-4.5 9.88-12.24 9.88h-3.8v11.13h4.67a4.6 4.6 0 0 1 0 2.36zm9.3-15.85h3.8c4.2 0 6.7-2.56 6.7-7.5s-2.3-7-6.7-7h-3.8zM381.6 47a4.4 4.4 0 0 1-.16-1.18 4.68 4.68 0 0 1 .15-1.18h4.1l-4-9.5h-11.9l-3.2 7.65.7 1.8h2.8a4.6 4.6 0 0 1 0 2.3h-9.9a4.65 4.65 0 0 1 0-2.4h2.23l13.4-30.84H378l13 30.82h2.63a4.6 4.6 0 0 1 0 2.33zM377 23.75l-1.13-3.9-1.23 3.9-3.74 8.88h9.75zM421 47v-.72l-9.7-13-3.85-.56v12h4a4.65 4.65 0 0 1 0 2.36h-13.28a4.65 4.65 0 0 1 0-2.36h4.2v-28h-4.2a4.68 4.68 0 0 1-.15-1.18 4.4 4.4 0 0 1 .15-1.18H412c7.23 0 11.18 3.18 11.18 8.93 0 4-3.18 7.8-8.4 8.7a17.75 17.75 0 0 1 4.5 4.4l6.57 8.15h2.3a4.65 4.65 0 0 1 0 2.36zm-8.2-16.37a7.12 7.12 0 0 0 5-7.28c0-4.77-2.1-6.67-6.53-6.67h-3.85v14zm46.43-16.33h-28.06l-.77 6.32h2.77l1.33-2.57c.46-.92.67-1.28 1.13-1.38h7v28h-4.2a4.65 4.65 0 0 0 0 2.36h13.5a4.65 4.65 0 0 0 0-2.36h-4.22v-28h7c.5.1.7.46 1.2 1.38l1.4 2.57h2.8z"/></svg>