<svg xmlns="http://www.w3.org/2000/svg" width="40" height="40" fill="none" viewBox="0 0 40 40"><path fill="#000" d="M20 40C31.0457 40 40 31.0457 40 20C40 8.9543 31.0457 0 20 0C8.9543 0 0 8.9543 0 20C0 31.0457 8.9543 40 20 40Z"/><path fill="#fff" d="M20 10C25.66 10 29.73 13.72 29.73 20C29.73 26.28 25.66 30 20 30C14.34 30 10.3 26.28 10.3 20C10.3 13.72 14.35 10 20 10ZM20 28.05C24.36 28.05 27.25 25.05 27.25 20.05C27.25 15.05 24.37 12 20 12C15.63 12 12.75 15 12.75 20C12.75 25 15.64 28.05 20 28.05Z"/></svg>