<svg xmlns="http://www.w3.org/2000/svg" width="40" height="40" fill="none" viewBox="0 0 40 40"><path fill="#000" fill-rule="evenodd" d="M20 39C30.4934 39 39 30.4934 39 20C39 9.50659 30.4934 1 20 1C9.50659 1 1 9.50659 1 20C1 30.4934 9.50659 39 20 39ZM40 20C40 31.0457 31.0457 40 20 40C8.9543 40 0 31.0457 0 20C0 8.9543 8.9543 0 20 0C31.0457 0 40 8.9543 40 20Z" clip-rule="evenodd"/><path fill="#000" d="M20.02 13.09L18.3 18.39H12.73L17.24 21.66L15.52 26.96L20.02 23.68L24.53 26.96L22.81 21.66L27.32 18.39H21.74L20.02 13.09Z"/><path fill="#000" d="M3.21 27L7.71 23.72L12.22 27L10.5 21.7L15 18.38H9.43L7.71 13.09L6 18.38H0.5V18.44L4.93 21.66L3.21 27Z"/><path fill="#000" d="M32.33 13.09L30.61 18.38H25L29.51 21.66L27.82 27L32.33 23.72L36.84 27L35.12 21.7L39.54 18.48V18.42H34.05L32.33 13.09Z"/></svg>