<svg xmlns="http://www.w3.org/2000/svg" width="40" height="40" fill="none" viewBox="0 0 40 40"><path fill="#000" fill-rule="evenodd" d="M20 39C30.4934 39 39 30.4934 39 20C39 9.50659 30.4934 1 20 1C9.50659 1 1 9.50659 1 20C1 30.4934 9.50659 39 20 39ZM40 20C40 31.0457 31.0457 40 20 40C8.9543 40 0 31.0457 0 20C0 8.9543 8.9543 0 20 0C31.0457 0 40 8.9543 40 20Z" clip-rule="evenodd"/><path fill="#000" d="M20.67 10C26.2 10 28.97 13.53 29.24 16.44V16.85H26.9C26.71 14.78 25.1 12 20.7 12C16.3 12 13.45 15.07 13.45 20C13.45 24.93 16.34 28 20.7 28C24.9 28 26.7 25.19 26.76 22.23H20.1V20.39H29.02V29.74H27.3L26.76 27.23H26.49C25.85 28.12 24.31 30.03 20.43 30.03C15.1 30.03 11 26.34 11 20.03C11 13.72 15.01 10 20.67 10Z"/></svg>
