<svg xmlns="http://www.w3.org/2000/svg" width="40" height="40" fill="none" viewBox="0 0 40 40"><path fill="#000" fill-rule="evenodd" d="M20 39C30.4934 39 39 30.4934 39 20C39 9.50659 30.4934 1 20 1C9.50659 1 1 9.50659 1 20C1 30.4934 9.50659 39 20 39ZM40 20C40 31.0457 31.0457 40 20 40C8.9543 40 0 31.0457 0 20C0 8.9543 8.9543 0 20 0C31.0457 0 40 8.9543 40 20Z" clip-rule="evenodd"/><path stroke="#000" stroke-miterlimit="10" d="M9.83998 3.35999L8.22998 35.58"/><path fill="#000" d="M32.9999 34.5L26.4999 38.5L25.1099 1.16998L29.9999 3L32.9999 34.5Z"/></svg>