<svg xmlns="http://www.w3.org/2000/svg" viewBox="0 0 1920 1080">
					<defs />
					<path
						d="M1173 662c-52 0-88 37-88 90 0 54 37 91 92 91 27 0 50-8 68-23a4 4 0 001-5l-18-36a4 4 0 00-3-2 4 4 0 00-3 1 66 66 0 01-44 15c-15 0-32-6-39-23h115a4 4 0 005-5v-11c0-56-34-92-86-92zm-34 68c5-15 16-23 33-23 16 0 27 8 30 23zM1372 662c-52 0-88 37-88 90 0 54 37 91 92 91 27 0 50-8 69-23a4 4 0 001-5l-18-36a4 4 0 00-3-2 4 4 0 00-4 1 66 66 0 01-44 15c-15 0-32-6-38-23h115a4 4 0 004-5v-11c0-56-34-92-86-92zm-34 68c5-15 17-23 33-23s27 8 30 23zM1582 741l68-68a4 4 0 00-3-7h-58a4 4 0 00-3 1l-52 56V604a4 4 0 00-4-4h-44a4 4 0 00-4 4v230a4 4 0 004 5h44a4 4 0 004-5v-45l12-12 42 60a4 4 0 003 2h56a4 4 0 003-7zM1088 602a4 4 0 00-4-2h-49a4 4 0 00-4 4l-22 121-27-122a4 4 0 00-5-3h-49a4 4 0 00-5 3l-28 125-31-125a4 4 0 00-4-3h-49a4 4 0 00-4 5l62 231a4 4 0 004 3h43a4 4 0 004-3l32-132 33 132a4 4 0 004 3h43a4 4 0 004-3l53-231a4 4 0 00-1-3z"
					/>
					<g>
						<path
							d="M1006 372c0-69-49-119-117-119h-84a4 4 0 00-4 4v231a4 4 0 004 4h84c68 0 117-50 117-120zm-54 0c0 39-26 65-63 65h-33V308h33c37 0 63 26 63 64zM1121 496c27 0 50-8 68-23a4 4 0 001-5l-18-36a4 4 0 00-3-2 4 4 0 00-3 1 66 66 0 01-44 15c-15 0-32-6-39-23h115a4 4 0 005-5v-12c0-55-34-91-86-91s-88 37-88 90c0 54 37 91 92 91zm-38-113c5-15 16-23 33-23 16 0 27 8 30 22zM1232 371c0 45 44 54 58 56 27 6 33 8 33 13 0 7-11 8-18 8-21 0-38-7-48-20a4 4 0 00-4-1 4 4 0 00-3 2l-25 32a4 4 0 000 6c14 18 41 29 76 29 62 0 75-32 75-58 0-39-28-50-56-56-26-6-35-8-35-12 0-7 13-8 17-8 17 0 33 7 41 16a5 5 0 004 1 4 4 0 003-1l24-32a4 4 0 000-6 92 92 0 00-68-25c-47 0-74 21-74 56zM1431 302c18 0 32-13 32-32a32 32 0 00-32-32c-18 0-32 14-32 32 0 19 14 32 32 32z"
						/>
						<rect width="51.9" height="172.9" x="1403" y="319" rx="4.3" ry="4.3" />
						<path
							d="M1791 315c-23 0-39 9-49 20v-12a4 4 0 00-4-4h-42a4 4 0 00-5 4v164a4 4 0 005 5h43a4 4 0 004-5v-78c0-30 11-44 32-44 17 0 26 10 26 31v91a4 4 0 004 5h44a4 4 0 004-5V385c0-44-22-70-62-70zM1658 318h-42a4 4 0 00-4 4v12a82 82 0 00-50-19c-39 0-81 28-81 90 0 53 32 88 81 88 18 0 33-5 45-15a2 2 0 014 2c-3 22-17 32-44 32a63 63 0 01-29-6 4 4 0 00-5 1l-22 37a4 4 0 002 5c15 9 33 13 55 13 61 0 94-31 94-85V323a4 4 0 00-4-5zm-85 127c-23 0-39-16-39-40s16-40 39-40 38 16 38 40-15 40-38 40z"
						/>
					</g>
					<g>
						<path
							d="M655 255h-45a4 4 0 00-5 4v454a12 12 0 01-20 10l-62-48a66 66 0 00-40-14H71a4 4 0 00-4 5v45a4 4 0 004 4h395a61 61 0 0138 13l135 103a13 13 0 0020-10V259a4 4 0 00-4-4z"
						/>
					</g>
					<g>
						<path
							d="M380 526h2a26 26 0 003 1 9 9 0 001 0 91 91 0 0017 2 14 14 0 001 0 72 72 0 0010-1c20-3 38-10 52-23a3 3 0 000-4l-16-31a3 3 0 00-2-1 3 3 0 00-3 1 58 58 0 01-43 19c-22 0-39-13-45-34a49 49 0 010-26c6-21 23-34 46-34 16 0 30 6 42 19a3 3 0 003 1 3 3 0 002-2l16-31a3 3 0 000-3 92 92 0 00-64-24 95 95 0 00-16 1l-1 1a24 24 0 00-3 0l-2 1a85 85 0 00-64 84c0 40 26 74 64 84zM137 529h61c49 0 85-37 85-87s-36-87-85-87h-61a3 3 0 00-3 3v168a3 3 0 003 3zm36-40v-94h25c26 0 45 19 45 47s-19 47-45 47z"
						/>
					</g>
				</svg>